<svg xmlns="http://www.w3.org/2000/svg" viewBox="0 0 512 512"><defs><style>.appleapplecls-1{fill:#ef2b45;}.appleapplecls-2{fill:#fee9a6;}.appleapplecls-3{fill:#72ab4c;}.appleapplecls-4{fill:#4a2d2d;}.appleapplecls-5{fill:#fff;}.appleapplecls-6{fill:none;}</style></defs><g id="Capa_2" data-name="Capa 2"><g id="bocetos"><path class="appleapplecls-1" d="M331.12,138.74c-27.56-11.78-56.38-1.87-80.86,12.67.29-.17-4.44,3-4.62,3.82a.77.77,0,0,0-.32-.07,12,12,0,0,1-4.13-1c-.95,12,.79,24.28.82,36.15a3.23,3.23,0,0,1-4,3.08c-3.57-.77-5.56-4-6.66-7.23-2.51-7.42-1.93-16.06-1.3-23.74.29-3.58.71-7.18,1.36-10.74l-10.08-2.49c-16.46-4.07-32.88-8.34-49.37-12.33-9-2.17-20.91-7.66-29.93-4.17-24.23,9.39-44.21,30-56.76,52.33C70.7,211,69,240.79,76.43,269.26,85,302,104.86,332,127.27,356.94c10.56,11.76,23,23.28,37.22,30.46,14.93,7.53,30.49,6.7,45.41-.13a4.2,4.2,0,0,0,.83-.52,67.82,67.82,0,0,0,26.13-11.84c1.4-1.05,4.91-5.14,6.51-5.35,3.13-.43,6.06,4.08,8.16,5.83a57.67,57.67,0,0,0,12.73,8c20.38,9.43,44.06,6.85,62.77-5.34,20.66-13.46,34.27-36.6,43.66-58.83,8.87-21,17-42.6,17-65.58a3,3,0,0,0-.22-1.14C391.17,207.29,374.1,157.12,331.12,138.74Z"/><path class="appleapplecls-1" d="M406.53,286.12c-12.63-7.42-20.22-7.54-59.28-1s-126.1,25-131.93,29.81-10.28,35.3-7.88,59.63,5.48,40.43,29.47,54.14,78.71,20.06,129.08,3.61,67.27-59.46,66.93-86.54S428.12,298.8,406.53,286.12Z"/><path class="appleapplecls-2" d="M423,319c-2.84-15.61-9-25.34-16-32.6l-.49-.3c-12.63-7.42-20.22-7.54-59.28-1-36.3,6.05-114,22.45-129.5,28.59,1.65,13.55,7,41.79,24.3,65.3,23.64,32.21,70.25,52.43,122.68,34.27S427.78,345.4,423,319Z"/><path class="appleapplecls-3" d="M232.37,155.26a3.52,3.52,0,0,0-.18-.8,2.87,2.87,0,0,0-.33-.82,130.87,130.87,0,0,0-102-82.16c-2.33-.35-4.59.93-4.63,3.53-.37,29.14.33,58.82,24.65,78.65,22.26,18.14,53.56,21.48,80.4,12.86a4.63,4.63,0,0,0,3.33-4.38A36.13,36.13,0,0,0,232.37,155.26Z"/><path class="appleapplecls-4" d="M217.48,191.78c10.48,11.62,35.45,10.64,38-7.83.55-4-4-6-6.45-2.71-3.12,4.21-6.12,8.25-11.47,9.6-5.53,1.4-10.79-.48-14.78-4.39-3.48-3.42-8.57,1.74-5.33,5.33Z"/><path class="appleapplecls-4" d="M235,193.71a319.67,319.67,0,0,1,.65-46.11c1.1-11.61,4.79-29.51,11.44-41.28,3.35-5.91,9.61-12.15,17.09-10.15,8.95,2.39,2.49,8.18-1.37,11.68-11,9.91-17.3,22.76-20.64,37a225.86,225.86,0,0,0-3.91,25c-1,8.67-1.83,16.57,2.08,24.64,1.77,3.63,7.26,1,6.35-2.68-3.74-15.14-.34-32.55,3.29-47.1,2.09-8.37,4.82-15.84,9.61-23.11,3.9-5.91,10.11-9.29,14.09-15,4.26-6.16,1.09-13-5.18-16-7.22-3.47-15.63-.72-21.29,4.39-11.8,10.65-14.41,30.83-17.21,45.58-3.33,17.64-2.64,35.48-1.1,53.24.34,3.85,6.29,4,6.1,0Z"/><path class="appleapplecls-4" d="M230.7,162.24a515.39,515.39,0,0,0-91.94-80.32c-1.49-1-3.35,1.35-1.95,2.53C168,110.52,200.08,135.26,228,165c1.71,1.83,4.4-.89,2.74-2.74Z"/><path class="appleapplecls-4" d="M213.85,398.9c-2-13.95-5.76-26.84-4.54-41.14,1.25-14.56,3.53-28.19,9.85-41.47,1.89-4-3.83-7.46-6-3.5a91.18,91.18,0,0,0-10.79,43.76c.31,14.12.81,31.24,7.78,43.9,1.19,2.16,4,.55,3.68-1.55Z"/><path class="appleapplecls-4" d="M217.89,314.94c14.79-1.95,29.4-5.63,44-8.58,18.6-3.76,37.27-6.89,56-10,16.23-2.71,32.33-6.16,48.56-8.92,8.11-1.37,17.41-3.66,25.7-3.13,4.48.28,4.39-6.53,0-6.92-8.25-.74-17.38,1.89-25.46,3.16-16,2.49-32.13,4.76-48,7.93C300.4,292.09,282.23,296.24,264,300c-15.52,3.19-31.62,5.78-46.62,11-2,.69-1.86,4.27.53,4Z"/><path class="appleapplecls-4" d="M343.85,308.27a1.41,1.41,0,0,0-.38-.1c-9.11-1.48-19.32-1.3-27.6,3.32-5.09,2.85-11.75,9.77-9.73,16.32,2.22,7.19,12.6,5.56,17.79,3.77,9.77-3.37,16-11,22.27-18.75C347.91,310.73,345.91,307.89,343.85,308.27Z"/><path class="appleapplecls-4" d="M169.06,158.89c13.59-5.12,27.7-8.57,41.33-13.5a1.68,1.68,0,0,0-.89-3.24c-14.17,2.7-28.05,7.87-41.42,13.19-2.16.86-1.25,4.39,1,3.55Z"/><path class="appleapplecls-4" d="M146.79,132.32c12.57-2.75,27.6-4.61,39.14-10.48,1.47-.75.83-3.36-.87-3.21-13.06,1.14-26.6,6.65-39.38,9.65-2.63.62-1.51,4.61,1.11,4Z"/><path class="appleapplecls-4" d="M199.57,132.69c-1.33-11-3.65-22.9-7.64-33.27-.7-1.81-4-1.8-3.73.51,1.36,11.2,5.75,22.17,8.18,33.19.38,1.76,3.41,1.41,3.19-.43Z"/><path class="appleapplecls-5" d="M107.66,196.36c-3.29,8.19-9.38,28.85-3.19,37,15.83,20.82,48.42-38.15,37.95-55.44-7.81-12.89-20.42-2.84-27.16,5.41A49.48,49.48,0,0,0,107.66,196.36Z"/><rect class="appleapplecls-6" width="512" height="512"/></g></g></svg>