<svg xmlns="http://www.w3.org/2000/svg" viewBox="0 0 512 512"><defs><style>.apricotapricotcls-1{fill:#72ab4c;}.apricotapricotcls-2{fill:#4a2d2d;}.apricotapricotcls-3{fill:#feac5e;}.apricotapricotcls-4{fill:#ffd0a5;}.apricotapricotcls-5{fill:#945031;}.apricotapricotcls-6{fill:#fff;}.apricotapricotcls-7{fill:none;}</style></defs><g id="Capa_2" data-name="Capa 2"><g id="bocetos"><path class="apricotapricotcls-1" d="M409.41,210.26c1.44-2,2.83-4,4.24-6-1.1-15-5.2-43.76-20.31-72.2-21.8-41-52.46-53.57-55.79-48.4s-7.38,66.13,18.48,92.73c19,19.5,41.28,31,51.85,35.83C408.39,211.6,408.91,210.94,409.41,210.26Z"/><path class="apricotapricotcls-2" d="M350.6,115.68C374.67,144.19,393,175,408.31,208.94c1.18,2.63,5.63.76,4.68-2-12.33-35.43-34.8-66.38-59.59-94.08-1.71-1.92-4.42.87-2.8,2.79Z"/><path class="apricotapricotcls-2" d="M390.26,238.61a12.21,12.21,0,0,0,3.4,2.57c6.73-6,11.93-13.38,16.45-21.57,6.79-12.33,8.12-24.77,11.26-38.24.45-2,5.36-11.64,6.47-.92.29,2.86-.55,12-10.53,35.28-5,11.56-12,18.11-19.83,26.83a28.11,28.11,0,0,0,7.5.8c9.43-8.83,16.56-21.45,21.21-32.74A98,98,0,0,0,432.64,187c.83-5.73,2.71-14.55-2.29-19-13.21-11.64-16.39,19.78-17.42,25.51-4,22-11.81,31.11-14,34.05-.6.82-7.69,8.6-9.35,10.11A6.86,6.86,0,0,0,390.26,238.61Z"/><path class="apricotapricotcls-2" d="M158.38,162.61a5.19,5.19,0,0,0,.21-1.76c-.17-7.6-1.27-15.09-1.75-22.66-.44-6.86-1.62-12.33-5.51-18.13-6.37-9.49-18.1-21.59-30.91-16.5-12,4.74,2.14,14.62,7,18.08,7.1,5.09,10.37,13.12,12.8,21.2,1.65,5.49,2.4,22.84,11.31,22.46a12.51,12.51,0,0,0,6.08-1.71A1.67,1.67,0,0,0,158.38,162.61Zm-8.54-.45c.35-7.09-2-19.8-4.14-26.17-2.7-8.11-6.89-14.3-14-19.1-1.72-1.16-6.87-3.29-7.31-5.19-1.06-4.56,6.28-2.08,8.84-.84,6,2.86,10.73,9,14,14.57,5.38,9.29,4.82,26.41,6.43,37.28C152.79,162.51,150.69,162.37,149.84,162.16Z"/><path class="apricotapricotcls-3" d="M231.15,401.79C179.43,431.71,97,394.41,61.21,326.06S35.35,207.09,66,177.17c0,0,21-22.91,45.07-24a100.07,100.07,0,0,1,28.53,3c7.25,1.68,12.35,3.17,15.54,1.88l.27-.12c6.26-2.94,14.39-20.68,57.62-19.2s67.61,42.11,72.42,95.31S282.87,371.86,231.15,401.79Z"/><path class="apricotapricotcls-3" d="M397.4,240s-20.32-33.25-39.9-39.89-55,0-77.95,22.53S231.15,283.2,233,332.7s14.41,81.65,56.9,100.49,107.13,13.3,156.64-39.9S483.48,286.15,476.46,271,448,242.93,434,242.93,397.4,240,397.4,240Z"/><path class="apricotapricotcls-4" d="M414,240c-7,.35-18.7.51-25.27-12.13S369,192.45,328.59,196s-85.92,41.45-95.52,96.53-8.71,107,56.1,125.85C348.3,435.55,420.57,396.64,456,340s12.13-81.87-1-92S424.42,239.44,414,240Z"/><path class="apricotapricotcls-5" d="M305.14,315.23a4.68,4.68,0,0,1-.69-1.81A6,6,0,0,1,306,307.6a6.56,6.56,0,0,1,4.23-1.75,5.92,5.92,0,0,1,3,.82l1.21.93a6,6,0,0,1,1.54,5.82c0,.08,0,.16,0,.25a1.76,1.76,0,0,1-.31.78,2.72,2.72,0,0,1-.34.78,5.88,5.88,0,0,1-10.15,0Zm8.4,24.24c-4.19,0-4.19-6.51,0-6.51S317.73,339.47,313.54,339.47Zm14.84-49.81a4.64,4.64,0,0,1-1.74-1.75,1.6,1.6,0,0,1-.1-.23,4.84,4.84,0,1,1,8.36-4.89,4.86,4.86,0,0,1,0,4.89,1.6,1.6,0,0,1-.1.23,4.64,4.64,0,0,1-1.74,1.75,4.6,4.6,0,0,1-4.68,0Zm5.83,21.8-.82-.63a4,4,0,0,1-1.05-1.8L332.2,308a2.89,2.89,0,0,1,.35-1.56,3,3,0,0,1,.84-1.31,2.93,2.93,0,0,1,1.3-.84,3,3,0,0,1,1.57-.35,4,4,0,0,1,2.05.55l.83.64a4,4,0,0,1,1,1.79l.15,1.08a3.15,3.15,0,0,1-.35,1.57,3.64,3.64,0,0,1-2.15,2.15,3.15,3.15,0,0,1-1.57.35A4.1,4.1,0,0,1,334.21,311.46Zm8.15,18.42c-6.12,0-6.11-9.5,0-9.5S348.47,329.88,342.36,329.88Zm10.95-55.17-1.25.53-1.39.19a4,4,0,0,1-2-.46,2.66,2.66,0,0,1-1.16-.67,4,4,0,0,1-1.35-1.47c-.17-.42-.35-.84-.53-1.25l-.11-.44a5.41,5.41,0,0,1,1.38-5.22,5.91,5.91,0,0,1,3.79-1.57,5.37,5.37,0,0,1,2.71.73l1.08.84a5.37,5.37,0,0,1,1.38,5.22l-.12.44a5.76,5.76,0,0,1-2.41,3.13Zm6.23,11.38c6,0,6,9.36,0,9.36S353.51,286.09,359.54,286.09Zm8.88,27a4.57,4.57,0,0,1-1.27,2,4.45,4.45,0,0,1-2,1.27,4.58,4.58,0,0,1-2.36.53,6,6,0,0,1-3.1-.84l-1.25-1a6.19,6.19,0,0,1-1.58-2.71l-.22-1.63a4.69,4.69,0,0,1,.53-2.37,4.57,4.57,0,0,1,1.27-2,4.68,4.68,0,0,1,2-1.28,4.58,4.58,0,0,1,2.37-.52,6.13,6.13,0,0,1,3.1.83l1.24,1a6.1,6.1,0,0,1,1.58,2.71c.07.54.15,1.08.22,1.63A4.63,4.63,0,0,1,368.42,313.12Zm5.38-45.41a4.11,4.11,0,0,1-4.14,0l-.3-.21a3.91,3.91,0,0,1-1.39-1.38,3.9,3.9,0,0,1,0-3.89,3.91,3.91,0,0,1,1.39-1.38l.3-.22a4.17,4.17,0,0,1,4.14,0,4.11,4.11,0,0,1,0,7.08Zm8.46,18.13c-5.08,0-5.07-7.87,0-7.87S387.32,285.84,382.26,285.84Z"/><path class="apricotapricotcls-5" d="M324.51,356.68c23.29-3.12,46.95-16.23,61.15-35a70.76,70.76,0,0,0,14.42-37.27c.77-11-.58-25.11-9.81-32.21a2.47,2.47,0,0,0-.93-.71c-20.42-9.34-46.25-3-63.78,9.78-18.41,13.41-29.78,34.93-32.23,57.39C291,339.93,300.14,359.94,324.51,356.68Z"/><path class="apricotapricotcls-2" d="M369.36,267.5l.3.21a4.11,4.11,0,0,0,4.14,0,4.11,4.11,0,0,0,0-7.08,4.17,4.17,0,0,0-4.14,0l-.3.22a3.91,3.91,0,0,0-1.39,1.38,3.9,3.9,0,0,0,0,3.89A3.91,3.91,0,0,0,369.36,267.5Z"/><path class="apricotapricotcls-2" d="M345.61,271.58c.18.41.36.83.53,1.25a4,4,0,0,0,1.35,1.47,2.66,2.66,0,0,0,1.16.67,4,4,0,0,0,2,.46l1.39-.19,1.25-.53a5.76,5.76,0,0,0,2.41-3.13l.12-.44a5.37,5.37,0,0,0-1.38-5.22l-1.08-.84a5.37,5.37,0,0,0-2.71-.73,5.91,5.91,0,0,0-3.79,1.57,5.41,5.41,0,0,0-1.38,5.22Z"/><path class="apricotapricotcls-2" d="M359.54,295.45c6,0,6-9.36,0-9.36S353.5,295.45,359.54,295.45Z"/><path class="apricotapricotcls-2" d="M382.26,285.84c5.06,0,5.07-7.87,0-7.87S377.18,285.84,382.26,285.84Z"/><path class="apricotapricotcls-2" d="M360.44,305.13a4.68,4.68,0,0,0-2,1.28,4.57,4.57,0,0,0-1.27,2,4.69,4.69,0,0,0-.53,2.37l.22,1.63a6.19,6.19,0,0,0,1.58,2.71l1.25,1a6,6,0,0,0,3.1.84,4.58,4.58,0,0,0,2.36-.53,4.45,4.45,0,0,0,2-1.27,4.57,4.57,0,0,0,1.27-2,4.63,4.63,0,0,0,.53-2.37c-.07-.55-.15-1.09-.22-1.63a6.1,6.1,0,0,0-1.58-2.71l-1.24-1a6.13,6.13,0,0,0-3.1-.83A4.58,4.58,0,0,0,360.44,305.13Z"/><path class="apricotapricotcls-2" d="M326.64,287.91a4.64,4.64,0,0,0,1.74,1.75,4.6,4.6,0,0,0,4.68,0,4.64,4.64,0,0,0,1.74-1.75,1.6,1.6,0,0,0,.1-.23,4.86,4.86,0,0,0,0-4.89,4.84,4.84,0,1,0-8.36,4.89A1.6,1.6,0,0,0,326.64,287.91Z"/><path class="apricotapricotcls-2" d="M333.39,305.08a3,3,0,0,0-.84,1.31,2.89,2.89,0,0,0-.35,1.56l.14,1.08a4,4,0,0,0,1.05,1.8l.82.63a4.1,4.1,0,0,0,2.05.56,3.15,3.15,0,0,0,1.57-.35,3.64,3.64,0,0,0,2.15-2.15,3.15,3.15,0,0,0,.35-1.57l-.15-1.08a4,4,0,0,0-1-1.79l-.83-.64a4,4,0,0,0-2.05-.55,3,3,0,0,0-1.57.35A2.93,2.93,0,0,0,333.39,305.08Z"/><path class="apricotapricotcls-2" d="M305.14,315.23a5.88,5.88,0,0,0,10.15,0,2.72,2.72,0,0,0,.34-.78,1.76,1.76,0,0,0,.31-.78c0-.09,0-.17,0-.25a6,6,0,0,0-1.54-5.82l-1.21-.93a5.92,5.92,0,0,0-3-.82A6.56,6.56,0,0,0,306,307.6a6,6,0,0,0-1.54,5.82A4.68,4.68,0,0,0,305.14,315.23Z"/><path class="apricotapricotcls-2" d="M313.54,333c-4.19,0-4.19,6.51,0,6.51S317.73,333,313.54,333Z"/><path class="apricotapricotcls-2" d="M342.36,329.88c6.11,0,6.12-9.5,0-9.5S336.24,329.88,342.36,329.88Z"/><path class="apricotapricotcls-2" d="M219.15,274.06c0,3.37-4.8,3.89-5.75.78-3.83-12.53-5.42-25.52-9.79-38a165,165,0,0,0-16.93-34.71c-11.44-17.66-27.6-36.21-47.06-46,7.25,1.68,12.35,3.17,15.54,1.88,14.28,9.59,26.38,22.94,35.68,36.85a174.26,174.26,0,0,1,18.57,37.23C214.18,245.28,219.05,260,219.15,274.06Z"/><path class="apricotapricotcls-2" d="M286.47,208.12c-28.93,14.15-49.38,50.06-56.81,80.24C220.73,324.62,224.3,368.12,243,401c1.76,3.1,5.94.38,4.63-2.71-14.76-34.93-21.42-70.78-12.35-108.33,7.92-32.78,26.8-57.93,53.53-77.75a2.35,2.35,0,0,0-2.36-4Z"/><path class="apricotapricotcls-6" d="M87.45,193.37a59.15,59.15,0,0,0,8,2.52c5.44,1.38,7.73-6.88,2.32-8.41a67,67,0,0,0-9.31-2c-1.94-.25-3.72,1.72-3.93,3.47a4.09,4.09,0,0,0,2.87,4.39Z"/><path class="apricotapricotcls-6" d="M84.34,213.53c-.58.23-.63.26-.15.11s.45-.1-.21,0c0-.06,1.62.1.14,0,1.39.18,1.62.21.68.1a3.92,3.92,0,0,1,.49.13c.21.08,1.31.57.4.1,1.23.64,2.32,1.26,3.8.83a3.72,3.72,0,0,0,2.56-4.05c-.59-5.06-7-7.5-11.29-5.69-2.55,1.06-4.2,3.45-3,6.27s4.06,3.4,6.59,2.23Z"/><rect class="apricotapricotcls-7" width="512" height="512"/></g></g></svg>