<svg xmlns="http://www.w3.org/2000/svg" viewBox="0 0 512 512"><defs><style>.artichokeartichokecls-1{fill:none;}.artichokeartichokecls-2{fill:#afaa43;}.artichokeartichokecls-3{fill:#4a2d2d;}.artichokeartichokecls-4{fill:#fff;}</style></defs><g id="Capa_2" data-name="Capa 2"><g id="bocetos"><rect class="artichokeartichokecls-1" width="512" height="512"/><path class="artichokeartichokecls-2" d="M203,121.49s7.21-31.76,23.25-54,28.16-23.58,42.89-9.5,30.45,56,30.45,56,14.07-16.37,27.82-10.48,31.76,32.74,39.95,47.8,9.82,21.61,9.82,21.61,9.49-17,23.57-7.53,16.7,39.61,13.1,70.06-20,57.62-20,57.62,4.91,22.59-8.19,46.16-26.52,32.74-47.14,39.62-50.42,7.53-50.42,7.53l-9.5,10.15s10.48,36,3.93,47.47-29.14,10.48-42.23,8.51S227.56,443,226.9,434.8s4.91-47.8,4.91-47.8-6.22-3.6-9.16-6.87-4.26-3.93-4.26-3.93-39.29,8.84-72-6.22-38-46.82-38.63-59.91,1-21.94,3.28-23.58a31.44,31.44,0,0,1,3.6-2.29S93,265.54,91,233.78s11.13-59.91,17.67-63.18,18,7.85,18,7.85.33-36.66,23.25-69.4S203,121.49,203,121.49Z"/><path class="artichokeartichokecls-3" d="M235.49,412.17c8.35,4.51,18.84,6.81,27.94,3.22,1.72-.68,1.73-3.75-.48-3.55-9,.81-17.08.92-25.4-3.19-2.34-1.15-4.39,2.26-2.06,3.52Z"/><path class="artichokeartichokecls-3" d="M235.63,426.73c5.39,2.38,12.35,4.72,18.16,2.51,1.57-.59,1.86-3,0-3.48-5.46-1.41-11-1.17-16.44-3.1-2.35-.84-4,3-1.72,4.07Z"/><path class="artichokeartichokecls-3" d="M242,443.5a51,51,0,0,0,7.41-.52c1.5-.24,1.5-2.79,0-3a51,51,0,0,0-7.41-.52c-2.62,0-2.62,4.12,0,4.08Z"/><path class="artichokeartichokecls-4" d="M260.92,383.33c-14.39-18.14-10.5-38.49-11.2-59.81-.07-2-3.07-2.53-3.55-.48-5,21-4,47,11.79,63.25,1.92,2,4.59-.9,3-3Z"/><path class="artichokeartichokecls-4" d="M298.28,372.94c15-13.15,27.05-32.71,28.72-52.9.16-1.85-2.62-2.08-3.13-.42-6.08,19.6-13.46,36-28,50.87-1.57,1.61.79,3.91,2.45,2.45Z"/><path class="artichokeartichokecls-4" d="M351.21,351.48c4.59-3.39,8.86-7.26,11.79-12.2.94-1.6-1.3-3.41-2.6-2-3.53,3.83-7,7.69-11.17,10.83-2,1.49-.06,4.89,2,3.38Z"/><path class="artichokeartichokecls-4" d="M202.53,346.81c-5.41-4.05-7.68-10.86-10.25-16.84-2.82-6.58-5.48-13.28-8.91-19.57-1-1.86-4.17-.6-3.48,1.47,2.79,8.31,6.65,16.32,10.26,24.3,2.55,5.62,5.23,10.42,10.53,13.79,2,1.29,3.68-1.78,1.85-3.15Z"/><path class="artichokeartichokecls-4" d="M167.62,352.43c-11.6-4.1-20.81-10.88-30.35-18.44a1.89,1.89,0,0,0-2.66,2.67c8,9.95,19.87,16.23,31.79,20.18,2.82.93,4-3.44,1.22-4.41Z"/><path class="artichokeartichokecls-4" d="M121.83,240.73c-7.47-12.72-9.15-25.81-8.51-40.32.09-2.14-3.23-2.59-3.74-.51-3.61,14.88.21,30.42,7.8,43.43,1.67,2.86,6.13.27,4.45-2.6Z"/><path class="artichokeartichokecls-4" d="M196.05,225.84c-.72-7.26-.21-14.61-1.08-21.85-.23-1.88-3.07-2.66-3.59-.48-1.71,7.27-.82,15,.1,22.33.36,2.85,4.87,3,4.57,0Z"/><path class="artichokeartichokecls-4" d="M327.6,259.21c2.21-5.17,3.77-10.77,2.78-16.43-.35-2-3.11-1.6-3.67,0-1.65,4.71-2.21,9.84-3.18,14.71-.46,2.3,3,4.19,4.07,1.72Z"/><path class="artichokeartichokecls-4" d="M384.05,252c6.65-10.61,12.2-23.08,12.67-35.78.07-2.12-2.92-2.34-3.55-.48-4,11.65-7,23.13-12.61,34.23a2,2,0,0,0,3.49,2Z"/><path class="artichokeartichokecls-4" d="M260.16,269.47c0-2.17.18-4.22-.77-6.24a2,2,0,0,0-3.42,0c-.95,2-.8,4.07-.77,6.24,0,3.19,4.92,3.19,5,0Z"/><path class="artichokeartichokecls-4" d="M312.29,207.49a60.67,60.67,0,0,0,.47-8.73,1.74,1.74,0,0,0-3.4-.46,64.62,64.62,0,0,0-1.45,9.19c-.34,2.76,4.12,2.81,4.38,0Z"/><path class="artichokeartichokecls-4" d="M254.2,199.19c.18-10.52,1.12-21.48-.45-31.91-.26-1.73-3.23-1.73-3.49,0-1.58,10.43-.63,21.39-.45,31.91a2.2,2.2,0,0,0,4.39,0Z"/><path class="artichokeartichokecls-4" d="M329.1,144c-.2-1.4-.41-2.79-.65-4.19-.31-1.78-3.29-1.78-3.6,0-.24,1.4-.45,2.79-.65,4.19a2.54,2.54,0,1,0,4.9,0Z"/><path class="artichokeartichokecls-4" d="M170.21,156.17c-1.9-5-1.6-9.77-1.29-15,.12-1.95-2.75-2.67-3.65-1-2.88,5.38-2.24,11.89,0,17.37,1.22,3,6.15,1.76,5-1.37Z"/><path class="artichokeartichokecls-4" d="M250.54,103.58c.21-3.72,1.42-7.59,1.18-11.31a1.8,1.8,0,0,0-3.33-.9c-2.39,3.38-2.66,8.21-3,12.21-.25,3.27,4.92,3.29,5.11,0Z"/><path class="artichokeartichokecls-3" d="M327.76,214c9.67,11.33,19,22.11,25.17,35.94A109.83,109.83,0,0,1,360,271.53c1.9,8.63,1.42,15.72,1,24.32a2.49,2.49,0,0,0,.19,1c1.32-.66,2.62-1.36,3.88-2.15.91-.57,1.82-1.15,2.7-1.76a11.82,11.82,0,0,1,3-1.76c4.18-12.21-2.19-31.75-5.92-41.31-.89-2.3-1.89-4.6-3-6.9a2.63,2.63,0,0,0,.08-.3c1.69-16.61-3.59-35.58-10-50.72-5.46-12.86-16-31.32-30.59-35.53-12.17-3.51-21.16,8.41-27.77,18.18-1.83-13.56-10.05-27.54-17.33-38.33-5.85-8.68-14.08-21.49-26-21.41-11.63.09-18,12.83-23,21.48a163.69,163.69,0,0,0-15.88,37.14,104,104,0,0,0-15.44-14.85c-4.11-3.17-8.59-6.83-13.9-4.38C176,157,171,165.23,167.52,170.5c-9.58,14.61-14.86,31.37-19.32,48.12a35.35,35.35,0,0,0-4.53.35c-13.06,2-13.43,21.77-14.25,32.3C128,269.54,131,290.11,140.56,306c1.69,2.82,9.45,7.49,8.1,4.22L147,307.61c-5.76-13.94-11.51-31.06-12-46.35a93.44,93.44,0,0,1,2.32-24c2.3-9.86,4.23-13.82,15.35-10.86,13.67,3.64,28.11,10.93,39.93,18.63,9.7,6.33,16.6,14,22.55,23.09a107.43,107.43,0,0,0-3.85,26.81c-5.83-4.94-11.43-10.14-16.87-15.53-4.92-4.87-12.33-15.61-19.22-17.3-6.65-1.64-9.73,6.45-12.14,11.27a76.49,76.49,0,0,0-7.7,26.82c-3.18,33.69,22.3,75.66,58.92,77.26a2.87,2.87,0,0,0,2.09-.8c7.3,10.59,18.47,18.19,31.93,17,3-.27,4.3-5.26.78-5.78-23.42-3.46-37.35-21.77-35.39-45.63,1.81-22.09,16.76-38.18,28.72-55.53,15.92,10.92,29.34,29.65,37.53,46.48,10,20.55,10.28,42.9-6.45,60-2.67,2.72.73,7.25,4.08,5.3A33.19,33.19,0,0,0,288,389.11c54.26-11.31,85.77-83.77,38.92-122.9a2,2,0,0,0-3.14-.73c-6.73,5.27-12.41,12.86-17.66,20.28-.54-10.66-5.73-21.34-11.58-30.81,4.54-6.59,8.85-13.31,13.89-19.59C314,228.38,320.43,219.65,327.76,214ZM227.42,150.42c3.74-7.93,13.4-32.62,25.91-27,8.48,3.81,15,19.22,19.21,27,5.45,10,8.87,21.58,15.54,30.82a3.52,3.52,0,0,0,.61.61A196.84,196.84,0,0,0,269,221.23c-4-4.32-10.49-13.67-17.51-12-5.91,1.39-11.31,10-14.77,14.47l-.53.72c-2.82-15.74-10.07-31.29-19.75-44.42A218.45,218.45,0,0,1,227.42,150.42Zm-29.75,86c-11.47-7.34-28.41-15.95-43.67-17.55,3.83-12.15,7.73-24.41,13.43-35.8,3-6,7.66-16,13.32-20,4.1-2.86,5.39-2.81,9.58.19,2.71,1.95,5.07,5.27,7.24,7.79,9.26,10.77,17.24,22.78,22.67,35.94,4,9.75,6.06,19.56,7.85,29.63a128,128,0,0,0-6.7,13.54c-.79,1.87-1.55,3.78-2.28,5.71C213.37,248,205.49,241.4,197.67,236.39Zm9.63,115.7a52.44,52.44,0,0,0,5.08,17.58c-12.3-5.71-23.78-11.19-33.06-21.75a66.17,66.17,0,0,1-16.39-44.68,71,71,0,0,1,4.43-24.78c.21-.55,3.66-9.71,5.13-10.39,3.52-1.64,8.28,6.42,10.1,8.38A226.35,226.35,0,0,0,217.32,307C210,321.08,205.79,336.73,207.3,352.09ZM325,271c18.65,17.83,20.86,46.21,10.33,69.1-9.19,20-23.69,32.07-42.72,40,4.42-12.65,2.52-28-2.25-40.58a107.4,107.4,0,0,0-4.62-10.35c5.74-10.43,11.32-21,18.22-30.72C310.45,289.3,319.3,280.74,325,271Zm-27.33,26.57A199.87,199.87,0,0,0,282,322.33a156.87,156.87,0,0,0-10.69-15.76c-8.11-10.58-18-18.68-27.2-28.12a4,4,0,0,0-5.61,0,116.74,116.74,0,0,0-18.37,23.48l-2.34-1.78a162.85,162.85,0,0,1,3.06-24.91,127.17,127.17,0,0,1,9.6-28.87,109.59,109.59,0,0,1,8.41-14.5c1.59-2.33,3.25-4.6,5-6.83a46.6,46.6,0,0,1,5.08-6.19,8.67,8.67,0,0,1,.74-.62c1.63-1.2,4.15-1.86,5.86-.57,5.62,4.23,19.75,25.94,24.07,32.85C289,265.53,296.31,279.76,297.69,297.58Zm-7-48.52c-.82-1.23-1.64-2.44-2.44-3.61A215.74,215.74,0,0,0,272.38,225a170.41,170.41,0,0,1,16.28-32.55c7-10.94,22.63-40,37.63-24.86,9.66,9.79,16.2,23.62,20.37,36.56,2.31,7.15,3.66,14.55,5.1,21.91-5.95-8-13.2-15-21.71-19.69a3.55,3.55,0,0,0-4.71,1.23c-6.88,9.23-16.33,16.8-23.48,26C298,238.58,294.12,243.69,290.72,249.06Z"/><path class="artichokeartichokecls-3" d="M304.46,107.05c-11.7,11.09-21.87,26.09-26.36,41.66-.65,2.25,2.89,3.89,3.89,1.64,6.71-15.23,14.21-27.87,26-39.77,2.27-2.28-1.2-5.74-3.54-3.53Z"/><path class="artichokeartichokecls-3" d="M199.35,120.22A174.33,174.33,0,0,1,211,137.41c3,4.94,5.22,10.57,8.83,15.05,1.54,1.91,3.91-.26,3.64-2.11-1.8-12.44-12.54-24.62-21-33.25-2-2.07-4.81,1-3.11,3.12Z"/><path class="artichokeartichokecls-3" d="M122.2,178.44a95.62,95.62,0,0,1,16.52,18.1c4.35,6.28,7.25,13.35,11.4,19.68a2.31,2.31,0,0,0,4.2-1.78c-3-15.6-16.36-30.18-28.1-40-2.78-2.33-6.82,1.63-4,4Z"/><path class="artichokeartichokecls-3" d="M112.21,287.1c10.79,3.19,17.48,12.07,24.8,20,7,7.66,13.9,16.17,22.14,22.52,2.26,1.74,5.28-1.6,3.83-3.83-7.26-11.15-17.87-20.86-27-30.47-6.53-6.86-13.16-13.16-23-14-3.37-.29-3.84,4.83-.77,5.74Z"/><path class="artichokeartichokecls-3" d="M379.71,281.07c-12.16,6-24.59,15.94-34.89,25.89a31.75,31.75,0,0,1,1.09,7.06c6.08-5.17,12.09-10.31,18.66-14.94,5.7-4,24.16-19.11,27.3-4.37.64,3,4.93,2.66,5.78,0C401.22,283.44,389.53,276.23,379.71,281.07Z"/><path class="artichokeartichokecls-3" d="M388.57,161.37c-9.1,4.28-15.61,11.39-21.84,19.11-6.42,8-14.42,16.44-17.25,26.42a2.59,2.59,0,0,0,4.3,2.51c13.54-13.63,19.65-34,37.54-43.34,3.14-1.64.38-6.17-2.75-4.7Z"/></g></g></svg>