<svg xmlns="http://www.w3.org/2000/svg" viewBox="0 0 512 512"><defs><style>.arugulaarugulacls-1{fill:none;}.arugulaarugulacls-2{fill:#9bb533;}.arugulaarugulacls-3{fill:#cfdb9d;}.arugulaarugulacls-4{fill:#fff;}.arugulaarugulacls-5{fill:#4a2d2d;}</style></defs><g id="Capa_2" data-name="Capa 2"><g id="bocetos"><rect class="arugulaarugulacls-1" width="512" height="512"/><path class="arugulaarugulacls-2" d="M439.72,200.92c-5.39-3.37-11.93-3.22-18-2.44-2.93.37-5.88.87-8.87,1.12a6.22,6.22,0,0,1-3.12-.31,4.49,4.49,0,0,1-2.45-3.14c-.68-3,.84-5.84,2.87-7.88,3.44-3.45,8-5.6,11.92-8.46,7.88-5.74,16-11.25,22.37-18.68,9.57-11.12,20.88-34,4.77-45.35-6.26-4.4-13.52-1.65-19.85,1.61-7.33,3.77-13.71,14.71-21.52,12-7.58-2.64,15.28-42.74,18.15-65.5a33.8,33.8,0,0,0-5.28-22.57,18.85,18.85,0,0,0-8.07-7c-8-3.38-15.82.35-21.56,6.21-6.56,6.71-11.84,15.89-15.37,24.5a78.35,78.35,0,0,0-5.33,20.49c-.29,2.39-.35,4.8-.64,7.16-.78,6.06-6.5,15.47-11.7,6.48-5.63-9.7-7.94-20.82-17.82-27.55-8.09-5.51-19.48-6.58-26.58,1.13-19.79,21.48,9.68,51.63,18.34,70.84,2.83,6.27,5,13.56,4.83,20.47-.12,6.13-3.1,9.66-9.43,9.56a46,46,0,0,1-8.56-1.28c-4.62-1-9-2.83-13.37-4.5-8.82-3.35-18-5.45-26,1-10.61,8.42-6.77,20.65,2.74,27.9,11.29,8.62,25.77,13.14,35.8,23.42,1.12,1.15,6.87,6.56,5.18,8.39-1.2,1.3-11.27-2.25-13-2.51-5.28-.77-10.63-.52-15,3-8.94,7.2-5.34,20.67,1.51,27.94,3.73,4,9.1,6.11,13,10,1.9,1.9,5,4,5.25,6.73.39,3.84-3,5.28-5.25,8-6.16,7.47-4.86,17.82,0,25.54,1.54,2.42,3.92,4.23,5.9,6.28a8.75,8.75,0,0,1,2.27,3.38c2.08,6.71-6.61,7.55-10.94,7.08-12.61-1.36-21.11,9.57-21.63,21.33-.82,17.54,14.57,31.78,23.42,45.4,8.63,13.29,16.82,27.81,20.14,43.41a67.72,67.72,0,0,1,1.51,15.75,4.88,4.88,0,0,0,3.55,4.64c3.43.83,6.83,1.78,10.23,2.75a5.09,5.09,0,0,0,5.33-1.45,7.35,7.35,0,0,0,1.77-4c2.79-22,7.51-42.76,17.58-62.67a207.14,207.14,0,0,1,14.78-24.28c4.89-7.08,10.46-15,7.51-24.07-2-6.08-7.55-9.14-10.57-14.42-6.79-11.74,14.82-18.67,22.5-22.55,10-5.06,37.67-13.46,32.43-29.51-1.83-5.55-6.77-9.35-11.94-11.58-3.57-1.54-7.29-2-11-3.09-1.9-.56-5.88-1.28-6.94-3.18-2.2-3.88,2.58-8.95,5.14-11,10.28-8.38,34.28-15.8,35.91-31.3C447.14,208.65,444.24,203.76,439.72,200.92Z"/><path class="arugulaarugulacls-2" d="M270.6,457.82c-6.59-12-11.85-23.71-15.13-36.26A114.64,114.64,0,0,1,252,401.65c-.78-9.24-1-18.57-1.21-27.84-.13-8.21.62-16.83-1.26-24.9-1.3-5.59-3.86-10.73-8.92-13.81-4.8-2.93-11.55-2.45-11.86-9.72-.23-5.42,2.68-11.88,5-16.67C239.56,296.54,255,279.6,247,265.23a13.24,13.24,0,0,0-12.73-7.12c-7.51.44-19.07,11-19.11-2.66-.06-16.38,21.63-30.78,14.73-47.75a13.11,13.11,0,0,0-11.39-8.13A25,25,0,0,0,206.3,202c-5.47,2.51-13.56,8.79-19,3-5.07-5.41-.47-13.93,2.21-19.27,2-3.9,4.37-7.58,6.31-11.48,4.25-8.56,8.36-17.43,9.12-27.07,1.2-15.31-8.87-32.46-26.32-29.76-6.4,1-10.74,4.88-13.46,10.63-2,4.23-2.25,9.21-4.77,13.19-2.66,4.19-9.16,6.7-11.51,1.88-7.1-14.51-4.11-32.3-7.1-48.15-2.23-11.72-7.55-24.94-20.24-28.47-9.93-2.75-19.81,3.12-24.8,11.6-6.92,11.8-3.7,25.87.58,38,2.35,6.61,5.17,13.17,6.54,20.1.45,2.17,1.61,5,1.19,7.2-.88,4.34-7,1.61-9.43.42-3.28-1.59-6.13-3.92-9.32-5.7-9.43-5.3-21.86-12.28-32.34-5.28-8,5.36-10,16.8-7.32,25.54,4,13.05,17.16,21.79,27.19,29.92l20.14,16.33c3.35,2.72,6.73,5.42,10.07,8.15,4.6,3.77,11.74,9.61,3.61,13.55-5.73,2.75-13.55,3-19.66,4.85s-12.24,4.25-17.38,8.09c-7.71,5.76-13.41,16-6.5,24.66,7.06,8.89,20.58,8.58,30.73,8.15,8-.33,16-1.3,24-.87,4.8.25,15.47,1,10.54,8.13-2.17,3.14-7.22,4.32-10.44,5.95-8,4.06-15.91,13.62-9.8,22.59,6.66,9.74,23,8.79,32.27,15.23,5,3.49,1,7.82,2.4,13.49a22.53,22.53,0,0,0,8.78,12.28c4.48,3.3,24.56,8.55,19.34,15.62-3.71,5-9.72,6.24-12.5,12.55-5.64,12.87,1.91,26.25,11.7,34.54,12.73,10.79,27.89,19.17,42,28.06,13.68,8.61,27.17,17.83,41.37,25.59q3.06,1.68,6.17,3.26C263.58,469.89,274.12,464.23,270.6,457.82Z"/><path class="arugulaarugulacls-3" d="M260.59,468.38q-3.1-1.58-6.17-3.26c-11.45-16.59-53.16-89.53-76.5-146.26C152.87,258,139.65,199.35,139.13,197c1.14,2.82,34.4,85,42.67,103.07,8.4,18.44,39.13,79.56,50.11,95.41,7.36,10.59,17.58,20.59,23.56,26.06,3.28,12.55,8.54,24.27,15.13,36.26C274.12,464.23,263.58,469.89,260.59,468.38Z"/><path class="arugulaarugulacls-3" d="M364.83,255.47c-2.58,18.76-14.23,112.54-13.9,130,.26,14.57-.36,53.75-1.53,70.22a5.09,5.09,0,0,1-5.33,1.45c-3.4-1-6.8-1.92-10.23-2.75a4.88,4.88,0,0,1-3.55-4.64A67.72,67.72,0,0,0,328.78,434c3-21.87,7.7-56.29,9.21-68.58,2.27-18.43,14.88-110.26,17.47-120.94s11-46.56,13.58-54.33S367.43,236.72,364.83,255.47Z"/><path class="arugulaarugulacls-4" d="M343.87,271.19c-1-3-3.62-5.19-5.68-7.49a77.7,77.7,0,0,0-7.65-7.85c-1.15-1-3.14.27-2.21,1.7a69.91,69.91,0,0,0,6.39,8c2.12,2.42,4.22,5.77,7.2,7.15,1,.45,2.34-.3,1.95-1.5Z"/><path class="arugulaarugulacls-4" d="M376.18,241.27a202,202,0,0,1,19.7-14.66c6.25-4,13.42-6.82,19.43-11.1a1.54,1.54,0,0,0-1.18-2.81C399.39,216.35,384.62,228.62,374,239c-1.47,1.44.7,3.5,2.23,2.23Z"/><path class="arugulaarugulacls-4" d="M368.34,295.53c9.18-6.22,19.6-10.83,28.43-17.49,1.28-1,.62-3.37-1.19-2.81-10.64,3.31-20.17,10.65-29.12,17.09-1.91,1.38-.13,4.57,1.88,3.21Z"/><path class="arugulaarugulacls-4" d="M338.06,370.48c-1.53-5.22-5.91-8.43-10-11.65a71.53,71.53,0,0,0-16.2-9.7,1.35,1.35,0,0,0-1.36,2.33c4.29,3.06,8.63,6,12.88,9.14s9.55,6.35,11.74,11.14c.77,1.7,3.5.49,3-1.26Z"/><path class="arugulaarugulacls-4" d="M355.65,220.49c-4.21-8.66-12-18.64-21.59-21.63-1.59-.5-3.08,1.8-1.7,2.92,3.69,3,7.82,5.19,11.26,8.53a50.07,50.07,0,0,1,9,11.94c1.09,2,4,.24,3-1.76Z"/><path class="arugulaarugulacls-4" d="M362.19,160c-1-8.66-2.81-17-7.28-24.54a1.41,1.41,0,0,0-2.57,1.08c1.72,8.05,4.15,15.92,5.56,24,.42,2.39,4.59,1.86,4.29-.58Z"/><path class="arugulaarugulacls-4" d="M396.6,169.2c6.13-5.75,12.79-10.89,19.21-16.31,1.32-1.12-.38-3.19-1.82-2.36-7.48,4.33-13.89,10-20,16-1.71,1.69.89,4.27,2.64,2.63Z"/><path class="arugulaarugulacls-4" d="M187.62,393.37c7.69.64,15.6,3,23.32,2.62a1.47,1.47,0,0,0,.39-2.88c-7.2-2.69-16.1-3-23.71-3.2-2.25-.07-2.19,3.28,0,3.46Z"/><path class="arugulaarugulacls-4" d="M214.49,282.69c-5.58,8.24-9.84,16.07-10.9,26.11-.18,1.68,2.15,1.65,2.69.37,3.42-8.26,6.64-17,11.58-24.51,1.4-2.11-2-4-3.37-2Z"/><path class="arugulaarugulacls-4" d="M200.74,221.69c-8.23,11.32-19.19,25.81-18.42,40.61a1.51,1.51,0,0,0,3,.4c2.71-7.16,4.54-14.31,8.08-21.19,3.18-6.18,6.82-12.11,10.41-18,1.19-2-1.72-3.55-3-1.77Z"/><path class="arugulaarugulacls-4" d="M113.83,248.31c8.13-1.12,16-.38,24.11,0,1.38.07,2.1-2.15.74-2.73-8.21-3.49-17.33-3.17-25.87-1-2.47.63-1.35,4,1,3.7Z"/><path class="arugulaarugulacls-4" d="M104.9,181.54a37.38,37.38,0,0,1,8.15,2.73c2.28,1.09,4.39,2.8,6.88,3.39a1.9,1.9,0,0,0,2.12-2.76c-3-4.72-10.78-6.7-16-7.68-2.8-.52-4,3.7-1.19,4.32Z"/><path class="arugulaarugulacls-4" d="M172.91,159.71c-6.19,12.17-12.18,25.38-13.18,39.16-.11,1.56,2.11,1.66,2.58.35,4.54-12.73,7.54-25.58,13.48-37.83.93-1.92-1.9-3.61-2.88-1.68Z"/><path class="arugulaarugulacls-4" d="M137.17,297.71c9.72,1.12,20,3.68,29.81,3.31a1.7,1.7,0,0,0,.45-3.32c-9.39-3.05-20.48-2.95-30.26-3.6-2.35-.15-2.26,3.35,0,3.61Z"/><path class="arugulaarugulacls-5" d="M133,173.87c1.4,47.41,19.9,94.41,37.69,137.73C191,361,221,423.32,251.31,467.44a3.19,3.19,0,0,0,5.51-3.22c-24.08-47.39-57.83-105.49-78.1-154.83-9.09-22.12-17.47-44.61-24.45-67.48-6.76-22.16-13.72-45-16.36-68-.35-3.05-5-3.23-4.9,0Z"/><path class="arugulaarugulacls-5" d="M350.92,454.51c2.75-26.14,3.45-56.79,4.31-83.05.84-25.73,3.72-51.58,6.84-77.13,3.24-26.55,7.29-53.08,11.54-79.48q3-18.65,6.18-37.26c2.13-12.43,6.12-25.65,5.63-38.31-.1-2.66-4.27-4.38-5.52-1.49-5,11.62-6,25.16-8.14,37.58s-4.07,24.88-5.85,37.36c-3.69,25.9-6.63,51.83-9.35,77.85-2.76,26.28-4.46,52.79-7.81,79a582.41,582.41,0,0,0-4.28,84.94c.11,4.23,5.33,4.58,5.75.52Z"/></g></g></svg>