<svg xmlns="http://www.w3.org/2000/svg" viewBox="0 0 512 512"><defs><style>.asparagusasparaguscls-1{fill:none;}.asparagusasparaguscls-2{fill:#9bb533;}.asparagusasparaguscls-3{fill:#4a2d2d;}.asparagusasparaguscls-4{fill:#fff;}</style></defs><g id="Capa_2" data-name="Capa 2"><g id="bocetos"><rect class="asparagusasparaguscls-1" width="512" height="512"/><path class="asparagusasparaguscls-2" d="M166.05,54.23s-2-2.72-6.31,3.5a51.48,51.48,0,0,0-8.14,20.65c-1.07,7.54-.86,10.35-.86,10.35s-12.93,11.42-16.81,27.59A53.56,53.56,0,0,0,135,145.43s-9.7,17.24-6.25,30,13.8,19.84,13.8,19.84S140,278.45,140,297s.65,41.82.65,41.82-6.9,14.66-5,21.35,6.47,7.54,6.68,21.55-.64,54.12,3.24,60.37,21.77,9.06,32.55,6.25,10.57-6.68,11.43-15.74,1.08-9.7,1.08-9.7-7.33-69.42-7.12-82.78.86-22.64,4.31-28.89,3.67-8.41,3-12.29-5.17-14.23-6.9-15.09a7.9,7.9,0,0,0-3.23-.87s.43-40.31-.65-54.33l-1.08-14-.64-4.53s16.6-18.75,12.5-32.34S185,161.81,185,161.81a37.83,37.83,0,0,0,11.64-28.46c-.64-17.89-14.87-34.28-14.87-34.28s4.09-5.82-1.94-16.6-10.35-19-12.08-22.85S166.05,54.23,166.05,54.23Z"/><path class="asparagusasparaguscls-3" d="M170.4,148.52c-8.18,11.36-17,22.19-15.23,37.1,1.29,10.91,8.71,23,19.14,27.27,2.5,1,1.6-1,.28-2.62-6.81-8.39-14.51-14.84-14.84-26.82-.29-10.84,6.55-23.4,13.09-31.85A57,57,0,0,1,188,169.06c-2.83-9.54-8.63-15.85-13.7-21A2.5,2.5,0,0,0,170.4,148.52Z"/><path class="asparagusasparaguscls-3" d="M142.76,130.87c-1.48-.38-1.43,1.72-2,3-3.46,7.35-8.46,15.64-11,24.55,4.54-8.2,11.81-18.11,13.88-23.9a36.46,36.46,0,0,1,10.51,13.58c3.35,7,3.72,16,2.59,24.9-.23,1.85,2.58,1.19,3.53-1C165.44,159.85,156.63,134.43,142.76,130.87Z"/><path class="asparagusasparaguscls-3" d="M164.45,104.18a3,3,0,0,0-5.16,0c-5.47,8.08-13.71,20.5-13.32,31H146a2.33,2.33,0,0,1,1.28.08h0l.18,0a1,1,0,0,1,.43.17c.2.09.35.15.53.25l.39.21a6.46,6.46,0,0,1,1.07.74l.11.1a.76.76,0,0,0,0-.15c-.7-8.28,6.33-21,11.32-28.62,6.62,11.63,19.89,27.27,9.36,42.54,0,0,1.64-.2,1.63-.18l-1.53.23a2.85,2.85,0,0,1,1.53.07c.32.13.62.25.91.39h0l0,0a4,4,0,0,1,1.25.86,7.1,7.1,0,0,1,.83,1l.34.28c.28.25.57.5.87.74a3.32,3.32,0,0,0,.51-.77C184.49,137.07,172.51,117.88,164.45,104.18Z"/><path class="asparagusasparaguscls-3" d="M150.57,89c1.4,4.81,4.39,16.64,5.28,21.5l.71-.87a17.28,17.28,0,0,0,1.18-1.75,3.11,3.11,0,0,1,1.56-1.31c.5-.21-1-6.31-1.14-6.86C155.86,92.82,151.73,86,150.57,89Z"/><path class="asparagusasparaguscls-3" d="M190.14,111.89a40.42,40.42,0,0,0-4.51-10.14A35.13,35.13,0,0,0,175.92,94a2.42,2.42,0,0,0-3.5,1.43c-1.81,6-3.66,11.8-4.87,17.91l.06.08a38.17,38.17,0,0,1,2.48,4.24c.21.42.42.87.61,1.31a2.48,2.48,0,0,0,1-1.32c1.87-5.53,2.29-13.36,3.56-19A47.72,47.72,0,0,1,190.14,111.89Z"/><path class="asparagusasparaguscls-3" d="M154.82,350.16c-2.68-4.89-6.41-11.08-9.25-15.88-1-1.75-3-.69-4,1.34-3.53,7.37-7.73,16.91-6.12,25.23.53,2.68,3.16,1.66,3.87-.69,1.06-3.56,1-7.38,1.85-11,.48-2.18,2.1-8.84,2.89-10.88,1.79,3.2,5.47,10.52,7.33,13.69S156.62,353.44,154.82,350.16Z"/><path class="asparagusasparaguscls-3" d="M188.88,292.82c-1.21-3.07-2.61-7.84-5.91-9.31-7.05-3.14-10.81,11.22-11.72,15.69-.76,3.78,3.24,4.41,4.07.59,1.4-6.47,5.94-12.46,6-12.61,5.17,7.76,5,15.55,6.57,18,1,1.64,2.26,2.08,2.8.15C191.83,301.39,190.33,296.51,188.88,292.82Z"/><path class="asparagusasparaguscls-3" d="M171.67,249.54c-1-3.41-5.45-18.62-11.39-12.77-2.46,2.43-3.92,6.66-5.19,9.81-1.65,4.11-3.26,8.62-3,13.1.13,2.3,2.47,1.62,3.28-.42,2.14-5.43,4.2-13.91,7.11-19.51,1.53,1.1,4.52,8.64,5.5,11.1C169,253.48,172.45,252.2,171.67,249.54Z"/><path class="asparagusasparaguscls-4" d="M178.49,197c1.92-9.23,2-21-1.76-29.78-.61-1.42-2.88-.65-2.84.77.16,4.76,1.24,9.42,1.4,14.19s-.26,9.53-.53,14.32c-.12,2.11,3.29,2.6,3.73.5Z"/><path class="asparagusasparaguscls-4" d="M149.53,182.38c-.57-5.33-2.57-10.85-4.49-15.83-.61-1.57-3.13-1.49-3.1.42.1,5.47,1.44,11.71,4.79,16.17.78,1,3,.91,2.8-.76Z"/><path class="asparagusasparaguscls-4" d="M166.39,144.13c.31-3,.47-5.8-.59-8.63a1.58,1.58,0,0,0-3.09.42c-.3,2.74,0,5.45-.11,8.21-.11,2.48,3.55,2.38,3.79,0Z"/><path class="asparagusasparaguscls-4" d="M183.89,128.61c0-2.55.53-5.83-.68-8.16a1.66,1.66,0,0,0-2.85,0c-1.21,2.33-.68,5.61-.68,8.16,0,2.71,4.21,2.72,4.21,0Z"/><path class="asparagusasparaguscls-4" d="M148.49,116.83c-.1-.47,0,.31,0-.14,0-.21,0-.42,0-.62s0-.58,0-.36.08-.36.1-.44a1.75,1.75,0,0,0-2.92-1.7,5.15,5.15,0,0,0-1.3,3.83,2.13,2.13,0,1,0,4.18-.57Z"/><path class="asparagusasparaguscls-4" d="M166.75,88.77l-1-2.07a1.85,1.85,0,0,0-3.37,1.42l.7,2.2a2,2,0,1,0,3.68-1.55Z"/><path class="asparagusasparaguscls-2" d="M257.46,54.23s-2-2.72-6.31,3.5A51.48,51.48,0,0,0,243,78.38c-1.07,7.54-.86,10.35-.86,10.35s-12.93,11.42-16.81,27.59a53.68,53.68,0,0,0,1.07,29.11s-9.7,17.24-6.25,30S234,195.23,234,195.23s-2.59,83.22-2.59,101.76.65,41.82.65,41.82-6.9,14.66-5,21.35,6.47,7.54,6.68,21.55-.64,54.12,3.24,60.37,21.77,9.06,32.55,6.25,10.57-6.68,11.43-15.74,1.08-9.7,1.08-9.7-7.33-69.42-7.12-82.78.86-22.64,4.31-28.89,3.67-8.41,3-12.29-5.17-14.23-6.9-15.09a7.9,7.9,0,0,0-3.23-.87s.43-40.31-.65-54.33l-1.08-14-.64-4.53s16.6-18.75,12.5-32.34-5.82-15.95-5.82-15.95a37.83,37.83,0,0,0,11.64-28.46c-.64-17.89-14.87-34.28-14.87-34.28s4.09-5.82-1.94-16.6-10.35-19-12.08-22.85S257.46,54.23,257.46,54.23Z"/><path class="asparagusasparaguscls-3" d="M261.81,148.52c-8.18,11.36-17,22.19-15.22,37.1,1.28,10.91,8.7,23,19.13,27.27,2.5,1,1.6-1,.28-2.62-6.81-8.39-14.51-14.84-14.84-26.82-.29-10.84,6.55-23.4,13.09-31.85a57,57,0,0,1,15.12,17.46c-2.83-9.54-8.63-15.85-13.7-21A2.5,2.5,0,0,0,261.81,148.52Z"/><path class="asparagusasparaguscls-3" d="M234.18,130.87c-1.49-.38-1.44,1.72-2.06,3-3.46,7.35-8.46,15.64-11,24.55,4.54-8.2,11.81-18.11,13.88-23.9a36.46,36.46,0,0,1,10.51,13.58c3.35,7,3.72,16,2.59,24.9-.23,1.85,2.58,1.19,3.53-1C256.85,159.85,248,134.43,234.18,130.87Z"/><path class="asparagusasparaguscls-3" d="M255.86,104.18a3,3,0,0,0-5.16,0c-5.47,8.08-13.71,20.5-13.32,31h.06a2.33,2.33,0,0,1,1.28.08h0l.18,0a1,1,0,0,1,.43.17,5.24,5.24,0,0,1,.53.25l.39.21a6.46,6.46,0,0,1,1.07.74l.11.1a.76.76,0,0,0,0-.15c-.7-8.28,6.33-21,11.32-28.62,6.62,11.63,19.89,27.27,9.36,42.54,0,0,1.64-.2,1.64-.18l-1.54.23a2.85,2.85,0,0,1,1.53.07c.32.13.62.25.91.39h0l.05,0A4.1,4.1,0,0,1,266,152a7.76,7.76,0,0,1,.82,1l.34.28c.28.25.58.5.87.74a3.32,3.32,0,0,0,.51-.77C275.9,137.07,263.92,117.88,255.86,104.18Z"/><path class="asparagusasparaguscls-3" d="M242,89c1.4,4.81,4.39,16.64,5.28,21.5l.71-.87a17.28,17.28,0,0,0,1.18-1.75,3.11,3.11,0,0,1,1.56-1.31c.5-.21-1-6.31-1.13-6.86C247.27,92.82,243.14,86,242,89Z"/><path class="asparagusasparaguscls-3" d="M281.55,111.89A40.42,40.42,0,0,0,277,101.75,35.13,35.13,0,0,0,267.33,94a2.42,2.42,0,0,0-3.5,1.43c-1.81,6-3.66,11.8-4.87,17.91l.06.08a38.17,38.17,0,0,1,2.48,4.24c.21.42.42.87.61,1.31a2.44,2.44,0,0,0,1-1.32c1.87-5.53,2.29-13.36,3.57-19A47.8,47.8,0,0,1,281.55,111.89Z"/><path class="asparagusasparaguscls-3" d="M246.23,350.16c-2.68-4.89-6.41-11.08-9.25-15.88-1-1.75-3-.69-4,1.34-3.52,7.37-7.73,16.91-6.11,25.23.52,2.68,3.15,1.66,3.86-.69,1.06-3.56,1-7.38,1.85-11,.48-2.18,2.1-8.84,2.89-10.88,1.79,3.2,5.47,10.52,7.33,13.69S248,353.44,246.23,350.16Z"/><path class="asparagusasparaguscls-3" d="M280.29,292.82c-1.21-3.07-2.61-7.84-5.91-9.31-7-3.14-10.81,11.22-11.72,15.69-.76,3.78,3.24,4.41,4.07.59,1.4-6.47,5.95-12.46,6-12.61,5.17,7.76,5,15.55,6.57,18,1,1.64,2.26,2.08,2.8.15C283.24,301.39,281.74,296.51,280.29,292.82Z"/><path class="asparagusasparaguscls-3" d="M263.08,249.54c-1-3.41-5.45-18.62-11.39-12.77-2.46,2.43-3.92,6.66-5.19,9.81-1.65,4.11-3.25,8.62-3,13.1.13,2.3,2.47,1.62,3.28-.42,2.15-5.43,4.2-13.91,7.11-19.51,1.53,1.1,4.52,8.64,5.5,11.1C260.45,253.48,263.86,252.2,263.08,249.54Z"/><path class="asparagusasparaguscls-4" d="M269.9,197c1.92-9.23,2-21-1.76-29.78-.61-1.42-2.88-.65-2.84.77.16,4.76,1.24,9.42,1.41,14.19s-.27,9.53-.54,14.32c-.12,2.11,3.29,2.6,3.73.5Z"/><path class="asparagusasparaguscls-4" d="M240.94,182.38c-.57-5.33-2.57-10.85-4.49-15.83-.61-1.57-3.13-1.49-3.1.42.1,5.47,1.44,11.71,4.8,16.17.77,1,3,.91,2.79-.76Z"/><path class="asparagusasparaguscls-4" d="M257.81,144.13c.3-3,.46-5.8-.6-8.63a1.58,1.58,0,0,0-3.09.42c-.3,2.74,0,5.45-.11,8.21-.1,2.48,3.55,2.38,3.8,0Z"/><path class="asparagusasparaguscls-4" d="M275.3,128.61c0-2.55.53-5.83-.68-8.16a1.66,1.66,0,0,0-2.85,0c-1.2,2.33-.68,5.61-.68,8.16,0,2.71,4.21,2.72,4.21,0Z"/><path class="asparagusasparaguscls-4" d="M239.9,116.83c-.1-.47,0,.31,0-.14,0-.21,0-.42,0-.62s0-.58,0-.36.08-.36.1-.44a1.75,1.75,0,0,0-2.92-1.7,5.19,5.19,0,0,0-1.3,3.83,2.13,2.13,0,1,0,4.18-.57Z"/><path class="asparagusasparaguscls-4" d="M258.16,88.77l-1-2.07a1.85,1.85,0,0,0-3.37,1.42l.7,2.2a2,2,0,1,0,3.68-1.55Z"/><path class="asparagusasparaguscls-2" d="M349.73,54.23s-2-2.72-6.3,3.5a51.48,51.48,0,0,0-8.14,20.65c-1.08,7.54-.86,10.35-.86,10.35s-12.94,11.42-16.82,27.59a53.62,53.62,0,0,0,1.08,29.11s-9.7,17.24-6.25,30,13.79,19.84,13.79,19.84-2.58,83.22-2.58,101.76.64,41.82.64,41.82-6.9,14.66-5,21.35,6.47,7.54,6.69,21.55-.65,54.12,3.23,60.37,21.78,9.06,32.56,6.25,10.56-6.68,11.42-15.74,1.08-9.7,1.08-9.7-7.33-69.42-7.11-82.78.86-22.64,4.31-28.89,3.66-8.41,3-12.29-5.18-14.23-6.9-15.09a8,8,0,0,0-3.24-.87s.43-40.31-.64-54.33l-1.08-14L362,210.1s16.6-18.75,12.51-32.34-5.83-15.95-5.83-15.95a37.86,37.86,0,0,0,11.65-28.46c-.65-17.89-14.88-34.28-14.88-34.28s4.1-5.82-1.94-16.6-10.35-19-12.07-22.85S349.73,54.23,349.73,54.23Z"/><path class="asparagusasparaguscls-3" d="M354.09,148.52c-8.19,11.36-17,22.19-15.23,37.1,1.28,10.91,8.7,23,19.14,27.27,2.5,1,1.6-1,.27-2.62-6.81-8.39-14.51-14.84-14.83-26.82-.3-10.84,6.54-23.4,13.08-31.85a57,57,0,0,1,15.12,17.46c-2.83-9.54-8.62-15.85-13.69-21A2.49,2.49,0,0,0,354.09,148.52Z"/><path class="asparagusasparaguscls-3" d="M326.45,130.87c-1.48-.38-1.44,1.72-2.05,3-3.47,7.35-8.47,15.64-11,24.55,4.53-8.2,11.8-18.11,13.88-23.9a36.67,36.67,0,0,1,10.51,13.58c3.35,7,3.72,16,2.58,24.9-.23,1.85,2.58,1.19,3.53-1C349.12,159.85,340.31,134.43,326.45,130.87Z"/><path class="asparagusasparaguscls-3" d="M348.13,104.18a3,3,0,0,0-5.15,0c-5.47,8.08-13.72,20.5-13.32,31h0a2.37,2.37,0,0,1,1.29.08h0l.17,0a1,1,0,0,1,.43.17,5.44,5.44,0,0,1,.54.25l.38.21a5.73,5.73,0,0,1,1.07.74l.12.1c0-.06,0-.09,0-.15-.7-8.28,6.34-21,11.32-28.62,6.63,11.63,19.89,27.27,9.36,42.54,0,0,1.65-.2,1.64-.18l-1.53.23a2.82,2.82,0,0,1,1.52.07c.32.13.63.25.92.39h0l.06,0a4,4,0,0,1,1.25.86,6.44,6.44,0,0,1,.82,1l.34.28.87.74a3.32,3.32,0,0,0,.51-.77C368.17,137.07,356.2,117.88,348.13,104.18Z"/><path class="asparagusasparaguscls-3" d="M334.26,89c1.39,4.81,4.38,16.64,5.27,21.5l.71-.87a15.77,15.77,0,0,0,1.18-1.75,3.09,3.09,0,0,1,1.57-1.31c.5-.21-1-6.31-1.14-6.86C339.55,92.82,335.41,86,334.26,89Z"/><path class="asparagusasparaguscls-3" d="M373.82,111.89a40.39,40.39,0,0,0-4.5-10.14A35.32,35.32,0,0,0,359.6,94a2.42,2.42,0,0,0-3.5,1.43c-1.81,6-3.66,11.8-4.86,17.91l.06.08a38.1,38.1,0,0,1,2.47,4.24c.21.42.42.87.62,1.31a2.47,2.47,0,0,0,1-1.32c1.87-5.53,2.3-13.36,3.57-19A47.8,47.8,0,0,1,373.82,111.89Z"/><path class="asparagusasparaguscls-3" d="M338.5,350.16c-2.67-4.89-6.4-11.08-9.25-15.88-1-1.75-3-.69-4,1.34-3.52,7.37-7.73,16.91-6.11,25.23.52,2.68,3.16,1.66,3.86-.69,1.06-3.56,1-7.38,1.85-11,.49-2.18,2.11-8.84,2.89-10.88,1.8,3.2,5.48,10.52,7.33,13.69S340.3,353.44,338.5,350.16Z"/><path class="asparagusasparaguscls-3" d="M372.56,292.82c-1.21-3.07-2.6-7.84-5.9-9.31-7.05-3.14-10.81,11.22-11.72,15.69-.77,3.78,3.23,4.41,4.06.59,1.4-6.47,5.95-12.46,6-12.61,5.17,7.76,5,15.55,6.58,18,1,1.64,2.25,2.08,2.79.15C375.52,301.39,374,296.51,372.56,292.82Z"/><path class="asparagusasparaguscls-3" d="M355.36,249.54c-1-3.41-5.46-18.62-11.4-12.77-2.46,2.43-3.92,6.66-5.18,9.81-1.65,4.11-3.26,8.62-3,13.1.13,2.3,2.47,1.62,3.28-.42,2.15-5.43,4.2-13.91,7.12-19.51,1.52,1.1,4.51,8.64,5.49,11.1C352.72,253.48,356.13,252.2,355.36,249.54Z"/><path class="asparagusasparaguscls-4" d="M362.17,197c1.92-9.23,2-21-1.76-29.78-.6-1.42-2.88-.65-2.83.77.15,4.76,1.23,9.42,1.4,14.19s-.26,9.53-.54,14.32c-.12,2.11,3.29,2.6,3.73.5Z"/><path class="asparagusasparaguscls-4" d="M333.22,182.38c-.58-5.33-2.58-10.85-4.5-15.83-.6-1.57-3.13-1.49-3.1.42.1,5.47,1.45,11.71,4.8,16.17.77,1,3,.91,2.8-.76Z"/><path class="asparagusasparaguscls-4" d="M350.08,144.13c.31-3,.46-5.8-.59-8.63a1.59,1.59,0,0,0-3.1.42c-.29,2.74,0,5.45-.11,8.21-.1,2.48,3.55,2.38,3.8,0Z"/><path class="asparagusasparaguscls-4" d="M367.58,128.61c0-2.55.52-5.83-.68-8.16a1.67,1.67,0,0,0-2.86,0c-1.2,2.33-.68,5.61-.68,8.16,0,2.71,4.22,2.72,4.22,0Z"/><path class="asparagusasparaguscls-4" d="M332.17,116.83c-.1-.47,0,.31,0-.14,0-.21,0-.42,0-.62s0-.58,0-.36.09-.36.11-.44a1.75,1.75,0,0,0-2.92-1.7,5.11,5.11,0,0,0-1.3,3.83,2.12,2.12,0,1,0,4.17-.57Z"/><path class="asparagusasparaguscls-4" d="M350.43,88.77l-1-2.07a1.84,1.84,0,0,0-3.36,1.42l.69,2.2a2,2,0,1,0,3.68-1.55Z"/></g></g></svg>