<svg xmlns="http://www.w3.org/2000/svg" viewBox="0 0 512 512"><defs><style>.avocadoavocadocls-1{fill:#776262;}.avocadoavocadocls-2{fill:#b7abab;}.avocadoavocadocls-3{fill:#4a2d2d;}.avocadoavocadocls-4{fill:#fff;}.avocadoavocadocls-5{fill:#c0c728;}.avocadoavocadocls-6{fill:#945031;}.avocadoavocadocls-7{fill:none;}</style></defs><g id="Capa_2" data-name="Capa 2"><g id="bocetos"><path class="avocadoavocadocls-1" d="M262.81,216.43c-2.85-4.58-5.76-9.15-8.52-13.88A121.19,121.19,0,0,1,239,157c-1.28-10.7-2.16-21.32-6.06-31.48-5.21-13.58-13.6-27.29-25.76-35.67-11-7.56-24.54-10.49-37.69-10.68-29.27-.42-62.08,11.43-77.21,38A56,56,0,0,0,87,129.65C80.18,154.1,89.6,179.12,78,202.84c-9.79,19.94-20.19,38.59-23.08,61a92.23,92.23,0,0,0,12,58.57c14.12,24.1,39,40.87,66.06,47.08a147.31,147.31,0,0,0,50,2.47,125.94,125.94,0,0,0,41.46-12.48c15.17-7.56,29-18.18,39.47-31.61,18.33-23.61,22.3-54.21,13.42-82.42C273.93,234.86,268.51,225.62,262.81,216.43Z"/><path class="avocadoavocadocls-2" d="M154.39,97.4c-.48-1.72-1.79-11.19-1.1-15.37a9.14,9.14,0,0,1,5-6.31,19.66,19.66,0,0,1,8.09-1.8,9.22,9.22,0,0,1,3.23.28c2.19.69,3.66,2.77,4.55,4.89,2,4.68,1.6,13.34,1.41,18.41Z"/><path class="avocadoavocadocls-3" d="M86.47,239.59a6,6,0,0,0-5.9,1.84c-3.66,4-1.23,10.74,4.44,10.68C92.24,252,93.25,241.41,86.47,239.59Zm-.56,6.81,0,0v0Zm-1.14-1h0C84.92,245.37,85.05,245.35,84.77,245.42Zm.23,3.7.13-.18,0,0C85.8,248.28,85.12,249,85,249.12Z"/><path class="avocadoavocadocls-3" d="M85.42,280.07c-2.79-1.74-6-1.61-7.52,2.29-1.34,3.34.41,8.1,2.57,10.67,2.53,3,7,3.49,9.24-.2C92.4,288.39,89.26,282.47,85.42,280.07Z"/><path class="avocadoavocadocls-3" d="M117.58,273.67c-2-3.57-7.34-3.51-9.84.29-3.62,5.51,2.05,12.34,7.85,8.11a6.73,6.73,0,0,0,2.73-6.09A6.16,6.16,0,0,0,117.58,273.67Zm-4.43-.05a4.53,4.53,0,0,0-.69-.28h0Z"/><path class="avocadoavocadocls-3" d="M146,94.56c10.18,8.56,26.78,10.45,36.89.47,2.37-2.34-.65-6.14-3.52-4.55-10.36,5.71-19.81,7.06-29.89-.43-2.6-1.93-6,2.41-3.48,4.51Z"/><path class="avocadoavocadocls-1" d="M371,179c-38.13,5.56-53.31,27.66-68.14,34.64-29.33,13.81-63,14-91.88,29.19-26.08,13.76-39.3,37.85-41.53,66.8-1.16,15-.8,31.71,4.25,46,4.55,12.85,16,26.67,25.19,36.55,41.08,44,104.38,51.45,158.23,31.78,25.58-9.35,47.76-23.84,62.56-46.9,14.22-22.14,20.67-48,24-73.78,3.18-24.63,5.73-51-1.46-74.94C426.48,176.07,383,177.28,371,179Z"/><path class="avocadoavocadocls-4" d="M413.15,197.91s-18.51-17.4-47.37-15.54-50.34,24-69.59,31.83-72.17,13.32-97,32.57-41.45,44.78-34.05,82.9,42.93,79.58,108.08,78.1S397.61,356,416.11,313s14.44-79.95,12.22-91.42S413.15,197.91,413.15,197.91Z"/><path class="avocadoavocadocls-5" d="M368.56,196.59c-26.34,3.28-49.44,20.32-72.91,31.34-13.13,6.17-26.41,9.85-40.56,12.76-23.76,4.9-55.68,16.19-65.74,40.82-8.81,21.57-10.27,47.6,1,68.52s32.59,37,56,40.71c22.69,3.6,45.91.46,67.31-7.7,41.14-15.69,75-48.25,90.52-89.66C416.05,261.66,420.62,190.11,368.56,196.59Z"/><path class="avocadoavocadocls-6" d="M337.55,269.75c-.1-.3-.2-.59-.32-.88-2.28-5.7-8.57-10.22-13.55-13.43-12-7.72-26.7-11.7-40.88-12.35-18.58-.86-37.18,6.07-49,20.77-7.41,9.21-11.73,20.62-13.47,32.25-1.79,12-2.74,27.59,4.63,38,14.88,21.1,48.82,16.48,69,7.22a77.85,77.85,0,0,0,34.8-32,70,70,0,0,0,8.13-22C337.93,281.83,339.37,275.29,337.55,269.75Z"/><path class="avocadoavocadocls-4" d="M267.92,254.23a13,13,0,0,0-4,.9c-7.66,2.88-14.74,7-20.28,13.13-6.16,6.83-11.08,17.89-7.29,26.8,1.08,2.54,5.19,3.42,7.35,1.93,6.84-4.74,6-13,10.41-19.42,4.22-6.14,11.41-10.27,17.39-14.49a4.82,4.82,0,0,0-1.93-8.73A7.92,7.92,0,0,0,267.92,254.23Z"/><path class="avocadoavocadocls-4" d="M233.74,312.86a7.88,7.88,0,0,0,1.86,2.83,3.88,3.88,0,0,0,3.17,1,3.83,3.83,0,0,0,2.76-1.8,7.85,7.85,0,0,0,1-3.22,5,5,0,0,0-1.24-4.69,4.89,4.89,0,0,0-7.57,1,4.94,4.94,0,0,0,0,4.87Z"/><path class="avocadoavocadocls-3" d="M431.86,226.39a56.69,56.69,0,0,0-38.54-43.95c-19.41-6.42-40.43-3.75-58.22,6-11.37,6.24-21.86,14-33.41,19.88-12.17,6.23-25,9.23-37.86,13.07-36.48,5.51-74.66,18.37-92.7,53a94.38,94.38,0,0,0-8.9,58.48c4.06,24,19.88,42.51,38.9,56.63a89.83,89.83,0,0,0,13.05,8.54,108.42,108.42,0,0,0,32.12,11.48c35,6.63,71.77-3.5,102.19-21,29.9-17.16,56.48-43.3,70.48-75.12C430.35,287.59,437.09,254.54,431.86,226.39Zm-17.19,77.17c-22.13,59.82-91.91,105.26-155.61,100.86-23.88-1.65-67.29-15.19-86.12-58.28-10.16-23.25-5.89-50.49,6.28-71.93,10.39-18.31,29.48-30.93,49-38a158,158,0,0,1,26.46-7.1c13.38-2.35,26.88-5,39.55-10.24,11-4.57,21.14-11.53,31.22-17.81,16.71-10.41,33.56-17.46,52.42-15.44,22.36,3.67,40.4,15.14,45.69,39.27C429.11,250.24,423.53,279.63,414.67,303.56Z"/><rect class="avocadoavocadocls-7" width="512" height="512"/></g></g></svg>