<svg xmlns="http://www.w3.org/2000/svg" viewBox="0 0 512 512"><defs><style>.bananabananacls-1{fill:#fdca2a;}.bananabananacls-2{fill:#4a2d2d;}.bananabananacls-3{fill:none;}</style></defs><g id="Capa_2" data-name="Capa 2"><g id="bocetos"><path class="bananabananacls-1" d="M150.35,92s-6.94,8.48-22.35,6.56S104.88,92,104.88,92l3.85,59.35s-56.65,25.05-51.25,95.19S101.79,373,175.4,408.82s165.33,20.43,218.12-18.11,75.92-116,64.36-149.91-45.09,6.55-57,16.18-54.34,42.78-114.46,42-96.73-22.35-117.54-63.2c-20-39.33-20-82.86-20-103.67S150.35,92,150.35,92Z"/><path class="bananabananacls-1" d="M449.18,242.53l.44.22a5.58,5.58,0,0,1,.16-1.39,5.31,5.31,0,0,0-5.4-3.05A14.68,14.68,0,0,0,449.18,242.53Z"/><path class="bananabananacls-2" d="M423.29,279.78c-16.34,19.85-35,36.06-58.6,46.72A174.22,174.22,0,0,1,290.3,342c-52.52-.76-103-30.25-132-73.62-18.83-28.12-29.82-63.45-30.69-97.23a1.71,1.71,0,0,0-3.42,0c-2.17,30.54,9.24,64.8,24.56,90.92A181.3,181.3,0,0,0,204,320.26c45.31,30.41,103.69,37.91,154.6,17.74,27.19-10.78,53.11-30.16,69.27-54.7C429.65,280.59,425.41,277.21,423.29,279.78Z"/><path class="bananabananacls-2" d="M393.32,353c-26.31,18.72-53.91,33-85.91,39.13A196.94,196.94,0,0,1,207.85,385c-33.9-11.45-64-35.5-85.58-63.76a170.27,170.27,0,0,1-33.2-78.53c-.37-2.49-4.76-1.92-4.44.61C90.88,292,119.52,334,158,363.47c39.63,30.34,90.66,42.83,140.15,36.42,35.32-4.58,71.64-18.76,98.82-42.16C399.58,355.51,396.14,351,393.32,353Z"/><path class="bananabananacls-2" d="M131.35,76.59a50.23,50.23,0,0,0-16.9,3.86c-3.61,1.5-8.71,3.52-10.8,7.09-2.74,4.66,2.27,8.12,6,10.25a40.3,40.3,0,0,0,25,4.88c5.83-.73,13.34-2.47,16.67-7.87a10.44,10.44,0,0,0,.46-9.91c-1.83-3.69-5.73-6-9.69-7.1A33.14,33.14,0,0,0,131.35,76.59ZM127.87,95.8a54.5,54.5,0,0,1-12.74-2.51,5.47,5.47,0,0,1-2.2-1.15c-2.7-2.66,2.67-4.76,4.45-5.56a35.45,35.45,0,0,1,9.9-2.79c5.09-.67,11.89-.32,16,3.16a4.38,4.38,0,0,1,1.22,1.49,3.71,3.71,0,0,1-.67,3.72,7.65,7.65,0,0,1-3.3,2.15A30,30,0,0,1,127.87,95.8Z"/><path class="bananabananacls-2" d="M436.85,237.18a12,12,0,0,0,6,7.76c2.76,1.54,7.46,3.19,10.37,1.24,1.84-1.23,2.56-4,.73-5.7-2.53-2.31-8.15-1.63-9.62-5.36-1.79-4.55-8.59-2.9-7.46,2.06Z"/><rect class="bananabananacls-3" width="512" height="512"/></g></g></svg>