<svg xmlns="http://www.w3.org/2000/svg" viewBox="0 0 512 512"><defs><style>.barleygrainbarley-graincls-1{fill:#4a2d2d;}.barleygrainbarley-graincls-2{fill:none;}</style></defs><g id="Capa_2" data-name="Capa 2"><g id="bocetos"><path class="barleygrainbarley-graincls-1" d="M222.83,230a122.11,122.11,0,0,0,38.26-27.32c9.4-9.82,24.15-25.76,14.87-40.05-13.06-20.09-43.76.27-55.65,11.26-11.31,10.46-31.8,37.48-19.49,53.51C206.28,234.51,215.55,233.23,222.83,230Zm-11.09-33.59a71.82,71.82,0,0,1,12.95-16.2c7.83-7.41,45.68-33.26,48.13-8.7.75,7.61-4.87,14.42-9.67,19.69-1.41,1.55-4.95,5.08-9.62,9.33-15.41,14-43.22,35.68-48.63,19.84C202.45,213.18,208.3,202.36,211.74,196.41Z"/><path class="barleygrainbarley-graincls-1" d="M220.53,126.59c9.57,7.4,21.51,11.56,33.26,14s25.8,4.86,37.48,1.19c8.57-2.69,16.61-9.2,18.09-18.5,1.42-8.92-4.17-15.19-11.09-20A128,128,0,0,0,285.58,96c-16.46-8.79-36.13-13.17-54.73-10.87-9.11,1.13-20.89,5.22-24.43,14.73C202.47,110.46,213,120.78,220.53,126.59Zm5.34-33.32c9-2.54,19.27-1.6,28.35,0,13.26,2.35,26,6.67,37.49,13.79,4.25,2.63,9.7,6.6,10.1,12s-3.43,10.52-8,13.13c-8.47,4.88-19,3.37-28.1,1.81-14.67-2.49-29.36-6.45-41.81-14.88-3.25-2.21-8.22-5.66-10-9.32C209,99.62,219,95.21,225.87,93.27Z"/><path class="barleygrainbarley-graincls-1" d="M314.26,227.75c12-4.91,24.41-15.39,33.87-24.23,9.15-8.55,16.91-19.26,20.35-31.43,2.59-9.17,4-21.42-3.29-28.86-12.79-13-31-2-42.06,7.5-16.62,14.25-27.61,35.11-27.76,57.21C295.29,219.84,299.65,233.7,314.26,227.75Zm47.53-68.26c-.45,9-3.93,17.46-8.91,25a93,93,0,0,1-15.08,17.2c-3.76,3.42-19.06,16.89-28.62,17.88a644,644,0,0,1,48.36-70.49C360.31,151.29,362,154.67,361.79,159.49Zm-60.51,48.43a62.46,62.46,0,0,1,1.51-12,75.12,75.12,0,0,1,8-21c5.72-10.12,13.3-21.18,24.12-26.55,5.69-2.83,13.75-3.6,19.56-1.08a517.77,517.77,0,0,0-49.12,71.84c-1.88-.8-3.25-2.57-3.81-5.72A28.65,28.65,0,0,1,301.28,207.92Z"/><path class="barleygrainbarley-graincls-1" d="M430.74,248.21a12.73,12.73,0,0,0-1.19-3.54c-2.23-4.35-6.75-7.26-11-9.63a62.19,62.19,0,0,0-11.6-4.8,123.67,123.67,0,0,0-20.76-4.57c-13.13-1.77-27.11-2.53-39.82,2-9.06,3.22-19.7,10-20.45,20.67-1.62,22.93,38.3,28.19,53.85,28.49,12.34.24,26.86-1,37.74-7.37C424.53,265.37,432.32,257,430.74,248.21ZM407.38,264c-7.27,2.39-15.27,3.18-22.88,3.35-14,.31-35.1-.92-47-9.52-13-9.37,1.2-20.49,10.67-23.8,8.29-2.89,17.12-3.49,25.83-3.11,11,.49,22.37,1.69,32.92,5,4.84,1.52,10.81,3.67,13.76,8.13C426.41,252.76,414.49,261.65,407.38,264Z"/><path class="barleygrainbarley-graincls-1" d="M157,204.66c8.12,3.86,16.73,3.53,22.81-3.7,6.73-8,6.21-21,5.5-30.77-.83-11.29-3.38-22.6-8.84-32.58-8.46-15.49-32.85-38.3-48.24-17.51C107.58,148.05,128.53,191.11,157,204.66Zm.88-79.35a50.64,50.64,0,0,1,12.64,17.22,83.57,83.57,0,0,1,7.26,43c-.57,5.46-2.67,9.39-5.68,11.67-4-13.42-11.36-26.26-16.54-39.29s-9.27-26.14-14.35-39C147.43,117.35,153.47,121.47,157.92,125.31ZM129.83,136.6c.64-6,2.58-13,8.14-16.34,3.43,13.77,8.71,27.24,13.92,40.41,5,12.53,9.6,26.77,17.2,37.91a.85.85,0,0,0,.16.17c-4.16,1.51-9.37.65-14.73-2.9C136.44,183.88,127.61,157.49,129.83,136.6Z"/><path class="barleygrainbarley-graincls-1" d="M249.85,332.59c17.69,11.94,49.44,7,49.34-19.1-.08-22.88-23.16-45.31-41.88-55.12-8.12-4.25-22.16-11.7-31.63-8.33-13.85,4.93-8,24.72-5.05,34.8,4.66,16,10.93,32.14,23.72,43.48A53.93,53.93,0,0,0,249.85,332.59Zm-10.07-73.84a75,75,0,0,1,21.79,10.84c12.95,9.18,29.26,26.15,30.16,42.94A17.28,17.28,0,0,1,286.52,326c-7.35-12.23-18.92-22.72-28.52-33.18-10.29-11.22-20.64-22.49-31.7-33C229.55,256.09,235.69,257.53,239.78,258.75Zm-10.9,32.74a82.38,82.38,0,0,1-4-17.19c-.42-3.38-1.22-7.75-.21-11.32,9.35,10.84,19.19,21.28,28.77,31.92,9.82,10.93,19,24,30.4,33.3a22.89,22.89,0,0,1-13.76,3.93c-10-.35-18.92-6.1-25.35-13.47A83.55,83.55,0,0,1,228.88,291.49Z"/><path class="barleygrainbarley-graincls-1" d="M169,283.33c5.5-2,10.91-5.15,14.33-10,3.55-5.06,3.86-9.91,2-14.35a23.84,23.84,0,0,0-6.26-8.28,67.77,67.77,0,0,0-11.89-8.41,125.35,125.35,0,0,0-39.49-14.15c-18.12-3.14-47.15,1.8-46.67,25.83.47,23.71,32.53,31.54,51,33.24C144.23,288.3,157.47,287.65,169,283.33Zm-32.35-46.1c14.45,4.22,29.56,10.17,39.72,21.74,1.82,2.07,2,3.95,1.36,5.67-12.55-6.6-30.06-8.33-43.7-10.81-14.9-2.7-30.41-5.27-45.6-5.07C93.39,227.76,121.42,232.78,136.69,237.23ZM88,251.41c15.49,2.5,31.12,3.78,46.56,6.81,7.65,1.51,15.24,3.29,22.78,5.28,5.84,1.55,11.68,3.81,17.66,4.83-1.09,1-2.33,2-3.51,2.87a30.34,30.34,0,0,1-12,5.39A91.88,91.88,0,0,1,132,278C118.55,276.74,85.82,270.71,88,251.41Z"/><path class="barleygrainbarley-graincls-1" d="M193.4,334.5c3.78-4.53,4.24-10.71,2.53-16.41-6-20.1-28.07-16.91-44.4-14.15-11.25,1.91-22.79,5.42-32.62,11.35-8.57,5.18-19.66,13.08-20.7,23.91-2.18,22.51,35.89,18.94,49,16.58a116.55,116.55,0,0,0,29.95-10.17C183,342.79,189.19,339.54,193.4,334.5Zm-42.5,11.58c-10,2.48-49.27,9.7-45.54-8.81,2.82-13.95,27.18-23.35,39.24-26.33,8.79-2.17,18.17-3.7,27.24-3,6.9.52,16.2,3.86,16.69,12s-8.7,14.81-14.91,18.2C166.55,342,158.68,344.16,150.9,346.08Z"/><path class="barleygrainbarley-graincls-1" d="M219.75,338.92C209.12,340,199.11,351.65,192,358.56c-9.54,9.24-20.51,19.57-26.64,31.54-9.28,18.15.27,40.94,23.08,37,11.56-2,19.91-10.78,26.72-19.71,9.95-13.06,18.7-27.68,21.42-44.28C238.63,350.38,235.23,337.37,219.75,338.92ZM202,411.08c-6.16,5.94-15.19,11.06-24,7.85-12.08-4.41-9.38-18.68-4.53-27.39a157.45,157.45,0,0,1,31.64-39.12c4.74-4.23,12.72-8.11,19.21-6.36C248.17,352.46,209.51,403.8,202,411.08Z"/><path class="barleygrainbarley-graincls-1" d="M330.14,362.93a58.38,58.38,0,0,0-25.76-2.9,99.13,99.13,0,0,0-30.2,8.34c-10.1,4.46-19.71,10.94-26.4,19.84-4.91,6.53-6,16.11,1.57,21.19,9.24,6.19,24.45,6.84,35.22,6.81,19.87-.07,53.13-5.23,59.74-28C347.81,376.16,341.38,367.06,330.14,362.93Zm-66.33,18.49c14.07-10,30.18-13.54,47.14-14.48a3.41,3.41,0,0,0,.82-.16c5.68.06,11.39.17,16.73,2.3,4.83,1.93,7.54,5.39,8.43,9.33-14,0-28.49,2.34-42.32,4.49a416.1,416.1,0,0,0-41.36,8.1A54.08,54.08,0,0,1,263.81,381.42Zm68.62,11.65c-11.19,12.19-34,14.76-49.48,14.89-8.21.07-18.52.18-26.26-2.71-6.62-2.47-7.56-6.27-5.9-10.23,15.4-2.64,30.66-5.74,46.17-7.76,13.35-1.73,26.9-2.38,40.22-4.24A17.91,17.91,0,0,1,332.43,393.07Z"/><path class="barleygrainbarley-graincls-1" d="M369.35,303.49c-10.68-8.22-26.38-16.06-40.22-12.86-13.05,3-14.41,18.81-9.64,29.18,9.36,20.34,31.38,43.56,54.29,47.67,23.33,4.19,34.73-19.08,22.25-37.35C389.15,320,379,310.9,369.35,303.49Zm6.71,55.7c-14.09-2.45-27.51-15.16-37.1-25-5.51-5.68-11.7-12-14.39-19.58-2.25-6.33-.29-15.61,7.42-17,17.46-3.09,35.2,13.69,46.36,24.69,5,5,10.88,10,13.91,16.49C398,351.08,389.18,361.47,376.06,359.19Z"/><rect class="barleygrainbarley-graincls-2" width="512" height="512"/></g></g></svg>