<?xml version="1.0" encoding="UTF-8"?>
<svg id="Capa_2" data-name="Capa 2" xmlns="http://www.w3.org/2000/svg" viewBox="0 0 1025 1025">
  <defs>
    <style>
      .barleycls1 {
        fill: none;
      }

      .barleycls2 {
        fill: #4a2d2d;
      }
    </style>
  </defs>
  <g id="legumes_grains" data-name="legumes&amp;amp;grains">
    <g>
      <g>
        <path class="barleycls2" d="m177.6,794.5c39.19-36.18,4.01-98.47-20.61-131.75-35.43-47.9-82.58-91.76-91.74-153.55-.77-5.18-9.41-3.96-9.14,1.24,1.16,21.74,7.3,41.44,16.41,59.93-3.1,58.07-17.69,122.44,4.74,178.46,14.03,35.04,62.84,80.29,100.34,45.67Zm-92.04-72.32c-9.45-45.32-.37-83.06,1.49-126.59,5.88,9,12.29,17.79,18.98,26.47,28.4,36.84,65.28,75.88,72.08,123.9,2.05,14.47.43,31.65-13.13,40.51-12.77,8.35-30.07,4.15-42.13-3.27-21.15-13.03-32.4-37.54-37.29-61.01Z"/>
        <path class="barleycls2" d="m533.56,679.29c-27.03,7.32-53.79,18.79-79.34,32.12-.25-.12-.5-.25-.78-.34-29.43-9.84-65.54-12.11-96.43-13.1-28.96-.93-60.09.61-87.54,10.99,6.95-10.05,10.85-22.9,12.72-36.15,43.01,22.31,94.79-15.14,126.05-41.86,25.1-21.45,51.3-41.29,78.55-59.95,27.83-19.06,57.61-34.63,85.92-52.86,4.68-3.02,1.76-11.72-4.01-9.5-26.33,10.1-51.87,24.25-76.03,40.14-.09-.02-.17-.08-.26-.08-32.88-1.87-68.92-2.17-99.98,0-12.43.86-22.93-.45-34.91,1.13,1.74-3.73,3.37-7.5,4.95-11.29,51.48,18.93,90.84-18.42,130.73-48.06,22.4-16.64,45.25-32.81,69.06-47.39,25.77-15.78,53.73-25.75,80.09-39.93,6.95-3.74,1.94-13.43-5.1-12.1-26.18,4.95-52.17,18.11-76.48,33.68-28.47-1.79-56.2-5.15-84.71-8.77-20.55-2.61-43.05-4.48-63.32,1.3.04-.04.08-.08.12-.11,11.31-3.53,22.71-6.89,34.12-10.37.06.01.1.06.16.07,49.01,9.39,99.37-21.82,139.43-46.14,23.14-14.05,44.83-30.11,67.18-45.33,23.23-15.82,46.81-25.37,72.32-36.51,4.73-2.06,2.33-10.04-2.62-9.69-29.75,2.09-57.47,19.94-83.27,38.81-20.78-12.39-47.6-16.46-71.16-19.62-21.28-2.86-43.13-5.48-64.66-4.07,6.56-7.49,12.4-15.01,17.33-21.85,15.48-21.49,27.73-44.62,38.08-68.96,10.7-25.19,17.87-52.54,38.27-71.96,4.08-3.88-1.47-11.54-6.17-7.99-12.26,9.25-20.19,21.07-26.62,34.41-29.8,18.43-53.19,23.08-98.91,36.87-16.13,4.86-38.1,11.36-50.69,24.64-2.38-25.48-6.12-50.66-11.43-74.8-1.11-5.07-9.46-4.03-9.14,1.24,1.06,17.13,2.3,34.17,3.5,51.2-5.6,11.77-13.11,22.21-21.37,32.12-2.71-16.7-14.46-32.98-20.23-48.26-6.84-18.11-11.59-37.09-15.09-56.15,5.41-23.16,8.9-46.68,8.46-71.08-.12-6.83-10.5-6.84-10.62,0-1,56.83-19.93,111.39-38.26,164.58-8.1,23.49-24.85,61.62-24.47,93.71-8.13-11.87-16.03-23.86-22.04-36.76-12.96-27.79-12.88-62.16-11.8-92.22.25-7.13-10.31-6.9-10.94,0-1.65,17.96-1.91,36.43.25,54.53-.42.92-.59,2-.42,3.21,3.89,26.66,5.88,51.77,2.63,78.58-3.18,26.28-10.68,51.89-12.89,78.28-3.41,40.76,11.24,80.35,42.39,107.43.68.59,1.39.98,2.1,1.24-4.74,6.94-8.84,14.23-12.14,21.86-7.78-25.14-15.86-50.87-27.06-74.35-2.2-4.61-8.07-1-7.5,3.16,1.71,12.68,4.98,25.17,8.72,37.54-1.42,6.13-3.17,12.12-5.21,17.98-26.89-47.01-59.53-92.07-60.07-148.49-.06-6.09-8.76-5.87-9.3,0-2,21.39,1.33,41.62,7.69,61.09-11.57,57.27-35.32,119.54-20.62,178.31,4.38,17.51,15.82,37.82,31.2,51.36.36,31.8,12.45,70.71,41.4,81.37-10.01,22.78-19.78,45.66-29.23,68.64-12.2,29.68-23.67,59.67-34.84,89.74-11.07,29.79-23.75,59.84-31.27,90.75-2.25,9.23,11.57,16.05,16,6.74,22.74-47.78,38.42-99.52,58.47-148.53,6.35-15.54,12.82-31.03,19.36-46.49,1.81,8.36,6.78,16.28,16,23.08,44.68,32.96,101.35-2.76,138.78-28.7,54.02-37.44,112.69-62.95,170.9-92.57,5.32-2.71,1.6-11.02-4-9.5Zm-120.72-119.1c19.77-.46,39.73,2.01,59.52,2.55-7.19,5.15-14.24,10.4-21.12,15.68-37.56,28.87-72.82,72-120.74,82.92-16.35,3.73-35.45,2.37-46.93-6.24.21-9.73-.43-19.08-1.5-27.04-.49-3.63-1.06-7.26-1.67-10.89,28.77,2.74,52.72-24.38,67.71-49.54,21.15-5.01,43.09-6.93,64.73-7.43Zm80.99-128.99c16.14,2.33,32.8,5.33,49.25,5.42-12.7,8.91-24.81,18.1-36.06,26.66-20.82,15.84-40.48,33.32-61.66,48.65-25.8,18.67-48.9,23.92-78.76,16.14,4.71-12.56,8.75-25.37,12.57-38.25,5.29-17.82,10.47-38.54,20.31-55.49.23-.02.45-.04.69-.09,32.29-7.15,60.88-7.77,93.66-3.04Zm-134.13,80.68c-13.63,41.57-36.05,83.02-81.39,93.98-4.73-23.76-11.62-47.35-18.76-70.28,16.99-37.99,41.95-66.86,78.68-87.88,17.26-9.88,35.26-17.29,53.64-23.68-17.29,25.06-23.19,60.5-32.16,87.85Zm42.62-120.73c3.23,4.45,7.91,8.35,13.15,11.22-8.15,2.22-16.26,4.78-24.28,7.65,4.29-5.66,7.98-12.07,11.12-18.87Zm-72.96,48.07c-.03-4.33-.35-8.7-.82-13.07,4.09,2.67,8.83,4.54,14.27,5.43-4.59,2.47-9.07,5.02-13.45,7.63Zm238.25-140.53c20.83,3.99,40.19,12.68,60.39,18.32-9.71,7.25-19.13,14.31-28.27,20.34-41.41,27.27-85.94,56.79-136.09,60.5-.09-2.13-1.45-4.1-4.12-3.83-7.28.73-14.62,1.85-21.99,3.25-5.17-1.71-10.58-2.57-15.61-5.13-6.63-3.38-11.25-7.61-14.2-14.47,5.59-16.22,8.51-33.11,9.37-46.11.03-.4.05-.81.07-1.22.74.74,1.7,1.3,2.99,1.41,26.97,2.41,53.09-15.43,73.95-36.45,24.73.08,48.93-1.32,73.51,3.39Zm-74.17-110.58c22.39-5.61,44.7-11.23,64.29-22.98-8.55,20.65-16.89,41.25-27.22,61.15-19.96,38.43-61.33,96.79-110.35,96.17-1.08-.01-1.89.32-2.58.78,1.75-31.48,1.66-64.17-.58-96.63,20.3-23.1,46.96-31.1,76.44-38.48Zm-90.19,105.04c-.05,25.12.56,51.66-7.28,75.81-6.42,19.78-35.9,66.48-61.1,42.06-15.73-15.24-16.45-45.99-14.1-66.02,2.62-22.32,10.99-43.86,23.22-62.66,15.11-23.23,41.68-42.53,56.47-67.06,1.63,25.85,2.84,51.73,2.79,77.87Zm-105.19-34.7c7.91-24.59,15.76-49.19,23.53-73.82,4.8-15.21,9.63-30.34,13.94-45.54,2.24,10.74,5.09,21.35,8.81,31.9,6.81,19.32,14.27,40.33,24.09,58.28-7.47,8.33-15.21,16.47-22.44,24.93-16.16,18.9-28.65,40.99-35.53,64.94-2.16,7.52-3.98,17.53-4.9,28.47-1.5-2.92-3.06-5.82-4.68-8.7.11-.7.12-1.43-.13-2.24-3.98-12.5-9.06-22.83-9.73-36.32-.71-14.25,2.7-28.42,7.04-41.91Zm-25,227.69c-38.83-36.51-43.14-80.49-33.88-130.63,4.58-24.78,8.55-50.18,8.82-75.48,6.49,12.77,14.36,24.89,22.02,37.03,13.99,22.18,28.4,44.43,35.6,69.87,5.83,20.59,7.19,40.78,9.24,61.6-15.15,10.56-29.64,23.36-41.43,38.02-.13-.14-.22-.28-.37-.42Zm-120.16,84.91c-4.08-47.6,10.67-85.55,18.84-129.93,5.42,11.75,11.63,23.26,18.11,34.61,8.17,14.32,17.46,29.45,25.92,45.14-15.25,34.54-36.5,66.43-42.36,104.61-12.79-14.9-18.86-35.2-20.5-54.44Zm36.6,90.78c-2.99-24.37,2.13-48.9,11.29-71.47,11.99-29.52,27.14-51.01,35.76-79.73.95,3.01,1.88,6.01,2.78,9.01,7.16,23.9,13.53,47.9,18.99,72.25,5.12,22.8,10.49,46.35,8.62,69.87-1.31,16.59-6.89,42.92-24.98,49.16-30.68,10.58-49.49-24.79-52.47-49.09Zm47.86,66.52c.59-.08,1.19-.17,1.79-.27-.97.89-1.93,1.79-2.88,2.72.36-.82.73-1.64,1.09-2.45Zm39.44,79.07c-12.1.84-25.32-.15-36.12-6.15-16.79-9.33-15.66-29.37-7.65-44.38,12.14-22.77,37.24-34.14,61.43-39.08,26.2-5.35,53.58-5.19,80.13-3.1,19.46,1.53,38.77,5.92,58.13,8.48-8.62,4.94-17.07,10.01-25.3,15.14-40.37,25.19-80.85,65.66-130.61,69.1Z"/>
        <path class="barleycls2" d="m696,722.96c-3.36-11.31-9.74-20.92-22.53-21.44-18.02-.73-30.77,20.77-42.06,31.5-17.61,16.71-37.61,31.33-51.02,51.94-13.1,20.13-17.82,43.98-21.01,67.43-3.99,29.3-19.94,106.44,27.91,111.69,19.96,2.19,36.16-12.51,48.62-26.08,16.17-17.61,30.12-37.43,40.79-58.84,13.24-26.56,20.87-55.59,23.27-85.14,1.2-14.87,1.13-29.83.02-44.71-.55-7.41-1.32-17.41-3.98-26.34Zm-6.87,58.23c-.66,26.7-5.52,53.22-15.61,78-9.96,24.47-71.89,132.37-102.54,81.58-12.01-19.91-5.44-52.89-2.99-74.72,2.83-25.18,6.27-51.36,19.38-73.57,12.01-20.35,31.64-34.73,48.53-50.72,8.62-8.16,15.9-18.06,25.77-24.82,5.36-3.67,13.43-5.8,19.05-1.45,7.61,5.91,7.51,18.77,7.53,27.41.04,12.76,1.19,25.49.87,38.28Z"/>
        <path class="barleycls2" d="m718.57,519.39c-6.35,15.06-1.11,37.97.35,53.67,3.33,35.72,5.86,77.66,23.84,109.5,17.05,30.18,52.89,51.9,81.09,70.65,13.91,9.25,27.62,20.7,44.06,25.11,13.52,3.63,28.42-2.26,34.33-15.28,7.45-16.41,1.18-36.4-.9-53.3-3.72-30.29-6.79-62.85-18.74-91.19-11.1-26.33-29.45-46.42-52.15-63.28-14.41-10.71-29.08-21.09-43.76-31.43-6.6-4.65-13.1-9.5-20.07-13.6-6-3.53-14.74-8.82-21.96-8.6-5.04.15-11.27,3.41-15.53,6.03-4.6,2.82-8.44,6.7-10.56,11.72Zm27.51-7.74c.25-.09.46-.22.69-.33,21.2,12.59,40.65,30.62,60.39,45.2,23.42,17.29,44.93,33.73,58.24,60.45,11.95,23.99,15.04,51.66,19.16,77.83,2.13,13.47,4.02,26.99,5.96,40.49.97,6.74,1.92,13.01.12,19.74-.37,1.39-.84,2.77-1.63,3.96-4.99,7.46-17.34,6.7-24.57,4.12-5.52-1.98-12.14-7.37-17.02-10.57-10.24-6.71-20.38-13.61-30.4-20.65-22.41-15.73-49.39-31.47-63.46-55.65-12.49-21.47-15.22-49.04-18.58-73.18-2.2-15.84-3.94-31.75-5.56-47.65-1.89-18.6-3.55-36.21,16.64-43.76Z"/>
        <path class="barleycls2" d="m940.64,812.73c-49.95-2.1-100.77,12.76-143.42,38.25-21.72,12.98-40.89,29.06-57.69,47.99-12.26,13.8-29.33,34.29-23.58,54.44,5.5,19.3,28.04,22.27,44.96,23.6,25.81,2.04,51.89-1.58,76.48-9.56,48.5-15.75,101.31-46.05,122.91-94.67,5.15-11.6,8.21-24.25,8.58-36.95.51-17.25-13.03-22.45-28.24-23.09Zm-33.98,100.18c-18.45,15.24-39.57,27.24-61.85,35.89-21.91,8.51-45.27,13.57-68.8,14.14-12.93.31-44.22,2.51-46.64-16.83-1.59-12.78,12.16-28.98,19.78-37.53,30.37-34.08,71.31-59.76,114.8-73.26,21.85-6.78,44.95-11.17,67.86-11.41,4.73-.05,11.74-.91,16.26.93,33.62,13.67-29.84,78.51-41.41,88.07Z"/>
        <path class="barleycls2" d="m663.98,734.67c-19.86,29.34-29.34,65.79-40.26,99.12-5.9,17.99-11.95,35.95-19.39,53.38-7.81,18.28-19.78,34.36-27.66,52.34-1.72,3.91,2.68,7.92,6.13,4.73,24.65-22.82,36.34-65.27,46.59-96.28,12.4-37.53,25.51-74.27,39.53-111.2,1.14-3.01-3.32-4.47-4.94-2.08Z"/>
        <path class="barleycls2" d="m946.43,828.15c-72.6,30.25-142.13,70.39-208.06,113.08-3.61,2.34-.41,7.91,3.39,5.8,68.91-38.42,135.53-79.3,207.9-111.21,4.3-1.89,1.16-9.5-3.23-7.67Z"/>
        <path class="barleycls2" d="m740.38,560.94c1.62,5.44,3.49,10.83,5.65,16.08,2.01,4.87,4.46,10.11,8.19,13.92.73.75,2.03-.02,1.75-1.02-1.44-5.17-3.83-10.16-5.65-15.22-1.92-5.35-3.38-10.83-4.96-16.29-3.12-10.84-6.2-21.61-10.49-32.05-.91-2.22-4.52-1.38-3.71,1.02,3.7,10.99,5.9,22.44,9.21,33.55Z"/>
        <path class="barleycls2" d="m762.7,557.59c2.25,4.48,4.73,8.81,7.19,13.18,2.46,4.36,4.95,8.69,7.52,12.99,2.5,4.19,4.97,8.47,8.36,12.03,1.65,1.73,4.54-.06,3.94-2.3-1.27-4.75-3.7-9.1-6.02-13.41-2.38-4.41-4.83-8.76-7.37-13.07-2.54-4.32-5.06-8.63-7.86-12.79-2.79-4.16-5.77-8.22-8.18-12.6-1.66-3.01-6.44-.22-4.6,2.69,2.67,4.23,4.77,8.81,7.02,13.28Z"/>
        <path class="barleycls2" d="m837.09,711.17c2.67,4.17,5.55,8.27,8.48,12.26,2.94,4,5.89,8.01,8.95,11.92,3.17,4.05,6.47,8.54,10.4,11.87,1.52,1.28,4.76.1,3.8-2.21-1.96-4.71-5.04-9.06-7.87-13.29-2.85-4.26-5.9-8.44-8.95-12.56-3.04-4.11-6.14-8.23-9.41-12.16-3.43-4.12-7.16-8.12-10.17-12.55-2.11-3.1-6.49.17-4.12,3.18,3.32,4.22,5.99,9.03,8.88,13.55Z"/>
        <path class="barleycls2" d="m865.26,709.02c1.48,4.06,3.04,8.08,4.8,12.03,1.72,3.87,3.52,8.25,6.71,11.15,1.73,1.57,5.08.59,4.92-2.04-.27-4.37-2.36-8.55-4.08-12.51-1.63-3.77-3.32-7.51-4.95-11.27-3.38-7.79-6.44-15.72-9.25-23.73-1.34-3.83-7.29-2.3-6.15,1.7,2.38,8.32,5.03,16.55,8,24.68Z"/>
      </g>
      <rect class="barleycls1" width="1025" height="1025"/>
    </g>
  </g>
</svg>