<svg xmlns="http://www.w3.org/2000/svg" viewBox="0 0 512 512"><defs><style>.basilcls-1{fill:none;}.basilcls-2{fill:#83a04e;}.basilcls-3{fill:#4a2d2d;}.basilcls-4{fill:#fff;}</style></defs><g id="Capa_2" data-name="Capa 2"><g id="bocetos"><rect class="basilcls-1" width="512" height="512"/><path class="basilcls-2" d="M468.49,65.55c-1.46-3.71-5.67-4.16-8-1-7.09,9.33-20.91,14.73-31.66,18.84-10.08,3.86-20.56,6.5-31,9-20.44,4.8-40.55,9.48-59.78,18.21-18.2,8.27-32.64,21-42.41,38.43-7.81-23.26-21.77-44.62-41-59.52-27.07-20.92-60.46-30-93.42-36.64a4.7,4.7,0,0,0-5.85,4.45,565.4,565.4,0,0,0,.87,69.37c1.42,20.85,4.07,42,13.1,61.1a75.72,75.72,0,0,0,20.15,26,131.52,131.52,0,0,0-17,2.21c-20.13,4-38.2,13.29-54.64,25.34-15.68,11.49-28.22,25.73-39.8,41.23-14.78,19.78-28.86,40-42,60.92-2,3.16.68,6.52,3.92,6.84,25.37,2.46,50.74,5.67,75.79,10.43,22.32,4.24,45.87,10.32,68.17,2.59,24.48-8.49,45.74-30.71,56.82-56-.55,6.42-.77,12.79-.75,18.9.06,19.9,3.69,39.8,13.64,57.22,9.64,16.88,23.14,30.25,38.71,41.64,17.33,12.67,34.06,24.56,54.05,32.73,2.19.89,4.29-1,5-2.85,7.79-19.83,19.53-38.26,25.48-58.81,6.49-22.44,6-46.45,2.26-69.33-3.47-21.49-11.4-42.87-25.68-59.56-1.87-2.18-3.95-4.4-6.19-6.56,11,1.58,22.15,1.67,33.07-.77,24-5.36,42.81-23.09,56.91-42.37a198.36,198.36,0,0,0,32.77-70.81C476.06,120.93,478.35,90.62,468.49,65.55Z"/><path class="basilcls-3" d="M353.91,178.17a4,4,0,0,0-4.9-2.78c-25.48,7.86-50.21,19.12-66.91,39.54-.81-12.29-6.2-25-12.85-34.07-10.49-14.31-24.73-24.88-42-29.31-2.74-.7-4.78,1.29-5.07,3.87-2,18,4.76,33.5,14.91,48.06,6.18,8.87,13,17.49,21.67,23.6a60.62,60.62,0,0,0-26.48,4.74c-16,7.16-25.9,21.35-35.08,35.64-2.22,3.46.77,7.36,4.38,7.63,21.89,1.66,53,2.73,70.52-11.57-.26,8.49.79,16.89,4.85,25.3,7,14.47,20.94,21.71,35.13,27.61,2.3,1,4.91-1.05,5.55-3.15,4.76-15.49,4.26-33.34-2.43-48.23-3.18-7.06-9.73-17.17-17.64-23.32,14-.1,29-4.91,38.2-13.12C349.34,216.54,357.4,196.05,353.91,178.17ZM242.09,199.35c-7.18-11-15.51-29.73-15.67-43,13.26,4.75,31.15,17.26,37.38,30.16,3.28,6.79,6.08,11.28,7.65,18.65,1.09,5.12,2.26,16.06.49,21.45C260.87,220.07,249.12,210.13,242.09,199.35ZM205.81,267.6c7.19-10.68,15.65-22.39,27.87-27.51,13.63-5.72,28.12-5.54,42.06-2.8C265.36,265.58,232.69,270.44,205.81,267.6ZM305.42,265c8,12.89,9,29.16,5.94,43.38-12.61-5.73-25.13-14.42-29.36-28.7-3.17-10.75-1.07-27.36.66-38.92C284.8,242.5,301.39,258.49,305.42,265Zm19.8-39.91c-5.88,3.69-29,8.08-42.72,6.6,16.33-29.69,41.75-42.44,66.3-50.47C346.85,194.62,342.53,214.2,325.22,225.08Z"/><path class="basilcls-3" d="M204.63,266.23a55.85,55.85,0,0,1-6.57,1.5c-2.33.55-4.64,1.17-6.95,1.77q-6.77,1.74-13.49,3.56c-9,2.44-17.85,5.23-26.64,8.29a276.86,276.86,0,0,0-50,22.92q-6.45,3.81-12.63,8.1c-3.94,2.75-8.53,5.7-11.23,9.75-.44.67.31,1.74,1.1,1.43,3.9-1.55,7.34-4.41,10.77-6.79,3.76-2.62,7.63-5.1,11.56-7.44A230.92,230.92,0,0,1,124.73,297c16.65-7.44,33.91-13.18,51.21-18.89q7.23-2.39,14.51-4.64l7.26-2.25c2.51-.77,5-2,7.61-2.48,1.65-.31.89-3.08-.69-2.5Z"/><path class="basilcls-3" d="M229.69,155.56a14.32,14.32,0,0,1,3.56,1.13l1.83.88.61.28c-.76-2.83-2.87-5.66-4.22-7.95q-2.92-4.93-6-9.76-6.28-9.87-13.22-19.29a356.82,356.82,0,0,0-30.29-35.57c-1.1-1.15-2.81.58-1.74,1.74a366.2,366.2,0,0,1,29.27,36.45q6.65,9.36,12.68,19.11,3,4.88,5.87,9.85C228.57,153.38,229.11,154.47,229.69,155.56Z"/><path class="basilcls-3" d="M441.2,111.8c-4,6-8.11,11.84-13.32,17a149.17,149.17,0,0,1-16.73,13.78A473,473,0,0,1,370,168.94q-6,3.51-12.14,6.95c-1.9,1.08-3.79,2.15-5.69,3.21l-.36.22a2.33,2.33,0,0,1,0,.79c-.29,1.46-.49,2.95-.83,4.4a12.16,12.16,0,0,0,2.2-1l5.68-3.22c3.78-2.16,7.56-4.32,11.32-6.52,7.25-4.22,14.45-8.54,21.53-13,13.29-8.44,26.84-17.34,38.17-28.34,5.7-5.54,11.28-11.94,14-19.54C444.34,111.3,442.05,110.52,441.2,111.8Z"/><path class="basilcls-3" d="M298,306.32c.66,2.33.6,4.88,1,7.27s.86,4.8,1.36,7.18c.94,4.47,2.05,8.9,3.19,13.32q3.57,13.91,8.13,27.55c2.95,8.86,6.15,17.67,9.81,26.26,1.84,4.33,3.69,8.68,5.78,12.89,2,4,3.88,9,7,12.25,1.29,1.36,3.18-.1,2.91-1.69-.4-2.24-1.6-4.37-2.51-6.44-1-2.31-2-4.63-3-7-1.8-4.19-3.69-8.33-5.44-12.54-3.5-8.44-6.91-16.9-10-25.52s-5.79-17.31-8.24-26.1c-1.23-4.39-2.36-8.81-3.46-13.24-.58-2.36-1.21-4.7-1.79-7.06s-1.77-5-2.05-7.55c-.23-2-3.28-1.55-2.74.37Z"/><path class="basilcls-3" d="M354.54,185.31a56.87,56.87,0,0,0,12,8.9,79.62,79.62,0,0,0,14.09,5.62,149.32,149.32,0,0,0,14.93,3.56c2.54.48,5.1,1,7.67,1.31s5,.82,7.42.32a1,1,0,0,0,.24-1.86c-3.85-2.19-9.25-2.37-13.55-3.21-4.89-1-9.75-2.07-14.53-3.49A92.51,92.51,0,0,1,353.75,182c-1.14-.91-.33,2.25.79,3.28Z"/><path class="basilcls-3" d="M395.54,160.21A62.39,62.39,0,0,0,413,165.42a81.5,81.5,0,0,0,9.22.78c3,.06,6.15.19,9-.63a1,1,0,0,0,0-1.88c-2.65-.88-5.62-.92-8.39-1.11s-5.84-.37-8.75-.65c-5.86-.57-11.93-1.4-17.38-3.72-1.35-.57-2.54,1.38-1.17,2Z"/><path class="basilcls-3" d="M371.09,171a85.88,85.88,0,0,1,1.83-13.06c.76-3.9,1.56-7.78,2.66-11.59,2.26-7.86,6.18-15.17,8.33-23a.91.91,0,0,0-1.51-.88c-5.81,6-8.7,14.86-10.79,22.81a81.47,81.47,0,0,0-2.35,12.19A118,118,0,0,0,369,171a1,1,0,0,0,2.09,0Z"/><path class="basilcls-3" d="M240.19,158.06c2.67-7.08,5.09-14.19,7.1-21.51Q248.75,131.3,250,126c.87-3.6,1.92-7.55,1.51-11.27a1.06,1.06,0,0,0-2-.52c-1.86,3.22-2.58,7.12-3.45,10.72s-1.76,7.05-2.72,10.55c-2,7.3-3.9,14.58-5.43,22a1.14,1.14,0,0,0,2.19.6Z"/><path class="basilcls-3" d="M219.27,135c-7.22-1.12-14.47-1.84-21.76-2.43-3.62-.3-7.23-.57-10.85-.95s-7.1-.8-10.65-.18a1,1,0,0,0-.23,1.78,30.48,30.48,0,0,0,9.87,2.73q5.5.84,11,1.51a106.31,106.31,0,0,0,22.2.41c1.51-.13,2.14-2.6.39-2.87Z"/><path class="basilcls-3" d="M211.7,120.16c.46-2.32,1.25-4.56,1.72-6.89.45-2.17.75-4.34,1-6.54.48-4.35,1.25-9.33-.18-13.56a1.12,1.12,0,0,0-2.14,0c-1.48,4-1.2,8.79-1.52,13-.16,2.2-.35,4.39-.49,6.6s-.09,4.57-.44,6.78c-.22,1.33,1.79,1.93,2,.56Z"/><path class="basilcls-3" d="M185,275.24c-.19,2.62-1.15,5.26-1.64,7.84-.44,2.32-.93,4.62-1.41,6.92-1,4.92-2.38,9.73-3.76,14.55-2.7,9.42-6.36,18.6-9.87,27.73-.25.62.67.91,1,.43,5.92-8.41,10-17.67,13.1-27.45a123.81,123.81,0,0,0,3.57-14.6c.47-2.48.84-5,1.09-7.52s0-5.28.32-7.9c.19-1.51-2.29-1.56-2.41,0Z"/><path class="basilcls-3" d="M168.93,277.47c-7.82-3.58-14.84-8.68-22.81-12-7.42-3.1-17-5.92-25.07-4a1,1,0,0,0,0,1.92c4,1.36,8.31,1.87,12.41,2.9a92.56,92.56,0,0,1,11.82,3.83c7.68,3.1,14.54,7.72,22.65,9.74,1.37.35,2.39-1.73,1-2.37Z"/><path class="basilcls-3" d="M139.82,289.74a76.23,76.23,0,0,1-3.31,17c-1.63,5.44-4.09,10.64-5.61,16.09a.94.94,0,0,0,1.55.91c3.91-4.4,6.1-10.41,7.52-16a72.49,72.49,0,0,0,1.89-18,1,1,0,0,0-2,0Z"/><path class="basilcls-3" d="M299.78,313.79a151,151,0,0,0-12.92,26.46c-3.46,8.84-7,18.61-7.64,28.16a.66.66,0,0,0,1.21.33c1.93-4.18,3.27-8.64,4.78-13,1.59-4.58,3.21-9.14,4.92-13.67,3.46-9.22,7.62-18.16,11.53-27.19a1.09,1.09,0,0,0-1.88-1.11Z"/><path class="basilcls-3" d="M304.63,334.92c8.68,4.2,17.36,8.41,26,12.74,4.27,2.15,8.45,4.44,12.66,6.7,2.1,1.13,4.15,2.34,6.24,3.5,1.89,1.06,3.73,2.32,5.92,2.53,1.1.11,1.61-1.22,1.18-2.06-.95-1.83-2.85-3-4.49-4.12-1.95-1.36-4-2.59-6-3.81-4.21-2.53-8.62-4.74-13-6.92-8.68-4.29-17.63-8-26.51-11.85-2.2-.95-4.16,2.2-1.92,3.29Z"/><path class="basilcls-3" d="M314.49,371.77c-2.34,6.06-4.4,12.2-6.44,18.37-1,3-1.91,5.93-2.66,9a57.86,57.86,0,0,0-2,9.35c-.06.8,1.05,1,1.43.39,1.67-2.64,2.76-5.92,3.92-8.82s2.12-5.87,3-8.86c1.85-6.22,3.57-12.44,4.92-18.78a1.14,1.14,0,0,0-2.19-.61Z"/><path class="basilcls-3" d="M208.21,254a65.34,65.34,0,0,0-6.92-4.88,52.25,52.25,0,0,0-7.83-3.5,57.08,57.08,0,0,0-16.54-3c-.59,0-.75,1-.15,1.05a70.83,70.83,0,0,1,15.66,4.64,79.38,79.38,0,0,1,7.28,3.46A61.6,61.6,0,0,1,207,256c1.21.88,2.37-1.13,1.17-2Z"/><path class="basilcls-3" d="M251,267.19c-8.91,13.24-10.83,29.73-12.56,45.21-3.23,29,5.39,49.25,5.13,46.38-2.91-31.07-1.74-59.81,12.35-88.72a2.85,2.85,0,0,0-4.92-2.87Z"/><path class="basilcls-3" d="M302.5,240.14c16.81,2.53,47.49,25,45.75,21-5.94-13.64-27.76-25.37-45.17-25.29-2.36,0-3.08,3.91-.58,4.28Z"/><path class="basilcls-3" d="M286.43,217.2c1.49-12.68,1.51-25.36,3.76-38A285.14,285.14,0,0,1,297,149.87c.84-3.09-.62-5.12-2.2-2.2C283.66,168.37,279.18,194,281,217.2a2.73,2.73,0,0,0,5.46,0Z"/><path class="basilcls-3" d="M189.26,213.65c12.12-1.55,23.27.37,35.27,2.85,11.33,2.34,21.05,8.13,31.92,11.57,3,1,5.83-3.44,3.22-5.53-17.19-13.73-49-14.78-71.51-10.87C185.1,212.2,189.26,213.65,189.26,213.65Z"/><path class="basilcls-4" d="M240.53,179.86l1.18.78a6.49,6.49,0,0,0,.55.36,3.7,3.7,0,0,0,2.71.31,3.1,3.1,0,0,0,1.83-1.4l.3-.73a3,3,0,0,0,0-1.63,3.1,3.1,0,0,0-1.22-1.91c-.29-.23-.58-.44-.87-.65l-1.15-.82a3.32,3.32,0,0,0-2.54-.33,3.29,3.29,0,0,0-.79,6Z"/><path class="basilcls-4" d="M231.82,259.4c.12-.21.25-.42.38-.62.25-.37.29-.44,0,0,.41-.57.88-1.11,1.29-1.69-.18.26-.29.35,0,.06s.32-.36.49-.53c.37-.36.76-.69,1.11-1.07,1.63-1.76.56-4.95-2-4.89a10.31,10.31,0,0,0-7.49,3.95c-1.48,1.85-1.65,4.37.4,5.95a4,4,0,0,0,5.87-1.12Z"/><path class="basilcls-4" d="M288,264.94c-.23-.42.06.34.09.5.09.38.21.76.31,1.14.21.79.3,1.59.54,2.36,1,3.11,4.39,6,7.69,3.91,3.05-2,3.14-5.68,1.72-8.66a17.43,17.43,0,0,0-3.55-4.5c-3.47-3.61-9.11,1-6.8,5.25Z"/><path class="basilcls-4" d="M304.09,222l.55-.9a3.71,3.71,0,0,0-1.33-5.07,3.63,3.63,0,0,0-1.87-.51l-1.13-.1a4.32,4.32,0,0,0-2.21.6,4.37,4.37,0,1,0,6,6Z"/><path class="basilcls-4" d="M323.2,208.38l.57-.67a6.87,6.87,0,0,0,1.4-2.43,4.12,4.12,0,0,0-5.06-5.06,6.8,6.8,0,0,0-2.43,1.4l-.67.58a3.24,3.24,0,0,0-.91,1.4,4,4,0,0,0,0,3.38,3.24,3.24,0,0,0,.91,1.4,4.39,4.39,0,0,0,3.09,1.29,4.32,4.32,0,0,0,3.1-1.29Z"/><path class="basilcls-4" d="M162.3,230.79c-6.1-.18-14.56,2.07-18.53,7-2.63,3.23-.93,7.75,3.34,8.06,6.29.46,13.74-4.06,17.82-8.66a3.77,3.77,0,0,0-2.63-6.35Z"/><path class="basilcls-4" d="M109.43,268.47a4.32,4.32,0,0,0-4.34,0,3.44,3.44,0,0,0-.36.28l-.18.06a6.38,6.38,0,0,0-.87.3L104,269c-.37.14-.7.28-1,.43l-.25.11.24-.1a5.25,5.25,0,0,0-2.13,1.64c-.29.38-.51.74-.77,1.13-1.7,2.5-.07,6.63,2.93,7.22a8.18,8.18,0,0,0,3.48.08,6.44,6.44,0,0,0,3.69-2.93,8.75,8.75,0,0,0,1.15-3.17A4.24,4.24,0,0,0,109.43,268.47Z"/><path class="basilcls-4" d="M227.46,99.05a8.3,8.3,0,0,0,.83,6,7.77,7.77,0,0,0,2.5,2.57,6,6,0,0,0,4.78.59,5.27,5.27,0,0,0,3-2.29,4.82,4.82,0,0,0,.5-3.83,8.61,8.61,0,0,0-.89-1.83c-.43-.64-1-1.11-1.46-1.7l.84,1.09c-.37-.51-.76-1-1.15-1.49l.83,1.07a4.3,4.3,0,0,1-.34-.59l.52,1.23a3.22,3.22,0,0,1-.23-.82l-.5-1.2a3.76,3.76,0,0,0-1.3-1.41,4.78,4.78,0,0,0-3.05-1.08,6,6,0,0,0-2.54.69,5,5,0,0,0-2.31,3Z"/><path class="basilcls-4" d="M322.49,155.52a7.56,7.56,0,0,0,4.16-3.67c-.11.4-.6.72,0,.13.19-.2.4-.38.59-.58a7.74,7.74,0,0,0,1.92-3.38,5,5,0,0,0-.87-4.26,4.62,4.62,0,0,0-3.84-1.93,7,7,0,0,0-5.48,3.2,14.34,14.34,0,0,0-1.4,3.15,7,7,0,0,0-.09,4.19c.6,2.1,2.81,3.82,5.05,3.15Z"/><path class="basilcls-4" d="M399.65,125.88a11.68,11.68,0,0,0,1.16-1.51,4.85,4.85,0,0,0-4.19-7.3,4.15,4.15,0,0,0-.61,0,5.15,5.15,0,0,0-2.6.7,5.21,5.21,0,0,0-1.85,1.85,5.15,5.15,0,0,0-.7,2.6,5.69,5.69,0,0,0,1.51,3.64,5.15,5.15,0,0,0,7.28,0Z"/><path class="basilcls-4" d="M258.26,336.48l.09.58a3.53,3.53,0,0,0,.33,1,4.08,4.08,0,0,0,1.07,1.56l.33.28a3.81,3.81,0,0,0,2.63,1.09,4.08,4.08,0,0,0,2.63-1.09l.32-.28a4.1,4.1,0,0,0,1.08-1.56,3.87,3.87,0,0,0,.32-1l.09-.58a4.63,4.63,0,0,0,0-2.45,4.58,4.58,0,0,0-1.18-2,4.8,4.8,0,0,0-3.26-1.35,4.73,4.73,0,0,0-3.26,1.35,4.58,4.58,0,0,0-1.19,4.48Z"/><path class="basilcls-4" d="M343.76,385.48l.67,1a6.29,6.29,0,0,0,2,1.95l.36.26a4.27,4.27,0,0,0,4,.22,4.52,4.52,0,0,0,2.6-2.91,9.25,9.25,0,0,0,.37-3.18,5.36,5.36,0,0,0-2.65-4.61,5.34,5.34,0,0,0-7.31,1.92,5.34,5.34,0,0,0,0,5.39Z"/></g></g></svg>