<svg xmlns="http://www.w3.org/2000/svg" viewBox="0 0 512 512"><defs><style>.beansbeanscls-1{fill:#4a2d2d;}.beansbeanscls-2{fill:none;}</style></defs><g id="Capa_2" data-name="Capa 2"><g id="bocetos"><path class="beansbeanscls-1" d="M105.64,252c26.22,4.59,48.44-11.33,67.21-27.58,12-10.38,23.88-21.43,38.9-27.2,13.26-5.1,27.5-6.87,41-11.25,24.47-7.95,47.34-22.09,57.71-46.63,10.9-25.77,4.9-55.73-12.28-77.27-14.68-18.4-36.93-28.89-59.82-32.62-26.69-4.36-48.17,1.07-71.64,13.93A405.33,405.33,0,0,0,128.48,67.1c-23,16.18-47.66,34.12-60.73,59.75-11.87,23.26-17.25,52.3-10.3,77.83C63.66,227.49,81.61,247.79,105.64,252ZM72.51,141.64c9.62-24.57,29.08-41.34,49.63-56.85q16.68-12.58,34.54-23.52C169,53.71,181.9,46,196,42.14c55.65-15.37,122.2,28.66,106.36,85.8-14.86,53.58-79.7,43.19-116.54,70.27-18.57,13.65-34.39,33.49-57.09,40.52-22.13,6.85-43.9-5.62-55-24.86C61.12,192,63.62,164.36,72.51,141.64Z"/><path class="beansbeanscls-1" d="M287.63,405.61a79.32,79.32,0,0,0,2.17-10.23c3.66-26.14-11.3-49.09-29.31-66.65-20.33-19.81-48.86-29.58-76.44-34.07-27.37-4.46-56-2.46-81.06,10.22-22.9,11.59-45.73,33.24-56.23,56.88s-6.26,49.57,9.58,69.72c16.31,20.73,37.61,27.57,63.22,25,15.38-1.5,30.17-3.34,45.5,0,14.63,3.22,27.81,10.15,41.34,16.32,24.45,11.14,53.07,18.48,75.74-.71,19.37-16.41,23.44-46.12,6.53-65.67A5.19,5.19,0,0,0,287.63,405.61Zm-20.16,62.28c-21.8,10.21-44.46-.91-64.38-10.18s-40.44-15.94-62.82-15c-20.77.91-42,7.27-60.8-4.93C60.09,425.26,47.86,401,52.82,378s23.23-40.72,41.57-54c39.42-28.59,96.3-22.79,137.69-1,20.79,10.95,44,33.65,49,57.38,6.1,29.4-13.89,54.13-36.38,70.12-3.27,2.33-.31,7.69,3.2,5.48,15.9-10,28.86-23.69,36.18-40.4C296.56,434.49,287.75,458.38,267.47,467.89Z"/><path class="beansbeanscls-1" d="M469.85,209.46c-3.24-25.26-14.47-50.75-35-66.64a59,59,0,0,0-20-10,4.74,4.74,0,0,0-1-1.15c-17.25-14.36-40.56-21.51-62-12.28-20.94,9-29.16,30.31-31.45,51.53-1.42,13.19-.54,26.53-2.38,39.69-2.06,14.74-9.08,24.65-16.57,37-12.1,20-12.51,45.16-3.3,66.32,10.48,24.09,31.87,34,56.66,38.72,24.15,4.6,48.46.84,68-14.67C459.35,308.93,475.65,254.6,469.85,209.46ZM429.71,315.63c-13.12,16.72-31.6,27.61-53.13,28.26-20.22.62-49.86-5.1-63-21.95-13.49-17.33-16.26-43.15-7-63,4.09-8.77,11-15.84,15.19-24.55S328,216.23,329,206.67c2.43-21.76-.69-46.34,10.84-66.09,11.85-20.3,35.51-19.2,54.26-10.38a92.3,92.3,0,0,0-39,9.91c-2.9,1.45-.69,5.24,2,4.83,24-3.59,47.67-11.76,69.35,4.3,16.1,11.92,25.64,31.38,29.95,50.52C465.09,238.12,454,284.73,429.71,315.63Z"/><rect class="beansbeanscls-2" width="512" height="512"/></g></g></svg>