<svg xmlns="http://www.w3.org/2000/svg" viewBox="0 0 512 512"><defs><style>.beetbeetcls-1{fill:none;}.beetbeetcls-2{fill:#ae4166;}.beetbeetcls-3{fill:#72ab4c;}.beetbeetcls-4{fill:#4a2d2d;}</style></defs><g id="Capa_2" data-name="Capa 2"><g id="bocetos"><rect class="beetbeetcls-1" width="512" height="512"/><path class="beetbeetcls-2" d="M239,169.33s.87,25.44-1.72,28.46-94.43,30.62-103,88.83,47.43,70.71,74.59,84.08,32.34,21.56,33.63,34.92-6.9,24.58-3.88,44,3.88,30.62,11.21,30.62,3-26.74,3-34.5,8.19-16.81,8.62-25-5.6-17.67,3.45-25.44c6.49-5.55,75.46-34.92,100.9-80.2s-5.17-75.45-35.79-94.42c-36.69-22.75-65.11-21.13-65.11-25.88s1.73-20.26,1.73-20.26S241.57,163.73,239,169.33Z"/><path class="beetbeetcls-3" d="M254.4,183.46c-5.82-1.62-10.67-54-3.24-67.59s17.47-11,21.35-22-4.85-48.83,13.26-58.21S310.34,47,322.63,47s23.78-12.41,34-3.88c13.9,11.64-2.91,32.66-8.41,45-4.73,10.58,7.12,26.19.32,38.48s-33.31,3.56-33.31,10.67,12,15.52,7.12,27.81C318.16,175.53,262.5,185.71,254.4,183.46Z"/><path class="beetbeetcls-3" d="M253.75,176.34c-.32-1.29-8.08-22.64-13.58-33.63s-5.5-36.22-5.82-48.83-11-18.76-18.44-21.35-9.7-29.42-22-39.13-32.66-7.11-42.36,7.44-3.78,29.93,9.38,38.48c6.47,4.21-24.9,13.26-17.14,33.31s39.78,20.7,37.51,23.93-19.4,23.29.65,35.9,51.9,3.8,57.24,6.14c8.08,3.56,10.67,10.68,13.9,8.41S253.75,176.34,253.75,176.34Z"/><path class="beetbeetcls-4" d="M331.05,108.09c-13.16,5.74-27.49,6-40.76,11.12.6-1.36,1.22-2.7,1.95-4,5.05-8.93,12.4-15.86,18.47-24,2.3-3.07-2.5-6.3-5.09-3.93a94,94,0,0,0-10.54,11.46c-2.48-8.22-4.39-15-.11-23.68,2.43-4.91,2.55-9.15.91-14.43-.4-1.29-2.62-1.14-2.47.33a25.65,25.65,0,0,1-2.11,14.28A28,28,0,0,0,288.74,83c-.89,6.8.82,13.43,3.39,19.67-1.8,2.54-3.49,5.12-5,7.7-5.13,8.79-6.71,19.37-12.87,27.41-1.41-3.42-1.93-6.93-2.82-10.69a1.55,1.55,0,0,0-3,0c-1.15,4.74.43,9.86,2.77,14.1-6.14,6.28-12,11.16-15.65,19.57a73.63,73.63,0,0,0-5.65,20.9c-4.73-6.31-10.12-12.14-14.41-18.79-6.38-9.88-7.51-20.44-11.42-31.16-2.61-7.19-6.92-13.68-11.3-20,.91-6,1.51-12.14,2-18.18.43-5.44.25-10.67-2.61-15.45-.89-1.49-3.46-.53-2.88,1.22,3.1,9.27,1.37,18.39.24,27.72l-.09-.13c-5.85-8.47-11.74-18.21-19.54-25a2.49,2.49,0,0,0-3.89,3c4.22,9.16,10.38,17.22,16.47,25.31a30.79,30.79,0,0,0-4.77-.57c-5.31-.24-10.6.68-15.87-.47-4.26-.93-8-3.09-12-4.62-1.53-.57-2.59,1.59-1.54,2.64,4,4,9.72,5.94,15.25,6.74,8.15,1.19,17.21-1.56,24.21,3.4,5.58,7.78,10.58,15.87,13.3,25.26a108,108,0,0,0,4.19,11.77c-8.6-4.34-20.19-3.43-29.37-3.37-2.63,0-2.55,3.81,0,4,5.52.46,11.37.14,17,.56,4.78.37,10.38.83,14.18,4.26,4.73,4.26,7,11.43,10.82,16.48A84.68,84.68,0,0,0,250,189.26a2.11,2.11,0,0,0,.92.46,2.52,2.52,0,0,0,3.39-1.5c3-9.44,3.73-19.52,8.79-28.28a28.56,28.56,0,0,1,1.77-2.66,1.74,1.74,0,0,0,.6-.19C277.74,150.32,289,154,302,152.43a1.43,1.43,0,0,0,.38-2.8c-9.37-3-21.17-2.55-31.11.71,3.64-3.42,7.43-6.69,10.29-10.89,3.45-5.1,5.18-11,7.36-16.79a1.39,1.39,0,0,0,1.18.07c13.8-4.71,30.31-3.33,42.65-11.79A1.65,1.65,0,0,0,331.05,108.09Z"/><path class="beetbeetcls-4" d="M175.92,261.67c15.31,6.17,32.51,9.38,48.87,11.22,14.52,1.62,32.47,2.68,46-4,2.12-1.05,1.07-4.43-1.19-4.38-15.14.3-29.45,3.2-44.76,1.82-16.25-1.46-31.74-6.19-47.8-8.53a2,2,0,0,0-1.07,3.88Z"/><path class="beetbeetcls-4" d="M279.4,267.35a12.63,12.63,0,0,0,4.87-1.49,2.19,2.19,0,0,0-.51-3.95,12.73,12.73,0,0,0-5.11-.08,2.81,2.81,0,1,0,.75,5.52Z"/><path class="beetbeetcls-4" d="M318.64,264.06,321,263a11.34,11.34,0,0,0,2.29-1.54,1.89,1.89,0,0,0,.29-2.27,2,2,0,0,0-2.12-.87,9.57,9.57,0,0,0-2.37.59l-2.28.93a2.31,2.31,0,1,0,1.79,4.23Z"/><path class="beetbeetcls-4" d="M239.2,296c8.59.9,18,1.43,26.36-1.19a1.87,1.87,0,0,0-.5-3.65c-8.69-.05-17.14,1-25.86.21-3-.28-2.93,4.32,0,4.63Z"/><path class="beetbeetcls-4" d="M293.53,292.68c14.69-.43,33.45-2.58,45.44-11.83,1.58-1.22.75-3.87-1.42-3.36-6.94,1.62-13.44,5-20.35,6.95a122.35,122.35,0,0,1-23.67,4c-2.7.21-2.77,4.34,0,4.26Z"/><path class="beetbeetcls-4" d="M201,321.79c3.44.22,7.45,1.1,10.67-.42,1.38-.65,1.11-2.59,0-3.31-2.91-1.89-7.33-1.5-10.67-1.74-3.5-.24-3.5,5.24,0,5.47Z"/><path class="beetbeetcls-4" d="M305.82,347.31c3.2,0,3.2-5,0-5s-3.21,5,0,5Z"/><path class="beetbeetcls-4" d="M166.1,294.68c5.32.44,10.69,1.16,16,.43,2-.27,1.59-3.12,0-3.62-5.12-1.63-10.71-1.74-16-2.2-3.45-.3-3.45,5.11,0,5.39Z"/><path class="beetbeetcls-4" d="M235.24,331.25a180.48,180.48,0,0,0,50.16-.62c16.06-2.45,33.62-5.88,47.94-13.79a1.51,1.51,0,0,0-1.16-2.75c-16.61,4-32.07,9.75-49.21,11.74a257.14,257.14,0,0,1-47.73.75c-3.06-.21-2.91,4.3,0,4.67Z"/></g></g></svg>