<svg xmlns="http://www.w3.org/2000/svg" viewBox="0 0 512 512"><defs><style>.blackbeansblack-beanscls-1{fill:#4a2d2d;}.blackbeansblack-beanscls-2{fill:none;}</style></defs><g id="Capa_2" data-name="Capa 2"><g id="bocetos"><path class="blackbeansblack-beanscls-1" d="M176.84,198.35c-3-16.95-21.24-62.16-45.38-53.59-20.65,7.33-5.06,41.68,1.08,54.14,6.33,12.86,22.6,38.8,40,24.87,7.61-6.09,5.78-17,4.29-25.33A.29.29,0,0,0,176.84,198.35ZM169,208.57c-.7,11.25-10.67,10.13-16.74,3.61-4.13-4.45-7.2-10.11-10.16-15.38a150.51,150.51,0,0,1-8.85-18c-1.91-4.84-4-9.88-4.67-15.09-.9-7.52,6-11.06,12.66-9.05,9.78,3,15.56,12.88,19.44,21.65C164.94,185.89,169.68,197.94,169,208.57Z"/><path class="blackbeansblack-beanscls-1" d="M208.15,279.07c13.41-17.09,17.29-39.44,11.5-60.26-6.74-24.23-22.24-43.16-36.14-63.45C168.39,133.31,165,105.5,146.29,85.48c-10.6-11.32-26.28-19.32-42-18.5C83.7,68.05,66.83,83,55.9,99.29c-12.78,19.08-20.28,40.91-20.3,64,0,22.56,6.76,44.45,16.77,64.48s22.78,39.55,40.5,53.68C126.25,308.07,178.84,316.44,208.15,279.07Zm-45,14.86c-18.11,1.84-37-4.07-52.38-13.43C94,270.23,82.28,255.56,71.62,239.29s-19-34.06-23.48-53c-5.3-22.43-3.75-45.75,6.28-66.68,7.06-14.74,17.5-30.31,33-37.46,17.84-8.24,39-1.69,52.17,12.08,14,14.65,18.89,33.72,26.87,51.73,8.16,18.41,22.67,33.38,32.45,50.95,10.27,18.48,17.54,38.73,10.53,59.7A55.18,55.18,0,0,1,163.17,293.93Z"/><path class="blackbeansblack-beanscls-1" d="M463.65,101.62C454.38,81.87,438,67.68,418,59.41c-21.45-8.85-45.73-11.18-68.76-10.59S303.16,53,283.22,65c-17.13,10.31-31.53,25.72-41.4,43.08-11.9,20.92-11.08,44-2.23,66.09,8.77,21.82,27,36,49.67,41.21,20.42,4.66,44.57,3.7,65.78-2,12.11-3.24,25.52-4.76,38.24-5.59,12.89-.83,26.21.66,39-1.22,21.19-3.13,37.77-16.2,42.51-37.63C479.63,146.93,473.09,121.76,463.65,101.62Zm-101.53,102c-8.86.79-17.65,2.53-26.46,3.94-6.91-25.62,62.83-40,71-7.13C391.83,201.63,377,202.26,362.12,203.59Zm89.95-17c-7.87,7.82-19.3,11-30,12.26-2.26.28-4.52.52-6.78.75,0-.06,0-.11,0-.17-4.4-25.84-33.18-29.36-54.34-24.58-10.55,2.38-22.74,5.88-29.36,15.17-3.9,5.49-5.29,12.48-3.16,18.57a97,97,0,0,1-21.88.68c-18.5-1.81-37.76-10.4-49-25.64-12.92-17.51-20-42-11-62.66,7.26-16.59,20.5-32.16,35.11-42.76,32.88-23.86,79.58-23.8,117.48-14,18.56,4.82,36.51,14.43,47.8,30.34,11.77,16.58,17,38.1,17.18,58.24C464.2,164.94,460.91,177.83,452.07,186.59Z"/><path class="blackbeansblack-beanscls-1" d="M311.42,239.29c-21.51-2.19-42.57,6.75-58,21.63-16.92,16.28-18.83,39.71-31.82,58.4s-30.82,34.38-37.88,56.73c-6.71,21.26-3.35,46.35,11.07,63.76,14,16.87,38.31,23.32,59.45,23.45,47.8.3,86.69-33.33,108.88-73.26,13.29-23.9,20.56-49.82,16.84-77.19C375.19,277.93,348.73,243.08,311.42,239.29Zm-76.83,73.16c3.81-7.66,6-15.95,9.11-23.86,10.26,14.41,7.61,32.35-2,46.77-8.37,12.55-26.75,34.53-43.86,30.13,6.21-11,14.75-20.81,22.39-30.85A140,140,0,0,0,234.59,312.45Zm125.64,61.81c-15.64,36.11-47.21,69.07-87,76.2-20.28,3.64-44.49,1.78-62.29-9.47-18.86-11.92-25.26-37.13-20.21-58a62.91,62.91,0,0,1,3.26-9.71c8.15,4.23,18.25,1.65,25.64-3.9,10.13-7.61,20.64-17.07,28.23-27.26,13.05-17.52,18.1-45.56-.81-60.84,9.73-18.42,31.11-34.51,52.1-35.69,25.28-1.43,49.92,17.13,61.54,38.58a86,86,0,0,1,9.52,31.49C372.34,335.43,368.07,356.17,360.23,374.26Z"/><rect class="blackbeansblack-beanscls-2" width="512" height="512"/></g></g></svg>