<svg xmlns="http://www.w3.org/2000/svg" viewBox="0 0 512 512"><defs><style>.blackeyedpeasblack-eyed-peascls-1{fill:#4a2d2d;}.blackeyedpeasblack-eyed-peascls-2{fill:none;}</style></defs><g id="Capa_2" data-name="Capa 2"><g id="bocetos"><path class="blackeyedpeasblack-eyed-peascls-1" d="M216.45,151.54c-4.15-18.85-14.11-34.9-33.4-43C143.72,92.13,103.72,117.38,82.34,150c-12.68,19.33-22.13,42.32-28.05,64.61-5.88,22.13-7.57,46.38.65,68.17,6.49,17.18,19.52,34.42,36,43.15,17.28,9.17,37.84,5.66,55.13-1.7,23.19-9.87,35.66-28.14,46.52-50.11a309.05,309.05,0,0,0,15.51-37.19C216,213.65,222.62,179.52,216.45,151.54ZM177.6,279.14c-1.31,2.43-2.7,4.81-4.16,7.12-10.81-7.81-20.71-15.9-27-28.13a63.84,63.84,0,0,1-4.87-45.1c7.93-30.8,36.32-50.65,67.54-49.83a99.58,99.58,0,0,1,.74,11.16c-24.24-.37-48.74,20.67-55.63,42.71C147.92,237.24,155.45,270.79,177.6,279.14ZM161,301.66C148.85,313,130,320.39,113.38,320c-18.21-.42-32.72-13.93-41.88-28.65C49.67,256.29,64.06,210,80.15,175.43c14.91-32.06,44.9-67.69,84.54-61.67,18.59,2.83,35.59,15.9,41.17,34.08a89.11,89.11,0,0,1,2.24,9c-34.64-1.73-66.57,21.15-74.62,55.4-6.92,29.4,6.33,67.81,35.32,80.72A68.17,68.17,0,0,1,161,301.66Zm29.31-50.35c-2.75,6.6-5.67,13.66-9,20.59-7.74-5.85-14.6-11-19-20.57-5.05-11.07-3.5-23.13.91-34.1A53.18,53.18,0,0,1,184.72,192c8-5,16.26-6.48,24.84-8.65C207.89,206.72,199.25,229.88,190.33,251.31Z"/><path class="blackeyedpeasblack-eyed-peascls-1" d="M284.45,201c-3.38,22.16-1.8,44.34,17.77,58.32,37.68,26.92,92.71,12.1,122-20,32.65-35.87,36.52-85.68,18.14-129.38-9.9-23.57-25.46-47.86-47.56-61.56C362,28,322.19,30.09,293.49,57c-7,6.58-13.3,14.92-14.42,24.75-1.49,13,6.38,25.9,9.85,38.08C296.83,147.6,288.67,173.45,284.45,201Zm17.37-72.34A39.69,39.69,0,0,1,310,145.32c2.2,10.53.05,22.75-3.9,32.7a57.29,57.29,0,0,1-10.07,16.63c2.94-15.8,6.87-31.44,7.22-47.61A91.63,91.63,0,0,0,301.82,128.65ZM289.24,77.52c12.94-37.87,62.36-38,92.33-22.47,18.73,9.69,30.23,24.89,41.72,42.07,12.47,18.63,20.89,37.87,21.6,60.58a107,107,0,0,1-15,57.81c-21.41,35.8-66.77,54.55-107.1,42.34-8.27-2.5-16.47-6.61-22.4-13-9-9.75-8.09-22-6.74-34.25.07-.6.15-1.2.22-1.8,15.94-12.09,27.28-36.34,25.78-55.87a58.3,58.3,0,0,0-9.28-27.7c-5-7.6-12.23-13.15-16.57-21C289.94,95.57,286.23,86.33,289.24,77.52Z"/><path class="blackeyedpeasblack-eyed-peascls-1" d="M451,334c-15.21-21.48-40.18-31.78-65.88-33.32-14.29-.86-28.67,1.44-42.7,3.93-30.22,5.34-58.93,17.83-85.7,32.52-21.51,11.82-38.74,27.79-45.31,52.12-5.31,19.62-3.72,42.75,8.94,59.32,11.1,14.52,28.66,22.34,46.18,25.91,46.28,9.42,97.8-6,138-28.78,20.81-11.79,40.75-28.64,51.87-50.18C466.74,375.37,463.94,352.3,451,334ZM362.8,346.78c-8.73,9.42-20.22,16.79-31.42,22.92-12.86,7-28.09,13.11-42.05,5.36-13.5-7.49-18.56-21.57-17.16-36.23,2.21-1.17,4.43-2.31,6.67-3.4-.15,6.37,3,12.51,8.18,16.75,8.19,6.73,17.9,5.16,27.29,2.13,19.47-6.28,43.58-18.86,43.14-42.47,3.95-.57,7.95-1,11.95-1.3C375.47,323.64,373.1,335.66,362.8,346.78Zm-13.95-33.52.3-.06c-2.07,15.6-15.67,24.21-29.92,29.83-6.19,2.44-14.93,6.51-21.73,4.73-7.27-1.91-10.36-9.16-10.81-16C306.4,323.09,327.32,317.25,348.85,313.26ZM450.16,383c-7.09,21.23-26.13,38.73-45,49.74C369.87,453.4,326,468.25,284.56,465.6c-15.95-1-32.76-4.85-46-14.22-15.5-11-21.19-29.28-19.66-47.71,2.19-26.55,19.54-44.3,41.07-57.8q2.46-1.55,5-3c-.92,13.87,4.15,27.88,15.54,36.63,15.31,11.76,33.55,8.6,49.86.78,16-7.68,33.58-18.67,43.77-33.62,6.64-9.73,10.39-25.36,4.66-36.5,19.68-.12,39,4.27,54.55,17.71S456.84,363,450.16,383Z"/><rect class="blackeyedpeasblack-eyed-peascls-2" width="512" height="512"/></g></g></svg>