<svg xmlns="http://www.w3.org/2000/svg" viewBox="0 0 512 512"><defs><style>.blackberryblackberrycls-1{fill:#4a2d2d;}.blackberryblackberrycls-2{fill:#754680;}.blackberryblackberrycls-3{fill:#fff;}.blackberryblackberrycls-4{fill:none;}</style></defs><g id="Capa_2" data-name="Capa 2"><g id="bocetos"><path class="blackberryblackberrycls-1" d="M201.81,176.92c-13.07-23.45-39.32-34.17-64.21-40-2.61-.61-5.59,1.78-4.61,4.61a80.19,80.19,0,0,0,22.14,33.61c9,8,22.76,16.85,35.33,16.4,3.25-.12,5.17-5,1.79-6.6-11-5.13-21.69-7.67-31.39-15.53a63.9,63.9,0,0,1-20.64-29.87l-4.61,4.61c23.79,5.84,51.77,19.11,65.7,40.37,2.32,3.53,2.59-3.89.5-7.62Z"/><path class="blackberryblackberrycls-2" d="M378.87,239.41c-1.4-16.45-23.45-28-23.45-28s1.4-7-2.45-19.25a2.53,2.53,0,0,0-.69-1,89.13,89.13,0,0,1-9.3,3.6,75.29,75.29,0,0,1-10.93,3c-4.2.75-8.46,1.18-12.7,1.64l-2.38.29h-.1l-.45.07-2.26.3c-2.44.33-4.88.64-7.32.88a59.31,59.31,0,0,1-15.58-.09c-2.86-.49-6-1.64-7.93-3.79a53.41,53.41,0,0,1-17.43,4.83,20.75,20.75,0,0,1-8.26-1.22,15.37,15.37,0,0,0-7.1-.47c-3.19.47-6.41,1.27-9.65,1.13a43.14,43.14,0,0,1-8.53-1.24,47.74,47.74,0,0,1-25.68-16.71l-1.08,0s-18.9-2.45-30.1,8.75a32.46,32.46,0,0,0-9.8,24.5s-16.46,7.71-17.51,26.61,12.61,25.2,12.61,25.2-9.81,16.8-5.61,30.1,10.16,15.76,10.16,15.76-8.76,27.65,3.5,42.35,19.6,16.45,19.6,16.45-6.65,22.76,10.5,35a42.39,42.39,0,0,0,35,6.65s6.3,15.75,28.71,16.45S291,416.53,291,416.53s25.55,3.15,39.21-12.95,9.1-30.81,9.1-30.81a38.12,38.12,0,0,0,20.3-25.2c4.9-18.9-1.4-28-1.4-28A30.43,30.43,0,0,0,372.92,293c0-18.9-8.75-27.3-8.75-27.3S380.27,255.86,378.87,239.41Z"/><path class="blackberryblackberrycls-1" d="M381.73,147.88A156.86,156.86,0,0,0,304.19,178c9.19-16.08,14.42-35.89,17.84-50.78a3.46,3.46,0,0,0-5-3.8c-17,9.57-31.6,23.49-43.3,39.4.42-18.16-.74-36.27-7.08-53.63-4.27-11.7-17.55-41.42-35.22-29.5-18.17,12.26,1.22,35.1,7.69,47.85,5.46,10.77,9.63,21.92,11.58,33.82,1.48,9,1.11,17.48.18,26.12-6.27-13-16.18-25-25.49-35a265.17,265.17,0,0,0-22.75-22c-4.07-3.43-11.07-8.52-15.54-3-4.79,6-2.73,18.3-1.32,25,2.11,10.15,6.87,21.36,13.29,29.64,5.39,7,12,14.62,20.22,18.51,9.61,4.58,21.08,5.33,31.6,5.57a6.51,6.51,0,0,0,1.37-.13,3.26,3.26,0,0,0,2.83-.79,2.43,2.43,0,0,0,1.28.56,41.39,41.39,0,0,0,23.95-3.56c9.88-1.18,20,.24,29.9.09,11.51-.18,23.49-2,34.22-6.11,20.11-7.75,35.35-23.12,41.12-43.61C386.13,150.52,384.31,147.62,381.73,147.88ZM245.79,125.17c-4-8.44-10.64-16.31-13.35-25.2-1.37-4.49-1.47-11.74,3.64-14.34,6-3.07,11.1,4,13.66,8.08a97,97,0,0,1,11.16,26c4.75,17.46,5,36.11,5.36,54.1a177.66,177.66,0,0,0-8.67,15.64c2.24-13.14.21-27.57-3.09-39.91A145,145,0,0,0,245.79,125.17Zm-38.6,54.34c-5.73-6.79-9.4-15.31-12.36-23.56a55.51,55.51,0,0,1-3.3-14c-.34-4-1.16-11.06,4.48-8.28,6.21,3.06,12.25,9.89,17.23,14.55A169.53,169.53,0,0,1,228,164c8.25,10,13.64,20.46,18.7,31.71-6.64-.73-13.29-1.35-19.78-2.95C219,190.82,212.36,185.62,207.19,179.51Zm51.12,20.35c15.71-24.79,30.42-49.47,55.15-66.27A171.74,171.74,0,0,1,295.67,175c-3.69,6.29-8.07,12.54-13.89,17.13C274.53,197.85,266.73,198,258.31,199.86Zm73.91-7.47c-13.31,4.06-26.75,3-40.21,3.24,23.47-21.78,51.72-35.49,83.94-39.47C368.32,174.2,351.14,186.6,332.22,192.39Z"/><path class="blackberryblackberrycls-1" d="M164.42,217.49c4.7,19.86,24.73,32.69,44.63,25.59a2.45,2.45,0,0,0-1.3-4.72c-8.81,1.8-17.34,2.48-25.4-2.36-7.14-4.28-12.32-11.52-15-19.31a1.51,1.51,0,0,0-2.9.8Z"/><path class="blackberryblackberrycls-1" d="M234.14,200.74c-16.44-.38-27.62,20.15-26.72,34.59,1.05,16.75,13.86,30.54,30.79,31.63S270,255.78,273.9,239.65c3.25-13.39-1.38-37.11-18.51-38.2-2.37-.15-2.56,3.23-.53,3.94,13.84,4.82,17.9,22.38,13.32,35.31-4.21,11.88-16.11,20.73-28.79,20.44a27.91,27.91,0,0,1-26.89-22.41c-2.77-14.11,5.88-32.64,21.64-34.23,2.37-.24,2.47-3.71,0-3.76Z"/><path class="blackberryblackberrycls-1" d="M268.07,246c3.32,9.45,15.08,13,24.31,13,9.85-.07,19.69-4.86,25.29-13.08,9-13.24,6.14-45.88-14-47.45-2-.15-2.93,3-1.05,3.89,14,6.2,21,24.86,12.6,38.39a27.33,27.33,0,0,1-18.5,12.44c-8.44,1.5-20.86-.18-25.16-8.64-1-1.92-4.24-.59-3.51,1.48Z"/><path class="blackberryblackberrycls-1" d="M321.36,227.76a25.49,25.49,0,0,0,23.32-.45c5.46-3,11.43-9.34,12.13-15.67a1.76,1.76,0,0,0-3-1.23c-3.41,4.35-5.17,8.49-10.16,11.56-6.49,4-13.69,4.33-20.95,2.57-1.86-.45-3.24,2.34-1.36,3.22Z"/><path class="blackberryblackberrycls-1" d="M241.86,263.56c-2,22.67,11.41,45,36.67,42,24-2.8,39.16-30.2,31.34-52.49-1-2.87-4.84-1.66-4.45,1.22,1.48,10.79,1.88,20.8-4.1,30.49a33.6,33.6,0,0,1-21.94,15.29c-9.48,1.79-19.95-1.48-26.32-8.76-6.66-7.61-7.34-18.11-7.2-27.76,0-2.61-3.78-2.53-4,0Z"/><path class="blackberryblackberrycls-1" d="M305,278.65c10.14,15.8,32.72,11.74,43-1.61,11-14.4,10.35-39.92-3.51-52.4-2.49-2.24-5.62,1.07-3.6,3.59,9.49,11.86,12.46,27.74,5.25,41.68a25.91,25.91,0,0,1-15.78,13.25c-9,2.6-15.92-.67-22.41-6.74-1.48-1.39-4.07.41-2.9,2.23Z"/><path class="blackberryblackberrycls-1" d="M351.45,268.93c4.36,1.47,10.56,1.34,13.66-2.54.93-1.16.12-3.34-1.6-2.75-3.85,1.31-6.91,2.85-11.08,1.74-2.31-.62-3.21,2.8-1,3.55Z"/><path class="blackberryblackberrycls-1" d="M184,238.11c-14.45,15.45-9.3,44.78,8,55.81s44.34,5,53.28-14.19c1-2.09-1.62-4.56-3.4-2.62-11.75,12.77-26.61,22.3-44.28,13.92s-25-35.26-10.9-50.2c1.7-1.8-1-4.54-2.72-2.72Z"/><path class="blackberryblackberrycls-1" d="M159.6,267.76c0,3.39,4,5,6.62,6.2,3.48,1.58,7.86,3.07,11.72,2.58,2.23-.28,3.1-3.54.57-4.21-3-.78-6-.95-8.9-2a33,33,0,0,1-7.66-3.93,1.57,1.57,0,0,0-2.35,1.35Z"/><path class="blackberryblackberrycls-1" d="M216.41,296.05c-10.7,22.69,4.09,49.71,28.87,53.42a37.6,37.6,0,0,0,31.65-10.26c9.34-9.22,11.06-23.46,10.36-36-.14-2.49-4.08-2.44-3.85,0,.9,9.34-2.29,23.41-9,30.34S257.48,344,248,343.41c-23.43-1.42-34.89-25.31-28.47-46,.57-1.83-2.31-3.12-3.15-1.33Z"/><path class="blackberryblackberrycls-1" d="M280.28,329.69c7.27,19.78,34.87,22.72,50.06,11.07,16.6-12.73,20.47-39.54,8-56.51a2.69,2.69,0,0,0-4.64,2.71c6.79,16,9.8,33.91-4.56,47.13A29.91,29.91,0,0,1,303,341.4c-8.71-1.71-14.14-7.25-20.16-13.19-1-1-3.1,0-2.55,1.48Z"/><path class="blackberryblackberrycls-1" d="M341.14,323c5.09,3.16,14.23,4.22,18.19-1.36,1-1.44-.66-2.91-2.06-2.68-2.32.39-4.31,1.52-6.74,1.58a13.22,13.22,0,0,1-7-1.62,2.37,2.37,0,0,0-2.39,4.08Z"/><path class="blackberryblackberrycls-1" d="M179.22,278.33c-6.76,14-8.27,29.65-.54,43.67,6.21,11.28,19,20.62,32.3,18.33,1.54-.27,1.45-2.69,0-3-11.46-2.61-22-7.06-28.29-17.65-7-11.78-5.86-27.35-.08-39.35,1.09-2.27-2.29-4.26-3.39-2Z"/><path class="blackberryblackberrycls-1" d="M213.91,340.43a45.21,45.21,0,0,1,5.46,0,9.05,9.05,0,0,0,4.76-.65,1.52,1.52,0,0,0-.36-2.75,9,9,0,0,0-4.5,0,46,46,0,0,1-5.36.71c-1.73.1-1.72,2.82,0,2.69Z"/><path class="blackberryblackberrycls-1" d="M166.73,317a14.15,14.15,0,0,0,5,3.22c1.79.61,4.32,1,5.75-.48a2,2,0,0,0,0-2.7c-1.08-1.17-2.74-1.1-4.2-1.42a16.73,16.73,0,0,1-4.41-1.36c-1.68-.91-3.65,1.38-2.12,2.74Z"/><path class="blackberryblackberrycls-1" d="M194.09,337.72c-4.89,16.51,3.45,34.85,18.49,43,14.23,7.68,35.32,5.38,45.52-8,1.22-1.61-1.13-3.74-2.72-2.72-12.55,8.1-24.46,13.55-39.45,7-15.5-6.83-21-22.31-18.4-38.25.36-2.22-2.77-3.19-3.44-.94Z"/><path class="blackberryblackberrycls-1" d="M252.38,346.53c-1.43,9.5,1.37,23.73,7.64,31.3,6.57,7.91,21,11.88,30.86,11.31A34.58,34.58,0,0,0,317,375.32c5.9-8,10.77-19.92,8.76-29.91-.52-2.6-4.78-2-4.64.63.25,4.67,1.34,8.9.17,13.49a28.61,28.61,0,0,1-5.75,12,35.42,35.42,0,0,1-24.61,12.23c-8.39.51-16.65-2.65-23.8-6.82C257,371,254.7,357.65,255.77,347c.19-1.91-3.1-2.38-3.39-.46Z"/><path class="blackberryblackberrycls-1" d="M316.19,373.63c5.74,4.46,15.41,5.5,21.67,1.23a1.67,1.67,0,0,0-1.28-3c-3.23.55-6.08,2.05-9.47,1.49A19.45,19.45,0,0,1,319,370c-2.14-1.49-4.91,2-2.82,3.65Z"/><path class="blackberryblackberrycls-1" d="M232.19,383c-5.16,8.52-4.83,20.69.26,29.22a1.59,1.59,0,0,0,2.9-1.22c-2.45-9.5-2.25-17.17-.16-26.73a1.65,1.65,0,0,0-3-1.27Z"/><path class="blackberryblackberrycls-1" d="M292.78,417.18c4.13-7.58,9.94-21.06,5.43-29.43a1.56,1.56,0,0,0-2.82.36c-1.25,3.8-.44,8-.81,11.91A44.5,44.5,0,0,1,290,415.58c-.88,1.82,1.76,3.41,2.74,1.6Z"/><path class="blackberryblackberrycls-1" d="M187.83,375.25c4.24,1.65,10.17,3.12,14.5,1.13,1.31-.6.71-2.33-.36-2.75-1.94-.76-4.08-.74-6.13-1A67.3,67.3,0,0,1,189,371.2c-2.68-.67-3.6,3.09-1.12,4.05Z"/><path class="blackberryblackberrycls-3" d="M188.75,191.88c-3.09,1.26-6.29,2.56-8.61,5.08-3.16,3.44-4.1,9.37.36,12.19l-1.82-1.82a9.15,9.15,0,0,0,1.38,1.66c2.1,1.81,5.48,1.74,7-.9.15-.25.29-.51.43-.76l-1.82,1.82c2.2-1.08,2.75-3.36,4-5.26.47-.74-.51.48.15-.21a9.73,9.73,0,0,1,1.12-1c-.42.31.31-.18.37-.22l1.55-1a5.23,5.23,0,0,0,2.14-6.53c-.94-2.16-3.72-4-6.17-3Z"/><path class="blackberryblackberrycls-3" d="M230.26,215.19a22.72,22.72,0,0,0-7.08,7.67c-1.79,3.31-2.81,8.25-.79,11.62,2.22,3.72,6.78,3.07,9.13,0,1.39-1.82,1.58-4.6,2.47-6.65a12.09,12.09,0,0,1,2.83-4.13c4.34-4.15-1.46-12.15-6.56-8.51Z"/><path class="blackberryblackberrycls-3" d="M296.71,217.13c2.12,3.8,1.3,9.7,4.9,12.53a3.49,3.49,0,0,0,4,.52c7.34-3.77,1.95-14.3-1.5-18.76-1.42-1.83-4.55-1.67-6.19-.37a4.73,4.73,0,0,0-1.21,6.08Z"/><path class="blackberryblackberrycls-3" d="M343.34,211.29a4.44,4.44,0,0,0,2.77-1.14,4.37,4.37,0,0,0,1.15-2.77l-.14-1a4,4,0,0,0-1-1.73l-.79-.61a3.92,3.92,0,0,0-2-.53,2.91,2.91,0,0,0-1.51.33,3,3,0,0,0-1.26.81,4.44,4.44,0,0,0-1.14,2.77l.14,1a3.92,3.92,0,0,0,1,1.73l.8.61a3.91,3.91,0,0,0,2,.53Z"/><path class="blackberryblackberrycls-3" d="M159,230.93c-3.81,3.56-7.55,11.26-3.05,15.72a4.49,4.49,0,0,0,6.94-.9c1.26-1.82,1.05-4.1,1.41-5.75a9.8,9.8,0,0,1,1.72-3.66c1.3-1.77.47-4.55-1.15-5.76a4.51,4.51,0,0,0-5.87.35Z"/><path class="blackberryblackberrycls-3" d="M191.05,253.21c-3.16,4.86-6.8,14.58-1.4,19.21a3.7,3.7,0,0,0,5.71-.74c1.42-2.19,1.36-4.89,1.71-7.39A17,17,0,0,1,199.3,258c3.12-5.34-4.92-9.95-8.25-4.82Z"/><path class="blackberryblackberrycls-3" d="M289.27,284.49c5.1-3.27,9.47-12.17,4.52-17.37a4.18,4.18,0,0,0-6.5.83c-1.09,1.81-1.08,4-1.59,6a17.75,17.75,0,0,1-2.17,4.85c-2.12,3.52,2.17,8,5.74,5.73Z"/><path class="blackberryblackberrycls-3" d="M332.76,245.72a7.1,7.1,0,0,0,0,.92l.09-.71a12.68,12.68,0,0,0-.2,1.49c-.23.58.25-1.14,0-.25a8.2,8.2,0,0,0-.32,1.92c.05,2.59,1.51,5.37,4.48,5.3,4.94-.12,6.75-5.95,5.32-9.94A4.83,4.83,0,0,0,336.9,241a4.73,4.73,0,0,0-4.14,4.69Z"/><path class="blackberryblackberrycls-3" d="M371.71,241.92c-.11-.44-.21-.88-.34-1.32-.05-.19-.11-.37-.16-.56a4.93,4.93,0,0,0-1.13-2,3.69,3.69,0,0,0-5.17,0,5.05,5.05,0,0,0-1.13,2c0,.19-.11.37-.16.56-.13.44-.23.88-.34,1.32a4.37,4.37,0,1,0,8.43,0Z"/><path class="blackberryblackberrycls-3" d="M357.33,289.28a30.26,30.26,0,0,0,.37,4.46c.44,2.08,2.29,4.33,4.6,4.23a4.79,4.79,0,0,0,4.36-4.45,16.38,16.38,0,0,0-.33-4.24A5,5,0,0,0,365,286.1a4.57,4.57,0,0,0-3.18-1.32c-2.31.1-4.66,2-4.5,4.5Z"/><path class="blackberryblackberrycls-3" d="M321.05,303.81a12.79,12.79,0,0,1,.7,4.22c0,2.21,0,4.33,1.3,6.24,1.78,2.61,5.47,3.45,7.86,1,4.13-4.22,1.82-10.86-.74-15.32-2.77-4.84-10.81-1.64-9.12,3.84Z"/><path class="blackberryblackberrycls-3" d="M228.17,306.32a18.4,18.4,0,0,0,.74,15.19c2.45,4.87,7.8,9.36,13.37,6.86,2-.9,2.4-3.33,2.13-5.22-.43-2.93-3.46-4.84-4.88-7.33a10,10,0,0,1-1.44-6.77c1.32-6.62-7.45-8.78-9.92-2.73Z"/><path class="blackberryblackberrycls-3" d="M184.48,302.37a14.78,14.78,0,0,0,.11,6.07c.61,2.14,2.31,4.68,4.82,4.57,3-.13,3.91-3,3.47-5.51a3.73,3.73,0,0,1-.12-.73c-.06-.47-.16-.94-.22-1.41.09.75,0-.58,0-.6q0-.64.06-1.29a4.1,4.1,0,0,0-3.58-4.06c-1.81-.24-4.25.92-4.53,3Z"/><path class="blackberryblackberrycls-3" d="M159.91,287.18c-.09.9-.25,1.82-.26,2.73a10.81,10.81,0,0,0,.07,1.27,5.16,5.16,0,0,0,1.33,3,3.78,3.78,0,0,0,2.68,1.11,4.4,4.4,0,0,0,2.67-1.11c1.93-1.53,1.86-4.81,2.14-7a4.32,4.32,0,0,0-4.32-4.31,4.43,4.43,0,0,0-4.31,4.31Z"/><path class="blackberryblackberrycls-3" d="M171.24,336.85a14.73,14.73,0,0,0,.39,2,2.76,2.76,0,0,0,2.64,2,2.82,2.82,0,0,0,2.65-2,15,15,0,0,0,.38-2,3.15,3.15,0,0,0,0-1.67,3.2,3.2,0,0,0-.8-1.38,3.13,3.13,0,0,0-4.45,0,3.12,3.12,0,0,0-.81,3.05Z"/><path class="blackberryblackberrycls-3" d="M194.66,386.27c.26,1,.46,2.06.78,3.06a4.65,4.65,0,0,0,2.74,3.28,2.51,2.51,0,0,0,2.52-.66c1.89-1.92.79-5.12.38-7.45a3.34,3.34,0,0,0-4.09-2.33,3.4,3.4,0,0,0-2.33,4.1Z"/><path class="blackberryblackberrycls-3" d="M205.72,351.37c1.05,3.6,1.66,9,5.85,10.2a3.73,3.73,0,0,0,4.08-1.66c2.3-3.12-.42-7.72-1.61-10.83a4.44,4.44,0,0,0-5.31-3,4.37,4.37,0,0,0-3,5.3Z"/><path class="blackberryblackberrycls-3" d="M265.47,352.53c-.76,5.35.14,11.6,5.27,14.56,3.53,2,8.94-1.4,7.36-5.65-.62-1.66-1.45-3.19-2.19-4.79q-.44-.87-.12-.27c-.12-.36-.23-.72-.32-1.08q-.17-1-.09-.3c0-.38-.05-.75-.05-1.13a5,5,0,0,0-4.35-4.93c-2.22-.27-5.15,1.09-5.51,3.59Z"/><path class="blackberryblackberrycls-3" d="M344.09,338.64a18.75,18.75,0,0,0,.25,2.49,7.89,7.89,0,0,0,.84,2.11,3.38,3.38,0,0,0,5.78,0,8.77,8.77,0,0,0,.84-2.11,17.21,17.21,0,0,0,.24-2.49,4,4,0,0,0-4-4c-2,.09-4.14,1.75-4,4Z"/><path class="blackberryblackberrycls-3" d="M320.22,387.22l-.58,2.43a6.9,6.9,0,0,0,.06,4.24,4.38,4.38,0,0,0,7.32,1.93,6.74,6.74,0,0,0,2.08-3.56l.63-2.42a4.93,4.93,0,1,0-9.51-2.62Z"/><path class="blackberryblackberrycls-3" d="M239.85,391.79a16.74,16.74,0,0,0-.1,8.26c.71,2.79,3.41,5.82,6.32,6.32a4.41,4.41,0,0,0,5.46-4.16,10,10,0,0,0-.19-2.78c-.1-.68-.11-.72-.05-.13a18,18,0,0,0-.25-2.07c0-.25-.42-2.32-.35-1.2,0-.26.15-2.29,0-1.26.51-2.88-.77-6.18-3.91-6.9a5.71,5.71,0,0,0-6.9,3.92Z"/><rect class="blackberryblackberrycls-4" width="512" height="512"/></g></g></svg>