<svg xmlns="http://www.w3.org/2000/svg" viewBox="0 0 512 512"><defs><style>.blueberryblueberrycls-1{fill:#8a6293;}.blueberryblueberrycls-2{fill:#fff;}.blueberryblueberrycls-3{fill:#4a2d2d;}.blueberryblueberrycls-4{fill:none;}</style></defs><g id="Capa_2" data-name="Capa 2"><g id="bocetos"><path class="blueberryblueberrycls-1" d="M340.85,285.41c-49.78,2-66.67,46.3-67.54,64.93s10.48,59.1,67.54,60.27,68.73-43.12,67.84-59.4C406.65,313.65,390.64,283.37,340.85,285.41Z"/><path class="blueberryblueberrycls-2" d="M374.22,387.49a32.09,32.09,0,0,0,13.36-8.7c3.45-3.8,7.42-9.48,5.93-14.87-.88-3.19-4.46-3.62-6.76-1.79-3.09,2.45-4.36,7-6.58,10.24a32.84,32.84,0,0,1-8.76,8.47c-3.24,2.15-1.29,8.13,2.81,6.65Z"/><path class="blueberryblueberrycls-2" d="M395,352.53l-.3-.79-.24-.58a1.85,1.85,0,0,0-.62-.68,1.35,1.35,0,0,0-.53-.31,1.76,1.76,0,0,0-.93-.2,2.89,2.89,0,0,0-1.22.33,1.76,1.76,0,0,0-.68.62,1.85,1.85,0,0,0-.43.82l-.29.79a2.71,2.71,0,0,0,.7,2.64,2.7,2.7,0,0,0,3.84,0,2.71,2.71,0,0,0,.7-2.64Z"/><path class="blueberryblueberrycls-3" d="M361.39,339.9c-3.12-1.41-6.82-2.36-10.25-1.74-5.95,1.09-9.57,10.39-4.34,14.54a6,6,0,0,0,.79.52c4.22,2.32,10.31.92,13.83-2a8.75,8.75,0,0,0,3.19-6.89A4.91,4.91,0,0,0,361.39,339.9Zm-1.57,6.47c-1.85,2.69-6.17,3.67-9.22,3.38a3.08,3.08,0,0,1-1.3-.36,2.3,2.3,0,0,1-1-1.95,5.84,5.84,0,0,1,3-5,8.78,8.78,0,0,1,3.6-.52C357.1,342,362,343.25,359.82,346.37Z"/><path class="blueberryblueberrycls-3" d="M366.41,330.45a18.14,18.14,0,0,0-7.84-2.45,25.18,25.18,0,0,0-6.42.32c-10.38,1.81-20.06,9.68-20.79,20.65-.84,12.59,12.56,17.8,23.24,16.64s20.54-10,20-21.19A17,17,0,0,0,366.41,330.45Zm-12.1,30.63c-8.4,1.05-20.4-2.54-18.83-13.21,1.7-11.52,15.61-18.46,26.2-14.66a12.26,12.26,0,0,1,8.5,10.9C370.62,353.25,362.81,360,354.31,361.08Z"/><path class="blueberryblueberrycls-1" d="M134.72,226.89s-1.75-34.36,1.16-35.23,6.7,5.24,10.77,18.34,7.57,24.46,7.57,24.46,29.12-20.09,65.8,9.61,20.68,71.33,6.12,92.59-54.74,25-83.27,10.48S112.88,302,116.08,286s15.43-31.73,15.43-31.73-36.1-4.95-34.64-9.9,28.24-5.82,28.24-5.82-22.71-22.71-18.64-26.21S134.72,226.89,134.72,226.89Z"/><path class="blueberryblueberrycls-3" d="M95.37,248.61c6.26,2.46,13,3.76,19.58,5.25,6,1.35,12,3.19,18.16,3.41,3.09.12,3.27-4.11.69-5.08-6.24-2.35-13.24-3.14-19.74-4.61-6-1.36-12-3-18-3.76-3-.36-3,3.87-.65,4.79Z"/><path class="blueberryblueberrycls-3" d="M102,216.07c2.21,4,5.86,7,9.09,10.14,3.89,3.78,7.72,7.68,11.81,11.23,2.73,2.37,6.51-1.32,4-4-6.69-7.08-14.5-13.1-20.83-20.53-1.95-2.29-5.45.64-4.06,3.14Z"/><path class="blueberryblueberrycls-3" d="M133.17,192.41c-3.13,9.34-2.93,23.71.24,33a2.16,2.16,0,0,0,4.23-.57c.11-5.31-.88-10.58-.85-15.92s1-10.62.77-15.93a2.25,2.25,0,0,0-4.39-.59Z"/><path class="blueberryblueberrycls-2" d="M168.17,250.6a36.61,36.61,0,0,1,31.63,7.06,41.94,41.94,0,0,1,9.71,11.11c2.46,4.09,4.29,8.54,8,11.65,2.22,1.86,5.75,1.32,6.6-1.74,3.36-12.15-9-25.61-18.25-31.85a41.82,41.82,0,0,0-39.87-4c-4.66,2-3.07,9.14,2.15,7.81Z"/><path class="blueberryblueberrycls-2" d="M216.89,298.29a32.51,32.51,0,0,0,.42,3.41,7.77,7.77,0,0,0,1.72,3.44,2.77,2.77,0,0,0,3.85,0c2.5-2.29,1.94-5.91,1.47-8.9-.31-2-2.93-3.3-4.76-2.7a4,4,0,0,0-2.7,4.75Z"/><path class="blueberryblueberrycls-2" d="M129.43,310.07c2,4.52,5.51,9.32,10.73,9.92,2.28.26,3.3-2.55,2.43-4.25a25.13,25.13,0,0,0-3.74-4.82,18.61,18.61,0,0,1-2.83-4.71c-.82-1.89-3.59-2.32-5.22-1.37-2,1.14-2.2,3.33-1.37,5.23Z"/><path class="blueberryblueberrycls-1" d="M296.6,142.46s-25.62-32-21.84-33.2,29.7,22.42,29.7,23.59,7.28-38.43,10.48-38.43,4.66,34.35,4.66,34.35,23.87-25,27.37-23.87-20.38,41.34-20.38,41.34,40.76,10.48,44,43.38-15.43,60.56-38.14,71c-17.38,8-56.48,7.28-81.23-20.09s-16.6-63.18,3.78-81.52S296.6,142.46,296.6,142.46Z"/><path class="blueberryblueberrycls-2" d="M288.93,152.27c-10.76-.13-19.91,3.9-26.78,12.37-5.54,6.84-13,20.55-7.27,29,1.38,2.05,4.47,2.83,6.32.81,5.09-5.54,4.95-14.39,9.29-20.73A36.45,36.45,0,0,1,290,159.87c4.22-1.16,3.34-7.54-1-7.6Z"/><path class="blueberryblueberrycls-2" d="M260.11,213.15l.83.58a2.53,2.53,0,0,0,2,.26,2.56,2.56,0,0,0,1.51-1.17l.47-.92a4.12,4.12,0,0,0,.47-1.76,3.31,3.31,0,0,0-.74-2.11,1.78,1.78,0,0,0-.63-.62,3.44,3.44,0,0,0-1.65-.69,2.74,2.74,0,0,0-1.39.06,3.87,3.87,0,0,0-1.54.9,3.61,3.61,0,0,0-.89,1.54l-.13.92a2.84,2.84,0,0,0,.3,1.35,1.93,1.93,0,0,0,.45.77,2.71,2.71,0,0,0,1,.89Z"/><path class="blueberryblueberrycls-2" d="M327.35,248.63c6.95-1.49,14.35-6.78,14.84-14.4.2-3.13-3.77-4.25-5.82-2.41-3.69,3.31-6.29,7.37-11.1,9.25-4.64,1.81-2.94,8.63,2.08,7.56Z"/><path class="blueberryblueberrycls-3" d="M329.86,148.24c4-6.88,7.23-14.26,11.13-21.23,3.5-6.26,8.34-12.79,10.12-19.79.59-2.32-2.46-4.38-4.2-2.44-5.08,5.67-8.1,13.62-11.6,20.33-3.61,6.91-7.69,13.72-10.37,21.06-1.07,2.92,3.41,4.65,4.92,2.07Z"/><path class="blueberryblueberrycls-3" d="M321.54,128.27c1-11.06-1.67-23-3.53-33.89-.4-2.38-4.26-1.81-4.18.56.4,11.08,1.92,22.26,2.79,33.33a2.46,2.46,0,0,0,4.92,0Z"/><path class="blueberryblueberrycls-3" d="M305.76,131.38c-3.6-4.94-9.27-8.33-13.85-12.31s-9.23-8.62-14.48-12c-3.05-2-5.78,2.26-3.67,4.75,3.82,4.5,9.11,7.78,13.88,11.16,5.08,3.58,9.64,8.47,15.1,11.4,1.79,1,4.4-1.12,3-3Z"/><rect class="blueberryblueberrycls-4" width="512" height="512"/></g></g></svg>