<svg xmlns="http://www.w3.org/2000/svg" viewBox="0 0 512 512"><defs><style>.bokchoybok-choycls-1{fill:none;}.bokchoybok-choycls-2{fill:#6a8c2a;}.bokchoybok-choycls-3{fill:#fff;}.bokchoybok-choycls-4{fill:#f4f5d8;}.bokchoybok-choycls-5{fill:#4a2d2d;}</style></defs><g id="Capa_2" data-name="Capa 2"><g id="bocetos"><rect class="bokchoybok-choycls-1" width="512" height="512"/><path class="bokchoybok-choycls-2" d="M450.77,218.3c-3-18.23-3.91-38.64-.87-63.38s.87-43.85-18.23-51.66-27.78,0-43.84,8.68-19.11,4.34-45.15,15.63a29.44,29.44,0,0,0-8.83,6.25C326.08,119,315.71,112.45,310.12,105c-6.51-8.69-1.3-45.15-13-64.69s-30.83-20.4-50.36-13-16.93,23-26.92,33S198.55,70.7,192.47,83.72,192,117.15,196,139.29a52.93,52.93,0,0,1-1.1,22.61c-7.32-10.8-11.74-24.27-15-40.41C176,102,152.1,68.1,112.6,75.91s-62.08,46.45-50.36,97.24,59.91,68.16,62.08,79.88-8.25,33.43,1.3,49.92,33,19.54,44.71,36.9,9.12,52.1,9.12,52.1l50.63-12.19c7.17,9.26,14.64,16.39,21.43,18.7,10.55,3.58,22.28,1.68,32.9-3.68a73,73,0,0,0,41.34,18.87c26.48,3,50.79-17.8,51.66-25.61s-16.93-34.3-12.59-56.44,16.06-39.93,43-59.47S453.81,236.53,450.77,218.3Z"/><path class="bokchoybok-choycls-3" d="M176.09,259.38c6-13,8.35-29.14,11.39-43.11,2.46-11.32,4.57-23.76-.64-34.58-.88-1.84-3.37-.45-3.07,1.29,2.45,14.3.79,26.52-2.59,40.54-2.75,11.39-7.13,23.44-7.62,35.17-.05,1.3,2,1.92,2.53.69Z"/><path class="bokchoybok-choycls-3" d="M159,206.64c-10.89-4.11-21.81-8.16-32.62-12.5-10.38-4.17-23.93-7.53-29.67-18-.89-1.63-3.27-.48-2.9,1.23,2.25,10.31,13.58,14,22.25,17.59A440.49,440.49,0,0,0,158,210.29c2.37.72,3.25-2.8,1-3.65Z"/><path class="bokchoybok-choycls-3" d="M148.75,177.57c3.57-14.25,4.12-29.84-1.39-43.67a1.61,1.61,0,0,0-3.1.85c2.18,14.32,3.38,27.4.58,41.75-.49,2.53,3.27,3.63,3.91,1.07Z"/><path class="bokchoybok-choycls-3" d="M269.48,257.05c16.61-21.86,39-51.33,32.79-80.71-.41-2-3.19-1.36-3.3.45-1,16-4.14,29.81-11.68,44.09-6.27,11.87-14.13,22.8-21.05,34.28-1.28,2.13,1.82,3.75,3.24,1.89Z"/><path class="bokchoybok-choycls-3" d="M259.82,200.56c-9.78-9.13-19.24-17.66-26.7-28.92s-12-23.22-16.28-35.95c-.5-1.49-3.16-1.37-2.93.39,3.29,25.85,21,54.24,43.87,67.12,1.63.92,3.47-1.31,2-2.64Z"/><path class="bokchoybok-choycls-3" d="M262.67,142.65c6.66-8.45,12.9-17.6,17.17-27.53a1.32,1.32,0,0,0-2.28-1.33c-6,8.86-11.5,18-17.65,26.73-1.14,1.61,1.52,3.7,2.76,2.13Z"/><path class="bokchoybok-choycls-3" d="M343.89,305.73c-3.95-10.51-7.83-20.76-10.07-31.8s-2.2-22.1-4-33.07c-.26-1.61-3.05-1.65-3.28,0-3,21.42,4.12,47.38,14.05,66.26.94,1.79,4.05.56,3.32-1.39Z"/><path class="bokchoybok-choycls-3" d="M376.05,225.22c-2.31-12.3-5.15-24.28-5.54-36.86-.36-11.67,1.33-23.17,1.54-34.8a1.53,1.53,0,0,0-3-.4c-6,23-4.85,50.75,3.64,73a1.74,1.74,0,0,0,3.36-.92Z"/><path class="bokchoybok-choycls-3" d="M360.15,272.24c22.22-11.37,47.32-27.55,61.08-48.94,1-1.59-1.19-3.06-2.49-1.93-9.34,8.18-17.78,17.19-27.51,25A253,253,0,0,1,358,268.55c-2.41,1.36-.28,4.94,2.17,3.69Z"/><path class="bokchoybok-choycls-4" d="M307,340.72c-27.25-31.64-37.7-74.46-40.58-115.06s-2.31-81.58-4.95-122.29a2,2,0,0,0-3.9-.68,2.13,2.13,0,0,0-.43,1.17c-2.83,41.31-.1,82.57-1.39,123.88-.61,19.76-2.71,39.54-7.95,58.64-5.3,19.37-14.18,36-25.23,52.56-1.22,1.83,1.59,4,3.06,2.36.29-.32.54-.67.82-1,5.43,9.76,35.64,62.88,49.84,62.49,15.63-.44,4.34-17.37,4.34-17.37S291,365.9,296.23,358.08s5.64-9.11,5.64-9.11l3.41-4.73A2.13,2.13,0,0,0,307,340.72Z"/><path class="bokchoybok-choycls-4" d="M412.63,153.9a2.39,2.39,0,0,0-3.84.26c-24.38,36.16-42,78.25-57.34,118.87-8.34,22-14.93,45-25.84,65.88-10.59,20.33-25.15,36.32-44.71,48.3a1.45,1.45,0,0,0-.25,2.14l-3.81,2.42c-6.7-5.94-15.06-12.54-23.82-19.54,2.53.45,3.09-3.32,1.12-4.58-17.93-11.47-32.79-22.22-45.17-39.95-12.64-18.09-21.64-38.34-29.87-58.69-8.44-38.74-21.41-79.5-43.12-112.71a2.09,2.09,0,0,0-3.6,2.1c16.41,35.86,32.06,70.45,40.45,109.27,3.89,18,5.43,36.33,7.71,54.58a92.79,92.79,0,0,1-1.78,33.58c-2.83,11.49-8.76,21.76-13,32.73-5,12.85-11.09,25.46-12.88,39.27C150,450.07,161,468.11,181.4,477c15.66,6.8,34.15,8.08,51,9.17,12.25.79,25.41,1.6,38.28.95,19.95.43,40.07-1.83,58.31-10.14,20.77-9.45,39-26.64,48-47.72,5.79-13.52,8.2-28.46,1.73-42.17-3-6.41-7.56-11.69-11.25-17.66a124.22,124.22,0,0,1-8.88-18.45A92.83,92.83,0,0,1,352,324c-1.71-20.23,5-40.3,11.3-59.24A530.51,530.51,0,0,1,390,198.92c6.27-11.95,12.86-23.7,19.27-35.6,1.38-2.31,2.73-4.64,4.15-6.92A1.67,1.67,0,0,0,412.63,153.9Z"/><path class="bokchoybok-choycls-5" d="M191.75,162.07c9.58,14.23,21.46,26,23.14,44.1,1.49,16-2.64,32.52-3.87,48.41-2.17,28-4.27,60.18,10.44,85.36,13.61,23.3,37.38,38.43,55.75,57.58C297.93,419.13,315.67,445.36,325,474c1,3,5.53,1.79,4.76-1.31-7-28.19-20.62-52.4-40-74.11C270.69,377.32,244,362.06,229,337.28c-17.28-28.61-11.25-66.24-8.85-97.86,1.19-15.77,3.67-32.19-1.89-47.44-4.47-12.28-13-24.08-22.35-33.14-2.1-2.05-5.93.64-4.19,3.23Z"/><path class="bokchoybok-choycls-5" d="M341.37,126.35C322.52,135,314.56,155.27,313,174.69c-1.08,13.07,1.69,25.95.81,38.87S303.17,234.43,299,245.92c-3.69,10.24-1.22,20.58,2,30.61a118.54,118.54,0,0,1,6,37.86c0,13.71-.93,27-8.21,39.07-6.87,11.34-15.5,21.82-23.51,32.38-2.56,3.37,3.3,7.94,5.92,4.56,13.88-17.88,30.31-34.17,33.33-57.58a162.74,162.74,0,0,0,.63-33.1c-.94-11.84-5.71-22.14-8.49-33.52-3.47-14.16,2.64-22.8,8.71-34.77,4.71-9.28,5.77-18.33,4.61-28.65-1.59-14.15-3.74-27,.82-40.94,4.28-13.07,11.29-25.34,23.2-32.1,4-2.25,1.39-5.22-2.61-3.39Z"/><path class="bokchoybok-choycls-5" d="M177.67,348.46c-1.13,12.1-7.4,24.76-12.34,35.68-1.27,2.81,2.61,5.25,4.23,2.47,7.33-12.51,12.53-23.48,12.48-38.15,0-2.86-4.11-2.76-4.37,0Z"/><path class="bokchoybok-choycls-5" d="M157.19,405.2c-11.66,24.86-9.58,55.48,17,69.8,11.59,6.24,24.86,8.58,37.76,10.27a209.68,209.68,0,0,0,52.2.65,2.91,2.91,0,0,0,0-5.82c-24.37-1.91-51.16-1.34-74.77-8.15-11.59-3.35-22.47-9.89-28-21-6.66-13.32-4.63-30.4-.18-44.07.76-2.31-2.93-3.94-4-1.68Z"/><path class="bokchoybok-choycls-5" d="M315.65,483.23c27-7.47,51.86-27.5,63.14-53.44,5.46-12.56,6.86-25.73,3.42-39-1.88-7.28-5.28-13.33-7.68-20.43-2.73-8.08-6.77-16.21-8.14-24.58-.65-4-3.15-3.26-3.53.14-1.34,12,4.3,23.6,7.61,34.87,4.07,13.83,7,27.17,2.37,41.3-8.73,26.76-33.54,45.58-58.72,55.62-3.34,1.33-2.12,6.54,1.53,5.53Z"/></g></g></svg>