<svg xmlns="http://www.w3.org/2000/svg" viewBox="0 0 512 512"><defs><style>.broccolibroccolicls-1{fill:none;}.broccolibroccolicls-2{fill:#c0c728;}.broccolibroccolicls-3{fill:#9bb533;}.broccolibroccolicls-4{fill:#fff;}.broccolibroccolicls-5{fill:#4a2d2d;}</style></defs><g id="Capa_2" data-name="Capa 2"><g id="bocetos"><rect class="broccolibroccolicls-1" width="512" height="512"/><path class="broccolibroccolicls-2" d="M218,302.25s17.21,20.64,27.1,36.13a81.86,81.86,0,0,1,11.61,31.82,133.76,133.76,0,0,1,15.05-35.69c11.18-18.5,15.91-28.82,15.91-28.82s44.73,5.59,43.44,6.45-14.19,35.7-19.78,70.53-1.72,58.49-4.3,63.22-83.87,4.3-88.17,1.29-.86-46.87-13.76-76.55-43.43-75.26-40.85-81.28S218,302.25,218,302.25Z"/><path class="broccolibroccolicls-3" d="M271.8,102.27s35.7-54.62,74.4-41.72c40.16,13.39,26.67,72.26,26.67,72.26s33.52-15.61,49,8.6c17.64,27.52-17.63,46.87-17.63,46.87s53.33-9.89,59.35,37c5,38.87-50.75,44.3-50.75,44.3s29.94,37.88-2.58,61.5c-40.85,29.67-66.66-14.63-66.66-14.63s-15.48,26.67-49.45,18.5-52.9-56.34-61.5-82.58S271.8,102.27,271.8,102.27Z"/><path class="broccolibroccolicls-3" d="M363.83,177.63c-3.8-15.65-18.49-25-41.28-27.62,10-12.8,18.92-34.78,7.6-47.59-9.91-11.22-28.74-4.06-38.14,5.44-5-30.18-37.09-58.69-67.56-55.1-32.39,3.81-52.71,37.59-53.28,68.86-18.24-11.34-44-17.4-62.72-5.45-16.4,10.46-23.56,38-17.28,57.49-22.25-.25-48.65,10.67-51.83,34.34-2.52,18.72,17.18,33.47,33.77,37.48-13.26,10.35-27.18,29.69-20.47,46.73,8,20.21,35.57,22.07,54.45,13.91.29,17.58,6.88,42.93,25.42,44.75,10.18,1,18.92-1.43,26.83-12.28,7.53-10.32,4.12-22.89,5.38-32,13.19,15,39.92,26.59,58,18.24,16-7.42,25.64-35.55,23.31-54.36,16.36,9.33,41.54,18.79,57.37,7.3S323,244.19,313.09,224C338.89,227.85,370.07,203.3,363.83,177.63Z"/><path class="broccolibroccolicls-4" d="M142.12,183.41c-10.81-3.52-23.47.61-29,10.92-4.51,8.45-3.82,24.32,6.11,28.85a1.86,1.86,0,0,0,2.52-2.52c-4-7.64-9.11-14.2-4.72-23.28,4.3-8.9,14.69-12.3,23.78-9.33,2.95,1,4.21-3.68,1.28-4.64Z"/><path class="broccolibroccolicls-4" d="M141.69,276.59c-3.05-5.4-.7-10.39,2.89-14.7a2,2,0,0,0-2.39-3.09c-7.17,3.25-7.72,13.88-3.74,19.68,1.35,2,4.44.24,3.24-1.89Z"/><path class="broccolibroccolicls-4" d="M212.2,190.5c.61-4.15,5.25-5,8.61-4.23s3.63,1.81,6.74,3.08a2.1,2.1,0,0,0,2.39-3.23c-3.54-4.34-7.65-6.06-13.41-5.17-4.8.74-8.74,4.13-9.34,9-.4,3.22,4.53,3.72,5,.52Z"/><path class="broccolibroccolicls-4" d="M227.89,135.38c10.74-11.22,24.34-5.95,31.78,5.58a1.79,1.79,0,0,0,3.25-1.37c-3.95-17.82-27.25-19.28-38.06-7.23-1.83,2,1.11,5,3,3Z"/><path class="broccolibroccolicls-4" d="M349.22,273.18c8.52-5,16.62,1.08,21.78,8.43,1.1,1.57,3-.2,2.75-1.77-2.3-12.72-17.53-15.48-26.47-10.32-2.19,1.26-.24,4.94,1.94,3.66Z"/><path class="broccolibroccolicls-4" d="M394.37,215.45a9.69,9.69,0,0,1,7.56,4.24c1.68,2.35,2.08,5,2.67,7.78.41,1.94,2.9,1.49,3.51,0,3.36-8.29-6.41-15.9-13.74-16.3-2.74-.14-2.76,4.2,0,4.28Z"/><path class="broccolibroccolicls-4" d="M226.7,254.94c2.49-5,8.65-4.85,12-.89,1.28,1.53,3.56-.42,2.67-2.06-4.31-8-14.79-7.07-19.07.37-1.66,2.88,2.95,5.51,4.42,2.58Z"/><path class="broccolibroccolicls-5" d="M289.05,109.43c.27,1.95,3,2.29,4.18,1.1,8.37-8.18,29.12-17,37-3,6.28,11.17-1,25.2-5.64,35.33a1.88,1.88,0,0,0,2.94,2.26c11.65-9.89,20.3-32.75,7-46-10.77-10.77-31.51-5.87-41.41,4.83a65.63,65.63,0,0,0-11.39-26.85A1.88,1.88,0,0,0,278.54,79C283.71,88.79,287.49,98.46,289.05,109.43Z"/><path class="broccolibroccolicls-5" d="M325,148.86c0-.21.11-.42.17-.63a1.46,1.46,0,0,0-2.66-1.12L321,149.65a1.91,1.91,0,0,0,1.13,2.78c18.65,4.22,41.84,16.35,36.83,39.5-4.24,19.61-24.8,27.52-42.44,30.25-2,.32-2.56,2.86-1.79,4.39,8.61,17.2,3.85,38.3-13.46,48-16,9-38.45,2.6-54-4.71a3.09,3.09,0,0,0-4.48,3.45,41.23,41.23,0,0,1-6.49,34.54c-5,6.8-11.14,10.47-18.13,13.47a43.12,43.12,0,0,1-19,1.93C187,321.83,171.71,315.89,166,304.4c-1.32-2.63-5.87-.78-4.82,2,10.55,28.16,50.86,33.65,72.72,16.67,18.61-14.45,18.3-43.69,15.78-44.94,17.28,10.65,43.09,14.71,59.29,2.93s22.55-36.45,12.6-53.71c20.14-3.65,42.7-11.47,46.41-36.8C371.39,167.07,346.26,150.71,325,148.86Z"/><path class="broccolibroccolicls-5" d="M263.11,317.74C275,330.82,289,341.68,307.4,341c14.81-.53,30.76-9.72,38.77-22.53,1.46-2.32-1.88-4.9-3.79-2.92C332.28,326,321,333,305.87,332.67c-14.3-.29-29.9-7.63-39-18.73-2.15-2.64-6.14,1.22-3.79,3.8Z"/></g></g></svg>