<svg xmlns="http://www.w3.org/2000/svg" viewBox="0 0 512 512"><defs><style>.brusselsproutsbrussels-sproutscls-1{fill:none;}.brusselsproutsbrussels-sproutscls-2{fill:#9bb533;}.brusselsproutsbrussels-sproutscls-3{fill:#4a2d2d;}.brusselsproutsbrussels-sproutscls-4{fill:#fff;}</style></defs><g id="Capa_2" data-name="Capa 2"><g id="bocetos"><rect class="brusselsproutsbrussels-sproutscls-1" width="512" height="512"/><path class="brusselsproutsbrussels-sproutscls-2" d="M138.51,42.59S155.65,19,192.84,18s58.21,19.4,62.73,23.61A28.8,28.8,0,0,1,262,50.35s14.23-6.15,29.43,13.9,22.33,86.9-1,114.48c-31.69,37.52-69.21,40.1-69.21,40.1s1.62,23.93-32.33,23.29S160.82,224,160.82,224,107.14,211.72,89,163.86s5.17-91.2,13.9-103.16S123.31,41,128.16,40.65,138.51,42.59,138.51,42.59Z"/><path class="brusselsproutsbrussels-sproutscls-3" d="M134.42,44.62c9.77,5.78,12.23,12.64,16.76,22.48,2.54,5.52,5.88,9,11.59,11.26C172.88,82.42,185.84,82,192,92.45c5.26,8.89.7,19.56,1.95,29.31,2.12,16.5,17.37,27.07,19.3,44,2.69,23.48-11.37,40.8-29.75,53a3.16,3.16,0,0,0,3.19,5.45c17.12-8.42,31-25.95,33.85-44.91a51.71,51.71,0,0,0-3.52-28.5c-4.34-9.85-13.59-17.89-16.05-28.51-2.4-10.33,2.45-21.28-2.12-31.28C195.67,84,189,80,182,77.47c-6.07-2.19-13.91-2.5-19.43-5.92S156,61.73,153.65,56.3c-3.43-7.83-9-13.8-17.25-16.37-2.81-.86-4.46,3.22-2,4.69Z"/><path class="brusselsproutsbrussels-sproutscls-3" d="M198.48,91.56c7.34-6.11,13.4-8.38,22.89-9.15,4.78-.38,10.09.21,14.19-2.77,3.51-2.55,5.46-7.28,8.2-10.56,5.24-6.3,11.15-10.76,19.07-13.24,3.49-1.09,2.05-6.18-1.49-5.44a33.75,33.75,0,0,0-15.79,8.42c-5.4,4.86-8.7,12.53-15.31,15.4-12,5.19-27.87.74-35.7,14.31-1.49,2.58,1.82,4.79,3.94,3Z"/><path class="brusselsproutsbrussels-sproutscls-3" d="M132,85.48c-3,26.58-4.91,54.94,4.54,80.47,6.31,17.06,17.4,42.24,36,48.93,2.62,1,3.81-2.45,2.44-4.19-6.71-8.49-15.59-14.54-21.83-23.74a87.76,87.76,0,0,1-12.42-28.47c-6-24.24-6.36-48.29-3.8-73,.33-3.14-4.55-3.09-4.9,0Z"/><path class="brusselsproutsbrussels-sproutscls-3" d="M224.74,204.49A136.6,136.6,0,0,0,257,157.33c6.81-16.53,13.26-38.12,10.18-56.16-.37-2.18-4-2.18-4.4,0-1.47,8.68-1.29,17.53-2.83,26.25A137.88,137.88,0,0,1,252.78,153a149.9,149.9,0,0,1-31,48.56,2.11,2.11,0,0,0,3,3Z"/><path class="brusselsproutsbrussels-sproutscls-3" d="M253,166.45c13.45-6.63,28.48-18.8,33.42-33.56.45-1.33-1.52-2.56-2.44-1.42-4.58,5.61-8,11.94-13,17.27a75.41,75.41,0,0,1-19.51,15.11c-1.71.92-.2,3.44,1.52,2.6Z"/><path class="brusselsproutsbrussels-sproutscls-3" d="M237.55,186.45c9.53-22.33,7.8-50.43-3.19-72.09-.87-1.71-3.56-.52-3.06,1.28,6.7,23.76,11.95,45.34,3.44,69.62-.57,1.63,2.13,2.8,2.81,1.19Z"/><path class="brusselsproutsbrussels-sproutscls-4" d="M256.06,112.88c-.86-3.14-1.85-6.38-3.8-9-.9-1.21-3.12-.57-2.61,1.1.93,3,2.3,5.8,3.19,8.81a1.67,1.67,0,0,0,3.22-.89Z"/><path class="brusselsproutsbrussels-sproutscls-4" d="M281.75,118.87a15.75,15.75,0,0,0,2.52-3.18,1.82,1.82,0,0,0-2.46-2.47,16.13,16.13,0,0,0-3.18,2.54,2.2,2.2,0,0,0,3.12,3.11Z"/><path class="brusselsproutsbrussels-sproutscls-3" d="M138.8,142.14c12.26-12.8,28.22-30.65,24.51-50-.37-1.94-3.05-1.28-3.21.43-.9,9.45-2,17.3-6.75,25.68-4.5,8-10.58,15-16.37,22-1,1.26.65,3.06,1.82,1.83Z"/><path class="brusselsproutsbrussels-sproutscls-3" d="M102.43,133.68c4.11,15.36,16.34,33.9,32.28,39,1.58.51,3-1.77,1.68-2.88-5.87-4.89-12.44-8.48-17.6-14.3a73.16,73.16,0,0,1-13.24-22.67c-.72-1.9-3.66-1.18-3.12.86Z"/><path class="brusselsproutsbrussels-sproutscls-3" d="M159.4,191.79c11.18-14.1,35-32.34,26.95-53.23-.56-1.47-3-1.42-2.94.4,1,22.27-14.13,34.52-26.22,51.13-.93,1.28,1.21,2.95,2.21,1.7Z"/><path class="brusselsproutsbrussels-sproutscls-4" d="M166.32,144.68c2.06-2.09,4.91-5.55,4.1-8.72a1.69,1.69,0,0,0-2.79-.74,11.06,11.06,0,0,0-1.95,3.38,18.21,18.21,0,0,1-2.05,3.39c-1.48,1.87.92,4.47,2.69,2.69Z"/><path class="brusselsproutsbrussels-sproutscls-4" d="M119.56,108.83a36.88,36.88,0,0,1-2.9-3.46,11,11,0,0,0-3.22-3.37,1.85,1.85,0,0,0-2.75,1.58c.19,3.36,3.38,6.26,5.67,8.44a2.26,2.26,0,0,0,3.2-3.19Z"/><path class="brusselsproutsbrussels-sproutscls-4" d="M135,188l-1.63-.81a7,7,0,0,0-2-.6,1.64,1.64,0,0,0-1.71.58,1.6,1.6,0,0,0-.13,1.82l.49.63a5.36,5.36,0,0,0,1.13,1.1l1.57,1.15a2.24,2.24,0,0,0,3.06-.8A2.27,2.27,0,0,0,135,188Z"/><path class="brusselsproutsbrussels-sproutscls-4" d="M174,50.12a35,35,0,0,1,3.45-4.67,43.4,43.4,0,0,0,3.66-4.25c1.06-1.56-1-3.1-2.39-2.39-3.63,1.79-6.33,5.81-8.43,9.15-1.47,2.34,2.24,4.5,3.71,2.16Z"/><path class="brusselsproutsbrussels-sproutscls-4" d="M221.14,58.11c.12-2.35,0-5.13-1.59-7-1-1.12-3.3-.61-3.52.93-.29,2,.33,4,.25,6.06a2.43,2.43,0,1,0,4.86,0Z"/><path class="brusselsproutsbrussels-sproutscls-4" d="M241.52,50.41c-.75-2.25-1.83-4.81-4-6-1.4-.77-3.7.56-3,2.3.79,1.92,2.18,3.48,3,5.4a2.15,2.15,0,0,0,2.72.9,2.19,2.19,0,0,0,1.27-2.58Z"/><path class="brusselsproutsbrussels-sproutscls-2" d="M57.16,307.22s7.15-28.28,41.31-43,61.25-3.62,67-1.4a28.89,28.89,0,0,1,9.25,5.71s10.93-11,32.49,2,53,72.38,41.63,106.65c-15.48,46.6-49.35,62.94-49.35,62.94s10.39,21.62-21.37,33.63-32.85-6.36-32.85-6.36-54.41,8.54-89-29.17S27.21,351.6,30.87,337.25s11.58-25.88,16-28S57.16,307.22,57.16,307.22Z"/><path class="brusselsproutsbrussels-sproutscls-3" d="M54.13,310.63c11.22,1.74,16,7.18,23.91,14.64,4.4,4.18,8.78,6.14,14.94,6.15,10.89,0,22.78-5.18,32.38,2.21,8.18,6.31,7.92,17.91,12.7,26.49,8.09,14.53,26.18,18.69,34.25,33.65,11.22,20.8,4.6,42.1-7.93,60.25a3.17,3.17,0,0,0,5,3.89c12.77-14.19,19.09-35.6,14.73-54.28a51.6,51.6,0,0,0-13.86-25.15c-7.68-7.54-19.26-11.56-25.49-20.51-6.06-8.7-5.62-20.67-13.58-28.25-5.55-5.29-13.26-6.53-20.65-6.27-6.44.21-13.84,2.83-20.23,1.71s-9.75-6.67-14-10.83c-6.1-6-13.45-9.49-22.1-8.79-2.93.24-2.94,4.65-.09,5.09Z"/><path class="brusselsproutsbrussels-sproutscls-3" d="M131,330.41c4.54-8.41,9.33-12.76,17.86-17,4.28-2.13,9.44-3.55,12.14-7.85,2.31-3.67,2.37-8.79,3.68-12.85,2.53-7.8,6.36-14.14,12.79-19.38,2.83-2.3-.39-6.49-3.41-4.49a33.74,33.74,0,0,0-11.52,13.68c-3.21,6.52-3.43,14.87-8.5,20-9.19,9.28-25.59,11.05-27.83,26.55-.42,3,3.48,3.78,4.79,1.36Z"/><path class="brusselsproutsbrussels-sproutscls-3" d="M67.08,349.46c7.13,25.77,15.86,52.83,34.11,73,12.2,13.49,31.85,32.75,51.58,32.06,2.78-.1,2.62-3.69.7-4.8-9.38-5.39-19.87-7.7-29.08-13.92A87.87,87.87,0,0,1,102.28,414c-14.55-20.28-23.84-42.47-30.65-66.35-.86-3-5.38-1.19-4.55,1.82Z"/><path class="brusselsproutsbrussels-sproutscls-3" d="M197.38,425.5a136.53,136.53,0,0,0,12.41-55.77c.18-17.88-1.85-40.32-11.42-55.92-1.15-1.88-4.54-.53-4.08,1.63,1.86,8.61,5.32,16.76,7.13,25.43a138,138,0,0,1,2.84,26.36,149.79,149.79,0,0,1-10.76,56.61,2.11,2.11,0,0,0,3.88,1.66Z"/><path class="brusselsproutsbrussels-sproutscls-3" d="M209.47,379.68c10-11.15,19.46-28,18.56-43.57-.08-1.41-2.36-1.82-2.79-.41-2.17,6.91-3,14.05-5.65,20.86a75.64,75.64,0,0,1-12.49,21.27c-1.25,1.49,1.09,3.27,2.37,1.85Z"/><path class="brusselsproutsbrussels-sproutscls-3" d="M202.57,404c.56-24.27-11.5-49.72-29.75-65.74-1.44-1.26-3.5.84-2.36,2.33,15,19.57,27.94,37.65,29.06,63.36.08,1.72,3,1.8,3,.05Z"/><path class="brusselsproutsbrussels-sproutscls-4" d="M192.42,328.81a26.67,26.67,0,0,0-6.88-7c-1.28-.79-3.11.64-2,2,2,2.43,4.28,4.53,6.23,7a1.67,1.67,0,0,0,2.66-2Z"/><path class="brusselsproutsbrussels-sproutscls-4" d="M218.49,324.82a15.84,15.84,0,0,0,1.17-3.89,1.82,1.82,0,0,0-3.21-1.37,15.54,15.54,0,0,0-2,3.53,2.2,2.2,0,1,0,4,1.73Z"/><path class="brusselsproutsbrussels-sproutscls-3" d="M94.43,399.54c6.62-16.44,14.81-38.94,4.18-55.51-1.07-1.66-3.3,0-2.82,1.59,2.68,9.11,4.56,16.81,3.27,26.35-1.21,9.07-4.23,17.87-7,26.55-.5,1.56,1.74,2.59,2.37,1Z"/><path class="brusselsproutsbrussels-sproutscls-3" d="M57.52,405.2C67,417.93,85.28,430.6,102,429.41c1.66-.12,2.15-2.77.49-3.31-7.27-2.35-14.69-3.25-21.65-6.73a73.47,73.47,0,0,1-20.72-16.12c-1.38-1.51-3.84.25-2.57,1.95Z"/><path class="brusselsproutsbrussels-sproutscls-3" d="M132,438c5.14-17.24,20.47-43,5.25-59.43-1.07-1.16-3.34-.19-2.59,1.46,9.21,20.3-.29,37.3-5.35,57.21-.39,1.54,2.23,2.3,2.69.76Z"/><path class="brusselsproutsbrussels-sproutscls-4" d="M120.92,391.67c1.14-2.7,2.49-7,.57-9.62a1.69,1.69,0,0,0-2.87.36,11.12,11.12,0,0,0-.56,3.86,17.92,17.92,0,0,1-.63,3.91c-.69,2.28,2.51,3.8,3.49,1.49Z"/><path class="brusselsproutsbrussels-sproutscls-4" d="M64.18,375.76a36.1,36.1,0,0,1-4-2.13A11,11,0,0,0,56,371.7a1.84,1.84,0,0,0-2,2.48c1.42,3.06,5.47,4.56,8.41,5.74a2.26,2.26,0,0,0,1.77-4.16Z"/><path class="brusselsproutsbrussels-sproutscls-4" d="M107.9,443.56l-1.81-.16a7.5,7.5,0,0,0-2.06.18,1.67,1.67,0,0,0-1.38,1.18,1.61,1.61,0,0,0,.56,1.73l.7.41a5,5,0,0,0,1.45.6l1.88.49a2.24,2.24,0,1,0,.66-4.43Z"/><path class="brusselsproutsbrussels-sproutscls-4" d="M92.88,301a35.23,35.23,0,0,1,1.48-5.62,45.39,45.39,0,0,0,1.82-5.3c.4-1.84-2-2.53-3.11-1.34-2.71,3-3.72,7.75-4.43,11.63-.5,2.72,3.75,3.34,4.24.63Z"/><path class="brusselsproutsbrussels-sproutscls-4" d="M139.65,290.93c-.76-2.22-1.9-4.76-4.07-5.9-1.32-.68-3.29.66-2.93,2.18.47,2,1.81,3.62,2.49,5.53a2.43,2.43,0,1,0,4.51-1.81Z"/><path class="brusselsproutsbrussels-sproutscls-4" d="M155.71,276.21c-1.53-1.81-3.49-3.78-6-4.1-1.59-.2-3.23,1.89-1.92,3.24s3.31,2.43,4.79,3.91a2.19,2.19,0,0,0,3.08-3.05Z"/><path class="brusselsproutsbrussels-sproutscls-2" d="M343.34,190s24.7-15.52,59.57-2.57,46.79,39.7,49.43,45.28a29,29,0,0,1,2.75,10.52s15.49-.4,22.13,23.87S465.57,356.07,433.66,373c-43.38,23-79.16,11.43-79.16,11.43s-7.42,22.81-38.69,9.56-19.36-27.29-19.36-27.29-45.24-31.4-44.21-82.57,38.78-82.7,51.34-90.55,26.26-10.72,30.88-9.21S343.34,190,343.34,190Z"/><path class="brusselsproutsbrussels-sproutscls-3" d="M338.79,190.38c6.91,9,6.64,16.28,7.17,27.11.3,6.06,2.12,10.51,6.56,14.76,7.87,7.54,20.06,12,21.89,24,1.56,10.21-6.64,18.42-9.12,27.92-4.18,16.1,6,31.6,1.53,48-6.25,22.79-25.75,33.62-47.35,38.09a3.16,3.16,0,0,0,.93,6.25c19-1.43,38.4-12.55,48.14-29.07a51.68,51.68,0,0,0,7.35-27.76c-.35-10.75-5.94-21.66-4.27-32.44,1.63-10.47,10.21-18.83,9.69-29.81-.35-7.66-5.08-13.87-10.59-18.8-4.82-4.29-12-7.5-15.82-12.73s-2.44-11.56-2.62-17.49c-.27-8.53-3.17-16.14-9.91-21.61-2.28-1.85-5.33,1.33-3.58,3.61Z"/><path class="brusselsproutsbrussels-sproutscls-3" d="M380.74,257.81c9.1-2.94,15.56-2.78,24.66,0,4.57,1.42,9.28,4,14.2,2.71,4.21-1.06,7.78-4.71,11.54-6.74,7.21-3.9,14.36-5.83,22.64-5.18,3.63.28,4.2-5,.63-5.61A33.79,33.79,0,0,0,436.63,245c-6.83,2.5-12.75,8.38-19.95,8.58-13.05.36-26.14-9.69-38.46,0-2.35,1.84-.1,5.13,2.52,4.28Z"/><path class="brusselsproutsbrussels-sproutscls-3" d="M321.34,227.41c-12.65,23.56-25,49.15-25.77,76.36-.5,18.18.41,45.69,15.15,58.81,2.08,1.86,4.45-.85,3.82-3-3.06-10.38-9.05-19.29-11.41-30.16a87.81,87.81,0,0,1-.92-31.05c3.49-24.71,12.1-47.18,23.67-69.15,1.48-2.8-3.07-4.58-4.54-1.83Z"/><path class="brusselsproutsbrussels-sproutscls-3" d="M363,372.39a136.48,136.48,0,0,0,47.49-31.75C423,327.84,437,310.21,440.9,292.32c.47-2.16-2.92-3.53-4.08-1.64-4.6,7.51-7.73,15.79-12.41,23.31a138.25,138.25,0,0,1-16.15,21,149.71,149.71,0,0,1-46.88,33.5,2.11,2.11,0,0,0,1.66,3.88Z"/><path class="brusselsproutsbrussels-sproutscls-3" d="M403.43,347.61c14.95-1.13,33.44-6.83,43.52-18.68.91-1.07-.46-2.94-1.74-2.23-6.34,3.5-11.87,8.1-18.49,11.19A75.64,75.64,0,0,1,403,344.64c-1.93.22-1.47,3.12.44,3Z"/><path class="brusselsproutsbrussels-sproutscls-3" d="M381.65,360.43c17.17-17.17,26-43.9,23.9-68.1-.17-1.9-3.12-1.8-3.32.06-2.64,24.54-5.8,46.52-22.74,65.89-1.14,1.29.93,3.38,2.16,2.15Z"/><path class="brusselsproutsbrussels-sproutscls-4" d="M426.24,299.05c.37-3.24.66-6.61-.17-9.79-.38-1.45-2.69-1.69-2.83.05-.25,3.12,0,6.24-.32,9.37a1.67,1.67,0,0,0,3.32.37Z"/><path class="brusselsproutsbrussels-sproutscls-4" d="M447.84,314.18a16,16,0,0,0,3.53-2A1.82,1.82,0,0,0,450,309a15.84,15.84,0,0,0-3.89,1.17A2.22,2.22,0,0,0,445,313a2.24,2.24,0,0,0,2.89,1.16Z"/><path class="brusselsproutsbrussels-sproutscls-3" d="M306.52,282.52c16.14-7.32,37.61-17.93,41.36-37.26.38-1.93-2.35-2.32-3.13-.79-4.36,8.44-8.32,15.3-15.84,21.31-7.14,5.72-15.41,10-23.4,14.36-1.44.78-.53,3.08,1,2.38Z"/><path class="brusselsproutsbrussels-sproutscls-3" d="M275.92,261.12c-1.91,15.78,2.53,37.54,15.43,48.21,1.28,1.06,3.46-.52,2.63-2.06-3.63-6.72-8.38-12.5-11-19.82a73.41,73.41,0,0,1-3.85-26c0-2-2.95-2.47-3.21-.36Z"/><path class="brusselsproutsbrussels-sproutscls-3" d="M307.13,336.26c15.63-8.91,44.53-17,44.85-39.35,0-1.57-2.28-2.45-2.88-.73-7.36,21-26,26.77-43.38,37.68-1.34.84,0,3.2,1.41,2.4Z"/><path class="brusselsproutsbrussels-sproutscls-4" d="M331.11,295.12c2.69-1.16,6.62-3.32,7.05-6.56a1.69,1.69,0,0,0-2.31-1.73,11.14,11.14,0,0,0-3.07,2.41,18.23,18.23,0,0,1-3.16,2.39c-2.08,1.18-.81,4.49,1.49,3.49Z"/><path class="brusselsproutsbrussels-sproutscls-4" d="M301.07,244.43a37.54,37.54,0,0,1-1.4-4.28,10.81,10.81,0,0,0-1.74-4.33,1.84,1.84,0,0,0-3.13.43c-1.08,3.19.8,7.07,2.12,10a2.26,2.26,0,0,0,4.15-1.78Z"/><path class="brusselsproutsbrussels-sproutscls-4" d="M285.86,323.65c-.4-.45-.8-.91-1.21-1.36a6.91,6.91,0,0,0-1.6-1.3,1.67,1.67,0,0,0-1.82-.09,1.6,1.6,0,0,0-.79,1.63l.22.78a5.16,5.16,0,0,0,.64,1.44l1,1.65a2.26,2.26,0,0,0,3.15.4,2.28,2.28,0,0,0,.39-3.15Z"/><path class="brusselsproutsbrussels-sproutscls-4" d="M373.44,210.22a36.24,36.24,0,0,1,4.94-3.05,43.37,43.37,0,0,0,5-2.57c1.57-1.06.28-3.23-1.32-3.11-4,.3-8.05,3-11.23,5.34-2.24,1.63.4,5,2.63,3.39Z"/><path class="brusselsproutsbrussels-sproutscls-4" d="M414.24,235.21c1-2.13,1.91-4.76,1.13-7.08-.48-1.4-2.84-1.79-3.62-.45-1,1.74-1.19,3.88-2,5.72a2.43,2.43,0,1,0,4.51,1.81Z"/><path class="brusselsproutsbrussels-sproutscls-4" d="M436,235.66c.15-2.37.09-5.15-1.47-7.08-1-1.24-3.64-.86-3.63,1,0,2.08.72,4.05.77,6.13a2.16,2.16,0,0,0,2.19,1.85,2.19,2.19,0,0,0,2.14-1.92Z"/></g></g></svg>