<svg xmlns="http://www.w3.org/2000/svg" viewBox="0 0 512 512"><defs><style>.buckwheatbuckwheatcls-1{fill:#4a2d2d;}.buckwheatbuckwheatcls-2{fill:none;}</style></defs><g id="Capa_2" data-name="Capa 2"><g id="bocetos"><path class="buckwheatbuckwheatcls-1" d="M281,151.75c6.46,6.07,14.63,16.15,23.25,19.16,7.78,2.73,15.22-.86,20.22-6.92a36.24,36.24,0,0,0,5.89-10.37,82.94,82.94,0,0,0,4.94-27.11c0-.48,0-1,0-1.45-.28-6.13-3.3-11.52-9.92-12.72-10.26-1.87-23.88,1.07-33.53,4.5-7.65,2.71-16,6.84-18.76,15.13S275.3,146.38,281,151.75Zm3.42-25.23c10.45-6.77,25.7-9,37.82-8.34a7.41,7.41,0,0,1,4,1.33,151.49,151.49,0,0,0-18,11.67c-5,3.72-10.65,7.45-14.48,12.41-1.14,1.48,1,3.14,2.39,2.39,5.89-3.16,11-8.32,16.33-12.3s10.61-7.66,15.86-11.57c1.38,2.79,1.41,6.58,1,9.78a76.3,76.3,0,0,1-4.93,19.23,33.7,33.7,0,0,1-4.85,8.45,13,13,0,0,1-8.91,5.07c-4.71.41-7.55-2-10.92-4.76C291.08,152.74,266.07,138.43,284.43,126.52Z"/><path class="buckwheatbuckwheatcls-1" d="M406,179.1c7.46-3.43,7.88-12,8.45-19.22a78.58,78.58,0,0,0-.38-19.14,46,46,0,0,0-4.5-13.69c-2.46-4.6-5.9-8.53-10.51-10.29-7.37-2.8-12.26,1.67-17.19,6.56-10.7,10.62-34,18.5-22,37.75C367.29,172.88,392.41,185.36,406,179.1Zm-37.66-39.52c3.57-2.72,7.79-4.48,11.25-7.4s5.64-6.14,9.46-8.65c16.55-10.88,22.37,30.7,20.25,39.33a20,20,0,0,1-1.8,4.72c-6.37,11.78-28.57,1.72-36.84-4C361.94,157.62,359,146.76,368.34,139.58Z"/><path class="buckwheatbuckwheatcls-1" d="M313.79,207.59c.82,8.49-1.29,18.69,4.26,25.95,4.9,6.41,13.51,8.26,21.16,7.91,12.73-.6,28.9-4.09,37.87-13.85,2.41-2.63,6-6.73,5-10.62a9.48,9.48,0,0,0-1.49-3,30.77,30.77,0,0,1-2.24-3.41c-1.32-2.66-2.43-5.41-4-8a69.8,69.8,0,0,0-8.11-11c-6-6.61-13.76-11.83-22.77-13.09-.54-.08-1.1-.14-1.65-.19C324.64,176.85,312.17,191,313.79,207.59Zm36.73-19.53c10.27,6.2,20.81,17.89,26,28.68-5.61,12-25.56,16.7-37.3,17.71-8.64.74-16.17-1.54-18.21-11-1.15-5.38-1-12-1.41-17.58C318.16,188,335.76,179.15,350.52,188.06Z"/><path class="buckwheatbuckwheatcls-1" d="M425,273.54c-2.65-7.91-12.14-12.74-19.23-15.77-6.83-2.91-14.17-5.38-21.67-6.19-6.27-.67-15.48-1-20,4.35a18.25,18.25,0,0,0-3.61,8.29c-1.37,6.64-.88,13.74.28,20.38,1.59,9.07,4,19.83,11.63,25.85,7.05,5.53,17.22,6,25.62,3.93C414.12,310.47,430.89,291.2,425,273.54Zm-20.62,30.55a30.7,30.7,0,0,1-18.56,4.11c-9.59-1-14.45-7.77-17.5-16.08a59.9,59.9,0,0,1-3.45-19c-.07-2.29-.5-8.25.56-10.21A10.75,10.75,0,0,1,366,262a252.72,252.72,0,0,1,21.57,17.12c5.81,5.24,10.76,11.73,17.14,16.24,1.35,1,2.73-.85,2.1-2.09-3.9-7.71-11.44-13.81-17.9-19.34a132.5,132.5,0,0,0-20.34-14.37c4.3-2.74,10.69-2,15.47-1.06,8.37,1.58,17.57,2.85,25.07,7.07C426.5,275.36,418.86,295.55,404.35,304.09Z"/><path class="buckwheatbuckwheatcls-1" d="M313.45,260.71c-1.29-8.94-8.33-15.48-15.3-20.5-7.83-5.65-17.1-11-27.1-8.29A26.61,26.61,0,0,0,258.6,240a49.75,49.75,0,0,0-12,25.42c-1.13,7.06-2.57,17,4.12,21.69,6.09,4.3,16.41,3.17,23.29,2.7,9.81-.66,19.74-2.61,28-8.3C308.71,276.87,314.69,269.32,313.45,260.71Zm-7,3.81c-1.19,6.4-7.14,11.05-12.61,13.83-9.42,4.79-24.54,7.64-35,5.59a9.55,9.55,0,0,1-4.42-2c6-5.77,11.26-12.28,17.66-17.71,6.86-5.83,14.79-9.92,21.79-15.45,1.38-1.09-.11-3.51-1.71-2.94-8.16,2.88-15.59,8.9-22.19,14.39s-13.23,11.45-17.85,18.61c-4.35-9.72,4.93-29.65,10-35.36,6.43-7.29,15.4-8.71,24-4.51a41.88,41.88,0,0,1,10.74,7.79C301.58,251.36,307.79,257.17,306.43,264.52Z"/><path class="buckwheatbuckwheatcls-1" d="M233.23,162.1c-7.32,1-14.25,2.63-19.89,7.67-6.11,5.45-5.92,13.76-4.86,21.27,1.91,13.53,11.94,46.3,31.06,42.15,9.47-2.06,17.41-12.12,22.88-19.38,5.95-7.9,10.14-17.22,10.44-27.23.22-7.57-2.15-15.09-8.37-19.78-5.76-4.36-13.35-5.66-20.42-5.54A100.82,100.82,0,0,0,233.23,162.1Zm32.09,29.49c-2.12,11.82-10.93,25.86-21.41,32.11s-15.83-1.71-20.63-9.8a80.34,80.34,0,0,1-8.05-18.19c-2-6.85-4.73-16.78,1.06-22.58,3.8-3.81,8.66-4.09,13.74-4.57,7.89-.75,16.71-1.7,24.45.48C264.78,171.92,267,182.05,265.32,191.59Z"/><path class="buckwheatbuckwheatcls-1" d="M225.24,137.24c17.08-1.7,30.22-24.46,28.78-40.41C252.56,80.56,235.5,75,221.58,73.56c-8.42-.84-20.84-2.09-27.65,4.15-5.48,5-3.28,13.38-1.59,19.57C196.58,112.81,204.42,139.3,225.24,137.24Zm-11.32-58c5.21,1,10.65,1.42,15.8,2.7,6.11,1.29,12.18,3.83,15.21,9.66,5.67,10.94-4.15,30-14,35.72-16.57,9.56-24.62-12.89-29.29-24.31-1.84-4.49-5.46-10.37-5.72-15.3a8.24,8.24,0,0,1,.77-4c6.52,3.68,13.1,7.13,19.2,11.57,6.84,5,12.47,11.61,19.43,16.29,1.27.85,2.8-.81,2.05-2-4.2-7-11.74-12.34-18.27-17.08a104.34,104.34,0,0,0-19.92-11.74,11.49,11.49,0,0,1,3.62-1.81C206.52,77.8,210.18,78.53,213.92,79.27Z"/><path class="buckwheatbuckwheatcls-1" d="M147.11,186.73c17.57,5.06,37.36-6.49,46.7-21.08,3.3-5.15,7.35-13.26,4.57-19.41-3.37-7.45-14.9-13.18-21.72-16.5-15.56-7.56-36.92-6.19-44,12C126.67,157.27,128.48,181.36,147.11,186.73ZM135.9,154.11c.48-7.81,2.29-15.6,9.48-20,6.18-3.8,13.42-3.85,20.2-1.91s12.86,5.45,18.73,9.15c4.85,3.06,10.72,8.26,7.43,14.52-1.47,2.81-4.12,4.79-6.32,7s-4.61,4.5-7.07,6.58a52.87,52.87,0,0,1-15.89,9.63c-6.77,2.45-15.34,3.14-21.11-2.09C135.35,171.54,135.45,161.53,135.9,154.11Z"/><path class="buckwheatbuckwheatcls-1" d="M189.5,247.18c2.82-2.06,5.07-5.28,4.88-8.84,0-.22,0-.44-.06-.67-.54-4-2.81-8.29-4.67-11.8a58,58,0,0,0-7.8-11.28,50.6,50.6,0,0,0-22.71-14.9q-.67-.21-1.35-.39c-17.43-4.82-33.37,9.86-36.2,26.38-3.08,18,5.71,34.43,25.28,34.16,11.27-.16,23-3.94,33.33-8.12C183.38,250.43,186.71,249.21,189.5,247.18ZM149.34,252c-9.49,1.17-18.3-1-21.29-11.09-2.09-7.08-1.78-15.68,1.51-22.37,6.81-13.88,22.81-16.83,35.77-9.79,10.55,5.73,18.64,15.84,23.11,26.93-15.48-5.89-34.2-7.07-50.24-6.74a1.48,1.48,0,0,0,0,3,271.86,271.86,0,0,1,28.44,3.61c6.42,1.21,12.71,3.13,19.08,4.57-4.37,4-13.28,6-17.72,7.4A103.4,103.4,0,0,1,149.34,252Z"/><path class="buckwheatbuckwheatcls-1" d="M124.67,275.83c-8.53-.64-13.51,7.68-19.78,11.84-5.92,3.91-12.79,6.68-16.52,13.09-3.42,5.89-3.28,13.43-.35,19.53,3.18,6.61,9.66,10.3,16.23,12.85,9.67,3.75,20.78,7.39,31.24,6.95a3.61,3.61,0,0,0,2.56-1.26,2.67,2.67,0,0,0,.42-.46c10.55-14.45,8-36.42.34-51.68C136.07,281.26,131.06,276.31,124.67,275.83Zm11.94,54.37c-5-12.5-14.76-24.53-23.32-34.15-1.25-1.41-3.12.61-2,2a201.62,201.62,0,0,1,13.83,19.76c2.78,4.58,4.93,9.58,7.48,14.3a149.49,149.49,0,0,1-28.66-7.86c-9-3.6-16.46-10.54-11.19-20.85,2.86-5.6,8.2-8,13.24-11.39,3.12-2.07,5.82-4.48,8.78-6.77,5.21-4,13.27-3.94,17.15,2,2.07,3.18,3.25,6.94,4.39,10.53C139.78,308.79,140.53,319.75,136.61,330.2Z"/><path class="buckwheatbuckwheatcls-1" d="M229.83,284.46a10.85,10.85,0,0,0-3.76-1.53,15.16,15.16,0,0,1-2.89-1c-2.57-1.3-4.72-3.35-7.35-4.59a53.74,53.74,0,0,0-12.39-4.14,41.49,41.49,0,0,0-25,2.55c-17.39,7.68-18.92,24.89-10.23,40.14,8.6,15.08,21.85,23,38,12.87a56.19,56.19,0,0,0,18.45-19.25A50.09,50.09,0,0,0,229.79,297C230.69,293.43,233.63,287.25,229.83,284.46ZM210.52,314.9c-4.11,4.42-10.12,9.58-16.25,10.86-8,1.67-13.59-4.28-18.11-9.94-5-6.23-9.51-14.66-7.27-22.89,2.16-8,10.38-12.56,17.86-14.38,13.52-3.28,25.44,2.37,36.8,9C221.18,297.73,217.88,307,210.52,314.9Z"/><path class="buckwheatbuckwheatcls-1" d="M219.32,363.31l-.14,0c-4.15-1.24-8-3.38-12.11-4.84a78,78,0,0,0-13-3.54c-8.46-1.45-17.33-.89-24.92,3.42-15.15,8.62-14.36,26.27-7.81,40.5,6.2,13.46,20.6,22.53,34.91,14.86,14.77-7.91,26.44-31.07,26.18-47.42C222.41,364.18,221,363.79,219.32,363.31Zm-18.91,37.44c-11,12.77-26,9.42-33-5.45-3-6.24-5.79-14.66-4.43-21.59,1.67-8.42,11.61-13,19.24-13.67,11.06-.92,23.27,3.36,34,6.77C212.28,378.76,208.88,391,200.41,400.75Z"/><path class="buckwheatbuckwheatcls-1" d="M293.41,339.75c-2.23-16.52-16.68-26.5-33-24.1-16.58,2.44-30.62,13.06-27.27,31,1.64,8.76,6.23,16.68,11.6,23.66,2.82,3.65,5.56,7.63,8.89,10.94,2,2,8.59,8.27,11.75,6.45C281,378.7,295.94,358.52,293.41,339.75Zm-8.71,11.49c-3.15,11.88-12.05,19.31-19.3,28.28-2.77-16.58-5.13-31.9-4.21-48.92.09-1.57-2.58-2-2.8-.37-2.28,16.53-2.17,35.41,3.32,51.41a98.94,98.94,0,0,1-18.86-24.14c-3.89-7.1-7-16.52-3.44-24.4,3.16-6.92,15.05-10.56,21.79-11.43C279.21,319.34,289,335,284.7,351.24Z"/><path class="buckwheatbuckwheatcls-1" d="M326.47,353.55a127.52,127.52,0,0,0,16.64,7.53c3,1.08,6,2,9.07,2.8,2.06.53,5.09,1.58,6.31-.92,7.76-15.87,7.44-39.52.27-55.52-7.27-16.22-21.9-13.14-35-5.35-12.27,7.3-25.06,20-16.92,35.1C311.08,345.05,318.86,349.49,326.47,353.55Zm1.62-46.86c6.7-3.75,16-8.33,21.76-.55,3.7,5.05,4.91,13,5.47,19.1,1,11.11-1.86,21.49-3.08,32.29-11.37-3.35-22.84-8.36-32.39-15.33C302.42,329.46,313.81,314.7,328.09,306.69Z"/><path class="buckwheatbuckwheatcls-1" d="M346.26,377.69c-9.71-1.37-19.66,1.36-28.48,5.26a94.66,94.66,0,0,0-13.38,7.29c-2,1.32-4,2.72-5.95,4.18-1.52,1.16-4,2.57-5.1,4.18-3,4.58,5.74,13.19,8.17,16.48a109.26,109.26,0,0,0,9.13,11c6,6.23,13.57,12.13,22.5,12.94,16.4,1.49,30.53-12.77,34.51-27.72C371.61,396.53,362,379.91,346.26,377.69Zm13.2,34.36c-4.35,13.59-19.69,26.12-33.6,16.83-9.69-6.47-18.06-17.05-24.67-26.71,15.86,1.2,31.54,3,47.38,4.63,2,.21,2.37-3,.46-3.42a211.93,211.93,0,0,0-47.54-4.61c9.34-7.13,20.42-11.57,31.92-14.15,8.22-1.83,15.41-1.76,21.53,4.71S362.1,403.79,359.46,412.05Z"/><rect class="buckwheatbuckwheatcls-2" width="512" height="512"/></g></g></svg>