<svg xmlns="http://www.w3.org/2000/svg" viewBox="0 0 512 512"><defs><style>.bulgurbulgurcls-1{fill:#4a2d2d;}.bulgurbulgurcls-2{fill:none;}</style></defs><g id="Capa_2" data-name="Capa 2"><g id="bocetos"><path class="bulgurbulgurcls-1" d="M312.28,115.86c-15.09,3.62-31.58,21.77-33.4,37.33-1.94,16.54,13.83,20.76,26.31,14.55,14.08-7,33.95-15.42,31.53-34.17-1-7.35-3.64-13.76-10.67-16.92-6.64-3-13.59-2.77-19.32,1.67-1.87,1.45.16,4.66,2.29,3.93,5.84-2,11-2.09,16,1.55s7.09,12.3,5.1,18.32c-3,9.13-17.71,14.82-25.42,19.32-7.14,4.17-19.82,7.16-20.92-5.08-.51-5.67,3.11-11.51,6.07-16.05,6-9.18,13.3-16.14,23.68-20,2.77-1,1.71-5.2-1.24-4.49Z"/><path class="bulgurbulgurcls-1" d="M396.47,171.51c-4.08-5.36-9.42-9.55-14.69-13.68-4.81-3.77-9.78-8.52-16.08-9.4-6.67-.92-12.76,6.25-16.19,11.11-11,15.59,10.57,29.56,21.68,37.62,5.72,4.15,12.64,8.66,20,6,5.16-1.9,9.73-8.9,11.57-13.89C405.05,183,400.07,176.22,396.47,171.51Zm-4.66,21.72a9.82,9.82,0,0,1-2.79,2.09c-5.62,2.76-11.85-2.9-16.13-5.89a108.21,108.21,0,0,1-11.13-8.9c-3.23-2.94-7.74-6.25-8.72-10.69-1.66-7.48,6.58-15.75,14.09-13.64,3.06.87,5.49,3.45,8,5.28,2.75,2,5.54,4,8.21,6.12,5.1,4.1,12.89,11,12.2,18.33a11.78,11.78,0,0,1-2.43,5.75A13.68,13.68,0,0,1,391.81,193.23Z"/><path class="bulgurbulgurcls-1" d="M275.58,112.82A17.91,17.91,0,0,0,261.81,98.5a33.13,33.13,0,0,0-12.07-.6c-4.73.6-8.46,1.42-10.94,5.88a45.77,45.77,0,0,0-4.81,15c-.93,6.32-.55,12.75-.55,19.12.31,6.63.87,15.26,6.46,19.85,5.35,4.4,12.53,3.25,17.77-.72,6.29-4.75,9.9-13,13-20C273.91,129.7,277.09,120.91,275.58,112.82Zm-16.05,31.25a41,41,0,0,1-4.57,7.54c-4.22,5.06-11.06,3-13.81-2-1.92-3.51-1.92-9.61-2.19-13.43-.33-4.62-.3-9.32-.18-13.94.11-4.25.5-8.66,2.66-12.33,3.59-6.11,10.77-6.16,17-5.09,11.89,2.06,11.13,14.4,8,23.52a105.13,105.13,0,0,1-5.13,11.78C260.74,141.39,260.15,142.73,259.53,144.07Z"/><path class="bulgurbulgurcls-1" d="M218.21,163.69c-3.94-9.59-7.6-19.94-14.47-28-3.42-4-7.14-6.21-12.53-4.69-4.81,1.35-9.09,4.79-12.37,8.46-3.48,3.91-9.39,9.83-8,15.66.69,3,3.27,5.25,5.12,7.46,3.36,4,6.66,8,10.29,11.79,7.3,7.53,24.33,23.34,33,8.48C222.81,176.7,220.69,169.75,218.21,163.69Zm-4.11,11.15c-2,13.85-15.54.88-18.2-1.37-5.07-4.31-12.09-9.4-16-14.9-4.86-6.84-1.93-11.56,3.23-17.12,2.73-2.95,8.58-8.56,13.12-6.56a6.27,6.27,0,0,1,3,3.66c3.3,8.41,7.65,16.42,11.2,24.74C211.47,165.72,214.53,171.86,214.1,174.84Z"/><path class="bulgurbulgurcls-1" d="M287.52,212c-.43-7.89-6.88-14.86-13.67-19.38-3-2-6.18-3.78-9.38-5.48-5.72-3-11.77-5.58-18.14-2.89-5.53,2.33-9.9,7.81-11.68,13.45-5.07,16,14.31,24.65,25.57,30.6a19,19,0,0,0,25.2-7.59A16,16,0,0,0,287.52,212Zm-27.62,8.23c-6.34-3.48-17.95-7.92-19.84-15.63-1.23-5,2.61-11.84,7.17-14.25,6.05-3.19,11.75.64,16.83,3.46s10.34,5.48,14.1,9.84c4.58,5.3,3,12.39-1.28,17.31C271.85,226.68,265.43,223.27,259.9,220.24Z"/><path class="bulgurbulgurcls-1" d="M341,195.73c-3.67-8.77-10-20.68-21.07-20.21-10.6.43-21.26,10-19.44,21a21.59,21.59,0,0,0,1.22,4.38c4.5,11.71,15,26.53,29.4,24.12C345.34,222.64,345.39,206.29,341,195.73Zm-14.37,23.43c-8-.81-13.33-8.6-17.11-14.93-2.72-4.54-5.69-10.26-2.79-15.72,2.64-5,9.17-6.7,14.41-5.85,5.88.94,8.71,6.35,11.16,11.2C336.29,201.81,343,220.82,326.62,219.16Z"/><path class="bulgurbulgurcls-1" d="M169.11,176.15c-2.27-5.74-7.66-10.14-12.71-13.35-6.49-4.13-14.1-6.23-21.76-4.71-4.73.95-7.08,3.77-7.56,8.54-.74,7.52.55,17,2.73,24.23,1.56,5.2,4,11.64,9.34,14.12,5.12,2.39,14,1.63,19.48.68,6.57-1.16,10.36-6.28,11.46-12.6a37.62,37.62,0,0,0-.28-14.65A16.93,16.93,0,0,0,169.11,176.15ZM158.2,198.52c-2.93,1.1-7.67,1.28-10.79,1-8.65-.85-10.78-5.55-12.72-13.06a88.83,88.83,0,0,1-2.35-14c-.51-5.37.88-9.2,7-9.79,4.53-.44,9,1.13,12.78,3.46,3.53,2.15,7.35,4.79,9.43,8.58,2.31,4.19,2,9.7,1.75,14.32C163.11,192.73,162.12,197.05,158.2,198.52Z"/><path class="bulgurbulgurcls-1" d="M222.69,220.16c-6.29-3.08-13.57-4.89-19.26-6.5-7.42-2.1-17.86-5.15-25.46-2.15s-9.7,11.07-9.4,18.49c.4,9.57,7.13,16.35,14.18,22.05,13.18,10.68,31.38,20.34,46.17,6.75,6.33-5.82,9.1-15.51,7.27-23.86C234.64,227.87,229.19,223.33,222.69,220.16Zm-7.22,37.49c-11.09,2.83-25.23-7.26-33.13-14.23-5.3-4.66-10.17-11.72-7.54-19.23,3.23-9.25,11.7-8.57,19.7-7.21,11.4,1.94,26.47,5.61,32.29,17a16.32,16.32,0,0,1-8.21,22.64A20,20,0,0,1,215.47,257.65Z"/><path class="bulgurbulgurcls-1" d="M146.45,233.07c-5.39-.64-11.23-.36-15.61,3.14a96.49,96.49,0,0,0-18.32,19.22,17.61,17.61,0,0,0,9.19,27c13.57,4.32,27.17-13.68,33.14-23.51a24.65,24.65,0,0,0,3-16.09c-.94-5.9-4.72-8.88-10.52-9.68Zm-2.8,29.08c-5.11,6.75-14.46,19-24.18,13-11.28-6.94-1-18.85,4.55-25.14s12.58-14,21.77-10.78C156.85,243.54,148.38,255.89,143.65,262.15Z"/><path class="bulgurbulgurcls-1" d="M209.29,280.15c-5.33-2.63-11.57-4-16.84-5.36-10.3-2.54-24.16-4.89-33.24,2.23-10.55,8.28-6.75,28.25,5.62,32.29,9,2.94,20,2.63,29.39,2.52,6.7-.08,18.37,1.08,23.72-4.11,4.61-4.48,4.22-11.87,1.88-17.37C217.79,285.58,213.88,282.42,209.29,280.15Zm4.93,19.64c-1.47,6.07-11.59,5-16.6,5.29-9.48.52-20.64,1.15-29.89-1.38-6.17-1.69-10.58-10.8-7.51-17,3.38-6.85,9.94-7.57,16.55-7.45a81.11,81.11,0,0,1,20,2.78c5.47,1.52,12.57,3.36,15.57,8.63C214.06,293.72,214.22,296.4,214.22,299.79Z"/><path class="bulgurbulgurcls-1" d="M274.32,248.83a25.35,25.35,0,0,0-9.95-1.84c-10.13.73-19.18,9.33-24.59,17.32-6.28,9.28-11.17,33.48,4.5,37.15,7.74,1.8,16.83-2.53,23.74-5.48,8.67-3.72,19.18-8.3,25.25-15.87,5.48-6.82,5.15-14.9-.91-21.19-3.61-3.75-8.33-6.26-13.12-8.18C277.69,250.12,276,249.44,274.32,248.83Zm5.35,33.42C271.1,287.58,261,292.8,251,294.62c-15.84,2.86-11.26-19.57-6.19-27.35a33.59,33.59,0,0,1,10.87-10.9c3.45-2,7.89-3.75,12-3,4.65.87,9,3,13.28,4.9,3.44,1.49,6.84,3.32,8.16,7.09C292,273.59,285.72,278.49,279.67,282.25Z"/><path class="bulgurbulgurcls-1" d="M347.78,252.85c-5.63-5.59-10.87-11.75-17.59-16.1-3.2-2.08-6.84-3.8-10.71-4-5.88-.29-15.34,4-18.62,9-4.19,6.34.07,13.1,3.14,18.92,6.69,12.68,15.13,27.62,31.64,20.26,5.31-2.36,14.93-7.2,18.11-12.46C357.54,262.21,351.9,256.93,347.78,252.85Zm-2.12,13.45c-1,1.88-6.38,4.18-8.28,5.39-5.25,3.36-12.14,5.94-17.25,1-2.9-2.79-5.14-6.66-7.31-10s-5.11-6.94-6.38-10.57c-1-2.9-1.54-7.7,1.11-10,4.19-3.57,10.78-2.2,15.41-.35,6,2.38,10.24,7.22,14.8,11.56C340.75,256.2,348.51,261,345.66,266.3Z"/><path class="bulgurbulgurcls-1" d="M384.51,227.54l-.83-.07c-5.85-.4-14.08-1.53-18.67,2.94-4.76,4.65-2.3,17.32-2.31,23.09,0,7.21-2.25,17.69,1.09,24.4,2.92,5.87,11,8.28,16.89,9.28,15.2,2.56,18.09-20.2,19.52-31.16.88-6.72,1-14.34-1.76-20.66C396,229.82,390.08,228,384.51,227.54Zm7.42,32.4a123.47,123.47,0,0,1-3.4,14c-.54,1.71-1.15,5.51-2.61,6.55-2,1.42-7.7-.12-9.6-1.06-6.68-3.3-7.54-7.71-7.73-14.23-.15-5-.09-10-.14-15,0-3.22-1.63-10.52-.3-13.34,2.47-5.21,9.26-4.52,13.86-3.2,5.55,1.59,10.77,4.38,11.24,10.79A61.3,61.3,0,0,1,391.93,259.94Z"/><path class="bulgurbulgurcls-1" d="M330.4,295.52c-4.47,0-8.82,1.4-11.79,4.43-4.32,4.4-7.57,8.28-12.88,11.73-3.23,2.09-6.6,4.24-9.22,7.08-8.73,9.48-3.32,25.79,10,27.37,14.46,1.71,33.05-15.91,40.57-26.66,3.71-5.3,3-12.08-.91-17.05C342.77,298,336.47,295.5,330.4,295.52Zm10.26,20.17c-1.52,3.54-6.36,7.61-9.21,10.23-6,5.52-15.52,13.6-24,12.72-7.31-.76-12.3-7.49-7.58-14.67,2.24-3.4,6.78-5.56,10-8,5.68-4.2,10.6-11,17.91-12.63S344.23,307.37,340.66,315.69Z"/><path class="bulgurbulgurcls-1" d="M398.17,325.1c-2.59-5.79-5.06-12.87-11.28-15.6-5.24-2.3-10.64-1.21-15.47,1.53-4.16,2.36-9.79,5.8-11.32,10.59-2,6.17,2.54,13.19,5.68,18.22,5.48,8.74,17.49,24.62,29.59,17.66C407.21,350.69,402.55,334.88,398.17,325.1Zm-3.45,26.36c-9,7.74-18.84-8.29-22.43-13.78-1.44-2.2-3.61-4.89-4.23-7.42-2.61-10.56,12-21.14,19.63-11.57,1.48,1.85,2.61,5.17,3.7,7.29C394.92,332.83,402.68,344.62,394.72,351.46Z"/><path class="bulgurbulgurcls-1" d="M328.65,352.45c-11.61,6.69-13.49,24.31-3.84,33.59,7.17,6.9,19.1,10.94,28,15,9.5,4.35,18.93-.74,19.77-11.16.64-8-2.56-16.19-6.7-22.84C358.16,354.59,343.2,344.06,328.65,352.45Zm17.85,38.41c-2.27-1.05-4.52-2.15-6.73-3.33-4.54-2.42-9.64-4.82-12.53-9.26-4.87-7.48-1.79-16.43,6-20.35,9.45-4.76,18.81,1,24.63,8.53,4.88,6.34,8.49,14.62,8.87,22.67a9.48,9.48,0,0,1-.54,4.2c-1.81,4.28-7.22,2.8-10.52,1.47C352.57,393.56,349.51,392.26,346.5,390.86Z"/><path class="bulgurbulgurcls-1" d="M291.86,361.64a24.06,24.06,0,0,0-9.53-2.46c-10.24-.27-18.22,9-24.91,15.52-5.06,4.93-10.89,10.2-10.5,17.86.32,6.5,4.71,14.17,9.56,18.38,13.1,11.38,28.46-8.25,36.31-17.39,4.47-5.21,8.59-12.27,8.64-19.32C301.48,368.56,297.1,364.18,291.86,361.64Zm-9.7,32.22c-6.41,6.86-14.79,17.48-24.46,8.42-10.37-9.71-1.73-18.67,5.78-25.95,3-2.88,5.94-6,9.17-8.54,6.24-5,18-3.05,20.87,5.25.85,2.48.1,5.15-1,7.44C290.18,385.62,286,389.78,282.16,393.86Z"/><path class="bulgurbulgurcls-1" d="M272,333.69c-1.35-6.08-9-9.65-14.17-11.68-12-4.75-38.06-10.56-48,1.34-6.91,8.24-5,27.57,7,29.77,8.69,1.59,19.64.6,28.45-.19a36,36,0,0,0,16.5-5.56C266.07,344.55,273.34,339.82,272,333.69Zm-38.79,12.82c-4.18,0-10.51,1.28-14.45.21-5.56-1.51-6.87-7.24-6.54-12.56.88-14.1,20.26-11.58,29.8-9.77a58.45,58.45,0,0,1,15.52,5c3.57,1.83,6.73,3.77,4.45,8.05C256.63,347.44,242.8,346.46,233.18,346.51Z"/><path class="bulgurbulgurcls-1" d="M226.45,387.15a18.33,18.33,0,0,0-5.79-13.48c-6.7-5.85-16.2-8.5-24.75-10.16-6.65-1.3-13.7-2.65-19.29,2.18-4.58,4-7.49,11.94-7.59,17.91-.27,17.18,21.29,18.3,33.8,20.39,6.85,1.14,14,1.48,19.08-4A18.41,18.41,0,0,0,226.45,387.15Zm-12,8.88c-4.37,2.59-11.2.69-15.74-.11-7.81-1.37-22.08-2.16-22.73-12.32-.38-5.94,2.58-13.47,9.22-15.09,3.86-.94,9.78,1.28,13.62,2.22a64.83,64.83,0,0,1,12,3.68c3,1.39,7.29,3.5,8.42,6.92C220.68,385.68,218.56,393.59,214.47,396Z"/><path class="bulgurbulgurcls-1" d="M163.53,327.88l-.5-.36c-4.73-3.31-9.17-6.92-14.31-9.61-7.38-3.87-16.44-7-24.83-5-6.14,1.48-11.78,8.07-14.2,13.67-2.61,6.06.12,11.6,4.5,16,6.19,6.18,14.81,10.29,22.84,13.5,6.63,2.65,15.19,6.06,22.37,3.57,6.77-2.35,10.24-10.45,10.75-17.09C170.64,336.24,168.49,331.54,163.53,327.88Zm-8.8,23.9c-3.64.53-8.65-1.76-12-2.93-7.06-2.47-17.53-5.81-23.15-11-8.33-7.76-2-18.86,8-19.56,3.93-.28,9.06,1.46,12.77,2.76,6.24,2.19,13.36,6.06,17.95,10.9a12.23,12.23,0,0,1,3.51,8.95C161.55,345.28,159.83,351,154.73,351.78Z"/><rect class="bulgurbulgurcls-2" width="512" height="512"/></g></g></svg>