<svg xmlns="http://www.w3.org/2000/svg" viewBox="0 0 512 512"><defs><style>.carawaycarawaycls-1{fill:none;}.carawaycarawaycls-2{fill:#cf923a;}.carawaycarawaycls-3{fill:#4a2d2d;}</style></defs><g id="Capa_2" data-name="Capa 2"><g id="bocetos"><rect class="carawaycarawaycls-1" width="512" height="512"/><path class="carawaycarawaycls-2" d="M231.46,119.33c-4.47-18.44-11.71-45.51-29.33-55.67-4.4-2.53-7-.36-10.9,2.81-45.07,18.26-66.68,64.69-77.53,107.9-13.1,52.19,22.92,95.21,48.58,136.88,2.22,3.6,6.6,3,8.92,0,29.23-38.1,57.13-75.35,63.61-124.38A184.09,184.09,0,0,0,231.46,119.33Z"/><path class="carawaycarawaycls-2" d="M389,200.39c-2.35-6.65-13-3.79-13.43-3.76-22,2-44.83,12.73-64.88,21.67S272,239.25,257,255.59c-30.37,33-45.86,76.74-51.15,120.72-1.54,12.78-2.37,25.66-2.65,38.53-.14,6.49-2.19,18.14,4.93,22.21,7.38,4.21,21.63-.5,29-2.44a234.41,234.41,0,0,0,31.94-11.12C309.6,406.24,347.2,378,373.42,342.41,403.67,301.34,405.57,247.49,389,200.39Z"/><path class="carawaycarawaycls-3" d="M190.84,75.85c-12.33,14.86-22.55,32.62-31.4,49.74-8.69,16.8-14.64,34.66-16.65,53.51-4.15,38.94,4.67,84.44,23.28,119,1.4,2.59,5.34.79,4.66-2-4.52-18.31-12.26-35.74-16.79-54.11-4.78-19.37-7.79-39.15-6.51-59.14,1.33-20.7,7.46-40.18,17-58.55,8.46-16.29,20.47-30.16,29.78-45.88,1.2-2-1.77-4.49-3.36-2.58Z"/><path class="carawaycarawaycls-3" d="M172,299.77c22.34-35.31,35-79.26,38.73-120.62,1.88-21,.77-42.36-2.12-63.24-1.65-11.85-2.74-33.28-12.09-42.32-2.46-2.37-6.1.62-4.61,3.56,6.55,13,8.43,29.65,10.25,43.8a311.1,311.1,0,0,1,1.76,59.94,264,264,0,0,1-10.24,57.55c-6.13,20.89-15.87,39.71-25.5,59.1a2.21,2.21,0,0,0,3.82,2.23Z"/><path class="carawaycarawaycls-3" d="M192.44,77c-9.33,35.7-15.71,72.65-20.27,109.24q-3.54,28.29-5.5,56.73c-1.21,17.31-4.39,36.69-1.21,53.87.41,2.2,3.88,2.11,4.36,0,3.6-16.12,2.29-33.93,3.52-50.4,1.41-18.91,3.33-37.78,5.53-56.62,4.4-37.55,10.15-74.63,17.69-111.68.54-2.67-3.42-3.82-4.12-1.14Z"/><path class="carawaycarawaycls-3" d="M374.94,206.16c-39.18,21.39-75.3,50.21-103.46,85a214.16,214.16,0,0,0-32.3,55.8c-9.23,23.09-18.8,47.71-23.77,72.1-.51,2.53,3.32,4.59,4.48,1.88,18.7-43.34,26.35-89.42,57-127,27.66-33.92,62.87-61.63,100.72-83.31,2.93-1.67.32-6.14-2.65-4.52Z"/><path class="carawaycarawaycls-3" d="M217.48,428.61c40.8-21.47,82.71-45.7,109.76-84.19,14.51-20.63,26.21-44.23,36.74-67.11,9.3-20.19,19.82-45.35,15.92-68.05-.47-2.77-5.24-2.83-5.66,0-1.74,11.8-2,23.45-5.14,35.08a214.59,214.59,0,0,1-12.87,34.74c-9.9,21.23-20.84,43-34.21,62.29-26.38,38-67.67,60.73-106.65,83.64-2.32,1.37-.27,4.85,2.11,3.6Z"/><path class="carawaycarawaycls-3" d="M374.22,211Q322.31,274.62,271,338.76c-12.38,15.43-24.33,30.89-35.1,47.49-9.06,13.95-19.26,28.11-25.77,43.48-1.33,3.15,2.89,5.91,4.74,2.77C261,354.17,321.64,285.73,377.58,214.32c1.85-2.37-1.41-5.75-3.36-3.36Z"/></g></g></svg>