<svg xmlns="http://www.w3.org/2000/svg" viewBox="0 0 512 512"><defs><style>.cardamomcardamomcls-1{fill:none;}.cardamomcardamomcls-2{fill:#9e991c;}.cardamomcardamomcls-3{fill:#4a2d2d;}.cardamomcardamomcls-4{fill:#d8d6a4;}.cardamomcardamomcls-5{fill:#fff;}</style></defs><g id="Capa_2" data-name="Capa 2"><g id="bocetos"><rect class="cardamomcardamomcls-1" width="512" height="512"/><path class="cardamomcardamomcls-2" d="M438.42,152.91a218.35,218.35,0,0,0-37.33-36.84C340.92,69,261.34,55.88,188.71,79.17c-22.13,7.1-43.82,17-67.46,17.41a66.33,66.33,0,0,1-33.39-7.76c-5.3-2.88-10.23-5.77-15.64-7.68L72,81a19.65,19.65,0,0,0-6.47-1.6c-.49-.08-1-.19-1.45-.25a2.25,2.25,0,0,0-1.49.31c-12.88,1.46-20,18.17-11.39,30.32,7.28,10.21,18.74,17.13,26.57,27.08,8.27,10.5,14.73,22.33,20.8,34.2,11.63,22.79,22.14,46.92,40.8,65a106.18,106.18,0,0,0,33.48,22c19.64,8.12,41.69,10.06,62.73,10.89,35,1.38,72.48-6.12,106.29-15.09,38.27-10.16,83.83-27.07,106.9-61.35C458.41,178.16,447.45,164.4,438.42,152.91Z"/><path class="cardamomcardamomcls-3" d="M113.5,148.32c11.61,22.5,32.77,40.85,54.05,54,20.65,12.72,47.93,24.82,72.7,23,2-.15,2.63-3.09.5-3.67-11.7-3.14-23.7-4.7-35.27-8.41a163.47,163.47,0,0,1-35-16c-22.1-13.41-37.79-31.48-53.44-51.63-1.65-2.12-4.69.57-3.57,2.74Z"/><path class="cardamomcardamomcls-3" d="M257.58,214.6c7.16,2.71,14.76,4.07,22.23,1.83a1.67,1.67,0,0,0-.44-3.27c-7-.45-13.88-.64-20.64-2.72-2.7-.83-3.7,3.19-1.15,4.16Z"/><path class="cardamomcardamomcls-3" d="M172.64,144.35c56.32,27.27,126.3,52.32,188.92,33.19,2.3-.7,1.29-3.83-1-3.51-32.43,4.66-64.43,4.18-96.5-2.89-30.83-6.8-60-18.7-89-31-2.83-1.2-5.36,2.83-2.47,4.23Z"/><path class="cardamomcardamomcls-3" d="M374.52,193.37c8.67.67,17.21.26,24.59-4.79a1.63,1.63,0,0,0-1.25-3c-7.69,1.79-15.35,4.27-23.34,4-2.42-.07-2.36,3.55,0,3.73Z"/><path class="cardamomcardamomcls-3" d="M410.38,164.15a73.55,73.55,0,0,0-6.6-6.25c-2.09-1.7-4.54-3.83-7.28-4.23a1.91,1.91,0,0,0-2.13,2.77c1.25,2.36,3.77,4,5.77,5.74,2.2,1.87,4.35,3.78,6.4,5.81,2.49,2.47,6.26-1.31,3.84-3.84Z"/><path class="cardamomcardamomcls-3" d="M225,110.47c48.36-2.44,93.15,7.41,136.94,27.84,2.18,1,4-1.95,1.91-3.26C323.4,110,272.14,99.7,225,105.26c-3.24.39-3.42,5.39,0,5.21Z"/><path class="cardamomcardamomcls-4" d="M456.85,248s-4.72-6.87-30.47-6-39.05,6-61.36-3.43S302.38,218.81,278.35,224s-66.94,32.18-81.53,38.62S145.76,281,131.17,294.76,113.58,333.8,120,351s36,34.32,55.35,35.18,54.49-12,73.8-10.3,41.19.43,54.07-5.15,26.17-25.74,45.05-30.46,38.19-20.17,47.63-31.32,21.45-27.89,31.75-31.33,29.6-11.15,33-16.3S456.85,248,456.85,248Z"/><path class="cardamomcardamomcls-2" d="M114.87,350.54S128.6,399,166.79,422.19s87.1,25.32,117.14,19.31,50.2-32.61,72.94-36,43.77-7.72,61.79-33.9,46.1-108.06,46.43-115.17-3.1,1-7.39,6.19-30,10.72-36,17.16-42.05,46.77-52.35,51.06S332,342,325.55,350.11,289.93,378,273.2,377.57s-45.91-5.15-55.78-1.72-34.76,7.73-54.06,6.44-27.47-11.59-33.47-15.45S114.87,350.54,114.87,350.54Z"/><path class="cardamomcardamomcls-3" d="M237.17,366.37A19.73,19.73,0,0,1,222.9,360a18.33,18.33,0,0,1-5.15-13.77c.63-10,11.38-16.18,21-16.18a21,21,0,0,1,4.9.56,17.06,17.06,0,0,1,9.52,6.33c4.5,6,5.57,17,.23,22.23a25.26,25.26,0,0,1-14.72,7.12c-.49,0-1,.06-1.48.06Z"/><path class="cardamomcardamomcls-3" d="M186.54,365.71a24.24,24.24,0,0,1-20.38-11A20.59,20.59,0,0,1,164,336.93,21.23,21.23,0,0,1,177,323.87a18.77,18.77,0,0,1,6.4-1.07,27.62,27.62,0,0,1,17.28,6.61c5.08,4.3,7.76,9.71,7.57,15.25-.22,6-2.66,11.77-6.53,15.29a22.42,22.42,0,0,1-15.13,5.76Z"/><path class="cardamomcardamomcls-3" d="M229.73,321.35a22.68,22.68,0,0,1-20.18-11.71c-5-9-4.08-20.52,2.23-27.92a25,25,0,0,1,19.13-8.48,23.16,23.16,0,0,1,18.9,9A24.39,24.39,0,0,1,242.43,318a23,23,0,0,1-3.12,1.48,26.2,26.2,0,0,1-9.58,1.83Z"/><path class="cardamomcardamomcls-3" d="M279,351.55a27.58,27.58,0,0,1-6.79-.81c-4-1-6.12-3.07-7-6.69-1.49-6.47-.72-14.44,1.86-19.37A20.71,20.71,0,0,1,277.57,315a16.46,16.46,0,0,1,6.18-1.24c7.41,0,13.84,5.27,16,13.12,1.55,5.62,1.06,10.88-1.41,15.19a18.46,18.46,0,0,1-11.67,8.47,30.15,30.15,0,0,1-7.65,1Z"/><path class="cardamomcardamomcls-3" d="M326.85,334.33a23.89,23.89,0,0,1-11.45-2.84,22.58,22.58,0,0,1-10.27-12.6c-2.74-8.3-.55-15.69,5.85-19.78a23.43,23.43,0,0,1,19-2.36,22.49,22.49,0,0,1,13.44,11.47,19.74,19.74,0,0,1,.78,15.72c-2.85,7.66-10.83,10.39-17.36,10.39Z"/><path class="cardamomcardamomcls-3" d="M365.93,314.11a17.91,17.91,0,0,1-13.13-5.33,15.66,15.66,0,0,1-4-12.26A22.68,22.68,0,0,1,357,280.83a19.17,19.17,0,0,1,11.64-3.78,20.53,20.53,0,0,1,11,3.12,15,15,0,0,1,7.14,11.52,20.83,20.83,0,0,1-4.88,15.6,21.91,21.91,0,0,1-15.91,6.82Z"/><path class="cardamomcardamomcls-3" d="M336.21,282.75c-7.65,0-14.48-3.85-17.38-9.81a16.56,16.56,0,0,1-.24-13.13,21.17,21.17,0,0,1,10.91-11.89,18.47,18.47,0,0,1,7.31-1.48,18.1,18.1,0,0,1,9,33.87,19.3,19.3,0,0,1-9.63,2.44Z"/><path class="cardamomcardamomcls-3" d="M287,300.38c-9.91,0-22.05-5.17-26.09-15.06-2.34-5.74-1.36-12.3,2.78-18.45,5.26-7.83,14.6-13.29,22.71-13.29h.63a24.29,24.29,0,0,1,19.32,10.88,23.64,23.64,0,0,1,2.76,19.45A22.81,22.81,0,0,1,297,298.38a23.78,23.78,0,0,1-9.9,2Z"/><path class="cardamomcardamomcls-5" d="M223,300.32a4.81,4.81,0,0,0,1-.11c.34,0,.68-.07,1-.15a5.77,5.77,0,0,0,1.85-.81,5,5,0,0,0,1.87-1.72,5.65,5.65,0,0,0,.56-.73,3.5,3.5,0,0,0,.69-1.72,7.49,7.49,0,0,0,0-3.82l-.66-1.57a4.91,4.91,0,0,0-1.69-1.84,3.28,3.28,0,0,0-1.45-.85,4.9,4.9,0,0,0-2.53-.56l-1.75.23-1.56.66a5,5,0,0,0-1.85,1.7,4.85,4.85,0,0,0-1.17,2.23s0,.08,0,.12l.66-1.58a.88.88,0,0,1-.12.21l1-1.35a7.2,7.2,0,0,0-1.78,3,2,2,0,0,1-.07.23l.67-1.57-.09.15,1-1.32a.8.8,0,0,1-.13.13l1.31-1-.05,0-1.3,1a4.83,4.83,0,0,0-1.33,2.07,3.28,3.28,0,0,0-.44,1.62,4.85,4.85,0,0,0,.12,2.56l.65,1.53,1,1.3a4.77,4.77,0,0,0,2.07,1.33,4.85,4.85,0,0,0,2.47.55Z"/><path class="cardamomcardamomcls-5" d="M274.13,265.65a13.58,13.58,0,0,0-1.93.81,7.88,7.88,0,0,0-2.81,2.81c-.36.69-.62,1.42-.91,2.14a8.82,8.82,0,0,0,.78,6l1.22,1.58a5.84,5.84,0,0,0,2.52,1.61,3.88,3.88,0,0,0,2,.53,5.78,5.78,0,0,0,3.11-.14l1.86-.78a7.83,7.83,0,0,0,2.8-2.8,8.13,8.13,0,0,0,.54-1.21,5.87,5.87,0,0,0,.68-3,5.75,5.75,0,0,0-.31-2.15,8.56,8.56,0,0,0-3.56-4.62l-1.84-.79a8,8,0,0,0-4.12,0Z"/><path class="cardamomcardamomcls-5" d="M332.41,271.59c6.9,0,6.92-10.73,0-10.73s-6.91,10.73,0,10.73Z"/><path class="cardamomcardamomcls-5" d="M177.94,350.78a6.63,6.63,0,0,0,3.32-.74,7.74,7.74,0,0,0,4.55-4.55,6.53,6.53,0,0,0,.74-3.32l-.31-2.29a8.51,8.51,0,0,0-2.21-3.79l-1.74-1.35a8.61,8.61,0,0,0-4.35-1.18,6.5,6.5,0,0,0-3.31.75,7.76,7.76,0,0,0-4.55,4.54,6.45,6.45,0,0,0-.74,3.32l.31,2.29a8.51,8.51,0,0,0,2.21,3.8l1.74,1.34a8.6,8.6,0,0,0,4.34,1.18Z"/><path class="cardamomcardamomcls-5" d="M234.32,349.15l.05,0-1.37.57h0l-1.52.21h0l-1.53-.21h0l-1.37-.58,0,0-1.16-.9,0,0-.9-1.16a.25.25,0,0,1,0,.07l-.57-1.36s0,0,0,.06a4.23,4.23,0,0,0,1,1.94,4.17,4.17,0,0,0,1.6,1.46l1.36.58a4.28,4.28,0,0,0,2.27.1,2.78,2.78,0,0,0,1.44-.39,4.26,4.26,0,0,0,1.84-1.18l.89-1.15a5.81,5.81,0,0,0,.78-2.88,8,8,0,0,0-.22-1.62l-.59-1.39v0a4.42,4.42,0,0,0-.92-1.19l-1.17-.9a5.17,5.17,0,0,0-.7-.3,4,4,0,0,0-2.24-.5,5.87,5.87,0,0,0-3,.8,5.52,5.52,0,0,0-2.74,5.72,4.23,4.23,0,0,0,.68,2.14l.9,1.16a5.68,5.68,0,0,0,2.53,1.47l1.52.21a5.77,5.77,0,0,0,2.9-.79Z"/><path class="cardamomcardamomcls-5" d="M280.92,341.58a7.11,7.11,0,0,0,4.59-1.9,4.79,4.79,0,0,0,1.35-2.09,5,5,0,0,0,.56-2.5l-.23-1.73a6.45,6.45,0,0,0-1.68-2.86l-1.31-1a6.48,6.48,0,0,0-3.28-.88,4.79,4.79,0,0,0-2.5.56,4.92,4.92,0,0,0-2.09,1.34,7.25,7.25,0,0,0-1.9,4.59l.23,1.73a6.53,6.53,0,0,0,1.67,2.86l1.32,1a6.37,6.37,0,0,0,3.27.88Z"/><path class="cardamomcardamomcls-5" d="M321.47,319.06c7.53,0,7.55-11.71,0-11.71s-7.54,11.71,0,11.71Z"/><path class="cardamomcardamomcls-5" d="M366.52,303.27a5.13,5.13,0,0,0,2.62-.59,5.06,5.06,0,0,0,2.19-1.4,5.12,5.12,0,0,0,1.4-2.19,5,5,0,0,0,.59-2.62l-.24-1.8a6.91,6.91,0,0,0-1.75-3L370,290.61a6.67,6.67,0,0,0-3.43-.93,7,7,0,0,0-6.79,6.79l.24,1.81a6.81,6.81,0,0,0,1.75,3l1.37,1.06a6.7,6.7,0,0,0,3.43.93Z"/><path class="cardamomcardamomcls-3" d="M447.55,239.05c-15.9-3.56-32.58,1.76-48.47,2.68-18,1.05-31.81-6.55-48-12.88a140.67,140.67,0,0,0-43.7-9.57c-31.24-1.67-59.34,7.77-85.32,24.61-14.78,9.58-29.87,16.28-46.36,22.34-13.31,4.89-26.8,10.06-38.38,18.41-17.53,12.64-28.65,34.09-25.65,55.9,4.64,33.66,40.36,51.28,71.28,49,17.62-1.29,34.66-6.45,52.21-8.14,15-1.44,30.06,1.05,45.1.15,16-.95,28.22-6.65,39.48-17.94,13.15-13.19,27.57-18.39,44.3-25.7,14.16-6.19,24.7-15.41,34.63-27.1,6.6-7.77,13.51-15.61,21.31-22.32.29-.33.59-.68.89-1a45.09,45.09,0,0,1,7.75-6.65c5.86-3.83,12.48-5.58,18.86-8.26,5.33-2.23,11-4.95,14.61-9.64a16.36,16.36,0,0,0,3-6.56C465.28,246.76,456,240.94,447.55,239.05Zm7.21,22.37c-2.22,3.7-8.73,4.79-12.57,5.6-6.37,1.33-12.47,2.42-18.4,5.21A51.61,51.61,0,0,0,404.2,288.3c-7.66,8-14.35,17.26-22.06,25C364,331.37,336.69,333.2,318,350.55c-11.32,10.51-20.13,18.56-36.27,19.84-12.61,1-25.27-.85-37.89-.71-29.16.33-58.55,13.73-87.65,6.6a46.48,46.48,0,0,1-31.28-25.87q-1.41-3.65-2.65-7.37a44.34,44.34,0,0,1,5.39-35.36c15.29-24.33,46.8-29.8,71.4-40,13.35-5.52,24.8-13.71,37.1-21.13a128.19,128.19,0,0,1,38.27-15.41c29-6.46,57.22-2.75,83.95,9.76,13.29,6.22,25.83,10.38,40.7,9.6,15.59-.83,33.05-6.85,48.5-2.54C453.92,249.73,459,254.36,454.76,261.42Z"/></g></g></svg>