<svg xmlns="http://www.w3.org/2000/svg" viewBox="0 0 512 512"><defs><style>.carrotcarrotcls-1{fill:none;}.carrotcarrotcls-2{fill:#fe9736;}.carrotcarrotcls-3{fill:#4a2d2d;}</style></defs><g id="Capa_2" data-name="Capa 2"><g id="bocetos"><rect class="carrotcarrotcls-1" width="512" height="512"/><path class="carrotcarrotcls-2" d="M285,168.2s-22.64-16.17-53,1.94-66.62,83.43-98.31,142.94-71.8,120.3-61.45,138.41,38.81,0,70.5-22.64S274.63,296.26,297.27,269.74s31.05-53.68,27.81-69.2-7.76-14.23-7.76-14.23-31.05,21.34-34.28,11S285,168.2,285,168.2Z"/><path class="carrotcarrotcls-3" d="M433.27,141.07c-2.06-9.37-16.54-8.23-23.39-7.36-15.93,2-31,7.63-45.61,14.12-21.11,9.39-43.22,19.47-62.16,33.33,19.43-21.36,38.28-43.31,57.83-64.56,11.56-12.55,24.44-25.19,34.18-39.24,4-5.81,9.33-19.41-1.59-21.46-10.71-2-23.36,8.59-30.2,15.51-11.1,11.22-20.61,24.6-29.86,37.35-9.87,13.58-19.18,27.57-27.8,42a252.19,252.19,0,0,0,6.43-34.09,216.45,216.45,0,0,0,.51-45.52c-.71-7.72.16-24.12-8.76-28s-11.7,5.2-12.47,12.16c-1.71,15.21-2,30.56-2.85,45.83-1.7,31.75-4.91,63.32-12.49,94.26-1.18,4.81-.22,13.47,12.21,10.56,9-2.11,15.16-5.58,22.54-8.77q11.81-5.12,23.77-9.8c13.68-5.38,27.53-10.32,41.47-15s27.91-8.8,41.89-13.13C424.58,156.9,435.5,151.2,433.27,141.07ZM354.58,94.69C362,85.46,369.75,75.09,380.16,69c.92-.53,6.76-4.39,8-3.51,4.52,3.19-1.66,9.78-3.61,12.09-4.7,5.6-10,10.72-14.91,16.16-9.87,11-19.66,22-29.17,33.24-11.34,13.44-23.37,26.25-35.29,39.15,7.21-12.11,14.75-24,22.74-35.64Q340.58,112.1,354.58,94.69ZM294.44,124c1-11.39,1.62-22.8,2.21-34.21.31-6,.54-12,.81-18,.19-4.26-1.32-14.68.57-18.17,2.81-5.2,4.82,2.69,5.11,5.67.31,3.35.44,6.74.54,10.1.17,5.63.13,11.26-.06,16.89a253.4,253.4,0,0,1-4.39,38.93,256,256,0,0,1-9.57,35Q292.89,142.26,294.44,124Zm122.12,24.87c-21.34,7.74-43.42,13.53-64.75,21.5q-16.59,6.21-33,12.88c-4.08,1.67-8.52,3.22-13,4.9,15.23-10.22,32.05-18.12,48.57-26.05,12.75-6.12,25.66-12,39.36-15.67a94.86,94.86,0,0,1,20.8-3.57c.49,0,7.4-.48,8,.78C424,146.63,418,148.31,416.56,148.84Z"/><path class="carrotcarrotcls-3" d="M147,358.25c5.57,15,22.54,27.4,39,22.74a2.1,2.1,0,0,0-.56-4.11c-14.7.07-28.48-5.2-34.48-19.72-1-2.38-4.88-1.42-3.95,1.09Z"/><path class="carrotcarrotcls-3" d="M180.31,323.35c8.1,11.5,20.66,24.17,35.57,25.33,2,.16,2.72-2.83,1-3.75-5.65-3-11.72-4.9-17.14-8.47a57.55,57.55,0,0,1-15.94-15.16c-1.47-2.14-5-.08-3.51,2.05Z"/><path class="carrotcarrotcls-3" d="M214.87,287.93c6.91,12.12,22,24.47,36.94,21.42,1.74-.36,1.59-2.93,0-3.37-6.4-1.76-12.53-2.37-18.47-5.67a39,39,0,0,1-14.8-14.53c-1.37-2.36-5-.23-3.67,2.15Z"/><path class="carrotcarrotcls-3" d="M252.46,254.08c6.8,11.46,19.18,20.89,33,21,2.14,0,2.64-3.25.51-3.76-12.42-3-22.89-8.16-29.86-19.37-1.41-2.28-5-.21-3.6,2.11Z"/><path class="carrotcarrotcls-3" d="M122.29,411.52c5.72,6.9,15.8,9.71,23.86,5.27a1.68,1.68,0,0,0-1.28-3.06c-7.21,1.84-14.57.6-19.77-5-1.76-1.91-4.43.88-2.81,2.82Z"/></g></g></svg>