<svg xmlns="http://www.w3.org/2000/svg" viewBox="0 0 512 512"><defs><style>.cauliflowercauliflowercls-1{fill:none;}.cauliflowercauliflowercls-2{fill:#feefbf;}.cauliflowercauliflowercls-3{fill:#4a2d2d;}.cauliflowercauliflowercls-4{fill:#6a8c2a;}.cauliflowercauliflowercls-5{fill:#fff;}</style></defs><g id="Capa_2" data-name="Capa 2"><g id="bocetos"><rect class="cauliflowercauliflowercls-1" width="512" height="512"/><path class="cauliflowercauliflowercls-2" d="M474.74,221.35a30.5,30.5,0,0,1,3.36-.83c-2.54-8.85-12.06-15.17-21.57-17,5.27-9.73,3-18.86-3.15-29.33-5.77-9.81-19.11-16.56-30.39-15.67,2.32-10.33,3.72-22.63-3.68-30.61-8.51-9.19-20.69-12.71-32.83-13,2-22.64-27.53-39.54-45.84-27.2-1.82-14.47-17-26.9-30.33-29.87-14.66-3.26-22.85,1.44-32.15,12.7-8.89-11.85-26.67-19.24-41.26-15C226,58.69,213,71.84,210.9,83.7c-10.83-10-31.63-10.91-43.41-4.84-14.25,7.34-22.41,22.9-22.06,38.48-22.48-8-44.64,17.62-36.58,39.8-22,1.58-39.85,22.62-39.39,43.59a18.36,18.36,0,0,1,5.11-1.94c-.88,6.28-1.09,11.16-1.09,11.16s145.4,201.8,163.37,206.82,34.68.42,76.23-19,165.27-153.15,162.34-173.2A24.34,24.34,0,0,0,474.74,221.35Z"/><path class="cauliflowercauliflowercls-3" d="M459.69,200c6-22.76-11.34-41.21-34.82-43.39,5.48-29.46-12.76-43.83-36.73-46.12-.85-23-25.11-33.61-46.15-25.18-6.72-13.11-17.38-27.92-32.33-30.51-12.29-2.14-23.6,4.58-31.91,13.46-7.48-11.19-23.18-18.12-36.28-15.78a40.34,40.34,0,0,0-31,27.28c-28.19-21.58-68.6,2.1-68.48,36.36-11.16-.09-23.31,1.66-31,10.5-8.21,9.44-5.91,20.83-3.08,31.72-28.5-.8-53.07,30.25-37.42,57.45,1.34,2.33,5.35.79,4.44-1.87-4.52-13.23-5.36-26.82,4.57-38.08,8.14-9.25,20.26-13,32.24-11.42,2.32.3,3.42-2.65,2.5-4.36-5.43-10.2-6.51-26.61,4.24-33.84,7.47-5,17.65-4.93,26.28-4.62a2.73,2.73,0,0,0,2.71-2.71c-1-15.18,6.36-30.41,20.21-37.52,14.33-7.37,29.68-3.5,42.19,5.32a2.37,2.37,0,0,0,1.73.43,2.4,2.4,0,0,0,2.77-1.83c3.66-12.65,12.51-24.53,25.88-27.55,12.83-2.89,29.13,3.42,35,16.11,1,2.22,2.15,2.12,3.31.46,7.87-11.16,21.3-15.74,34-11.55,14.09,4.63,20.79,13.9,25.64,25.07.75,1.73,3.13,1.93,4.59,1.2,19-9.53,38.84,3.57,38.8,24.44,0,1.58,1.49,3.43,3.22,3.21,22.06-2.79,41.5,13.14,36.05,39.7a3.17,3.17,0,0,0,3,4c8.58,0,17.27,3,23.46,9,9,8.83,9.6,20.62,7.57,32.35-1.17,2-.79,4.88,2,5.27,12.7,1.79,19.88,9.13,25.22,20.31,1.16,2.42,4.88,1.15,4.88-1.32C487.09,212.08,473,200.65,459.69,200Z"/><path class="cauliflowercauliflowercls-4" d="M254.39,415.52s-12.53-9.2-23-27.16-5.85-43.87-2.5-60.17,3.76-25.49-9.61-32.17-25.49-3.76-31.34-16.3-6.27-30.5-22.14-34.68-20.9,4.18-36.36-12.53-29.24-38.44-49.3-35.93-18.8,16.71-30.08,23.81-32.17-3.76-43,24.24,10,48,19.64,55.15,15,8.77,14.62,11.7S25.84,337,39.63,351.59s36.35,9.19,42.2,12.12c4.18,2.08-20,19.63-2.5,38C93.81,416.9,137,426.38,184.62,427.21s65.6-5,70.61-5.85S254.39,415.52,254.39,415.52Z"/><path class="cauliflowercauliflowercls-4" d="M251.89,414.26s17.13-7.1,39.27-41.36,19.64-105.71,38-119.92,40.12,7.1,40.12,7.1,10-40.94,33.42-46.37,32.59,23.81,37.61,23.39,43.45-31.33,62.25-17.54-15,53.89-11.28,62.67,21.73,16.71,16.3,35.1-36.77,21.72-35.1,33,16.52,24.16,7.21,34.89c-19.22,22.15-75.32,8.1-76.15,13.95s13.47,7.21,0,20.52c-12.22,12.08-66.85,14.63-106.55,10s-47.21-13-47.21-13Z"/><path class="cauliflowercauliflowercls-3" d="M135.49,198.58C131.2,166.25,169.37,163.22,192,166c2.66.33,3.24-3.1,1.95-4.71-9.4-11.76-6.84-31.17,6.48-39.06,12.74-7.54,29.24-1.7,36.84,10.15a3.24,3.24,0,0,0,5.52,0c6.58-9.44,20.69-12.11,30.56-6.44,9.66,5.55,12.08,15.58,12.67,25.88a2.48,2.48,0,0,0,4.84.65c3.8-12.89-5.13-27.39-16.94-32.59-12.91-5.7-26.57-.66-36.15,8.63l5,.65c-8.67-15.94-31.15-21.8-46.32-11.42s-17.32,32.67-6.86,46.89l3.12-4.05c-15.53-2.12-32.85-2.95-46.46,6.26-10.59,7.17-17.39,19.39-14.56,32.22.46,2.07,4.05,1.66,3.76-.5Z"/><path class="cauliflowercauliflowercls-3" d="M336.29,164.08c6.19.49,12.87.31,17.59,4.93,4.49,4.4,5.1,9.86,3.27,15.74-.61,2,1.86,4.08,3.66,2.81,5.74-4.06,13.59-7.51,20.76-5.1,7.34,2.47,9.16,9,9.75,15.85a2,2,0,0,0,3.63,1c4.92-7-.1-16.17-6.61-20.28-9.9-6.24-21.3-1.7-30,4.25l3.4,3.41A18.42,18.42,0,0,0,360,167.8c-5.56-7.75-15-8.35-23.75-7.18a1.73,1.73,0,0,0,0,3.46Z"/><path class="cauliflowercauliflowercls-3" d="M331.68,234.58c-8.62-25.81-42.77-19.31-47.59,5.37l4.15-.54c-15.44-21.5-47.13-12.37-54.7,11.24-.71,2.21,2.55,3.51,3.7,1.56,4.84-8.22,10.83-16.09,20.35-19.06,9.73-3,20.76.15,26.72,8.56,1.08,1.51,3.65,1.49,4.16-.55,4.64-18.58,31.08-26.43,39.45-5.55.91,2.27,4.58,1.4,3.76-1Z"/><path class="cauliflowercauliflowercls-3" d="M255.73,310.25c6-4,12.74-6.8,19.72-3.28,6.48,3.28,8.37,9.68,8.65,16.46.07,1.75,2.61,2.69,3.5.95,4.06-8-.31-17.6-7.71-22-9-5.3-19.69-2.4-27,4.21-1.93,1.74.61,5.11,2.81,3.63Z"/><path class="cauliflowercauliflowercls-3" d="M212.69,201.34c-1.62-5.2,7.73-4.2,10.37-4.94a1.71,1.71,0,0,0,.41-3.09,11.88,11.88,0,0,0-12.17,0c-3.07,2-4.88,5.89-3.5,9.41,1.16,3,5.88,1.83,4.89-1.35Z"/><path class="cauliflowercauliflowercls-3" d="M324.41,124.12c4.41-3.63,9.11-.3,12.95,2.22a1.85,1.85,0,0,0,2.77-1.58c-1-9.12-13.88-9.13-19.21-4.13-2.35,2.21,1.08,5.46,3.49,3.49Z"/><path class="cauliflowercauliflowercls-3" d="M306.05,189.81c3.39-.9,6.93,1.51,8.74,4.25a1.61,1.61,0,0,0,3-.81c-.09-6.52-7.26-9.91-12.95-7.91-2.79,1-1.69,5.24,1.23,4.47Z"/><path class="cauliflowercauliflowercls-3" d="M289.08,273.75a44.86,44.86,0,0,0-8.35-.26,1.54,1.54,0,0,0-.41,3,44.39,44.39,0,0,0,8.19,1.49,2.14,2.14,0,1,0,.57-4.23Z"/><path class="cauliflowercauliflowercls-3" d="M258.46,359c1.32-2.55,4.36-1.41,6,.08.92.85,3,.34,2.77-1.15-.78-6-9.87-5.74-12.13-.92-1.06,2.26,2.22,4.26,3.4,2Z"/><path class="cauliflowercauliflowercls-5" d="M315.26,401.48c17.61-10.63,31.12-29.14,38.28-48.19,9.36-24.92,7.23-52.94,12.5-78.81a1.79,1.79,0,0,0-3.44-1C353.85,295.73,358,321,352,343.84s-20.42,39.86-38.89,53.93c-2.14,1.62-.28,5.19,2.17,3.71Z"/><path class="cauliflowercauliflowercls-5" d="M398.11,339.38c13.6-19.4,18.45-47.68,18.24-71,0-1.66-2.58-2.11-3-.4-5.48,24.25-4.93,47.63-18.16,69.75-1.13,1.87,1.67,3.43,2.89,1.69Z"/><path class="cauliflowercauliflowercls-5" d="M344.06,389c22.15-10.07,46.95-11.29,69.42-20.39,17-6.89,34.38-19.41,43.64-35.6,1-1.76-1.47-3.84-2.89-2.23-15.12,17.14-30.2,29.89-52.54,36.7-20,6.07-40.73,8.83-59.62,18.12-2.29,1.13-.29,4.44,2,3.4Z"/><path class="cauliflowercauliflowercls-5" d="M164.79,368.88c-3.47-8.74-6.72-17.78-7.53-27.23-.76-8.84,1.42-16.87,3.69-25.3,3.6-13.42,4.31-28.45-1.95-41.21-.87-1.77-3.31-.45-3,1.26,1.77,9.55,3.76,18.74,2.67,28.51-.91,8.13-4.09,15.71-5.29,23.76-2.17,14.47,2.09,28.58,8.11,41.6.85,1.83,4.05.52,3.29-1.39Z"/><path class="cauliflowercauliflowercls-5" d="M131.74,344.43c-9.34-5.91-20.55-6.68-31.25-8.06-13.93-1.79-24.82-7.2-37.61-12.26-1.76-.69-3.17,1.94-1.83,3.14,18.8,16.73,47.27,11.6,69.16,20.81,2.15.91,3.35-2.48,1.53-3.63Z"/><path class="cauliflowercauliflowercls-5" d="M117.43,322.68a152.5,152.5,0,0,0-.61-36.42c-.2-1.46-2.54-1.08-2.53.34q.12,18,0,36.08c0,2,2.89,1.93,3.1,0Z"/><path class="cauliflowercauliflowercls-5" d="M268.46,418.8c39.33-8.17,75.47-26.45,106.76-51.51a290.54,290.54,0,0,0,43-42.8c11.69-14.27,26.52-31.15,31.76-49.13,1-3.54-4-6.92-6.52-3.8-5.55,6.87-9.29,15-14,22.44a243.86,243.86,0,0,1-17.35,24.4,273.91,273.91,0,0,1-41.31,40.53c-30.72,24.54-66.5,42.36-104,53.91-3.82,1.18-2.24,6.77,1.65,6Z"/><path class="cauliflowercauliflowercls-5" d="M167.19,218.6c3.56-1.83,7.74-3.8,8.88-8a5.86,5.86,0,0,0-5.59-7.34c-4.38,0-7.39,3.53-10.11,6.5a5.64,5.64,0,0,0,6.82,8.84Z"/><path class="cauliflowercauliflowercls-5" d="M232.17,170.09c2.94-.14,5.93-.05,8.64-1.36a5.51,5.51,0,0,0-1.31-10c-2.84-.78-5.95.08-8.81.46a5.53,5.53,0,0,0-3.32,2.56,5.73,5.73,0,0,0-.66,3.54,5.51,5.51,0,0,0,5.46,4.81Z"/><path class="cauliflowercauliflowercls-5" d="M275.19,202.44l.51-.65a3.18,3.18,0,0,0,.87-1.36,3.15,3.15,0,0,0,.36-1.63l-.15-1.12a4.25,4.25,0,0,0-1.08-1.87l-.51-.65-1.05-.81-1.23-.51a3.86,3.86,0,0,0-2.05-.1,2.6,2.6,0,0,0-1.3.36,5,5,0,0,0-2.72,2.72,3.84,3.84,0,0,0-.44,2l.18,1.37.52,1.23.81,1,1,.81,1.23.52a4,4,0,0,0,2.05.09,2.56,2.56,0,0,0,1.3-.35,3.93,3.93,0,0,0,1.66-1.07Z"/><path class="cauliflowercauliflowercls-5" d="M236.11,285.16l1-.37a7.18,7.18,0,0,0,3.18-2,5.79,5.79,0,0,0,1.48-2.54,5.72,5.72,0,0,0,0-3.07,5.76,5.76,0,0,0-4-4,7.4,7.4,0,0,0-3.85-.09l-1.09.2a6.87,6.87,0,0,0-3.67,2.82,6.87,6.87,0,0,0-.62,4.73,6.19,6.19,0,0,0,2.82,3.67,6.09,6.09,0,0,0,4.73.62Z"/><path class="cauliflowercauliflowercls-5" d="M275.71,336l.05.4a5.54,5.54,0,0,0,.65,2.43c.13.22.27.43.4.64a4,4,0,0,0,6.84,0c.13-.21.27-.42.4-.64a5,5,0,0,0,.64-2.36l.06-.47a3.34,3.34,0,0,0-.38-1.74,3.44,3.44,0,0,0-.94-1.46,4.51,4.51,0,0,0-6.4,0l-.71.92a4.43,4.43,0,0,0-.61,2.28Z"/><path class="cauliflowercauliflowercls-5" d="M399.14,174.31a5.22,5.22,0,0,1,1.4.4l-1.36-.58a5.84,5.84,0,0,1,1.05.63l-1.16-.9a18.39,18.39,0,0,1,1.7,1.72,5.62,5.62,0,0,0,6.74.87,5.76,5.76,0,0,0,2.55-6.28,8.94,8.94,0,0,0-4-5.31,11.29,11.29,0,0,0-5.38-1.67,5.63,5.63,0,0,0-4,1.65,5.84,5.84,0,0,0-1.56,3.26,5.44,5.44,0,0,0,.67,3.61,5.52,5.52,0,0,0,3.39,2.6Z"/><path class="cauliflowercauliflowercls-5" d="M304.54,101.84c2-.12,4.48.07,6.33-.61A5.77,5.77,0,0,0,315,95a5.4,5.4,0,0,0-1.57-3.28,6.73,6.73,0,0,0-4-1.68,14.38,14.38,0,0,0-3.72.44l-2.58.42a5.54,5.54,0,0,0-3.34,2.56,5.83,5.83,0,0,0-.66,3.57,5.53,5.53,0,0,0,5.49,4.84Z"/><path class="cauliflowercauliflowercls-5" d="M242.6,96.43c2,0,4,.29,5.76-.75a4.67,4.67,0,0,0,0-8c-1.75-1-3.81-.78-5.76-.76a4.75,4.75,0,1,0,0,9.49Z"/><path class="cauliflowercauliflowercls-5" d="M356.46,223l.47.71a5.06,5.06,0,0,0,1.81,1.81,5.06,5.06,0,0,0,5.1,0,5.14,5.14,0,0,0,1.81-1.81l.46-.71a5.59,5.59,0,0,0-4.82-8.41,5.65,5.65,0,0,0-4.83,2.77,5.61,5.61,0,0,0,0,5.64Z"/><path class="cauliflowercauliflowercls-5" d="M157.62,145.09c1.42-1.39,2.95-2.69,3.49-4.7a5.83,5.83,0,0,0-7.17-7.17c-2,.55-3.31,2.07-4.69,3.5a6.1,6.1,0,0,0-1.74,4.18,5.92,5.92,0,0,0,5.92,5.92,6.23,6.23,0,0,0,4.19-1.73Z"/><path class="cauliflowercauliflowercls-5" d="M123.45,388.59c20.72,5.51,41.57,1,62.6,2.77,2,.17,2.49-3.15.49-3.58-20.62-4.38-41.57,1.54-62.17-2.55-2.17-.43-3.11,2.77-.92,3.36Z"/><path class="cauliflowercauliflowercls-5" d="M92.85,297.69c17.88,30.95,39.07,57,67.62,78.57,13.39,10.13,27.32,19.53,42.25,27.24,12.6,6.5,27.55,14.28,42.06,14.18,4,0,4.47-5.45.91-6.72-14.11-5-27.82-9.29-41.13-16.42a319.37,319.37,0,0,1-39-24.42C138.36,350,115.7,323.38,97.75,294.83c-1.94-3.08-6.73-.31-4.9,2.86Z"/></g></g></svg>