<svg xmlns="http://www.w3.org/2000/svg" viewBox="0 0 512 512"><defs><style>.celerycelerycls-1{fill:none;}.celerycelerycls-2{fill:#cdda99;}.celerycelerycls-3{fill:#9bb533;}.celerycelerycls-4{fill:#4a2d2d;}.celerycelerycls-5{fill:#fff;}</style></defs><g id="Capa_2" data-name="Capa 2"><g id="bocetos"><rect class="celerycelerycls-1" width="512" height="512"/><path class="celerycelerycls-2" d="M246.1,247.2s3.37,5.18,3.37,33.64S248.83,352,251.09,394s5.5,62.73,5.5,62.73,12.29,6.47,23.28,1.62,12.61-11.32,12.61-11.32-9.7-85.37-9.05-122.89,2.9-83.27,2.9-83.27-6.78-18.27-19.39-17.62S246.1,247.2,246.1,247.2Z"/><path class="celerycelerycls-2" d="M323.53,278.9s2.59,40.1-9.7,85.05-21,67.91-44,71.79S232,421.19,219.07,392.41s-12.28-124.18-12.28-124.18-8.74-19.73-15.85-13.58-10.67,21-10.67,21,3.23,7.76,2.59,30.72-.65,96.69,16.49,130.32,39.45,54.66,77.29,52.72,59.82-54.66,66-100.25,6.79-95.73,10-109.63-5.17-25.55-10.34-24.9S323.53,272.11,323.53,278.9Z"/><path class="celerycelerycls-3" d="M297.66,156.77s28.67-69.64,16.17-78.26S278,108.69,278,108.69s6.47-28.46,5.17-44.41S272.86,3.05,250.44,16,239,78.08,239,78.08s-24.36-30.19-30-6.9c-4.88,20.25,20.26,66.21,25.44,75.89a96.34,96.34,0,0,0-25.22-19.62c-16-8.2-33.3-9.23-29.11,11.21,3.67,17.89,25.68,41.94,43.77,67.69a214.82,214.82,0,0,1,22.2,40.75l0,.1c20.08,7.45,31.3,3.06,40.13-4.2.07-.63.15-1.23.23-1.8,4.74-33.2,47.2-65.24,47-84.22C333.15,130.94,297.66,156.77,297.66,156.77Z"/><path class="celerycelerycls-3" d="M323.53,278.9s-8.09-30.07-21-49.8-34.93-44-21.67-54.65S316.74,189,316.74,189s-12-30.08-4.53-60.48,18.11-36.86,25.22-32S343.58,125,343.58,125s16.82-45.92,35.9-40.75-9.06,82.46-9.06,82.46,20.7-22.63,32.34-13.9-7.76,35.25-14.88,44-18.43,17.79-18.43,17.79,23.28-16.82,28.78-1.3-22.8,27.49-34.6,47.54c-9.5,16.14-11.64,20.94-11.64,20.94s-4.37,5-16,3.88C328.47,284.88,323.53,278.9,323.53,278.9Z"/><path class="celerycelerycls-3" d="M206.79,268.23s2.58-31.37,12.61-53,25.22-43.33,19.4-53-14.87-7.44-24.9-2.59c-8.8,4.26-16.17,12.94-16.17,12.94s15.2-53.36,1.94-66-24.9,24.91-24.9,24.91-6.47-44-29.43-58.54-25.55-.64-23.93,10,17.14,43.33,17.14,43.33-15.2-15.2-25.55-4.53,5.18,34,11.32,41.72a82.42,82.42,0,0,0,12.94,12.94s-28.14-15.2-36.55-.33,15.2,32.67,46.25,53.69,33.31,45.92,33.31,45.92,9.7,2.58,17.14,1A12.83,12.83,0,0,0,206.79,268.23Z"/><path class="celerycelerycls-4" d="M201,111.56c2,19.69.74,36.93-3.06,56.34a2.38,2.38,0,0,0,4,2.3c5.64-5.24,19.69-15.07,28.32-9.82,10.8,6.58.61,25-2.7,32.35-6,13.42-12.75,26.82-17.36,40.79-1.16,3.54,4.15,4.81,5.48,1.51,3-7.46,4.94-15,8.62-22.16,3.18-6.2,6.53-12.29,9.41-18.64,4.07-8.95,9.77-19.91,6.76-29.95-6.31-21-31.55-6.3-41.87,2.57l3.95,2.31c6.78-17.95,7.3-39.69,2.38-58.12-.56-2.09-4.11-1.75-3.88.52Z"/><path class="celerycelerycls-4" d="M308.53,144.51c-3.33,13.8-.88,28.81,3.67,42.05l5.49-2.32c-6.38-8.73-14.94-16.84-26.65-15.16-8.6,1.24-15,7-15.65,15.84-.93,11.92,6.21,22.37,12.92,31.51,8.64,11.8,16.28,22.21,21.31,36.09,1,2.78,5.95,2.65,5.57-.76-1.66-15-12.73-26.93-21.4-38.53-4.84-6.47-10.74-14-12.78-21.91-2.51-9.77,5.1-17.95,14.93-16.19,6.95,1.25,12.5,6.63,16.56,12.14,1.84,2.5,6.79,1.15,5.49-2.31-5-13.32-5.48-25.9-5.48-39.91,0-2.25-3.43-2.8-4-.54Z"/><path class="celerycelerycls-4" d="M245.37,433.16c18.58,12.28,41.2,4.64,50.7-14.82.71-1.45-1.24-3.3-2.4-1.86-11.2,13.79-29.18,21.51-46.11,12.93a2.17,2.17,0,0,0-2.19,3.75Z"/><path class="celerycelerycls-4" d="M148.36,124.71a476.46,476.46,0,0,1,27.68,73c6.82,24.29,9.89,49,15.26,73.5.39,1.79,3.18,1.37,3.17-.43-.13-25.29-7-52-14.28-76a405.72,405.72,0,0,0-29.08-71.69c-1-1.84-3.61-.23-2.75,1.61Z"/><path class="celerycelerycls-5" d="M192.24,296.69c0,3.57-.61,8,.45,11.4a1.55,1.55,0,0,0,3,0c1.06-3.44.43-7.83.45-11.4,0-2.5-3.88-2.5-3.87,0Z"/><path class="celerycelerycls-5" d="M199.34,378.19c2.32,30.66,18.29,63.63,44.57,80.84,1.7,1.12,3.69-1.44,2.18-2.83-23.46-21.54-39.23-45.72-43-78-.28-2.35-3.95-2.45-3.76,0Z"/><path class="celerycelerycls-5" d="M256.33,463.72a28.81,28.81,0,0,0,4.46,1,1.86,1.86,0,0,0,1.78-1.35,1.89,1.89,0,0,0-.85-2.08,28.78,28.78,0,0,0-4.23-1.81,2.18,2.18,0,0,0-1.16,4.21Z"/><path class="celerycelerycls-5" d="M290.81,453.52c14.09-11.75,26.87-29.41,30-47.85a1.59,1.59,0,0,0-3.07-.85c-7.27,17.95-15,32.8-29.57,46.06-1.8,1.64.81,4.15,2.63,2.64Z"/><path class="celerycelerycls-5" d="M328.12,388.43c.3-1.31.62-2.63.9-3.95s.73-2.73-.1-3.85a1.65,1.65,0,0,0-2.21-.58c-1.25.67-1.48,2-1.78,3.3s-.56,2.65-.84,4c-.56,2.62,3.42,3.74,4,1.11Z"/><path class="celerycelerycls-4" d="M336.34,278.42c4.3-20.41,4.47-41.18,5.32-61.93.46-11.36,1.14-22.72,3.09-33.94,1.88-10.84,5.84-20.88,8.45-31.49a1.64,1.64,0,0,0-3-1.26c-10.61,16.3-11.55,39.51-12.63,58.36-1.33,23.15-1,46.37-4.55,69.35-.33,2.12,2.83,3.1,3.3.91Z"/><path class="celerycelerycls-4" d="M263.29,237.09a424.67,424.67,0,0,0,2.52-71.57c-1-22.25-2.21-46.36-8.5-67.85-.5-1.71-3.34-1.46-3.21.44,1.59,23.17,5.81,46,6.71,69.3s-.12,46.45-1.77,69.68c-.2,2.78,3.91,2.64,4.25,0Z"/><path class="celerycelerycls-4" d="M342.75,210.48c10.31-9.06,21.26-18.23,29.92-28.93a1.56,1.56,0,0,0-2.2-2.2c-10.81,8.54-20.34,19-30.11,28.74-1.56,1.54.77,3.81,2.39,2.39Z"/><path class="celerycelerycls-4" d="M341.52,184.55c-2.77-13.26-8.77-24.77-9-38.57,0-1.82-2.83-2.31-3.24-.44-3,13.73,5.9,26.93,9.15,39.86.51,2,3.49,1.15,3.08-.85Z"/><path class="celerycelerycls-4" d="M344.72,250.8c8.66-4.32,17.95-10.77,22.79-19.4a2,2,0,0,0-3.07-2.37c-7.08,6.67-13.19,13.37-21.72,18.36-2.21,1.29-.26,4.53,2,3.41Z"/><path class="celerycelerycls-4" d="M336.12,237.83c-4.58-5.85-9.4-11.54-13.79-17.55-4-5.49-7-11.56-10.74-17.19a1.57,1.57,0,0,0-2.85,1.21c3.57,13.64,15.51,26,25.05,35.87,1.52,1.57,3.61-.71,2.33-2.34Z"/><path class="celerycelerycls-4" d="M269.49,155.27c9.6-11.58,19.09-24,25.7-37.56A1.68,1.68,0,0,0,292.3,116c-8.31,12.42-16,25-25.31,36.76-1.39,1.75,1,4.26,2.5,2.49Z"/><path class="celerycelerycls-4" d="M258.39,120a74.77,74.77,0,0,1-11.71-10.92c-3.27-3.77-5.69-8.15-8.94-11.9a1.48,1.48,0,0,0-2.45,1.42c3.57,9.84,13.27,18.18,21.53,24.09,1.64,1.18,3.15-1.51,1.57-2.69Z"/><path class="celerycelerycls-4" d="M261.29,190.78a19.29,19.29,0,0,1-8.83-4.77,1.84,1.84,0,0,0-2.6,2.61,16.4,16.4,0,0,0,10.41,5.85c2.39.41,3.46-3.17,1-3.69Z"/><path class="celerycelerycls-4" d="M190.26,214c6.63-11.59,14.36-22.3,21.47-33.55a1.49,1.49,0,0,0-2.33-1.79c-9.13,9.61-16.23,21.82-22,33.69-.9,1.87,1.76,3.5,2.82,1.65Z"/><path class="celerycelerycls-4" d="M177,169.71c2.53-6.48,6.13-13.31,7.52-20.13a1.54,1.54,0,0,0-2.81-1.18c-3.6,6.12-5.54,13.75-8,20.39-.79,2.09,2.53,3,3.33.92Z"/><path class="celerycelerycls-4" d="M161.43,152.29c-7.23-3.78-14.55-8.17-22.34-10.7-1.93-.62-2.78,2-1.3,3.09,6.53,4.65,14.27,7.83,21.47,11.31,2.46,1.19,4.63-2.41,2.17-3.7Z"/><path class="celerycelerycls-4" d="M181.42,222.82c-12.93-8.44-26.24-16.78-40.52-22.77-1.84-.77-2.81,2.09-1.3,3.09,12.79,8.41,26.68,15.31,40.17,22.51a1.64,1.64,0,0,0,1.65-2.83Z"/><path class="celerycelerycls-5" d="M267.12,287c-1.41,25.75-1.48,52.46,2.19,78,.24,1.63,3,1.24,2.88-.39-1.35-26-2.75-51.56-1.62-77.64.1-2.23-3.33-2.21-3.45,0Z"/><path class="celerycelerycls-5" d="M272,387.24a40.38,40.38,0,0,0,.24,6.87,1.53,1.53,0,0,0,2.93,0,41.44,41.44,0,0,0,.25-6.87c0-2.2-3.45-2.21-3.42,0Z"/><path class="celerycelerycls-5" d="M331.15,355.4c.18-1,.34-2.07.46-3.11a1.66,1.66,0,0,0-1.45-1.64,1.71,1.71,0,0,0-1.84,1.2c-.33.83-.62,1.67-.9,2.52a1.93,1.93,0,1,0,3.73,1Z"/></g></g></svg>