<svg xmlns="http://www.w3.org/2000/svg" viewBox="0 0 512 512"><defs><style>.chanterellechanterellecls-1{fill:none;}.chanterellechanterellecls-2{fill:#ab745b;}.chanterellechanterellecls-3{fill:#fcaf43;}.chanterellechanterellecls-4{fill:#4a2d2d;}</style></defs><g id="Capa_2" data-name="Capa 2"><g id="bocetos"><rect class="chanterellechanterellecls-1" width="512" height="512"/><path class="chanterellechanterellecls-2" d="M179.82,187.5S55.15,168.71,32.94,135.41s6.84-71.73,70-70S216.54,89.93,273.55,81c79.6-12.52,136.84-59.14,186.37-29.25s23.91,65.75-33.3,84.54-123,21.35-123,21.35Z"/><path class="chanterellechanterellecls-3" d="M290.05,106.5c44-9.85,109.88-40,136.92-33.81s19.73,23.11-1.69,35.5-68.18,26.49-92.41,65.37S314.28,313.3,315.4,357.25,321,460.37,285.54,468.83s-45.64-50.15-50.71-78.33-8.46-108.75-22.54-149.32S135.65,155.53,112,144.26s-49.58-9.58-51.27-16.35,1.69-33.8,35.5-36.62S209.47,124.53,290.05,106.5Z"/><path class="chanterellechanterellecls-4" d="M75,113.29c35.77,7.75,71.79,27.24,100.54,49.65a185.14,185.14,0,0,1,38,39.35A144.16,144.16,0,0,1,226.34,224c3.77,8.06,5.87,16.79,9.74,24.75,1,2.08,4.39,1.05,4.31-1.17-.59-16.36-10.94-34.36-19.81-47.64-10.59-15.85-24.12-29.58-39.09-41.32C151.43,135.1,114,115.58,76.21,108.88c-2.85-.5-4.12,3.78-1.21,4.41Z"/><path class="chanterellechanterellecls-4" d="M244.89,272.64c2.82,19.57,5.68,39.08,7.21,58.8,1.36,17.58.66,35.69,3.52,53.07.46,2.75,4.15,1.68,4.44-.6,2.39-18.92-.5-39.18-2.39-58.08-1.83-18.32-3.84-36.63-7.13-54.75-.68-3.75-6.18-2.1-5.65,1.56Z"/><path class="chanterellechanterellecls-4" d="M283.26,435.74c-.88-37.8-2.63-76.32-6.18-114a1.61,1.61,0,0,0-3.22,0c-2.34,37.46-.63,76.73,3.92,114,.42,3.39,5.56,3.62,5.48,0Z"/><path class="chanterellechanterellecls-4" d="M266.55,279.7c1.14-35.44-15.4-70.88-35.71-99.08a294.21,294.21,0,0,0-34.15-39.13c-11.76-11.42-25.43-26.65-42.14-30-3.5-.71-6.1,4.23-2.56,6.08,28.71,15,54.32,42.25,73.33,68.18,20.7,28.25,31.9,59.31,36,93.95.39,3.27,5.14,3.46,5.25,0Z"/><path class="chanterellechanterellecls-4" d="M211.4,124.15c23.81,23.14,41,49.08,51.23,80.84a321.59,321.59,0,0,1,11.52,51.39c2.66,17.9,2.91,37.13,8.07,54.53.67,2.28,3.7,1.63,3.93-.54,2-18.38-1.35-38-4.07-56.18-2.89-19.38-7-38.66-13.5-57.17-10.37-29.41-27.11-59.79-53.59-77.52-2.81-1.88-6,2.34-3.59,4.65Z"/><path class="chanterellechanterellecls-4" d="M289.21,348c.92,16.44,1.89,33,4.79,49.23.42,2.35,3.88,1.64,4-.54.88-16.25-1.32-32.51-2.41-48.69-.27-4.07-6.6-4.12-6.37,0Z"/><path class="chanterellechanterellecls-4" d="M296.62,271.93c-1.45-34,4.13-68.74,19.26-99.36A157.17,157.17,0,0,1,340.82,136,178.41,178.41,0,0,1,356,121.31c5.69-4.88,12.38-8.53,17.58-13.94a2.4,2.4,0,0,0-2.31-4c-13.19,3.78-25.73,16.22-34.9,26A171.73,171.73,0,0,0,309,168.55c-16.36,32-21.65,67.8-19.1,103.38.3,4.26,6.89,4.35,6.71,0Z"/><path class="chanterellechanterellecls-4" d="M284.43,200.74c.25-15.5,1.33-30.31,6.14-45.16a126.47,126.47,0,0,1,9-21.32c3.17-5.85,7.33-11.22,9.51-17.53.67-2-1.93-4.13-3.69-2.84-11.64,8.51-18.05,26.33-21.94,39.73-4.45,15.32-6.46,32-4.13,47.81.43,3,5.05,2.14,5.09-.69Z"/></g></g></svg>