<svg xmlns="http://www.w3.org/2000/svg" viewBox="0 0 512 512"><defs><style>.chardchardcls-1{fill:none;}.chardchardcls-2{fill:#d6db73;}.chardchardcls-3{fill:#6a8c2a;}.chardchardcls-4{fill:#fff;}.chardchardcls-5{fill:#4a2d2d;}</style></defs><g id="Capa_2" data-name="Capa 2"><g id="bocetos"><rect class="chardchardcls-1" width="512" height="512"/><path class="chardchardcls-2" d="M192.93,334.21s2.15-2.15,9.91,16.39S218.36,411,218.36,411s-13.79,51.75,12.94,72.87,45.27-2.15,45.27-2.15,16.82-3.45,32.34-33.2,17.68-59.08,25.44-85,11.21-36.22,15.09-42.25,6-69.42-2.15-88S301.15,60.41,273.13,74.64,177.4,192.35,168.78,211.76,192.93,334.21,192.93,334.21Z"/><path class="chardchardcls-3" d="M183,51.36s-14.66-23.29-37.52-15.09-28,45.27-25.44,67.26,6.47,28-.86,42.69-35.35,45.27-29.75,71.14,26.3,37.08,31.48,46.14-5.18,34.49,7.76,50,34.06,13.79,45.27,14.66a43.3,43.3,0,0,1,19,6,117.87,117.87,0,0,0,6-21.56c2.16-12.07,3-21.12,3-21.12s7.33,9.48,14.66,18.11,9.92,15.95,9.92,15.95,8.73-16.06,20.37-52.71,11.32-71.36,13.91-96.37,7.76-86.67,7.76-86.67,6.36,92.81,10.67,134.21,7.22,65.75,15.41,83.43,15.53,25,15.53,25,1.72-14.23,7.33-19.84,12.93-11.64,15.95-19,3,5.18,6.9,16,7.33,15.52,7.33,15.52,9.92-13.8,25.44-14.23,21.56-4.74,25-16.39-2.59-21.55,2.59-31.47,10.34-14.66,6.89-28.89-10.78-22.85-8.19-36.22,20.27-47.43,10.35-67.27-25.87-16.38-31.91-38.37,9.49-53.47-13.36-62.52a37.32,37.32,0,0,0-38.81,6.47S323.17,14.54,294.68,10c-24.14-3.88-29.75,9.49-47,11.64s-24.58-5.6-43.12,3.89A43.42,43.42,0,0,0,183,51.36Z"/><path class="chardchardcls-4" d="M180.35,144.48c1-9.18-1.12-19.08-3.12-28s-3-18.78-7.43-27c-1.44-2.71-6.48-1.63-6.09,1.65,1.17,9.57,5,18.58,6.36,28.18,1.23,8.69,1.31,17.65,3.27,26.2,1,4.2,6.61,2.8,7-1Z"/><path class="chardchardcls-4" d="M354,191.39c9.65-7.32,19.47-15.72,25.94-26.11a1.83,1.83,0,0,0-2.86-2.21c-8.36,8.66-15.81,18-24.81,26.08-1.18,1.06.43,3.22,1.73,2.24Z"/><path class="chardchardcls-4" d="M346.54,265.15c13.88-10.1,27-21.84,36.87-36,1.06-1.53-1.31-3.33-2.57-2-11.58,12.48-23.06,24.6-36.54,35.09-1.63,1.28.54,4.13,2.24,2.9Z"/><path class="chardchardcls-4" d="M147,167.52c9.26,15.89,21.47,33.94,37.07,44.19,1.63,1.07,3.06-1.21,2-2.53-5.75-6.91-12.68-12.78-18.51-19.68a208,208,0,0,1-17.33-23.84c-1.25-2-4.38-.2-3.18,1.86Z"/><path class="chardchardcls-4" d="M134.57,233c6.23,6,10.33,13.67,16,20.15a145.25,145.25,0,0,0,19.9,18.26c9,7.08,21.56,19.88,34.07,18,1.76-.26,1.24-2.56,0-3.08-14.59-6.06-26.35-14.55-38.43-24.9-10.93-9.37-18.24-21.66-28.73-31.28-1.88-1.72-4.68,1-2.82,2.82Z"/><path class="chardchardcls-4" d="M196,304c-8.88-2.66-17.09-6.65-25.82-9.6a1.86,1.86,0,0,0-1.79,3.08c7.22,6.31,17.71,9.45,27.05,10.62,2.4.3,2.73-3.45.56-4.1Z"/><path class="chardchardcls-4" d="M328.39,201.41c-6,12.83-11.14,24.54-20.15,35.73-7.7,9.55-16.41,18.27-25.14,26.89.08.57.16,1.13.23,1.7.12,1,.22,2,.31,3a1.53,1.53,0,0,0,.27-.17c18.35-17.21,43.59-39.48,47.43-65.92C331.58,201,329.25,199.59,328.39,201.41Z"/><path class="chardchardcls-4" d="M279.49,219c13.07-16.55,25.56-34.34,34.2-53.66.86-1.92-1.76-3.57-2.89-1.69-10.89,18.17-21.31,36.25-34.06,53.24-1.17,1.57,1.52,3.67,2.75,2.11Z"/><path class="chardchardcls-4" d="M304.3,90.34a342.79,342.79,0,0,1-15.38,39.77c-5.15,11.1-12.33,21.59-16.6,33-.73,2,2.21,3.65,3.55,2.07,8.51-10,13.87-23.63,19.06-35.57a354.41,354.41,0,0,0,13.95-38c.89-2.94-3.65-4.16-4.58-1.27Z"/><path class="chardchardcls-4" d="M222.2,81.16c6.37,16.18,12.62,32.42,19.09,48.56,4.35,10.84,9.23,23.1,19.69,29.39a2.27,2.27,0,0,0,2.74-3.54c-10.3-10.41-15.44-21.85-21-35.25s-11.19-26.79-16.77-40.19c-.94-2.25-4.66-1.31-3.74,1Z"/><path class="chardchardcls-4" d="M257,219.1c.17-1.15.53-2.27.75-3.41a2.27,2.27,0,0,1,.47-1c-7.17-11.6-19.22-19.94-28.15-30-13.19-14.91-20.89-33.32-23.2-53-.32-2.72-4.57-2.85-4.37,0a94.07,94.07,0,0,0,18.23,49.84c5.25,7.05,11.52,13.14,17.86,19.18,6.77,6.47,12.34,13.43,18.14,20.67C256.8,220.55,256.88,219.82,257,219.1Z"/><path class="chardchardcls-4" d="M248.57,273.05c.14-.86.29-1.72.43-2.58l.12-.82c0-.14,0-.28,0-.42,0-.58,0-1.17,0-1.76a2.81,2.81,0,0,1,.2-1c-5.39-10.09-14.07-19-20.64-28.14-8.92-12.36-15.07-25.81-23-38.71a2,2,0,0,0-3.57,1.51c2.9,13.49,12,26.13,19.91,37.19,8.35,11.74,17.71,22.69,26.06,34.42A1.57,1.57,0,0,0,248.57,273.05Z"/><path class="chardchardcls-2" d="M229.23,324.65c19.24-35.17,27.09-74.85,32.34-114.2,2.69-20.17,4.65-40.42,6.7-60.67,1.92-19,5.08-38.52,3.68-57.68-.25-3.45-5.64-3.49-5.41,0q2.56,39.79,5.85,79.51c3.16,37.62,4.87,75.94,12.9,112.93,3.78,17.39,10.57,34,23.7,46.58,1.74,1.68,4.4-1,2.65-2.66-25.35-24.3-26.64-66.25-29.83-98.87-3.55-36.33-5.49-72.78-8-109.19q-1-14.15-1.89-28.3h-5.41c1.27,17.55-1.5,35.2-2.94,52.66-1.62,19.65-2.78,39.33-4.86,58.94-4.4,41.52-14.29,81.47-32.92,119-1.12,2.26,2.18,4.24,3.41,2Z"/><path class="chardchardcls-5" d="M350.8,172c-2-13.86,2.88-25.88,6.63-38.94,5.89-20.49,1.75-36.17-15.67-49.32-4.54-3.43-9.54-6.59-12-11.94-2.7-5.93-1.27-12.54-1-18.82.34-9.06.13-18.9-5.12-26.44-3.8-5.45-9.31-9.33-15.1-12.34,1,.52,8,8.39,9.4,12a55.47,55.47,0,0,1,3.59,16.63c.49,8.22-2.65,16.5-1.17,24.67,1.33,7.47,4,14.3,9.74,19.12,5.56,4.69,15.66,9.22,19.13,15.91,5.06,9.75,1.64,21.59-1.46,31.36-5.86,18.43-8.06,33-2.68,51.9,2.43,8.52,5.61,16.94,7,25.72,1.8,11.54-4.29,20.07-9.62,30.12-3.47,6.56-6.85,12.91-8.24,20.27-1.94,10.2,1.52,21.48-4.92,30.43-4.68,6.5-10.84,11.8-15.18,18.57-4.5,7-6.59,15-7.66,23.17-2.78,21.32-2.05,42.79-5.66,64.11-3.32,19.62-7.28,43.53-15.85,61.59-8.12,17.12-30.64,41.6-49.15,20.19-23.91-27.66-7.52-73.29-3.18-104.38,2.28-16.31,3-36.65-3-52.18a131.81,131.81,0,0,0-26.24-42.05c-6.54-7.18-13.61-14.63-16.72-24-3.39-10.26,0-20.57,2.79-30.53,4.82-17,.21-28.24-8.34-42.92-11.47-19.69-.58-33.79,7.85-51.88,3.18-6.81,5.75-14.08,5.61-21.7-.18-9.64-5.35-23.51-7.43-32.76a65.23,65.23,0,0,1-1-24.18c1.46-9.13,6.67-15.21,10.38-23a33,33,0,0,0-8.73,9.7c-10.46,17.8-6.71,38.61-1.29,57.24,6.17,21.22-9.91,36.27-16.83,54.95-6.68,18,2.5,29.88,10,45.65,9.38,19.72-6.45,38.72-1.85,58.85,4.48,19.62,22.51,33.44,33.77,49.11,13.21,18.37,18.44,37.87,15.78,60.31-4.22,35.51-25.18,78.06-3,111.71,8.78,13.34,24.43,20.84,39.55,13.06,16.75-8.62,27.13-26.74,33.36-43.79,7.88-21.56,12.09-44.73,14.67-67.48,2.53-22.32-2.27-50.9,12.84-69.38,5-6.13,11-11.55,14.54-18.75,5.06-10.22,1.25-21.1,4.17-31.66C346,250.7,352.31,243,356,234.32c3.8-9,4.23-18.21,2.75-27.82C356.91,194.82,352.48,183.72,350.8,172Z"/><path class="chardchardcls-5" d="M296,467.13c12.61-12.16,20.13-28,25.23-44.57,6.16-20,10.32-41.47,13.88-62.11a1.86,1.86,0,0,0-3.59-1c-6.12,18-7.56,37.54-12.37,55.91s-12.52,35.46-25.09,49.83a1.37,1.37,0,0,0,1.94,1.93Z"/><path class="chardchardcls-5" d="M171.5,329.33c11.35,2.2,23.15,5.06,28.38,16.53,4.68,10.24,6,21.78,8.52,32.65.48,2.05,3.87,1.65,3.73-.51-.82-12.22-3.45-29.07-10.95-39.2-6.78-9.14-18.31-11-28.85-12.47-1.93-.27-2.83,2.61-.83,3Z"/></g></g></svg>