<svg xmlns="http://www.w3.org/2000/svg" viewBox="0 0 512 512"><defs><style>.chard-leafchard-leafcls-1{fill:none;}.chard-leafchard-leafcls-2{fill:#6a8c2a;}.chard-leafchard-leafcls-3{fill:#f4f5d8;}.chard-leafchard-leafcls-4{fill:#4a2d2d;}</style></defs><g id="Capa_2" data-name="Capa 2"><g id="bocetos"><rect class="chard-leafchard-leafcls-1" width="512" height="512"/><path class="chard-leafchard-leafcls-2" d="M182.88,351.65s-3.21-28.28-15.42-48.84-23.14-36.63-23.78-63,13.5-35.34,9.64-53.34-23.14-40.48-2.57-53.33,28.27-6.43,42.41-26.35,14.14-34.06,35.35-45.63S262.57,57.33,278,36.12,308.83.78,329.4,8.49,350,39.33,361.53,43.19s23.13.64,24.42,15.42S366,92,374.38,106.81s19.92,38.56,16.07,64.9-16.71,39.85-11.57,49.49,10.92,19.92,5.78,34.05-22.49,18.64-28.27,33.42-3.21,43.7-28.28,60.41-65.54,8.35-85.47,12.21S205.37,369,205.37,369Z"/><path class="chard-leafchard-leafcls-3" d="M138.86,504.07c-10.67,0-19-6.8-21.71-17.73-4.76-19.06,7.19-39.87,16.8-56.59.85-1.48,1.67-2.93,2.47-4.33q2.9-5.1,5.85-10.16c3.5-6,7-11.95,10.6-17.91,5.19-8.71,10.56-17.72,15.67-26.68l1.13-2c9.15-16,17.8-31.19,23.66-48.52,1.09-3.25,2.31-6.51,3.48-9.67a186.26,186.26,0,0,0,6.1-18.36c5.56-21.54-4.48-37.23-15.1-53.83-2.3-3.6-4.69-7.33-6.91-11.13a105.66,105.66,0,0,1-8-16.77,89.88,89.88,0,0,1-5.16-22.3c-.72-7.33-1.3-15.77.91-23,.18-.61.91-2.61,2.41-2.61,1.5.15,1.91,1.93,2.17,5,.18,2.12.78,5.83,1.22,8.05A85.86,85.86,0,0,0,184.16,201l.38.67c4.56,8,11.45,20.08,20.5,24.75l.91.47-.52-.87c-7.54-12.58-10.61-30.18-13.08-44.32l-.44-2.54c-3.41-19.33-1.6-38.68.36-53.38.29-2.2,1.61-3.18,2.78-3.18h.25a2.83,2.83,0,0,1,2.62,1.92c3,11.73,5.2,23.48,7.34,34.84,2,10.71,4.1,21.78,6.84,32.86,4.72,19.19,10.77,39.45,18,60.22l.26.76.29-.75c5.25-14.06,7.36-25.47,6.82-37C237,207,235,198.73,233,190.7a169.5,169.5,0,0,1-3.88-18.76c-3.5-27.16,4.18-60.12,20-86a3.22,3.22,0,0,1,2.59-1.74,1.76,1.76,0,0,1,1.36.61,2.87,2.87,0,0,1,.48,2.37l-.35,2.27c-2.19,14-5.85,37.42-6.08,51.75l.57.09c2.32-7.45,6.65-20.86,9.64-27.08,6.42-13.39,14.39-28.26,24.86-37a5,5,0,0,1,3.17-1.28,2.88,2.88,0,0,1,2.27,1,2.61,2.61,0,0,1,.44,2.27v.2C285,92.58,279.9,105.56,275,118.12c-2.89,7.42-5.87,15.1-8.42,22.68-3.06,9.13-6.76,21.24-8.13,34-.85,8-.62,19.57,1.46,26.38l.31,1,.25-1c1.49-6,4.73-15.62,9.63-28.67,1.75-4.67,3.24-9,4.69-13.22,2.07-6,4-11.74,6.65-18.2a705.69,705.69,0,0,1,30.18-64.23c.71-1.34,1.69-2.25,2.44-2.25a.8.8,0,0,1,.65.35c.36.46,1,2.09-.29,7.3-9,28.35-14.82,57.48-20,84.89l-.13.73.59-.44c3.14-2.32,6-6.24,8.36-9.39.78-1.06,1.5-2,2.16-2.86,2.85-3.56,5.64-7.25,8.34-10.83,1.13-1.5,2.27-3,3.41-4.5a220.52,220.52,0,0,1,15.4-17.32c2.82-3,5.48-5.76,8-8.52a4.48,4.48,0,0,1,3.29-1.44,3.25,3.25,0,0,1,2.41.93,3,3,0,0,1,.73,2.28c-1.08,18.65-13.2,35.44-23.64,48-3.18,3.82-6.56,7.58-9.83,11.22-3.48,3.88-7.09,7.89-10.46,12a199.16,199.16,0,0,0-12.47,17.32l-2.94,4.38-.55.82.91-.39c5.33-2.31,10.89-4.41,16.26-6.44,6.56-2.48,13.34-5.05,19.77-8a214.94,214.94,0,0,0,21.4-11.41c3.31-2,6.67-4.13,10.27-6.52q2.55-1.69,5.08-3.44c.33-.23.67-.47,1-.72,1.43-1,2.9-2.11,4.37-2.11a3.82,3.82,0,0,1,2.72,1.34,3,3,0,0,1,.52,3.72c-11.8,17.82-32.09,33.26-50.48,38.42l-.68.19,2.79,1.55c4.39,2.45,8.92,5,13.59,7.15a74,74,0,0,0,12,4l.51.13c.71.2,1.44.38,2.18.57,3.27.83,6.64,1.68,9.4,3.37a2.1,2.1,0,0,1,1.12,2.23,2.34,2.34,0,0,1-1,1.28,14.31,14.31,0,0,1-4.38,1.59l-1.15.3a38.06,38.06,0,0,1-5.95,1.1,40.17,40.17,0,0,1-4.15.21,49.59,49.59,0,0,1-7.5-.59,130,130,0,0,1-17.35-4.26c-7.88-2.32-16-4.72-24.5-4.89h-.71c-22.63,0-31.74,22.54-39.78,42.43-1.11,2.74-2.2,5.45-3.31,8l.46.33c11-9.76,22-17.05,32.65-21.65,9.89-4.28,20.25-6.64,29.16-6.64a38.6,38.6,0,0,1,18.59,4.28,1.72,1.72,0,0,1,1,1.43,2.22,2.22,0,0,1-1,1.88,1.76,1.76,0,0,1-.45.25,3.3,3.3,0,0,1-.4.21,130.64,130.64,0,0,1-14,4c-2.24.56-4.36,1.09-6.1,1.58A100.19,100.19,0,0,0,295.19,270l-2.86,1.35a117.6,117.6,0,0,0-12.5,7.1c-1.45.9-2.89,1.81-4.34,2.68l.29.5a2.92,2.92,0,0,1,1.28-.18l1.38,0h.23c1.08-.06,2.17-.1,3.26-.13.9,0,1.8,0,2.71,0,1.21,0,2.42,0,3.64.06a101.2,101.2,0,0,1,23.23,3.34,77.91,77.91,0,0,1,10.8,3.77l.31.13c2.4,1,5.67,2.46,5.06,5.53-.44,2.22-2.57,3-4.26,3H323c-6.74-.5-12.79-.74-18.48-.74-19.28,0-34.3,2.8-45.94,8.56-16.31,8.08-24.87,26.36-31.61,42.86-5.14,12.86-10.09,26-14.86,38.79-6.7,17.84-13.62,36.29-21.19,54.14-.74,1.74-1.48,3.52-2.24,5.34C181.18,464,171.87,486.29,156.1,498a29.25,29.25,0,0,1-17.24,6Z"/><path class="chard-leafchard-leafcls-4" d="M205.65,226.73c2.86,3,6.46,4.81,7.69,4.31a1.57,1.57,0,0,0,.45-2.15c-17.58-33.56-20-68.58-20-106.22a3.93,3.93,0,0,0-1.85,3.1c-2.38,17.87-3.48,35.72-.36,53.47C194.19,193.83,197.63,213.34,205.65,226.73Z"/><path class="chard-leafchard-leafcls-4" d="M237.15,215.5c.59,12.57-2.63,26.11-6.77,37.51a34.47,34.47,0,0,0,2.09,6.8c7.07-18.85,12.49-48,6-74.28-4.16-16.84-4.41-39.9-.65-56.87,1.08-4.83,10.71-35,14.93-44.47-1.11-.61-2.75-.18-3.83,1.59-14.92,24.36-23.75,57.7-20.08,86.2C230.73,186.65,236.45,200.64,237.15,215.5Z"/><path class="chard-leafchard-leafcls-4" d="M325.18,295.43c-11.68-5.38-26.91-5.9-39.38-4.57-13.11,1.4-26.28,5.72-36.74,13.93a52.17,52.17,0,0,0-7.34,7,56.86,56.86,0,0,0-3.79,5c-12.36,18.16-19.66,39.23-27.55,59.58-8.88,22.87-39.38,92.41-44.85,101.94-6,10.41-26.94,32.79-38.13,15.85-13.47-20.39,8.3-55.27,14.14-65.55C164,389.1,198,343.7,210.91,299.75c6.86-23.36,1.44-41.35-12.06-60.89-7-10.12-16-19-20.34-30.65a111.1,111.1,0,0,1-3.6-11.27,59.76,59.76,0,0,1-3.58-13.12,77.47,77.47,0,0,1-.69-21.58c-1.19.28-1.92,1.65-2.25,2.76-2.2,7.22-1.65,15.67-.92,23.13a90.58,90.58,0,0,0,5.18,22.37,106.14,106.14,0,0,0,8,16.82c12.33,21.06,28.72,38.59,22,64.74-2.47,9.58-6.41,18.65-9.58,28-6.1,18-15.38,34-24.76,50.47-8.54,15-17.57,29.69-26.27,44.58q-3,5.07-5.85,10.17c-9.79,17.27-24.51,40.25-19.31,61.13,4.76,19,24.71,22.82,39.41,11.86,17.4-13,26.73-38.11,34.91-57.37,13-30.6,23.71-62.08,36-92.93,6.54-16,15.15-34.63,31.47-42.71C277.45,296,302.54,296,323,297.47a4.88,4.88,0,0,0,3.83-1.25C326.27,296,325.73,295.68,325.18,295.43Z"/><path class="chard-leafchard-leafcls-4" d="M249,148.39c1.65-2.18,2.09-5.29,2.91-7.85,1-3.16,2.1-6.29,3.16-9.43a142.59,142.59,0,0,1,7.71-17.93c6.27-12.59,14.05-25,24.68-34.34,2.83-2.49-1.36-6.72-4.15-4.15C272.39,84.77,264.73,97.8,258,110.91a121.57,121.57,0,0,0-8,18.81c-1,3.28-1.83,6.61-2.58,10-.59,2.7-1.6,5.61-1,8.38.27,1.31,1.9,1.2,2.56.33Z"/><path class="chard-leafchard-leafcls-4" d="M313.81,73.74c-3.46,1.86-5.44,6-7.35,9.28-2.33,4-4.61,8-6.81,12.08-4.39,8.1-8.45,16.36-12.32,24.72q-11.56,25-20.7,51c-1.69,4.77-3.26,9.58-4.79,14.4s-3.2,7.92-3.68,13c-.22,2.31,2,5.05,3.07,3.16a76,76,0,0,0,4.9-12.22c1.45-4.24,3-8.45,4.47-12.66,3.06-8.53,6.18-17,9.54-25.46,6.68-16.76,14-33.17,21.81-49.44,4.19-8.74,8.08-18.09,13.75-26,.86-1.19-.77-2.49-1.89-1.89Z"/><path class="chard-leafchard-leafcls-4" d="M295.49,168.4c5-2.5,9.28-6.62,13-10.77,3.87-4.35,7.31-9,10.76-13.71s6.8-9.36,10.35-13.93c1.6-2.08,3.28-4.1,5-6.08a90.27,90.27,0,0,1,6.06-6.72c.75-.69,2.42-2.54,3.63-2.08s.45,2.8.22,3.89c-.65,3.07-1.59,6.11-2.47,9.11a62.89,62.89,0,0,1-8.47,16.95c-7,10.28-14.41,20.18-22.22,29.83-4.25,5.26-8.54,10.49-12.81,15.74s-9.24,10.78-12.57,16.79c-1.47,2.66,2.79,4.42,5,2.28,4.87-4.69,8.18-9.54,12.4-14.82s8.44-10.56,12.52-15.95,8.16-11.07,11.94-16.82,6.88-11.46,10-17.44,6.5-11.77,9.11-17.86a37,37,0,0,0,2.42-9.12c.43-2.92-.24-5.82-3.33-6.86a7.67,7.67,0,0,0-6.82,1.36,57.93,57.93,0,0,0-7.76,6.39A128.14,128.14,0,0,0,319,132.87c-4.28,5.68-8.49,11.44-12.64,17.22s-8.64,11-12.36,16.84c-.62,1,.56,1.92,1.46,1.47Z"/><path class="chard-leafchard-leafcls-4" d="M319.23,215.26c5.35-.55,11-3.2,15.89-5.34a74.12,74.12,0,0,0,15.11-9.37,78.21,78.21,0,0,0,12.63-12c1.81-2.19,3.53-4.46,5.23-6.73s3.22-4.49,3.52-7.2c.08-.68-.77-1-1.29-.74-2.25,1.25-3.84,3.51-5.43,5.47a71.09,71.09,0,0,1-5.65,6.12A135.5,135.5,0,0,1,347,196.34a151.2,151.2,0,0,1-13.64,9c-2.38,1.44-4.76,2.85-7.24,4.1s-5.15,2.11-7.49,3.51c-1,.58-.64,2.4.62,2.27Z"/><path class="chard-leafchard-leafcls-4" d="M359.07,232.14c-4.55,3.38-9.79,3.59-15.23,3.13a131.1,131.1,0,0,1-17.3-2.62c-5.5-1.2-10.94-2.59-16.37-4.06s-10.91-2.82-16.52-2.93c-10.57-.2-20,5.21-26.63,13.18-4.25,5.1-7.2,11.18-10.17,17.08-3.14,6.27-5.8,12.7-8.52,19.14-1.16,2.72,2.77,5.15,4,2.37,2.43-5.23,5.31-10.18,7.9-15.33,2.92-5.84,5.78-12,9.64-17.32,5.83-8,14.54-13.29,24.6-12.93,5.68.2,11.2,1.79,16.66,3.23s10.9,2.78,16.45,3.68c6,1,12.05,1.59,18.06.66,5.42-.83,10.72-1.5,15.16-5,1.3-1-.43-3.3-1.78-2.3Z"/><path class="chard-leafchard-leafcls-4" d="M272.44,283.43c5-2.44,10.18-4.62,15.26-7s10.21-4.81,15.49-6.86q7.57-3,15.42-5.17c2.71-.77,5.46-1.38,8.17-2.11,2.27-.61,5.11-1.58,6.62-3.46a1.78,1.78,0,0,0-1.72-2.94c-2.58.48-5.17,1.54-7.76,2.17-2.76.68-5.51,1.38-8.23,2.18q-8,2.34-15.78,5.46a116.06,116.06,0,0,0-14.9,7,99.27,99.27,0,0,0-13.42,9.64c-.64.53.18,1.42.85,1.1Z"/></g></g></svg>