<svg xmlns="http://www.w3.org/2000/svg" viewBox="0 0 512 512"><defs><style>.cherrytomatocherry-tomatocls-1{fill:none;}.cherrytomatocherry-tomatocls-2{fill:#e01f4c;}.cherrytomatocherry-tomatocls-3{fill:#4a2d2d;}.cherrytomatocherry-tomatocls-4{fill:#fff;}</style></defs><g id="Capa_2" data-name="Capa 2"><g id="bocetos"><rect class="cherrytomatocherry-tomatocls-1" width="512" height="512"/><path class="cherrytomatocherry-tomatocls-2" d="M401.85,325.43c-9.44-37.75-58.33-64.14-110.24-39.46,1.37,2.33,2.93,4.34,5.95,5.41,4.11,1.45,9.21-.65,13.05-2.15,8.84-3.45,17.2-8.66,27-8.59,3.34,0,5.25,5.22,1.83,6.74-6.11,2.72-11.69,6.3-17.51,9.55-2.56,1.43-5.24,2.78-7.66,4.46a6.28,6.28,0,0,0-.58.47c.58.14,1.08.27,1.25.3l4.74.76c3,.48,6,1,9,1.61a70.93,70.93,0,0,1,17.88,6.22c3.38,1.73,2,6.19-1,7.35a37,37,0,0,1-20,1.75c-4.6-.85-9.53-2.71-14.31-2.52.81,4.65.81,9.35,1.38,14.08.77,6.36,1.91,12.61,2.14,19,.12,3.26-5,4.91-6.41,1.74-2.45-5.45-3.8-11.34-6.1-16.86-1.71-4.13-3.63-8.45-6.89-11.6a6.64,6.64,0,0,0-5.48-2.24c-3.31.32-6.56,2.19-9.54,3.53a124.2,124.2,0,0,0-18.65,10c-3.13,2.12-7-2.91-4.05-5.25,4-3.13,6.46-7.69,10.29-11,3.44-3,7.32-5.36,11-8a36.22,36.22,0,0,0,5.12-4.38,7.79,7.79,0,0,0,2-2.55,3.65,3.65,0,0,0-.62-2.29,87.31,87.31,0,0,1-4.05-10c-52.8,31.93-67.75,93.86-30.38,123.59,37.95,30.18,91.85,22,124.62-12.94S405,338.18,401.85,325.43Z"/><path class="cherrytomatocherry-tomatocls-3" d="M354.25,312.13c-9.64-5.58-22.69-10.41-33.14-11.7A120,120,0,0,0,344.06,288c3.4-2.48,3.5-8.48-1.26-9.61-11-2.62-21.41-.17-31.36,5-2.27,1.18-5.95,4.95-8.23,5.08-4.66.28-6.35-6-7.62-9.17a105.75,105.75,0,0,1-4.34-16.59,33.73,33.73,0,0,1-7.54-3.56c-.68-.42-1.31-.89-1.95-1.35.89,11.66,4.3,30.51,14,36.38,5.49,3.32,10.92-.55,16-2.85,3.84-1.75,16.38-6.63,26.84-7.06-4.79,3.11-20.84,12.88-25.87,15.63-4.49,2.45-2.78,4.14,1.51,4.31,8.3.32,23.28,5.06,32.55,10.45-13.9,3.88-24.88,1.48-33.41.22-3.52-.52-5.77-.81-4.64,3.13,2.49,8.64,4.21,24,2.8,34.17-2.36-3.9-6.84-16.27-8.83-20.4-2.15-4.43-3-10.92-8.74-12-5.13-1-33.09,12.83-37,14.45,10-16,24.43-23.2,31.15-27.28,2.21-1.34,3.71-3.85,2.05-6.14-5.46-7.53-7.51-14.58-11-23.23s-4.37-21.58-7.57-30.35c-1-2.76-6.25-5.87-6.9-2.37-3.21,17.33,6.28,43.61,16.41,58.19-13.32,8.43-27.1,19.05-32,34.19-.89,2.79,1.92,5.13,4.53,4.53,7.17-1.65,14-4.64,20.84-7.24l8.62-3.25c4.16-1.57,5.25-2.82,8,.74,7.28,9.55,7.84,20.75,18.33,28.17,2.52,1.79,6.91,0,7.46-3a99.09,99.09,0,0,0,.39-33.39,69.88,69.88,0,0,0,35.79-2.86C356.85,319.52,358,314.3,354.25,312.13Z"/><path class="cherrytomatocherry-tomatocls-2" d="M260,253.43c-2.85-21.12-18.24-43.78-39.47-59.19a76.22,76.22,0,0,1-2,12.81c-.61,2.78-1.64,5.46-2.17,8.26-.39,2.11-.73,3.93,1.19,5,2.77,1.56,6.22,1.88,9.28,2.52,3.52.72,7,1.7,9.94,3.87a35.89,35.89,0,0,1,7.09,7.47c.81,1.06,1.6,2.15,2.43,3.2a48.63,48.63,0,0,1,5,4.75,4.1,4.1,0,0,1-5.8,5.8c-7.49-6.53-15.21-11.81-24.89-14.47-1.62-.44-3.49-1-5.29-1.39-.64,8.18-.48,16.39-.51,24.6,0,3.62-5.12,5.14-6.92,1.87a42.2,42.2,0,0,1-4.69-14.2,43.13,43.13,0,0,1-.52-7.16,3.61,3.61,0,0,1-.69-.51,6.65,6.65,0,0,1-2.17-4.21c-10.89,1.93-21.05,7.67-31.92,9.72-4.13.77-6.59-4.51-2.89-6.86,5.44-3.45,10.65-7.42,16.73-9.71,2.49-.94,5.09-1.64,7.54-2.69.84-.36,2.49-.9,3.06-1.65.39-.52.31.24.3-.49,0-.3-.35-.71-.62-1a35.82,35.82,0,0,1-9.58-10.29c-.17-.25-.32-.51-.49-.77-3.91-4.11-7.51-8.42-9.38-13.81-.28-.5-.59-1-.85-1.48-1.31-2.66.89-6.46,4.13-5.37,6.9,2.33,12.1,8.26,16.86,13.51a35.7,35.7,0,0,1,5.52,7.65c.42.82,1,1.66,1.47,2.52,3.89-7.78,7.88-16.91,7.36-25.85-14.36-7.46-30.41-11.51-46.63-10.05-47.86,4.31-69.42,55.63-58.21,103.06s49.59,72.43,103.49,54.76S261.84,267.13,260,253.43Z"/><path class="cherrytomatocherry-tomatocls-2" d="M409.61,154.68C391.5,96,327.25,91.73,291.46,115c-17.69,11.5-28.41,31.34-34.18,51.68,7.38,1.2,14.59,3.41,21.88,5,6.73,1.5,15,4,21.38.3,5.47-3.19,9.14-9.63,12.85-14.6,4.51-6,8.21-13,14.66-17.24,2.47-1.61,6.31,1.12,5.2,4-1.82,4.71-4.86,8.8-7.54,13.05-2.48,3.93-5.29,8.15-6.29,12.76a8.94,8.94,0,0,0-.17,2c.05.47.08.54.3.78a6.7,6.7,0,0,0,1.57,1,18.12,18.12,0,0,0,2.86.9,82.57,82.57,0,0,0,14.09,1.89c2.43.17,4.77.53,7.19.86,3.56.49,7.17.6,10.74,1.06h0c.37.05.75.08,1.12.14,4.82.76,3.4,8.14-1.12,8.21-7.28.13-14.31,2.51-21.31,4.29-2.63.67-5.27,1.17-7.92,1.7.23.49.45,1,.68,1.39a43.86,43.86,0,0,1,2.43,4.6A49.4,49.4,0,0,1,333,208c1.4,6.13,1.91,12.42,3.33,18.55,1.19,5.14-5.94,6.91-7.76,2.14-2.92-7.62-7.7-14.37-12.17-21.2a128.47,128.47,0,0,1-30.23,24.68c-2.61,1.5-6.87-1.07-5.55-4.26,1.79-4.3,4.47-7.85,7.24-11.57,3-4,5.44-8.45,8.12-12.7a53,53,0,0,1,6-7.91c1.68-1.81,3.67-3.63,4.8-5.87-.86-.19-2.59-.51-3-.53-4.25-.15-8.48.89-12.73.62a130,130,0,0,1-13.85-2.09c-4-.7-8.08-1.41-12.08-2.34a75.31,75.31,0,0,1-11.27-3.46c-2.59,15.48-2.55,30.1-.74,40.28,4.74,26.73,41.82,68.13,103.91,38.38S414.8,171.49,409.61,154.68Z"/><path class="cherrytomatocherry-tomatocls-3" d="M365.92,178.19a125.08,125.08,0,0,0-39.81-9.27,69.48,69.48,0,0,0,11.83-29.46c.56-3.42-2.69-6.56-6.05-4.65a87.1,87.1,0,0,0-33.43,33.7,66.23,66.23,0,0,1-18.5-1.18c-9.41-1.89-18.35-7-26.95-11.23-15.62-7.76-29.81-18.36-42.77-30C189.24,107.32,165,73.7,133.4,75c-11.85.49-19.53,9.76-15.36,21.55,4.42,12.47,20.2,21.29,30.39,28.53,25.37,18,61.93,43.93,50.46,79.29-6.2-9.91-17.77-16.79-27.46-22.58-2.72-1.63-6.45,1.08-5.47,4.2,3.86,12.25,9.85,23.63,18.51,33-11.1,5.39-20.12,12.83-28.92,22a4.16,4.16,0,0,0,4,6.89c6.38-1.65,25.73-5.65,36.5-9.75.65,2.59,4.75,19.08,13.45,27.52a3.13,3.13,0,0,0,5.11-1.35c2.67-7.54,4-16.57,4.94-24.45,10.53,3.07,20.76,10,30.58,14.71,3.89,1.87,8.37-1.21,7.31-5.62-4.06-16.92-18-31.24-35.31-31.54,5.26-12.74,5-28,1.17-41.76a109.3,109.3,0,0,0,31.89,16.85c11.73,3.76,25.73,6.52,38.87,5.72a82.1,82.1,0,0,0-15,33.53c-.65,3.45,2.26,7.53,6.16,6.16,12.68-4.44,22-13.13,30.48-23a73.34,73.34,0,0,0,14,19.23c2.55,2.53,8.1,1.72,8.73-2.3a53.28,53.28,0,0,0-5.83-34.58,73.76,73.76,0,0,0,33.37-10.56C368.79,185,369.49,179.7,365.92,178.19Zm-41.1,11.4c-3.36-.15-5.09.66-2,4,5.5,5.89,12.29,22.7,10.19,35-2.62-3.8-11.39-19.21-13.07-23.7-1.18-3.16-4.48-3.2-7.09,0-6.55,8-17.67,19-26.36,24.58,3.71-10.91,13.55-28.16,21.49-36.21,2.38-2.42-.45-5.21-2.44-6.1-5.24-2.33-8.63-1.85-14.09-2.18-6.32-.37-12.65-.74-18.92-1.64a93.26,93.26,0,0,1-11.1-2.25,120.41,120.41,0,0,1-46-23.47c-3.91-3.25-8.77.72-6.81,5.26,4.25,9.84,7.26,20.27,7.68,31a89.61,89.61,0,0,1-1.21,16.43c-.4,2.71-1.56,9.79,0,11.18,2.66,2.33,7.32,1.78,17.81,6.23,8.74,3.71,10.17,6,15.77,16.53-8.18-4.16-23.86-13.18-32.92-13.54-3.29-.13-3.67,3.89-3.35,6.73a63.6,63.6,0,0,1-.86,20.38,96,96,0,0,1-6-17.14c-.85-3.85-1.16-8.05-5.6-9.6-5.26-1.83-26.41,6-32.88,7.76,6.36-5.28,19.45-12.44,25.44-14.66,3-1.1,3.05-3,.32-5.49-7.57-6.82-14-18.56-18.43-27.28,7.42,5,17.49,12.6,22.6,21.42a1.62,1.62,0,0,0,.1.18c.28.49.55,1,.8,1.47,2.32,4.67,6.47-3.69,7.33-5.58A43.71,43.71,0,0,0,209,189.44c-.43-14.07-6.64-27.61-14.9-38.78a90.27,90.27,0,0,0-7-8.36c-11-11.54-24.36-20.25-37.23-29.5-6.3-4.53-13.25-9.14-18.47-14.94-4.87-5.41-5.68-12.54,3.3-13.2,4.35-.32,8.83,1,12.83,2.6,15.15,5.92,26.59,19.09,37.9,30.3,11.93,11.82,23.94,23.69,37.16,34.08C235,161.4,249,168,264,173.09A97.64,97.64,0,0,0,284.63,178c6.14.66,13.28-.16,17.93-4.63,2.62-2.51,3.87-4.64,6-7.58a103.61,103.61,0,0,1,7.45-9.28,84.64,84.64,0,0,1,14.38-13c-2.77,9.09-7.57,19.43-13.07,26.25-2.31,2.87-2.75,5.12,1,5.43,11.33.93,28,4.46,38.76,7.75C348.71,186.44,334.17,190,324.82,189.59Z"/><path class="cherrytomatocherry-tomatocls-4" d="M137.07,195c-7,4.68-13.26,10.21-17,17.93-3.39,7-6.6,16.76,1,22a5.47,5.47,0,0,0,5.63,0c5.37-3.46,4.95-9.64,7.39-15,2.54-5.57,6.47-10.78,10.22-15.59s-1-13.47-7.22-9.36Z"/><path class="cherrytomatocherry-tomatocls-4" d="M121.46,254a5.66,5.66,0,0,0,5.54-5.54l-.19-1.47a5.64,5.64,0,0,0-1.43-2.45l-1.12-.86a5.5,5.5,0,0,0-2.8-.76,4.12,4.12,0,0,0-2.13.48,5,5,0,0,0-2.93,2.93,4.12,4.12,0,0,0-.48,2.13l.2,1.48a5.51,5.51,0,0,0,1.43,2.44l1.12.87a5.46,5.46,0,0,0,2.79.75Z"/><path class="cherrytomatocherry-tomatocls-4" d="M222.24,308.73c5.23,0,5.24-8.13,0-8.13s-5.23,8.13,0,8.13Z"/><path class="cherrytomatocherry-tomatocls-4" d="M246.35,362.73c-2.9,6.5-3.75,12.48-1.65,19.45C246.56,388.35,251,396,258,397.06c4.15.62,8.42-2.46,7.1-7.09-1.28-4.46-4.66-7.78-6.66-11.91a34.93,34.93,0,0,1-3.29-12.95c-.17-4.25-6.73-6.93-8.77-2.38Z"/><path class="cherrytomatocherry-tomatocls-4" d="M375.35,384.67c6.09-3.28,10.46-11.42,13.49-17.4,2.92-5.75,7.12-13.93,3.12-19.95a4.51,4.51,0,0,0-7-.89c-4.39,4.12-4.48,11.53-7.05,16.86s-7.48,10.87-8.38,16.92c-.49,3.33,2.54,6.22,5.8,4.46Z"/><path class="cherrytomatocherry-tomatocls-4" d="M395.57,333.15l-.46-2-.55-1.3a4.18,4.18,0,0,0-1.4-1.52,5.22,5.22,0,0,0-3.3-1.17,6.45,6.45,0,0,0-2.75.74,5.54,5.54,0,0,0-2.5,3.25l-.46,2a6,6,0,0,0,1.52,5.76,6.18,6.18,0,0,0,4.19,1.73,6.09,6.09,0,0,0,4.18-1.73,6,6,0,0,0,1.53-5.76Z"/><path class="cherrytomatocherry-tomatocls-4" d="M358.2,125.58c8.21,5.39,16.16,13.08,20.19,22.12,2.1,4.71,6.49,16.19,13.38,9.31,6.27-6.26-1.48-18.53-5.53-23.77-6.18-8-13.76-12.49-22.71-16.77-6.1-2.92-11.06,5.34-5.33,9.11Z"/><path class="cherrytomatocherry-tomatocls-4" d="M389.85,176c0,.11,0,.22,0,.32l.08-.64a1.16,1.16,0,0,1-.08.32l.24-.56a1.68,1.68,0,0,1-.2.34l.36-.46a1.07,1.07,0,0,1-.18.19,2.24,2.24,0,0,0-.65,1.59,2.34,2.34,0,0,0,.48,1.36,2.12,2.12,0,0,0,1.16.8l.6.08a2.16,2.16,0,0,0,1.13-.31,1.63,1.63,0,0,0,.34-.19,4.19,4.19,0,0,0,.68-.57,4,4,0,0,0,.9-1.61,2.59,2.59,0,0,0-.25-1.91,2.42,2.42,0,0,0-.89-.88,1.89,1.89,0,0,0-.91-.3,2.35,2.35,0,0,0-1.83.49,2.33,2.33,0,0,0-1,1.94Z"/></g></g></svg>