<svg xmlns="http://www.w3.org/2000/svg" viewBox="0 0 512 512"><defs><style>.cherriescherriescls-1{fill:#f1475d;}.cherriescherriescls-2{fill:#72ab4c;}.cherriescherriescls-3{fill:#4a2d2d;}.cherriescherriescls-4{fill:#fff;}.cherriescherriescls-5{fill:none;}</style></defs><g id="Capa_2" data-name="Capa 2"><g id="bocetos"><path class="cherriescherriescls-1" d="M114.12,251.27c-35.11,1.89-54.74,41.15-57,70.59s7.59,51.51,16.61,53.23c17.75,3.4,17.37,14.73,29.45,17.75,17.27,4.32,76.21-8.82,94.75-37.75C232.28,301.48,149.22,249.38,114.12,251.27Z"/><path class="cherriescherriescls-1" d="M231.9,350.18c-26.43,25.67-14.72,64.55,5.66,89.47S268.9,469.85,281,468s20.76-2.26,30.95.76,39.26-16.24,49.46-52.1,4.15-68.71-22.28-80.79S258.33,324.51,231.9,350.18Z"/><path class="cherriescherriescls-2" d="M255.94,116.15s-52.33-19.28-85.76-8.33-82.68,40-80.71,47.66,45.94,49,93.76,32.59S255.94,116.15,255.94,116.15Z"/><path class="cherriescherriescls-2" d="M265.5,122.54s36.24-14.16,54.36-30,41.9-48.14,79.28-48.14,43.6,2.83,43.6,7.36-2.83,70.79-69.08,87.78-108.73-12.46-108.73-12.46Z"/><path class="cherriescherriescls-3" d="M142.18,281.48A18.49,18.49,0,0,0,148,301c5.17,4.31,13.91,6.26,19.78,2.22,2-1.36,1.5-5.18-1.35-5-5,.4-9.78.9-14-2.57-4-3.26-5.08-8.61-4.5-13.47.4-3.38-4.83-3.82-5.75-.78Z"/><path class="cherriescherriescls-3" d="M268.92,349.32c4.22,7,10.58,11.1,19,10.28,6.57-.63,15.29-4.92,16.63-12a2.89,2.89,0,0,0-4.78-2.79c-3.92,3.12-6.28,6.95-11.85,7.16a16.48,16.48,0,0,1-12.73-6.33c-2.7-3.73-8.8-.42-6.31,3.69Z"/><path class="cherriescherriescls-3" d="M149,297.46c32.51-15.93,55.12-46.07,75-75.42,11.13-16.47,21.71-33.33,29.15-51.84,6.75-16.79,13.32-39.88,7.64-57.84-1.37-4.35-7.22-3.26-7.63,1-.95,9.81-.2,19.36-2.11,29.16a138,138,0,0,1-8.75,28.07C235,187.54,225,203.14,214.79,218.43c-18.86,28.32-39.15,55.85-69,73.41-3.65,2.14-.44,7.45,3.29,5.62Z"/><path class="cherriescherriescls-3" d="M293.37,355.78c5.1-21,5.39-43.95,5-65.48a482.18,482.18,0,0,0-5.13-64.75,545.88,545.88,0,0,0-13.17-61.46c-2.43-8.86-5.17-17.62-7.91-26.39-2.58-8.25-4.57-17.62-9.61-24.77-2.23-3.17-8.9-2.59-8.3,2.25,1,8.37,4.88,16.12,7.68,24,2.91,8.2,5.39,16.57,7.74,24.94a548,548,0,0,1,13.24,59.66c3.5,21.42,6.21,43.24,6.72,64.95.51,22.25-2.08,43.92-3.57,66-.28,4.2,6.33,5,7.31,1Z"/><path class="cherriescherriescls-3" d="M261.42,122c7.33-9.41,4.32-25.29.58-35.73-2.92-8.14-9.66-20.57-19.93-20.29-13,.36-7.79,14.82-5.4,21.88,4.33,12.78,9.2,26.76,20.25,35.33,2.09,1.63,5.6-.4,4-3.06-4.1-6.68-8.5-12.26-11.56-19.59-1.33-3.19-2.77-6.32-4.12-9.5-1.11-2.6-2.18-5.25-3.1-7.93-1-2.84-3.17-5.37.13-7,6.71-3.27,12.53,14,13.93,18.79,2.65,9,1,16.18.7,25.19-.07,2.14,3.1,3.74,4.55,1.88Z"/><path class="cherriescherriescls-3" d="M267.2,127.09c45.91-1.58,98.31-17.32,130.29-52.07a2,2,0,0,0-2.89-2.89c-34.45,30.6-81.58,48.33-127.4,51.52-2.19.15-2.24,3.52,0,3.44Z"/><path class="cherriescherriescls-3" d="M135.83,153.93c41.09.43,77.79-23.47,116.57-33.83,3-.79,1.71-5.22-1.26-4.57-39.4,8.7-74.34,31.48-115.31,34.11-2.73.17-2.79,4.26,0,4.29Z"/><path class="cherriescherriescls-4" d="M129,266.35c-9.22-4.18-18.09-6.07-27.81-2.18-7.48,3-16,9.67-15.81,18.5.07,3.5,3.53,5,6.45,3.7,5-2.21,8.55-6.79,13.51-9.19a27.48,27.48,0,0,1,19.84-1.78c5.25,1.67,9-6.7,3.82-9Z"/><path class="cherriescherriescls-4" d="M241.2,357.9c-14.57,8.73-16.31,33.11-3.85,44.62,3,2.8,9.26,1.08,8.85-3.66-.53-6.2-3.47-11.77-3.89-18a27.22,27.22,0,0,1,4.85-17c2.48-3.69-2.35-8.12-6-6Z"/><rect class="cherriescherriescls-5" width="512" height="512"/></g></g></svg>