<svg xmlns="http://www.w3.org/2000/svg" viewBox="0 0 512 512"><defs><style>.chicklingvetchchickling-vetchcls-1{fill:#4a2d2d;}.chicklingvetchchickling-vetchcls-2{fill:none;}</style></defs><g id="Capa_2" data-name="Capa 2"><g id="bocetos"><path class="chicklingvetchchickling-vetchcls-1" d="M149,108c.38,1.94,2.64,2.94,4.41,2.51,5.39-1.32,10.93-2.76,16.52-2.51,4.8.22,8.88,2.1,13.46,3.19a2.88,2.88,0,0,0,2.78-4.78c-7.46-8.08-20.92-5.81-31.1-3.61-3.2-11.71-9.57-22.5-19.21-30.06-2.81-2.21-6.69,1.35-4,4C140.71,85.76,146.58,95.5,149,108Z"/><path class="chicklingvetchchickling-vetchcls-1" d="M165.11,242.79c16.38-6.33,28.94-19.77,37.46-34.8,9.79-17.29,17.93-38.53,18.41-58.54.31-12.82-5.34-23.11-8-35.27-2.57-11.79-1-24.1-2.52-36C209.3,69.27,205.91,60.23,200,53.4c-12.14-14.06-36.75-12.26-52.81-7.55-19.32,5.68-36.48,17.86-50.27,32.32a137.78,137.78,0,0,0-11,13c-12.18,16.35-19,35.34-23.28,55.14-3.73,17.35-4.77,36.57,2.5,53.18,8,18.32,26.49,28.39,43.68,36.65C126.7,244.71,145.82,250.24,165.11,242.79ZM77.84,200.22c-9.69-14.28-9-32.19-6.61-48.55s6.51-32.11,15-46.34c9-15.08,20.91-28.69,35.34-38.82A96,96,0,0,1,145,54.37c11.32-4,21-6,32.79-2.42,8.26,2.53,14.37,5.27,18.35,13.18,4.27,8.5,5,18.56,5.23,27.91.18,7.45.25,14.9,1.63,22.24,1.63,8.7,6,16.55,7.32,25.32,2.64,17.7-4.14,37.26-11.26,53.28-6.49,14.61-15.78,28.65-30,36.62-17.09,9.55-34.94,5.58-51.81-2.34C102.9,221.46,86.9,213.6,77.84,200.22Z"/><path class="chicklingvetchchickling-vetchcls-1" d="M446.07,88.52c-2.69-10.65-7.22-21.35-14.34-29.81-7.87-9.33-21-14.34-33.09-14.44-14.1-.13-27.71,8.5-38,17.39-8.83,7.67-16.59,16.6-26.05,23.55C323,93.79,310.06,95.67,296.36,98.94c-20.94,5-35.6,18.63-43.38,38.63-4.39,11.28-6.18,23.32-7.35,35.3-1.3,13.21-2.53,27.06.82,40.07,10.87,42.33,59.54,58.8,98.52,50.81,24-4.93,48.75-17.7,67-34,17.43-15.52,26-38,32.68-59.72,4.33-14.09,7.71-28.58,7.54-43.4C452.07,113.55,449.26,101.17,446.07,88.52Zm-10.26,73.94c-5.52,19.61-12.25,40.28-26.67,55.31S373.73,243.49,354,249.38c-34.69,10.38-80.67,3.31-95.88-34.39-7.65-19-4.44-45,.31-64.43,5.09-20.84,17.32-37.52,38.73-43,9.64-2.47,19.59-3.6,28.79-7.57,9.59-4.14,17.68-10.85,25.25-17.93,7-6.57,13.81-13.47,21.62-19.13,9.61-7,20.37-13.05,32.39-8.89,8.33,2.89,15.75,6.81,21.62,13.65,7.3,8.48,11.29,19.44,13.61,30.25C445.18,119.91,441.83,141.09,435.81,162.46Z"/><path class="chicklingvetchchickling-vetchcls-1" d="M327.72,318.05c-10.71-8.3-21.34-8.12-34.28-7.71-22.09.69-40.41-12.12-60.12-19.86a83.07,83.07,0,0,0-19.56-5.3c-23.16-3-43.32,8.68-61.44,21.7-17.69,12.72-35.79,27.11-45.48,47.17-9.16,18.95-10.33,42.46,3.09,59.74s35.66,23.49,56.13,28.34c13,3.09,25.71,6.58,37.65,12.8,9.84,5.13,18.89,12.5,30.14,14.21,23.13,3.5,47.1-14.48,63.29-29,16.94-15.22,33.3-34.55,42.21-55.66C348.7,362.32,348.11,333.87,327.72,318.05Zm-23.3,98c-13.26,15.07-28.9,28.71-47.28,37.12-12.11,5.54-22.49,5.91-34.22-.69-9-5.08-17.74-10.25-27.46-14-19.71-7.63-41.82-8.6-60.8-18.14-19.78-9.95-28.5-29.14-23.22-50.7,5.19-21.2,21.79-36.7,38.56-49.46,18-13.7,40.22-30.53,64.24-26.36,14.14,2.45,27,9.83,39.11,17.21a67.48,67.48,0,0,0,34.59,10c11.34.06,23.29-1.68,32.76,6.12,8.37,6.89,12.57,17.2,13,27.87C334.66,378.45,319.13,399.35,304.42,416.06Z"/><rect class="chicklingvetchchickling-vetchcls-2" width="512" height="512"/></g></g></svg>