<svg xmlns="http://www.w3.org/2000/svg" viewBox="0 0 512 512"><defs><style>.chickpeaschickpeascls-1{fill:#4a2d2d;}.chickpeaschickpeascls-2{fill:none;}</style></defs><g id="Capa_2" data-name="Capa 2"><g id="bocetos"><path class="chickpeaschickpeascls-1" d="M210.21,205.76c13.71,1.13,26.6-8,30.89-21.9,5.71-18.43-6.34-39.77-15.66-55C214.51,110.93,200.11,91.27,181,81.58s-44.79-8.46-65.73-7.14c-19.76,1.24-41.84,5.11-54.74,21.71-12.3,15.84-7.73,33.09-.62,50.09,4.66,11.12,7.47,20.2,4.37,32.2-2.76,10.72-8.06,21-7.82,32.32.4,18.75,15.4,32.06,32.12,37.8,22,7.56,51.49,6.84,73.16-1.32A94,94,0,0,0,210.21,205.76ZM64.66,129.53c-7.13-19.62,6.49-35,24.72-40.73,17.77-5.55,37.51-5,55.91-4.3,20.34.79,36,6.29,50.49,20.83a170,170,0,0,1,33.67,47.9c4.78,10.29,8,21.82,2.18,32.48a22.67,22.67,0,0,1-21.11,12,2.31,2.31,0,0,0-.2-.24c-.48-6.77-5.44-12.64-10.59-16.77a60.72,60.72,0,0,0-12.57-7.43c-1.46-.68-5.62-1.47-5.28-3.76.16-1.13,7.43-2.86,8.45-3.17,6.84-2.05,15.52-4.35,17-12.37a2.74,2.74,0,0,0-4.54-2.64c-4.19,3.44-7.65,6-13,7.59-4,1.17-8.29,1.56-12,3.53a10.17,10.17,0,0,0-5.21,5.84c-.7.07-1.4.2-2.08.3-2.22.33-4.42.81-6.64,1.18-4.46.75-9,1.32-13.46,1.75a195.84,195.84,0,0,1-27.08.65,184.75,184.75,0,0,1-27-3.19c-5.77-1.13-13.33-2-18.14-6C75.93,151.21,68.7,140.66,64.66,129.53Zm49.27,111.54c-16.78-.7-36.76-4.85-43.58-22.42-6.17-15.91,8.14-32.28,8.42-48.34,0-.73,0-1.46,0-2.18a30.73,30.73,0,0,0,7,3.14,138.6,138.6,0,0,0,21.69,4.8,181.2,181.2,0,0,0,45.47,1.3c4.35-.43,8.68-1.05,13-1.8a46.59,46.59,0,0,0,7.37-1.43l0,.08c3.25,5.88,12.71,8,17.71,12.19,3.69,3.08,9.66,7.79,8.84,13.35A82.17,82.17,0,0,1,167,231.83C150.5,240.56,132.24,241.83,113.93,241.07Z"/><path class="chickpeaschickpeascls-1" d="M260.1,245c-9.61-11.14-24-6.84-34.22.82-3.66,2.74-6.77,6.92-10.83,9-5.16,2.7-12.3,2.32-17.9,3.74-17.57,4.45-33.06,15.56-44.91,29-14,15.89-22.42,36.07-26.61,56.64-3.7,18.12-7.6,41.34,2.31,58.16,4.07,6.92,10.62,12.85,18.48,15,11.3,3.12,22.75-2.6,34.18-.47,19.93,3.71,34.21,25.47,56.18,20.89,18.42-3.84,33.29-24.34,42.3-39.56,9.58-16.17,14.85-35.56,16.59-54.19,2.37-25.46-12.29-43-22.39-65C268.39,268.41,267.94,254,260.1,245Zm-42,15c6.71-3.61,12.73-11,20.77-11.92,10-1.2,16,9.85,19.09,17.67a196.59,196.59,0,0,0,8.46,19.37,18.53,18.53,0,0,0-5.18,1.23A30.87,30.87,0,0,0,251.4,293c-2.9,2.73-5.58,6.24-9.1,8.2s-6.13-.15-7.18-3.75c-1-3.42-.72-7.07-2.08-10.42a11.36,11.36,0,0,0-6.64-6.42,22.78,22.78,0,0,0-9.85-1c-4.1.35-8.53,1.62-12.59.53-6-1.59-8.32-9.31-5.72-14.52C204.76,263.64,212.12,263.17,218.07,260Zm54.85,126.4c-7.62,14-18,30.13-32.27,38.21-17.59,10-34.53-10.59-50.17-16.1l-1-.31c2.52-2.4,4.87-5,7.15-7.6a169,169,0,0,0,13-16.76A142.85,142.85,0,0,0,228,345.71c2.19-7.15,5.17-15.71,3.67-23.19a1.87,1.87,0,0,0-3.39-.44c-3.14,5.75-3.83,12.87-5.66,19.15a165.72,165.72,0,0,1-6.88,19.33,153,153,0,0,1-20.9,35.12c-3.15,3.91-6.64,7.52-10,11.26a49,49,0,0,0-14.44-.79c-10.81,1-20.94,5.05-29.57-3.95-12.31-12.82-8.44-36.34-5.6-52.09,3.22-17.79,9.22-35.21,19.32-50.3,9.52-14.21,22.81-25.8,38.65-32.36A14.35,14.35,0,0,0,195.37,280c5.23,7.16,13.77,5.85,21.45,4.55,3.37-.57,7.65-.67,10.35,1.81,2.86,2.64,2.5,7.3,3.16,10.81s2.07,7.06,5.18,8.9c3.76,2.23,8,.85,11.33-1.56,3.88-2.86,6.94-6.68,10.7-9.67a19.75,19.75,0,0,1,6.54-3.59,18.5,18.5,0,0,1,5.47-.45c8.42,14.68,17.49,29.14,17.21,46.74C286.49,354.8,281.15,371.31,272.92,386.38Z"/><path class="chickpeaschickpeascls-1" d="M438.29,181.83a87.22,87.22,0,0,0-41.57-31.43c-18.3-6.6-46.8-8.55-65.11-.44-6.39-6.29-18.52-2.31-26.32-5.31-8.55-3.27-14.87-6.19-22.62.95s-8,17.61-5.9,27.3c1.17,5.49,2.67,11.27,5.9,15.95a14.61,14.61,0,0,0,4.16,4c-12,30.19-8.46,63.31,6.15,92.21,13.64,27,42.49,50.05,74.27,39,6.94-2.41,12.66-6.59,17.94-11.6,7.66-7.28,13.64-13,23.75-16.75,14.82-5.47,28.62-10.6,38.65-23.53C469.36,244.16,457.09,208.05,438.29,181.83ZM298.52,151.27c4,2,7.46,3.67,12,3.91,5,.26,10.26-1.47,15.19,0,6.49,2,6.91,10.89,5.53,16.45-1.33,5.3-5.58,11.06-10.95,12.8-5.82,1.88-10.5-4.67-16.52-3.17-2.89.72-4.53,3.5-6.3,5.66a.63.63,0,0,1-.33.25.62.62,0,0,1-.42-.13c-6.68-4-10.08-10.58-11.4-18.15C283.51,160.3,286.13,145.14,298.52,151.27ZM442.21,261.43c-7.42,13.6-19.1,19.35-33,24.67-1.93.74-3.74,1.56-5.5,2.41l-1-.77c-1.49-1.14-2.94-2.32-4.41-3.48a97.72,97.72,0,0,1-8-7.23c-5.18-5.13-10-10.64-14.71-16.21a201.13,201.13,0,0,1-24.46-36.43c-1.88-3.6-3.61-7.27-5.26-11a114.21,114.21,0,0,0-5.22-11.28,1.12,1.12,0,0,0-2.08.56c.54,7.37,3.65,14.51,6.59,21.23a169,169,0,0,0,10.63,20.31,222,222,0,0,0,27.89,36.69,82.42,82.42,0,0,0,9.82,8.94c1,.78,2.17,1.64,3.4,2.43-6.27,4-11.77,8.79-17.66,14.26-25.33,23.51-57.8,6-74.44-18.48-18.36-27.06-19.44-62.75-11.48-93.63a8.13,8.13,0,0,0,3.73-1.6,27.39,27.39,0,0,0,4.79-5c1.12-1.43,2.43-2.81,4.41-2.66,3.52.26,6.41,3,9.9,3.53,3.31.54,6.39-.68,9.14-2.45a26.77,26.77,0,0,0,11.21-14.56,22.81,22.81,0,0,0,.65-10,14.79,14.79,0,0,0-1.26-4.16c11.16-1.22,23.94-4.35,49.56,1.8a77.68,77.68,0,0,1,36.29,20.21c10.76,10.69,18.54,25.92,23.38,40.18C449.92,233.89,449.39,248.27,442.21,261.43Z"/><path class="chickpeaschickpeascls-1" d="M240.5,277.82c1.21.43,2.86.76,4,0a2.31,2.31,0,0,0,1.43-1.46A2.43,2.43,0,0,0,245,274a5.71,5.71,0,0,0-2-1.29c-.34-.17-.68-.36-1-.55l-.22-.15c.06,0-.2-.19-.27-.24h0a3.06,3.06,0,0,0-.18-.29l-.12-.42,0-.14a17.45,17.45,0,0,1,.09-2.7c0-.21,0-.42.07-.64,0,0,0-.19,0-.26.07-.45.15-.91.24-1.37.18-.89.41-1.77.66-2.64a27.58,27.58,0,0,0,1.47-5.66,1.78,1.78,0,0,0-2.67-1.53c-2.06,1.39-3.22,3.78-4.06,6.07a27.9,27.9,0,0,0-1.58,7,8.35,8.35,0,0,0,2,6.7A7.59,7.59,0,0,0,240.5,277.82Zm.71-6.94Z"/><path class="chickpeaschickpeascls-1" d="M200.19,169.5a3.64,3.64,0,0,0-.54.57s-.37.55-.25.39a4,4,0,0,0-.8,1.5,1.76,1.76,0,0,0,1.69,2.21,6.16,6.16,0,0,0,1.52-.38c.37-.11-.19.08.17,0s.53-.19.78-.31l.94-.44.18-.07.73-.32.3-.11.47-.17.63-.26.31-.12a20.84,20.84,0,0,1,2.17-.66c.69-.18,1.37-.35,2.07-.48l.19,0,.44,0c.42,0,1-.11,1.29-.13a9.61,9.61,0,0,1,3.9.69c1.81.65,3.09-2.33,1.32-3.12a19.16,19.16,0,0,0-10.11-1.92,14.24,14.24,0,0,0-5.17,1.61A12.62,12.62,0,0,0,200.19,169.5Z"/><path class="chickpeaschickpeascls-1" d="M298.65,163.61a13.88,13.88,0,0,0,1.87,2.25,13.1,13.1,0,0,0,5,3.06,7.64,7.64,0,0,0,1.57.3,2.42,2.42,0,0,0,2.09-.45,1.47,1.47,0,0,0,.53-1.52,2.25,2.25,0,0,0-1.57-1.51l-.31-.11.08,0c-.26-.09-.51-.24-.75-.34a3,3,0,0,0-.78-.32l-.07,0-.26-.11a18,18,0,0,1-2.22-1.27c-.21-.13-.41-.27-.61-.41s-.19-.14-.29-.21h0c-.37-.32-.75-.64-1.09-1l-1-1c-.16-.17-.33-.35-.48-.53l-.23-.27-.07-.07L300,160a1.35,1.35,0,0,0-2.47,1A11.23,11.23,0,0,0,298.65,163.61Z"/><rect class="chickpeaschickpeascls-2" width="512" height="512"/></g></g></svg>