<svg xmlns="http://www.w3.org/2000/svg" viewBox="0 0 512 512"><defs><style>.chilichilicls-1{fill:none;}.chilichilicls-2{fill:#e3365e;}.chilichilicls-3{fill:#4a2d2d;}.chilichilicls-4{fill:#fff;}</style></defs><g id="Capa_2" data-name="Capa 2"><g id="bocetos"><rect class="chilichilicls-1" width="512" height="512"/><path class="chilichilicls-2" d="M336.45,402.93c-15-10.19-64.25-48-79.77-73S245,204.48,245,179c0-5.68,1.3-10.73.17-14.94-5.39-.62-12.84-2.91-17.15-5.84-3.19-2.17-5.82-5.17-8.77-7.68a44.8,44.8,0,0,1-.7,6.18,59.1,59.1,0,0,1-3.81,11.73c-1.88,4.47-4.29,9.95-7.93,13.28a4.9,4.9,0,0,1-7.24-.25c-1.89-2.18-1.76-5.15-2.14-7.85a105.68,105.68,0,0,1-1.37-12.79,49.39,49.39,0,0,1,.34-6c-3.32,2-6.76,3.68-10.32,5.38-4.63,2.21-9.52,4.35-14.64,4.6-4.33,18.92-16,74.34-11.38,105.12C165.7,307.53,189,361,241.59,399s97.88,51.31,114.7,44.41S353.59,414.58,336.45,402.93Z"/><path class="chilichilicls-3" d="M260.92,162.27c-4-8.77-11.08-14.52-19.11-19.77-3.62-2.36-8.06-4.91-11.54-7.25-5.4-3.63-4.23-10.49-5-16.18-2.49-18.42-9.37-43.46-27.24-52.93-12.86-6.8-30.11,2.53-19,17,6.45,8.41,14.36,13.78,18.39,24.18a47.62,47.62,0,0,1,2.08,26.4,4.92,4.92,0,0,0-1.48.2c-18.27,5.34-31.85,16.27-43,31.47-2.11,2.88.8,6.33,3.75,6.54a62.13,62.13,0,0,0,36.14-9,76.63,76.63,0,0,0,2.94,23.32,4,4,0,0,0,5.8,2.36c11.08-6.52,17.06-18.22,18.51-30.59a66.89,66.89,0,0,0,34.52,11.53C260.74,169.85,262.32,165.37,260.92,162.27Zm-45.09-13.09c2.36,10.87-2.7,24.79-12.83,32.56-1.72-6.79-2.7-13.05-1-26,.64-4.84-.77-7.88-4.42-4.53-8.86,8.13-24.07,12.79-35.14,14,8.47-9.17,24.17-20,36.43-22.31a7.34,7.34,0,0,0,5.5-4.42c5.52-13.59,4.61-24.93-1-38.44a47,47,0,0,0-11.32-16.29c-2.77-2.6-10.1-11-3.21-11.49,5.63-.42,11.21,6.64,13.82,10.73,4.9,7.68,7.9,16.78,10,25.58s1,12.89,3.79,21.39c2.37,7.25,10.52,12.2,16.6,15.1,5.92,2.81,18.55,11,20.7,17.89-16.71-2.16-26.53-9.7-33.74-16.82C216.38,142.55,214.79,144.43,215.83,149.18Z"/><path class="chilichilicls-4" d="M172.08,229.11c2.88.73,6.43,1.44,9.35.62a5.14,5.14,0,0,0,0-9.91,27.94,27.94,0,0,0-4.18-.34l-.76-.07.12,0c-.59-.1-1.18-.21-1.76-.34-2.65-.61-5.76.81-6.4,3.63a5.28,5.28,0,0,0,3.63,6.39Z"/><path class="chilichilicls-4" d="M173.61,248.74a18.84,18.84,0,0,0,5.16-1.7,4.15,4.15,0,0,0,0-7.08,18.94,18.94,0,0,0-5.16-1.69,5.43,5.43,0,1,0,0,10.47Z"/><path class="chilichilicls-3" d="M286.65,411.09c5.08,0,5.09-7.9,0-7.9s-5.09,7.9,0,7.9Z"/><path class="chilichilicls-3" d="M305.41,424.6c2.49,0,2.5-3.88,0-3.88a1.94,1.94,0,0,0,0,3.88Z"/><path class="chilichilicls-3" d="M314.46,411a1.94,1.94,0,0,0,0-3.88,1.94,1.94,0,0,0,0,3.88Z"/></g></g></svg>