<svg xmlns="http://www.w3.org/2000/svg" viewBox="0 0 512 512"><defs><style>.chinese-cabbagechinese-cabbagecls-1{fill:none;}.chinese-cabbagechinese-cabbagecls-2{fill:#c0c728;}.chinese-cabbagechinese-cabbagecls-3{fill:#fff;}.chinese-cabbagechinese-cabbagecls-4{fill:#4a2d2d;}.chinese-cabbagechinese-cabbagecls-5{fill:#f4f5d8;}</style></defs><g id="Capa_2" data-name="Capa 2"><g id="bocetos"><rect class="chinese-cabbagechinese-cabbagecls-1" width="512" height="512"/><path class="chinese-cabbagechinese-cabbagecls-2" d="M428.2,279.33c-3.88,33.64-19.41,83.43-43.33,115.78-9.22,12.45-26,25.86-44.74,37.6-30,18.76-47.89,53.79-65,53.38-16.15-.37-33.34-4.88-50.45-10.78-12.36-4.29-44.84-31.05-44.84-31.05S106.1,364.7,83.46,287.09s-21.34-89.9,1.3-146.81,41.39-76.33,55-80.85,20.06-1.94,20.06-1.94S172.07,29,218.64,21.27a215,215,0,0,1,29.88-2.9c2.82-.07,5.61-.09,8.33-.05,29.33.48,53.34,7.52,68.51,17.19,21.34,13.58,25.22,29.1,25.22,29.1s49.81-3.24,77,41.39S432.08,245.7,428.2,279.33Z"/><path class="chinese-cabbagechinese-cabbagecls-3" d="M393.48,128.53c-25.86,37.08-10.31,83.55-1.41,123.46,10.54,47.24,10.79,99.3-15.4,141.48a1.88,1.88,0,0,0,2.91,2.29c14.09-13.45,20.19-33.34,23.21-52.1a229.65,229.65,0,0,0,.14-69.59c-6.86-47-33.47-98-5.47-143.17,1.59-2.56-2.29-4.79-4-2.37Z"/><path class="chinese-cabbagechinese-cabbagecls-3" d="M422.57,168.47a310,310,0,0,0-22.29,38.1c-5.34,10.81-10,22.48-9,34.72.13,1.69,2.76,2.36,3.17.46A136.44,136.44,0,0,1,407.54,205c6.13-11.49,13.37-22.42,19-34.16a2.32,2.32,0,0,0-4-2.38Z"/><path class="chinese-cabbagechinese-cabbagecls-3" d="M297.61,62.31a367,367,0,0,1-15.83,48.16c-6.79,16.69-16.41,31.72-23.75,48-.84,1.87,1.63,4.36,3.13,2.42,10-12.92,16.85-29.33,23.09-44.36A317.29,317.29,0,0,0,300.83,63.2c.47-2.09-2.69-3-3.22-.89Z"/><path class="chinese-cabbagechinese-cabbagecls-3" d="M340.28,100.09c-8.58,24.89-14,50.24-25,74.35-9.66,21.05-20.93,44.61-38.49,60.18-1.69,1.5.48,4.15,2.37,3.07,9.36-5.36,15.22-13.46,20.56-22.65,7.2-12.38,14.24-24.85,20.17-37.91,10.87-23.91,20.46-50.44,24-76.56.29-2.12-2.92-2.29-3.54-.48Z"/><path class="chinese-cabbagechinese-cabbagecls-3" d="M350.23,214.85c-8.7,31.17-25.78,54.88-46.39,79.16a1.49,1.49,0,0,0,2.1,2.1c24.55-19.28,40-50.7,47.33-80.42a1.58,1.58,0,0,0-3-.84Z"/><path class="chinese-cabbagechinese-cabbagecls-3" d="M176.7,71.8c1.68,27.25,8.54,53.79,18,79.33a355.55,355.55,0,0,0,16.17,37.15c5.6,11,11.51,23.95,20.49,32.67,1.3,1.26,4,0,3.27-1.9-4.28-10.81-11.61-20.63-17-30.92a357.29,357.29,0,0,1-17.52-38.48A314.64,314.64,0,0,1,180.91,71.8c-.29-2.63-4.38-2.75-4.21,0Z"/><path class="chinese-cabbagechinese-cabbagecls-3" d="M145.46,194.6c1.49,20.1,17.22,36,30.39,49.89,15,15.78,32.9,34,52.64,43.66,2.38,1.16,5.19-1.89,3-3.88-14.71-13.29-31.47-24-45.77-37.94-14.05-13.71-33.57-31.07-35.54-51.73-.28-3-4.93-3-4.71,0Z"/><path class="chinese-cabbagechinese-cabbagecls-3" d="M215.31,349.92c-9.15-3.5-19.25-4.87-28.46-8.35A148.3,148.3,0,0,1,153,323.23c-2.15-1.54-5,2-2.85,3.69a145.63,145.63,0,0,0,31.67,19.16c9.23,4,20.47,8.64,31,8.83C213.56,353.22,214.42,351.57,215.31,349.92Z"/><path class="chinese-cabbagechinese-cabbagecls-3" d="M142.29,152.51c-7.75.49-16.06-17.81-19.22-23.65-4.23-7.8-7.13-16.3-11.66-23.91-1.08-1.82-3.47-.51-3.19,1.35,1.83,12.57,9.25,24.91,16.11,35.36,4.33,6.6,9.34,16.2,18.45,14.46,2-.38,1.58-3.75-.49-3.61Z"/><path class="chinese-cabbagechinese-cabbagecls-3" d="M73.63,202.68a220.47,220.47,0,0,0,30.56,40.2c11.18,11.57,24.63,24.78,39.54,31.32,1.61.71,3.6-1.26,2.05-2.65-12-10.81-25.7-19.29-37.19-30.86a219.69,219.69,0,0,1-31.35-40.12c-1.41-2.29-5-.21-3.61,2.11Z"/><path class="chinese-cabbagechinese-cabbagecls-4" d="M347.78,62.68c4.85,16.24,9.8,31.27,10.05,48.48.25,16.78-4.79,33.16-3.8,49.93,1.77,30.22,19.22,57.85,17.9,88.39-.71,16.39-7.32,31.66-5.25,48.26,2,16.35,6.65,31,4.86,47.76-1.88,17.61-7.89,34.58-14.24,51-6,15.57-14.5,37.35-25.28,50.34-3,3.58,1.77,8.57,5.2,5.19,10.39-10.23,18.5-30,23.83-43.31,6.71-16.76,13.38-33.77,16.74-51.58a118,118,0,0,0-.79-47.35c-2.29-10.8-3.68-20.62-1.86-31.63,1.31-7.93,3.43-15.69,4.26-23.7,3.46-33.12-16.37-62.45-17.77-95-.77-17.92,4.56-35.4,3.61-53.41a95.77,95.77,0,0,0-13-43.41c-1.76-3.08-5.46-3.47-4.42,0Z"/><path class="chinese-cabbagechinese-cabbagecls-5" d="M340.13,432.71c-1.54,4.13-3.83,18.88-6.36,22.33-15.52,21.13-37.51,39.67-81.5,32.77-24.21-3.8-39.52-23-46.13-44.84-2.56-8.54-6.35-21.51-6.47-31.91-.43-37.08,14.76-76.76,23.82-114.26s8.63-77.28,9.06-149.73c.35-59.1,12.79-111.95,16-128.7,2.82-.07,5.61-.09,8.33-.05-1.26,8.18-13.42,56-3.28,130.15,3.52,25.8,16.82,68.55,27.16,94.87s29.75,56.91,45.27,86.22C339.7,355.45,351.73,401.51,340.13,432.71Z"/><path class="chinese-cabbagechinese-cabbagecls-4" d="M159.41,55.46c-25.68,18.65-17.79,56-19.15,83.07-1.55,30.8-30.16,59.21-13.83,89.91,4.31,8.1,10.33,15.23,13.6,23.89,3.34,8.82,4,18.33,3.64,27.68-.67,17-5,33.65-5.7,50.64-1.21,28.21,8.38,56.51,22,80.88,15.61,28,38.27,54.72,67.44,69.12,3.67,1.81,6.7-3.27,3.22-5.51-45.58-29.41-81.44-82.69-83.54-137.95-1.14-29.87,12.12-61.23-.34-90.1-5.95-13.77-17.92-25.33-17.49-41.24.43-15.4,10.24-29,15-43.27,11.41-33.87-7.64-75.19,17.89-104.66,2.57-3,.89-5.1-2.75-2.46Z"/><path class="chinese-cabbagechinese-cabbagecls-4" d="M210.39,336.25c-9.47,24.13-13.28,54.38-11.38,80.21,1.63,22,8.71,44.4,24.34,60.58,14.86,15.37,37.58,23,58.71,20.41,18.39-2.29,39.9-13,49.22-29.7,2-3.56-2.7-7.26-5.66-4.37-14.34,14-28.37,25.07-49.48,25.48a65.29,65.29,0,0,1-53.71-26.74c-27.3-37.7-10.87-83.54-7.86-125.3.19-2.58-3.37-2.64-4.18-.57Z"/><path class="chinese-cabbagechinese-cabbagecls-4" d="M347.61,382.52c-5.74-28.76-17.2-58.15-34.3-82.21a3,3,0,0,0-5.24,3.07c13.42,26.29,25.26,52.4,34.12,80.64,1.09,3.48,6.13,2,5.42-1.5Z"/><path class="chinese-cabbagechinese-cabbagecls-4" d="M305.52,285.52a8.7,8.7,0,0,0,.2-2.59,6.07,6.07,0,0,0-1-2.48,6,6,0,0,0-3.59-3c-1.52-.39-3.61.5-3.88,2.2a6.94,6.94,0,0,0-.16,2c.08.57.27,1.1.38,1.66,0,.14.09.75,0,.12-.07-.93.06.7.19,1.08a8.91,8.91,0,0,0,1,1.85,3.73,3.73,0,0,0,3.71,1.78,3.66,3.66,0,0,0,3.09-2.67Z"/></g></g></svg>