<svg xmlns="http://www.w3.org/2000/svg" viewBox="0 0 512 512"><defs><style>.chivecls-1{fill:none;}.chivecls-2{fill:#9bb533;}.chivecls-3{fill:#4a2d2d;}</style></defs><g id="Capa_2" data-name="Capa 2"><g id="bocetos"><rect class="chivecls-1" width="512" height="512"/><path class="chivecls-2" d="M207.13,100.74c2.91-9.57,8.08-30.4,4.36-39.78C206,47.08,200.17,68.4,197.91,80S188.53,118.2,174,169s-35.9,103.48-51.42,135.18S77,388.23,76.32,394.37s1.29,6.15,12.93-6.14,37.52-62.09,56.6-101.22,39.77-109,44.62-125.15S202.51,115.88,207.13,100.74Z"/><path class="chivecls-2" d="M283.12,89.42s4.85-7,2.75-11.32-4.36-6.47-8.41-1.78-31,53.68-40.58,71-44,82.63-56.76,108.66S143.58,337.13,136,356.21s-22.8,52.71-22.31,57.89,9.21,1.29,17.46-16.82,28.14-69,37.51-89.09,34.28-68.07,42.69-84.4,34.44-70.83,45.92-90.23S283.12,89.42,283.12,89.42Z"/><path class="chivecls-2" d="M351,69s.33-8.57-9.21-2.74-36.38,42-52.07,66.94S225.4,231.38,212,257.9s-42,77.78-50.29,99.61S136,424,139.54,429.38s10-3.48,17.62-23.2,20.54-58.38,30.4-76,35.9-68.07,47.86-88.61,40.59-70.66,56.76-93.78S329.37,95.24,334.87,88,350.39,73.41,351,69Z"/><path class="chivecls-2" d="M400.67,56.11c-4,1.94-27.81,37.67-43,59.18s-72.6,105.26-85.05,124.5c-8.21,12.69-48.34,76.16-61.28,101.06-8.77,16.89-43.49,91.68-42.69,98s5.66,4.36,8.25.16,31.69-66.13,40.59-82.63,46.73-81,60-100.25,60.15-88.77,72.6-105.26,47.26-66.48,52.72-76.64C409.89,61,404.72,54.17,400.67,56.11Z"/><path class="chivecls-2" d="M200,445.79c.16,7.92,7.76,3.23,16.17-9.05s32.37-66.28,39.16-81,30.86-59,42.5-76.49S348,205.68,359,191.61s38.8-49.8,46.57-58.54,18.91-21.18,19.4-27.32-2.59-9.06-11.32-2.27-48.51,57.41-64.84,78.1-49.6,72.17-65.48,98.31C245.45,342.14,199.85,437.87,200,445.79Z"/><path class="chivecls-3" d="M206.88,58.5c4.42,16.29.07,32.13-4,48q-5.82,22.63-12.58,45-13,43-29.27,85c-11.24,28.88-23.54,57.44-37.22,85.25-13.33,27.08-28.78,51.15-46.43,75.5-1.61,2.23,1,4.58,2.9,2.66,21.27-21.91,36.44-51.07,49.65-78.31,13.51-27.88,25.74-56.41,36.81-85.34q17-44.49,30.05-90.36c4.59-16.09,9-32.27,12.82-48.55,3.11-13.22,5.4-26.7.94-39.88-.77-2.3-4.3-1.38-3.66,1Z"/><path class="chivecls-3" d="M117.55,417.33c13.12-6.72,17.91-21,23.66-33.76,7.14-15.85,13.18-32.17,19.68-48.28,10.5-26,22.46-51.26,35.13-76.24,23.89-47.13,50.17-93,74-140.12,6.61-13,16.89-28.65,16.24-40.72-.15-2.94-3.51-5.69-3.94-2.75-1.86,12.56-9.6,25-15.2,36.17-10.11,20.16-20.84,40-31.5,59.86-25.09,46.74-50.76,93.44-71.75,142.2-6.62,15.38-12.14,31.16-18.21,46.74C139,377.55,131.48,405,114,414.18c-2.71,1.42.83,4.54,3.54,3.15Z"/><path class="chivecls-3" d="M145.16,431.06c20.27-27.69,27.38-61.22,40.68-92.29,14-32.7,32.12-63.32,50.83-93.5,18.59-30,38-59.47,55.22-90.27,9.34-16.66,18.87-33.15,31-48,9.92-12.2,20.29-20.59,28.13-34.38,1.84-3.23-1.05-7.9-2.92-4.69-8.74,15-22.83,26.43-33.5,40.1-10.35,13.26-18.78,27.7-27,42.34-17.6,31.32-36.94,61.51-56,91.93C213.47,271.09,196,300.62,182.82,332c-13.7,32.6-20.63,67.62-41,97.11-1.63,2.35,1.71,4.17,3.36,1.92Z"/><path class="chivecls-3" d="M175.4,443.55c9.23-9.07,12.88-23,18.26-34.48,6.66-14.24,13.72-28.31,21.05-42.22,14.4-27.32,30-54,46.3-80.23,32.8-52.65,68.52-103.35,104-154.19q14.57-20.88,29-41.83c7.58-11,13.73-19.51,13.05-33.31-.2-3.92-6.36-3.93-6.12,0,.86,14.28-7.59,23.24-15.3,34.5q-12.39,18.09-25,36.08c-17.07,24.51-34.23,48.95-51.12,73.58-33.67,49.07-66.38,99-94.15,151.67-7.62,14.44-14.88,29.06-21.66,43.91s-12.09,30.62-21.06,44.45c-1.07,1.65,1.32,3.4,2.68,2.07Z"/><path class="chivecls-3" d="M202.13,451.4c5.28-.56,7.81-3.08,11-7.23,5.49-7.14,10.1-15.33,14.43-23.2,8.22-15,16.26-30.08,23.79-45.4,16-32.45,30.28-65.71,49.65-96.36,20.44-32.33,44.15-62.6,67.59-92.78,11.65-15,23.42-29.9,35.1-44.88,9.41-12.07,21.08-23.82,25.2-38.94,1-3.62-4.62-5.16-5.61-1.55-4.74,17.23-20.28,30.79-31.47,44.11-10.44,12.42-20.39,25.27-30.25,38.15-21.21,27.73-42.09,56-61.09,85.3-18.25,28.17-32.87,58-47.11,88.36-6.79,14.47-13.23,29.13-20.42,43.41-3.6,7.13-7.57,14-11.66,20.86-3.5,5.88-11.23,24.5-19.14,25-3.35.2-3.27,5.53,0,5.18Z"/></g></g></svg>