<svg xmlns="http://www.w3.org/2000/svg" viewBox="0 0 512 512"><defs><style>.cinnamoncls-1{fill:none;}.cinnamoncls-2{fill:#b3644c;}.cinnamoncls-3{fill:#4a2d2d;}</style></defs><g id="Capa_2" data-name="Capa 2"><g id="bocetos"><rect class="cinnamoncls-1" width="512" height="512"/><path class="cinnamoncls-2" d="M152.88,186.43s-6.29-33.56-14.68-42.37S100.44,134,87.44,146.58,74,181.4,76.53,189.79s57.89,206.38,64.6,232.39,15.52,52.85,24.33,56.63,20.56,8.81,37.34,1.26,26-15.11,26-26-48.24-299.51-56.63-303.28C164.62,168.81,152.88,186.43,152.88,186.43Z"/><path class="cinnamoncls-3" d="M108.08,150.07c-6.86,3.73-16.37,15.41-10.24,23.65,5.31,7.12,20.06,5.13,27,2.43,9.18-3.59,18.92-12.72,18.18-23.43-.62-8.89-8.79-15.17-16.76-17.52-24-7.08-50.28,9.14-53.45,34s19.43,43.2,43,42.26c30.39-1.21,54.34-28.35,58.47-57.39.55-3.84-5.1-7.35-7-3-7.56,17.23-15.52,34.67-33.18,43.75-17.08,8.77-45.28,7.34-50.83-15.1-5.2-21,16.75-36.68,35.72-35.94,4.23.17,10,1.13,13.27,4.19,6,5.61.54,13.78-4.53,17.71A24.51,24.51,0,0,1,113.23,171c-1.73,0-5.29.19-6.68-.8-6.69-4.75,2.29-11.84,5.37-13.53,4.3-2.37.47-8.91-3.84-6.58Z"/><path class="cinnamoncls-3" d="M102.12,204.44a39,39,0,0,0,5.86,2c1.48-.06,3-.05,4.44,0-.4-4.89-2.55-9.75-3.66-14.55-1.78-7.72-2.12-16.31-5-23.68-1.62-4.2-7.09-3.36-7.62,1-.93,7.66,1.5,16.22,3.23,23.66C100.24,196.48,100.89,200.63,102.12,204.44Z"/><path class="cinnamoncls-3" d="M106.55,232.37c6.93,5.36,17.94,7.61,25,1,2.32-2.17-.15-5.64-2.94-5-6.52,1.38-12.08,2.63-18.26-.88-2.94-1.67-6.63,2.65-3.76,4.87Z"/><path class="cinnamoncls-3" d="M113,258.88c6.19,1.46,15.4,3.58,20.3-1.89a3.1,3.1,0,0,0-3-5.14c-2.56.58-4.8,1.47-7.48,1.44a40.52,40.52,0,0,1-8-1.14c-4.37-.94-6.25,5.69-1.86,6.73Z"/><path class="cinnamoncls-3" d="M196.81,452.06c4.2,1.82,10.54,2.11,12.59-2.88.89-2.17-1.3-4-3.17-4.18-1.48-.14-2.63.61-4,.83a5.52,5.52,0,0,1-2.59-.4c-3.82-1.39-6.58,5-2.8,6.63Z"/><path class="cinnamoncls-2" d="M259.75,76.21s-2.09-37.76-8.81-47.83-28.52-12.58-47.4-7.55S182.15,44.74,183,50.62s5.87,56.21,10.07,96.9,38.59,251.68,44,278.11,6.71,40.27,21.4,46.14,45.72,7.55,52.85-4.19-11.33-329.71-13-351.52-.84-96.48-.84-96.48-9.65,36.49-21,46.14S259.75,76.21,259.75,76.21Z"/><path class="cinnamoncls-3" d="M291.12,22.93C289,41.81,277.29,61.3,260,69.83c-18.84,9.3-45.5,7.72-60.32-8.33-6.71-7.27-10-17.12-4.65-26.19,5.82-9.85,18-13.33,28.85-13.08,9.66.22,28.76,5,21.41,18.82-3.31,6.25-13.06,9.86-19.9,9.7-2.46,0-8.5-.69-9.26-3.79-1.06-4.26,5.95-8.6,8.82-10.53,3.68-2.48.28-8.44-3.51-6-7.36,4.75-16.57,12.94-11.14,22.72,5.16,9.29,21.76,5.2,29.4,1.9,9.9-4.29,17.61-14.73,13.48-25.73-3.68-9.76-15-15.78-24.73-17.33-23.89-3.78-54.73,12.33-47.56,40.57,6.74,26.55,41.91,36.13,65.64,32.15,30.75-5.14,50-29.62,51.38-60.52C298.22,17.54,291.5,16.33,291.12,22.93Z"/><path class="cinnamoncls-3" d="M211.18,74.48a42.07,42.07,0,0,1,9,4c-.82-9.5-2.87-19-5-28.2-.78-3.41-6.72-2.75-6.24.85C210,58.81,210.2,66.74,211.18,74.48Z"/><path class="cinnamoncls-3" d="M203.52,103.75c4,1.84,9.54,3.82,13.43.87,1.86-1.41,2.37-4.37,0-5.68a12.64,12.64,0,0,0-5.29-1.49,14.05,14.05,0,0,1-3.89-1c-2.09-.89-4.51-.63-5.76,1.51-1.07,1.81-.57,4.8,1.51,5.76Z"/><path class="cinnamoncls-3" d="M205.8,122.3a27.84,27.84,0,0,0,6.51,2.17c2.4.43,5.26.91,7.34-.64s2.54-4.78,0-6.32c-1.85-1.13-3.81-.89-5.88-1.06a20.17,20.17,0,0,1-5-1.17c-4-1.43-6.94,5.22-3,7Z"/><path class="cinnamoncls-2" d="M402.31,164s9.77-41.83-.46-51.75S365.19,96,346.94,105.43s-19.51,25.17-18.25,28.94-25.8,326.57-20.13,337.26,23.28,21.4,46.56,23.28,34-3.77,39.64-12.58S447.61,143.18,438.18,140,402.31,164,402.31,164Z"/><path class="cinnamoncls-3" d="M356,123.12c3.08,9.71,11.07,14.91,20.93,16.7,7.69,1.39,20.07,2.4,25.87-4.12,6-6.74,3.76-16.78-.94-23.5-6.09-8.69-16.11-13.49-26.4-15.06-20.83-3.19-45.62,7.18-48.79,30.2s20.46,38.44,40.21,42.72c26.74,5.8,55.23-2.38,72.23-24.27,3.88-5-1.9-10.77-6.89-6.89-14.27,11.09-30.74,20-49.22,20-16,0-42.11-6.22-45.9-24.8-4.9-24,28.58-30.54,45.09-24.77,5.15,1.8,10.17,4.75,13,9.52,3.62,6.11,2.33,11.28-5,12.24-10.2,1.33-22-1.41-27.27-10.9-2.05-3.68-8.19-1.22-6.88,2.9Z"/><path class="cinnamoncls-3" d="M354.2,120.91c-1.64,6-.1,12.77-.22,19s-2,12.88-.54,18.87c.74,2.95,4.39,2.9,5.95.78,3.75-5.13,3.79-13.46,4-19.65.21-6.38,1.8-14.76-1.65-20.31-1.53-2.45-6.74-1.56-7.53,1.32Z"/><path class="cinnamoncls-3" d="M342.85,185c4,3.69,11.31,7.8,16.91,5.86,2.91-1,3.33-5.52,0-6.34-2.17-.54-4.39-.21-6.59-.77a16,16,0,0,1-6.09-3c-2.94-2.34-7.12,1.55-4.23,4.23Z"/><path class="cinnamoncls-3" d="M339.75,205.12c4.33,3.54,10.57,6.76,16.23,4.78,3.22-1.12,2.94-5.05,0-6.27a58.23,58.23,0,0,0-6-1.82A19.48,19.48,0,0,1,344.5,199c-3.62-2.5-8.2,3.32-4.75,6.15Z"/><path class="cinnamoncls-3" d="M365.24,453.35a21.43,21.43,0,0,0,5.75,1.2,6.31,6.31,0,0,0,5.78-2.65,3.14,3.14,0,0,0,0-3.25,7,7,0,0,0-4.58-3,38.78,38.78,0,0,1-4.51-1.17,4.6,4.6,0,0,0-5.63,3.2,4.68,4.68,0,0,0,3.19,5.63Z"/><path class="cinnamoncls-3" d="M369.26,475.61l1.17-.32.75-.31a2.45,2.45,0,0,0,.88-.81,3,3,0,0,0,.67-1.91,3.66,3.66,0,0,0-.43-1.58,3.22,3.22,0,0,0-1.87-1.45l-1.17-.32a3.46,3.46,0,0,0-3.38.9,3.46,3.46,0,0,0,0,4.91,3.48,3.48,0,0,0,3.38.89Z"/><path class="cinnamoncls-3" d="M307.81,406.7c-.48,11.12-.81,22.25-1.35,33.37-.49,10-1.46,25,.58,31.72.84,2.78,2.92,4.67,4.07,1.63,2.24-5.91,4.08-20.75,4.53-30.24q.81-17.42,1.26-34.85c.32-12.29.61-24.56,1.09-36.84.46-11.78.83-44.36-1.79-55.9-.7-3.08-2.49,16.6-3.43,19.13C312.77,334.72,308.32,395,307.81,406.7Z"/></g></g></svg>