<svg xmlns="http://www.w3.org/2000/svg" viewBox="0 0 512 512"><defs><style>.clovescls-1{fill:none;}.clovescls-2{fill:#897777;}.clovescls-3{fill:#4a2d2d;}</style></defs><g id="Capa_2" data-name="Capa 2"><g id="bocetos"><rect class="clovescls-1" width="512" height="512"/><path class="clovescls-2" d="M131.75,305.54c-1-.58-19.82-35.17-9.52-57.33s30.32-29.93,50.92-22.35,28.95,27,33.62,38.29-16.13,34.78-41.59,42A61,61,0,0,1,131.75,305.54Z"/><path class="clovescls-3" d="M157.32,276.41c2.92-3.43,5.21-6.83,17.58-3.91s19.43,2.8,25.77-6c7.37-10.29,5.74-23.93,19.41-25.56s15.63,18.55,10.42,36.78-24.41,32.56-22.79,61.2,23.12,84.64,20.84,99.28-21.81,19.86-35.48,3.91-9.35-81.82-27.78-98.2c-15.63-13.89-39.93-9.55-53.6-22.24S98,291.36,109.41,291.68s18.64,9.43,31.25,5.21C152.55,292.91,151.5,283.25,157.32,276.41Z"/><path class="clovescls-3" d="M134.91,281.93a4.36,4.36,0,0,0,2.22-.49,4.43,4.43,0,0,0,1.86-1.2,4.31,4.31,0,0,0,1.19-1.85,4.37,4.37,0,0,0,.49-2.23l-.2-1.53a5.83,5.83,0,0,0-1.48-2.54l-1.17-.91a5.72,5.72,0,0,0-2.91-.78,6.28,6.28,0,0,0-4.08,1.69,4.31,4.31,0,0,0-1.19,1.85,4.26,4.26,0,0,0-.5,2.22l.21,1.54a5.64,5.64,0,0,0,1.48,2.54l1.17.91a5.72,5.72,0,0,0,2.91.78Z"/><path class="clovescls-3" d="M141.2,252.48l.2-.13A4.71,4.71,0,0,0,143,250.7a4.55,4.55,0,0,0,.63-2.31,4.59,4.59,0,0,0-2.27-4l-.2-.13a4.64,4.64,0,0,0-2.39-.65,4.69,4.69,0,0,0-2.39.65,4.74,4.74,0,1,0,4.78,8.18Z"/><path class="clovescls-3" d="M154.44,264.43a3.94,3.94,0,0,0,2-.44,4.74,4.74,0,0,0,2.75-2.75,3.94,3.94,0,0,0,.44-2l-.18-1.38a5.21,5.21,0,0,0-1.34-2.3l-1.05-.81a5.23,5.23,0,0,0-2.62-.71,5.36,5.36,0,0,0-5.2,5.2l.19,1.38a5.15,5.15,0,0,0,1.33,2.29l1.06.81a5.13,5.13,0,0,0,2.62.71Z"/><path class="clovescls-2" d="M164.47,161.6c-1.11.23-38.4-12.48-45.81-35.75s2-42.56,22.34-50.92,39.6.28,50.67,5.42,11.67,36.52-2.2,59.05A61,61,0,0,1,164.47,161.6Z"/><path class="clovescls-3" d="M163.57,122.85c-.17-4.5-.79-8.56,10.29-14.78s16.2-11.1,14.88-21.89c-1.54-12.57-12-21.5-3-32s24.06,3.08,32.57,20,4.06,40.48,24.65,60.47,74.31,46.65,82.54,59-2.61,29.38-23.47,26.89-62.26-53.89-86.92-53.47c-20.9.35-35.85,20-54.51,19.91s-30.55-13-22-20.5,20.11-5.68,26.53-17.32C171.23,138.22,163.91,131.82,163.57,122.85Z"/><path class="clovescls-3" d="M150.81,142.08a5.55,5.55,0,0,0,1.48-6.17,4.41,4.41,0,0,0-1.14-2l-1.19-1a5.71,5.71,0,0,0-2.81-.86l-1.47.12a5.81,5.81,0,0,0-2.68,1.39,4.5,4.5,0,0,0-1.3,1.87,4.4,4.4,0,0,0-.55,2.14,6.33,6.33,0,0,0,1.51,4.14l1.19,1a5.76,5.76,0,0,0,2.82.87l1.47-.13a5.64,5.64,0,0,0,2.67-1.39Z"/><path class="clovescls-3" d="M135.51,116.14l.05-.22a4.61,4.61,0,0,0,.1-2.33,4.56,4.56,0,0,0-1.11-2.13,4.66,4.66,0,0,0-2-1.28,4.56,4.56,0,0,0-2.32-.09l-.23,0a4.66,4.66,0,0,0-2.2,1.14,4.75,4.75,0,0,0-.28,6.7,4.75,4.75,0,0,0,6.7.28,4.7,4.7,0,0,0,1.32-2.1Z"/><path class="clovescls-3" d="M153.34,116a3.78,3.78,0,0,0,1.17-1.68,3.88,3.88,0,0,0,.51-1.92,5.76,5.76,0,0,0-1.37-3.74l-1.07-.89A5.18,5.18,0,0,0,150,107l-1.32.11a5.13,5.13,0,0,0-2.41,1.25,3.86,3.86,0,0,0-1.17,1.69,4,4,0,0,0-.51,1.92,5.86,5.86,0,0,0,1.37,3.73l1.07.9a5.22,5.22,0,0,0,2.54.78l1.32-.11a5.24,5.24,0,0,0,2.41-1.26Z"/><path class="clovescls-2" d="M314.46,267.48c-.18-1.12,13.94-37.89,37.49-44.4s42.44,3.69,50,24.29-1.81,39.56-7.37,50.41-36.94,10.26-58.92-4.46A61,61,0,0,1,314.46,267.48Z"/><path class="clovescls-3" d="M353.22,268.07c4.5,0,8.58-.46,14.36,10.86s10.47,16.61,21.31,15.7c12.62-1.05,21.95-11.13,32.05-1.77s-4,23.92-21.26,31.77-40.62,2.5-61.38,22.31-49.47,72.45-62.1,80.21-29.26-3.74-26-24.49,56.25-60.15,56.78-84.8c.45-20.9-18.61-36.59-17.8-55.23s14.19-30,21.33-21.15,4.9,20.31,16.28,27.18C337.56,275.13,344.24,268.07,353.22,268.07Z"/><path class="clovescls-3" d="M334.49,254.58a5.58,5.58,0,0,0,6.11,1.72,4.34,4.34,0,0,0,2-1.06l1-1.15a5.78,5.78,0,0,0,1-2.78l-.07-1.48a5.78,5.78,0,0,0-1.29-2.72,4.3,4.3,0,0,0-1.82-1.37,5.2,5.2,0,0,0-4.29-.35,4.44,4.44,0,0,0-2,1.06l-1,1.15a5.72,5.72,0,0,0-1,2.78l.07,1.48a5.68,5.68,0,0,0,1.29,2.72Z"/><path class="clovescls-3" d="M361,240.29l.22.06a4.69,4.69,0,0,0,2.32.19,4.63,4.63,0,0,0,3.53-3,4.57,4.57,0,0,0,.18-2.32l0-.23a4.75,4.75,0,0,0-3.1-3.64,4.73,4.73,0,0,0-6.23,5.3,4.75,4.75,0,0,0,3.1,3.64Z"/><path class="clovescls-3" d="M360.47,258.12a3.9,3.9,0,0,0,1.64,1.23,4.63,4.63,0,0,0,3.87.31,4,4,0,0,0,1.82-1l.93-1a5.23,5.23,0,0,0,.88-2.5l-.07-1.33a5.1,5.1,0,0,0-1.16-2.46,5.36,5.36,0,0,0-7.32-.59l-.93,1a5.23,5.23,0,0,0-.88,2.5l.06,1.33a5.29,5.29,0,0,0,1.16,2.46Z"/></g></g></svg>