<svg xmlns="http://www.w3.org/2000/svg" viewBox="0 0 512 512"><defs><style>.coconutcls-1{fill:#a46a50;}.coconutcls-2{fill:#4a2d2d;}.coconutcls-3{fill:#fff;}.coconutcls-4{fill:#cdad9e;}.coconutcls-5{fill:none;}</style></defs><g id="Capa_2" data-name="Capa 2"><g id="bocetos"><path class="coconutcls-1" d="M322.13,222c-7.86-54.54-38.74-106.15-82-139.8A204.5,204.5,0,0,0,209,62.1c-12.06-6.27-25.34-11.92-39.21-11.2-13,.68-24.26,6.69-35.33,13A255.48,255.48,0,0,0,71.77,113C38.63,149,17.49,195.1,20.23,244.71,22.66,288.9,42.8,331.56,75,361.9c31.66,29.83,82.71,55.78,127.35,45.39,37.12-7.46,67.92-32.91,90.28-62.48C319.08,309.82,328.38,265.34,322.13,222Z"/><path class="coconutcls-2" d="M166.93,85.6c-10.7,21-17.29,40.2-14.07,64,1.79,13.22,4.93,26.23,5.27,39.61A115.56,115.56,0,0,1,152,228.83c-.73,2.21,2.63,3,3.43.95,8.1-21.19,9.13-42.52,5.44-64.74-2.22-13.42-5.08-27-2.91-40.68,2-12.76,7.88-24.63,13.48-36.14,1.45-3-3-5.61-4.48-2.62Z"/><path class="coconutcls-2" d="M185.15,152c-11.08,20.16-15.53,49.2-3.08,69.89a2.28,2.28,0,0,0,4.15-1.75c-2.46-10.72-5.48-20.8-5.16-32a79.44,79.44,0,0,1,8.69-33.48c1.54-3-2.94-5.72-4.6-2.69Z"/><path class="coconutcls-2" d="M193.1,93.91c3.36,16.6,12.92,30.41,18.85,46,7.13,18.78,3.72,34.61-1.93,53-.76,2.47,2.68,3.69,4,1.69,9.09-13.59,9.59-33.62,5.42-48.95-5.06-18.6-17.54-34.16-21.67-53.1-.67-3.06-5.31-1.76-4.69,1.3Z"/><path class="coconutcls-2" d="M250,173.35c-4.92-15.28-5.56-30.07-4-45.91.25-2.51-3.89-3.06-4.41-.59-3.4,16-1.61,32.48,3.52,47.84,1,3.07,5.87,1.77,4.87-1.34Z"/><path class="coconutcls-2" d="M137.66,114.7c-13,15.26-24.53,37.75-27.48,57.7-1.84,12.41-.56,25,2,37.22,2.78,13.17,9.1,26,10.35,39.44s-6.06,27.18-10.36,39.66c-3.75,10.88-7.76,22-8.73,33.5A46.93,46.93,0,0,0,110,350.49c6,10.31,13.76,19,16.86,30.81.74,2.79,4.82,1.6,4.29-1.18-4-20.94-24.31-33.5-23.21-56.33,1.15-24,17.51-44.28,19.85-67.75,1.06-10.64-3.22-21.38-5.77-31.54-3.06-12.22-6-24.63-6.35-37.27-.37-13.41,2.94-25.49,8.62-37.53,5-10.57,10.27-21.55,17.89-30.5,2.63-3.1-1.84-7.62-4.5-4.5Z"/><path class="coconutcls-2" d="M158.68,381c7.17-16,1.63-31.46-6.05-46.13-4.88-9.32-10.23-18.51-12.15-29-2.18-12,.44-23.44,4.18-34.8.68-2.07-2.32-3.19-3.42-1.44-9.39,14.92-9.13,33.94-2.72,49.94,7.57,18.91,24.7,38.24,16.23,59.77-.89,2.25,2.93,3.88,3.93,1.66Z"/><path class="coconutcls-2" d="M89.55,213.46c3.36,13.92,6.65,27.58,3.5,41.84-2.29,10.37-4.9,20.21-6.27,30.8-2.43,18.64-2.67,41.2,7.91,57.62,1.1,1.71,4.24.65,3.46-1.46-8.27-22.39-13.21-44-5.45-67.49,3.08-9.32,7-18.43,7.77-28.31,1-12-2-23.19-5.33-34.54-1.07-3.58-6.47-2.09-5.59,1.54Z"/><path class="coconutcls-2" d="M68.77,284.43c-5.21-13.64-9-28.31-6.72-43,2-12.81,8-24.59,14-35.91,9.71-18.29,24.45-40.95,20-62.69-.62-3-4.7-2-5,.67-1.48,14.83-3.92,27.27-10.34,40.87-5.07,10.74-11.16,21-15.83,31.9-10,23.36-9.37,45.75-.44,69.34,1,2.68,5.37,1.51,4.33-1.19Z"/><path class="coconutcls-2" d="M59.51,175.45c3.42-6.14,2.94-12.5-.19-18.75-5.59-11.12-16.26-17.34-16.61-31a2,2,0,0,0-3.91-.53c-7.21,19.47,23.69,29.42,16.31,48.41-1,2.56,3.1,4.2,4.4,1.85Z"/><path class="coconutcls-2" d="M40.9,230.81C24.47,220.42,14,208.36,14,188.22c0-2.43-3.26-2.65-4-.55-7.62,20.53,13,38.2,28.39,47.5,2.8,1.69,5.29-2.63,2.55-4.36Z"/><path class="coconutcls-2" d="M114.59,111.58c.53-6.76-1.36-12.52-3.92-18.73C106.38,82.46,106,74.18,106,63.16c0-2.46-3.3-2.68-4.09-.56A36.27,36.27,0,0,0,101,85.37c2.5,8.93,8.29,16.61,8,26.21-.13,3.64,5.33,3.56,5.61,0Z"/><path class="coconutcls-2" d="M90.15,104.7C88,96.9,86.79,88.51,83.65,81c-.87-2.08-4-1.94-4.09.56-.39,8.31,2.49,16.84,5.09,24.61,1.16,3.46,6.5,2.05,5.5-1.51Z"/><path class="coconutcls-2" d="M181.56,69.76c-5-14.12-5.36-26.91-2.42-41.49.46-2.26-2.85-4-4-1.67-6.79,14.3-6.06,31.43.66,45.58,1.51,3.18,6.9.94,5.73-2.42Z"/><path class="coconutcls-2" d="M206,77.05c3.64-7.79,7.32-17.38,5.57-26.11-.48-2.39-3.61-1.87-4.33,0-3,7.64-3.75,16-6.84,23.75-1.27,3.2,4.14,5.5,5.6,2.36Z"/><path class="coconutcls-2" d="M258.44,129.89c6-16.74,16.13-34.15,4.35-51-1.2-1.72-4.45-.74-3.63,1.53,3.34,9.25,4.39,17.06,1.79,26.68-2,7.29-5,14.23-6.79,21.57-.71,2.81,3.33,3.85,4.28,1.18Z"/><path class="coconutcls-2" d="M278.15,147.86c.3-1.32.65-2.64.9-4a14.21,14.21,0,0,0,.48-4.14c-.27-2.24-3-3.26-4.36-1.18s-1.77,5.33-2.34,7.84c-.8,3.45,4.52,4.93,5.32,1.46Z"/><path class="coconutcls-2" d="M149.56,84.43l.55-1.86a1.52,1.52,0,0,0-1.05-1.84,1.53,1.53,0,0,0-1.84,1l-.68,1.82a1.57,1.57,0,0,0,1.09,1.93,1.59,1.59,0,0,0,1.93-1.09Z"/><path class="coconutcls-2" d="M186.2,130.6c.19-2.83,1.25-6.79-.8-9.08a2.5,2.5,0,0,0-3.44,0c-1.39,1.12-1.42,2.92-1.58,4.55l-.45,4.53a3.14,3.14,0,0,0,6.27,0Z"/><path class="coconutcls-2" d="M134.56,184.8l-.61-3.67a1.27,1.27,0,1,0-2.44.67l.61,3.68a1.28,1.28,0,0,0,1.56.88,1.3,1.3,0,0,0,.88-1.56Z"/><path class="coconutcls-2" d="M165.82,233.53a1.2,1.2,0,0,0,0-2.39,1.2,1.2,0,0,0,0,2.39Z"/><path class="coconutcls-2" d="M47.85,292.1c-14.29-11.67-31.68-22.47-34.57-42-.45-3-4.59-1.86-4.87.66-2.28,19.94,21.83,35.08,35.11,45.7,3,2.43,7.39-1.83,4.33-4.33Z"/><path class="coconutcls-2" d="M66.64,341.58c-5.22-3.12-10.73-3.45-16.64-4-4.1-.4-8.11-.92-11.22-3.8-2.87-2.66-3.58-6.65-5.25-10.1-1.09-2.24-4.37-1-4.45,1.2-.25,7.1,3.09,13.63,9.66,16.69,7.86,3.66,17.17,1.06,24.72,5.49,3.51,2.06,6.67-3.37,3.18-5.45Z"/><path class="coconutcls-2" d="M80.82,260.52c-.11-2.59.26-5.78-1.5-7.88a2.5,2.5,0,0,0-3.51,0c-1.76,2.1-1.39,5.29-1.49,7.88-.17,4.19,6.66,4.19,6.5,0Z"/><path class="coconutcls-2" d="M50.33,262c-1.77-2.41-3.6-5.89-6.41-7.17-1.4-.64-3.65.07-3.45,2,.33,3.19,2.66,5.81,4.45,8.35a3.2,3.2,0,0,0,4.28,1.12A3.15,3.15,0,0,0,50.33,262Z"/><path class="coconutcls-2" d="M140.27,353.07c-.08-3.56.95-7.7.09-11.15-.6-2.43-3.83-2.6-5.09-.66-2.07,3.18-1.72,8.19-1.5,11.81.25,4.14,6.58,4.22,6.5,0Z"/><path class="coconutcls-2" d="M58.73,199.56c-.36-2.16-.48-5.07-2.58-6.31a2.74,2.74,0,0,0-3.26.42c-1.71,1.75-1.07,4.6-.86,6.8a3.41,3.41,0,1,0,6.7-.91Z"/><path class="coconutcls-2" d="M243.56,164.44c2.72,18,17,34,12.46,52.43a2,2,0,0,0,3.72,1.57c4.62-7,3.41-15.35.65-22.87-4-10.86-9.3-21.18-13.27-32.11a1.85,1.85,0,0,0-3.56,1Z"/><path class="coconutcls-2" d="M212.59,238.67c5.95,23.46-11.81,42.21-14.52,64.58-2.1,17.32,3.39,35.66,15.59,48.24,2.11,2.18,5-1,3.24-3.24-14.53-18.37-17.46-39.62-8.47-61.22,6.74-16.2,16.15-32.62,8.48-50.18-1.1-2.51-4.95-.69-4.32,1.82Z"/><path class="coconutcls-2" d="M266.74,312.37c15.15-12.09,18.78-37.32,5.27-52.11-1.75-1.91-4.28.51-3.35,2.58,7.7,17,7.42,31.68-5.23,46.22a2.34,2.34,0,0,0,3.31,3.31Z"/><path class="coconutcls-2" d="M287.36,193.67c-1.66,4.89-2.68,10.41-1.18,15.47a2,2,0,0,0,3.82-.52c.43-4.7.51-9.13,2.05-13.66,1-3-3.68-4.24-4.69-1.29Z"/><path class="coconutcls-2" d="M239.15,364.11c3.16-5.06,6-12.22,3.28-18-.93-2-3.7-1.16-4.32.56-.83,2.32-.83,4.86-1.27,7.27a31.82,31.82,0,0,1-2.26,7.52c-1.38,3.05,2.73,5.61,4.57,2.67Z"/><path class="coconutcls-2" d="M232.79,315.74c0-3.07.3-6.64-.7-9.59a2.52,2.52,0,0,0-4.82,0c-1,3-.65,6.52-.7,9.59-.06,4,6.28,4,6.22,0Z"/><path class="coconutcls-2" d="M315.73,208.6c2.57-7.46,1.29-14.51,2-22.18.86-8.92,7.7-14.58,9.49-23a2.4,2.4,0,0,0-4.36-1.84c-4.08,5.8-9,12.41-10.64,19.41-2,8.74,1.06,17.62-.93,26.37a2.29,2.29,0,0,0,4.42,1.22Z"/><path class="coconutcls-2" d="M316.55,260.45c2.86-17.33,10.9-30,20.31-44.3,1.56-2.37-1.77-4.51-3.71-2.87-13.11,11.16-19.47,29.94-21.29,46.53-.29,2.65,4.25,3.29,4.69.64Z"/><path class="coconutcls-2" d="M312.23,313.76c12.4-10.08,27-21.12,25.51-39.07-.21-2.57-4.35-3.61-4.87-.66-1.34,7.67-2.87,14.8-7.69,21.16-4.45,5.89-10.28,10.83-15.54,16-1.71,1.68.8,4,2.59,2.58Z"/><path class="coconutcls-2" d="M110.23,383.49c-13-2.06-25.16,3.38-36.86-4.53-2.05-1.38-4.15,1.25-3.17,3.17,7.07,13.81,27.63,6.33,39.28,6.87,3.1.15,3.91-5,.75-5.51Z"/><path class="coconutcls-2" d="M152.82,403.13a27.51,27.51,0,0,1-2.72,6.45c-1.15,2-2.75,3.66-3.85,5.64s1.14,4.39,3.11,3.1c4.44-2.9,7-8.92,8.29-13.86.83-3.12-4-4.43-4.83-1.33Z"/><path class="coconutcls-2" d="M210.33,400.87c4,5.88,9.4,11.33,16.33,13.55,2.59.83,3.73-2.74,1.75-4.15-5-3.58-10-6.88-13.84-11.88-1.86-2.45-6.06-.18-4.24,2.48Z"/><path class="coconutcls-2" d="M252,381.45c7.15,5.61,17.4,8.91,26,4.48,2.18-1.13,1.19-4.79-1.26-4.67-7.87.41-14.5.45-21.17-4.4-2.66-1.94-6.15,2.54-3.54,4.59Z"/><path class="coconutcls-1" d="M213.63,205.36s-41.07,35.55-50.26,78.45,7.36,144.65,103,174.68,164.25-20.84,195.51-66.81,31.87-100.51,2.45-156.9S381,158.17,324,158.78,213.63,205.36,213.63,205.36Z"/><path class="coconutcls-3" d="M431,216.55c-21.83-27.3-58.17-47.24-91.14-52.59a115.44,115.44,0,0,0-18.37-1.5c-63.13,0-114,38.61-134.23,81.52-16.8,35.64-18.59,78.83-3.28,115.31,16.51,39.33,55,64.11,95.54,73.8a163.39,163.39,0,0,0,54.84,3.33c71.09-7.35,97.3-53,109.09-79.06,18-39.66,18.44-90.9-4.15-128.87A106.4,106.4,0,0,0,431,216.55Z"/><path class="coconutcls-4" d="M375,248.29a76.81,76.81,0,0,0-59.07-30.37c-55.95-1.26-90.82,57.4-74.81,108.53,10.61,33.89,46.36,51.18,80.48,47.24,36.21-4.19,60.73-37.78,66.77-72C391.82,282,386.22,263.12,375,248.29Z"/><path class="coconutcls-2" d="M464.8,320.78c9.67,3.51,15.64,10.06,23.25,16.47a2.61,2.61,0,0,0,4.08-3.15c-4.55-9.68-16.07-15.79-25.81-18.82-3.55-1.1-4.93,4.27-1.52,5.5Z"/><path class="coconutcls-2" d="M477.12,291.17c2.22.31,4.44.67,6.64,1.09s4.16,1.09,6.28.87a2,2,0,0,0,1-3.66c-3.38-2.21-8.68-2.45-12.61-3-3.1-.46-4.41,4.3-1.3,4.74Z"/><path class="coconutcls-2" d="M451.16,372.34c4,5.16,9.26,11,15.48,13.34,2.56,1,4.33-2.66,2.57-4.41-2.25-2.25-5-3.94-7.35-6.09a57.78,57.78,0,0,1-6.47-7.07c-2.37-3-6.56,1.23-4.23,4.23Z"/><path class="coconutcls-2" d="M291,449.93c2.77,9.69,7.62,18.34,15.13,25.14a2.27,2.27,0,0,0,3.21-3.21,67.23,67.23,0,0,1-12.84-23.45c-1-3.51-6.51-2-5.5,1.52Z"/><path class="coconutcls-2" d="M338.66,452.34a19,19,0,0,0,2.74,2.79,2.13,2.13,0,0,0,3.34-2.58,19.41,19.41,0,0,0-2.11-3.27,2.52,2.52,0,1,0-4,3.06Z"/><path class="coconutcls-2" d="M384.21,441.75a64.92,64.92,0,0,1,7.63,8.1c2.18,2.81,3.92,6,6.37,8.6,1.85,1.94,5.08-.08,4.42-2.57-1.93-7.23-8.58-13.74-14-18.52-3-2.63-7.38,1.7-4.39,4.39Z"/><path class="coconutcls-2" d="M422.23,410.5c3.29,4.47,7.62,9.82,13.11,11.51,2.91.89,4.45-2.71,2.76-4.73a54.59,54.59,0,0,0-5.35-4.84,39.37,39.37,0,0,1-4.82-5.26,3.41,3.41,0,0,0-4.51-1.18c-1.43.81-2.24,3.07-1.19,4.5Z"/><path class="coconutcls-2" d="M282.26,345.08c3.24-9.3,8.51-16.33,15.53-23.15,5.87-5.7,13.46-10.09,18.79-16.22a1.91,1.91,0,0,0-2.3-3c-8.19,4.11-16,12.12-22,18.86a73.61,73.61,0,0,0-14,22.37c-1,2.51,3.17,3.68,4.06,1.12Z"/><path class="coconutcls-2" d="M334.45,299.2c12.78-3.06,25.48-3,38.5-1.89,2.54.22,3.08-3.9.6-4.46-13.53-3-27.05-1.74-40.29,2-2.79.79-1.62,5,1.19,4.33Z"/><path class="coconutcls-2" d="M241.66,304.5a88,88,0,0,1,31.94-54.32c20.28-16,42.82-18.94,67.86-17.32,2.51.16,3.13-3.84.65-4.4-48.58-11.1-95.51,28.91-103.33,75.21-.32,1.88,2.55,2.73,2.88.83Z"/><path class="coconutcls-2" d="M305.86,159.19c-51.62,1.54-101.68,38-126.84,81.46-14.28,24.68-21.55,53.38-19.81,81.93,1.92,31.33,16.11,62.66,33.46,88.4,2.36,3.51,7.91.38,5.73-3.35-15.55-26.65-31.64-54.91-33.29-86.5a139.22,139.22,0,0,1,19.54-78.73,162.26,162.26,0,0,1,51-53c22.22-14.23,45.33-20.11,70.85-25.08,2.87-.56,2.2-5.18-.69-5.09Z"/><path class="coconutcls-2" d="M328.68,443c39.88,1.14,86.7-22.83,106.89-57.94,1.42-2.46-2.13-5.47-4.07-3.14-13.09,15.79-25.71,29.43-44,39.5s-38.2,14.7-58.86,16.51c-3.21.28-3.31,5,0,5.07Z"/><path class="coconutcls-2" d="M447.68,365.23c2.19-2.89,3.49-6.51,1.79-9.93a2.21,2.21,0,0,0-3.78,0c-1.26,2.25-1.7,4.77-3.22,6.88a3,3,0,0,0,1.08,4.13,3.08,3.08,0,0,0,4.13-1.08Z"/><path class="coconutcls-2" d="M437.78,230.11a75.58,75.58,0,0,1,4.91,8.5c1.24,2.79,1.7,6.09,3.66,8.47a2.18,2.18,0,0,0,3.66-.74c1.23-3.24-1.05-6.94-2.29-10a27.69,27.69,0,0,0-6.5-9.52c-2.18-2-5.26.3-3.44,3.29Z"/><rect class="coconutcls-5" width="512" height="512"/></g></g></svg>