<svg xmlns="http://www.w3.org/2000/svg" viewBox="0 0 512 512"><defs><style>.collard-leafcls-1{fill:none;}.collard-leafcls-2{fill:#9bb533;}.collard-leafcls-3{fill:#f4f5d8;}.collard-leafcls-4{fill:#4a2d2d;}</style></defs><g id="Capa_2" data-name="Capa 2"><g id="bocetos"><rect class="collard-leafcls-1" width="512" height="512"/><path class="collard-leafcls-2" d="M424.92,229.48c-11.09,28.73-32.77,54.76-50,89.47s-28.32,62.44-63.62,82.7c-29.13,16.7-84.33,22.15-113.51,30.71a114.25,114.25,0,0,0-14.24,5.18A101.59,101.59,0,0,0,157,454.88c-7.66,6.87-14.4,16.4-24.92,18.67-.58.13-1.17.22-1.76.31A23.65,23.65,0,0,1,114.68,470a17,17,0,0,1-5.64-5.58c-1.11-1.86-1.19-5.28-1.22-5.91,1.8-3.77,8-20.47,6.88-32C113.39,413.32,86.5,347,79.78,323.6S77.07,234.83,95.46,192s42.54-62.73,47.27-74.31,7.25-43.5,38.53-65.83,112.56-35.28,148.4-25.1,86.52,44.9,100.17,80.1S436,200.76,424.92,229.48Z"/><path class="collard-leafcls-3" d="M236,291.9c-4.8,7-4.37,8.73-4.37,8.73s31.83-10.47,57.09-14.39,60.92-17.43,84.58-30.5c0,3-13.52,24.83-31.84,33.12s-62.76,17.87-73.64,20.91-27,13.08-34.45,18.75-24,19.62-23.1,22.66,25.73,3.06,44.46-2.61,33.13-14.38,48.39-22.23,31.38-23.1,31.81-20.06-17.43,37.5-56.23,54.05-68.86,18.76-80.63,25.72-21.79,13.51-27.89,24.85-25.28,48.82-31.81,56.21a83.88,83.88,0,0,1-6.16,6.3c-.57.13-1.16.23-1.75.33a23.68,23.68,0,0,1-15.67-3.61,17.19,17.19,0,0,1-5.73-5.49,13,13,0,0,1-1.94-5.1s0,0,0,0c5.46-8.71,12.54-17.71,16.42-23.34,8.73-12.65,32.7-66.25,37.48-83.69S167.15,291,159.3,278,141.89,213,145.36,193.41,158.44,162,158.44,162s-3.92,31.82,1.32,66.26,22.87,54.48,24.62,60.57,8.06-9.15,8.06-9.15a89.28,89.28,0,0,0,7.41-43.58c-2.18-24.42-13.52-63.21-10.89-87.18s19.16-68.86,25.71-80.2,11.77-14.81,11.77-14.81S219.89,84.88,216,110.15s-8.71,58-7.4,88.92,12.2,49.25,12.2,49.25,34.88-46.64,46.64-72.35,17-53.17,16.13-71-1.75-46.64,3-54.49S293.13,43,293.13,43s-3.93,24.85.86,41.4,6.53,34,6.1,40.11-.86,13.07-.86,13.07S317.09,95.34,325.37,81,340.2,53.5,341.49,55.68s-2.61,16.55-8.7,34.85-25.07,56.57-27.25,64.85a43.71,43.71,0,0,1-3.69,10.12c1.08-.75,35.54-24.64,51-39.21,15.69-14.83,39.66-35.76,41-33.56s-15.69,25.71-25.71,37.48S331.9,162,318.41,170.73s-20.5,13.08-25.73,20.93-37.92,58.41-37.49,59.7,37.94-19.61,64.51-34.42,58-37.91,58-34.87-11.77,22.67-31.38,37.48S293.13,251.36,277,261,240.82,284.94,236,291.9Z"/><path class="collard-leafcls-4" d="M305.74,336.43A221.41,221.41,0,0,1,276,356.61a99.43,99.43,0,0,1-27.54,10.53c-10,2.16-20.26,3.27-30.21,5.84-22.75,5.91-39.7,19.19-52.67,38.61-13.22,19.81-19.35,43.75-39,58.44-.87.66-6.6,2.17-11.79-2.54-1.11-1-2.65-5.64-2-6.52,16.41-21.46,27.76-46.5,38.41-71.2,9.69-22.45,21.23-45.92,20-71-.84-17.69-6-34.68-10.63-51.76-2.58-7.22-5.21-14.41-6.9-22a129.48,129.48,0,0,1-3.2-32.54,144,144,0,0,1,4.23-31.82c1.09-4.06,2.74-8,3.78-12,.65-2.53,1.44-6.14-.84-8.08a1.81,1.81,0,0,1-.34-.41,3.88,3.88,0,0,0-2.47,1.34c-14.43,15.9-14.8,45.58-12.9,65.63,2.43,25.68,11.63,49.51,16.76,74.61,5.93,29-3.33,54.67-14.29,81.26-5.64,13.67-12.31,26.87-19.13,40-3.26,6.25-6.54,12.48-9.76,18.74-1.63,3.17-3.25,6.35-4.83,9.54-1.24,2.49-2.82,4.85-3.64,7.53s.61,4.75,1.8,6.94a18.39,18.39,0,0,0,9.41,8.8,16.69,16.69,0,0,0,10.1.63c6.44-1.64,10.69-6.95,14.75-11.89a133.58,133.58,0,0,0,11.39-16.46c4.31-7.21,8.16-14.67,12.07-22.09,5.88-11.14,12.44-22.54,22.76-30.09,12.34-9,27.42-12.6,42.25-15.24,19.82-3.53,36.19-8.62,53.45-19.44,12.64-7.92,25.46-16.47,35.9-27.28,4.67-4.84,14.31-16.51,14-26.56C329.9,316.86,315,329.13,305.74,336.43Z"/><path class="collard-leafcls-4" d="M222.92,53.16c-11.49,8.49-19,24.75-24.37,37.46A179.3,179.3,0,0,0,185.14,154c-.74,21.43,5.39,41.5,8.25,62.51,3.45,25.34-1,48.19-9.76,71.9-1.28,3.44,4.27,5.77,5.94,2.5,9.17-18,12.7-39.38,11.8-59.41-1-21-7.73-41.14-9.47-62-3.45-41.53,10.67-79.59,34.72-112.6,1.56-2.14-1.56-5.28-3.7-3.7Z"/><path class="collard-leafcls-4" d="M289.42,42.54c-11.09,12.65-11.49,31.32-11.15,47.23.47,21.35-.51,41.54-5.66,62.42-8.69,35.2-32,65.44-53.13,94.25-2.33,3.18,3.08,7.41,5.51,4.25,10-13,19.12-26.65,27.93-40.49,9.47-14.86,18.55-29.5,24-46.4,5.73-17.82,7-35.38,7.35-54,.4-23-2.44-43.57,8.59-64.64,1.1-2.1-1.73-4.61-3.44-2.65Z"/><path class="collard-leafcls-4" d="M338.29,55.42c-9.63,11-15.78,25.71-22.17,38.73-6.53,13.31-13.45,26.91-18.36,40.91-1,2.83,3.44,4.68,4.84,2,6.84-13,12-26.9,18.39-40.1S336,71.6,342,58.32c1-2.28-1.83-5.11-3.75-2.9Z"/><path class="collard-leafcls-4" d="M303.87,165.83c15.64-7.33,29.07-20.18,42.17-31.2,15.83-13.32,31.49-26.85,47.21-40.3,2.8-2.4-1.25-6.4-4-4-28.94,24.62-57.88,49-87.58,72.64-1.75,1.39.48,3.72,2.23,2.9Z"/><path class="collard-leafcls-4" d="M332.6,160C316.55,170,301.4,180.2,290,195.55c-12.35,16.62-25.9,35.23-34.74,54-1.41,3,2.65,5.46,4.48,2.61,10.28-16,19.77-32.26,30.71-47.89,6.19-8.82,11.88-17.39,20.32-24.24a265.52,265.52,0,0,1,23.67-16.84c1.95-1.26.16-4.37-1.83-3.13Z"/><path class="collard-leafcls-4" d="M375.13,181.28c-8.31,15.34-19.32,25.73-33.3,35.88-12.54,9.11-25.4,18.18-39.05,25.56-27.53,14.91-54.66,29.33-72.82,56.07-2,2.92,2.5,6.36,4.88,3.77,11.59-12.65,22.79-24.6,37.07-34.36,14.61-10,31-16.67,45.79-26.43,22.8-15.09,52-31.67,63.05-58.12,1.35-3.23-4-5.4-5.62-2.37Z"/><path class="collard-leafcls-4" d="M212.49,352.6C224.92,341,235,328.79,250.07,320.19c16.42-9.37,34.06-12.22,52.47-14.94,31.32-4.65,58.39-18.05,74.21-46.72,1.84-3.34-3.28-6.33-5.12-3a82.29,82.29,0,0,1-36.71,34.93c-16.71,7.85-35.45,8.62-53.35,11.84-28,5-58.51,21.73-73.51,46.87-1.68,2.8,2.11,5.57,4.43,3.42Z"/></g></g></svg>