<svg xmlns="http://www.w3.org/2000/svg" viewBox="0 0 512 512"><defs><style>.collardcls-1{fill:none;}.collardcls-2{fill:#9bb533;}.collardcls-3{fill:#4a2d2d;}.collardcls-4{fill:#fff;}</style></defs><g id="Capa_2" data-name="Capa 2"><g id="bocetos"><rect class="collardcls-1" width="512" height="512"/><path class="collardcls-2" d="M112.24,112.83S119.89,86,140.63,77.19s29.83-7.08,36.78-4.08,20,12.45,20,12.45,28.85-31.74,71.73-25.9,53.82,27,53.82,27,20.67-20.88,49.73-9.34,40.9,40.49,40.9,40.49,19.44-7.46,34.24,8.48-16.3,28.66-16.58,59,25.12,89.05,8.91,136.32-43.32,81.17-97.77,100.49-91.22,22.54-130.69,7.15c-28-10.92-44.79-39.17-44.79-39.17s-57.2-10.53-91.65-61.44C46.64,286.36,44.94,244.77,53,214.86s16.2-50.3,10.05-66.72-18-36.43,5-48.07C86.15,90.88,112.24,112.83,112.24,112.83Z"/><path class="collardcls-3" d="M188,81.92c6.71,10.78,18.94,11.46,30.51,11.3,7.84-.1,17.1-1,23.85,3.82,7,5,7,13.71,9.91,21,4,10.13,12.15,15,22,18.77,16,6.07,26.77,11.84,35.21,27.48,2,3.68,8.25,1.18,6.85-2.88a46,46,0,0,0-23.8-26.19c-14.38-6.84-29.09-6.85-34.64-24.3-3.59-11.31-7.27-20.37-19.93-23.5-15.6-3.85-34.24,5.81-46.52-8.09-1.63-1.86-4.71.54-3.41,2.63Z"/><path class="collardcls-3" d="M269.89,128.89c2-10.29,8.59-17.57,19.32-18.4,6.53-.5,13.08.57,19.34-1.85,12-4.65,16.24-21.34,26.9-28.18,3.42-2.19,1.89-5.78-2.29-4.38-7.1,2.36-11.7,7.9-16.23,13.6-2.66,3.34-5.13,7.64-9,9.79-5.45,3-12.71,2.12-18.74,2.7-14.12,1.35-25.58,11.21-25.47,25.89,0,3.41,5.46,4.39,6.15.83Z"/><path class="collardcls-4" d="M130.06,187.32c12.86,9.45,7.16,26.26,2,38.23-3.93,9.12-7.92,18.13-11.25,27.49-6.56,18.45-12.91,38.84-10.9,58.66,3.09,30.43,24.8,59.57,53.87,69.85,2.73,1,4.49-3.34,1.94-4.67-36.23-19-56.47-53.55-47-94.59,4.74-20.55,12.11-40.12,19.57-59.78,5.06-13.31,6.32-29-6.51-38.2-1.83-1.31-3.52,1.7-1.74,3Z"/><path class="collardcls-4" d="M114.85,295.13c11.68-20.64,35.14-25.26,53.92-37,13-8.16,25.28-21.7,22.85-38.11-.38-2.57-4.22-1.74-4.34.61-2.08,43-60,38.14-75.54,72.72-.92,2.07,2,3.85,3.11,1.8Z"/><path class="collardcls-4" d="M83.26,186.81c.61,13.15,10.29,20,19.63,27.8,13.87,11.6,17.48,24.67,20,41.87.21,1.48,2.56,1.35,2.86,0,2.53-11.36-1.84-23.76-8.49-33-9.26-12.89-29.4-19.32-31.11-36.66-.18-1.8-3-1.85-2.86,0Z"/><path class="collardcls-4" d="M274.39,435.1c33.24-24.07,62.19-59.16,68.92-100.57,3.57-22,3.21-44.69,9-66.3,6.61-24.66,22.87-42.39,38.49-61.73,1.87-2.31-1.19-5.54-3.36-3.32-14.62,15-28.86,32.21-36.85,51.77-7.83,19.18-8.77,40.19-10.52,60.57-2.05,23.94-7.46,45.58-20.76,65.85-12.77,19.45-28.95,36.46-46.95,51.13-1.45,1.18.49,3.7,2,2.6Z"/><path class="collardcls-4" d="M312.57,307.4c-18.57-19.66-23.51-48.13-7.78-70.94,1.08-1.57-1.47-3.56-2.68-2.05-12.11,15.27-15.05,37.2-7.8,55.32a68.39,68.39,0,0,0,17.35,24.88c8.87,8.13,24.36,16.66,24.25,29.56,0,0-.41,5.61-.4,5.63.51,2.48-.21-1.71-.28.94a1.59,1.59,0,0,0,1.18-.68C348.62,331.79,322.69,318.1,312.57,307.4Z"/><path class="collardcls-4" d="M343.62,327.59c9.57-13.2,23-19.65,37.34-26.39,11.17-5.23,25.25-11.57,31.44-22.95a2.16,2.16,0,0,0-3.4-2.59c-6.81,6-12.92,11.79-21,16.28-6.17,3.44-12.61,6.33-18.87,9.58-11.17,5.81-22.48,12.91-28.61,24.29-1.11,2.05,1.75,3.59,3.07,1.78Z"/><path class="collardcls-4" d="M294.68,418.31c6.59-8,12-18.26,10.71-29C304,377.67,294.67,373,285.16,368.17c-11.06-5.64-22.87-10.94-31.4-20.27-11.59-12.7-10.4-27.62-10-43.53.06-2.29-3.49-2.77-4-.52-4.71,20.13.54,40.08,17.23,52.76,8.76,6.67,18.74,11.47,28.46,16.54,7.58,4,14.64,7.77,15.92,17,1.35,9.82-4.8,18.12-8.72,26.59-.57,1.22,1,2.75,2,1.54Z"/><path class="collardcls-4" d="M323.16,385.27c21.81-15.5,54.6-13.07,72.81-34.08a1.87,1.87,0,0,0-2.66-2.63c-21.18,17.85-50.19,17.11-72.17,33.3-2,1.49-.08,4.9,2,3.41Z"/><path class="collardcls-4" d="M176.94,148.79c6.91-12.24,15.18-28.33,10.69-42.72a1.8,1.8,0,0,0-3.52.49c.14,15.14-4.32,26.62-10.74,40.17-1.12,2.36,2.25,4.4,3.57,2.06Z"/><path class="collardcls-4" d="M230,155.7a62.14,62.14,0,0,1,8.52-12.31c3.21-3.54,7.05-6.29,10.48-9.57,1.34-1.27-.06-4-1.9-3.24-9.85,3.91-17,14.08-20.55,23.68-.75,2,2.45,3.3,3.45,1.44Z"/><path class="collardcls-4" d="M340.68,162.82c3.61-7.65,4.5-15.29,1.22-23.32-4.23-10.38-13.26-15.92-15.24-27.63-.34-2-3.31-1.72-3.79,0-1.67,6,.88,11.14,4.42,16,7.8,10.78,14.81,19.18,9.72,33.38-.76,2.12,2.7,3.57,3.67,1.52Z"/><path class="collardcls-4" d="M366.58,96.74c-3.28,15.1-4.63,33.29,2.53,47.5.76,1.51,3.43.82,3.26-.9-1.54-15.77-4.48-29.52-1.48-45.44.53-2.79-3.69-4-4.31-1.16Z"/><path class="collardcls-3" d="M426.47,112.66c-16.06,1.43-30.51,6.63-42.72,17.44-5.71,5.07-10,11.35-15.18,16.87-8,8.47-16.39,9.43-27.57,10-15.93.77-33,1.53-46.83,10.51-12.26,8-18.91,21.09-25.73,33.53-3.59,6.53-7.28,13.21-12.47,18.64-6.77,7.1-15.77,10.19-24.52,14.06-13.87,6.14-25,16.09-30.9,30.28-6.94,16.66.17,35.47-7,51.53-6.61,14.82-22.62,23-29.56,37.78-15,31.88,12.19,69,44.1,77.26,4.56,1.17,5.13-1.89,1.17-4.36-12.85-8-25.32-16-33-29.8-9.3-16.7-8.25-35.23,4.48-49.62,8.51-9.61,19.22-17.85,23.49-30.45,5-14.83-.43-30.86,4.64-45.67,5.86-17.12,19.43-24.4,35-31.21a60.6,60.6,0,0,0,28.74-25.16c6.87-11.22,11.61-24.44,21.17-33.78,12.51-12.23,30.77-13.06,47.24-14s26.66-4.34,37.6-17.18c12.85-15.07,27.73-28.25,48.15-30.72,4.52-.55,4.42-6.3-.28-5.89Z"/><path class="collardcls-3" d="M84.61,101.19c17,3.37,27.79,16.66,39.79,28.39,11.66,11.41,23.28,19.58,39.88,21.68,21.28,2.68,42.31.05,63,7.32a70.88,70.88,0,0,1,26,15.58c8.39,8.07,10.82,16.33,14.71,26.81,1.44,3.87,7.29,3.44,7.41-1,.42-16.45-14.51-33.46-27.59-41.71-18.93-11.94-42-13.84-63.77-14.19-12.7-.2-25.65-.33-37.2-6.31-8-4.13-14.37-10.56-20.7-16.79-11.88-11.69-24-22.55-41.23-23.75-3.23-.23-3.31,3.37-.26,4Z"/></g></g></svg>