<svg xmlns="http://www.w3.org/2000/svg" viewBox="0 0 512 512"><defs><style>.corncls-1{fill:none;}.corncls-2{fill:#9bb533;}.corncls-3{fill:#4a2d2d;}.corncls-4{fill:#fdca2a;}</style></defs><g id="Capa_2" data-name="Capa 2"><g id="bocetos"><rect class="corncls-1" width="512" height="512"/><path class="corncls-2" d="M323,185.1c1-.77,13.37-22,34.07-38.37s32.34-26.31,40.1-48.3c10.15-28.77,3.45-43.55,9.05-43.11s34.07,44.84,29.32,96.58S420,214.85,394.11,249.35s-31.05,58.21-31.91,73.73.43,29.32-3,41-42.68,83.22-63.38,76.32S303.13,199.76,323,185.1Z"/><path class="corncls-3" d="M333.55,263.57c3.87-17,8.69-33.61,16.4-49.36,7.32-15,16.93-28.09,26.93-41.33,1.09-1.44-1.23-3.12-2.44-1.89-23.51,23.77-39.53,58.76-44,91.72-.27,2,2.64,3,3.12.86Z"/><path class="corncls-3" d="M339.57,301.21c-1.09-11.57,4.69-24,9.36-34.31,4.44-9.8,10.14-18.68,15.58-27.93.91-1.55-1.34-3.43-2.57-2-8.06,9.58-14.2,21-19.08,32.53-4.17,9.83-7,21.29-6.91,32.18,0,2,3.81,1.62,3.62-.49Z"/><path class="corncls-2" d="M202.23,156.21s-5.6-25.87-25-44-27.16-25-31.9-37.51-1.3-25-6.47-25.87-20.27,53.9-17.25,94,16.82,73.73,40.53,94,38.38,22.43,38.38,22.43Z"/><path class="corncls-4" d="M183.48,286.21c1.93-55.69,3.68-137.56,11.64-176.56,12.93-63.39,27.81-95.73,71.14-81.5s56.92,53.68,63.39,117.07,6.47,122.24-5.82,195.32-20.7,122.89-42,124.18-53.69-10.34-69.86-34.92S182.27,321,183.48,286.21Z"/><path class="corncls-3" d="M325.2,313.57a121.83,121.83,0,0,1-26.83,9.72q-.28-19.29-.72-38.57A89,89,0,0,0,322,271.59c1.71-1.31-.46-3.77-2.21-2.86A241.5,241.5,0,0,1,297.5,279.2q-.45-17.71-1.09-35.41a133.35,133.35,0,0,0,24.45-10.54c1.88-1.05.23-3.63-1.65-2.82a187.14,187.14,0,0,1-23,8.22c0-.11,0-.23,0-.35q-.6-15.3-1.4-30.58a80.07,80.07,0,0,0,22.67-7.19c2.08-1,.63-4.42-1.58-3.74a170.28,170.28,0,0,1-21.39,5.08q-1.2-22.23-2.9-44.42a134.83,134.83,0,0,0,26.92-9.93c2.23-1.11.28-4.32-1.94-3.31a137.92,137.92,0,0,1-25.33,8.64q-1.84-23-4.35-46A97.39,97.39,0,0,0,310.86,94c1.84-1.36.22-4.38-1.84-3.14a135.67,135.67,0,0,1-22.67,10.88C285.26,92.17,284,82.6,282.73,73a96.45,96.45,0,0,0,10.64-4.16c1.53-.71.45-3.28-1.16-2.74q-5,1.68-10,3c-.48-3.45-.92-6.89-1.43-10.33-.31-2.08-3.95-1.61-3.69.49.43,3.62.81,7.23,1.22,10.84a139.77,139.77,0,0,1-19.06,3.31q1.88-14.67,4.21-29.26c.4-2.5-3.4-3.6-3.85-1.06q-2.73,15.33-4.89,30.7a123.18,123.18,0,0,1-22.52-.54c2.52-13.26,5.13-26.5,7.68-39.76.46-2.42-3.12-3.47-3.74-1-3.35,13.27-6.28,26.66-8.92,40.11-2-.32-4-.66-6-1.08-1.69-.35-2.41,2.15-.72,2.6,2,.55,4.11,1,6.18,1.45q-2.92,15.25-5.31,30.62c-3.74-.87-7.49-1.89-11.24-3.15-2.15-.73-3,2.58-.92,3.36a107.23,107.23,0,0,0,11.58,3.63q-3,19.68-5.14,39.43c-1.92-.63-3.84-1.29-5.74-2-2.58-1-3.61,3.08-1.13,4.1,2.11.86,4.24,1.66,6.37,2.41q-.85,8.06-1.6,16.1c-.81,8.8-1.53,17.77-2.1,26.83a49.94,49.94,0,0,1-11-6.11c-2-1.49-4.68,1.95-2.69,3.49a54.27,54.27,0,0,0,13.35,7.49c-.71,12.65-1.09,25.45-.91,38.22a159.44,159.44,0,0,1-16-5.12c-2.56-1-3.57,3.05-1.12,4.06a151.42,151.42,0,0,0,17.22,5.93c.54,21.62,2.71,43.1,7.6,63.51.46,1.93,3.66,1.56,3.5-.47-1.6-20.57-4.34-40.91-5.26-61.53a154.91,154.91,0,0,0,32.75,4.15q1.23,18.2,3.22,36.38a120.51,120.51,0,0,1-28.25-4.49c-2.43-.69-3.45,3.05-1,3.77a126,126,0,0,0,29.77,4.94c1.39,11.89,3,23.75,5,35.53A199.22,199.22,0,0,1,232,323.6a69.72,69.72,0,0,1,7.08,6c6.37,1,12.89,1.75,19.46,2.16,2.77,15.68,6.12,31.21,10.18,46.48.75,2.81,4.85,1.61,4.32-1.19-.3-1.54-.58-3.06-.87-4.59l.29.54a126.79,126.79,0,0,0,20.73-2.51c0,17.14.15,34.27,1.26,51.32a1.84,1.84,0,0,0,3.68,0c1.14-17.5,1.21-35.12,1-52.73A91.55,91.55,0,0,0,317,362.3c.6-2.05,1.25-4.09,1.74-6.15A121.47,121.47,0,0,1,299,363.29c-.17-11.21-.43-22.41-.57-33.58,0-.22,0-.45,0-.68a90.06,90.06,0,0,0,28.85-11.85A2.09,2.09,0,0,0,325.2,313.57Zm-33-32.41a102.45,102.45,0,0,1-18.92,4.68A114,114,0,0,1,258.33,287q-2.29-18.17-3.83-36.44a147.33,147.33,0,0,0,36.56-5.18Q291.74,263.27,292.19,281.16Zm-1.31-41.11a167.77,167.77,0,0,1-36.81,5.07c-.85-11.28-1.46-22.61-1.77-34,0-.79,0-1.59,0-2.39l.94.06c11.74.8,24.17,1.18,36.24-.28Q290.24,224.28,290.88,240.05Zm-1.75-37.39a171.78,171.78,0,0,1-32.52,1.24l-4.46-.23q-.37-21.16.24-42.38a133.13,133.13,0,0,0,34-2.66Q288,180.64,289.13,202.66ZM286.07,154a138.71,138.71,0,0,1-33.53,2.42q.75-21.49,2.51-42.95a109.8,109.8,0,0,0,27.23-5Q284.41,131.19,286.07,154Zm-7.32-79.72q1.62,14.52,3.05,29.08a116.37,116.37,0,0,1-26.35,5.37q1.37-15.5,3.25-30.93A104.1,104.1,0,0,0,278.75,74.24Zm-47.19,2.29A113.87,113.87,0,0,0,254.14,78q-2.1,15.46-3.62,31a110.59,110.59,0,0,1-24.46-1.79Q228.64,91.84,231.56,76.53Zm-6.17,34.59a113.58,113.58,0,0,0,24.69,2.44q-2,21.18-2.79,42.45a139.46,139.46,0,0,1-27.46-5.22C221.32,137.51,223.22,124.3,225.39,111.12ZM217.81,172c.41-5.55.93-11.08,1.51-16.61a132.79,132.79,0,0,0,27.79,5.56q-.71,21.19-.28,42.47c-10.27-.59-20.87-1.57-30.58-4.67Q216.79,185.32,217.81,172ZM216,241.39c0-.12,0-.24,0-.35-.35-12.5-.26-25,.15-37.5,9.86,3.05,20.46,4.08,30.86,4.82l.06,2.76q.51,17,1.55,34.06A156.43,156.43,0,0,1,216,241.39Zm42.93,49.89a118.05,118.05,0,0,0,33.44-4.78q.46,19,.71,37.93a143.44,143.44,0,0,1-28.92,2.44Q261.22,309.09,258.88,291.28Zm34.3,73.45a137.07,137.07,0,0,1-21.93,2.91q-3.31-17.81-6.29-35.58a139.16,139.16,0,0,0,28.16-1.94C293.26,341.64,293.21,353.18,293.18,364.73Z"/><path class="corncls-2" d="M91.42,122.58c-2.83-12-1.3-20.27-6.47-19.4S66,171.3,72.88,205.8s39.24,71.58,53,100S127.8,405.89,164.72,446c30.18,32.77,70.28,38.37,97.45,34.92s31.47-7.76,31.47-7.76,22.43,9.49,50.88-10.35S380.05,385.66,392,358.87c13.8-31.05,36.65-54.33,36.22-58.64s-37.51-2.59-72.87,27.59-60.79,90.12-60.79,90.12-18.11-57.78-54.76-97.45-79.34-68.55-102.63-96.58S100,159.23,91.42,122.58Z"/><path class="corncls-3" d="M172.16,365.35c10.62,38.83,31.82,85.53,73.89,98.58,2.32.72,3.85-2.81,1.66-4-18.24-9.61-33.52-20.82-45.55-37.89-12.3-17.45-20.5-37.3-26.49-57.7a1.82,1.82,0,0,0-3.51,1Z"/><path class="corncls-3" d="M262,439c-16.72-23.5-21.39-53.34-38.34-76.54-1.3-1.77-4.14-.24-3,1.77,13.89,24.82,21.58,53.39,38.69,76.32,1.16,1.56,3.82.08,2.66-1.55Z"/><path class="corncls-3" d="M298.09,416.68c18.16-25.15,30.07-53.54,52.7-75.59,21.47-20.92,47-33.1,76.58-37,5.3-.7,5.71-8.44,0-8.58-29.74-.7-58.18,16.81-78.67,37C325.83,355,304.89,384.68,293,414.54c-1.24,3.14,3.38,4.49,5.07,2.14Z"/><path class="corncls-3" d="M83.68,103.82c2.06,28.45,8.06,55.76,20.92,81.4,13,25.93,32.14,47,54.17,65.57,37.83,31.92,79.17,63.41,104.63,106.88,10,17,19.66,34.49,25.37,53.42,6.37,21.12,3.4,40.9-1.79,61.8-.87,3.51,4.44,6.12,6.09,2.57,13.51-29,6.85-63.34-6.2-91.14-11.14-23.71-24.58-45-41.84-64.57a439.68,439.68,0,0,0-51.78-49.88c-25.92-21.27-53.19-41.7-72-70-19.13-28.77-28.32-62.81-33.4-96.66-.35-2.37-4.37-1.83-4.19.56Z"/></g></g></svg>