<svg xmlns="http://www.w3.org/2000/svg" viewBox="0 0 512 512"><defs><style>.couscouscls-1{fill:#4a2d2d;}.couscouscls-2{fill:none;}</style></defs><g id="Capa_2" data-name="Capa 2"><g id="bocetos"><path class="couscouscls-1" d="M260.19,104c-7.6-12.67-27.72-3.59-22.94,10.58,2.4,7.09,10.28,11.13,17,7.51S264.39,111,260.19,104Zm-6,11.2c-4,3.41-9,3.63-11.76-1.34s1.52-10.59,6.86-10.47C255.22,103.49,259.11,111,254.19,115.16Z"/><path class="couscouscls-1" d="M192.64,127.44c-8-19.63-41.35-9-37.13,11.71a19.42,19.42,0,0,0,24.19,15.12C191,151.2,197,138.16,192.64,127.44Zm-15.71,20.28c-7.5,1.68-15.24-3.3-15.8-11.21-.91-13,21.44-17.59,25.47-5.09C188.87,138.48,184,146.14,176.93,147.72Z"/><path class="couscouscls-1" d="M138.32,184c-12.18-12.72-35.9,2.38-26.36,18.41,4.85,8.15,16.06,10,23.59,4.52C142.85,201.55,144.83,190.75,138.32,184Zm-7.08,17.9c-4.59,3-11,2.28-14-2.56-2.69-4.26-.86-9.49,3.23-12.09C130.41,180.84,141.65,195,131.24,201.85Z"/><path class="couscouscls-1" d="M205.83,189.9a16.79,16.79,0,0,0-8.05-6.71c-10.47-4.4-20.88,3.89-24.69,13.32a14.72,14.72,0,0,0,15.12,20.31c6.3-.52,12-4.49,15.58-9.68,3.12-4.5,4.85-10.4,2.87-15.51A12,12,0,0,0,205.83,189.9Zm-13.56,17.9c-4.32,2.73-12.74,3.6-14.61-2.67-3.13-10.54,14.21-22.81,21.34-12.48C202.88,198.28,197.05,204.79,192.27,207.8Z"/><path class="couscouscls-1" d="M268.39,160.35c-3.2-7.61-12-10.67-19.67-8.49-9.5,2.72-15,13.1-13.8,22.59,1.24,10.15,12.53,14.32,21.28,10.82C265.71,181.47,272.58,170.31,268.39,160.35Zm-13.76,18.16c-5,2.87-12.45,1.49-13.79-4.86-1-4.84,1.48-12.86,6.7-14.29,6.61-1.8,13-2.06,14.84,5.13C263.84,170.12,259.28,175.84,254.63,178.51Z"/><path class="couscouscls-1" d="M321.09,144.33c-14.39-10.82-33.87,9.14-21.76,23.18a16.43,16.43,0,0,0,23.61,1.35C330.05,162.1,328.81,150.14,321.09,144.33Zm-3.42,20.83a10.37,10.37,0,0,1-14.62-2.26c-5.62-8,3.35-17.89,12-14.24C321.54,151.39,323.79,160.86,317.67,165.16Z"/><path class="couscouscls-1" d="M387,180.23c-4.85-5.68-13.82-8.65-21-5.63-8.3,3.48-12.59,15.14-7.8,23,4.55,7.39,16.91,10.17,24.26,5.47C389.46,198.58,392.65,186.81,387,180.23ZM380.17,197c-4.4,4.09-14.15,2.45-17.34-2.14-7.42-10.66,7.9-16.78,16.15-12.52C384.81,185.35,385.06,192.46,380.17,197Z"/><path class="couscouscls-1" d="M319.32,205.4a13.81,13.81,0,0,0-18.56-3.32c-8.58,5.6-12.63,17.55-7.08,26.68,5,8.2,15.76,9.17,22.69,2.89S325.21,213.1,319.32,205.4Zm-8,21.8c-5.36,4.14-12.09,1.65-13.86-4.7-2-7.19,4.73-19.16,13.45-15.52C318.58,210.18,316.94,222.86,311.33,227.2Z"/><path class="couscouscls-1" d="M356.2,245.9C343.46,236,324,253.23,333,267a15.35,15.35,0,0,0,21.41,3.92C361.94,265.41,364,252,356.2,245.9Zm-6.95,21.2c-10.27,5-17.82-10-8.42-16a9.78,9.78,0,0,1,10.68,0C357.06,255,354.75,264.43,349.25,267.1Z"/><path class="couscouscls-1" d="M401,258.92c-16.41-4.94-27.19,20.72-10.27,26.49,7.66,2.61,15.47-1.86,18.48-9.06C412.37,268.81,408.85,261.28,401,258.92ZM403,275.4c-1.94,3.31-5.6,5.46-9.46,4.47-5.45-1.39-7.22-9.13-3.42-13.06C395.79,260.87,407.6,267.43,403,275.4Z"/><path class="couscouscls-1" d="M356.37,310.89c-15.19-10.55-34.95,10.68-22.32,24.34,5.94,6.42,16.17,5.12,21.69-1.12C360.85,328.32,363.8,316.06,356.37,310.89Zm-6.07,19.86c-3.83,3.77-10.17,3.89-13-1.1-4.89-8.73,5.81-19.79,14.53-13.5C356.23,319.3,353.55,327.55,350.3,330.75Z"/><path class="couscouscls-1" d="M300.05,294.33c-.52-7.09-4.82-13.38-13.56-13.79-10.07-.47-18.06,8.51-18.43,18.22a15.46,15.46,0,0,0,18.69,15.73C295.86,312.54,300.69,302.87,300.05,294.33Zm-11.51,13.48c-7.35,4.19-15.94-.8-15.33-9.33.58-8.08,10.28-16.63,18-10.66C297.55,292.74,294.94,304.16,288.54,307.81Z"/><path class="couscouscls-1" d="M247.72,229.3a19.05,19.05,0,0,0-22.8,2.18c-9.8,8.59-7,22.53,3.19,29.52,9.71,6.65,22.59,4.41,27.72-6.63C260.63,244,255.74,234,247.72,229.3ZM249,252.38c-3.64,6.19-10.9,6.94-16.86,3.63-8.18-4.55-11.56-15.87-2.31-21.57,5.58-3.44,14.3-2.92,18.63,2.3C252.12,241.21,251.79,247.56,249,252.38Z"/><path class="couscouscls-1" d="M163.3,241.75c-19.15-6.19-30.3,25.67-14,35.15,9.11,5.31,21.82-.68,25.48-10C178.66,257,173.71,245.11,163.3,241.75Zm4.75,22.87c-2.72,6.7-12.09,10.06-18.34,6.07-9.86-6.29,1.42-25.54,11.63-21.83A11.81,11.81,0,0,1,168.05,264.62Z"/><path class="couscouscls-1" d="M125.72,287.54c-6.72-3.33-15.47-2.41-20.46,3.72-5.23,6.44-5.05,18,2.12,23a17,17,0,0,0,23.24-3.81C136.55,302.61,134.66,292,125.72,287.54Zm-1.46,19.86a11.61,11.61,0,0,1-14.17,2.18c-8-4.61-2.4-13.69,4.19-16.29C123.33,289.72,131,300,124.26,307.4Z"/><path class="couscouscls-1" d="M213.73,300a13.51,13.51,0,0,0-8.53-.05c-9.68,3.2-14,18.18-4.75,24.57,7.26,5,16,1.41,20.76-5.2C226.84,311.43,221.48,302.49,213.73,300Zm3,14.6c-2.71,4.05-7.68,8.13-12.72,6.34-7.23-2.59-4-11.4.8-14.76C210.56,302.12,221.83,306.93,216.75,314.55Z"/><path class="couscouscls-1" d="M274.88,343c-5.27-7.66-17.06-10.43-24.16-3.82-6.13,5.71-10.26,14.55-6.92,22.74,3.92,9.63,14.93,11.43,23,5.6C273.68,362.52,280.49,351.19,274.88,343Zm-5.2,9.42c-.48,5-4.4,10.14-8.72,12.3-6.8,3.39-13.13-1.89-13.23-8.81a14.06,14.06,0,0,1,5-10.41c4.05-3.44,9.82-4.55,14-.82A8.85,8.85,0,0,1,269.68,352.44Z"/><path class="couscouscls-1" d="M329.32,365.25c-12.63-7.13-29.95,7.75-19.84,20.44,5.77,7.24,15.68,8,21.94.73C336.88,380.05,337.22,369.71,329.32,365.25ZM328,380.58c-2.31,4.35-7.71,6.51-12.07,3.74-5.7-3.61-5.53-10.36.75-13.22C323.25,368.11,332.1,372.83,328,380.58Z"/><path class="couscouscls-1" d="M174.83,340.59c-14.52-9.53-31.2,10.6-21.37,24a15.55,15.55,0,0,0,24.6,1.05A16.73,16.73,0,0,0,174.83,340.59Zm-1.75,21.12a10.28,10.28,0,0,1-15.77-.44c-5.94-8,4.8-20.16,13.44-15.07C176.24,349.43,177.15,356.93,173.08,361.71Z"/><path class="couscouscls-1" d="M227.67,386.83A14.84,14.84,0,0,0,212,382.75c-9.21,3.07-15,13.58-11.35,22.9,3.85,9.71,16.62,10.6,24.18,4.86S234.09,394,227.67,386.83Zm-7.47,19.53c-8.71,5.62-21.14-4.21-12.47-12.74,4.28-4.21,13.85-7.38,16.58.11C225.87,398,224.05,403.87,220.2,406.36Z"/><rect class="couscouscls-2" width="512" height="512"/></g></g></svg>