<svg xmlns="http://www.w3.org/2000/svg" viewBox="0 0 512 512"><defs><style>.creminicls-1{fill:none;}.creminicls-2{fill:#ab745b;}.creminicls-3{fill:#928181;}.creminicls-4{fill:#4a2d2d;}.creminicls-5{fill:#e5d2c4;}</style></defs><g id="Capa_2" data-name="Capa 2"><g id="bocetos"><rect class="creminicls-1" width="512" height="512"/><path class="creminicls-2" d="M438.72,278.5c-11.74,17.31-27.8,30.93-45.33,41.95-24.11,15.19-51,25.55-73.19,34-38.33,14.65-95.5,25.1-95.5,25.1a313.64,313.64,0,0,1-31.36,1.33c-35.9-.14-93.83-5.69-125.48-36.88-48.1-47.41-24.4-138,56.47-202.85s209.82-92.72,290-39S466.6,237.36,438.72,278.5Z"/><path class="creminicls-3" d="M393.39,320.45c-24.11,15.19-51,25.55-73.19,34-38.33,14.65-95.5,25.1-95.5,25.1a313.64,313.64,0,0,1-31.36,1.33,97.38,97.38,0,0,1-36-40.78c-18.58-39.7,16.65-76.2,66.59-96s130.61-28.18,163.9,5.13C408,269.4,401.57,299.73,393.39,320.45Z"/><path class="creminicls-4" d="M107.87,342.18c3.43,1.71,7.38,3.21,11.26,2.44a5.33,5.33,0,0,0,3.9-5.12,5.64,5.64,0,0,0-3.9-5.12,11,11,0,0,0-2.47-.51c1.11.18-.68-.17-.89-.22-.52-.12-1-.27-1.54-.43-.19-.06-1.78-.69-.94-.32-2.56-1.14-5.89-.83-7.35,1.93-1.29,2.43-.76,6,1.93,7.35Z"/><path class="creminicls-4" d="M94.43,322.86a29.09,29.09,0,0,0,4.66,1.5,10.42,10.42,0,0,0,6.8-.71,4.55,4.55,0,0,0,2.29-4,4.83,4.83,0,0,0-2.29-4c-2.43-1.83-5.82-2.06-8.61-3.15-2.62-1-6,1.12-6.61,3.75-.71,3.12,1,5.47,3.76,6.61Z"/><path class="creminicls-4" d="M421.73,245.05h2.17a4.17,4.17,0,0,0,4.17-4.17,4.25,4.25,0,0,0-4.17-4.17h-2.17a4.29,4.29,0,0,0-3,1.22,4.17,4.17,0,0,0,3,7.12Z"/><path class="creminicls-4" d="M422.59,231.1l.73-1.14.44-1.05a3.32,3.32,0,0,0,.08-1.74,2.14,2.14,0,0,0-.3-1.1,3.19,3.19,0,0,0-.9-1.4l-.88-.68-1-.44a3.32,3.32,0,0,0-1.74-.08,3.27,3.27,0,0,0-1.62.52l-1.15.74a4.69,4.69,0,0,0-1.67,1.67,4.63,4.63,0,0,0-.63,2.35,4.84,4.84,0,0,0,1.36,3.3,3.52,3.52,0,0,0,1.5,1,3.48,3.48,0,0,0,1.8.4,4.76,4.76,0,0,0,4-2.31Z"/><path class="creminicls-4" d="M199.72,379.66c-9.26-7.4-20.83-11.52-29.05-20.38-8.9-9.6-13.41-22.56-14.08-35.5-1.52-29.33,17.34-49.9,41.23-63.93a221.72,221.72,0,0,1,82.8-28.48c28.12-3.72,61.76-3.74,87.45,9.83,13.92,7.35,24.17,19.47,27.65,35s-1.08,29.43-7.22,43.69c-1.06,2.46,1.67,5,3.86,3,19.43-17.77,15.42-53.31,0-72.33-20.45-25.27-58.86-29.05-89.07-28.25a226.3,226.3,0,0,0-102,27.82c-25.5,13.94-48.35,33.76-50.69,64.52-2.31,30.35,16.52,61.05,47.16,68.46,1.81.44,3.66-2,2-3.39Z"/><path class="creminicls-4" d="M173.78,365.39c9.18-1,18.09-3.29,27.33-4,10-.75,19.45.64,29.31,2.52,2.31.44,3.83-2.61,1.65-3.92-16.67-10-41.66-7.33-59.09-.54-2.88,1.13-2.87,6.32.8,5.93Z"/><path class="creminicls-4" d="M157.3,325a176.63,176.63,0,0,1,37.64,2.91c11.55,2.21,22.47,6.56,34,8.91a2.12,2.12,0,0,0,1.63-3.86c-20.42-13.06-49.66-15-73.23-13.94-3.82.18-3.87,6.08,0,6Z"/><path class="creminicls-4" d="M182.73,270.81c10.31,6.87,20.63,13.78,30.67,21,9.73,7,18.86,16.68,29.72,21.92,2,1,4.61-1.09,3.24-3.24-6.24-9.8-17-16.79-26.14-23.69A251,251,0,0,0,186.12,265c-3.84-2-7,3.4-3.39,5.79Z"/><path class="creminicls-4" d="M248.91,235.35c3.49,20,7.71,43.2,17.46,61.25,1.12,2.07,4.66,1.18,4.52-1.23-1.2-20.82-10.92-41.54-15.67-61.76-1-4.15-7-2.34-6.31,1.74Z"/><path class="creminicls-4" d="M307.46,227.1A184.71,184.71,0,0,0,299,261.56c-1.42,9.7-3.48,20.21-1.73,29.93.47,2.56,4.1,2.16,4.79,0,3.17-9.93,3.17-21.07,5.1-31.35,2-10.47,4.21-20.92,6.55-31.31.93-4.1-4.88-5.65-6.25-1.73Z"/><path class="creminicls-4" d="M372.38,239.55c-14.28,12.13-30.82,30.65-33.36,50-.38,2.86,3.68,3.32,5,1.35,10.69-16,19.85-32.27,33.59-46.12,3.4-3.42-1.64-8.26-5.22-5.22Z"/><path class="creminicls-4" d="M360.27,310.67A97.55,97.55,0,0,1,380.12,296c6.64-3.67,14-5.94,20.56-9.62,2-1.11,1.19-4.59-1.2-4.42-16.35,1.2-32.24,13.3-43.52,24.39-2.8,2.75,1.46,7,4.31,4.3Z"/><path class="creminicls-5" d="M350.45,295.52c-14.51-17.5-42.26-12.38-67.44-6.83s-49.51,13.23-56.34,38.84-8.11,59.75-2.14,79,21.77,33.72,66.16,28.17,68.66-17.42,76.4-27.74C379.9,389.85,365,313,350.45,295.52Z"/><path class="creminicls-4" d="M337.05,396a15.33,15.33,0,0,0,4.58.33,8.92,8.92,0,0,0,3.77-1.12,5.59,5.59,0,0,0,3-4.85c-.12-3.44-3-5.41-6.2-5.28a15,15,0,0,0-2,.28c-1,.18,1,0,.27-.05a15.34,15.34,0,0,1-1.92-.08,5.43,5.43,0,0,0-3.88,1.61,5.58,5.58,0,0,0-1.5,3.14c-.34,2.53,1.24,5.49,3.93,6Z"/></g></g></svg>