<svg xmlns="http://www.w3.org/2000/svg" viewBox="0 0 512 512"><defs><style>.cresscls-1{fill:none;}.cresscls-2{fill:#abc153;}.cresscls-3{fill:#4a2d2d;}</style></defs><g id="Capa_2" data-name="Capa 2"><g id="bocetos"><rect class="cresscls-1" width="512" height="512"/><path class="cresscls-2" d="M164.05,240.12s-7.87-44.26-29.51-62-41-14.76-46.89-2.3-3,16.73-13.12,24.92-22.29,19-9.51,34.11,38.37,9.83,58.7,6.23,39.35,5.57,41,8.19S164.05,240.12,164.05,240.12Z"/><path class="cresscls-2" d="M225,154.32c-.33-1-14.43-7.1-42.63-2.51s-56.72,13.11-63.61-6.89,9.51-29.18,19.67-34.43,12.79-9.51,16.07-21.31,14.43-24.6,35.09-8.53,32.79,60.55,33.44,65.8A61.13,61.13,0,0,0,225,154.32Z"/><path class="cresscls-2" d="M260.36,164s-11.18-34.3-4.13-65.57S283.82,57,295.69,64.79s7,16.64,17.25,19.34,26-3.54,32.24,12.21-3.5,30.5-26,43.85-53.84,21.51-57.87,28.95S260.36,164,260.36,164Z"/><path class="cresscls-2" d="M338.83,204.93s1-43.61,22.29-74.11,41.65-19.67,46.24-11.48-1,18,9.51,23.28,30.49,9.51,33.44,24.27-6.55,25.25-32.46,29.51-36.07.66-56.4,3.61c-18.81,2.73-26.23,13.11-26.23,13.11Z"/><path class="cresscls-2" d="M331.89,240.61s25.79-18.66,67-21.84S453.82,236.1,455,250.16s-15.65,18-16.07,27.26,11.22,22.31-1,37.19-39.34,6.68-51.54-4.73-21.3-42.06-30.1-51.71S341,244.33,334.52,246a22,22,0,0,0-10.15,5.88Z"/><path class="cresscls-3" d="M296,100.84c-20,12.89-31.36,39-37.43,61-8.06,29.24-9.65,60.25-10.16,90.44-.54,31.89.73,63.83,1.87,95.7.59,16.57,1,33.16,1,49.74s-1.49,33.16-.92,49.65c.13,3.59,5.82,4.74,6.56.89,5.54-28.68,3.39-59.75,2.57-88.8-.86-30.64-2.75-61.23-3.43-91.88s-1.09-61.84,5.19-91.88a150.73,150.73,0,0,1,13.36-38.23C281.05,125,290,115.38,299,104.69c1.67-2-.47-5.47-3-3.85Z"/><path class="cresscls-3" d="M175,122.62c13.54,6.07,27.54,12.18,38.29,22.69,10.27,10.05,17.45,22.83,22.54,36.17,11.48,30.09,10.82,63,14.51,94.6.26,2.23,3.49,2.35,3.56,0,.92-33.31-.76-71.5-13.52-102.74-12-29.37-34-45.68-63.16-56-3-1.08-5.21,3.93-2.22,5.27Z"/><path class="cresscls-3" d="M112,207.39c86.88,45.37,80.34,154.56,86.52,238.69.35,4.72,7.7,4.81,7.44,0-1.44-26.86-3-53.72-5-80.54-1.78-24.6-4.41-49.52-11.72-73.17-11.51-37.27-36.32-77-75.39-89.41-2.6-.83-4.32,3.15-1.87,4.43Z"/><path class="cresscls-3" d="M393.1,144.38c-39.79,26.11-73.14,72.93-82.42,119.85-5.71,28.88-7.26,59.1-8.74,88.45-1.56,31-1.73,62.09-.71,93.14.19,5.77,9.16,5.8,9,0-1.65-56.89-1.18-115.73,7.46-172.1,7.6-49.53,38.52-94.57,78.84-123.48,3.5-2.5.28-8.29-3.42-5.86Z"/><path class="cresscls-3" d="M413.84,255.5c-12-18.44-35.17-28.21-56.82-25.41-19,2.45-43,17.17-46.45,37.63a2.68,2.68,0,0,0,4.87,2.06c5.27-7.25,8.69-14.89,15.66-20.91a52.29,52.29,0,0,1,25-11.79c21-3.74,40.15,6.13,53.78,21.49,1.9,2.14,5.55-.65,4-3.07Z"/><path class="cresscls-2" d="M201.76,244s8.2-29.51,31.48-45.58c20.23-14,42-18,56.07-9.51s14.1,17.38,7.54,26.89-14.1,11.8-11.15,18.36,15.42,22.3,6.56,34.76-26.23,10.82-39,3.28-20-19.35-35.41-24.59c-11.33-3.86-19,.65-19,.65Z"/><path class="cresscls-3" d="M250,218.77c-18.66-2-36.12,10.18-49,22.38-11,10.37-25.51,29.55-21.84,45.73.64,2.87,4.55,2.46,5.4,0,2.58-7.47,3.32-14.86,7.11-22.07a73.17,73.17,0,0,1,15.53-19.69c12.79-11.76,26.53-18.31,43.54-21.26,3.1-.54,2-4.8-.69-5.09Z"/></g></g></svg>