<svg xmlns="http://www.w3.org/2000/svg" viewBox="0 0 512 512"><defs><style>.cucumbercls-1{fill:none;}.cucumbercls-2{fill:#6a8c2a;}.cucumbercls-3{fill:#4a2d2d;}.cucumbercls-4{fill:#fff;}</style></defs><g id="Capa_2" data-name="Capa 2"><g id="bocetos"><rect class="cucumbercls-1" width="512" height="512"/><path class="cucumbercls-2" d="M438.06,154.61C427.89,124.82,414.55,88.7,385.84,72c-23.62-13.77-54.46-4.81-71,15.81a93.37,93.37,0,0,0-18,38.35c-4.85,22.52-6.16,45.54-12,67.93-5.41,20.87-13.46,41-25.66,58.89-11.94,17.47-27.67,32.12-46.78,41.4-19.83,9.62-41.74,13.42-63.35,16.71-28.81,4.37-81.32,5.93-89.69,42.14-9.5,41.08,43.21,65.05,74,73.92,42.38,12.19,90,15.06,133.43,7.75,76.47-12.87,132-72.24,159.54-142.2C443.45,249.46,453.45,199.7,438.06,154.61Z"/><path class="cucumbercls-3" d="M115.91,346.92c53.66,4.62,110.63-13.77,153.39-45.94,41.32-31.09,67.6-74.33,80.3-124.15,7.72-30.24,11.74-62.6,12.75-93.79.08-2.33-3.27-2.2-3.53,0-4,34.48-6.43,68.72-16.13,102.28-9.09,31.43-24.31,60.12-46.47,84.3a223.3,223.3,0,0,1-72.41,52c-34.49,15.64-70.34,20.91-107.9,21.54-2.45,0-2.38,3.56,0,3.76Z"/><path class="cucumbercls-3" d="M119.71,374.43C188.5,394.05,265.82,384.51,323.8,341c47.42-35.59,77-88.86,79.85-148.08,1.27-26.23,2.4-61.24-14.32-83.35-1.57-2.07-5.08-.19-3.58,2.09,13.23,20.05,13.22,48.8,12.68,71.92-.57,24.38-4.16,47.75-13.51,70.43-25.19,61.1-81.25,104.77-145.09,119.26-39.14,8.88-80.33,7.37-119.15-2.35a1.82,1.82,0,0,0-1,3.51Z"/><path class="cucumbercls-4" d="M331.45,122.59A3,3,0,0,1,334.8,125c.26,1.53-1,2.89-2.07,3.77a1.65,1.65,0,0,0,1.16,2.79,6.23,6.23,0,0,0,5.26-7.69c-.8-3.62-4.76-5.51-8.18-4.79-2,.42-1.56,3.68.48,3.54Z"/><path class="cucumbercls-4" d="M374.05,162.42c4.79,1.31,3.42,6,1.32,9-1,1.46.67,3.09,2.15,2.79,4-.8,6.05-5.15,5.5-8.88a9,9,0,0,0-7.7-7.54c-3-.43-4.33,3.77-1.27,4.61Z"/><path class="cucumbercls-4" d="M358.74,237.53a2.68,2.68,0,0,1,3.62,2.08c.25,2.18-2.43,2.53-3.2,4.07a1.87,1.87,0,0,0,.28,2.21c1.81,1.58,4.35.44,5.79-1.14a7.26,7.26,0,0,0,1.81-6.24c-.92-4.37-6-6.15-9.79-4.52-2,.86-.58,4.21,1.49,3.54Z"/><path class="cucumbercls-4" d="M418.54,190.1c.52,1.17,0,2.36.23,3.7v-1.17c-.12.54-.19,1.05-.26,1.59a1.75,1.75,0,0,0,2.21,1.68c3.49-1.28,3.85-5.89,1.3-8.49a2.21,2.21,0,0,0-2.91-.17,2.26,2.26,0,0,0-.57,2.86Z"/><path class="cucumbercls-4" d="M406.12,262.83c1.51.89.71,3.75-.54,4.7a1.73,1.73,0,0,0,.87,3.19c6.52.62,7.14-9.56,2.05-12-2.7-1.27-5,2.49-2.38,4.07Z"/><path class="cucumbercls-4" d="M312.72,189.24c2.22-.84,2,3,1.67,4.11-.56,2-1.72,4.06-1,6.15a1.57,1.57,0,0,0,2.29.93c3.15-2.06,5.21-7.93,4-11.5s-5.16-6.07-8.77-4.06c-2.31,1.28-.74,5.35,1.84,4.37Z"/><path class="cucumbercls-4" d="M307.18,297.73a2.79,2.79,0,0,1,1,2.78,4.78,4.78,0,0,1-.55,1.85c-.16.29-.33.57-.5.85s-.14.34,0-.07a2.09,2.09,0,0,0-.43.66,1.66,1.66,0,0,0,1,2.4c3.2.7,5.48-2.74,5.59-5.57a7,7,0,0,0-4.48-6.92c-2.37-1-3.74,2.76-1.69,4Z"/><path class="cucumbercls-4" d="M347.87,347.6a2.92,2.92,0,0,1,2.94,4.09c-.39,1-1.4,1.52-1.67,2.54a2.52,2.52,0,0,0,3.71,2.84,8,8,0,0,0,3.46-9,8.17,8.17,0,0,0-8.44-5.41c-3.09.32-3.25,5,0,4.93Z"/><path class="cucumbercls-4" d="M244.25,395.73c1.4-.13,3.81-.09,4.65,1.33.3.5.18,2-.71,2-2.66.18-2.9,3.45-.6,4.41,4.43,1.85,8.19-3.87,7-7.76-1.38-4.65-6.87-5.73-11-4.8-2.63.6-2.12,5,.64,4.78Z"/><path class="cucumbercls-4" d="M249.78,339.66c.32,0,.42.2.08-.07.36.29-.28-.25,0,0s.14.17,0-.07c.1.14.19.31.3.44.28.35,0-.31,0-.06a2.08,2.08,0,0,1,.12.44c.05,0-.09-.61,0,0a4.85,4.85,0,0,0,.16,1V340c0,.23-.11.44-.16.66a2.45,2.45,0,0,0,0,1.26c0-.4-.06-.47-.06-.23a2,2,0,0,0,2,2,2.71,2.71,0,0,0,2-.7,3,3,0,0,0,.56-.67c.18-.33,0-.21-.09,0a6.51,6.51,0,0,0,.73-1.29,4.81,4.81,0,0,0,.12-1.05,5.77,5.77,0,0,0-.22-1.49,4.67,4.67,0,0,0-4.8-3.53,2.45,2.45,0,0,0-2.37,2.09,2.4,2.4,0,0,0,1.73,2.65Z"/><path class="cucumbercls-4" d="M171.65,325c.51,3.41,4.47,5,7.55,4.28s7.09-5.3,6-8.74a1.92,1.92,0,0,0-2.76-1.13c-1.88.84-2.28,3.16-3.77,4.42-.66.56-2.4,1.22-2.71,0-.71-2.88-4.78-1.6-4.35,1.2Z"/><path class="cucumbercls-4" d="M151.21,395.65c3.47,1.89-1,6.26-1.66,8.44a1.48,1.48,0,0,0,2.14,1.65c5-2.22,6.93-10.71,1.55-13.57-2.28-1.21-4.31,2.23-2,3.48Z"/><path class="cucumbercls-4" d="M83.58,357.94c3.43,2.31,2.75,5,2.23,8.54a3.67,3.67,0,0,0,5.3,4.08c4.16-1.85,5.06-7.42,4-11.43s-4.15-8-8.34-8.68c-4.52-.75-7.19,4.8-3.16,7.49Z"/></g></g></svg>