<svg xmlns="http://www.w3.org/2000/svg" viewBox="0 0 512 512"><defs><style>.currantcls-1{fill:#4a2d2d;}.currantcls-2{fill:#ef2b45;}.currantcls-3{fill:#fff;}.currantcls-4{fill:none;}</style></defs><g id="Capa_2" data-name="Capa 2"><g id="bocetos"><path class="currantcls-1" d="M211.75,347.74c37.05-23.19,63.65-57.84,83.34-96.36,23.31-45.59,40.71-96.06,40.48-147.76,0-6.5-10.08-6.51-10.1,0-.17,50.4-17.93,98.93-40.22,143.51a270.88,270.88,0,0,1-77.84,95c-3.21,2.5.94,7.74,4.34,5.61Z"/><path class="currantcls-1" d="M246.67,262.74c11.08-1.65,22.2-3.95,32.58-8.26,7.77-3.23,18.32-8.53,22.27-16.39a2.87,2.87,0,0,0-3.9-3.9c-8.18,4.48-14.57,11.17-23.32,15.12-9.22,4.17-19.19,6.36-29.13,8-3.57.6-2,5.93,1.5,5.41Z"/><path class="currantcls-1" d="M267.15,285.77c-.34,11,1.44,22.5,7.37,31.94,1.65,2.63,6,1,5.13-2.16-2.9-9.93-5.65-19.33-5.91-29.78-.1-4.24-6.46-4.24-6.59,0Z"/><path class="currantcls-2" d="M187.84,318.19c-32.14,0-62.88,36.6-53.1,59.8s36.61,48.34,76,33c28.16-11,39.83-52.94,18.49-75.62C218.88,324.34,202.83,318.19,187.84,318.19Z"/><path class="currantcls-2" d="M284.8,297.51S267.48,301.7,258,322.94s-8.1,54.49,22.36,63.43,52-10.34,58.4-25.15,5.31-37.44-7.82-51.14S296.26,294.43,284.8,297.51Z"/><path class="currantcls-2" d="M201.53,223.74c-35.25,3.2-50.3,32.69-46.95,54.49s29.34,43,62,34.37,34.58-45.18,33-52C245.68,244.14,232.27,220.94,201.53,223.74Z"/><path class="currantcls-2" d="M300.73,197.47c-31.58,15.65-34.37,59.24-9.78,79.64s58.4,14.53,74.33-7a50.41,50.41,0,0,0,7.83-42.3c-4-14.84-16.16-26.47-30-32.57S314.1,190.84,300.73,197.47Z"/><path class="currantcls-1" d="M223.6,166.45c-6.87-2.31-11.4,8.57-10.19,13.84,1.67,7.33,10,7.94,16.12,7.55,2.1-.14,2.13-3.42,0-3.3-4,.21-9.86.67-12.12-3.47-1.92-3.53,2.2-9.19,5.8-9.86,2.95-.55,2.18-5.1-.69-5.12Z"/><path class="currantcls-2" d="M309.13,149.22s-7.93-34.73-46.51-32.51-58,48.63-34.2,76.7,58.82,15.28,72.23-3.06S309.13,149.22,309.13,149.22Z"/><path class="currantcls-1" d="M290.64,148.26c9.63-2,18.71-7.44,26.83-12.85,6.51-4.33,13.65-9.7,16.52-17.18,1.18-3.09-3.12-5-5.22-3-11.7,10.92-23.49,23.42-39.5,28.08-3.21.94-1.87,5.67,1.37,5Z"/><path class="currantcls-1" d="M285.18,139.25c-1.59,3.78-2.11,7.62-.44,11.47,1.33,3,4.26,6.56,7.88,6.41a2.26,2.26,0,0,0,1.58-3.82c-1.69-1.75-3.77-2.53-4.87-4.89a13.35,13.35,0,0,1-.69-8.21,1.8,1.8,0,0,0-3.46-1Z"/><path class="currantcls-1" d="M351.24,248.6a5.3,5.3,0,0,0-2.31-3.26,12.43,12.43,0,0,0-14.39.45c-3.93,3-5.41,9.48-.59,12.42,4.46,2.72,10.54,1,14.16-2.37C350.23,253.87,351.77,251.1,351.24,248.6Zm-9.41,5c-2.93,1.51-6.43,2.47-6.18-.63s5.09-4.51,7.55-4.56a3,3,0,0,1,1.88.46C347.63,250.8,343.07,252.92,341.83,253.56Z"/><path class="currantcls-1" d="M193.94,269.37c-3.11-3.28-7.55-5-10.73-2.43-3.5,2.87-1.71,8.78.45,11.89,2.29,3.29,7.87,6.74,11.59,3.7C199.41,279.14,197.59,273.21,193.94,269.37Zm-1.75,9c-1,.68-3.85-.7-5.15-2.16-.85-.94-3.12-4.49-1.67-5.78,2.07-1.86,5.75,3.57,6.46,4.92C192.76,277.12,192.72,278,192.19,278.38Z"/><path class="currantcls-1" d="M170.64,365.92c-5.78-3.34-13.76-3.44-14.46,3.29-.57,5.53,3.49,11.69,8.51,13.85,6,2.58,11.17-1.86,11.91-7.87C177.06,371.42,174.29,368,170.64,365.92Zm-4.73,12.75a9.86,9.86,0,0,1-5.2-6.33c-1.14-5.6,9.87-2.24,10.74,1.09C172.36,376.93,169.33,380.26,165.91,378.67Z"/><path class="currantcls-1" d="M338,350c-6.73-3.77-13.17,1.78-15.58,8-2,5.13-.54,15.14,7,14.19a2.28,2.28,0,0,0,.61-4.45c-7.17-2.71,0-14.9,5.81-12.73,3,1.11,4.81-3.53,2.13-5Z"/><path class="currantcls-3" d="M264.76,124.35c-12.46.23-31.82,9.76-29.24,24.9.4,2.34,3.86,3.8,5.79,2.35,3.89-2.92,6.29-7.21,9.94-10.4a26,26,0,0,1,13.51-6.29c6.54-.79,7-10.68,0-10.56Z"/><path class="currantcls-3" d="M238.33,170.78a1.68,1.68,0,0,0,0-3.35,1.68,1.68,0,0,0,0,3.35Z"/><path class="currantcls-3" d="M217.43,234.18c-7-3.83-14.89-5.2-22.65-2.87-6.84,2.05-14.81,6.91-15.47,14.62-.26,3,3.06,4.93,5.68,4.33,4.75-1.09,8.47-5,13.2-6.56a27.1,27.1,0,0,1,15.47-.59c5.27,1.43,8.71-6.24,3.77-8.93Z"/><path class="currantcls-3" d="M203.36,329.92c-11.69-6.57-31.71-6.14-39.87,6-2.09,3.12,1.36,6.71,4.6,6,5.14-1.16,9.82-3.68,15.1-4.5,5.62-.88,11,.05,16.46,1.36,5.19,1.25,8.61-6.06,3.71-8.81Z"/><path class="currantcls-3" d="M198.38,401.58a9.15,9.15,0,0,0,4.41.13,5,5,0,0,0,4-3.65,3.67,3.67,0,0,0-2.52-4.43,4.49,4.49,0,0,0-1.62-.33,7.35,7.35,0,0,0-1.81.29c.71-.08.84-.11.38-.09a2.72,2.72,0,0,1-.49,0c.72.12.86.12.41,0a4.26,4.26,0,0,1-.47-.15,4.28,4.28,0,0,0-5.24,3,4.34,4.34,0,0,0,3,5.24Z"/><path class="currantcls-3" d="M218.13,298.35c5.32,0,5.32-8.27,0-8.27s-5.33,8.27,0,8.27Z"/><path class="currantcls-3" d="M315.54,211c6.39-1.19,14.29.55,20.28,3,5.62,2.29,7.76,6.48,12.2,10,2.52,2,7.6,1.92,8.22-2.17,1.38-9.13-6.81-15-14.51-18-9.66-3.74-19.77-4.49-29.17.13-4.17,2.06-1.07,7.83,3,7.08Z"/><path class="currantcls-3" d="M298.47,271.38a9.24,9.24,0,0,0,1.66,1.36,5.36,5.36,0,0,0,2.7.7,3.46,3.46,0,0,0,2.34-1,3.62,3.62,0,0,0,1-2.34,5.11,5.11,0,0,0-.69-2.7,14.47,14.47,0,0,0-1.37-1.67,4,4,0,0,0-6.78,2.81,4,4,0,0,0,1.17,2.81Z"/><path class="currantcls-3" d="M295.85,319.21a20.92,20.92,0,0,1,19,4.3c3.93,3.37,5.73,9.1,10.42,11.44a3.87,3.87,0,0,0,5.2-1.37c4.14-7.82-3.47-16.64-9.64-20.89-8.08-5.58-18.5-6.39-27.7-3.41-6.28,2-3.74,11.51,2.74,9.93Z"/><path class="currantcls-3" d="M279.46,363a10.67,10.67,0,0,0,2.44,3.84,5.42,5.42,0,0,0,3,1.42,5,5,0,0,0,3.28-.61,6.13,6.13,0,0,0,1.84-1.85,5.46,5.46,0,0,0,.52-4,11.1,11.1,0,0,0-2-4.1,5.44,5.44,0,0,0-3.11-2.39,5.32,5.32,0,0,0-4,.52,5.27,5.27,0,0,0-2.39,3.12l-.19,1.38a5.16,5.16,0,0,0,.71,2.63Z"/><rect class="currantcls-4" width="512" height="512"/></g></g></svg>