<svg xmlns="http://www.w3.org/2000/svg" viewBox="0 0 512 512"><defs><style>.custard-applecls-1{fill:#4a2d2d;}.custard-applecls-2{fill:#c0c728;}.custard-applecls-3{fill:#fee9a6;}.custard-applecls-4{fill:#fff;}.custard-applecls-5{fill:none;}</style></defs><g id="Capa_2" data-name="Capa 2"><g id="bocetos"><path class="custard-applecls-1" d="M182.62,103.09c1.81-6.09.23-11.74-3-17.2-4.51-7.62-17.24-20.2-8.57-28.51,11.53-11,23,9.21,23.83,18.12.84,9.46-2.09,19.14-2.2,28.49,0,3.58,3.45,5.72,5.19,2.11,7.85-16.3,7.8-57.37-19.83-57.53-10.24-.06-17.6,7.48-17.3,16.75.46,14,16.85,22.64,16.38,37-.12,3.61,4.47,4.21,5.5.77Z"/><path class="custard-applecls-2" d="M288.08,278.38c-15.07,31-36.7,61.06-66.92,78.44-14.8,8.52-32.47,15-49.67,12.46-19.94-2.92-37.67-15-52-28.73C97.05,319.1,75.49,295.63,57,270.6,39.55,247,28.54,220.93,27.61,191.18c-1-30.81,10.72-57.43,30.18-80.76,9.73-11.67,21.9-27,37.42-30.3,15.13-3.17,29,3.13,43,8,16,5.55,31.67,6.08,48.34,3.4C208.74,87.93,230.3,80.41,253,79.77c20.94-.6,40.54,7,54.43,23.1,7.21,8.34,10.29,18.68,13.24,29.06a79.5,79.5,0,0,1,2.76,15.74c0,4.55-.25,9.13-.2,14a4.12,4.12,0,0,0,.21,1.23c-.78,11.59-3.22,23-6.15,34.24C310,225,300.67,252.46,288.08,278.38Z"/><path class="custard-applecls-1" d="M318.89,170.35c-3.24-2.83-7.27-4.21-10.24-7.5a46.22,46.22,0,0,1-4.44-6.13c-1.35-2.11-3.23-4.37-4-6.78.24-.15.49-.29.73-.45,12.37-8.29,13.57-29.42,7.84-41.69-1.29-2.76-5.37-.75-4.74,2,2.71,11.78,5.53,28.15-7.54,34.94-12.12,6.3-24-2.71-33.12-10.58,6.46-3.85,9.55-11.54,9.29-19.56-.33-10.06-7.29-27.31-16.85-31.58-2.38-1.06-5.35,1.89-3,3.92,6.39,5.6,12.24,14.56,14.45,22.88,4.22,15.91-9.64,24.1-23.58,18.3-16.73-7-25.07-22.07-31.42-38.05-1.76-4.41-4.47,1.84-5,3.58-2.13,6.66.8,12.81,1.14,19.47a62.91,62.91,0,0,1-1.43,18.15c-2.73,11.24-11.51,24.74-25.12,22-9.73-2-14.32-13.14-15.94-21.83-2.21-11.92.13-23.45,3.53-34.87a4.77,4.77,0,0,0,.28-2.47c-.9-3.84-5.19.27-6.49,1.6-3,3-4,6.62-6,10.32a140.45,140.45,0,0,1-9.3,15.25c-6.65,9.43-14.83,18.34-25.14,23.81-9.92,5.27-18.49-.5-18.35-11.42a49.53,49.53,0,0,1,3.3-16.06c4.37-11.4,12.52-20.56,20.8-29.21,1.83-1.91-.62-5.49-2.94-3.82q-1.11.81-2.16,1.65c-13.85,5.73-24.51,16-40.7,8.91-2.44-1.07-4.6,2.45-2.13,3.63,9.67,4.63,21.79,3.93,32-.55a81.38,81.38,0,0,0-10,22.44c-2.62,9-5.42,23.31,4,29-6.26,5.61-12.07,11.92-20.46,14.27-11.84,3.3-21.89-3.81-25.35-15-5.37-17.43,4.63-36.34,15.36-49.47a1.9,1.9,0,0,0-2.68-2.68c-15.49,14.47-27.21,43.42-13.33,62.67a27.16,27.16,0,0,0,7.85,7.46c-5.48,5-9.56,12.09-15,17.23a123,123,0,0,1-22.06,16.21c-2.16,1.26-.26,4.35,1.94,3.31a91.47,91.47,0,0,0,23.68-16c2.45-2.29,5.31-5,7.94-7.86-5,20.39-6.2,46.77,15.31,54.21.47.16.94.28,1.41.42l0,.2c-2.74,5.57-4.41,11.48-8,16.7A63.34,63.34,0,0,1,57,267.37c-2.35,1.65-.25,5.44,2.29,3.92,9.11-5.47,19-15.24,23.43-26.13C84.78,255,88.37,264,93.15,273.35c5.36,10.56,12.89,18.46,25.5,18.63a30.44,30.44,0,0,0,3.33-.16c0,.78,0,1.56.06,2.33-1.69,4.57-2.22,9.51-4.36,14a40.16,40.16,0,0,1-11.49,14.65c-2.1,1.58-.26,5.06,2.12,3.63,6.42-3.85,13.21-12.06,16.57-20.59,2.85,6.88,7.41,13.23,12,18.91,7.63,9.4,17.5,18,30.06,19.12a26.39,26.39,0,0,0,8.36-.57A35.84,35.84,0,0,1,166,359.36c-1.59,1.5.72,3.65,2.34,2.34a37.69,37.69,0,0,0,10.39-12.53c2,7.41,5.6,14.61,13,15.67,2.65.37,4.46-2.94,1.91-4.53-6.06-3.78-10.34-12.16-11.23-19.6,15.62-8.07,26.59-29.4,30.28-45.45a37.28,37.28,0,0,0,5.07.08C218.64,307.2,229,321.8,239,326.7c10.5,5.11,23.86-.72,27.62-11.56.7-2-2-3.21-3.36-2-3,2.67-5.63,6.1-9.25,7.93-7.91,4-13.39,0-18.64-6a57.76,57.76,0,0,1-11.79-20.54c.92-.2,1.83-.43,2.73-.7,13.22-3.94,23.59-14.56,28.9-27.08A85,85,0,0,0,261,245.21c.67-4.92,1.7-10.85,1.58-16.4.84.18,1.68.33,2.52.44a38.21,38.21,0,0,0,10.55,20.88c4.77,4.74,15.66,13.41,22.07,7.38a2,2,0,0,0-.41-3.12c-3.21-1.51-6.67-1.87-9.86-3.58a33.81,33.81,0,0,1-8.4-6.6,38.3,38.3,0,0,1-8.77-14.74,24.69,24.69,0,0,0,5.7-.94c12.92-3.79,18.6-17.58,20.32-29.75,2-14,2.8-32.45-2.78-46.08a19,19,0,0,0,2.74-.82c2,9,11.34,24.25,21.67,22.06A2.16,2.16,0,0,0,318.89,170.35Zm-104.48-63c7.38,13.45,19.15,26.43,33.23,29,.53,14.51,2.54,32.39-13.49,39.52a20.64,20.64,0,0,1-9.61,1.74,3,3,0,0,0-1.49-.13c-11.06-1.35-21.66-10.6-28-19.49C211.77,151.82,216.26,126.57,214.41,107.39Zm-30.85,51.85a27.26,27.26,0,0,0,6.72-.08c6.19,10.44,17.61,21.58,30.07,24.11-3.14,21.7-6.45,52.35-31.12,59.3-11.84,3.35-25.79-1.58-34.18-10.22-9.42-9.71-12.13-23.38-11.64-36.46,17.2-3.8,34-20.63,37-36.75a1.43,1.43,0,0,0,0-.46A29.05,29.05,0,0,0,183.56,159.24Zm-42-22.8a102.23,102.23,0,0,0,19.39-25.85c-2.34,18.34.3,41.14,16.73,47.24,0,0-.07.06-.1.11-8.71,13.33-16.9,25.79-32.78,31.27-24.75,8.54-32.11-19-25.84-37.73,0,0,0-.07,0-.1C127.63,149.47,135.73,142.08,141.54,136.44ZM72.59,169c13.65,4.35,29.68-5.61,39.12-17.42a16.17,16.17,0,0,0,2.93.29c-6.91,14.22-3.48,35.28,10.81,42.4-3.87,7.64-7.29,14.91-13.32,21.33-7.11,7.59-18.76,16.35-29.67,13.24C58.07,221.83,67.07,187.39,72.59,169ZM86,235.23c19.85,1.24,39.5-22.22,45.11-39.09a24.21,24.21,0,0,0,3.4.48,29.13,29.13,0,0,0,3.62,0c-1.57,16.94,5.4,34.39,18,44.36-5.64,17.53-14.1,42.86-36,44.6C96.36,287.48,88.2,253.68,86,235.23Zm85,102.45c-22.28,1.65-40.63-27.08-43.06-47,18.44-5.56,30.25-27.87,33.63-46.06a37.29,37.29,0,0,0,8.43,3.43c1.68,13.79,6.43,26.86,17.26,36.25a46,46,0,0,0,19,9.93C201.4,311.59,190.35,336.25,171,337.68Zm83.68-102.15a118.46,118.46,0,0,1-2.76,20.28c-2.93,12.45-9.94,24-21.62,30-13.25,6.82-29.1,3.06-39.8-6.71-8.85-8.08-12.43-18.71-14.49-30a40.3,40.3,0,0,0,10.58-.32c13.53-2.14,23.57-11.63,29.75-23.44a94.45,94.45,0,0,0,9.9-29.7c5.05,12.4,16.22,24.67,28.61,30.44C254.61,229.23,254.8,232.4,254.63,235.53Zm35.56-47.6c-.42,11.85-2,29.32-15.17,34.13-11.9,4.37-25.19-5.07-33-13.48-6.87-7.41-9.65-16.09-13.46-25a23.74,23.74,0,0,0,5.52-1.42c17.11-6.67,20.71-28.78,19.38-45.4a26.47,26.47,0,0,0,3.63-.33c.53-.09,1-.21,1.52-.34,7.49,7.32,17.81,16,28.57,17C287.56,164.71,290.62,176.07,290.19,187.93Z"/><path class="custard-applecls-3" d="M363.74,214.72s-15.55-43-40.11-49.51-65.89,11.45-88,43.79-44.6,90-45,116.63-.82,82.26,35.6,110.5,109.68,36.42,178.43-3.28,90.86-91.26,90.86-133.41-22.51-67.12-48.7-74.89S373.56,232.73,363.74,214.72Z"/><path class="custard-applecls-2" d="M495.52,299.44c0-36.85-17.21-60.56-39-71.14a49.24,49.24,0,0,1,5.06,5.66c8.59,11.46,21.28,35.6,16.37,64.25s-20.87,57.71-66.3,99.86a150.33,150.33,0,0,1-176.39,20.05C198.44,397.35,191,353,190.84,321.69c-.11,1.37-.19,2.7-.21,3.94-.41,26.6-.82,82.26,35.6,110.5s109.68,36.42,178.43-3.28S495.52,341.59,495.52,299.44Z"/><path class="custard-applecls-4" d="M367.07,217.39c-7.77,10.66-89.9,118.33-64.17,126.92,7.81,2.61,15.1-8.81,18.84-13.59a248.09,248.09,0,0,0,21.06-32.48c13.32-23.89,25.63-48.06,40.6-71,1.65-2.54-2.33-5.72-4.26-3.29-13,16.43-21.92,35.38-31.61,53.8-5,9.56-10.13,19.09-15.72,28.33q-4,6.57-8.31,12.89c-3.3,4.79-6.93,11.91-11.7,15.28-2.81,2-5.71,2.14-6.67-2-1.34-5.78,5-18.66,7.6-24,4.74-9.76,10.7-18.91,16.84-27.85,13.86-20.18,27.88-40.24,41.58-60.53,1.72-2.55-2.32-4.8-4.08-2.39Z"/><path class="custard-applecls-1" d="M476.56,251.54c-6.5-13.91-17.91-25.1-34.14-29.63-11.6-3.24-23.82-3.84-35.78-2.82-10,.86-20.68,1.62-30.24-1.91-9.26-3.41-14.07-12-17.64-20.62a62.85,62.85,0,0,0-18.7-24.95c-11.16-8.93-25.16-12.25-39.25-10.36-27.06,3.62-48.55,23.44-64.76,44.09a226,226,0,0,0-39.11,76.45c-6.3,21.76-9.54,44.71-7.45,67.4,1.84,20.08,7.76,39.5,20.78,54.61,32.29,43.86,101.16,46.93,149.87,28.35,57.08-21.76,109-75,121.36-135.94A72.86,72.86,0,0,0,476.56,251.54Zm-3.21,51c-7,27.44-22.75,52.86-41.69,73.61-38.48,42.17-98.84,69.29-156.1,56.68-19.89-4.38-39.72-13.66-54.62-27.71C203.2,388.39,199,366,198.4,342.41a210.5,210.5,0,0,1,15-83.52c11.94-29.63,34.42-62.25,61.09-80.59,14.34-9.85,35.22-14.15,52-6.55,8.12,3.69,15.23,15.47,20.14,22.76,4.23,6.27,6.73,13.92,11.37,19.81,11.31,14.36,32.39,13.42,48.63,12.9,17.47-.57,37,3.16,51,14.56C475,255.94,478.6,281.86,473.35,302.56Z"/><path class="custard-applecls-1" d="M277.79,353.15l-.62-.1c-5.08-.6-11.2.71-16.22,1.52a68.62,68.62,0,0,0-16.44,4.61c-7.5,3.26-18.9,10.75-16.71,20.71,2,9.18,13.49,7.62,20,4.9a72.67,72.67,0,0,0,19.16-12.29,105.45,105.45,0,0,0,8.24-8C277.47,362,284.28,354.41,277.79,353.15Z"/><path class="custard-applecls-1" d="M323.75,358.53c-4.88-3.71-6.89,14.43-7.1,16.31a65.13,65.13,0,0,0,4.67,32.53c3.27,7.73,10.07,14.54,18.79,9.31,9.06-5.43,8.32-18.53,6.05-27.32C342.78,376.22,334.28,366.52,323.75,358.53Z"/><path class="custard-applecls-1" d="M365.58,328.29a3.11,3.11,0,0,0-3.8,2.72,2.38,2.38,0,0,0-.06,1.41c3.4,14.05,8.14,28.25,17.48,39.57,5.08,6.17,15.29,12.58,22,4.61s1.2-23.06-3.74-30.42C390.15,335.28,377.85,331.07,365.58,328.29Z"/><path class="custard-applecls-1" d="M419.8,295A49,49,0,0,0,402,287.25c-5.74-1.21-20.5-3.07-14.26,7.48a120.85,120.85,0,0,0,10.86,15.54c5.66,6.83,12,12.26,20.37,15.42,6.24,2.36,13.82,1.94,15.25-5.84C436,310.1,427.08,300.06,419.8,295Z"/><path class="custard-applecls-1" d="M440,251.82c-12-4.6-24.82-2.48-36.84.71-1.56.41-3.14,2.43-2.58,4.11s3,3,4.41,4.11c2.07,1.66,4.22,3.23,6.41,4.72,7,4.71,14.54,9.27,23.11,9.95,6.5.51,18.94-.44,20-9C455.31,259.09,445.54,254,440,251.82Z"/><path class="custard-applecls-1" d="M289,309.84a9.17,9.17,0,0,0-1.8-1.15c-11.49-6.09-24.43-9.88-37.51-9.37-8.43.33-20.26,3.82-22,13.58-2,11.25,10.83,15.18,19.54,15.58,7.93.37,15.79-1.35,23.22-4,3.74-1.33,7.4-2.9,11-4.6,2.06-1,4.52-1.78,6.34-3.32,1.66-1.41,3.33-4.25,1.65-6.24A3.7,3.7,0,0,0,289,309.84Z"/><path class="custard-applecls-1" d="M303.15,265.52c-3.07-5.14-9.06-9.59-13.92-12.9a62.93,62.93,0,0,0-17.46-8.29c-8.54-2.52-21.28-4.52-26.26,5.17-4.35,8.48,2.21,17,9.79,20.4,13.43,6,31.32,3.68,45.37,2.2,3.12-.32,3.9-4.18,2.52-6.51Z"/><path class="custard-applecls-1" d="M323,240c6.1,2,4.24-9.35,3.93-12.1a61.06,61.06,0,0,0-10.21-26.8c-4.84-7.16-14.81-13.65-23.34-8.23s-6.36,16.25-1.45,23.25C299.35,226.71,310.6,235.89,323,240Z"/><path class="custard-applecls-4" d="M303,205.91c.49.59,1,1.18,1.46,1.76a5.8,5.8,0,0,0,3.9,1.86,3.6,3.6,0,0,0,3.47-2.65,5.8,5.8,0,0,0-.77-4.3c-.41-.65-.85-1.27-1.27-1.91a4.34,4.34,0,0,0-6.35-1.21,4.12,4.12,0,0,0-1.63,2.82,4.43,4.43,0,0,0,1.19,3.63Z"/><path class="custard-applecls-4" d="M260.44,259.1a6.26,6.26,0,0,0,1.6-.4c.5-.21,1-.44,1.49-.67a4,4,0,0,0,1.85-2.42,4.17,4.17,0,0,0-.2-2.63,4.08,4.08,0,0,0-4.77-2.34c-.39.08-.79.15-1.17.26a10.1,10.1,0,0,0-1.88.89,4,4,0,0,0-1.63,5,3.76,3.76,0,0,0,1.63,1.91l1,.41a4,4,0,0,0,2.12,0Z"/><path class="custard-applecls-4" d="M243.17,314.82a12.42,12.42,0,0,0,2.1-1.53,8.7,8.7,0,0,0,1-1.29,4.55,4.55,0,0,0,.5-1.07,4.67,4.67,0,0,0,0-2.23v1.88a4,4,0,0,0,.07-2.19,3,3,0,0,0-2.21-2.22,4.21,4.21,0,0,0-2.2.07h1.88a5.88,5.88,0,0,0-1.72-.1,4.1,4.1,0,0,0-1.51.51,8.16,8.16,0,0,0-1.37,1.1,13.91,13.91,0,0,0-1.54,2.09,3.78,3.78,0,0,0,.57,4.41,4.44,4.44,0,0,0,1.61.94,3.66,3.66,0,0,0,2.8-.37Z"/><path class="custard-applecls-4" d="M237,376.35a5,5,0,0,0,2.57.06,7.36,7.36,0,0,0,1.33-.56,4.14,4.14,0,0,0,1.48-5.65,4.2,4.2,0,0,0-1.48-1.48,6.71,6.71,0,0,0-1.33-.56,6.2,6.2,0,0,0-2.33,0l-.24.05-1,.43a3.14,3.14,0,0,0-1.18,1.08,2.08,2.08,0,0,0-.54.93,3.13,3.13,0,0,0-.37,1.63l.15,1.12.43,1a3.2,3.2,0,0,0,1.09,1.19,3.13,3.13,0,0,0,1.43.75Z"/><path class="custard-applecls-4" d="M340.74,400.11a8.32,8.32,0,0,0-.73-3.94,3.35,3.35,0,0,0-5.75,0,8.32,8.32,0,0,0-.73,3.94,3.61,3.61,0,1,0,7.21,0Z"/><path class="custard-applecls-4" d="M377.21,344.28c1.3.3,2.74.83,4.06.43a2.77,2.77,0,0,0,1.82-1.63,2.67,2.67,0,0,0-.14-2.5,4,4,0,0,0-1.27-1.28c-.21-.12-.45-.2-.67-.3l-1.33-.59a3.66,3.66,0,0,0-2.47-.32,3.1,3.1,0,0,0-2.08,1.86,3.21,3.21,0,0,0,2.08,4.33Z"/><path class="custard-applecls-4" d="M408.26,304.38l1,.37a3.24,3.24,0,0,0,2.39.06,2.28,2.28,0,0,0,1-.54,2.21,2.21,0,0,0,.78-.85,3.36,3.36,0,0,0-.13-3.36,4.39,4.39,0,0,0-1.46-1.35l-.94-.59a3.5,3.5,0,0,0-2.63-.35,3.3,3.3,0,0,0-2.22,2,3.2,3.2,0,0,0,0,2.64,2.53,2.53,0,0,0,.7,1.1,3.48,3.48,0,0,0,1.52.88Z"/><path class="custard-applecls-4" d="M425.54,262c3.19.16,8,1.33,10-1.91a3.05,3.05,0,0,0,0-3.09c-2-3.23-6.82-2.08-10-1.92a3.46,3.46,0,0,0,0,6.92Z"/><rect class="custard-applecls-5" width="512" height="512"/></g></g></svg>