<svg xmlns="http://www.w3.org/2000/svg" viewBox="0 0 512 512"><defs><style>.dragonfruitcls-1{fill:#f36477;}.dragonfruitcls-2{fill:#c0c728;}.dragonfruitcls-3{fill:#4a2d2d;}.dragonfruitcls-4{fill:#fff;}.dragonfruitcls-5{fill:none;}</style></defs><g id="Capa_2" data-name="Capa 2"><g id="bocetos"><path class="dragonfruitcls-1" d="M326.25,215.92a3.68,3.68,0,0,0-3.63-2.44,2.78,2.78,0,0,0-2.93,2.44,54.51,54.51,0,0,1-5.18,16.41c-.9-8-3.27-16.15-5.21-23.27a214.76,214.76,0,0,0-18.24-45.63,242.13,242.13,0,0,0-19.72-30c-11.13-14.81-23.24-28.92-33.88-44.07A3.4,3.4,0,0,0,234.87,88a2.38,2.38,0,0,0-2.78,2,94.35,94.35,0,0,1-8.94,27.9c-8-10.18-17.32-19.17-24.69-30-.3-.42-.58-.83-.86-1.25-8.59-13-14.67-27-19.78-41.67a2.57,2.57,0,0,0-5,.69,146.51,146.51,0,0,1-13.63,46.92A162.34,162.34,0,0,1,120,144.22a81.17,81.17,0,0,1-12.37-34.79,4.13,4.13,0,0,0-1-2.14c-1.25-1.45-3.43-2.14-4.89-.3-12.53,15.74-22.85,32.53-29.64,51.12a144.81,144.81,0,0,0-5.23,17.71C62.3,196,60,219.87,64.72,240.92a92,92,0,0,1-11.5-21.86,4,4,0,0,0-5.37-2.15,2.94,2.94,0,0,0-1.49,2.15c-3.82,19.58-8,40.47-9.74,61.34-2.65,31.58.32,63.11,18.61,90,16.17,23.81,40.82,39.43,68.16,47.15,44.73,12.67,97.22,13.84,137.9-11.45,18.59-11.54,33.89-28.54,44.7-48,12.92-18.26,18.74-42.49,23.33-63.81a157.56,157.56,0,0,0,3.38-25.51A160.29,160.29,0,0,0,326.25,215.92Z"/><path class="dragonfruitcls-2" d="M198.46,88c-2.35,2.6-3.83,6-5.56,9.11-2.14,3.83-5.29,7.67-9.64,8.2-4.86.6-9.06-3.1-12.61-6.47-3.24-3.08-7.18-6.31-11.49-6.15a146.51,146.51,0,0,0,13.63-46.92,2.57,2.57,0,0,1,5-.69C182.93,59.7,189,73.69,197.6,86.7,197.88,87.12,198.16,87.53,198.46,88Z"/><path class="dragonfruitcls-2" d="M113.53,139a16.7,16.7,0,0,0-7.24,9.17c-1.12,3.49-1.13,7.44-3.4,10.29-2.51,3.18-7.28,3.94-11.09,2.56-2.41-.86-4.51-2.44-7-3.11-3.79-1-7.78.23-11.7.32a3.1,3.1,0,0,1-1-.09c6.79-18.59,17.11-35.38,29.64-51.12,1.46-1.84,3.64-1.15,4.89.3C105,118.14,108,129.47,113.53,139Z"/><path class="dragonfruitcls-2" d="M271.34,133.42c-1.06.2-2.19.29-3.27.39a29.84,29.84,0,0,0-10.9,3.45c-2.94,1.62-6,3.83-9.28,3.36-4.36-.64-6.72-5.45-10.44-7.81-5.2-3.31-12-1.31-17.8.79.46-3.82,2.51-7.21,4.31-10.6a101.12,101.12,0,0,0,10.2-29.28c.3-1.63.32-3.79.71-5.71a3.4,3.4,0,0,1,2.59,1.34C248.1,104.5,260.21,118.61,271.34,133.42Z"/><path class="dragonfruitcls-2" d="M332.7,268.82a10.2,10.2,0,0,1-7.14,0c-5-2-7.58-7.63-11.9-10.94a15.09,15.09,0,0,0-9.56-3.07c8.38-9.35,13.06-21.25,16.6-33.12.58-2,1-5.51,1.92-8.18a3.68,3.68,0,0,1,3.63,2.44A160.29,160.29,0,0,1,332.7,268.82Z"/><path class="dragonfruitcls-2" d="M192.9,246.57a19.75,19.75,0,0,1,18.31,7.11c2.13,2.7,3.92,6.23,7.27,7a2.35,2.35,0,0,0,1.73-.16,3,3,0,0,0,1-1.39c1.86-4.11,4.07-8.69,8.34-10.13,1.69-.57,4-1,4.13-2.82a3.56,3.56,0,0,0-.7-2l-11.21-18.75L216.16,216c-1.41-2.37-2.36-5.25-4.68-2.72-1.65,1.8-2.36,6.42-3.46,8.76-1.39,3-3,5.82-4.62,8.63s-3.46,5.59-5.28,8.31C197.38,240.1,193.9,246.57,192.9,246.57Z"/><path class="dragonfruitcls-2" d="M71,257.43c-2.27-1.06-5,.17-6.63,2.08s-2.42,4.35-3.48,6.61-2.62,4.53-5,5.36c-3.51,1.23-7.58-1.12-11.06.21-3.73,1.43-5.27,6.45-8.24,8.71,1.72-20.87,5.92-41.76,9.74-61.34a2.94,2.94,0,0,1,1.49-2.15,168.87,168.87,0,0,0,8.07,19.31A76.72,76.72,0,0,0,71,257.43Z"/><path class="dragonfruitcls-2" d="M131.16,287.07c3.09,12.49,9.23,24.85,19.89,32.07-3.2-2.27-7.71-1.92-11.17-.06s-6,5-8.36,8.13c-1,1.38-2.12,2.89-3.78,3.34-3,.8-5.5-2.16-8.28-3.51-3.46-1.69-7.54-.85-11.36-.42a16.35,16.35,0,0,1-6.68-.33c-3.22-1-3.44-1.79-1.35-4.09,3.48-3.81,7.85-7,11.47-10.69A164.16,164.16,0,0,0,131.16,287.07Z"/><path class="dragonfruitcls-3" d="M92.63,331.93c16.74-12.77,30-29.09,41.13-46.87l-5.67-.74c3.06,16.95,14.77,37.6,33,41.61a4,4,0,0,0,3.09-7.34c-6.69-4.39-13.45-7.47-19-13.56a45.85,45.85,0,0,1-11.14-22.36c-.53-2.73-4.37-2.87-5.67-.74-10.63,17.39-24,32.23-38.55,46.41-1.8,1.76.66,5.2,2.77,3.59Z"/><path class="dragonfruitcls-3" d="M184.45,258.82c13.19-13.95,25.62-28.6,31.48-47.21l-5.9.77c9,15.8,16.5,44,37.86,47.16,3.89.57,6.88-4.59,2.88-6.83-8.88-5-16.06-10-21.62-18.79-5-8-8.81-16.66-13.54-24.8a3.28,3.28,0,0,0-5.91.77c-5.37,17.58-17.28,31.45-28.88,45.3-2.09,2.49,1.33,6.07,3.63,3.63Z"/><path class="dragonfruitcls-3" d="M173.47,182.3c-34.49-8.54-61.79-37.1-65.86-72.87-.49-4.29-7.24-4.43-6.85,0,3.33,38.11,32.75,72.66,71,79.12,4,.68,5.84-5.23,1.72-6.25Z"/><path class="dragonfruitcls-3" d="M104,273.14c-23.63-11.22-41.43-29.54-50.83-54.06-1.56-4.06-8.06-2.45-6.65,1.84,8.62,26.24,29.3,48,55.38,57.2,2.88,1,4.9-3.65,2.1-5Z"/><path class="dragonfruitcls-3" d="M288.35,269.53c17.24-13.6,34.18-29.1,38-51.78.75-4.46-6.15-6.26-6.75-1.86-3,21.79-18.79,36.62-34.91,50-2.59,2.15,1.1,5.7,3.67,3.67Z"/><path class="dragonfruitcls-3" d="M184.18,164.3C212.94,151,233.41,123,237.74,91.61c.51-3.66-5.05-5.31-5.65-1.56a94.89,94.89,0,0,1-50.53,69.77c-3,1.57-.36,5.86,2.62,4.48Z"/><path class="dragonfruitcls-1" d="M470.68,315.51c-14.12,26.1-20.8,58.14-18.75,88.08v0A137.43,137.43,0,0,0,456.49,431a209.43,209.43,0,0,0-22.25-4.28c-19-2.6-38.42-2.32-56.92,2.6-17.23,4.57-33.61,13.5-46.05,26.08a79.82,79.82,0,0,0-15.34,21.35A156.33,156.33,0,0,0,302,460.28c-10.19-10.5-22-19.39-35.39-25.18a83.36,83.36,0,0,0-33.54-7,66.72,66.72,0,0,0-29.71,7,120.77,120.77,0,0,0,4-23.35c1.75-23.87-3-48.65-11.19-72.49-3.18-9.22-6.89-18.31-11-27.16l8.67-.39,275.75-12.24,11.69-.52A128.16,128.16,0,0,0,470.68,315.51Z"/><path class="dragonfruitcls-4" d="M453.26,299.56S202.62,309.86,202,313.1s13.55,58.62,43.59,82.47,66.27,31.52,96.31,26.51,61.56-21.21,82.18-43.89,29.45-63.61,30-69.21A22,22,0,0,0,453.26,299.56Z"/><path class="dragonfruitcls-3" d="M458.79,299.17a2.65,2.65,0,0,0-2.58-1.86c-43-1.31-86.67,1.46-129.51,5-41.61,3.44-83.42,3.31-125,7.52a2.88,2.88,0,0,0-1.86,4.74c9.32,48.19,40.3,96.81,90.56,109,50.85,12.35,104.52-3.42,137.05-44.84a156.32,156.32,0,0,0,31.92-77.5A2.57,2.57,0,0,0,458.79,299.17Zm-42.87,80.94c-21.3,23.67-49.5,37.42-81.34,39s-62.42-4.06-86.76-26.09c-22.88-20.71-35.47-48.83-43.8-78,40.86-3.1,81.83-3.32,122.68-6.57,41.8-3.31,83.76-3,125.59-5.29C445.91,331.28,435.48,358.38,415.92,380.11Z"/><path class="dragonfruitcls-3" d="M267,334.23l-.36-.11a6.19,6.19,0,0,0-7.62,7.62l.11.36a6.51,6.51,0,0,0,1.65,2.82,6.39,6.39,0,0,0,10.68-6.22,6.28,6.28,0,0,0-1.64-2.82,6.41,6.41,0,0,0-2.82-1.65Z"/><path class="dragonfruitcls-3" d="M307.67,344.93a4,4,0,0,0,2.05-.45,4.1,4.1,0,0,0,1.71-1.1,4,4,0,0,0,1.1-1.72,3.91,3.91,0,0,0,.46-2.05l-.19-1.41a5.28,5.28,0,0,0-1.37-2.35l-1.07-.83a5.2,5.2,0,0,0-2.69-.73,5.47,5.47,0,0,0-5.32,5.32l.19,1.42a5.34,5.34,0,0,0,1.37,2.35l1.07.83a5.29,5.29,0,0,0,2.69.72Z"/><path class="dragonfruitcls-3" d="M302.81,377.76a4.76,4.76,0,0,0,.52-.1l1.25-.53a4,4,0,0,0,1.47-1.35,2.63,2.63,0,0,0,.68-1.16,3.9,3.9,0,0,0,.45-2l-.19-1.4-.53-1.25a4,4,0,0,0-1.35-1.47,3.89,3.89,0,0,0-1.78-.94c-.17-.05-.35-.07-.52-.11a5.51,5.51,0,0,0-2.85,0,5.43,5.43,0,0,0-2.36,1.38l-.84,1.09a5.31,5.31,0,0,0-.73,2.7,4,4,0,0,0,.46,2.06,4.09,4.09,0,0,0,1.11,1.73,5.37,5.37,0,0,0,5.21,1.37Z"/><path class="dragonfruitcls-3" d="M350.08,378.22a5.29,5.29,0,0,0,3.42-1.41,5.43,5.43,0,0,0,1.42-3.43l-.17-1.28A4.89,4.89,0,0,0,353.5,370l-1-.75a4.73,4.73,0,0,0-2.44-.66,3.6,3.6,0,0,0-1.86.41,3.71,3.71,0,0,0-1.56,1,3.61,3.61,0,0,0-1,1.56,3.74,3.74,0,0,0-.42,1.86l.18,1.29a4.87,4.87,0,0,0,1.24,2.14l1,.75a4.76,4.76,0,0,0,2.44.66Z"/><path class="dragonfruitcls-3" d="M345.37,352.14a5.62,5.62,0,0,0,5.46-5.46,5.51,5.51,0,0,0-1.6-3.86,5.68,5.68,0,0,0-3.86-1.6,5.62,5.62,0,0,0-5.46,5.46,5.51,5.51,0,0,0,1.6,3.86,5.68,5.68,0,0,0,3.86,1.6Z"/><path class="dragonfruitcls-3" d="M368.15,326c5.73,0,5.74-8.92,0-8.92s-5.75,8.92,0,8.92Z"/><path class="dragonfruitcls-3" d="M383.07,360.4c6.54,0,6.55-10.16,0-10.16s-6.55,10.16,0,10.16Z"/><path class="dragonfruitcls-3" d="M382.28,389.32a5.4,5.4,0,0,0,3.5-1.45,3.64,3.64,0,0,0,1-1.59,3.74,3.74,0,0,0,.43-1.9l-.18-1.31a5,5,0,0,0-1.27-2.18l-1-.78a5,5,0,0,0-2.5-.67,4.77,4.77,0,0,0-4.51,3,3.74,3.74,0,0,0-.43,1.9l.18,1.31a4.86,4.86,0,0,0,1.27,2.18l1,.78a5,5,0,0,0,2.49.67Z"/><path class="dragonfruitcls-3" d="M329.51,392.76l-.71.27-.78.32a2.54,2.54,0,0,0-.91.84,1.64,1.64,0,0,0-.42.72,2.44,2.44,0,0,0-.28,1.25l.12.87.32.77a3.72,3.72,0,0,0,1.95,1.5l.71.26a3.55,3.55,0,0,0,3.43-.9l.55-.72a3.47,3.47,0,0,0,.48-1.78,2.66,2.66,0,0,0-.3-1.36,2.63,2.63,0,0,0-.73-1.13,3.52,3.52,0,0,0-3.43-.91Z"/><path class="dragonfruitcls-3" d="M266.5,377.1a3.72,3.72,0,0,0,1.43-.56,4.66,4.66,0,0,0,1.64-1.63,4.61,4.61,0,0,0,0-4.62,4.77,4.77,0,0,0-1.64-1.64,3.7,3.7,0,0,0-1.43-.55,4.74,4.74,0,0,0-2.48,0,4.62,4.62,0,0,0-2.06,1.2l-.73.94a4.67,4.67,0,0,0-.64,2.36,3.6,3.6,0,0,0,.4,1.8,3.45,3.45,0,0,0,1,1.5,4.62,4.62,0,0,0,2.06,1.2,4.74,4.74,0,0,0,2.48,0Z"/><path class="dragonfruitcls-3" d="M238.55,335.74c6.14,0,6.15-9.54,0-9.54s-6.15,9.54,0,9.54Z"/><path class="dragonfruitcls-3" d="M285.68,321a1.77,1.77,0,0,0,0-3.54,1.77,1.77,0,0,0,0,3.54Z"/><path class="dragonfruitcls-3" d="M401.43,319.27l-.45.13-1.12.47a3.6,3.6,0,0,0-1.31,1.2,2.4,2.4,0,0,0-.6,1,3.6,3.6,0,0,0-.4,1.8l.17,1.24.47,1.12a3.52,3.52,0,0,0,1.2,1.31,3.6,3.6,0,0,0,1.59.84l.45.13a4.79,4.79,0,0,0,4.67-1.24l.75-1a4.72,4.72,0,0,0,.66-2.43,3.6,3.6,0,0,0-.42-1.85,3.53,3.53,0,0,0-1-1.54,4.81,4.81,0,0,0-4.67-1.24Z"/><path class="dragonfruitcls-3" d="M415.27,345.89c3,0,3-4.71,0-4.71s-3,4.71,0,4.71Z"/><path class="dragonfruitcls-3" d="M432.55,325c6.45,0,6.46-10,0-10s-6.46,10,0,10Z"/><path class="dragonfruitcls-2" d="M233.05,428.15a66.72,66.72,0,0,0-29.71,7,120.77,120.77,0,0,0,4-23.35,4.34,4.34,0,0,0,1.48.8,8.27,8.27,0,0,0,4.26-.3l7.37-1.89a4.33,4.33,0,0,1,2.28-.15c1.56.5,2,2.57,1.61,4.14s-1.22,3.09-1.19,4.72c.06,2.51,2.18,4.47,4.35,5.71C229.35,425.89,231.44,426.72,233.05,428.15Z"/><path class="dragonfruitcls-2" d="M331.27,455.42a79.82,79.82,0,0,0-15.34,21.35A156.33,156.33,0,0,0,302,460.28q.58-.55,1.17-1c1.89-1.54,3.83-2.85,6.4-2.44,2.22.37,4,2.63,6.38,2.24a6.79,6.79,0,0,0,2.84-1.55c3.27-2.48,7.67-4.26,11.45-2.66A6.29,6.29,0,0,1,331.27,455.42Z"/><path class="dragonfruitcls-2" d="M456.49,431a209.43,209.43,0,0,0-22.25-4.28c0-.9,0-1.79,0-2.69a5.33,5.33,0,0,1,.64-3.2c1.71-2.36,5.44-.49,8.34-.93s4.65-3.11,5.46-5.78.94-5.57,1.94-8.18a9.07,9.07,0,0,1,1.35-2.35A137.43,137.43,0,0,0,456.49,431Z"/><path class="dragonfruitcls-2" d="M481.25,299a128.16,128.16,0,0,0-10.57,16.54,32,32,0,0,1-4.88-2.95,1.59,1.59,0,0,1-.32-2.67,29,29,0,0,0,3.7-6.09,8.15,8.15,0,0,0,.38-4.31Z"/><path class="dragonfruitcls-2" d="M200.12,332.67a7.84,7.84,0,0,1-1.27,4.72,7.27,7.27,0,0,1-2.74,1.89c-3.18-9.22-6.89-18.31-11-27.16l8.67-.39a3.83,3.83,0,0,1,0,1.22c-.27,1.72-2.23,2.85-2.26,4.63-.05,2.48,3.41,3.43,5.49,5C200.12,324.91,200.3,329.05,200.12,332.67Z"/><path class="dragonfruitcls-3" d="M209.07,309.78a133.58,133.58,0,0,0-21.71,1.08,2.49,2.49,0,0,0-2.12,3.69c17.16,36.71,24.56,76.91,16.14,116.88-.86,4.09,5.08,5.79,6.3,1.73,12.35-40.84-.18-84-18.21-121.09l-2.11,3.69a137.63,137.63,0,0,0,22.19-2.46c2-.44,1.46-3.42-.48-3.52Z"/><path class="dragonfruitcls-4" d="M73.57,189.71c2.28.38,4.6,1,6.89.34a5,5,0,0,0,3.64-4.77,5.1,5.1,0,0,0-3.64-4.78c-2.29-.61-4.61,0-6.89.35a4.6,4.6,0,0,0-3.37,4.43c.08,1.88,1.35,4.1,3.37,4.43Z"/><path class="dragonfruitcls-4" d="M76,206.68c6.32,0,6.33-9.82,0-9.82s-6.32,9.82,0,9.82Z"/><path class="dragonfruitcls-4" d="M152.55,134.54a28.41,28.41,0,0,0,5.44-.68c3.9-1,3.91-6.92,0-7.91a28.4,28.4,0,0,0-5.44-.67,4.65,4.65,0,0,0-4.63,4.63c.11,2.39,2,4.77,4.63,4.63Z"/><path class="dragonfruitcls-4" d="M279.69,182.18a20.26,20.26,0,0,0,3-1.16,5.29,5.29,0,0,0,2.69-3.33,3.59,3.59,0,0,0-1.6-3.94c-2-1.45-4.33-.75-6.47,0a4.47,4.47,0,0,0-3.06,5.4c.7,2.17,3.07,3.85,5.4,3.07Z"/><path class="dragonfruitcls-4" d="M48.63,322.84a12.93,12.93,0,0,0,3.35,1.4l1.35.18a3.91,3.91,0,0,0,2-.44,4.89,4.89,0,0,0,2.44-2.09,6,6,0,0,0,.7-2.58,5.17,5.17,0,0,0-1.5-3.61,8.42,8.42,0,0,0-1.88-1.43L54,313.71a5.62,5.62,0,0,0-4.08-.53,5.28,5.28,0,0,0-3.69,6.5,5.26,5.26,0,0,0,2.43,3.16Z"/><path class="dragonfruitcls-4" d="M58.32,342.1c.4-.33.81-.64,1.2-1l-.35.27.32-.22.76-.5a3.73,3.73,0,0,0-1.88-7c-1.19,0-2.36,0-3.55-.06-3.56-.19-5.81,3.79-4.51,6.85a4.84,4.84,0,0,0,3.2,2.86,5.16,5.16,0,0,0,4.81-1.27Z"/><rect class="dragonfruitcls-5" width="512" height="512"/></g></g></svg>