<svg xmlns="http://www.w3.org/2000/svg" viewBox="0 0 512 512"><defs><style>.eggplantcls-1{fill:none;}.eggplantcls-2{fill:#754680;}.eggplantcls-3{fill:#c0c728;}.eggplantcls-4{fill:#fff;}.eggplantcls-5{fill:#4a2d2d;}</style></defs><g id="Capa_2" data-name="Capa 2"><g id="bocetos"><rect class="eggplantcls-1" width="512" height="512"/><path class="eggplantcls-2" d="M293.23,146.47s.65,48.73-59.78,71.47S109.36,249.78,86.62,316.7s-5.2,129,90.31,142.93c89,13,144.88-37,185.16-102.65s48.08-155.93,46.78-178.67S312.07,108.79,293.23,146.47Z"/><path class="eggplantcls-3" d="M373.12,97.44S338.9,84.88,300.35,115.2s-39,58.47-33.35,61.07,39.42-10.83,39.42-10.83-6.5,47.22-.43,50.68S345.83,194,345.83,194s10.4,39.42,15.16,40.71S394.34,207,394.34,207s4,53.3,10.11,52.11c5.54-1.08,34.19-42.17,25-94.55-7.58-43.1-40.28-62.81-40.28-62.81s20-23.37,18-44.18c-2.16-22.52-10-27.5-22.09-24.47C370.28,36.81,379.4,61.06,379,76,378.69,85.53,373.12,97.44,373.12,97.44Z"/><path class="eggplantcls-4" d="M159.34,268.89c-14.07,6.29-26.05,14.54-35.2,27.21-7.39,10.25-17.78,27.9-13.53,40.93,1.79,5.49,8.23,5.74,11.43,1.5,3.51-4.66,4.39-10.71,6.32-16.13a76.13,76.13,0,0,1,8.77-17.07c7.15-10.57,16.57-20.62,27.75-27,6.28-3.56.77-12.31-5.54-9.48Z"/><path class="eggplantcls-4" d="M113.62,369.35l.38.25.17.11a4.87,4.87,0,0,0,2.7.74,3.79,3.79,0,0,0,2-.44,3.92,3.92,0,0,0,1.64-1.05l.8-1a5.14,5.14,0,0,0,.7-2.57,5,5,0,0,0-.74-2.7,1.63,1.63,0,0,0-.11-.17l-.25-.38a5.32,5.32,0,0,0-4.58-2.63l-1.41.19a5.34,5.34,0,0,0-2.34,1.37,5.93,5.93,0,0,0-1.55,3.74,5.26,5.26,0,0,0,.73,2.68,5.32,5.32,0,0,0,1.9,1.9Z"/><path class="eggplantcls-5" d="M406.61,256.16c-4.48-14.94-7-31.27-10.09-46.56-.82-4.07-5.67-4.31-8.35-2.2-6.84,5.39-30.26,23.52-30.38,23.6-1.2-3.41-8.65-28.6-10.28-36-.65-2.94-3.67-1.66-6.09-.4-11.28,5.89-22.78,13.31-35.09,17.11a289.76,289.76,0,0,1,1.8-45.89c.31-2.66-2.88-4.71-5.22-4-12,3.75-24.08,7.32-36,11.5-4.31,1.51-2.62,8.08,1.91,6.91,10.16-2.62,20.2-5.66,30.25-8.67a242.39,242.39,0,0,0-1,45.56,4.32,4.32,0,0,0,5.37,4.09c13.05-2.87,25.14-9.8,37-16.1,1.46,7.13,3,14.23,5.18,21.19,1.39,4.58,2.86,11.55,6.3,15.17a5.56,5.56,0,0,0,5.46,1.45c5.58-1.89,10.69-7.19,15.28-10.7,5.27-4,10.46-8.18,15.65-12.33a315.21,315.21,0,0,0,9.26,37.83C399.65,264,408.53,262.55,406.61,256.16Z"/><path class="eggplantcls-5" d="M401,140.25c.54-.17,1.07-.34,1.59-.56a4,4,0,0,0,2-1.62l.24-.38a3.37,3.37,0,0,0,.33-2.54,3.75,3.75,0,0,0-1.51-2,4.07,4.07,0,0,0-2.5-.82c-.39,0-.78.06-1.16.1a4.41,4.41,0,0,0-2.81,1.16,3.81,3.81,0,0,0-1.09,3.33,3.75,3.75,0,0,0,1.49,2.59,3.85,3.85,0,0,0,3.46.71Z"/><path class="eggplantcls-5" d="M398.68,159.84c1.44.18-1-.19.44.08.43.08.86.15,1.28.25a23,23,0,0,0,3.51.58,5,5,0,0,0,4.95-4.38,5.12,5.12,0,0,0-3.61-5.54,18.12,18.12,0,0,0-6.57-.6,4.88,4.88,0,0,0-4.81,4.81c.13,2.86,2.12,4.48,4.81,4.8Z"/></g></g></svg>