<svg xmlns="http://www.w3.org/2000/svg" viewBox="0 0 512 512"><defs><style>.endivecls-1{fill:none;}.endivecls-2{fill:#4a2d2d;}.endivecls-3{fill:#9bb533;}.endivecls-4{fill:#fff;}</style></defs><g id="Capa_2" data-name="Capa 2"><g id="bocetos"><rect class="endivecls-1" width="512" height="512"/><path class="endivecls-2" d="M340.8,132.12c15.51,44,30.28,93.65,24.52,140.72-2.82,23.05-12,43.29-23.49,63.21-10.25,17.81-23.32,36-28.52,56.13-1,3.85,4.84,6.66,6.65,2.81,9.57-20.31,20.57-39.36,31.62-58.89s19.19-39.27,22.11-61.56c6.62-50.61-11.09-97.09-27.1-144-1.25-3.65-7.08-2.06-5.79,1.59Z"/><path class="endivecls-3" d="M189.7,123.22s-1.27-38.32,15.15-67.37,27-32.42,40-29.89,38.32,28.21,38.32,28.21-8.84,20.63-17.69,33.26S248.64,111,244.43,127.85s-5.05,27-5.05,27Z"/><path class="endivecls-2" d="M276.19,53.2c6.65,6.53,13.34,12.92,19.22,20.18,5.67,7,10,16.22,16.45,22.37a2.77,2.77,0,0,0,4.6-2.68c-2.14-8.51-9.65-16.87-15.34-23.43a120.32,120.32,0,0,0-22-20.24c-2.28-1.59-4.86,1.9-2.93,3.8Z"/><path class="endivecls-3" d="M135.8,293.74c-6.31-18.11-5.47-39.16,0-62.74s8-39.57,9.69-55.57-6.74-27.37,1.26-45.47,13.05-27.37,22.74-31.58,23.15,14.73,45.89,29.47,64.84,45.89,81.26,79.58,26.11,66.94,28.63,96.84-2.95,61.89-2.52,63.57l.42,1.69a79,79,0,0,0-13.06-40c-13.05-19.37-36.2-26.95-39.57-40.84s-7.16-34.95-16.42-42.53-27.79-9.68-35.37-25.68-16.42-48.42-29.89-54.74-16.85,8-16.85,19.37-10.94,26.11-13,36.21,5,27.37,8,52.63-3.79,55.58-6.31,61.05-5.48,11.79-5.48,11.79S142.12,311.84,135.8,293.74Z"/><path class="endivecls-3" d="M349.69,137.53s-10.1-1.68-20.21,21.06-28.21,69-28.21,69l-40.42-48s3.37-21,16.42-37,20.21-26.11,28.63-38.32,8.42-21,16-18.94,18.11,26.1,21.48,34.1S349.69,137.53,349.69,137.53Z"/><path class="endivecls-4" d="M290.59,301.63a86.32,86.32,0,0,0,16.12-25.52c.67-1.72-2-2.73-2.92-1.23-5.05,8.44-9.82,17-15.21,25.2-.79,1.21,1,2.65,2,1.55Z"/><path class="endivecls-4" d="M254.8,245.58c9.94-11.53,18.34-26.05,21.53-41.08a1.47,1.47,0,0,0-2.83-.78c-5.94,14.3-12.11,27.3-21.21,39.93-1,1.46,1.32,3.3,2.51,1.93Z"/><path class="endivecls-4" d="M215.32,201.36c9.72-14.1,17.53-32.19,17.91-49.52a1.53,1.53,0,0,0-3-.4c-4.2,17.43-8.5,32.62-18.06,48.09-1.24,2,1.83,3.73,3.14,1.83Z"/><path class="endivecls-4" d="M182.94,161.49c-3.75-16.5-6.74-35.6-10.73-52.05-.39-1.63-3.11-1.33-3,.41,1.27,17,5.73,36.23,10.32,52.58.61,2.19,3.9,1.27,3.39-.94Z"/><path class="endivecls-4" d="M165.84,196.78a43.6,43.6,0,0,1-5.92-6c-1.82-2.1-3.17-4.62-5.07-6.64-1.45-1.52-3.82.08-3.38,2,1.39,6,7.07,10.56,11.88,13.9,1.89,1.32,4.34-1.79,2.49-3.23Z"/><path class="endivecls-4" d="M163.45,291.24a128.87,128.87,0,0,1-22.27-20.95c-1.14-1.32-3.17.37-2.36,1.82a60.59,60.59,0,0,0,22.65,22.52c2.24,1.29,4-1.93,2-3.39Z"/><path class="endivecls-4" d="M242.94,213.84c1.36-3.25,3.35-6.69,4-10.16a1.74,1.74,0,0,0-3.16-1.33c-2.06,3-3.16,7.09-4.54,10.48-.93,2.28,2.75,3.24,3.69,1Z"/><path class="endivecls-4" d="M284,252.17a1.8,1.8,0,0,0,0-3.6,1.8,1.8,0,0,0,0,3.6Z"/><path class="endivecls-4" d="M199.27,155.76c.84-2.37,1.89-4.76,2.09-7.29.14-1.75-2.13-1.94-3-.81-1.5,2-2.25,4.66-3.16,7-1,2.49,3.14,3.67,4,1.11Z"/><path class="endivecls-4" d="M242.64,121.09a102.83,102.83,0,0,1-18.09-15.34c-5.8-6.34-13-14.08-13.79-23-.17-1.8-2.88-2.46-3.36-.46-1.93,8.21,5,15.7,10,21.54a114.37,114.37,0,0,0,23.35,20.39c2,1.31,3.8-1.85,1.86-3.17Z"/><path class="endivecls-4" d="M260.17,90.7c-10.53-15.43-20.54-32.92-33.44-46.48-1.37-1.44-3.48.39-2.65,2.05,8.36,16.62,22.35,31.06,33.24,46.1,1.23,1.69,4.06.11,2.85-1.67Z"/><path class="endivecls-4" d="M264.48,58.34c-2.21-3.15-4.23-6.91-7-9.62-1.39-1.36-3.25.36-2.54,2,1.51,3.38,4.22,6.49,6.32,9.53,1.34,2,4.57.09,3.2-1.87Z"/><path class="endivecls-4" d="M236.2,85.92c-1.14-2.27-2.13-5.13-3.93-7-1.42-1.43-3.36.1-3.1,1.81.37,2.5,2.16,5.09,3.28,7.34,1.25,2.49,5,.3,3.75-2.19Z"/><path class="endivecls-4" d="M321.19,152.44a67.94,67.94,0,0,1-7.09-11.51c-2-4-3-8.4-5-12.41-.63-1.29-2.46-.56-2.53.68-.5,9.31,5.57,19,11.5,25.63,1.46,1.63,4.45-.6,3.09-2.39Z"/><path class="endivecls-4" d="M309.71,177.37c-2.75-7-7-15-13.79-18.75-1.55-.86-3.87,1-2.64,2.64,4.34,5.76,9.32,10.47,12.18,17.28,1.08,2.56,5.31,1.49,4.25-1.17Z"/><path class="endivecls-4" d="M299.07,185.62c-1.76-2.08-4.21-4.58-7-5.19a1.7,1.7,0,0,0-1.64,2.82c1.51,1.86,3.57,3.18,5,5.15a2.29,2.29,0,1,0,3.61-2.78Z"/><path class="endivecls-2" d="M233.19,452.1c-6.07-19.42-10.06-39.11-14-59-.35-1.8-3.47-1.42-3.24.43,2.47,20.21,7.84,40.13,14.14,59.44.63,1.94,3.69,1.13,3.08-.84Z"/><path class="endivecls-2" d="M264,439c0-5.58.27-11.3-.35-16.84a1.58,1.58,0,0,0-3.15,0c-.62,5.54-.31,11.26-.35,16.84,0,2.48,3.87,2.48,3.85,0Z"/><path class="endivecls-2" d="M337.09,291.8c2.76-4.36,5.36-9.3,5.6-14.54.07-1.62-2.43-2.39-3.15-.86-2.07,4.45-3.29,9.19-5.58,13.56a1.82,1.82,0,0,0,3.13,1.84Z"/><path class="endivecls-2" d="M185.52,108.05c14,13,30.37,23.45,45.68,34.91,16.2,12.12,30.83,25.81,43.25,41.84a270.54,270.54,0,0,1,28.48,45.88c8.67,17.52,11.42,35.7,16.06,54.4.62,2.49,4.65,2,4.53-.62-.82-18.15-7.78-36.4-13.94-53.3a181,181,0,0,0-27-48.83c-25.44-32.81-61.05-54-93.8-78.56-2.48-1.86-5.54,2.2-3.3,4.28Z"/><path class="endivecls-2" d="M150.31,337.77c3.59,18.82,6.9,37.7,10.83,56.44,3.2,15.26,7.15,30,14,44.15,6.1,12.67,14.44,25.46,26,33.75s25.71,11,39.6,11.86c13.72.83,28.53.32,41.13-5.82,11.78-5.75,19.95-16.44,25.09-28.24,6.79-15.61,8.75-32.79,12-49.36,3.16-16.11,7.52-34.17,5-50.59-.42-2.78-4.92-2.63-5.47,0-3.08,14.78-3,30.37-5.3,45.34a310.33,310.33,0,0,1-8.92,40.3c-4.15,14.12-11.36,28.2-25,35.19-12.51,6.41-27.93,6.66-41.66,5.31-65.69-6.43-70.51-90-81.89-139.82-.81-3.55-6.09-2-5.42,1.49Z"/></g></g></svg>