<svg xmlns="http://www.w3.org/2000/svg" viewBox="0 0 512 512"><defs><style>.fennelcls-1{fill:none;}.fennelcls-2{fill:#c0c728;}.fennelcls-3{fill:#f4f5d8;}.fennelcls-4{fill:#4a2d2d;}</style></defs><g id="Capa_2" data-name="Capa 2"><g id="bocetos"><rect class="fennelcls-1" width="512" height="512"/><path class="fennelcls-2" d="M199.25,232A846.4,846.4,0,0,0,184.16,125c-12.07-58.21-23.77-89.72-37.94-98.74-9.49-6-39.24-9.06-53.9-.86s-15.52,19-6.47,25.44,26.3,32.77,38.38,62.52S150.1,213.85,150.1,213.85Z"/><path class="fennelcls-2" d="M280.75,44.4s-2.16-12.94-28-19.4-35.79-7.33-40.1,25.87-2.16,78.9.43,121.59,8.62,72.44,8.62,72.44,12.94,10.78,34.5,9.92,27.59-15.53,27.59-15.53-11.64-51.74-14.22-88,4.74-76.75,6.89-87.1S280.75,44.4,280.75,44.4Z"/><path class="fennelcls-2" d="M355.77,47.85c-8.19,15.52-15.52,74.59-28.89,111.67s-25.44,45.71-38.37,55.63-18.11,12.5-18.11,12.5,43.12,34.5,78.47,38,41-2.16,41-2.16-9.92-37.51,1.29-79.77S413.55,125,419.16,88s-4.93-53.25-11.65-59.07C394.58,17.67,364,32.33,355.77,47.85Z"/><path class="fennelcls-3" d="M283.76,217.3s-47,22.43-81.92,10.78-39.24-28.45-59.5-16.38-33.64,66.4-27.6,112.11,28.46,104.34,69.42,129.35,71.58,23.72,87.1,23.72,21.56-2.59,21.56-2.59,48.72,21.56,83.65-4.74,51.31-70.72,47.86-103.49S390.7,263,389,260.85s-31,.43-68.12-16C290.15,231.34,283.76,217.3,283.76,217.3Z"/><path class="fennelcls-4" d="M220.57,290.61c15.93-15.08,37.1-24.7,54.7-37.81,3-2.25,6.08-4.44,9.09-6.71,1.69-1.27,3.88-3.1,5.53-4.43,1.31-1.07,5.43-4.25,4.25-6.46-.9-1.68-8.1,4.11-9.84,5.51-2.41,1.95-5.55,3.93-8,5.8q-7.41,5.58-15.14,10.74l-4,2.66c-7.78,5.11-16,9.5-23.8,14.48-12.63,8-23.5,18.68-32.65,30.45-19.72,25.35-32.16,55.74-28.83,88.25,3,29,18.29,58.2,42.46,75,2.14,1.49,4.67-1.85,2.78-3.61-24.29-22.57-40.11-50.57-39.36-84.54C178.46,346.36,196.49,313.39,220.57,290.61Z"/><path class="fennelcls-4" d="M259.6,470.34c-22-13.13-37.11-41.94-38.42-67.14-1.4-26.91,12.69-51.53,29.22-71.64,13.46-16.38,29-31,43.13-46.8,5.4-6,17.5-20.34,21.2-28.46.49-1.09,2.56-5.24.34-5.4-1.83-.13-3.56,3-4.45,4.19-1.9,2.6-23.58,28.57-31.38,37-16.68,17.9-34,35.34-47,56.27-12.83,20.74-20.63,44.52-14.56,68.86,5.61,22.45,19.57,44.93,39.84,56.68C259.81,475.16,261.84,471.68,259.6,470.34Z"/><path class="fennelcls-4" d="M336.26,259.13c-2-.65-4.34,2.1-4.58,2.59-4.81,9.83-7.41,16-11.85,25.69a451.84,451.84,0,0,0-23.38,61.69c-11.53,39.68-16.36,83.28-6.08,123.79a11.51,11.51,0,0,1,1.77,0,11.25,11.25,0,0,1,2.18-.07C285.94,429.87,290,387,303,345.33c6.58-21.18,15.24-41.71,24.71-61.74,3.81-8.07,5.84-11.88,10.06-19.83C338,262.47,338.26,259.78,336.26,259.13Z"/><path class="fennelcls-4" d="M348.43,320.21q.17-4.8.57-9.58t1.05-9.51q.65-4.71,1.53-9.39t2-9.3c.74-3.09,1.54-6.15,2.42-9.2.29-1,.59-2.05.9-3.07a30.58,30.58,0,0,0,.9-3,2.51,2.51,0,0,0-.78-2.32c-.9-.69-2.64-.09-3.29.72a6.3,6.3,0,0,0-.79,2c-.25.76-.5,1.53-.74,2.29-.48,1.54-.94,3.07-1.38,4.61-.89,3.09-1.7,6.19-2.45,9.31s-1.42,6.27-2,9.42-1.17,6.35-1.66,9.54c-.17,1.12-.33,2.24-.49,3.36-3,21.55-.72,42.78,1.9,64.24,4.58,37.59,6.7,84.77-31.6,106.66-2.08,1.19-.26,4,1.84,3.1,34.52-14.92,40.51-56.94,37.77-89.64C352.09,367,347.66,343.91,348.43,320.21Z"/><path class="fennelcls-4" d="M393.12,326c-.3-1.51-.63-3-1-4.49s-.77-3-1.19-4.48-.88-3-1.36-4.46-1-3-1.48-4.46-1-3-1.57-4.45-1.07-3-1.61-4.46l-1.62-4.46q-.8-2.22-1.58-4.46c-.51-1.49-1-3-1.5-4.47s-1-3-1.39-4.49-.85-3-1.22-4.5-.73-3-1-4.52c-.12-.59-.24-1.18-.34-1.77-.08-.41-.13-.81-.21-1.22a.94.94,0,0,0-.5-.75,6.81,6.81,0,0,0-1-.43,3.61,3.61,0,0,0-1-.18,1.8,1.8,0,0,0-1.69,1.18,2.38,2.38,0,0,0,.05,1.06c.11.84.24,1.68.38,2.52.08.47.16.94.25,1.4.29,1.57.62,3.13,1,4.68s.77,3.09,1.19,4.63.87,3.07,1.33,4.6.95,3.06,1.44,4.58,1,3.06,1.49,4.59,1,3.07,1.49,4.61,1,3.1,1.44,4.65.92,3.13,1.34,4.7c.15.54.3,1.09.44,1.64a201.49,201.49,0,0,1,6.25,59.69c-1.63,34.45-10.71,83.31-44.63,100.41-2,1-.56,3.95,1.48,3.51,15.6-3.36,25.69-17.69,32.16-31.29,8.57-18,13.78-37.68,16.28-57.41A196.26,196.26,0,0,0,393.12,326Z"/><path class="fennelcls-4" d="M352.87,58.22c6.58,6.3,19.52,4.17,27.6,2.62,11.4-2.19,23.9-7.42,31.53-16.46,1.82-2.15-.52-5.9-3.2-4.15-7.89,5.17-14.91,10.5-24.1,13.33-6.58,2-22,5.91-28,.85-2.61-2.2-6.35,1.37-3.81,3.81Z"/><path class="fennelcls-4" d="M222,24.45c-16.63,22.89,43.68,48.46,58,23.75,1.49-2.57-2.27-5.75-4.26-3.29-6.58,8.13-17.83,7.94-27.24,5.65-8.24-2-29.09-11.18-21.91-23.44,1.76-3-2.6-5.36-4.56-2.67Z"/><path class="fennelcls-4" d="M81.09,38.31C79.53,52.5,98.67,53.13,108.44,51.93c14.57-1.8,30.44-7.65,41.27-17.83,2.15-2-.75-6-3.23-4.18-8.22,6-16.07,10.52-25.89,13.56-7.66,2.38-34,9.29-34.17-5.17,0-3.51-5-3.34-5.33,0Z"/><path class="fennelcls-4" d="M282.07,215.93c-12.92.71-26.89,8.94-39,13.45-12.33,4.6-25,9.18-36.51,15.56-19.63,10.85-36.38,29.18-48.24,48S139,333.8,136.1,355.91c-2.77,21-3.71,49.08,10.26,66.53,2.93,3.67,8.28-1,6.26-4.83-20.49-38.87-6-90.32,16.24-125.46,12.76-20.14,28.63-36.73,51.22-45.44,11.24-4.33,22.54-8.49,33.75-12.92,9.9-3.91,21.85-6.39,30.2-13.13,1.87-1.5.33-4.86-2-4.73Z"/><path class="fennelcls-4" d="M166.2,443c29,35.93,82.41,43.32,124.72,33.29,6.54-1.55,3.71-11.13-2.74-9.95-21.84,4-44.9,5.26-66.64-.06-19.68-4.81-35.25-15-49.75-28.86-3.76-3.59-8.71,1.7-5.59,5.58Z"/><path class="fennelcls-4" d="M289,474.17c26.94,15.42,63.09,12.29,89.27-3.16a105.37,105.37,0,0,0,30.64-27.79c7.58-10.15,17.21-25.63,16.28-38.84a3.26,3.26,0,0,0-6-1.63c-3.58,4.93-5.33,11.2-8.2,16.61a149,149,0,0,1-8.83,14.91,94.13,94.13,0,0,1-28,26.75c-25.67,15.67-54.31,15.61-81.79,5.31-4.62-1.73-7.45,5.47-3.31,7.84Z"/><path class="fennelcls-4" d="M136.43,212.15c-11.28,8.83-18.31,27.22-20.52,41-1.41,8.77-3.55,17.36-4.59,26.19-1.18,10.12-.71,20.58-.3,30.74a2.7,2.7,0,0,0,5.39,0c.47-8.44,1-16.88,1.43-25.33.42-9-.08-18.86,2.47-27.53a130.83,130.83,0,0,1,8.95-22.83c3.44-6.6,8.63-11.82,12.6-18,2.29-3.58-2.57-6.43-5.43-4.19Z"/><path class="fennelcls-4" d="M111.81,331.31a13.34,13.34,0,0,0,.62,3.14,4,4,0,0,0,1.72,2.23,3.78,3.78,0,0,0,5.62-3.23,18.31,18.31,0,0,0-.49-4.2,3.89,3.89,0,0,0-1.78-2.31,4,4,0,0,0-3-.39,3.89,3.89,0,0,0-2.31,1.78,4.44,4.44,0,0,0-.39,3Z"/></g></g></svg>