<svg xmlns="http://www.w3.org/2000/svg" viewBox="0 0 512 512"><defs><style>.figcls-1{fill:#806c6c;}.figcls-2{fill:#4a2d2d;}.figcls-3{fill:#fdeaec;}.figcls-4{fill:#f1475d;}.figcls-5{fill:#fff;}.figcls-6{fill:none;}</style></defs><g id="Capa_2" data-name="Capa 2"><g id="bocetos"><path class="figcls-1" d="M334,221.24c-4.15-20.6-14.23-41.7-30.53-55.41a132.12,132.12,0,0,0-22.37-18.26c-17.63-11.5-37.33-19.21-54-32.23-8.64-6.73-14.72-14.7-19.76-24.37-4-7.68-7.83-16-14.55-21.79-4.43-3.79-11.12-7.2-17.11-5.46-9,2.63-8.52,13.94-8.38,21.42a73.25,73.25,0,0,0,1.38,13.46c1.29,6.34,4.16,12.6,2.24,19.12-3.34,11.37-17,19.74-26,26.32-18,13.23-37.45,24.92-53.1,41.09C78.61,198.77,68,215.56,65.57,234.68S69,273,79.32,288.85c12.47,19.22,30.66,33,51.52,42.12a211.41,211.41,0,0,0,36.51,12.17c13.53,3.15,27.93,4.88,42,3.9,14.26-1,29.08-1.9,43.08-4.88s27.77-7.91,39.74-15.91C326.45,303.35,342.05,261.18,334,221.24Z"/><path class="figcls-2" d="M134.94,180.7c-23.87,18.19-43,54.14-33.54,84.72.85,2.77,5.09,2.3,5.11-.69.1-15-.11-28.94,5.2-43.26a88,88,0,0,1,26.23-36.88C140.07,182.81,137.18,179,134.94,180.7Z"/><path class="figcls-2" d="M170.91,182.47c-20.69,29.1-30,73.37-19.94,108,.66,2.26,4.49,1.94,4.27-.58-1.63-18.41-3-36.1.51-54.43,3.41-18,10.51-34.61,19.29-50.61C176.54,182.15,172.67,180,170.91,182.47Z"/><path class="figcls-2" d="M208.17,182.69c4.32,18.56,6.32,38,7,57,.62,18.35-1.61,36.44-2.12,54.74-.07,2.54,3.72,3,4.4.59,10.19-36.56,4.16-77.49-4.56-113.64C212.12,178.36,207.46,179.65,208.17,182.69Z"/><path class="figcls-2" d="M260.38,177.17c-2-2.22-5.3,1.07-3.29,3.29,11.52,12.7,19.21,30.29,22.14,47.06,3.09,17.76-.29,34.06-5.11,51.1a2.25,2.25,0,0,0,4.09,1.73c9.07-15.67,10.23-35.77,7.39-53.29C282.43,207.44,273.54,191.68,260.38,177.17Z"/><path class="figcls-2" d="M185,73.92c-1.41-4.23-5.46-2.89-7.44-.1-1.72,2.42-5.46,6.54-1.92,9.37a4.86,4.86,0,0,0,6.69,0,9.84,9.84,0,0,0,2.92-4.29A7.61,7.61,0,0,0,185,73.92ZM176.17,76c-.1.17-.19.3-.23.3Zm1.55-2.3,0,0c0,.08-.09.14-.12.23A2.05,2.05,0,0,0,177.72,73.72Z"/><path class="figcls-3" d="M372.64,132.4s-10.53-3.39-16.17,1.5-21.06,34.21-35,42.49-66.17,25.19-82,36.09-39.48,38-44,54.14-13.16,56.78,18.8,91S312.1,400.1,349.7,394.83s63.54-30.45,75.2-61.66,1.13-75.57-7.52-93.62-36.47-48.12-39.48-65-.38-30.08-1.13-35.72S372.64,132.4,372.64,132.4Z"/><path class="figcls-1" d="M229.76,219.25S194,244.82,182,290.31s-2.25,101.14,44.37,128.59,115.05,36.84,174.83-3.76,37.22-135,29-158.29-33.46-54.52-33.46-54.52,50.76,78.58,29.7,123.7-44,75.19-97,71.81-97-18.42-115-40.23-31.59-59-22.19-83.47S229.76,219.25,229.76,219.25Z"/><path class="figcls-2" d="M433.45,279.28c-3.11-22.82-12.4-43.32-24.47-63.21q-2.81-4.59-5.68-9.14c-5.33-8.47-11.49-16.4-16.8-24.86-4.61-7.33-5.92-15.74-5.75-24.27.12-6.22.29-12.72-1.48-18.75-2.27-7.75-11.08-12.27-18.87-9.88-8.3,2.55-13,12.24-17.7,18.77-11.25,15.59-23.33,27.39-40.95,35.47-14.56,6.67-30.07,11.06-44.88,17.13-43.66,17.89-76.18,64.06-68.52,112.38q.43,2.71,1,5.39a98.35,98.35,0,0,0,7.07,20.78c11.79,25.16,33.14,39.84,58.71,49.08,53.41,19.3,124.68,22.51,161.18-29.69,14.11-20.18,19.45-45.36,18-69.71C434.18,285.56,433.88,282.4,433.45,279.28Zm-17.9,66.44c-11.12,22.63-33.93,36.61-57.69,42.69-28.4,7.27-57.72,3.76-85.66-3.8-25.86-7-51-17-66.29-40.2a83,83,0,0,1-9.85-69.72c6.53-21.1,23.75-43.48,42-56,21.47-14.76,47.14-20.2,70.19-31.68a93.62,93.62,0,0,0,33.43-27.87c5.16-6.78,10.89-19.44,18.41-23.42,5.3-2.8,11.22-1,13.56,4.67,2.8,6.79-.56,15-1,22-.45,7.64.62,15,4.44,21.71,7.69,13.58,17.58,25.71,25.36,39.25,10.34,18,19.79,37.55,23.12,58.41C429,303.34,425.17,326.15,415.55,345.72Z"/><path class="figcls-4" d="M391.25,265.24c-10.44-17.74-28.05-30.66-47.49-37-25.07-8.13-51.17-1.83-75.07,7-19.07,7.08-36.08,18.57-41.59,39.23-4.54,17,2.2,35,10,50.1,8.29,16.08,22.41,25,38.89,31.46,30.91,12.22,67.54,11.51,94.19-9.92C393.44,327.47,407.62,293.06,391.25,265.24Z"/><path class="figcls-2" d="M256.73,275.49a10.17,10.17,0,0,0,2.41.33,13.17,13.17,0,0,0,6-1.11c4.54-2.12,8.07-9.31,4.43-13.67-2.68-3.57-8.17-3.82-11.7-1.41a13.33,13.33,0,0,0-5,7.59C251.81,271.47,253.13,274.5,256.73,275.49Zm1.53-6c.32-2.74,2.81-7.52,6.35-5.66,5.29,2.78-5.05,10.06-6.26,7A2.9,2.9,0,0,1,258.26,269.47Z"/><path class="figcls-2" d="M294.43,258.88a8.28,8.28,0,0,0,6.71-.59,6.1,6.1,0,0,0,2.6-6.64,5.23,5.23,0,0,0-6.09-4c-3.51.86-7.65,7.72-4.51,10.5A4,4,0,0,0,294.43,258.88Zm2-5.89c.86-1.64,4.28-1.65,4.25.62a2,2,0,0,1-.27.94,2.55,2.55,0,0,1-1.49,1.16c-1.52.44-2.47-.58-2.66-2A1.47,1.47,0,0,1,296.44,253Z"/><path class="figcls-2" d="M288.6,299.3a10.26,10.26,0,0,0,5.43-9.7,6.61,6.61,0,0,0-7.45-6.27c-4.17.63-7.27,4.69-7.64,8.8a8.12,8.12,0,0,0,.11,2.32C279.9,298.7,284.1,301.64,288.6,299.3Zm-5.35-5.48a13.91,13.91,0,0,1,3-4.23c1.22-1.14,2.44-1.61,2.89.15.54,2.16-3.15,8.27-5.67,5.92A1.84,1.84,0,0,1,283.25,293.82Z"/><path class="figcls-2" d="M258.4,314.52c-1.06,1.87.22,4.45,1.92,5.48,2.35,1.42,4.3-.88,3.66-3.31C263.4,314.49,260,311.59,258.4,314.52Z"/><path class="figcls-2" d="M297.44,327.18a13,13,0,0,0-1.05,9.1c1.6,5.28,9.64,2.66,12.13-.47a7.65,7.65,0,0,0-1.17-10.52A6.52,6.52,0,0,0,297.44,327.18Zm8.17,5.53a3.78,3.78,0,0,1-.39,1c-2.71,4.71-8.42-2.64-3.69-4.87a3,3,0,0,1,3.28.5A3.46,3.46,0,0,1,305.61,332.71Z"/><path class="figcls-2" d="M333,294.82a6.22,6.22,0,0,0-.28-8.44,7.14,7.14,0,0,0-5.82-1.84c-4,.73-4,8.68-1.77,10.9A5.4,5.4,0,0,0,333,294.82Zm-6.39-4.53a2.49,2.49,0,0,1,4.51-.86,2.4,2.4,0,0,1,0,2.43l-.05.08a2.54,2.54,0,0,1-3.25.87A2.47,2.47,0,0,1,326.63,290.29Z"/><path class="figcls-2" d="M342.32,268c3.78,2.5,7.76-.93,9.65-4.16s1.75-7.77-1.86-9.86a5.61,5.61,0,0,0-7,1.22,12,12,0,0,0-3.36,7.28A5.91,5.91,0,0,0,342.32,268Zm1.93-7.26a7.39,7.39,0,0,1,3.85-2.91c.87-.21,1.42.12,1,1.51s-2.84,6.78-4.76,4.12A2.87,2.87,0,0,1,344.25,260.69Z"/><path class="figcls-2" d="M346.94,320.15c-2.84,3.41-4.9,8.92-1,12.57s7.77.08,10.23-3,5.07-7.48,2.16-11.25a6,6,0,0,0-6.61-2A12.09,12.09,0,0,0,346.94,320.15Zm7.6,1.63c1.3,1.5-.34,3.91-1.22,5.19s-3,4.28-4.09,1.6C348.37,326.43,352.59,319.51,354.54,321.78Z"/><path class="figcls-2" d="M331.33,316.57a3.74,3.74,0,0,0-1.32-1.3,4,4,0,0,0-2.81-.34,4.74,4.74,0,0,0-2.9,3,3.65,3.65,0,0,0,0,2,3.8,3.8,0,0,0,4.68,2.66,3.8,3.8,0,0,0,2.66-2.66c0-.11.05-.23.07-.34l0-.12a2.83,2.83,0,0,0,.07-1.47A3.37,3.37,0,0,0,331.33,316.57Z"/><path class="figcls-2" d="M348.9,303.48a4.15,4.15,0,1,0,0-8.3,4.3,4.3,0,0,0-4.22,3.71,4.17,4.17,0,0,0,2,3.95A4.28,4.28,0,0,0,348.9,303.48Z"/><path class="figcls-2" d="M314.36,276.26c4.18,0,4.19-6.49,0-6.49S310.17,276.26,314.36,276.26Z"/><path class="figcls-2" d="M329.17,246.2c.15.31.29.63.44.94a2.36,2.36,0,0,0,2,1.17,2.49,2.49,0,0,0,1.68-.69,2.45,2.45,0,0,0,.69-1.68,2.36,2.36,0,0,0-1.17-2l-.94-.44-.48-.2a1.52,1.52,0,0,0-.79,0,1,1,0,0,0-.51.13,1.43,1.43,0,0,0-.64.42,2.31,2.31,0,0,0-.52.88,1.55,1.55,0,0,0,0,.8A1.53,1.53,0,0,0,329.17,246.2Z"/><path class="figcls-2" d="M260.41,290.18c-4.1,0-4.11,6.37,0,6.37S264.51,290.18,260.41,290.18Z"/><path class="figcls-2" d="M282.78,322.86a2.1,2.1,0,0,0-1.45.59c-2,2,1.37,5.71,3.08,3C285.28,325,284.63,322.86,282.78,322.86Z"/><path class="figcls-2" d="M369.25,270.83c3,0,3-4.65,0-4.65S366.26,270.83,369.25,270.83Z"/><path class="figcls-2" d="M369,298.05c4.22,2,8.5-1.66,9.65-5.62,1.05-3.61-.47-8.5-4.41-9.6C366.51,280.67,362.06,294.83,369,298.05Zm.83-7.47c.29-1.79,2.33-3.57,4.09-2.43a3.57,3.57,0,0,1-.32,5.57C371.4,295,369.48,292.72,369.81,290.58Z"/><path class="figcls-2" d="M212.73,233.79c-30.42,27.32-42.16,69.89-39.32,109.89.26,3.6,5.91,3.61,5.63,0-3-39.39,13.15-75.89,37.3-106.28,2-2.53-1.11-5.85-3.61-3.61Z"/><path class="figcls-5" d="M153.57,150.57l-2.09,1.34c-.44.28-.87.56-1.28.87a5.42,5.42,0,0,0-1.66,2.52,3.56,3.56,0,0,0,.68,3.3,3.9,3.9,0,0,0,3,1.49c2,.2,3.95-1.31,5.64-2.26a4.21,4.21,0,0,0-4.25-7.26Z"/><path class="figcls-5" d="M117.28,176.91l-.44.94-.23.55a1.73,1.73,0,0,0,0,.93,1.08,1.08,0,0,0,.16.58,1.67,1.67,0,0,0,.48.75,2.84,2.84,0,0,0,1,.6A2.58,2.58,0,0,0,120,181l.93-.44a2.7,2.7,0,0,0,1-1,2.68,2.68,0,0,0,.36-1.35,2.78,2.78,0,0,0-.78-1.9,2.07,2.07,0,0,0-.87-.56,2.13,2.13,0,0,0-1-.23,2.63,2.63,0,0,0-1.35.37,2.7,2.7,0,0,0-1,1Z"/><path class="figcls-5" d="M354.45,152.14,353,154.82c-.21.39-.44.78-.63,1.18a5.12,5.12,0,0,0-.37,3.72,3.87,3.87,0,0,0,4.68,2.66c2.69-.7,3.89-3.67,5.22-5.86a4.34,4.34,0,0,0-7.49-4.38Z"/><path class="figcls-5" d="M327.89,191.77c6.73,0,6.74-10.46,0-10.46s-6.73,10.46,0,10.46Z"/><path class="figcls-5" d="M312.57,297.07l-.59.19-.88.37a2.91,2.91,0,0,0-1,1,1.84,1.84,0,0,0-.48.82,2.81,2.81,0,0,0-.32,1.43l.13,1,.38.89a2.8,2.8,0,0,0,1,1,2.74,2.74,0,0,0,1.26.66l.59.19a3.91,3.91,0,0,0,3.8-1l.61-.79a3.91,3.91,0,0,0,.53-2,3,3,0,0,0-.33-1.51,2.94,2.94,0,0,0-.81-1.25,3.91,3.91,0,0,0-1.72-1,3.87,3.87,0,0,0-2.08,0Z"/><path class="figcls-5" d="M248.89,290.31a2.79,2.79,0,0,1,0-.5l-.12.85.05-.31a2.83,2.83,0,0,0,0-1.58,2.92,2.92,0,0,0-.76-1.32,3,3,0,0,0-2.9-.77l-.31.05.85-.11a4.18,4.18,0,0,1-.5,0l-1,.13-.88.38a2.72,2.72,0,0,0-1,.95,1.9,1.9,0,0,0-.48.82,3.77,3.77,0,0,0,0,2.86,2.67,2.67,0,0,0,.77,1.19l.75.58.88.37,1,.14,1-.14.89-.37a2.8,2.8,0,0,0,1-.95,2,2,0,0,0,.48-.82,2.81,2.81,0,0,0,.32-1.43Z"/><path class="figcls-5" d="M282.78,244.63a1.7,1.7,0,0,0,0-3.39,1.7,1.7,0,0,0,0,3.39Z"/><path class="figcls-5" d="M363,308.72l.12.2a4.46,4.46,0,0,0,.31.42,1.84,1.84,0,0,0,.64.63,1.82,1.82,0,0,0,.38.29,3.5,3.5,0,0,0,3.51,0h0l.71-.56.55-.71,0-.06.12-.2a3.71,3.71,0,1,0-6.41,0Z"/><path class="figcls-5" d="M327.49,258.9a1.8,1.8,0,0,1,.05-.19,3.25,3.25,0,0,0,0-1.61v-.05a3.34,3.34,0,0,0-2.89-2.49,2.73,2.73,0,0,0-1.39.06,3.5,3.5,0,0,0-1.53.9l-.55.7a3.48,3.48,0,0,0-.47,1.75l.12.93a3.5,3.5,0,0,0,.9,1.53l.7.55a3.48,3.48,0,0,0,1.75.47,2.57,2.57,0,0,0,1.34-.3,2.52,2.52,0,0,0,1.12-.72,3.5,3.5,0,0,0,.9-1.53Z"/><path class="figcls-5" d="M326.39,340.66c3.84,0,3.84-6,0-6s-3.84,6,0,6Z"/><path class="figcls-5" d="M352,282.63c3.66,0,3.67-5.7,0-5.7s-3.67,5.7,0,5.7Z"/><path class="figcls-5" d="M288,267.05l-.38-.37a2.81,2.81,0,0,0-1.83-.76,2.65,2.65,0,0,0-1.82.76l-.38.37-.48.63-.32.75a2.27,2.27,0,0,0,0,1.24,1.52,1.52,0,0,0,.21.78,1.5,1.5,0,0,0,.4.69,1.58,1.58,0,0,0,.56.56,1.5,1.5,0,0,0,.69.4,2.45,2.45,0,0,0,1.19.27l.83-.11.75-.32.63-.48.48-.63.32-.75a2.38,2.38,0,0,0,0-1.24,1.52,1.52,0,0,0-.21-.78,2.45,2.45,0,0,0-.64-1Z"/><path class="figcls-5" d="M273.75,310.23c4.35,0,4.36-6.75,0-6.75s-4.35,6.75,0,6.75Z"/><rect class="figcls-6" width="512" height="512"/></g></g></svg>