<svg xmlns="http://www.w3.org/2000/svg" viewBox="0 0 512 512"><defs><style>.garliccls-1{fill:none;}.garliccls-2{fill:#cf8ea4;}.garliccls-3{fill:#4a2d2d;}.garliccls-4{fill:#ecd2db;}</style></defs><g id="Capa_2" data-name="Capa 2"><g id="bocetos"><rect class="garliccls-1" width="512" height="512"/><path class="garliccls-2" d="M417.48,310.58c-8.49-4.9-10.13,14.37-45.72,38.21s-73.49,37.56-79.69,57.48,12.08,49.31,60.09,49,69-37.18,76.42-55.19C444.26,361.85,426,315.48,417.48,310.58Z"/><path class="garliccls-3" d="M320.54,411.36c17.78,2.35,35.79-8.33,49.72-18.35,12.14-8.72,28.82-21.27,34.1-35.74.69-1.89-1.76-2.72-3-1.75-5.78,4.5-9.94,11.14-15.12,16.38a133.4,133.4,0,0,1-19,15.94c-13.11,9.06-30.34,19.68-46.69,18.92-3-.14-2.84,4.23,0,4.6Z"/><path class="garliccls-3" d="M410.21,343c3.44,0,3.45-5.35,0-5.35s-3.44,5.35,0,5.35Z"/><path class="garliccls-4" d="M349.12,333.22c-11.11,12.64-29.4,23.51-49.42,24.61a66.69,66.69,0,0,1-16.8-1.37,56.75,56.75,0,0,1-7.17-1.9s-.45.47-1.35,1.29c-4.74,4.23-22,17.58-52.2,18.3-22.28.55-39.7-9.21-49.71-16.71a71.56,71.56,0,0,1-9.51-8.33s-1.6.8-4.43,1.86c-13.12,5-52.37,15.87-76.57-20.14-23.71-35.33-11.23-75.43,18.3-104.29s73.38-51,88-75.34c13.27-22.2,3.92-41.58-2-53.56s-7.84-17.42-4.8-17,15.68,7,23.51,17.42c7.35,9.81,9,16,9.14,16.69a95.58,95.58,0,0,1,5.46-36.72c7-18.73,15.68-29,18.5-27.65S237,74.13,235.46,87.2a102,102,0,0,0,.22,24.38,56,56,0,0,1,17-17c11.09-7,17.63-7.39,18.5-5.65s-17.64,18.72-15,42.23,22.43,37.45,39,47.68,60.53,32,71.86,72.28S360.21,320.6,349.12,333.22Z"/><path class="garliccls-3" d="M151,264.9a170.59,170.59,0,0,1,18.53-32.27c6.68-9.29,14.58-18.37,18.84-29.07.71-1.79-2-3.34-3.24-1.89-7.68,9.24-14.07,19.93-20.74,29.92s-13.1,20.33-17,31.8c-.7,2.07,2.7,3.56,3.58,1.51Z"/><path class="garliccls-3" d="M195.18,192.39c13-13.61,22.88-36.7,17.45-55.68-.47-1.64-3-1.67-3.12.21-.6,9.78,0,18.72-3,28.31-2.86,9.22-7.86,17.42-13.86,24.92-1.19,1.49,1.19,3.64,2.52,2.24Z"/><path class="garliccls-3" d="M234.65,127c-5.47,20.26,4.91,40.27,15.66,57,5.91,9.19,13,17.68,19.43,26.51,7.43,10.22,12.11,20.45,16.17,32.36.55,1.62,3.41,1.49,3.18-.43-5.23-44-59.31-66-50.93-114.43.4-2.26-2.88-3.27-3.51-1Z"/><path class="garliccls-3" d="M158.53,351c-14.12-18.62-18.49-44.68-13.59-67.35.45-2.09,4-1.62,3.76.51-2.84,22.81,2.06,44.13,14.43,62C165.88,350.06,161.36,349.91,158.53,351Z"/><path class="garliccls-3" d="M297.58,325.48c-2.9,10.15-7.72,21.83-14.68,31a56.75,56.75,0,0,1-7.17-1.9s1.45-2.55,2.82-4.5a67.1,67.1,0,0,0,4-6.3,105.82,105.82,0,0,0,8.8-21.58c4.41-15.4,4.49-29.84,2.76-45.59-.29-2.63,3.84-3,4.51-.61C303,291.79,302.05,309.78,297.58,325.48Z"/></g></g></svg>