<svg xmlns="http://www.w3.org/2000/svg" viewBox="0 0 512 512"><defs><style>.gingercls-1{fill:none;}.gingercls-2{fill:#cf923a;}.gingercls-3{fill:#fff2cd;}.gingercls-4{fill:#4a2d2d;}</style></defs><g id="Capa_2" data-name="Capa 2"><g id="bocetos"><rect class="gingercls-1" width="512" height="512"/><path class="gingercls-2" d="M150.38,449.92a59.78,59.78,0,0,1-27-6.78l-.33-.16-.6-.17a67.71,67.71,0,0,1-18.58-10.57,71.54,71.54,0,0,1-26.41-57.08c.58-27.9,18.25-45.64,36.29-61.42l1-.83c6-5.24,15.13-13.15,14.61-21.87-.25-4.1-2.52-7.62-6.75-10.48-7.87-5.31-18.86-6.37-28.57-7.31-3.57-.34-6.94-.67-9.9-1.17-12.39-2.12-21.53-4.74-29.61-8.5-39.7-18.44-42.14-70.93-32.16-110.27,6.66-26.26,27.9-70.7,65.23-70.7A49.49,49.49,0,0,1,93.5,83c12,1.45,28.18,8.12,34.43,22.15,5.71,12.82,5,27.21,4.23,42.45-.58,11.59-1.18,23.57,1.28,35,2.54,11.79,11.93,20.34,22.3,20.34a20.52,20.52,0,0,0,8.12-1.71c24.82-10.57,30.25-40.53,22.78-64.66-1.74-5.61-4-11.06-6.27-16.33-4.48-10.61-8.72-20.64-8.63-31.72.11-15.1,3.38-28.29,9.72-39.22C190.29,34,210.14,17.8,229.54,17.8a30.78,30.78,0,0,1,19,6.39c15.88,12.06,15.87,33.49,13.76,52.86-.24,2.19-.83,5.3-1.51,8.91-2.67,14.14-6.32,33.51,1,43.92a15.7,15.7,0,0,0,10.84,6.59,17.66,17.66,0,0,0,2.84.22,26.11,26.11,0,0,0,10.39-2.42c8.9-3.84,16.25-10.14,23.37-16.23a144.89,144.89,0,0,1,12.71-10.11C334.52,99.37,346.89,95,358.7,95c1,0,1.92,0,2.89.08,17,1,32.18,9.7,40.6,23.25,16.57,26.68,8.81,68.54-16.61,89.59-15.41,12.75-34.93,14.53-55.26,15.34l-5.32.19c-18.39.59-39.23,1.27-53.68,14.19a18.49,18.49,0,0,0-6.41,11.58c-.44,4.14.41,7.44,2.53,9.8s5.32,3.56,9.5,3.56c5.05,0,10.73-1.74,14.48-2.89l.73-.22c6.45-2,14.09-4,21.82-4a41.67,41.67,0,0,1,6.79.55c11.59,2,20.63,9.12,25.44,20.15,6.11,14,4.53,32.1-3.93,45-9.21,14-25.77,23.63-46.62,27-5.81.94-12.13,1-18.83,1-14.24.1-29,.19-40.75,9-10.7,8-15.63,21.37-20,33.14-.85,2.3-1.68,4.55-2.54,6.72-10.73,27.1-24.9,42.21-45.94,49A55.89,55.89,0,0,1,150.38,449.92Z"/><path class="gingercls-3" d="M342.31,363.11c-13.79,3.2-39.39,23.14-50.22,43.33s-21.42,55.14,5.17,70.4,55.39-2.46,68.43-19.94,26.79-51.06,22.65-68.19C382.92,366.31,356.09,359.91,342.31,363.11Z"/><path class="gingercls-2" d="M314.08,486.79a30.65,30.65,0,0,1-18.62-6.3c-9.38-7-16.16-18.28-17.28-28.82a53,53,0,0,1,1.3-18.14l.15-.6c6-24.23,19.3-45.49,39.67-60.05,21.8-15.59,44.45-29.21,69.18-39.7a258.43,258.43,0,0,1,42.83-14.28,105.59,105.59,0,0,1,23.37-3.1c15.89,0,25.46,5.74,29.27,17.54,8.88,27.5-11.67,61.86-24.71,79.89-19.1,26.41-41,44.76-66.83,56.1a213.13,213.13,0,0,1-73,17.17l-.65,0-.34.05A36.09,36.09,0,0,1,314.08,486.79Zm38.09-119.92c-26.6-1.42-54.76,33.26-62.82,56.61l-.26.76c-3,8.59-6.33,18.32-4.2,28.39,3.23,15.19,15.08,26.13,28.83,26.61a28,28,0,0,0,7.74-.83c14.8-3.68,28.15-13.35,39.67-28.74,9.38-12.52,18.76-26,21.58-41.28,2.72-14.73-2.83-34-18.5-39.29A42.12,42.12,0,0,0,352.17,366.87Z"/><path class="gingercls-4" d="M102,210.93a1.89,1.89,0,0,0-1.74-1.1,2.64,2.64,0,0,0-.55.06c-4.89,1.22-9.2,5.14-12.66,8.3A67.82,67.82,0,0,0,76.9,229.81a56.22,56.22,0,0,0-7,13.86,39.09,39.09,0,0,0-1.82,7.71l-.07.49c-.31,2.34-.65,5,.54,7.3a1.88,1.88,0,0,0,1.7,1h0a2.15,2.15,0,0,0,1.8-1,12.33,12.33,0,0,0,1.51-4.78c.11-.62.21-1.23.35-1.82.65-2.71,1.25-4.88,1.92-6.83A54.3,54.3,0,0,1,82.16,233,61.22,61.22,0,0,1,91,222.73c1.29-1.21,2.75-2.37,4.17-3.48a39.26,39.26,0,0,0,6.58-6A2.17,2.17,0,0,0,102,210.93Z"/><path class="gingercls-4" d="M73.2,189.23c.5-.11,1.06-.28,1.64-.46a10.08,10.08,0,0,1,2.35-.57,1.93,1.93,0,0,0,1.86-2,1.8,1.8,0,0,0-1.84-1.84H77a12.84,12.84,0,0,1-1.86-.2,13,13,0,0,0-2.25-.24h0a40.21,40.21,0,0,0-4.31.34,46.82,46.82,0,0,0-9.07,2.09,61.84,61.84,0,0,0-16.88,8.79A66.26,66.26,0,0,0,29.25,208a36.57,36.57,0,0,0-7.81,17,1.5,1.5,0,0,0,1.45,1.77,1.43,1.43,0,0,0,1.21-.7c5.56-8.93,12.3-19,22-25.86a63.41,63.41,0,0,1,15.13-7.74c2.83-1,5.65-1.75,7.8-2.29C70.44,189.82,71.81,189.51,73.2,189.23Z"/><path class="gingercls-4" d="M36.64,146.25a1.57,1.57,0,0,0,.89-.28c1.35-.91,2.68-1.84,4-2.78,4.62-3.26,9.39-6.63,14.87-8.51a35.86,35.86,0,0,1,12-1.72c2.41,0,4.89.13,7.28.26,1.79.1,3.57.19,5.41.24A1.89,1.89,0,0,0,83,131.79a2,2,0,0,0-1.39-2.22,54.09,54.09,0,0,0-15.22-2.41,36,36,0,0,0-12,2,39.61,39.61,0,0,0-19.29,14.43,1.61,1.61,0,0,0-.08,1.69A1.83,1.83,0,0,0,36.64,146.25Z"/><path class="gingercls-4" d="M65.75,152.89a36.2,36.2,0,0,0-10.2,3.63c-2.52,1.37-6.1,3.61-8.13,7.22a1.51,1.51,0,0,0,0,1.5,1.57,1.57,0,0,0,1.33.77,1.54,1.54,0,0,0,.72-.18,49.91,49.91,0,0,0,4.82-3c1.16-.77,2.36-1.58,3.58-2.29a42,42,0,0,1,8.86-4,1.83,1.83,0,0,0,1.33-2.07,1.92,1.92,0,0,0-1.9-1.67A2.06,2.06,0,0,0,65.75,152.89Z"/><path class="gingercls-4" d="M182.65,123.35a1.64,1.64,0,0,0,1.17-.52,68.93,68.93,0,0,0,6.34-7.74,53.51,53.51,0,0,1,8.11-9.33c3.64-3.09,9.55-6.76,17-6.76a21.51,21.51,0,0,1,2.78.18l.33,0a2.8,2.8,0,0,0,.44-5.47,27.65,27.65,0,0,0-5-.45,31.06,31.06,0,0,0-19,6.76c-3.64,2.85-12.28,10.63-13.87,21.22a1.86,1.86,0,0,0,.44,1.49A1.68,1.68,0,0,0,182.65,123.35Z"/><path class="gingercls-4" d="M223.84,64.51a2.16,2.16,0,0,0,.56-.08c6-1.86,13-3.85,20-3.85a31.44,31.44,0,0,1,10.24,1.62,2.08,2.08,0,0,0,.73.13,2.53,2.53,0,0,0,2.34-2,2.22,2.22,0,0,0-1.2-2.57,37.66,37.66,0,0,0-15.78-3.62c-5.22,0-12.62,1.26-18.18,7.23a1.91,1.91,0,0,0-.33,2.07A1.78,1.78,0,0,0,223.84,64.51Z"/><path class="gingercls-4" d="M323.11,221.5a1.16,1.16,0,0,0,1.18-1,67.56,67.56,0,0,0-2-28.11,91.25,91.25,0,0,0-12.58-25.84,2.67,2.67,0,0,0-2.22-1.24,3.12,3.12,0,0,0-2.66,1.65,2.89,2.89,0,0,0,.13,3,98.84,98.84,0,0,1,11,24.33,163.87,163.87,0,0,1,5.92,26.17A1.22,1.22,0,0,0,323.11,221.5Z"/><path class="gingercls-4" d="M362.64,162.9a2.7,2.7,0,0,0-2.29,1.32,2.35,2.35,0,0,0,0,2.4c5.29,9.26,5.46,19.83,5,28a1.34,1.34,0,0,0,.37,1,1.62,1.62,0,0,0,1.14.48,1.29,1.29,0,0,0,1.23-.79c4-9.11,2.67-20.78-3.45-31.21A2.34,2.34,0,0,0,362.64,162.9Z"/><path class="gingercls-4" d="M354,137.17a5.09,5.09,0,0,0-.13-1.26,12.37,12.37,0,0,0-1.51-3.23,20.76,20.76,0,0,0-4.33-4.92,1.85,1.85,0,0,0-1.19-.46,1.81,1.81,0,0,0-1.62,1,1.78,1.78,0,0,0,.31,1.93,22.8,22.8,0,0,1,3,4.64l.28.57.21.48c.23.53.47,1,.73,1.56a4.22,4.22,0,0,0,.52.78,2.7,2.7,0,0,1,.29.4l.17.28a6.7,6.7,0,0,0,.75,1.13,1.39,1.39,0,0,0,1.05.46,1.48,1.48,0,0,0,1.45-1.1,5.44,5.44,0,0,0,.07-1.78A4.52,4.52,0,0,1,354,137.17Z"/><path class="gingercls-4" d="M264,226a36.52,36.52,0,0,0-3.5-5.34,63.46,63.46,0,0,0-9.05-9.35,71.2,71.2,0,0,0-22.29-12.71,2,2,0,0,0-.63-.11,2.07,2.07,0,0,0-1.93,1.69,1.83,1.83,0,0,0,1,2.14,79.92,79.92,0,0,1,19.94,13.43,97,97,0,0,1,8.25,8.61c.58.67,1.16,1.36,1.74,2s1.42,1.67,2.14,2.49c.45.51.89,1.1,1.32,1.69a15.49,15.49,0,0,0,2.75,3.1,1.91,1.91,0,0,0,1.2.44,1.74,1.74,0,0,0,1.3-.59,1.93,1.93,0,0,0,.42-1.54,15,15,0,0,0-2-4.9C264.39,226.67,264.18,226.31,264,226Z"/><path class="gingercls-4" d="M247.14,250a2.73,2.73,0,0,1-.16-.43,4,4,0,0,0-.48-1.06,15.28,15.28,0,0,0-2.2-2.53,33.54,33.54,0,0,0-5.41-4.07,50,50,0,0,0-11.78-5.43,2.53,2.53,0,0,0-.73-.11,2.76,2.76,0,0,0-2.61,2,2.73,2.73,0,0,0,1.84,3.3,44.26,44.26,0,0,1,10.12,5.19c1.45,1,2.82,2.07,4.33,3.28.52.42,1.07.81,1.61,1.21l.94.69a4.62,4.62,0,0,0,1.24.59l.22.08a4.76,4.76,0,0,1,.67.35,6.66,6.66,0,0,0,.69.38,1.81,1.81,0,0,0,2.2-.57,1.49,1.49,0,0,0,.16-1.39C247.62,251,247.41,250.54,247.14,250Z"/><path class="gingercls-4" d="M243.29,314.09a48.91,48.91,0,0,0-9.47-15.28,38.51,38.51,0,0,0-15.35-9.94,95.69,95.69,0,0,0-12.5-3.23c-2.61-.55-5.3-1.11-7.91-1.81a2,2,0,0,0-.58-.08,1.81,1.81,0,0,0-1.79,1.52,2,2,0,0,0,1.25,2.31c3,1.21,6,2.25,9,3.25,8.7,2.93,16.93,5.7,23.14,12.64A45.92,45.92,0,0,1,237.32,317c.49,1.22.9,2.47,1.31,3.72s.89,2.7,1.43,4c.26.64.49,1.31.73,2a15.41,15.41,0,0,0,2.48,5.12,1.43,1.43,0,0,0,1.08.51,1.73,1.73,0,0,0,1.55-1.08c1.11-2.7.42-6.59,0-8.92A41.27,41.27,0,0,0,243.29,314.09Z"/><path class="gingercls-4" d="M300.11,278.87a1.36,1.36,0,0,0-1.26.81c-7,15.31-7.32,32.19-.8,45.16a1.31,1.31,0,0,0,1.18.76h0a1.52,1.52,0,0,0,1.13-.55,1.45,1.45,0,0,0,.33-1.21c-3.07-17.32-2.78-30.59,1-43a1.43,1.43,0,0,0-.22-1.28A1.68,1.68,0,0,0,300.11,278.87Z"/><path class="gingercls-4" d="M328.83,279.51a2.08,2.08,0,0,0-1.57.73c-3.9,4.22-4.76,10.47-5.52,16l-.21,1.56a51.42,51.42,0,0,0,.92,21.11,1.33,1.33,0,0,0,1.29.93,1.18,1.18,0,0,0,1.21-1c.84-4.91,1.26-10,1.67-14.86.11-1.34.46-5.29.46-5.29.23-2.63.47-5.36.88-8s.94-5.25,2.59-7.26a2.39,2.39,0,0,0-1.72-3.89Z"/><path class="gingercls-4" d="M198.57,338.33c-7-6.17-15.75-10.65-27.59-14.11a2.63,2.63,0,0,0-.77-.12,2.43,2.43,0,0,0-2.37,2.14,2.55,2.55,0,0,0,1.73,2.9c19,6.39,33.21,19.64,38,35.44a1.6,1.6,0,0,0,1.56,1.15h0a1.67,1.67,0,0,0,1.17-.48,1.61,1.61,0,0,0,.44-1.12A35.23,35.23,0,0,0,198.57,338.33Z"/><path class="gingercls-4" d="M171.13,378.61c-9.3-11-23.88-17.2-41-17.56h-1.52a74.37,74.37,0,0,0-25.3,4.45,1.69,1.69,0,0,0-1.16,1.92,1.71,1.71,0,0,0,1.71,1.44,2.07,2.07,0,0,0,.35,0,115.75,115.75,0,0,1,20-1.95,63.44,63.44,0,0,1,22.6,3.77,47.13,47.13,0,0,1,26.95,25.56,33.67,33.67,0,0,1,2.53,9.77,27,27,0,0,1-.06,4.21,19.62,19.62,0,0,0,.19,6,1.82,1.82,0,0,0,1.79,1.34,1.61,1.61,0,0,0,1.26-.57c2.11-2.51,2.24-6.25,2.35-9.25a41.3,41.3,0,0,0-1-10.17A43.54,43.54,0,0,0,171.13,378.61Z"/><path class="gingercls-4" d="M176.09,421.49a.79.79,0,0,0,0,1.57.79.79,0,1,0,0-1.57Z"/><path class="gingercls-4" d="M410.43,347.17a2.88,2.88,0,0,0-1.21-.27,3,3,0,0,0-2.84,2.26,2.44,2.44,0,0,0,1.35,2.83c8,4.23,13.74,13.06,15.65,24.23a65.26,65.26,0,0,1,.31,18.26c-.44,3.95-1.26,7.92-2.06,11.75-.62,3-1.26,6-1.72,9.11a1.79,1.79,0,0,0,.39,1.44,1.66,1.66,0,0,0,1.25.57,1.76,1.76,0,0,0,1.6-1.11,109.07,109.07,0,0,0,6.39-21.9c1.46-7.9,1.6-14.62.43-20.56C427.55,361.52,420.25,351.57,410.43,347.17Z"/><path class="gingercls-4" d="M459.67,354.22a40.49,40.49,0,0,0-10.07-18.55,2.43,2.43,0,0,0-1.79-.83,2.71,2.71,0,0,0-1.95,4.45,35.93,35.93,0,0,1,7.57,16.56,45.39,45.39,0,0,1,.64,5.66c.08,1.12.16,2.23.28,3.35a37,37,0,0,1-.24,9.17,1.4,1.4,0,0,0,.34,1.14,1.77,1.77,0,0,0,1.31.57,1.53,1.53,0,0,0,1.41-.83,40.34,40.34,0,0,0,3.16-9.63C461.12,361.68,460.44,357.67,459.67,354.22Z"/></g></g></svg>