<svg xmlns="http://www.w3.org/2000/svg" viewBox="0 0 512 512"><defs><style>.grapefruitcls-1{fill:none;}.grapefruitcls-2{fill:#fdca2a;}.grapefruitcls-3{fill:#fff;}.grapefruitcls-4{fill:#f2556a;}.grapefruitcls-5{fill:#4a2d2d;}</style></defs><g id="Capa_2" data-name="Capa 2"><g id="bocetos"><rect class="grapefruitcls-1" width="512" height="512"/><path class="grapefruitcls-2" d="M338.38,219.06c-26.06-65.54-91.51-127-124-136.54-3.82-1.12-7.73-2.17-11.76-3,1.16,11.82-.56,23.63-3.38,35.14a3.28,3.28,0,0,1-3.6,2.35,3.33,3.33,0,0,1-2.84-3.22c-.81-6.57-.4-13.31-1-19.91a137.45,137.45,0,0,0-2.43-16.28c-22.31-1.54-48.74,6-83.35,41.7-48.41,49.9-94.59,85.65-93.1,156.4S75.48,438,118.68,445.47s143,.74,175.76-11.92,52.14-110.22,52.14-110.22S364.45,284.6,338.38,219.06Z"/><path class="grapefruitcls-2" d="M496.77,332.53c.73-9,0-23-4.55-23.52-8.43-1-285.58-6-287.48-2.24s-22.44,98.23,49.37,140c68.36,39.76,141.46,33.41,188,2.24C483.26,421.42,493.93,367.81,496.77,332.53Z"/><path class="grapefruitcls-3" d="M421.2,436.31c-49.37,25.39-136.71,21.29-174.68-18.66-30.88-32.49-30.37-91.14-29.1-111.92,3.55-.1,7.79-.18,12.61-.25,25.41-.34,66.83-.1,109.32.38l15.58.17c37.1.47,73.64,1.11,99.7,1.7,9.14.22,17,.42,23.12.6.2,4.57.48,9.71.8,15.24C479.68,343,470.57,410.93,421.2,436.31Z"/><path class="grapefruitcls-4" d="M339.35,305.86c-12.17,7.77-46.78,29.57-66.26,39-23.92,11.57-33.78,8.21-41.76-7.48-4.81-9.42-3.28-22.76-1.3-31.9C255.44,305.14,296.86,305.38,339.35,305.86Z"/><path class="grapefruitcls-4" d="M339.94,324.69c-12.16-8.21-87,34.35-90.76,45.92s13.67,34.72,27.34,45.92,20.88,13.44,34.93-1.12S352.09,332.91,339.94,324.69Z"/><path class="grapefruitcls-4" d="M365.76,333.65s-8-5.6-13.29-.37-11.39,69.81-9.88,81.76,7.22,23.14,34.18,19.41,39.5-22.4,39.88-33.23-28.86-49.28-36.08-56.37A74.22,74.22,0,0,0,365.76,333.65Z"/><path class="grapefruitcls-4" d="M426.9,375.09c-24.07-8.6-56.65-52.65-67.41-67.94,37.1.47,73.63,1.11,99.69,1.7a71.28,71.28,0,0,1,4.55,23.3C464.5,357.17,456.14,385.54,426.9,375.09Z"/><path class="grapefruitcls-5" d="M201.86,305.64c-7.37,24.7-3.84,53.73,3,78.19,6.43,23,19.31,49.95,41.55,62,3.23,1.75,5.7-2.71,2.83-4.76-42.13-30.24-48.3-87.45-43.07-134.82.28-2.49-3.66-2.85-4.33-.57Z"/><path class="grapefruitcls-3" d="M258.9,326.61c12-6.34,24.67-10.86,36.83-16.75,1.57-.76.44-3-1.15-2.67-13.1,3-25.87,9.94-37.25,16.78a1.54,1.54,0,0,0,1.57,2.64Z"/><path class="grapefruitcls-3" d="M288.93,380.2a260.48,260.48,0,0,0,28.32-28.15,1.48,1.48,0,0,0-2.1-2.07c-9.78,9-18.7,19-28.65,27.83-1.66,1.47.77,3.82,2.43,2.39Z"/><path class="grapefruitcls-3" d="M308.93,383.11c1.57-2.88,3.46-5.56,5.15-8.36a1.27,1.27,0,0,0-2-1.52,39.72,39.72,0,0,0-5.77,8.37c-.94,1.69,1.7,3.2,2.62,1.51Z"/><path class="grapefruitcls-3" d="M366.91,401.41c-1.9-14-.83-28.67-4.34-42.37a1.43,1.43,0,0,0-2.79.37,372.31,372.31,0,0,0,3.81,42.44c.29,1.83,3.57,1.41,3.32-.44Z"/><path class="grapefruitcls-3" d="M384.67,391.4c-1.2-1.73-2-3.65-3.2-5.39-.86-1.25-3.23-.91-3.12.83a13.67,13.67,0,0,0,2.66,6.67c1.49,2.25,5.2.12,3.66-2.11Z"/><path class="grapefruitcls-3" d="M390.32,324.24c15.05,4.35,28,14.3,42.76,19.48,1.87.65,3.1-2.25,1.35-3.16-13.63-7-28.21-15.78-43.1-19.9a1.86,1.86,0,0,0-1,3.58Z"/><path class="grapefruitcls-5" d="M204,308c28.27,1.29,56.66.73,84.94,1.23,16.42.28,32.84.53,49.26.88s33.26,1.7,49.81,1c4.26-.17,4.18-6.13,0-6.45-16.51-1.27-33.26-.57-49.81-.86s-32.84-.66-49.26-.93c-28.23-.46-56.72-1.88-84.94-.33a2.71,2.71,0,0,0,0,5.42Z"/><path class="grapefruitcls-5" d="M100.76,158a15.2,15.2,0,0,0-7.56,9c-2.1,6.81,3.68,12,10.12,8.63,3.66-1.92,7.3-5.42,8.37-9.52C113.39,159.62,106.28,155.44,100.76,158Zm3.62,7.25,0-.06C104.61,165.18,104.64,165.69,104.38,165.26Z"/><path class="grapefruitcls-5" d="M147.53,130.72c-4.42-1.13-8.19,1.63-10.34,5.28-1.19,2-2.25,4.78-1.65,7.14.83,3.25,4.51,4.07,7.43,3.85a10.41,10.41,0,0,0,8.53-5.31C154.08,137.48,152.52,132,147.53,130.72Zm-5.14,9.05-.07,0h.07Zm3-1.5h0C145.65,138,145.59,138.45,145.43,138.27Z"/><path class="grapefruitcls-5" d="M149.16,177c-4.59-3.62-11.16.11-11.74,5.5-.35,3.18-.77,8.81,4,8a14.21,14.21,0,0,0,7.76-4C151.8,183.76,152.29,179.44,149.16,177Zm-3.79,6.43c-.08-.17.23-.08,0,0Z"/><path class="grapefruitcls-5" d="M181.93,76.09h-.18c.78,0,2.6,10.36,2.74,11.16a119.93,119.93,0,0,1,1.39,12.09c.09,1.3-.37,10.73,0,10.9a25.44,25.44,0,0,1-7.7-5.9c-3.88-4.24-9.94,2-6.26,6.26,11.18,13,33.77,17.18,45.44,2.34,2.43-3.09-.53-7.71-4.37-5.66a49.36,49.36,0,0,1-8.71,3.72c2.61-18.48,1.34-37-1.74-55.35-1.5-9-4.66-26.09-17.09-24.73l-.33,0c-12.59,1.65-9.74,17.34-7.89,25.79C178.64,63.23,180.37,69.65,181.93,76.09Zm1.62-35.61c4.73-5.21,10.18,4.05,11.23,7.79,3,10.51,3.52,21.53,3.46,32.39a311.31,311.31,0,0,1-1.44,31.74,24.3,24.3,0,0,1-2.7,0c2.75-21.73-4.41-43.58-11-64C182.28,45.86,181.53,42.71,183.55,40.48Z"/><path class="grapefruitcls-3" d="M57.31,297.66c3.46.12,7,.47,10.42,0,2.31-.33,4-3.06,4-5.22s-1.66-4.89-4-5.22c-3.44-.5-7-.14-10.42,0-6.74.23-6.75,10.25,0,10.48Z"/><path class="grapefruitcls-3" d="M57.31,327.33c4,.05,9.22.54,12.31-2.41a4.77,4.77,0,0,0,0-6.67c-3.09-2.94-8.3-2.45-12.31-2.4a5.74,5.74,0,0,0,0,11.48Z"/></g></g></svg>