<svg xmlns="http://www.w3.org/2000/svg" viewBox="0 0 512 512"><defs><style>.grapescls-1{fill:#c0c728;}.grapescls-2{fill:#72ab4c;}.grapescls-3{fill:#4a2d2d;}.grapescls-4{fill:#fff;}.grapescls-5{fill:none;}</style></defs><g id="Capa_2" data-name="Capa 2"><g id="bocetos"><path class="grapescls-1" d="M132,390.13S103.69,392.64,97.6,417s9.67,49.43,44.78,47.28,48.72-41.91,48.36-49.79-15.76-29-31.52-29.38A66.72,66.72,0,0,0,132,390.13Z"/><path class="grapescls-1" d="M191.1,358.25c-2.94-11.75-3.94-27.94-39-31.53s-48.36,28.3-42.27,50.15,24.72,29,44.78,30.1S198.62,388.34,191.1,358.25Z"/><path class="grapescls-1" d="M169.61,367.56c-11.11,21.49-1.08,54.81,31.52,61.62S250.21,408,253.07,395.5s-2.78-36.85-16.12-44.42C210.44,336,180.71,346.07,169.61,367.56Z"/><path class="grapescls-1" d="M295.7,296.27s-25.07-3.22-43,14-15,60.54,12.54,72.72,53.38-8.95,64.48-26.5,5.38-38-1.79-46.93S307.52,295.56,295.7,296.27Z"/><path class="grapescls-1" d="M202.56,215.31S189,170.89,147.4,178.42s-40.13,59.1-29.74,71.64S147,275.5,179.28,267.62,202.56,215.31,202.56,215.31Z"/><path class="grapescls-1" d="M263.1,225.35s25.08-21.5,61.62.35,27.58,63.41-2.15,75.95-52.3,1.43-64.48-19-9.67-39.76-9.67-39.76Z"/><path class="grapescls-2" d="M393.09,174.5c-1.79-12.61-18.41-17.29-30.53-19.39,10.48-5.72,24.16-15.58,23.67-27-.62-14.41-20.82-11.65-29.94-9.52-17.88,4.18-33.89,14.13-50.35,21.87a451,451,0,0,1-59.81,22.93c-.22-.05-.44-.12-.67-.16a2.53,2.53,0,0,0-2.94,1.24,3.1,3.1,0,0,0,.14-1,1.91,1.91,0,0,0,1.08-1.33A164.78,164.78,0,0,0,248.88,105c-1.34-14.79-3.68-33.26-13.59-45.08-8.87-10.57-19-7.2-25.75,3.48C201,77,201.19,91.17,201.11,106.24a73,73,0,0,0-29.93-18c-8.9-2.77-23.05-5.85-30.15,2.24-6.88,7.84-3.7,19,2.16,26.24s14.06,12.67,22.91,16c-6.38.85-12.54,2.84-17.64,6.88-7.18,5.69-10.92,15.18-1.86,20.94,11.48,7.3,27.35,7.46,40.44,7.53,17.58.08,35.23-.38,52.78-1.42a2.86,2.86,0,0,0,2.47-1.57,2.82,2.82,0,0,0,1.75,3.32c18.33,7.69,34.73,19.84,51.1,31,14.38,9.77,28.53,21.08,45.34,26.35,11.33,3.55,27.87,4.75,35.4-6.59,7-10.52,2.54-22.52-5.05-31.08C381.11,188.17,395,188.18,393.09,174.5Z"/><path class="grapescls-3" d="M348.76,89.57c-14.74-1.15-31.1,4-44.49,9.69a129.65,129.65,0,0,0-39,26c-11.38,10.89-20.78,23.16-27.49,37.46-5.85,12.47-12.52,29.53-10,43.52.7,3.9,5.77,2.89,6.94,0,2.56-6.34,3.1-13.55,4.93-20.16a132.57,132.57,0,0,1,7.73-20.77c6-12.84,14.25-25.43,24.47-35.33a119.71,119.71,0,0,1,37.49-24.17c13.23-5.44,26.53-6.82,40.37-9.55,4-.79,2.7-6.41-.91-6.69Z"/><path class="grapescls-3" d="M178.91,116.7c23.3,10.48,41.94,25.44,59.81,43.43,1.29,1.31,3.81-.48,2.62-2-15.38-20-38-34.9-61.34-44-1.47-.57-2.54,1.91-1.09,2.56Z"/><path class="grapescls-3" d="M249.24,166.81c18.54-1.19,37.32-2.92,55.91-2.7,7.4.09,14.83.37,22.19,1.09s14.37,3.07,21.63,4.07c1.88.26,3.13-2.05,1.35-3.2-5.22-3.36-12.75-3.65-18.79-4.35a214.7,214.7,0,0,0-23.64-1.42c-19.6-.1-39.14,2.59-58.65,4-1.57.11-1.59,2.56,0,2.46Z"/><path class="grapescls-1" d="M200.41,282.3s-6.44-29.73-38.33-33.67-59.46,31.17-51.58,54.45,30.09,33,56.6,30.09,33-32.6,33.31-36.54S200.41,282.3,200.41,282.3Z"/><path class="grapescls-1" d="M267.53,319.46c2.46-16.76-3.89-33.84-22.36-41.47-27.7-11.45-51.7-.74-63.52,13.66S170.83,351.59,203.44,360c16.55,4.26,34,2.39,47.18-9.19A52.5,52.5,0,0,0,267.53,319.46Z"/><path class="grapescls-1" d="M231.22,193.46c-35.82-7.52-53.38,30.09-53.38,47.29s23.29,44.78,50.16,48,38.56-17.08,43-27.22C282.09,236.09,267,201,231.22,193.46Z"/><path class="grapescls-3" d="M319.65,300c-11.55,3.32-21.25,6.87-33.46,3.45-11-3.08-19.6-10.77-25.35-20.41a43.16,43.16,0,0,0,5.25-4.89c12.92-14.24,16.76-39.78,6.88-56.53-2-3.37-7-.39-5.23,3.06,7.88,15.25,5.13,37.42-6.77,50-12.45,13.21-31.66,15.71-48.06,8.95a53.91,53.91,0,0,1-28.52-27.52,2,2,0,0,0-.43-1.33l-.21-.26a46.12,46.12,0,0,1-2.36-7.74c-3.79-18.48,4.29-31.76,18-43.2,2-1.66-.55-4.27-2.58-3.35-16.63,7.57-23.86,31.09-20.36,47.9,0,.19.09.37.13.55-14.77-7.56-38.72-.29-49.73,9.22-2,1.68.64,5.11,2.78,3.6a52.68,52.68,0,0,1,23.95-9.24c10.06-1.35,17.44.47,25.82,5.37a57.21,57.21,0,0,0,15,20.87c-17.66,9.91-27.11,26.77-23.28,47.42a51.88,51.88,0,0,0,1.63,6.44,1.93,1.93,0,0,0-.48,0c-12.38,2.09-29.38,3.06-40.12-5.47-2.67-2.12-6.42,1.35-3.85,3.85,9.94,9.64,34.31,14.55,45.9,5.55A51.24,51.24,0,0,0,182.5,350c-13.05,8.75-21.48,23-21,39.12a49.34,49.34,0,0,0,3,15c-7.34.2-13.88,1.05-21.5-.6a59.75,59.75,0,0,1-24.58-11.67c-2.31-1.87-5.34.72-3.18,3.55,6.57,8.63,16.41,13.65,26.84,16.12,7.32,1.73,18.13,2.81,25-1.44,4.29,8.48,10.9,15.7,19.42,17.72a2.82,2.82,0,0,0,2.72-4.67c-4.6-5.13-10.18-8.62-14-14.6a40.08,40.08,0,0,1-6.26-19.37c-.69-13.71,6.34-27.21,17.33-35.17a46.19,46.19,0,0,0,19.53,11,47.94,47.94,0,0,0,35.39-4c2.33,2.45,4.7,4.82,6.28,7.84,1.74,3.31,3.61,8.73,5.56,11.9,1.27,2.07,3.73,1.39,4-.79.77-7.12-5.88-16.5-11.09-21.71a59.64,59.64,0,0,0,11-9.48c10.34-11.34,16.53-30.88,12.91-46.93,15.18,11.82,37.15,16.09,52.8,3.32C325.05,303.08,322.42,299.17,319.65,300ZM264,317.3a48.34,48.34,0,0,1-8.34,24.34c-9.93,14.47-28.49,20.41-45.49,16.72-15.25-3.3-28.06-15.72-32.46-30.63-5.76-19.54,3.84-36.17,20.82-45.65.08,0,.14-.1.21-.14a58.52,58.52,0,0,0,14.78,7.89c14.12,5.06,30.3,3.88,43-3.82a43.7,43.7,0,0,0,4.78,7.31C262.23,301.44,264.49,308.89,264,317.3Z"/><path class="grapescls-4" d="M154.79,187.76c-7.58-.65-14.47,2.54-20,7.63-4.81,4.46-10.41,13-6.63,19.55a4.49,4.49,0,0,0,6.09,1.59c4.19-2.79,5.57-8.2,9-11.83a29.56,29.56,0,0,1,12.8-7.52c5.33-1.68,4-9-1.27-9.42Z"/><path class="grapescls-4" d="M221.14,206a25.32,25.32,0,0,0-18.22,10c-4,5.23-9.57,15.53-5.17,21.78a4.07,4.07,0,0,0,5.39,1.42c5-2.38,6-9.17,8.38-13.63s5.92-8,11.06-8.92c5.94-1.12,4.66-11.22-1.44-10.65Z"/><path class="grapescls-4" d="M317.3,248a20.27,20.27,0,0,1,4.19,10.76c.39,3.86-.74,7.71.25,11.5s5.55,4.56,8.27,2.19c9.32-8.15,1.87-25-5.14-32-5-5-11.8,2.32-7.57,7.57Z"/><path class="grapescls-4" d="M144.15,263.25c-10.85,4.41-24.47,19.58-16.72,32a4,4,0,0,0,7.21-.95c1.5-4.18,1.57-8.68,3.65-12.74a20.11,20.11,0,0,1,9.7-9.24c5-2.38,1.41-11.24-3.84-9.1Z"/><path class="grapescls-4" d="M193.51,301.42c-5.46,7.62-9,22-.09,28.45,2.32,1.69,6.4,0,6.9-2.81.63-3.61-.45-6.84-.67-10.43A18.29,18.29,0,0,1,202,306.39c3.12-5.64-4.85-10-8.49-5Z"/><path class="grapescls-4" d="M307.88,332a15.54,15.54,0,0,1-1.46,8.74c-1.34,2.92-3.78,5.24-5,8.15s.08,7.58,4.08,7.12c12.25-1.43,16-17,13.64-27.11-1.73-7.45-12.4-4.15-11.25,3.1Z"/><path class="grapescls-4" d="M187.62,367.89c-6.13,7-11.59,21.48-3.06,28.77,1.93,1.66,6,1.43,6.43-1.69.54-3.7-.2-7.18.08-10.86a19,19,0,0,1,4.18-10.34c3.34-4.35-4-10-7.63-5.88Z"/><path class="grapescls-4" d="M128.92,347.64c-5.18,7.35-8.6,17.65-5.16,26.41,1.85,4.72,9.51,4.52,9.41-1.28-.13-7.45-1-14.31,2.18-21.38a3.72,3.72,0,0,0-6.43-3.75Z"/><path class="grapescls-4" d="M109.69,420c-4.92,8.21-3.76,26.18,8.84,26.58,2.36.08,4.62-2.56,3.74-4.91-2.09-5.6-7.32-10.35-4.2-16.77,2.7-5.57-5.14-10.33-8.38-4.9Z"/><rect class="grapescls-5" width="512" height="512"/></g></g></svg>