<svg xmlns="http://www.w3.org/2000/svg" viewBox="0 0 512 512"><defs><style>.green-peascls-1{fill:#4a2d2d;}.green-peascls-2{fill:none;}</style></defs><g id="Capa_2" data-name="Capa 2"><g id="bocetos"><path class="green-peascls-1" d="M373.05,206c18.8-30.36,21.15-74.26-4.11-101.81-30.3-33.07-88.46-35.95-121-4.29-.64.63-1.27,1.26-1.87,1.92-12.9,13.88-18.48,34.27-19.83,52.75-2.71,37.23,16.17,78,54,89.42C316.27,254.79,353.79,237.08,373.05,206ZM235.64,170.39C234.15,152,237.1,131,246.5,114.87c9.62-16.52,28.89-23.33,46.84-25.95,20-2.92,40.7.77,57.41,12.43,26.89,18.76,32.51,54.23,21.81,83.88-11.07,30.67-40.3,54.57-73.89,52.84C262.73,236.23,238.41,204.43,235.64,170.39Z"/><path class="green-peascls-1" d="M222.12,270.18c4-10.84.38-24.78-10.85-29.45-8.11-3.37-21.72-2-27.44,5.55a86.63,86.63,0,0,0-56,5.63,81.14,81.14,0,0,0-25.67,18.84C77.61,297.79,70,345.45,94.61,375c25.24,30.27,76.15,37.1,111,21.31,34-15.4,48.53-55.42,37.15-90.26A100.85,100.85,0,0,0,222.12,270.18Zm-14.23-21.45c6.27,2.79,6.76,8.09,6.32,13.64a79.54,79.54,0,0,0-14.73-10.18,62.78,62.78,0,0,0-5.83-2.7A15.91,15.91,0,0,1,207.89,248.73Zm9.44,126.32c-25.38,23.38-70.73,24.31-99.52,6.76-31.86-19.4-35.06-63.08-17.6-93.59A73.69,73.69,0,0,1,146,254c21-5,43.72,3.22,60.86,15.31A67.74,67.74,0,0,1,228.45,295C241,320.64,239.25,354.86,217.33,375.05Z"/><path class="green-peascls-1" d="M418.35,308.37a93.52,93.52,0,0,0-42.77-36c-24.76-10.32-53.26-9.17-74.57,11-23.85,22.58-30.1,61.79-16.71,91.47C298.33,406,334.47,438,370.6,434c34.17-3.83,57-32.38,61.2-65.26A92.8,92.8,0,0,0,418.35,308.37ZM381.2,421c-30.81,10-61.22-13.15-78.61-36.8-8.43-11.47-16.07-25.5-16.5-40.06a77.62,77.62,0,0,1,10.39-40.67,56.92,56.92,0,0,1,30.85-25.39c14.86-5,29.17-5.23,43.35,2A105.12,105.12,0,0,1,405,308.23,76.34,76.34,0,0,1,421.24,350C423.3,379,410.75,411.36,381.2,421Z"/><path class="green-peascls-1" d="M327.78,221.45c8.53-.87,20.45-5.07,22.61-14.59a3.5,3.5,0,0,0-5.07-3.9c-3.16,1.65-5.64,4.42-8.61,6.36a31.37,31.37,0,0,1-10,4.45C322.56,214.79,323.33,221.91,327.78,221.45Z"/><path class="green-peascls-1" d="M331.36,202.37a30.33,30.33,0,0,0,4.87-3.32c1.46-1.2,3.32-2.93,3.64-4.87.36-2.2-1.37-4.66-3.86-3.86-1.8.58-3.12,2.07-4.53,3.28a21.16,21.16,0,0,1-3.78,2.5C323.59,198.32,327.25,204.59,331.36,202.37Z"/><path class="green-peascls-1" d="M201.11,361.35c-3.45,2.33-5.67,5.88-9.37,8.06-4.21,2.49-9.05,3.48-13.83,4.22-4,.62-3.11,7.46,1,7.13,6.14-.51,12.24-1.51,17.73-4.45,4.4-2.36,9.35-6.86,9.34-12.19C205.93,361.81,203.17,360,201.11,361.35Z"/><path class="green-peascls-1" d="M177.11,363.2a11.09,11.09,0,0,0,3.76-1.47c1.5-.93,3.17-2.48,3.5-4.29a4.35,4.35,0,0,0-1.07-4.06,4.15,4.15,0,0,0-4.06-1.07,7.8,7.8,0,0,0-1.27.5q-1.41,1.11-.66.51.38-.29.09-.09a10.67,10.67,0,0,0-1.08.72l-.47.26c-.37.11-1,.28-1.14.3a4.54,4.54,0,0,0-3.15,5.54A4.64,4.64,0,0,0,177.11,363.2Zm-1.44-8.88Zm.22-.12c.11-.05.21-.09.22-.07A.72.72,0,0,1,175.89,354.2Z"/><path class="green-peascls-1" d="M387.76,394.36c-3.19,2.57-5.25,5.72-9.14,7.54a20.41,20.41,0,0,1-12,1.77,3.84,3.84,0,0,0-2.05,7.4c10.11,3.67,27.64-.35,30-12.77C395.3,394.17,390.94,391.79,387.76,394.36Z"/><path class="green-peascls-1" d="M368.5,386.21h0C368.18,386.14,368.3,386.19,368.5,386.21Z"/><path class="green-peascls-1" d="M366.94,393.76a7,7,0,0,0,4.29.16,6.33,6.33,0,0,0,2.53-1.41,5,5,0,0,0,1.5-3.42,3.57,3.57,0,0,0-1.5-3,3.91,3.91,0,0,0-3.3-.68,6.15,6.15,0,0,0-1.93.77l.11,0a.08.08,0,0,0-.05,0h-.11a3.86,3.86,0,0,0-4.24,2.77,3.9,3.9,0,0,0,.39,3A4.56,4.56,0,0,0,366.94,393.76Zm1.74-7.51h.08l.24.05A1.65,1.65,0,0,0,368.68,386.25Zm0,0h0Z"/><rect class="green-peascls-2" width="512" height="512"/></g></g></svg>