<svg xmlns="http://www.w3.org/2000/svg" viewBox="0 0 512 512"><defs><style>.green-beancls-1{fill:#4a2d2d;}.green-beancls-2{fill:none;}</style></defs><g id="Capa_2" data-name="Capa 2"><g id="bocetos"><path class="green-beancls-1" d="M97,362.24A171.82,171.82,0,0,0,134.53,342c24.92-17.34,46.05-38.73,66.08-61.39,19.67-22.27,38.31-45.46,54.95-70.1,18.43-27.3,30.5-59.14,32.38-92.26.92-16-2.64-30.73-8.81-45.42-6.75-16-14.93-29.83-16.93-47.47-.19-1.73-1.46-3.76-3.52-3.53-5.3.6-8.48,4.06-10.13,9.11C246.78,36.35,254.07,50.72,254,64c-.39,53.6-34.2,110.44-66.95,150.11a418.11,418.11,0,0,1-58.34,58.54A400,400,0,0,1,94,298.06c-11.74,7.6-24.26,13.65-36.23,20.81-9.49,5.69-18.2,14.21-18.71,25.93-.45,10.54,7.09,19.38,16.82,22.69C69.18,372,84.46,367,97,362.24Zm-46.41-9.7c-7.06-8.62.73-18.21,8.16-23.29,10.68-7.3,23-12.45,34.07-19.21a411.33,411.33,0,0,0,52-37.54c.5.57,1,1.1,1.57,1.65q1.67,1.73,3.26,3.53c1.05,1.2,2.11,2.41,3.21,3.57a8.71,8.71,0,0,0,1.91,1.73c.31.17.62.28.92.47a3.84,3.84,0,0,0,1.06.51.53.53,0,0,0,.67-.51,3.44,3.44,0,0,0-.26-1.13c-.14-.4-.21-.8-.34-1.19a8.89,8.89,0,0,0-1.53-2.32,43.9,43.9,0,0,0-3.55-3.92c-1.23-1.21-2.49-2.38-3.77-3.53-.3-.26-.6-.53-.92-.78A375.42,375.42,0,0,0,178.63,240q1.51,1.78,3.07,3.56c.78.9,1.49,1.87,2.28,2.76.42.47.85.93,1.29,1.37a4.39,4.39,0,0,0,1.31,1h0a7.14,7.14,0,0,0,1,.53,1,1,0,0,0,1.29-1,2.69,2.69,0,0,0,0-.49,1.37,1.37,0,0,0-.08-.35c0,.1,0,.19,0,.29a2.42,2.42,0,0,0-.33-1.6,18.35,18.35,0,0,0-1-1.72,25.1,25.1,0,0,0-2.71-3.31,29.58,29.58,0,0,0-3.87-3.55,347.52,347.52,0,0,0,22.22-27.23c1.38-1.89,2.74-3.79,4.1-5.69,1,.86,1.9,1.76,2.77,2.71,1.25,1.37,2.4,2.83,3.64,4.21.69.75,1.68,2,2.82,1.62a1.5,1.5,0,0,0,.85-2,13,13,0,0,0-.69-1.4,17.88,17.88,0,0,0-3.87-4.36,44.84,44.84,0,0,0-3.92-3c6-8.45,11.77-17.06,17.19-25.89.84-1.36,1.66-2.73,2.48-4.1,1.12.82,2.18,1.72,3.24,2.65.86.76,1.68,1.58,2.51,2.38s1.79,2,3,2.28a6.89,6.89,0,0,0,1.06.51.82.82,0,0,0,1-.79,5.31,5.31,0,0,0-.29-1.3c-.08-1.26-1.14-2.34-2-3.22a23.9,23.9,0,0,0-3.06-2.62,25,25,0,0,0-4-2.39,290.85,290.85,0,0,0,15.77-30.73c.82-1.86,1.6-3.74,2.36-5.63a39.74,39.74,0,0,1,4.28,2.27l2.75,1.73a5.66,5.66,0,0,0,1.89.82c.21,0,.3.13.61.21a3.51,3.51,0,0,0,.92.1,1,1,0,0,0,.91-1.2c-.74-2.41-3.21-3.78-5.34-4.85a44.58,44.58,0,0,0-4.84-2,187,187,0,0,0,9.23-31.05,144.6,144.6,0,0,0,2.73-22.9c.41-11.18.34-23.39-4.45-33.73a18,18,0,0,1-1.95-5.37,15.21,15.21,0,0,1,.31-3.8c.34-2.41,1.72-4.23,1.59-5,3.83,23.27,17.75,45.74,22.22,69.05,5.46,28.45-5.13,61.6-18.45,86.53-13.65,25.56-32.48,49-51,71.17-18.09,21.56-36.83,42.94-58.28,61.24-21.79,18.58-47.7,36.2-76.38,41.53C66.45,359.83,56.33,359.59,50.55,352.54Z"/><path class="green-beancls-1" d="M382,199.6c13.44-30.08,19.81-63.53,15.93-96.47-1.87-15.91-7.92-29.81-16.54-43.21C372,45.3,361.55,33.12,356.53,16.09c-.49-1.66-2.09-3.44-4.08-2.86-5.12,1.51-7.64,5.47-8.4,10.72-.81,5.65,8.87,18.54,11.08,31.68,8.9,52.86-14.57,114.69-39.95,159.43a419.31,419.31,0,0,1-47.33,67.75,397.3,397.3,0,0,1-29.74,31c-10.24,9.52-21.53,17.64-32.08,26.77-8.37,7.24-15.47,17.14-13.94,28.77,1.38,10.46,10.33,17.86,20.49,19.43,13.84,2.14,28-5.47,39.51-12.26a172.24,172.24,0,0,0,33.51-26.45c21.54-21.39,38.64-46.12,54.45-71.91C355.57,252.82,369.91,226.75,382,199.6ZM229.52,376.46c-7.89,3-17.9,4.46-24.81-1.48-8.45-7.27-2.43-18.06,4-24.35,9.26-9,20.5-16.24,30.24-24.81a411.77,411.77,0,0,0,44.74-46,6.81,6.81,0,0,1,.88.64c.66.53,1.37,1,2.06,1.5,1.3.93,2.58,1.9,3.84,2.89s2.59,2.05,3.92,3a7.56,7.56,0,0,0,2.15,1.35,11.75,11.75,0,0,0,2.16.6.53.53,0,0,0,.51-.67,3.54,3.54,0,0,0-.44-1c-.2-.36-.32-.76-.53-1.12a8.56,8.56,0,0,0-1.86-1.94,47.78,47.78,0,0,0-4.4-3.36q-2.16-1.47-4.39-2.83a12,12,0,0,0-2.21-1.11,377.44,377.44,0,0,0,26.07-35.94c.53.43,1.05.88,1.57,1.3,1,.82,2,1.59,2.9,2.33s2,1.73,3,2.51a9.89,9.89,0,0,0,2.91,1.84,3.64,3.64,0,0,0,1.21.38,1,1,0,0,0,1-1,3.32,3.32,0,0,0-.3-1,2.22,2.22,0,0,0-.27-.81c-.21-.32-.48-.62-.72-.93a17.52,17.52,0,0,0-1.29-1.43,30.89,30.89,0,0,0-3.21-2.6,28,28,0,0,0-5.24-3.1,353,353,0,0,0,17.25-30.81c1-2.09,2-4.19,3-6.29a37.68,37.68,0,0,1,4.33,2.86c.13.1.64.5.9.72s.75.64,1.14.95l1,.83c.24.2.49.38.74.57l.56.42c.85.65,2.11,1.67,3.16.87,1.23-.94.05-2.31-.61-3.16a16.36,16.36,0,0,0-4.75-3.75,42.9,42.9,0,0,0-5.36-2.63c4.47-9.41,8.7-18.94,12.53-28.63q.86-2.18,1.69-4.37a41.55,41.55,0,0,1,4.77,2.6c1,.62,2,1.3,3,2a6.87,6.87,0,0,0,3,1.51,7.13,7.13,0,0,0,1.09.32.84.84,0,0,0,1-1,4.8,4.8,0,0,0-.47-1.1c-.26-1.26-1.64-2.18-2.61-2.89a21.59,21.59,0,0,0-3.28-1.94,30.28,30.28,0,0,0-5.54-2A291.34,291.34,0,0,0,360,131.09c.45-1.87.88-3.76,1.29-5.64a41.55,41.55,0,0,1,5.41,1.64c2,.77,4.21,2,6.47,1.76a1,1,0,0,0,.82-1.43,6.48,6.48,0,0,0-1.1-1.39,5.24,5.24,0,0,0-1.67-1.11,28,28,0,0,0-3.45-1.29,43.44,43.44,0,0,0-5.85-1.23,186.65,186.65,0,0,0,3.79-32.55,145.28,145.28,0,0,0-1.27-23c-1.53-11.08-3.72-23.09-10.22-32.45a17.9,17.9,0,0,1-2.85-4.95,15.52,15.52,0,0,1-.36-3.79c-.07-2.44,1-4.47.71-5.21,7.79,22.26,25.39,42,33.83,64.17,10.31,27.07,5.62,61.55-3.19,88.41-9,27.54-23.5,53.92-38,78.93-14.08,24.37-28.83,48.67-46.79,70.4C279.31,344.41,256.85,366.25,229.52,376.46Z"/><path class="green-beancls-1" d="M467,141.08c-4.2-15.46-12.25-28.32-22.76-40.29-11.48-13.07-23.61-23.57-31.09-39.66-.74-1.58-2.58-3.1-4.46-2.23-4.84,2.25-6.75,6.54-6.72,11.85,0,5.7,11.51,17,15.64,29.68,16.62,51,2.56,115.59-15.93,163.59a418.66,418.66,0,0,1-36.78,74,398.82,398.82,0,0,1-24.83,35c-8.72,10.93-18.69,20.64-27.77,31.22-7.2,8.41-12.76,19.25-9.53,30.52C305.72,445,315.67,451,326,451c14,.07,26.9-9.55,37.26-18a172.07,172.07,0,0,0,29.23-31.11c18.14-24.34,31.39-51.33,43.21-79.17,11.61-27.35,21.93-55.26,29.91-83.9C474.39,207.1,475.74,173.08,467,141.08Zm-5.15,71.41C457,241.07,446.62,269.3,436,296.17c-10.32,26.18-21.32,52.4-35.87,76.55-14.77,24.53-33.76,49.45-59.28,63.59-7.36,4.09-17,7.07-24.75,2.21-9.43-5.93-5.08-17.49.35-24.67,7.82-10.31,17.88-19.1,26.23-29a411.27,411.27,0,0,0,37.38-52l.29.17c.65.37,1.32.68,2,1,1.46.75,2.9,1.55,4.32,2.37s2.76,1.6,4.16,2.34a9.39,9.39,0,0,0,2.24,1c.4.09.81.1,1.21.19a3.86,3.86,0,0,0,1.06.14.55.55,0,0,0,.51-.67,2.8,2.8,0,0,0-.45-.81c-.16-.2-.33-.4-.48-.61l0-.05a1,1,0,0,0-.09-.16,6.5,6.5,0,0,0-2.1-1.9,35.81,35.81,0,0,0-4.7-2.68q-2.37-1.17-4.79-2.2c-.53-.22-1.08-.46-1.63-.65a377.62,377.62,0,0,0,20.31-39.07c1.41.85,2.82,1.69,4.25,2.52,1.05.62,2.06,1.33,3.12,1.93.55.31,1.1.61,1.67.89a3.92,3.92,0,0,0,1.69.58,3.16,3.16,0,0,0,.92.15,1,1,0,0,0,1-1.28,3.69,3.69,0,0,0-.5-1,7.09,7.09,0,0,0-2.38-2.43,25.92,25.92,0,0,0-3.55-2.2,30,30,0,0,0-4.9-2.14,352.13,352.13,0,0,0,12.51-33c.7-2.18,1.37-4.37,2-6.55a39.45,39.45,0,0,1,3.87,1.88c1.61.92,3.15,2,4.8,2.83.93.48,2.27,1.29,3.17.39,1.06-1.06-.2-2.32-1-3a18.16,18.16,0,0,0-5.22-3,39.35,39.35,0,0,0-4.81-1.61c3-10,5.8-20,8.15-30.19q.53-2.25,1-4.5a40.84,40.84,0,0,1,4.54,1.74c1.15.51,2.3,1.06,3.43,1.64a10,10,0,0,0,2,.83,1.66,1.66,0,0,0,.8,0l.16,0a4.13,4.13,0,0,0,.92.11c.48,0,1-.54.8-1a4.37,4.37,0,0,0-.41-.77c-.22-.31-.31-.63-.54-.94a5.72,5.72,0,0,0-1.74-1.39,24.59,24.59,0,0,0-4-1.81,27.24,27.24,0,0,0-5.35-1.2,293.28,293.28,0,0,0,5.27-34.36q.26-2.92.44-5.87a38.4,38.4,0,0,1,4.78.78c2.18.51,4.54,1.41,6.76.77a1,1,0,0,0,.57-1.39c-1.48-2-4.11-2.57-6.48-2.91a45.29,45.29,0,0,0-5.45-.42,185.8,185.8,0,0,0-1.08-32.59,143.76,143.76,0,0,0-4.66-22.59c-3.15-10.73-7.09-22.28-14.9-30.58A17.8,17.8,0,0,1,410,75.07a15,15,0,0,1-.91-3.69c-.44-2.4.29-4.56-.08-5.25,11,20.86,31.33,37.76,43,58.45C466.17,149.83,466.63,184.63,461.89,212.49Z"/><path class="green-beancls-1" d="M142.42,402.89c-8-6.62-20.38-9.3-30.92-6.66a25.57,25.57,0,0,0-14.83,9.63c-2.48,3.42-3.32,7.23-3.48,11.38-.34,8.77-.72,15.29-7.19,21.86-8,8.12-19.33,12.72-25.37,22.8-4.75,7.94-4,17.23,1.39,24.64,12.53,17.24,41.41,14.37,57.36,3.89,9-5.93,15.78-14.62,22-23.27,6.7-9.28,12.81-19.35,14.53-30.85C157.82,423.74,152.08,410.9,142.42,402.89Zm-2.54,48.37c-10.65,18.82-25.49,36.5-48.44,38.08-11.22.77-29.42-6-23.7-20.83,3.78-9.75,15.1-14.7,22.45-21.43,5.53-5.06,10.17-11.38,10.85-19,.53-5.89-1.72-11.13,1.72-16.51,9.14-14.26,34-5.82,40.78,6.6C149.28,428.72,145.4,441.51,139.88,451.26Z"/><path class="green-beancls-1" d="M242.56,436.27c-7.61-6.12-18.44-5-27.15-2.24-11.23,3.62-22.32,7.65-33.38,11.78-9,3.35-16.85,6.83-21,16.11a24.54,24.54,0,0,0,4.46,26.71c7.47,8,18.7,9.14,29.07,7.78,12.27-1.61,25.06-6,36.29-11.15,9.21-4.21,18.34-11.87,20.36-22.28C253.14,453.28,250.4,442.58,242.56,436.27Zm-8.65,35c-11.42,9.43-29,15.29-43.72,15.95-8.33.36-17.13-.88-21.14-9.28-4.09-8.58.62-17.82,8.57-21.81a168.41,168.41,0,0,1,27.61-11.36c10.21-3,27.5-9,35,2C246.17,455.53,241.14,465.28,233.91,471.25Z"/><rect class="green-beancls-2" width="512" height="512"/></g></g></svg>