<svg xmlns="http://www.w3.org/2000/svg" viewBox="0 0 512 512"><defs><style>.junipercls-1{fill:none;}.junipercls-2{fill:#6a8c2a;}.junipercls-3{fill:#4a2d2d;}</style></defs><g id="Capa_2" data-name="Capa 2"><g id="bocetos"><rect class="junipercls-1" width="512" height="512"/><path class="junipercls-2" d="M309.07,32.39c1.58,17.9,2.58,35.8,3.6,53.73s-.27,36.14,1.46,53.89c.3,3,5.14,4.31,5.79.79,3.25-17.59,2.3-36.84,1.94-54.68-.36-18.34-2.45-36.64-5.21-54.75-.65-4.27-8-3.31-7.58,1Z"/><path class="junipercls-2" d="M404,56.55c-10.36,9.6-21.23,18.65-32.37,27.33-10.2,8-22.81,14.52-31.6,24-1.92,2.07-.06,6.11,2.94,5.05,12-4.27,22.7-14,32.65-21.77a439.74,439.74,0,0,0,33.47-29.5c3.34-3.22-1.7-8.22-5.09-5.08Z"/><path class="junipercls-2" d="M411.16,84.58c-13.34,12.14-27,23.91-41.19,35.08s-29.88,20.43-43.25,32.28c-3.29,2.92.9,7.48,4.45,5.76,15.75-7.6,30-19.83,43.7-30.6q22-17.28,42.23-36.57c3.94-3.75-2-9.58-5.94-6Z"/><path class="junipercls-2" d="M286.18,78.72c9.48,26.08,15.14,53.58,25.14,79.38,1.1,2.82,6.12,2.8,5.79-.79-2.56-27.55-13.33-55-23-80.76-1.83-4.87-9.7-2.81-7.89,2.17Z"/><path class="junipercls-2" d="M258.57,116.79C264.22,135,269,153.66,272.92,172.3a263.18,263.18,0,0,1,4.61,29.16c.77,8.2.42,16.2,3.9,23.8,1.12,2.44,5,2.24,6.2,0,7.74-14.74,1.35-37.27-2.33-52.56-4.81-19.95-12.82-38.62-19.95-57.78-1.55-4.17-8.14-2.52-6.78,1.87Z"/><path class="junipercls-2" d="M410.92,143.66c-17.67,12-36.34,22.84-55,33.22-17.59,9.8-38.32,16.74-54.23,29.08-3.24,2.52.45,6.64,3.57,6.13,19.64-3.2,39.13-16,56.25-25.66,18.83-10.58,36.27-22.73,53.65-35.51,4.27-3.14.3-10.34-4.24-7.26Z"/><path class="junipercls-2" d="M202.58,158.47c9.3,21.74,21,42.22,29.42,64.38,3.93,10.35,7.45,20.79,10.35,31.47,2.54,9.37,3.07,20.6,9.89,28a3.55,3.55,0,0,0,5.53-.72c4.48-9.27.87-19.79-1.77-29.21A240.33,240.33,0,0,0,244,219.71c-9.89-22.21-21.69-44.63-35.36-64.75-2.58-3.78-7.75-.54-6,3.51Z"/><path class="junipercls-2" d="M392.22,222.32c-24.06,5.54-47.9,11.82-71.78,18.09-19.61,5.15-43,8.61-56.85,24.69-2,2.31-.14,7.15,3.35,5.75,41.28-16.55,85.43-25.91,127.76-39.54,5.71-1.83,3.39-10.34-2.48-9Z"/><path class="junipercls-2" d="M352.52,268.62c-21.9,5.73-43.85,11.31-65.41,18.22-10.19,3.27-20.23,7-30.29,10.63-9.73,3.54-20,6.64-27.9,13.55-3,2.66-.56,7.87,3.25,7.83,10-.11,19.21-4.31,28.4-7.79,10.61-4,21.28-7.91,31.83-12.11,20.6-8.21,40.9-17.16,61.44-25.53,2.88-1.17,1.86-5.63-1.32-4.8Z"/><path class="junipercls-2" d="M161.44,211.76c11.34,19.85,22.38,40.05,31.92,60.83a278.3,278.3,0,0,1,12.34,31.65c3.32,10.49,4.54,22.31,10,31.94,2,3.48,8.09,3,8.94-1.17,2.25-11.05-1.56-22.4-5-32.86a251.84,251.84,0,0,0-12.93-31.47c-10.81-22.22-24.51-42.55-38-63.16-2.95-4.5-10-.49-7.26,4.24Z"/><path class="junipercls-2" d="M124.81,297c12.67,10.47,24.62,21.77,36.63,33,10.95,10.25,21.57,24.93,35,31.85,4.89,2.53,9.56-2.48,7.27-7.26-6.66-13.91-22.87-25.16-34.3-35-12.4-10.69-25.68-20.26-38.91-29.89-4.25-3.09-9.73,3.95-5.65,7.32Z"/><path class="junipercls-2" d="M249.69,329c18.84-.57,37.78-.82,56.63-.28,17.47.49,36.67,4.81,53.89,2.17,4.64-.71,3.35-6.83,0-8.18-15.81-6.37-37-5-53.89-5.22a394.13,394.13,0,0,0-56.63,3.25c-5.09.67-5.48,8.42,0,8.26Z"/><path class="junipercls-2" d="M322.15,374.71c-23.75-3.62-47.14-6.49-71.21-7.11-23.68-.61-48-1.37-71.07,4.94-3.61,1-4.18,7.28,0,7.89,22.91,3.33,46.1,1.67,69.18,2.07,23.87.4,47.93.82,71.74,2.27,5.67.34,7.11-9.18,1.36-10.06Z"/><path class="junipercls-2" d="M279.49,410.73c-18.77-4.67-37.77-7.08-57-8.77-19-1.67-38.28-3.45-57.07.56-3.24.69-3.17,5.75,0,6.48,18.09,4.19,36.71,4,55.2,5.46,19.26,1.51,38.42,3.84,57.68,5.27,5.19.39,6.19-7.77,1.22-9Z"/><path class="junipercls-2" d="M210.61,463.62a223.6,223.6,0,0,0-40.28-16.89c-12.49-3.76-27.7-9.49-40.7-5.57a4.26,4.26,0,0,0-1,7.68c10.74,7.34,25.67,7.92,38,11.36,13.45,3.76,26.86,8.15,39.9,13.12,5.64,2.15,9.36-6.91,4.1-9.7Z"/><path class="junipercls-2" d="M176.35,377.66c-19.48-13-48.5-19.11-71.63-17.71-4.7.28-6,7.05-1.14,8.41,11.45,3.21,23.13,5.4,34.64,8.4s22.69,7.59,34.3,10a5,5,0,0,0,3.83-9.08Z"/><path class="junipercls-3" d="M354.88,70.59C330.72,126.2,306,181.52,275.56,234.05A1029.08,1029.08,0,0,1,169,385.33q-16.5,19.38-33.93,37.92c-11.48,12.28-24.67,23.59-34.82,37-3.65,4.82,3.5,11.7,8.31,8.31,12-8.43,22-20,32.05-30.48q16.49-17.18,32.05-35.2,30.15-34.78,57.16-72.18a991.87,991.87,0,0,0,94.31-159.44c14.92-31.8,27.87-64.07,37.58-97.8,1.13-3.92-5.07-6.8-6.78-2.86Z"/></g></g></svg>