<svg xmlns="http://www.w3.org/2000/svg" viewBox="0 0 512 512"><defs><style>.kale-leafcls-1{fill:none;}.kale-leafcls-2{fill:#51780a;}.kale-leafcls-3{fill:#fff;}.kale-leafcls-4{fill:#dbdf84;}.kale-leafcls-5{fill:#4a2d2d;}</style></defs><g id="Capa_2" data-name="Capa 2"><g id="bocetos"><rect class="kale-leafcls-1" width="512" height="512"/><path class="kale-leafcls-2" d="M430.89,234.57c-6.12-2.91-9.71-4.2-10.39-11.93-.34-3.95,0-8.13-1.28-11.94-5.46-15.92-25.4-9.47-35.09-2.13-8.4,6.35-14.95,15.17-24.27,20.27-1.95,1.06-8.91,4.44-11.41,3.06-2.82-1.56-1.16-5.13-.58-6.74,1.2-3.33,3.55-5.78,3.11-9.62a7.75,7.75,0,0,0-3.15-5.66c-2.7-2-10-1.37-11.56-5-5.46-12.7,27.11-11.77,33.4-14.3,6.46-2.6,12.09-8.21,12.8-15.47.68-6.85-5.82-12.61-7.06-14.62-4.27-6.94,5.11-6.19,9.8-7.09,14.79-2.84,34.33-15.9,31-33.5-1.42-7.48-7.32-12.94-13.72-16.5-4-2.23-8.46-3.63-12.73-5.31-1.52-.59-9.08-3-10.09-5.25-2.66-5.78,1.91-11.3,5.19-15.22,5.1-6.09,10.58-15,5-22.62-1.93-2.65-4.82-4.05-7.84-5.11-1.29-.45-3-.57-4.28-1.15-5.3-2.44-5.55-7.43-6.37-12.53a31.1,31.1,0,0,0-5.53-13c-3.26-4.58-7.08-8.49-12.25-10.86a26.66,26.66,0,0,0-15.86-2.13c-7.76,1.44-14.51,6.3-20.63,11-5.47,4.23-10.93,7.76-18.22,5.57-4.65-1.4-8.68-4.42-13.16-6.23-7.22-2.91-13.87-2.45-19.35,3.54s-5,14.14-6.56,21.58c-1.39,6.54-4.61,12.13-11.9,12.05-4.6,0-7.92,0-11.82,2.73-7,4.81-9,13.26-9.26,21.21-.43,13.09,1.45,26.2-1.39,39.19a22,22,0,0,1-2.67,7.45c-4.18,6.29-6.47,3.32-12.12,3.65-2.71.16-5,.65-7,2.6s-2.33,4.44-2.83,6.93c-.31,1.57-.06,4-.79,5.54-3.13,6.56-10.16,2.7-13.86-1.12-11.4-11.75-14.65-37.48-36.57-34.25-7.78,1.15-12.12,7.16-13.2,14.6-1.23,8.58,5.33,29.47-9.73,26.4-6.08-1.24-11.62-4.36-15.8,2.59-1.58,2.62-1.87,6-1.71,9a46.34,46.34,0,0,0,1.2,6.19c1.21,6.44-1.37,8.2-7.09,9.19-8.67,1.5-15.62,5.28-17.44,14.63-1.7,8.73,2.93,17,9.77,22.23,6.32,4.8,14.91,6.07,13.13,16.51-.72,4.21-2.72,7.14-2,11.57,1.32,7.9,12,14.79,12.27,22.53-10.35,1.43-20.39-4.93-30.79-2.68-10.15,2.2-14.27,11.73-18,20.43-8.2,19.38-4,42.92,20.92,41.36,6.9-.43,9.45-1.2,8.57,9.83-.2,2.51-1.11,3.68-.63,6.2a10.59,10.59,0,0,0,4,6.45c7.42,5.95,30.56.35,25.24,14.82-2.65,7.21-7,14.06,1.76,18.91,7.3,4,16,2.06,23.88,2.4,8.82.37,16,6,20.06,13.6,3.74,7,9.27,15.84,18,17a13.44,13.44,0,0,0,6.31-.75c5.73-2.07,9.13-7.55,13.46-11.5,3.89-3.54,8.65-6.88,14.09-7.3,6.27-.49,8.83,3,12.23,7.61,2.91,4,5.24,7.28,10.53,8.05,4.34.64,9-1.74,12.89,1.62,2.64,2.26,3.64,7,4.89,10.09,4,9.87,11.31,18,22.45,19.46,10.55,1.34,20.76-5,25-14.61a27.09,27.09,0,0,0,1.8-14.47c-.94-7.88-8.14-22.87.57-28.79,5.34-3.62,13.4.61,19.33.2a14.07,14.07,0,0,0,11.61-6.92c2.79-4.59,4.53-8.9,10.61-9.91,3.72-.62,8.09,1.44,11.73,2.23,6.31,1.38,12.76,1.84,18.66-1.3,11.71-6.23,24-20.47,25.85-33.87,1-7.21-.94-13.09-4.8-19.1-3.22-5-6.25-9.27-4.21-15.52a16.76,16.76,0,0,1,4-6.39c7.18-5.65,14.36-13.38,20.14-20.45,5.37-6.58,9.21-14.4,9.66-22.95C439.32,243.53,437.78,237.84,430.89,234.57Z"/><path class="kale-leafcls-3" d="M221,274.38a169.08,169.08,0,0,0,6.77-52.54c-.52-16.1-2.09-34.67-9.54-49.17-.81-1.59-3.76-.93-3.52,1,2.08,16.24,6.87,31.69,7.61,48.22A208.31,208.31,0,0,1,218,273.55a1.57,1.57,0,0,0,3,.83Z"/><path class="kale-leafcls-3" d="M190.39,262.42c-8.93-11.86-20-26.6-33.83-33a2.35,2.35,0,0,0-2.84,3.68c5.2,5.57,11.86,9.93,17.53,15a151.86,151.86,0,0,1,16,16.72c1.44,1.76,4.56-.61,3.18-2.45Z"/><path class="kale-leafcls-3" d="M255.73,267.84c9.3-8.92,18-17.06,29.47-23.28,10.62-5.75,22.22-9.27,32.88-14.84,2.29-1.19.7-4.75-1.73-4.11-21.89,5.82-51.7,19.62-63.53,40a1.86,1.86,0,0,0,2.91,2.25Z"/><path class="kale-leafcls-3" d="M273.88,307c24.47-1.95,44.4,1.7,66.56,12.41a1.93,1.93,0,0,0,1.94-3.33c-18.83-13.57-46.55-18.71-69-12.94-2.1.54-1.73,4,.52,3.86Z"/><path class="kale-leafcls-4" d="M318.43,274.49c-16.74,1.29-38.63,10.3-59.24,19.32s-30.05,13.31-30.05,13.31,34.77-64,45.5-84.57S295,178.37,295,178.37l62.95-43.83s-12.45-.43-23.18,3.43c-8,2.87-25.1,12.8-33.45,17.76,4.23-13.51,15.24-49.52,16.27-62,1.29-15.46-3.43-18.89-3.43-18.89s-15.88,54.95-19.75,62.25-19.32,40.78-19.32,40.78-8.15-35.63-14.16-47.22-9.45-12.45-9.45-12.45,11.59,51.51,7.73,73.84-16.74,64.39-25.33,77.7A273.45,273.45,0,0,0,218,299s-.86-30.48-13.31-50.66S174.24,212,174.24,212s25.49,37.67,28.5,64.72S200.38,332,200.38,332l-28.71-54.85s3.81,19.21,6.81,27.8a107.08,107.08,0,0,1,4.3,17.17s-12.88-3.86-22.76-1.29a34.58,34.58,0,0,0-15.88,9.45s20.61-5.58,32.2,4.29,7.72,24,4.29,33.92-69.12,95.73-68.69,103,4.3,12,13.31,8.15,59.24-98.74,68.69-109,20.17-26.61,39.49-27.9,50,5.9,50,5.9-6.92-9-27.21-14.06c-11.85-2.95-27-5.15-27-5.15a165.06,165.06,0,0,1,52.37-30.91c31.34-11.16,68.19-16.42,69.05-18.57S335.17,273.2,318.43,274.49Z"/><path class="kale-leafcls-5" d="M284.52,352.73c1.08-1.1,1.46-2.88-.78-4-16.32-7.93-35.75-8.48-41.83-8.48-17.47,0-29.61,6.28-40.78,19.8-14,16.91-24.68,37.58-35.9,56.34-6.52,10.9-37.41,59.18-38.32,60.37-5.51,3.52-15.13,1.94-12.23-7.88,13.49-16,24.52-35.2,36.86-52,11.91-16.21,25.6-39.6,31.72-52.32,5.92-12.31,5.44-22.53-6.44-31.88-7.13-5.61-22-6.27-32.93-2.36-.55.74-1,1.07-1,2s.37,2,1.18,2.14c.4.08,9-2,11-2.21a29.85,29.85,0,0,1,11.49.62,19.25,19.25,0,0,1,9.37,5.47,18.64,18.64,0,0,1,4.28,8.41c3.59,15.59-9.28,30.19-17.53,41.87-9.06,12.81-16.54,26.64-25.7,39.37s-19.72,25.18-27.2,39.2a2.61,2.61,0,0,0-.24.23c-4.44,4.81-3,10.84,1.79,15,5.46,4.73,12.38,4.32,17.91-.16,9.16-7.42,14.58-21.06,20.57-30.93,7.57-12.49,15.22-24.93,22.83-37.39,7.15-11.71,14.23-23.47,21.47-35.13,6.8-10.94,14.15-21.58,26.1-27.33a59.31,59.31,0,0,1,31.25-5.1,150.7,150.7,0,0,1,20,3.22C277.49,351.07,284,353.23,284.52,352.73Z"/><path class="kale-leafcls-5" d="M231.16,332c36-25.46,76.06-42.53,119.68-49.53,3.43-.56,2-5.74-1.44-5.22-43.49,6.71-85.66,23.68-121,50.08-2.73,2.05-.15,6.7,2.73,4.67Z"/><path class="kale-leafcls-5" d="M169,277.49c-.53,14.88,5.59,30.41,11.57,43.74.83,1.84,3.79.52,3.24-1.37-4.06-14.05-5.75-29.17-10.37-43a2.27,2.27,0,0,0-4.44.61Z"/><path class="kale-leafcls-5" d="M172.76,214c10,17.58,20.29,34,25.13,54,5,20.41,5,41,2,61.65-.52,3.59,4.81,5.27,5.59,1.54,4.34-20.79,3.29-42.61-1.83-63.17-5-19.93-13.2-41.45-27.86-56.32a2,2,0,0,0-3.05,2.35Z"/><path class="kale-leafcls-5" d="M248.14,119.15c4.92,31.33,7.87,61.38,1.94,92.89a230.52,230.52,0,0,1-33,82.46c-2.3,3.6,3.3,6.77,5.68,3.32,17.64-25.62,29.38-56.56,34.19-87.22,4.67-29.77,5.77-63.86-4-92.77a2.49,2.49,0,0,0-4.79,1.32Z"/><path class="kale-leafcls-5" d="M311.85,74.63c-4.9,17.93-9.25,35.76-15.69,53.26-6.2,16.83-14.26,32.26-22.36,48.16a2,2,0,0,0,3.09,2.38c12.27-11,17.27-30.86,23.23-45.73,7.34-18.33,15.48-37.44,16.66-57.41.17-2.85-4.19-3.35-4.93-.66Z"/><path class="kale-leafcls-5" d="M357.25,132a434.64,434.64,0,0,0-46.06,31.39c-6.68,5.14-15.18,10.41-20.45,17.1-4.38,5.55-6.2,13.8-8.9,20.17-7.62,17.94-16.38,35.62-25.5,52.84-8.67,16.36-19.82,32.85-25.35,50.59-.92,3,3.54,4.86,5,2.12,8.9-16.3,15.29-34.08,24-50.59,8.06-15.36,16.68-30.3,23.81-46.15,3.48-7.74,5.79-16.48,9.81-23.89s14-13,20.45-18c14.68-11.27,30.07-21.46,45.62-31.49,2.57-1.66.26-5.68-2.41-4.12Z"/></g></g></svg>