<svg xmlns="http://www.w3.org/2000/svg" viewBox="0 0 512 512"><defs><style>.kalecls-1{fill:none;}.kalecls-2{fill:#4a2d2d;}.kalecls-3{fill:#6a8c2a;}.kalecls-4{fill:#fff;}</style></defs><g id="Capa_2" data-name="Capa 2"><g id="bocetos"><rect class="kalecls-1" width="512" height="512"/><path class="kalecls-2" d="M235.71,417a104.39,104.39,0,0,1-16.51,24c-4.7,5.3-9.65,11.38-9,18.86.38,4.34,5.77,6.09,8.28,2.24,9.12-14.05,20.76-25,25.34-41.65,1.29-4.71-5.88-8.06-8.12-3.42Z"/><path class="kalecls-2" d="M240,423.39c.34,7.58.78,15.16.86,22.74.07,6.81-.82,14.08,1.83,20.46,1.06,2.56,4.73,3.68,6.31.83,6.85-12.34,2.81-32.05.32-45.29-1-5.25-9.56-4.05-9.32,1.26Z"/><path class="kalecls-2" d="M246.85,421.7c-1.12,8.45,5.18,15.34,10,21.61,5.16,6.76,10.67,14.27,18.33,18.31,4.13,2.18,7.77-2.09,6-6-2.63-5.91-7.28-10.83-11.36-15.79-3.79-4.6-12.25-11.73-12.11-18.11.16-7.2-10-6.7-10.85,0Z"/><path class="kalecls-3" d="M106.26,112.09S100.44,87.3,124.59,67s39.24-8.62,43.12-4.74,8.19,18.54,8.19,18.54,5.61-31,26.73-41.4,24.58,8.63,38.81,8.63,28-22,46.14-14.23,9.91,22,15.52,26.3,9.92,3.45,13.37,7.33,3.45,7.33,3.45,7.33S332,47.63,354,53.66s6.47,21.13,21.56,28.89S401,91.61,404,98.08a18.21,18.21,0,0,1,1.29,12.07s12.94,2.15,13.8,16.38-4.31,24.15,5.17,32.34,22.85,9.92,18.54,31-24.57,21.13-24.57,43.55,18.11,27.59,11.64,46.57-30.19,29.32-34.5,46.13,11.21,25,1.3,48.73-53,43.11-95.3,50.44-60.36-3-60.36-3-65.11,5.6-105.21-22-45.71-67.27-43.55-84.95,13.37-27.16.86-38.8S61.21,254.16,66,240.8s11.64-17.68,7.76-24.58-22-18.11-9.49-31.48,16-10.56,16.82-23.93-16.58-28.89-2.16-45.49C90.31,102.17,106.26,112.09,106.26,112.09Z"/><path class="kalecls-2" d="M162.33,62.57c6.33,8.58,5.3,21.62,13.49,29,7.16,6.43,16.61,4.31,24.94,1.89,7.38-2.15,15.19-5.51,23-3.56,9.51,2.38,9.9,10.1,11.35,18.09,2,10.75,9,17.33,17.73,23.52,3.18,2.26,6.41-2.54,4-5.19-5.14-5.66-12.3-9.58-14.24-17.45-1.17-4.76-.9-9.76-2.83-14.35-3.06-7.31-10-11.2-17.71-11.81-11.9-.93-22.21,7.49-33.8,6.93-14.75-.71-13.76-21.15-22.33-29.83-1.78-1.8-5.22.64-3.62,2.8Z"/><path class="kalecls-2" d="M328.79,61.29c-6.74,3.69-8.3,10.52-13.66,15.51-8.2,7.63-23.86,5.94-34.16,8.22-14.72,3.25-26.41,14.37-28.37,29.65-1.45,11.31-.42,22.38-11.53,29.26-7.08,4.38-15.7,5.49-22.53,10.41-13.95,10-12.13,29.61-9.1,44.47.77,3.74,7.28,3,6.77-.92-1.15-8.78-2.28-18.74.2-27.4,3-10.54,13.11-13.37,21.9-17.57,13.54-6.47,19.26-16.44,20.33-31.1.77-10.52,2.89-20.37,12.4-26.57,8-5.2,17.74-4.52,26.77-6.29,6.69-1.32,15-2.82,20.41-7.3C323.83,77,326,69.57,331.45,64.73c1.91-1.69-.53-4.61-2.66-3.44Z"/><path class="kalecls-2" d="M92.51,112.88c22.13.62,26.92,33,49,34.8,9.41.76,16.88-6.85,26.27-7,6.46-.14,13.17,1.33,15.45,8,1.41,4.1.62,9.31.56,13.53-.1,7.67,0,16,4.16,22.79,4.68,7.71,13.09,12.71,21.12,16.23,11,4.82,23.15,7.48,29.57,18.65,5.68,9.88,7.62,23.37,3.19,34-1.93,4.65,5.93,8,8.17,3.44,8.76-17.59,1.19-43.68-15.17-54.37-11.32-7.39-26.25-8.13-36.47-17.36-10-9-5.43-22.08-6.49-33.86-1.78-19.8-22.6-21.7-37.9-15.16-7.91,3.39-14.06,4.16-21.34-.93-5.94-4.13-10.06-9.68-14.78-15-6.84-7.77-14.59-14.18-25.38-14.11-4.15,0-4.14,6.32,0,6.43Z"/><path class="kalecls-4" d="M112.05,171.55c12.46,32.23,17.75,66.95,31.54,98.62,7.31,16.8,17.34,32.27,27.75,47.29,10.15,14.66,20.9,30.43,33.44,43.16,1.64,1.66,4.71-.54,3.31-2.56-20.87-30.19-45.75-57.64-60.29-91.88-13.21-31.12-15.92-66.27-31.83-96.28-1.11-2.1-4.81-.65-3.92,1.65Z"/><path class="kalecls-4" d="M155.27,281.58c5.4-16.69,8.43-35,10.86-52.33,2.14-15.37,3.91-32.65-.89-47.65-.64-2-3.86-1.74-3.77.51.76,18.14,1.46,34.83-1.45,52.91-2.48,15.37-6.87,30.57-8.37,46.07-.2,2.15,3,2.38,3.62.49Z"/><path class="kalecls-4" d="M133.11,242.25c-11.12,1.36-20.05-.61-30.47-4.33-2.7-1-3.87,2.88-1.82,4.34,9.16,6.55,22.29,7.72,32.93,4.73,2.52-.71,2.14-5.08-.64-4.74Z"/><path class="kalecls-4" d="M180.38,319c8-8.53,11.33-18.94,13.6-30.21,2.64-13.07,5.16-27.47,3.15-40.74-.27-1.77-3.25-1.74-3.55,0-3.86,22.29-.22,49.7-16,68.18-1.61,1.89,1,4.63,2.76,2.77Z"/><path class="kalecls-4" d="M185.84,334.71c-16.12,2-38.64,9-52.13-2.93a1.84,1.84,0,0,0-2.6,2.61c12.18,15.71,38.28,7.82,54.73,5.9,3.54-.42,3.56-6,0-5.58Z"/><path class="kalecls-4" d="M253.62,394a473.05,473.05,0,0,0,76.93-101.1,490.49,490.49,0,0,0,26.89-55.53c8.17-20,16.48-41.25,20-62.62a2.3,2.3,0,0,0-4.43-1.22c-6.79,19.19-11.81,38.86-19.27,57.86a478.14,478.14,0,0,1-27.88,58.76,499.17,499.17,0,0,1-74.94,101.13c-1.71,1.79,1,4.47,2.71,2.72Z"/><path class="kalecls-4" d="M351.08,248.84c-2.68-13.5-6-26.88-9.05-40.3-3.17-13.79-9.46-29.73-6.93-43.89.32-1.76-2.31-3.26-3.16-1.33-5.06,11.59.81,25.75,3.52,37.31,3.85,16.43,7.42,33,11.78,49.27.66,2.5,4.34,1.44,3.84-1.06Z"/><path class="kalecls-4" d="M320.1,286.5c-10-15-14.86-31.25-16.42-49.16-.19-2.23-3.5-2.31-3.53,0-.21,18.47,6.26,36,17,50.91,1.28,1.77,4.24.13,3-1.75Z"/><path class="kalecls-4" d="M326.4,313.09c24.52-1.79,50.83-8.2,71.3-22.37a2.26,2.26,0,0,0-2.28-3.9c-22.45,11-43.81,19.67-69,21.83-2.82.24-2.87,4.65,0,4.44Z"/><path class="kalecls-4" d="M363.1,223.7c12.22-4.07,25-10.53,33.65-20.33,1.41-1.62-.52-4.68-2.46-3.19a143,143,0,0,1-32.39,19.17c-2.62,1.07-1.63,5.29,1.2,4.35Z"/><path class="kalecls-4" d="M284.37,355.5c-8.48-20.16-20.29-38.71-20.71-61.2,0-1.88-3-2.43-3.4-.46-4.43,21.47,10.33,45.13,19.92,63.43,1.18,2.26,5.22.66,4.19-1.77Z"/><path class="kalecls-4" d="M276.3,379c24.09,2.55,50.85,4.92,72.3-8.72a1.73,1.73,0,0,0-1.75-3C324.19,378,300.68,376.9,276.3,375c-2.6-.21-2.54,3.76,0,4Z"/><path class="kalecls-4" d="M298.73,145.88c-5.89-9.81-12-19.74-18.46-29.19-1.09-1.61-4-.67-3.33,1.4a93.07,93.07,0,0,0,18.21,30.55c1.73,1.94,4.9-.57,3.58-2.76Z"/><path class="kalecls-4" d="M364.41,107c2.4-1.84,4.89-3.6,7.11-5.65,1.42-1.31-.41-3.64-2-2.66-2.45,1.48-4.72,3.26-7,5a2,2,0,0,0-.69,2.65,1.94,1.94,0,0,0,2.65.7Z"/><path class="kalecls-4" d="M195.35,140.93c5.21-7.18,10.65-15.15,13-23.8a2,2,0,0,0-3.57-1.51c-4.58,7.65-8,15.78-13.07,23.2-1.52,2.25,2,4.25,3.61,2.11Z"/><path class="kalecls-4" d="M150,121.78c.45-6.14.73-12.62-.75-18.65-.52-2.15-3.77-1.65-3.8.51-.07,6.06.56,12.07.22,18.14-.16,2.8,4.12,2.76,4.33,0Z"/><path class="kalecls-4" d="M258.58,79.83c-1.06-6,.65-11.11,1.54-17,.21-1.4-1.61-3.07-2.77-1.61-4.27,5.41-4.23,13.28-3,19.75.54,2.77,4.69,1.58,4.21-1.16Z"/><path class="kalecls-4" d="M231.24,68.7c-1.11-2.13-2.25-4.62-4.18-6.13-1.15-.89-3.23-.46-3.15,1.3.13,2.68,1.56,5.15,2.77,7.5,1.57,3,6.13.34,4.56-2.67Z"/><path class="kalecls-2" d="M414,111.41c-12.5-7.28-25.53-1.58-36.84,5.33-8.3,5.08-17.89,10.46-28,8.75-7.68-1.3-14.73-6.11-22.73-5.33-14.81,1.45-17.05,18.76-21.64,29.8a49.79,49.79,0,0,1-19.48,22.81C278.69,177,271.23,180,266,186.15a31,31,0,0,0-6.65,15.15c-1.46,8.84,2.8,15.44,2.91,24,.11,9.05-6.93,15.36-13.18,20.84-5.95,5.21-11.51,10.68-15.65,17.49-8.38,13.8-7.67,26.57-3.55,41.53,2.92,10.6,2.85,18.64-4.39,27.21-4.59,5.45-10,10.18-13.73,16.34-18.66,31.1,6.51,66.24,34.54,80,4.56,2.24,9.37-.68,5.09-3.49-13.42-8.83-27.68-22.5-33.73-38-5.86-15-2.73-29.78,7.83-41.6,7.42-8.31,15.35-16.28,15.41-28.16.09-16.51-11.53-29.17-2.81-45.76,6.26-11.93,18.13-18.8,25.66-29.67,8.19-11.82,2.09-21.67,2-34.6-.2-18.69,18.19-24,30.24-33.57,11.1-8.83,13.93-20.38,18.31-33.15,2.55-7.42,6.81-13.67,15.13-13.92,5.36-.17,9.69,2.64,14.51,4.59,5.61,2.26,11.13,3.27,17.13,1.75,16-4,32.22-27.06,49.84-16.35,3.45,2.1,6.65-3.38,3.16-5.41Z"/></g></g></svg>