<svg xmlns="http://www.w3.org/2000/svg" viewBox="0 0 512 512"><defs><style>.khakicls-1{fill:#ef7738;}.khakicls-2{fill:#f5a77e;}.khakicls-3{fill:#4a2d2d;}.khakicls-4{fill:#fff;}.khakicls-5{fill:none;}</style></defs><g id="Capa_2" data-name="Capa 2"><g id="bocetos"><path class="khakicls-1" d="M345,202c-9.53-68.39-62.79-80.06-91.35-84.3-4.8,6.65-12.23,11.54-19,15.79-3.59,2.24-7.18,4.49-10.64,6.92l-.53.36c.61.11,1.22.22,1.82.37a72.12,72.12,0,0,1,8.46,2.78c4.45,1.67,9.58,3,13.44,5.89,4.54,3.4,4.9,8.52,1.33,12.83-3.19,3.84-8.08,5.48-12.93,5.66-9.81.36-18.73-4.93-28.43-4.94-5.52,0-10.76,1.91-15.92,3.66s-10.38,3.39-15.87,3.74c-5.77.38-18.13,1.39-19.67-6.34-.55-2.73,1-5.1,2.93-6.84s3.6-3.26,5.31-5a85.68,85.68,0,0,1,9.18-8.7l-.4,0c-7.61.15-14.06-3.67-19.73-8.36-4.07-3.38-7.75-6.8-12.5-9.21-3.73-1.89-8.43-3.85-10.73-7.56a6.48,6.48,0,0,1-1.06-3c-12.74,2-24.88,5.42-34.07,10.85C61.44,146.19,32.28,203.5,44.85,258.81s61.84,138.26,87.48,146.31,42.74-8.05,61.34-3,39.22,18.6,68.88,3S356.57,285,345,202Z"/><path class="khakicls-1" d="M196.33,322.11s-5.8,14.21,14.2,46.67,56,66.09,104.65,69.28S414.6,421,441.56,383.27s32.76-78.55,30.15-104.35-16.53-37.1-16.53-37.1-51.84,20-110.15,37.68C275.07,300.67,196.49,320.21,196.33,322.11Z"/><path class="khakicls-2" d="M453.73,243.56,202,320.66s5.32,53.34,53.43,78,102,25.51,143.49-10.73,49.86-66.38,54.49-90.44S457.79,245,453.73,243.56Z"/><path class="khakicls-1" d="M187,123.28c2.58,1.24,5.32,2.06,8,3.17a2.88,2.88,0,0,1,1.71,3.29,6,6,0,0,1,.65,1.09,43.08,43.08,0,0,0,.36-10c-.14-1.92-.32-3.84-.58-5.74,0-.38-.11-.76-.17-1.14-4.11-.33-13.33-1-24.9-1.05a55.66,55.66,0,0,0,6.85,5.68A62,62,0,0,0,187,123.28Z"/><path class="khakicls-1" d="M207.65,113.49c0,.17,0,.34,0,.51a27.2,27.2,0,0,1-1,6.83c-.83,2.83-2,5.62-2.74,8.48a29.4,29.4,0,0,1-.86,4.53,3.08,3.08,0,0,1-.36.78,3.35,3.35,0,0,1,.91.89c.67-.76,1.3-1.56,1.9-2.3,4.92-6.13,7.35-13.87,12.14-19.91C213.93,113.26,210.51,113.35,207.65,113.49Z"/><path class="khakicls-3" d="M267.61,82.57c-3.92-3.34-11-8.27-16.38-6.56-5.8,1.84-8.82,9.45-11.77,14.16a24.26,24.26,0,0,1-12.14,10.51c-2.79,1.2-5.64,2.27-8,4.26s-3.9,4.8-5.43,7.58l-.48.82a62.76,62.76,0,0,0-.3-9.49A61.74,61.74,0,0,0,208,85c-2.22-4.86-5.46-13.57-11.09-15.29-4.79-1.47-11.89,1.6-15.42,4.74-4.67,4.15-3.25,9.14-1.13,14.46,2.95,7.41,7.65,13.93,9.93,21.64a41.85,41.85,0,0,1,1.45,12.7c-9.36-4-20.1-8.66-22.75-19.33-2-8.25-4.11-13.58-11.14-18.93-4.07-3.11-9.35-7.7-14.7-5.43-3.49,1.48-6.42,5.09-9.34,7.44a49,49,0,0,0-9.29,9.24c-9.78,13.43-2.25,23.93,10.74,30.05,8.55,4,18.25,14.76,28.49,17.63A105.85,105.85,0,0,0,152.87,154c-2.5,2.64-5.86,5.72-6.07,9.65-.41,8,12.24,9.77,17.77,11.1a36.88,36.88,0,0,0,15,.95c6.23-1.05,12.24-6.28,18.41-6.57,6.38-.3,13.28,3.39,19.6,4.27a65.1,65.1,0,0,0,17.8-.09c6.75-.91,16.38-2.4,19.47-9.5C258,156.54,252,150,246.51,146a39.91,39.91,0,0,0-13.59-6.28c10.67-4.87,20.47-11.26,27.88-20.81C266.93,111,277.57,91.08,267.61,82.57Zm-79.93-.74c3.93-10.1,11,3.19,13,7.44a47,47,0,0,1,4.07,17.25c.42,9-2.18,16.63-4.6,24.71.85-5.64.2-11.67-.81-17.09a63.81,63.81,0,0,0-4.72-15C192.52,94.65,185.86,86.53,187.68,81.83Zm-58.9,20.5c2.58-4.54,10.71-11.59,15.69-13.86,3.07-1.39,3.33-1,6.59,1.18a30.4,30.4,0,0,1,6.9,5.62c4.1,5,3.23,11.76,6.31,17.27,5.67,10.14,16.14,14.31,26.51,17.59a3.58,3.58,0,0,0,.7.13c0,1.66-.09,3.34,0,5-7.29-1.49-14.47.37-20.94,4-12.71-1-22.17-15.44-31.43-19.57C131.83,116.5,123.25,112.08,128.78,102.33Zm134-4.88c-.66,6.68-5.43,13.61-9.41,18.52C245,126.24,232.89,133,220.75,138q-3.1-.1-6.17.07c-4.16.23-5.51,6.62-1,7.62,7.63,1.7,15.41,1,22.69,4.11,2.24,1,9.27,5.77,10.34,8.07,2.65,5.7-2.86,5.92-6.48,6.62-6.25,1.2-14.84-.53-21.14-1.31-7-.86-13.88-4.07-21-3.87-6.92.18-11.27,4.64-17.49,6.9-4.49,1.64-9.14,1.53-13.77.7-2.09-.38-7.15-.79-8.49-2.22-3.76-4,10.24-13.32,12.74-15.12,8-5.74,19.34-10.86,29.32-8.08a1.85,1.85,0,0,0,1.15.09,2,2,0,0,0,1.41-.57,31.16,31.16,0,0,0,7.72-12.38c2.64-2.76,4.24-6.53,6.34-9.94,1.32-2.13,2-4.84,3.48-6.84,2.79-3.77,6.48-4.42,10.41-6.19,4.19-1.89,9.34-2.86,12.28-6.45s6.2-16.22,12.49-14.66A7.62,7.62,0,0,1,259,86.76,12.83,12.83,0,0,1,262.73,97.45Z"/><path class="khakicls-3" d="M283.61,349.76a1.27,1.27,0,0,1-.34-.05,1,1,0,0,1-.68-.61c-1-2-.94-7.34,4.68-21.38l.45-1.14c5.34-13.75,13.52-26.64,21.55-38.69a3.44,3.44,0,0,0,1.23.23l.39,0a3.51,3.51,0,0,0,2.34-1.3,2.32,2.32,0,0,1,.66-.08,4,4,0,0,1,.9.11c-4.24,15-10.92,28.9-18,43-.32.64-.73,1.54-1.23,2.63-6.52,14.31-10.12,17.31-12,17.31Z"/><path class="khakicls-3" d="M344.12,346.13c-4.26,1.32-11.38-25.19-12-27-3.73-10.82-7.56-23.56-8-36.48a3.39,3.39,0,0,0,1.17-.47,3.42,3.42,0,0,0,1.11-1.13c5.49,10.34,10,22.53,13.88,37.24C340.63,319.73,348.11,344.9,344.12,346.13Z"/><path class="khakicls-3" d="M363.64,303.06a158.06,158.06,0,0,1-28.73-22.16,4.57,4.57,0,0,0,.62-.39c11,3.27,23.33,8.55,36.66,15.68.74.4,1.65.86,2.69,1.38,4.72,2.37,20.06,9.89,16.83,13.33C388.81,314,369.8,306.73,363.64,303.06Z"/><path class="khakicls-3" d="M339.55,275c-24.75,4.62-49.4,13.83-73.4,21.39-11.64,3.67-23.17,7.54-35,10.75-11.58,3.15-23.83,5.37-35,9.81a3.21,3.21,0,0,0-2.14,3.77c2.67,18.72,6.31,36.31,15.93,52.9a136.3,136.3,0,0,0,35.74,39.87c3.13,2.36,6.12-2.91,3.07-5.25-26.71-20.42-48-53.82-48.71-88.33l-2.26,3C220.94,315.3,244.41,309,267.71,302c24.24-7.24,49.43-13.59,73.1-22.46a2.38,2.38,0,0,0-1.26-4.58Z"/><path class="khakicls-4" d="M112.61,136.45c-12.7,4.75-24.29,17.84-30.84,29.43C75.52,177,69.57,193.21,76,205.32c1.68,3.19,6.94,3.3,8.58,0,5-10,4.76-21.75,10.21-31.86,5.76-10.68,14.81-19.69,22.57-28.94,2.78-3.31.26-9.93-4.7-8.07Z"/><path class="khakicls-4" d="M77.4,229.51a18.09,18.09,0,0,0,1,2.79A14.35,14.35,0,0,0,79.49,234a3.68,3.68,0,0,0,3.6,1.72,3.55,3.55,0,0,0,3-2.59,13.63,13.63,0,0,0,.51-2.74,18.2,18.2,0,0,0-.16-2.08A5.27,5.27,0,0,0,85.08,225a4.42,4.42,0,0,0-3.86-1.26,4.58,4.58,0,0,0-3.82,5.73Z"/><path class="khakicls-4" d="M241.84,348.1l1.07-.07,1.42-.19a4.07,4.07,0,0,0,1.81-1,2.57,2.57,0,0,0,1-.95,4.11,4.11,0,0,0,1-1.82,5.27,5.27,0,0,0,0-2.84l-.54-1.27a4.06,4.06,0,0,0-1.38-1.5,2.57,2.57,0,0,0-1.17-.68,4,4,0,0,0-2.06-.46c-.35,0-.71-.05-1.07-.08a4.13,4.13,0,0,0-2.08.47,5.58,5.58,0,0,0-3.33,4.94,5.49,5.49,0,0,0,1.59,3.83,5.39,5.39,0,0,0,3.82,1.58Z"/><path class="khakicls-4" d="M250.34,371.11c5.74,0,5.75-8.91,0-8.91s-5.74,8.91,0,8.91Z"/><path class="khakicls-4" d="M412.67,295a1.74,1.74,0,0,0,0-3.48,1.74,1.74,0,0,0,0,3.48Z"/><path class="khakicls-4" d="M394.12,341.3c6.17,0,6.18-9.59,0-9.59s-6.18,9.59,0,9.59Z"/><rect class="khakicls-5" width="512" height="512"/></g></g></svg>