<svg xmlns="http://www.w3.org/2000/svg" viewBox="0 0 512 512"><defs><style>.kidney-beanscls-1{fill:#4a2d2d;}.kidney-beanscls-2{fill:none;}</style></defs><g id="Capa_2" data-name="Capa 2"><g id="bocetos"><path class="kidney-beanscls-1" d="M287.88,280.18c17.57-14.42,25.77-37.58,18.92-59.49-4.26-13.64-11.73-25.83-14.51-40-1.49-7.64-2.08-16.16-.33-24,1.87-8.38,7.26-15.42,10.51-23.29,6.92-16.77,9.84-36.45.91-53.08-9.51-17.71-29.42-31-49.12-33.86-43.3-6.34-81.56,34-97.15,70.53-19,44.38-10.73,99.48,18.81,137.61C201.07,287,252,309.66,287.88,280.18Zm4.27-70.48a26.07,26.07,0,0,1-13.3-7.36c-6.22-6.47-8.67-15.6-8.17-24.42.72-12.83,7.53-21.56,15.58-29.73-2.9,10.15-4.85,20.44-3.19,32.07a100.57,100.57,0,0,0,7.18,25C290.87,206.76,291.51,208.23,292.15,209.7ZM159.3,156.93c4.26-38.93,29-80.83,66.83-95.77,21.26-8.39,43.38-1.5,58.83,14.67,11.15,11.67,13.1,26.88,10,42.19a159.94,159.94,0,0,1-4.18,15.61c-17.89,9.43-29.88,31.89-28.17,51.78C264,202,278.47,219.49,296,218.87c2.23,5.88,3.85,11.92,3.72,18.4-.42,20.5-14.25,37.34-33.38,43.63-20.31,6.67-40.91.5-58.2-10.87C171.64,246.05,154.64,199.48,159.3,156.93Z"/><path class="kidney-beanscls-1" d="M466,268.26c-9.54-42.74-52.6-88.44-99.68-68.44-21.93,9.31-34.17,28.12-34.94,51.73-.38,11.8-.29,23.83-2.89,35.42-4.22,18.87-16.27,28.06-29.22,41-11.49,11.52-20.59,26-20.56,42.76.05,20,12.51,40.9,28.56,52.37,36.46,26.08,89.09,4.63,118.74-22.26C461.91,368.36,476.53,315.25,466,268.26ZM337.46,291.12a98.27,98.27,0,0,0,3.42-23.38c.08-2.42.07-4.84.06-7.26,4.57,3.52,8.14,7.65,9.88,14,2.11,7.72.81,16-2.64,23.1-5.65,11.73-15.74,17.23-26.7,21.65C328.35,310.76,334.47,301.87,337.46,291.12Zm101.37,75.3c-19.92,32.25-61,60.18-100.41,56.29-20.4-2-36.38-16.13-43.73-34.87-6.07-15.48-2.42-30.65,6.76-44a164.29,164.29,0,0,1,10.35-13.19c19.8-1.69,39.26-16.51,46.08-35,5.77-15.69.07-38.92-16.82-45.26a48.89,48.89,0,0,1,3.3-16.81c7.95-19.11,27.27-29.59,47.5-28.24,22.59,1.52,40,16.89,51.49,35.38C467,278.79,461.84,329.2,438.83,366.42Z"/><path class="kidney-beanscls-1" d="M198.23,330a103.27,103.27,0,0,1-24.95-32.27c-8.36-17-18.6-34.28-34.16-46-9.26-7-20.37-10.76-32-8.52C86,247.25,65.47,262.48,54.84,281c-22.41,39.13-11.39,93.4,12.3,129.29,24.13,36.55,65.62,58.42,109.8,55.67,38.42-2.4,93-32.63,75-78.83C242,361.65,217.77,347.42,198.23,330Zm-19.37-5.46c6.64,8.28,14.65,15.2,22.81,22-3.62-.07-7.29,0-10.72-.83a39.24,39.24,0,0,1-19.69-11.05c-10.47-11.2-11.53-23.77-7.48-35.67C168.4,307.75,172.63,316.78,178.86,324.54Zm61.73,95.8c-8.62,17.07-25.74,27.21-43.74,31.93-37.15,9.75-77.72-2.75-105.41-28.63-28.14-26.3-41.06-68.89-36.52-106.82,2.68-22.42,12.59-42.34,32.38-54.23,10.66-6.4,23.14-12.51,35.56-7.86,13.93,5.22,23.57,17.78,32,29.39,1.56,2.15,3,4.38,4.36,6.66-12.52,12.63-6.69,36.51,3.37,48.78A48.42,48.42,0,0,0,187,355.09c7.19,2,17.6,3.72,24.28-.65,3.78,3.19,7.49,6.45,11,9.9C237.12,378.93,251.23,399.27,240.59,420.34Z"/><rect class="kidney-beanscls-2" width="512" height="512"/></g></g></svg>