<svg xmlns="http://www.w3.org/2000/svg" viewBox="0 0 512 512"><defs><style>.kiwicls-1{fill:#9e991c;}.kiwicls-2{fill:#c7cd3d;}.kiwicls-3{fill:#4a2d2d;}.kiwicls-4{fill:#fff;}.kiwicls-5{fill:none;}</style></defs><g id="Capa_2" data-name="Capa 2"><g id="bocetos"><path class="kiwicls-1" d="M234.8,95.31C179,71,101.55,95.83,88.13,163.48S109.3,340.63,153.2,356.64s72.82,13.43,106.91-4.13c35.15-18.11,52.16-41.32,54.74-84.19C317.87,218.25,290.58,119.58,234.8,95.31Z"/><path class="kiwicls-1" d="M198.65,275.55s-5.17,78.51,40.28,114.66S339.64,423.26,377.34,399s43.55-67.84,45.83-90.67c3.95-39.43-.78-59.44-15.24-75.45S198.65,275.55,198.65,275.55Z"/><path class="kiwicls-2" d="M301.73,187c-57.22,5.83-100.66,46.09-103.84,82.11s20.13,88.47,73.64,99.07,98.54-8.48,121.32-30.73,34.12-60.81,28.6-80.52C410.33,217.2,358.94,181.17,301.73,187Z"/><path class="kiwicls-3" d="M151.87,138.29c15.58,6.21,40.94,3.11,41-18.32,0-3.71-5.22-4.26-6.32-.86-4.76,14.74-19.85,16.31-32.81,12.22-4.52-1.43-6.12,5.28-1.92,7Z"/><path class="kiwicls-4" d="M340.48,264.22c-11.66-19.2-49.28-17.92-62.1-.89-7.55,10-4.23,23.95,6.05,30.61,5.5,3.57,12.12,5,18.65,5.61A51.54,51.54,0,0,0,322.56,298C335.77,294.05,349,278.25,340.48,264.22Z"/><path class="kiwicls-3" d="M354.11,259.9c7.89-2.12,16.08-3.8,23.61-7,1.89-.81.4-3.31-1.3-3.06-7.93,1.19-15.66,4.05-23.34,6.35a1.94,1.94,0,0,0,1,3.73Z"/><path class="kiwicls-3" d="M358.74,279.71c4.14-.25,8.36.38,12.41-.37,2.14-.39,1.59-3.15,0-3.8-3.82-1.56-8.36-1.07-12.41-.72-3.1.27-3.17,5.08,0,4.89Z"/><path class="kiwicls-3" d="M351.32,298.32c8.24,3.74,16.68,8.47,25.45,10.81a2.15,2.15,0,0,0,1.65-3.92c-7.65-4.84-16.9-7.85-25.22-11.36-2.52-1.06-4.4,3.33-1.88,4.47Z"/><path class="kiwicls-3" d="M335.15,314.67c2.75,4.37,5.81,10,10.54,12.49A2.37,2.37,0,0,0,348.9,324c-1.06-2.21-2.91-4.16-4.43-6.08s-3-4-4.49-6c-2-2.9-6.78-.27-4.83,2.82Z"/><path class="kiwicls-3" d="M307.09,317.9a67.17,67.17,0,0,0,0,8.86c.11,2.52.08,5.88,1.54,8.08a1.86,1.86,0,0,0,3.35-.44c.65-2.55,0-5.49-.2-8.06a72,72,0,0,1-.47-8.44c.07-2.74-4-2.66-4.21,0Z"/><path class="kiwicls-3" d="M279.63,316.77c-3.8,4.21-8.74,8.48-11.37,13.54-.77,1.46.85,3.43,2.4,2.4,4.76-3.16,8.47-8.43,12.26-12.65,2-2.22-1.27-5.52-3.29-3.29Z"/><path class="kiwicls-3" d="M263.13,291.47c-6.84,1.39-13.75,2.4-20.55,4a1.76,1.76,0,0,0,.47,3.45,121.29,121.29,0,0,0,21.28-3.06c2.86-.6,1.64-4.95-1.2-4.37Z"/><path class="kiwicls-3" d="M258.94,266.11c-6.86-1.44-13.82-3.37-20.81-4.07-2-.19-2.16,2.73-.45,3.3,6.51,2.14,13.51,3.15,20.22,4.57,2.47.53,3.53-3.28,1-3.8Z"/><path class="kiwicls-3" d="M278.85,244.93c-4.4-4-9.44-8.8-15.12-10.94-1.76-.66-2.84,1.77-1.72,3a66,66,0,0,0,6.71,5.63c2.29,1.87,4.54,3.76,6.7,5.77s5.73-1.31,3.43-3.43Z"/><path class="kiwicls-3" d="M308.33,237.33c.06-4.6.36-9.58-1.37-14-.8-2-3.84-1.85-3.91.53-.14,4.42.6,9,.87,13.42.17,2.82,4.38,2.87,4.41,0Z"/><path class="kiwicls-3" d="M334.1,241.42c2.35-4.1,5.33-7.83,7.54-12a1.72,1.72,0,0,0-2.69-2.08c-3.52,3.35-5.93,7.86-8.22,12.1-1.18,2.21,2.12,4.16,3.37,2Z"/><path class="kiwicls-3" d="M117.56,182.39a4.9,4.9,0,0,0,2.51-.56,4.82,4.82,0,0,0,2.1-1.35,7.18,7.18,0,0,0,1.91-4.6l-.24-1.73a6.41,6.41,0,0,0-1.67-2.88l-1.32-1a6.51,6.51,0,0,0-3.29-.88,4.79,4.79,0,0,0-2.5.56,4.89,4.89,0,0,0-2.1,1.34,7.24,7.24,0,0,0-1.91,4.61l.24,1.73a6.37,6.37,0,0,0,1.67,2.87l1.32,1a6.41,6.41,0,0,0,3.28.89Z"/><path class="kiwicls-3" d="M138.74,200.78c6.12,0,6.13-9.52,0-9.52s-6.13,9.52,0,9.52Z"/><path class="kiwicls-3" d="M118.6,224.17h.34a5.7,5.7,0,0,0,3.6-1.49l.8-1a5.05,5.05,0,0,0,.69-2.57v-.35l-.19-1.44-.55-1.29a4,4,0,0,0-1.4-1.52,2.62,2.62,0,0,0-1.19-.7,2.66,2.66,0,0,0-1.37-.37,2.71,2.71,0,0,0-1.44,0,2.63,2.63,0,0,0-1.37.37,4.08,4.08,0,0,0-1.75,1.12l-.84,1.1-.55,1.29-.19,1.44.19,1.45.55,1.29a4.07,4.07,0,0,0,1.39,1.52,2.71,2.71,0,0,0,1.2.7,4.15,4.15,0,0,0,2.09.47Z"/><path class="kiwicls-3" d="M146.49,311.42a6.11,6.11,0,0,0,3.81-1.58,3.94,3.94,0,0,0,1.11-1.74,4,4,0,0,0,.47-2.07l-.19-1.44a5.42,5.42,0,0,0-1.39-2.38l-1.09-.84a5.42,5.42,0,0,0-2.72-.74,6.1,6.1,0,0,0-3.82,1.58,6.1,6.1,0,0,0-1.58,3.82l.2,1.43a5.4,5.4,0,0,0,1.38,2.38l1.09.84a5.46,5.46,0,0,0,2.73.74Z"/><path class="kiwicls-3" d="M301.67,183.33c-19.85-1.58-42.24,8.64-58.55,19.07-17.56,11.24-33.21,26.69-42.76,45.37-9.9,19.34-10.7,41.19-8.11,62.39,2.43,19.89,7.88,40.34,19.37,57,3,4.41,10.28.23,7.22-4.22-10.52-15.28-15.88-33.52-19.09-51.63-3.72-21.08-3.47-42.07,7.71-61a121.84,121.84,0,0,1,40.62-41.75,129.39,129.39,0,0,1,26.24-12.36c9.23-3.13,18.87-4.54,28.08-7.49a2.77,2.77,0,0,0-.73-5.42Z"/><rect class="kiwicls-5" width="512" height="512"/></g></g></svg>