<svg xmlns="http://www.w3.org/2000/svg" viewBox="0 0 512 512"><defs><style>.kohlrabicls-1{fill:none;}.kohlrabicls-2{fill:#9bb533;}.kohlrabicls-3{fill:#dbdf84;}.kohlrabicls-4{fill:#4a2d2d;}.kohlrabicls-5{fill:#fff;}</style></defs><g id="Capa_2" data-name="Capa 2"><g id="bocetos"><rect class="kohlrabicls-1" width="512" height="512"/><path class="kohlrabicls-2" d="M434,113.74c6.1-16.62,4.46-35.85-7.56-49.42-23.49-26.52-72.21-14.45-84,17.6-3.22,8.76-3.17,20.57-1.07,34.56,1.32,8.78-9.32,7.67-16.45,11.93-16.45,9.82-16.69,31.7-11.24,48.88.67,2.12,1.61,4.15,2.29,6.27,1.51,4.73,1.8,3.8-2.09,6.54a25.64,25.64,0,0,0-7.63,8.32c-4.52,8-3.95,17.44-.41,25.66,4.19,9.77,12,16.86,20.24,23.27C336.69,255.6,351.2,267,351.37,282a3.13,3.13,0,0,0,1.41,2.75,9.83,9.83,0,0,0,.31,1.11c.4-3.22.86-6.44,1.33-9.62,1-7.13,4.71-17.84,6-24.93,2.35-12.7,1.22-24.33,3.63-37,0-.45,0-.9-.06-1.35a2.64,2.64,0,0,1,.72-2.11c.08-.41.15-.82.23-1.22.64-3.18,5.44-2.3,5.48.74,0,1.94,0,3.89-.11,5.83,1.46,14.43.57,29,.71,43.5,0,3.82,0,7.65-.07,11.47,16.33-13.46,37.47-29.64,45.25-42.16,10.34-16.62,14.88-37.65,8.23-56.51-4.09-11.6-10.91-20.61-4.73-33C424.13,130.62,430.57,123.15,434,113.74Z"/><path class="kohlrabicls-2" d="M200.27,185.34c-4.19-9.65-13.43-14-16.07-24.79-4.51-18.51,1.3-41-15-55.33-6.32-5.55-12.78-3.77-20-6.38-6.34-2.28-8.42-9.21-11.92-14.29a52,52,0,0,0-11-11.64c-12.68-9.81-31-12.28-44.58-2.73-13.21,9.29-17.07,26.85-14.26,42,1.83,9.88,6.3,19.14,11.45,27.69,6,9.89,14.71,19.46,10.23,31.71-5.23,14.29-20.78,25.75-15.78,42.63,2.26,7.61,8.89,14.68,15.24,19.3,13.9,10.09,28,5.72,29.47,11.27,1.31,5-4.95,11.56-1.68,18.87a20.81,20.81,0,0,0,7.56,9c13.19,9,31.52,7.57,39.57,17.21.71.85,4.35-2.88,6.69-4.83-1.34-5.93-10-15-10.87-20.81-1.21-8-2-16-3.07-24-.5-3.87-1-7.74-1.65-11.59a110.15,110.15,0,0,0-2.27-12.28,2.4,2.4,0,0,1,.65-2.53s0,0,0-.05c-1-3.36,2.09-1.88,3.19,1.38,2.54,7.47,5.45,17.18,7.2,24.88s3.68,12.58,5.44,20.22c1,4.25.36,9.42,1.56,13.61.84-1.09,4.4-5.49,5.14-6.55a3.65,3.65,0,0,0,.44-.36c13.57-12.9,25.22-31.5,27.56-50.34C204.66,206.63,204.31,194.66,200.27,185.34Z"/><path class="kohlrabicls-2" d="M308.65,123.23c-1-9-6.32-15-10.68-22.5-6.7-11.54,1.94-19.79,6.82-29.92,3.55-7.39,4.65-14.8,2-22.7-5.46-16.32-22.69-22-38.34-20.28-8.41,1-13.46,3.11-19.77-4.54-2.3-2.78-3.85-5.44-6.75-7.8-6.09-4.94-14-7-21.76-7.07-14.75-.22-32,7.25-38.06,21.47-7.6,17.74,6.29,33.4,17.27,45.76,8,9,16.09,20.35,11,32.75-4,9.72-12.84,16.61-16,26.85a23.33,23.33,0,0,0,5.69,23.51c7.2,7.57,17.86,10,25.43,16.92,14.38,13.12,17.86,39.84,22,57.53.27,1.19,2.4,14.81,3.13,14.43-.26-3.66,2.07-34.3,2.51-39.33,1.06-11.85,2-18.48,3-30.33.1-1.17-1-7.1-.18-7.58,1-2.94,5.95-3.69,6.52-.05,0,.31.07.61.11.91h0v.09c1.12,8.21.42,16.49-.24,24.74.17,4.07.39,8.13.57,12.18.13,2.81.27,5.64.38,8.48,14.41-20.8,32.46-49.25,39.43-65.61C306.59,142.37,309.71,132.88,308.65,123.23Z"/><path class="kohlrabicls-3" d="M252.52,143.13s-2.92,66.54-4.64,83.36S244.76,279,244.76,279s-24.58,4.1-36.22,8-22,7.73-22,7.73S166,198,138.15,166c-.85-1,21.2,111.75,21.2,121.24a122,122,0,0,0,1.72,19S140,318.83,130.5,357.64s-9.49,85.81,29.32,99.17,93.13,7.76,95.29,13.37l2.15,5.6s1.73,21.56,5.18,19.41l3.45-2.16s5.17-15.52,7.76-13.8c0,0,8.19,11.65,10.35,7.77s0-16.82,3.45-16,72.87,5.18,98.74-47.43,12.5-86.67,3-98.74-17-16.82-17-16.82,2.69-34.06,3.55-59.5-2.58-91.84-2.58-91.84S354.82,232.27,349.65,261c-3.66,20.28-6.26,30-6.26,30s-5.06-6.14-29.64-9.16a328,328,0,0,0-44.09-2.48s-3.2-81.64-4.53-103.16c-3.23-52.39-11.64-73.41-11.64-73.41Z"/><path class="kohlrabicls-4" d="M223.67,337.11a271.79,271.79,0,0,0,35.81,3.21c10.45.2,22.67,1.28,32.42-2.95,1.58-.68,1.11-3.3-.47-3.64-10.14-2.2-21.58.23-31.95.16a295.22,295.22,0,0,1-35-2.44c-3.2-.41-4,5.17-.77,5.66Z"/><path class="kohlrabicls-4" d="M308,337.48c2.22-.43,5-.67,6.82-2.1,1.4-1.1.39-3.11-1-3.61a8,8,0,0,0-3.35-.09c-1.09.07-2.16.22-3.25.35-1.64.21-3,1.33-2.72,3.14a2.8,2.8,0,0,0,3.46,2.31Z"/><path class="kohlrabicls-4" d="M149.2,363.46c7.13,5.2,16.26,9.61,25.27,8.44,1.75-.22,2.36-2.67.44-3.24-8.34-2.49-16.09-4.07-23.43-9.1-2.42-1.66-4.59,2.21-2.28,3.9Z"/><path class="kohlrabicls-4" d="M217.81,379.52a395.58,395.58,0,0,0,50.89,5.81c16.1.7,35.29,1.75,50.47-4.6,1.8-.76,1.69-3.46-.48-3.55-16.61-.69-33.26,2.18-50,1.47s-33.49-2.68-50.25-3.83c-2.66-.18-3.31,4.23-.64,4.7Z"/><path class="kohlrabicls-4" d="M342.64,375.57c11.58-.09,27.45-1.5,36.51-9.51,1.42-1.26-.16-3.07-1.67-2.86-5.55.8-10.81,3.55-16.25,5a109.64,109.64,0,0,1-18.59,3.26c-2.59.23-2.69,4.12,0,4.1Z"/><path class="kohlrabicls-4" d="M167.77,412.27c12.38,5,27.69,9.75,41.23,8,2.35-.32,3.31-3.77.6-4.48-13.35-3.47-27.11-4.48-40.46-8.45-3.27-1-4.37,3.76-1.37,5Z"/><path class="kohlrabicls-4" d="M276.18,425.32c22.84,2.31,48.1,4.57,69.34-5.92,2-1,.51-3.71-1.41-3.33-22.79,4.51-44.8,4.84-67.93,4.24-3.28-.08-3.15,4.7,0,5Z"/><path class="kohlrabicls-4" d="M134.24,169c.5,11.3,5.16,22.72,7.9,33.68Q146.48,220,150,237.48c2.36,11.65,4.35,23.38,6.37,35.09,2.11,12.18,2.93,25,6.17,36.95,1,3.67,6.64,2.94,6.64-.9,0-23.48-6.78-48.4-11.6-71.29-2.45-11.63-5-23.23-7.73-34.8s-4.39-24.62-10-35c-1.4-2.57-5.73-1.45-5.6,1.52Z"/><path class="kohlrabicls-4" d="M251.67,103.4a537.42,537.42,0,0,1,10.86,91.07c.54,14.63.58,29.28.34,43.92-.25,15.14-1.86,30.64-1,45.75.3,5.25,7.33,5,8,0,2-15.57,1.42-31.89,1.63-47.58.2-15.25.18-30.51-.47-45.74-1.27-30-5-60.17-13.79-89-1.1-3.57-6.33-2.09-5.57,1.54Z"/><path class="kohlrabicls-4" d="M368.07,161.31c-.86,25.63.82,51.38.48,77-.16,12.55-.52,25-1.32,37.56-.83,12.88-3.4,26.48-2.56,39.35.28,4.17,6.36,5.37,7.54,1,3.28-12.21,3.07-25.91,3.78-38.49.75-13.13,1.41-26.3,1.77-39.44.7-25.81,1.12-52.4-2.75-78-.62-4.07-6.81-2.87-6.94.94Z"/><path class="kohlrabicls-4" d="M127.14,356.9c-7.33,24-11.34,54-.84,77.62,10.41,23.48,33.29,29.05,56.68,32,15.85,2,31.73,3.91,47.63,5.46,3.67.36,7.33.65,11,1,5.43.5,7.65-.78,8.6,4.85a92.16,92.16,0,0,0,2.54,11.5c1.23,4.09,3.07,13.39,9.13,12.35s11.72-13.38,14.56-17.92l-6,1.56c4.13,2.86,8.31,5.68,12.5,8.44,2.92,1.92,7-.6,7-4-.14-5.41.45-10.77.3-16.17-.16-5.63-8-5.39-8.58,0s-.41,10.78-1,16.17l7-4c-4.43-3.25-8.72-6.31-13.81-8.41a4.35,4.35,0,0,0-4.92,2,61,61,0,0,1-5.78,10c-.41.6-3.73,4.14-3.58,4.47q5.08,2.73,3.56-.05a20,20,0,0,1-.93-2.63c-.52-3.58-2-7.1-2.65-10.7-.58-3.38-.18-7.33-1.63-10.5-3.23-7.06-13.61-6.19-20-7-13.4-1.78-26.85-3.31-40.31-4.69-22.92-2.36-50.72-1.93-62.44-25.77-11-22.39-6.53-50.51-1.16-73.7,1-4.47-5.54-6.3-6.89-1.9Z"/><path class="kohlrabicls-4" d="M329.83,470.61c24.25-.42,45.74-16.08,58.89-35.69A109.12,109.12,0,0,0,404.07,398c2.79-12.41,6.34-29.68,1.9-41.87-1.1-3-5.48-3.34-6.45,0-3.29,11.33-1.5,24.4-3.76,36.14a104.62,104.62,0,0,1-12.7,34.21C371,446.63,351.73,459.46,329,464.41c-3.49.76-2.69,6.26.84,6.2Z"/><path class="kohlrabicls-5" d="M164.77,345.55c7.2-7.91,13.92-16.62,23.45-21.89,8.6-4.76,19.45-5.14,27-11.43,2.93-2.46,1.55-8.5-2.39-9.07-10.81-1.57-23.32,4.88-32,11-9.48,6.74-16.61,16.43-22.7,26.19-2.53,4.05,3.4,8.75,6.68,5.15Z"/><path class="kohlrabicls-5" d="M231.85,309.2l1-.47c.16-.07.32-.13.47-.21a6.57,6.57,0,0,0,2-2,5.14,5.14,0,0,0,.52-4,5.46,5.46,0,0,0-2.38-3.1,8.93,8.93,0,0,0-4.53-.87,5.79,5.79,0,0,0-5.53,7.26,5.94,5.94,0,0,0,2.64,3.42,5.74,5.74,0,0,0,5.78,0Z"/><path class="kohlrabicls-5" d="M328.84,449.65l.33-.06-1.59.21c.33,0,.65,0,1-.05a22.83,22.83,0,0,0,2.5-.39l-1.63.22.34,0a6.49,6.49,0,0,0,3.67-1.3,5.79,5.79,0,0,0,2.17-3.14,7.29,7.29,0,0,0,0-3.22,6,6,0,0,0-2.78-3.62,13.19,13.19,0,0,0-2.1-.85,8.44,8.44,0,0,0-2-.26,7,7,0,0,0-1.92.3,14.07,14.07,0,0,0-1.73.73,11.11,11.11,0,0,0-1.44,1.12,10.61,10.61,0,0,0-1.4,1.76l-.59,1.39-.21,1.56a5.77,5.77,0,0,0,1.26,3.54,5.9,5.9,0,0,0,6.14,2.09Z"/><path class="kohlrabicls-5" d="M362.28,429.28l.81-.94c.19-.23.37-.46.56-.71a4.16,4.16,0,0,0,1-1.87l.2-1.46a3.42,3.42,0,0,0,0-.46,3.68,3.68,0,0,0-.43-1.93,3.78,3.78,0,0,0-1-1.61l-1-.79a5,5,0,0,0-2.53-.68l-.41,0a9.61,9.61,0,0,0-1.51.2l-1.32.56a9.7,9.7,0,0,0-1.26,1l-.94.81a5.77,5.77,0,0,0,0,7.94,5.6,5.6,0,0,0,4,1.65,5.51,5.51,0,0,0,4-1.65Z"/></g></g></svg>