<svg xmlns="http://www.w3.org/2000/svg" viewBox="0 0 512 512"><defs><style>.leekcls-1{fill:none;}.leekcls-2{fill:#9bb533;}.leekcls-3{fill:#4a2d2d;}.leekcls-4{fill:#fff;}</style></defs><g id="Capa_2" data-name="Capa 2"><g id="bocetos"><rect class="leekcls-1" width="512" height="512"/><path class="leekcls-2" d="M283.78,56s-55.62,0-55.62,2.59,9.49,60.79-2.59,111.24-26.81,73.46-26.81,73.46S206.93,269,230.32,285c11.14,7.58,10.78,6.9,10.78,6.9s47.86-66,108.22-106.5S438.5,145.85,439,141.8c1.08-8.63-14.95-44.35-24.15-55.84-6.89.64-15.17,1.77-40.53,14.44a217.35,217.35,0,0,0-34.92,22.42S389,53,388.13,43.49s-51.31-26.31-53.47-23.72S308.36,67.63,301,83.59s-13.8,35.78-13.8,35.78S290.68,61.16,283.78,56Z"/><path class="leekcls-3" d="M286.32,59.31c-.52-5.32-6.32-5.25-5.92.21,4.28,58.77-2.46,117.23-21.75,173.21-10.27,29.79-25.26,56.85-42.95,82.83-18.86,27.73-38.16,55.14-56.87,83-7.17,10.65-13.56,21.23-19.7,32.46-6.59,12.06-14.61,24-30.17,21.26-12.38-2.14-25.6-8.49-24.9-22.86.5-10.26,6.49-21,12.28-29.15,20.09-28.38,41.95-55.72,63.78-82.77,9.79-12.13,17.23-23.31,26.49-35.85,6-8.12,13.19-18.22,17.51-27.28a79.52,79.52,0,0,1-4.52-9.17c-.26-.71-.5-1.29-.77-2-13.41,26.32-39.08,62.83-61.31,92.15-10.94,14.43-22.74,28.12-33.93,42.33-8.23,10.46-17.69,21.13-22.77,33.61-6.94,17.06-2.15,35.94,14.27,45.4,24.87,14.32,41.83-4,53.29-24.55,32.55-58.31,80.53-108,108.07-169.09C285,199.74,293.05,128.1,286.32,59.31Z"/><path class="leekcls-3" d="M85.63,443.51a44.57,44.57,0,0,0-12,7.38c-3.38,2.74-7.71,6-8.83,10.38-.71,2.8,1.75,4.88,4.4,4.4,4-.75,7.41-4.49,10.47-7,3.3-2.74,6.88-5.25,10-8.2,2.85-2.71-.08-8.43-4-6.92Z"/><path class="leekcls-3" d="M92.42,453.61a80.91,80.91,0,0,0-7.28,10.25C83.2,467.29,80.79,471,81,475.05c.14,2.51,2.86,4.45,5.2,3,3.29-2.06,5-5.51,7.06-8.65,2.23-3.31,4.42-6.66,6.76-9.9,3.21-4.42-4.19-10.21-7.63-5.88Z"/><path class="leekcls-3" d="M102.66,460.06c-.4,7-1.16,16.08,2.43,22.42,1.44,2.53,5.63,2.08,6.32-.82,1.61-6.8-.07-14.63.28-21.6.3-5.82-8.7-5.79-9,0Z"/><path class="leekcls-4" d="M251.42,106c1,40.9-7.9,78.46-20.95,116.87-.66,2,2.47,3.32,3.37,1.42C251,188.17,256.73,145.67,255.52,106c-.08-2.63-4.17-2.64-4.1,0Z"/><path class="leekcls-4" d="M225.58,237.19c-.56,1.29-1.17,2.56-1.66,3.88s1.63,2.21,2.4,1,1.29-2.21,1.92-3.33a1.54,1.54,0,1,0-2.66-1.56Z"/><path class="leekcls-4" d="M236,261.18c9.33-17.12,18.45-37.23,19.75-56.89.11-1.71-2.46-2-2.91-.4-5.66,19.45-9.71,37.66-19.5,55.73-.94,1.74,1.71,3.3,2.66,1.56Z"/><path class="leekcls-4" d="M305,131c10.53-19.64,22.7-38.08,34.16-57.14.85-1.42-1.28-3.18-2.36-1.82C323,89.42,312,109.45,302.16,129.3c-1,1.91,1.86,3.6,2.88,1.69Z"/><path class="leekcls-4" d="M290.12,191.69c17.21-19.22,37.29-33.33,58.49-47.72a1.43,1.43,0,0,0-1.44-2.46c-23,10.66-42.94,28.89-59.5,47.73-1.46,1.66,1,4.11,2.45,2.45Z"/><path class="leekcls-4" d="M369.7,130.37c3.23-.85,6.76-2.5,8.67-5.37.9-1.36-.85-2.88-2.16-2.16-2.55,1.42-4.68,3-7.6,3.58-2.57.55-1.48,4.63,1.09,4Z"/><path class="leekcls-4" d="M321.13,190.77c21.64-19.39,45.33-33.74,70.12-48.55,1.27-.77.42-3.11-1.06-2.51-26.46,10.88-50.71,29.22-71.64,48.48-1.73,1.59.84,4.13,2.58,2.58Z"/><path class="leekcls-4" d="M287.47,218.27c2.31-1.45,4.59-2.91,6.76-4.56a1.78,1.78,0,0,0-1.8-3.08c-2.44,1.21-4.75,2.61-7.06,4s-.18,5,2.1,3.6Z"/><path class="leekcls-3" d="M281.55,172.37c19.05-17.92,38-35,60.1-49.27a356.41,356.41,0,0,1,71.7-35.38c5.3-1.89,2.22-6.24-3.34-4.62-50,14.51-100,44.36-132.65,85.08-2.33,2.92,1.35,6.86,4.19,4.19Z"/></g></g></svg>