<svg xmlns="http://www.w3.org/2000/svg" viewBox="0 0 512 512"><defs><style>.lemoncls-1{fill:#f1de17;}.lemoncls-2{fill:#72ab4c;}.lemoncls-3{fill:#4a2d2d;}.lemoncls-4{fill:#fff;}.lemoncls-5{fill:none;}</style></defs><g id="Capa_2" data-name="Capa 2"><g id="bocetos"><path class="lemoncls-1" d="M291,151.4c2.59-4.48,6.89-7.76,9.64-12.15s3.36-11-.84-14l-.33-.07a18,18,0,0,1-1.61.91c-2.72,1.37-6,2.78-9.15,2.53A5.91,5.91,0,0,1,284,126a6.08,6.08,0,0,1-.79-3.93c-18.27,7.86-39.06,6.14-58.93,4.8-9.3-.63-18.72-1.13-27.89.6a85.09,85.09,0,0,0-20.92,7.36c-44.33,21.37-76.82,63.22-93.2,109.62-7,19.7-11.27,40.51-10.63,61.39S78,347.7,90,364.85c1,1.36,2,2.86,1.84,4.52-.16,1.94-1.84,3.33-3.07,4.83-6.27,7.62-.36,20.49,9.08,23.36s19.78-2,26.61-9.08c11.93,4.1,24.83,4.62,37.4,3.54,46.63-4,90.83-30.49,116.28-69.76s31.62-90.45,16.21-134.64C290.19,175.77,284.69,162.27,291,151.4Z"/><path class="lemoncls-2" d="M416.3,218c-1.39-18.44-9-35.58-17.6-51.7-8.26-15.47-17.09-30.6-31.27-41.37-14-10.65-30.61-17-47-23a4.2,4.2,0,0,0-4.53.73,3.16,3.16,0,0,0-3.39,5.11c6.24,7.21,5.68,17.33,5.54,26.31-.16,10.28-2.7,20.36-2.84,30.69-.25,17.18,5.06,33.5,13.43,48.35,16.58,29.39,40.66,53,72.78,64.31,2.56.91,5.32-1,6.05-3.43C412.9,256.23,417.71,236.64,416.3,218Z"/><path class="lemoncls-3" d="M331.52,73c-1-5.89-6.84-12.3-13.18-8.82-6.12,3.35-7.91,10.91-9.26,17.17-2.27,10.5-6.62,20.55-14.07,28.44-4,4.23-13.45,8.13-14.2,14.72-.57,5,4,8.48,8.69,8.28,7.55-.31,14.55-8.29,19.19-13.43a135.46,135.46,0,0,0,17-24.18C329.43,88.46,332.9,80.84,331.52,73ZM311.9,103.68c-3.56,5.36-7.21,10.72-11.8,15.26-1.29,1.28-11,9.12-12,4.79-.2-1,4.11-3.34,4.9-3.94a56.62,56.62,0,0,0,16.83-21.28,68.18,68.18,0,0,0,4.21-11.77c.86-3.32,1.14-6.77,2.12-10.06a16,16,0,0,1,2.22-4.82c3.05-4.21,6,2.9,6.05,5.52a18.7,18.7,0,0,1-1.58,7.11c-2.56,6.48-6.44,12.34-10.3,18.14Z"/><path class="lemoncls-3" d="M152.55,185.1c-1.1,4.9,2.49,11.79,8.26,10.49s8.33-9.18,4.39-13.6a7.55,7.55,0,0,0-10.9-.25A6.94,6.94,0,0,0,152.55,185.1Z"/><path class="lemoncls-3" d="M208.09,159.16c.72-2.87.3-6.22-2.31-7.76-2.28-1.35-6.07-.89-8.49-.23-5.24,1.43-10.23,5.83-10.23,11.6,0,5.2,3.94,7.25,8.66,6.43a17.16,17.16,0,0,0,11-6.86A9.62,9.62,0,0,0,208.09,159.16Zm-11.59.63a8.12,8.12,0,0,1,4.05-1.41c-.75,2-4.34,3.67-6.51,4.61a5.35,5.35,0,0,1,.21-.64A6.38,6.38,0,0,1,196.5,159.79Z"/><path class="lemoncls-3" d="M211.73,191.45a9.53,9.53,0,0,0-12.57,11C201.16,212.56,225.06,196.28,211.73,191.45Zm-3.52,6.29a8.54,8.54,0,0,1-.8.91c-.23,0-.46,0-.69-.05a1.55,1.55,0,0,1,.21-.23A4.12,4.12,0,0,1,208.21,197.74Z"/><path class="lemoncls-3" d="M316.87,105.9c13.48,27.06,27.32,53.93,41,80.91s25.44,54.92,39.6,81.55c1.24,2.34,5.37.71,4.36-1.84-11-27.64-25.9-54.12-39.24-80.7Q341.9,144.63,320.11,104c-1.15-2.14-4.31-.25-3.24,1.9Z"/><path class="lemoncls-3" d="M363.73,198.94c-4.17,13.27-7.54,29.14-7.39,43.13a1.42,1.42,0,0,0,2.77.38c3.39-13.85,5.55-28.48,8.25-42.51a1.88,1.88,0,0,0-3.63-1Z"/><path class="lemoncls-3" d="M341.2,153c-4.33,16.47-9.19,34-9.7,51.07a1.45,1.45,0,0,0,2.84.38c4.06-16.68,6.41-33.72,10.76-50.37.66-2.53-3.24-3.6-3.9-1.08Z"/><path class="lemoncls-3" d="M356.63,177.94c8.24,1.67,16.56,2.83,24.8,4.53,7.37,1.51,14.67,3.91,22.17,4.62,1.88.17,2.73-2.87,1-3.64-14.05-6.2-32.14-8.36-47.44-9.24-2.12-.12-2.61,3.3-.51,3.73Z"/><path class="lemoncls-1" d="M442.41,325.91c.62-7.75,0-19.77-3.85-20.25-7.13-.89-241.67-5.14-243.28-1.93s-19,84.56,41.78,120.52c57.85,34.22,119.71,28.76,159.08,1.93C431,402.43,440,356.28,442.41,325.91Z"/><path class="lemoncls-4" d="M378.46,415.25c-41.78,21.85-115.69,18.32-147.83-16.07-26.13-28-25.69-78.45-24.62-96.34,3-.09,6.59-.16,10.67-.22,21.5-.29,56.56-.09,92.51.33l13.19.15c31.39.4,62.31.95,84.37,1.46,7.73.19,14.37.36,19.56.52.18,3.93.41,8.36.68,13.12C428,334.91,420.24,393.4,378.46,415.25Z"/><path class="lemoncls-1" d="M309.19,303c-10.3,6.68-39.58,25.46-56.07,33.57-20.24,10-28.59,7.07-35.34-6.44-4.07-8.11-2.78-19.59-1.1-27.46C238.18,302.33,273.24,302.53,309.19,303Z"/><path class="lemoncls-1" d="M309.69,319.16c-10.28-7.07-73.59,29.57-76.81,39.53s11.57,29.89,23.14,39.53,17.68,11.57,29.57-1S320,326.23,309.69,319.16Z"/><path class="lemoncls-1" d="M331.54,326.87s-6.75-4.82-11.25-.32-9.64,60.1-8.35,70.38,6.1,19.93,28.92,16.71,33.42-19.28,33.75-28.6-24.43-42.42-30.53-48.53A62.91,62.91,0,0,0,331.54,326.87Z"/><path class="lemoncls-1" d="M383.29,362.54c-20.38-7.4-47.94-45.32-57.06-58.48,31.4.41,62.32,1,84.37,1.46a62.49,62.49,0,0,1,3.85,20.06C415.1,347.11,408,371.54,383.29,362.54Z"/><path class="lemoncls-3" d="M192.84,302.76c-6.24,21.26-3.25,46.25,2.55,67.31,5.45,19.78,16.35,43,35.17,53.34,2.73,1.5,4.82-2.34,2.4-4.11-35.66-26-40.88-75.27-36.45-116,.23-2.15-3.1-2.45-3.67-.49Z"/><path class="lemoncls-4" d="M241.12,320.81c10.15-5.45,20.87-9.35,31.16-14.42,1.32-.65.37-2.61-1-2.3-11.09,2.56-21.9,8.56-31.52,14.44a1.32,1.32,0,0,0,1.33,2.28Z"/><path class="lemoncls-4" d="M266.53,366.94a221.93,221.93,0,0,0,24-24.23,1.26,1.26,0,0,0-1.78-1.78c-8.27,7.78-15.82,16.32-24.24,23.95-1.4,1.27.65,3.29,2.06,2.06Z"/><path class="lemoncls-4" d="M283.45,369.44c1.33-2.47,2.93-4.77,4.35-7.19a1.08,1.08,0,0,0-1.69-1.31,34.45,34.45,0,0,0-4.88,7.2c-.79,1.46,1.44,2.77,2.22,1.3Z"/><path class="lemoncls-4" d="M332.51,385.2c-1.6-12-.7-24.68-3.66-36.47a1.21,1.21,0,0,0-2.37.32,323.89,323.89,0,0,0,3.23,36.53c.24,1.57,3,1.22,2.8-.38Z"/><path class="lemoncls-4" d="M347.55,376.59c-1-1.49-1.71-3.15-2.71-4.64-.73-1.08-2.74-.79-2.64.71a12,12,0,0,0,2.24,5.74c1.27,1.94,4.41.1,3.11-1.81Z"/><path class="lemoncls-4" d="M352.33,318.77c12.74,3.74,23.69,12.31,36.18,16.77,1.59.56,2.63-1.94,1.15-2.72-11.54-6.06-23.88-13.58-36.48-17.13a1.6,1.6,0,0,0-.85,3.08Z"/><path class="lemoncls-3" d="M194.64,304.78c23.92,1.11,47.94.63,71.88,1.06,13.89.24,27.79.46,41.68.76s28.15,1.46,42.15.9c3.61-.15,3.55-5.29,0-5.56-14-1.09-28.15-.49-42.15-.74s-27.79-.57-41.68-.8c-23.89-.4-48-1.61-71.88-.29a2.34,2.34,0,0,0,0,4.67Z"/><rect class="lemoncls-5" width="512" height="512"/></g></g></svg>