<svg xmlns="http://www.w3.org/2000/svg" viewBox="0 0 512 512"><defs><style>.lentilscls-1{fill:#4a2d2d;}.lentilscls-2{fill:none;}</style></defs><g id="Capa_2" data-name="Capa 2"><g id="bocetos"><path class="lentilscls-1" d="M201.1,197.32c9.32-16.87,15.68-37.43,12.53-56.78-1.64-10.06-6.51-18.49-11.71-27.09C190,93.77,172.29,75.64,149.81,68.76a72.09,72.09,0,0,0-44.13,1.18c-35.52,12.86-51.3,55-52.73,89.94-1.56,38,22.29,74.09,60.84,81C149,247.12,184.06,228.13,201.1,197.32Zm-72.33,34c-33.31-.14-59.41-24.53-64.37-57-4.7-30.78,7.67-73.47,35.85-90.34C141.08,59.57,188,97.26,201.89,135.55c5.14,14.18,2.71,30.73-2.63,44.49C188.16,208.66,160.21,231.49,128.77,231.36Z"/><path class="lentilscls-1" d="M445.41,106c-22.67-24.19-57.26-42.8-90.81-44.26-31.71-1.39-62.52,29.33-72.69,57.48-12,33.22,4.85,68.64,29.38,91.17,13.25,12.18,29,24.77,46.55,29.9,19.8,5.8,39-.49,56-11.15a17.45,17.45,0,0,0,11.84-1.33,27.92,27.92,0,0,0,15.09-26.68,14.87,14.87,0,0,0-.33-2.25c10.62-12.4,16.36-30.83,18.13-46.67C460.51,134.47,457.84,119.25,445.41,106ZM423.7,220.86a17.09,17.09,0,0,1-8.58.21c-10.19-2.88-.64-11.14,2.12-14.72,3.22-4.18,15.45-15.65,16.29-3.44C434,209.59,430.76,219,423.7,220.86Zm23.4-76.26c-.67,16.28-4.54,31.8-13.24,45.6a13.81,13.81,0,0,0-12.21.08c-5.5,2.59-10,7.37-13.57,12.22a61.13,61.13,0,0,0-4.71,8,15.15,15.15,0,0,0-1.92,6.14c-.13,2.89,1.42,5.18,3.28,7.19-13.32,6-26.72,12.62-41.77,8.81-13.89-3.51-26.45-13-36.87-22.49-21.16-19.23-40.06-45.92-36.53-76C291.34,119,300,106.51,310.12,95.57c9.24-10,20.27-19.75,33.94-22.63,15-3.16,31.53,3,45.11,9A155.09,155.09,0,0,1,424,102.75c6.11,4.94,12.45,10.46,17.08,16.84C446.41,127,447.47,135.64,447.1,144.6Z"/><path class="lentilscls-1" d="M294.85,279.64a86.49,86.49,0,0,0-74.57,7.06c-21.29,13.07-34.09,37.76-42.52,60.41-13.93,37.41-1.13,80.92,37.22,97.5,37.23,16.1,81-4.34,109.64-28.95,29.35-25.17,43.48-68.89,18.89-102.29C331.52,297.09,313.52,286.58,294.85,279.64Zm29.82,119.64c-11,11.86-24.55,20.75-38.9,28-16.24,8.23-34.41,14.86-52.88,11.85-36.74-6-58-42.2-49.3-77.44,5.15-20.78,13.71-42.85,29.5-58.25,18-17.57,47.23-22.75,71.1-15.73a108.12,108.12,0,0,1,42,24C353.2,336.43,348.17,373.87,324.67,399.28Z"/><rect class="lentilscls-2" width="512" height="512"/></g></g></svg>