<svg xmlns="http://www.w3.org/2000/svg" viewBox="0 0 512 512"><defs><style>.lettuce-leafcls-1{fill:none;}.lettuce-leafcls-2{fill:#c0c728;}.lettuce-leafcls-3{fill:#fff;}.lettuce-leafcls-4{fill:#4a2d2d;}</style></defs><g id="Capa_2" data-name="Capa 2"><g id="bocetos"><rect class="lettuce-leafcls-1" width="512" height="512"/><path class="lettuce-leafcls-2" d="M406.72,209.37c2.58,11.64,13.58,22.31,7.1,35.89S395.38,265,395.07,280.52s2.58,36.54-24.25,56.27-45.6,11.31-56.93,25.53,3.88,32.35-17.13,44.32-48.51,5.16-63.39,14.86-12.29,27.83-33.3,34.62-40.3,9.16-49.81,8.07a31.82,31.82,0,0,1-6.19-1.38,62.69,62.69,0,0,1-18.18-9.5c-7.37-5.53-12.8-12.31-12.16-18.22,1.28-12,4.85-8.73,3.22-24.26s-4.52-25.53,3.57-35.23,10.67-17.8,6.79-25.23-30.08-26.52-31.71-45,7.12-27.8,7.12-35.56S84,245.59,89.78,229.74s16.5-18.43,17.8-28.77-5.18-25.23,6.46-35.9,17.79-9.39,21.67-25.88S143.47,101,160.6,87.77s24-20,33-34.6,27.82-10,60.81-12.28,56.58-15.21,86,1.94,38.17,42.69,43.66,58.85,29.44,42.69,32,62.73S404.12,197.73,406.72,209.37Z"/><path class="lettuce-leafcls-3" d="M383.1,184.14c-.33,2.91-17.79,11-24.58,14.56s-26.2,8.4-35.24,16.82-31.37,30.71-38.8,36.54-33,22.64-39.78,30.71-16.18,21.34-17.15,28.14-.31,8.09-.31,8.09,22.31-8.09,53.67-11.65c30.38-3.43,63.28-11.16,64.42-11.32-9.88,9.38-39.55,19.47-51.48,21.36-12.29,1.94-40.75,5.16-55.94,13.89s-32.35,25.22-36.23,33.64-11,23-11,23A279.25,279.25,0,0,1,236,377.54c23.92-3.24,30.07,0,30.07,0s-29.76,9-48.2,16.8-41.05,23.61-50.44,33c-6.23,6.22-16.87,24.15-23.33,35.48a62.69,62.69,0,0,1-18.18-9.5c5.09-7.24,15-21.5,19.52-28.57,6.15-9.7,19.74-37.19,21-46.89s7.45-34.27,1.63-55-16.5-51.75-23.62-63.06c-6.91-11-17.62-26-18.11-26.84.84.69,24.77,20.36,34.93,35.57a142,142,0,0,1,22.32,57.24c1.77,11.62,3.22,25.86,3.22,25.86s18.12-29.74,28.13-44.94,10.37-30.4,9.4-35.25-7.77-37.51-6.16-50.78,10.68-41.39,12.29-55,7.44-58.21,7.44-58.21,6.79,11.32,5.83,42.69c-.37,12.07-6.15,46.89-8.42,55.62s2.91,50.45,2.91,50.45,47.54-88.94,47.23-85.7-13.59,45.93-18.77,59.18S257.31,253,257.31,253s19.4-12.95,30.08-23.29,33.62-32,52.05-38.48S383.43,181.23,383.1,184.14Z"/><path class="lettuce-leafcls-3" d="M222.15,238.49c-4.08-20.26-11.26-42.37-24-58.94s-32.88-24.5-46.41-40.41c-.83-1-2.74.07-2.22,1.29,7.25,17.32,28,23.66,40.29,36.62,16.5,17.39,21.72,40.38,29.53,62.22a1.46,1.46,0,0,0,2.82-.78Z"/><path class="lettuce-leafcls-3" d="M177.08,303.77c-.29-20.07,1.27-39.89,1.53-59.91.18-13.81-1.69-30.13-13-39.56-1.25-1.05-3.51.32-2.44,1.89,10.14,14.89,11.86,29.3,10.77,47.07-1,16.83-2,33.67-.66,50.51.19,2.38,3.8,2.46,3.76,0Z"/><path class="lettuce-leafcls-3" d="M222.37,201.47a201.06,201.06,0,0,1-10.28-67.94c.32-18.27,2.2-40.38-6.78-57.06-.9-1.66-3.26-.48-2.92,1.23,2.29,11.22,4.78,21.59,5.11,33.16.3,10.48-.18,21-.17,31.43,0,21.11,4.13,40.39,11.16,60.25.85,2.42,4.69,1.42,3.88-1.07Z"/><path class="lettuce-leafcls-3" d="M269.94,192.19c-5.85-24.16-9.41-46.85-1.56-71,5.16-15.84,15.93-35.09,12.33-52.2a1.59,1.59,0,0,0-3,0c-2.37,10.5-3.5,20.69-7.08,31-3.39,9.69-7.32,19.21-9.71,29.23-5.14,21.56-.21,43.08,5.62,64a1.79,1.79,0,0,0,3.44-.95Z"/><path class="lettuce-leafcls-3" d="M271.48,216c19.67-12.49,34.91-30.73,45.76-51.18,8.93-16.82,15.45-34.74,27.72-49.6,1-1.19-.58-2.83-1.72-1.72-12.72,12.35-18.68,28.82-26.37,44.41-11.39,23.09-27.56,39.41-47.6,55.23-1.62,1.28.48,4,2.21,2.86Z"/><path class="lettuce-leafcls-3" d="M313.67,171.71c18.55-5.65,43.4-5.36,57.74-20.17a1.6,1.6,0,0,0-1.94-2.5c-9.22,5.36-17.94,9.5-28.32,12.25-9.44,2.5-19,4.61-28.21,7.78-1.64.57-1,3.16.73,2.64Z"/><path class="lettuce-leafcls-3" d="M319.08,311.78c15.59-1,29.49,2.83,44.29,6.92a1.72,1.72,0,0,0,1.32-3.13c-13.78-7.66-30.25-8.69-45.61-7.21-2.15.21-2.22,3.56,0,3.42Z"/><path class="lettuce-leafcls-3" d="M238,389.55c13.82-.51,26.5,4.15,39.93,6.08,1.72.25,3.05-2,1.28-3-11.92-6.69-27.9-7.33-41.21-7.05-2.57.06-2.57,4.08,0,4Z"/><path class="lettuce-leafcls-3" d="M216.08,385.17c9.63-4.06,17.86-9.84,26-16.28,9.4-7.41,19.56-14.26,28.5-22.19a1.49,1.49,0,0,0-1.44-2.48c-9.17,3.39-16.71,10.31-24.19,16.43-9.61,7.87-19.29,15.49-30.19,21.5-1.59.88-.48,3.76,1.28,3Z"/><path class="lettuce-leafcls-3" d="M339.07,239.28c-13.45,30.92-51.16,40-66.45,69.77-1.16,2.25,2.22,4.24,3.41,2,15.52-29.38,55.14-38.24,66-70.53.57-1.69-2.19-2.9-2.91-1.23Z"/><path class="lettuce-leafcls-3" d="M322.34,266.32c18.71-3.31,41.92-1.5,55.77-17a1.69,1.69,0,0,0-2.39-2.39c-15.32,13.69-35.5,11.5-54.15,16.63-1.82.5-1,3.1.77,2.78Z"/><path class="lettuce-leafcls-4" d="M190.57,357.15c11.56-19.22,25.74-38.75,33.78-59.78,8.18-21.37-.81-42.48-1.23-64.25-.42-22.31,5.92-43.93,11-65.43,4.53-19.05,9.87-40.76,5.11-60.23-.79-3.25-5.54-2.42-5.67.77-.86,21.42-3.14,41.31-8.2,62.21-4.59,19-9.66,38.15-10.16,57.78-.53,21.2,9.35,43.38,2.43,64.07-3.57,10.69-10.09,20.51-15.59,30.28-5.85,10.36-11.44,20.85-17.08,31.32-2,3.66,3.43,6.83,5.57,3.26Z"/><path class="lettuce-leafcls-4" d="M146.07,463.9c12.56-21.72,33.35-45.31,55.27-57.68,23-13,49.06-17.09,72.45-28.53,2.44-1.19,1.29-5.84-1.42-5.24-18.41,4.11-56.09,15.62-78.63,30-21.66,13.82-43.37,34.92-52.93,59.1-1.07,2.69,3.69,4.89,5.08,2.48Z"/><path class="lettuce-leafcls-4" d="M191.34,388.87c9.57-14.9,17.79-30.52,31.25-42.44,12-10.6,26.38-16.42,41.73-20.34,26-6.64,60.12-8,80.95-26.95,3.31-3,.44-4.31-2.91-2.13-14.58,9.42-29.13,11.28-45.28,14.87-15.59,3.47-32.35,4.3-47.43,9.68-31.35,11.18-49.52,35.7-62.75,65.42-1.35,3,2.58,4.79,4.44,1.89Z"/><path class="lettuce-leafcls-4" d="M121.57,235.78c16.64,25.29,31.53,51.51,39.24,81,3.92,15,5.46,30.37,3.5,45.83A140.33,140.33,0,0,1,151,405.93c-7.29,15-16.66,29-27,42.13a3.76,3.76,0,0,0,0,5.14c1.25,1.28,3.94,1.54,5.15,0,19.21-24.46,35.75-52,41.3-83a123.74,123.74,0,0,0-.85-47.82,204.49,204.49,0,0,0-15.27-44.57c-7.51-16-16.8-31-26.47-45.68-2.57-3.9-8.87-.26-6.29,3.67Z"/><path class="lettuce-leafcls-4" d="M240.74,254.82c2.3-5.14,5.15-10,7.44-15.13,3.4-7.63,6.92-15.19,10.88-22.56,7.95-14.8,17.11-28.91,26.26-43,2.05-3.15-3-6.07-5-2.94-9.15,14.08-18.32,28.19-26.27,43-4,7.36-7.48,14.92-10.87,22.55-2.29,5.15-5.15,10-7.45,15.13-1.52,3.39,3.5,6.35,5,2.94Z"/><path class="lettuce-leafcls-4" d="M260.47,254.49c4.54-2,8.4-5,12.26-8.05s7.76-6.18,11.57-9.35c7.38-6.14,14.51-12.55,21.7-18.9,13.39-11.83,27.73-23.6,45.3-28.4,11.08-3,22.63-3.4,34.05-3.78,3.73-.12,3.75-5.95,0-5.82-10.28.35-20.64.72-30.74,2.83a82.71,82.71,0,0,0-25.95,10.41c-15.91,9.61-29.08,23-43.14,35q-6.72,5.73-13.62,11.25c-4.52,3.61-9,7.41-14.37,9.73-3.43,1.49-.47,6.51,2.94,5Z"/><path class="lettuce-leafcls-4" d="M230.26,319.4c3.69-10.92,8.63-21.57,15.77-30.69,6.41-8.2,14.44-15,22.77-21.17s16.85-11.68,25.09-17.78A182.13,182.13,0,0,0,318,227.94c4.57-4.86,9.3-9.43,15-13A120.53,120.53,0,0,1,350.9,206a3,3,0,0,0,2-3.58c-.37-1.37-2.14-2.64-3.58-2-11.35,4.77-22.1,10.09-31,18.78-4.38,4.29-8.36,9-12.75,13.25a136.65,136.65,0,0,1-12.23,10.44c-16.92,12.92-36.22,23.37-50,39.92-8.59,10.29-14.44,22.41-18.71,35-1.2,3.56,4.42,5.09,5.62,1.55Z"/></g></g></svg>