<svg xmlns="http://www.w3.org/2000/svg" viewBox="0 0 512 512"><defs><style>.lettucecls-1{fill:none;}.lettucecls-2{fill:#c0c728;}.lettucecls-3{fill:#4a2d2d;}.lettucecls-4{fill:#fff;}</style></defs><g id="Capa_2" data-name="Capa 2"><g id="bocetos"><rect class="lettucecls-1" width="512" height="512"/><path class="lettucecls-2" d="M41.51,172.59s-15.22,8.7-13,16.53,8.7,2.18,35.24,13.49,54.82,39.59,67.87,75.7,3.92,103.55,24.36,134.44,39.59,39.59,70.92,37.85,40-7.83,40-7.83,33.5,14.35,61.78-6.53,30.46-59.6,38.72-86.58,23.06-56.12,46.12-74,49.16-27.41,59.17-38.72,4.79-17.84-3.92-27.41-22.62-13.92-22.62-13.92S464,177.38,454,162.15s-32.19-5.65-32.19-5.65,24.36-29.15,7.39-45.69-38.72,1.74-38.72,1.74,17-24.36.87-32.63-28.71,7.4-28.71,7.4,5.39-30.55-13-35.24c-25.67-6.53-37.42,25.23-37.42,25.23S306,49.47,282.54,52.52,249,84.27,249,84.27s-7.4-29.58-28.72-31.75c-19.71-2-22.62,21.31-22.62,21.31s-18.76-32.85-40-26.54c-27.84,8.27-16.09,38.29-16.09,38.29s-5.66,3.48-8.27,13.49a40.27,40.27,0,0,0,0,19.14S94.15,72.53,60.65,96s14.8,49.6,14.8,49.6-27-12.18-38.29.87S41.51,172.59,41.51,172.59Z"/><path class="lettucecls-3" d="M31,193c22.13,1.87,45.73-1.82,67.25-6.93,1.76-.42,2.14-2.31,1.52-3.74-4.84-11.16,2.28-23,13.76-25.67,10.19-2.33,20.62,1.69,27.68,9.07,13.52,14.12,14,34.13,16.53,52.33.56,4.06,6.43,3.29,7.47,0,2-6.37,12.87-27.15,23.1-22,8,4,6.56,19.11,6.93,26.37.92,17.9-.61,34.73-3.25,52.46-.33,2.22.95,5.11,3.71,4.86,18-1.63,41.89-2.61,50.89,16.74,8.87,19.06,0,43.4-3.85,62.83-3.55,17.8-8.51,36.82-3.94,54.91,3.5,13.81,13.42,26.77,28.1,28.57,4,.49,5.65-6,2.08-7.65C245.9,424.34,244.57,402,248.83,379.4c3.76-20,10-40.48,10.94-60.87.65-15-3.41-30.85-16.11-40-13.75-9.93-32.09-8.21-48-6.48l3.84,3.85c1.91-14.64,2.15-29.51,2.87-44.23.53-11.13,2-26.3-4.71-36-14.47-20.84-32.6,7.49-39.57,19.42l7.22,2c-.92-25-7.88-58.35-35.71-66.36-20.08-5.77-43.71,11.83-34.53,33.62l1.78-3.14c-22,5.33-43.37,6.2-65.89,6.67-3.37.07-3.28,4.9,0,5.18Z"/><path class="lettucecls-3" d="M238.92,280.26c14.7-9.4,28.71-7.7,44.1-1.34,3.75,1.55,6.38-4.75,2.77-6.57l-1.8-1.46c-1.31-2-5.26-1.49-4.93,1.33.28,2.42.34,3.08,1.81,5l4.92-4.92c-14.81-9.91-36-7.24-50.35,2-3.73,2.38-.27,8.35,3.48,5.95Z"/><path class="lettucecls-3" d="M282,263.94c.14-17.14,4.26-41.21,24.46-45.62,15.3-3.33,35.24,15.46,43.79,26.12,2.88,3.59,8.35-1,6.22-4.8-8.65-15.4,2.88-43.52,17.5-52.37,23.71-14.36,33.14,16.62,37.49,33.52.8,3.1,5.47,3.85,7,.91,5.65-10.79,18.2-11.07,26.83-3.69s8.6,17.15,10.22,27.28c.53,3.29,6.12,3.29,6.65,0,2.37-14.57-4.94-31.34-18.62-37.85a24,24,0,0,0-31.71,10.39l7,.92c-3.18-12-6.51-29.32-17.07-37.39-8-6.14-18.71-6.29-27.71-2.27-10.35,4.62-17.44,14-21.07,24.51-3.79,11-8,27.86-3.78,39.09l7.24-3.05c-6.94-9.31-16.22-15.91-25.94-22.08-8.55-5.44-17.16-9.2-27.35-6.06-22.74,7-25.91,32.12-25.43,52.44.06,2.74,4.23,2.75,4.25,0Z"/><path class="lettucecls-3" d="M136.16,116.69c.07-9.08,2.63-20.75,9.06-27.39,10.35-10.68,23.42-11.31,34-.57,13.84,14,12.57,38,13.52,56.27a4.35,4.35,0,0,0,7.33,3c14.06-13.11,35.59-8.56,45.21,7.39,9.31,15.44,9.56,36.75,7.89,54.08-.28,2.92,3.54,4.92,5.88,3.37,10.35-6.84,24.62-3.75,29.28,8.22a3.68,3.68,0,0,0,7.09-1.95c-3.06-18.79-26.67-23.2-40.32-13l5.88,3.37c-.08-23.64,3.68-51.66-16.55-69C229.94,128,208.15,130.36,194,142l7.32,3c-1-24.61-1.46-59.7-29.68-69.65-10.91-3.84-21.45,1.07-29.37,8.77-9.79,9.51-12,19.45-11.82,32.57.05,3.66,5.65,3.67,5.69,0Z"/><path class="lettucecls-3" d="M242.21,74.93a269.93,269.93,0,0,1,8.51,30.95,3.23,3.23,0,0,0,4.72,1.92c10.79-7.46,35.64-17.23,44.38-2.68,7.82,13,5.09,27.36,7.19,41.48.48,3.29,5.57,2.94,6.31,0,3.85-15.28,1.21-42.06-12.79-52.08-14.18-10.15-35.59-.13-48.33,7.73l4.72,1.92a152.92,152.92,0,0,0-9.62-31.39c-1.27-2.89-6.07-.83-5.09,2.15Z"/><path class="lettucecls-3" d="M260,185c3.38-6.29,6.33-12.3,13.68-14.43,10.22-2.94,20.26.29,28.28,6.87,2,1.67,6.34.86,6-2.46-.91-7.81-2.41-14.38,1.53-21.76A28.59,28.59,0,0,1,326.2,139c14.65-4.58,28.33,1.33,40.05,10,2.4,1.77,5.62-.65,5.66-3.25.26-15.76,15.4-25.51,26.51-33.43,2.6-1.85,1.12-6.14-2.23-5.3-7.79,1.95-14.64,7.54-19.68,13.64-5.94,7.21-7.54,15.13-11.61,23.19l5.91-.76c-13.72-11.24-33.2-18-50-9.19-7.36,3.86-12.79,9.27-15.87,17-2.86,7.19-5,17.2-3.9,24.92l5.82-3.39c-17.71-13.7-42.07-11.42-51.65,9.71-1.44,3.16,3.05,6,4.76,2.78Z"/><path class="lettucecls-3" d="M436.29,209.29c1.61-1.91,3.54-3.56,5.19-5.47s3.48-3.61,5.17-5.48a2.05,2.05,0,0,0-2.48-3.21,41.75,41.75,0,0,0-6.55,4.83,29.24,29.24,0,0,0-2.71,2.63c-1,1.13-1.65,2.45-2.57,3.65-1.73,2.25,2.11,5.22,4,3Z"/><path class="lettucecls-4" d="M225.89,427.85c-29.1-11-39.54-37-43.21-66.14-2.92-23.14-1.28-52-14.86-72.1-1.35-2-4.9-.82-4.09,1.72,4.82,15.18,8.9,29.27,10.62,45.24,1.64,15.23,2.49,30.63,6.36,45.51,6,23.06,20,43.67,44.14,49.54,2.48.6,3.36-2.89,1-3.77Z"/><path class="lettucecls-4" d="M278.68,425.51c25.52-12.21,33.22-40.06,40.83-65,4.61-15.12,10.55-29.61,18.82-43.13,8-13.1,18.85-23.59,27.77-35.89,1.36-1.88-1.33-4.5-3.2-3.2-20.49,14.31-34.76,41.85-43.27,64.67-10.44,28-13.19,64.11-42.73,79.52-2,1.06-.25,4,1.78,3Z"/><path class="lettucecls-4" d="M288.22,354.52c6.11-16.69,10-35.44,6.66-53.17-.38-2-3.42-1.45-3.5.48-.69,17.78-1.1,34.59-6.19,51.85-.58,2,2.34,2.71,3,.84Z"/><path class="lettucecls-4" d="M385.28,265.54c4-1.09,8.72-2.81,11.58-6a1.63,1.63,0,0,0-2-2.55c-3.62,1.71-6.67,3.83-10.6,4.94a1.86,1.86,0,0,0,1,3.58Z"/><path class="lettucecls-4" d="M205.08,340c1.37-10.85,7.61-18.67,15.95-25.22,1.88-1.48-.51-4.14-2.44-3.16C208.06,317,202,328.62,200.83,340c-.29,2.73,3.92,2.66,4.25,0Z"/><path class="lettucecls-4" d="M160.07,260c-1.42-5.12-2.47-10.62-4.55-15.51-.71-1.65-3.7-.85-3.47.94.69,5.28,2.58,10.55,4,15.69.7,2.62,4.79,1.5,4.06-1.12Z"/><path class="lettucecls-4" d="M227.54,249.91c-2.25-16.51.57-32.28,6.71-47.64.68-1.7-2-2.74-2.9-1.22-8.91,15.35-11.09,32.66-8,50,.5,2.78,4.54,1.54,4.18-1.15Z"/><path class="lettucecls-4" d="M171.32,174.78c.49-9.88,1.6-19.7,1.89-29.58,0-1.66-2.57-2.06-2.93-.4-2.15,9.89-2.72,19.89-3.14,30-.11,2.69,4,2.67,4.18,0Z"/><path class="lettucecls-4" d="M338.37,200c.51-7.77.7-15.54-.92-23.19-.48-2.27-3.9-1.68-3.95.53-.15,7.56.38,15.1.05,22.66-.14,3.11,4.62,3.07,4.82,0Z"/><path class="lettucecls-4" d="M390.68,162.59a39.8,39.8,0,0,1,1.21-8.19,2,2,0,0,0-3.67-1.55c-1.86,2.83-2.35,6.41-2.4,9.74-.05,3.13,4.9,3.13,4.86,0Z"/><path class="lettucecls-4" d="M269.47,146.66c1.1-7.26,4.25-13.27,6.75-20,.66-1.79-2-3.24-3.2-1.86-4.92,5.48-7,13.56-8,20.69-.4,2.87,4,4.15,4.43,1.22Z"/><path class="lettucecls-4" d="M228,124.5c-.47-3.51-.79-7-2.15-10.28a1.75,1.75,0,0,0-3.42.47c-.47,3.76.23,7.42.73,11.15.19,1.35,1.91,2.06,3.09,1.75A2.58,2.58,0,0,0,228,124.5Z"/><path class="lettucecls-4" d="M336.22,117.34c0-6.45.72-13.38-.71-19.71a2.16,2.16,0,0,0-4.14,0c-1.43,6.33-.73,13.26-.71,19.71,0,3.57,5.54,3.58,5.56,0Z"/><path class="lettucecls-3" d="M63.64,186.8c-2.61-2.29-6.17-3.46-9.35-4.8a48.32,48.32,0,0,1-9.81-5.47c-1.48-1.08-3.35,1.34-2,2.54,5.2,4.49,12.25,11.46,19.59,11.43,1.78,0,3-2.43,1.53-3.7Z"/></g></g></svg>