<svg xmlns="http://www.w3.org/2000/svg" viewBox="0 0 512 512"><defs><style>.limecls-1{fill:#72ab4c;}.limecls-2{fill:#4a2d2d;}.limecls-3{fill:#fff;}.limecls-4{fill:#c2c92e;}.limecls-5{fill:none;}</style></defs><g id="Capa_2" data-name="Capa 2"><g id="bocetos"><path class="limecls-1" d="M261.43,120.41s14.61,6.64,39.19,9,47.16,1.66,60.45,24.25,21.25,71.41,15.61,80-52.15,4.65-79.38-30.22S268.74,131,261.1,126.72,261.43,120.41,261.43,120.41Z"/><path class="limecls-1" d="M250.8,153.62c.52-5.54,7.64-16.61-.66-20.92s-15.61,10-23.58,10.29S163.79,129.71,120,160.26s-47.17,77.39-45.84,101S93.71,311,93.38,315.36,87.07,327.65,95.7,337s18.93-3,29.23,2,52.8,15.61,97-10.63,57.12-73,57.12-94.65C279,189.82,249.81,164.25,250.8,153.62Z"/><path class="limecls-2" d="M103.34,262.78c-.18-.46-.37-.91-.57-1.36l-.85-1.1a5.68,5.68,0,0,0-2.48-1.43l-.31-.13-.29-.11a6.74,6.74,0,0,0-3.62,0,5,5,0,0,0-2.31,1.22,5.06,5.06,0,0,0-1.76,1.91,6.87,6.87,0,0,0-.93,3.43c.08.6.16,1.21.25,1.81a6.66,6.66,0,0,0,1.75,3,4.94,4.94,0,0,0,2.19,1.41A5.13,5.13,0,0,0,97,272a6.83,6.83,0,0,0,3.44-.93l1.37-1.07a6.66,6.66,0,0,0,1.75-3,6.74,6.74,0,0,0,0-3.62C103.51,263.19,103.43,263,103.34,262.78Z"/><path class="limecls-2" d="M107.66,233.21c-6.13,0-6.14,9.53,0,9.53S113.8,233.21,107.66,233.21Z"/><path class="limecls-2" d="M119,252.36a4.89,4.89,0,0,0-4.71,6.18c.05.24.1.48.16.72a5.79,5.79,0,0,0,.5,1.27,3.71,3.71,0,0,0,.91,1.06l-.08-.06.09.07a4.31,4.31,0,0,0,6.13.17,5,5,0,0,0,1.55-2.51c.06-.24.1-.48.16-.72a5,5,0,0,0-1.26-4.75A5,5,0,0,0,119,252.36Z"/><path class="limecls-2" d="M246,143.41a51.73,51.73,0,0,0,16.72-16.55c3.68-5.77,8-13.92,4.95-20.66a3.2,3.2,0,0,0-5-.65c-4,4.74-4,11.87-6.53,17.46a46.12,46.12,0,0,1-13.29,16.31c-2.32,1.86.67,5.62,3.15,4.09Z"/><path class="limecls-2" d="M260.24,123.4c30.15,25,74.86,39.49,91.72,77.58,1,2.27,4.34.31,3.33-1.95-17.72-39.61-60.16-53.16-91.76-78.92-2.3-1.87-5.6,1.36-3.29,3.29Z"/><path class="limecls-2" d="M301.82,151.94c-2.16,16.18-5.13,34.8.36,50.63.44,1.28,2.7,1.19,2.52-.34a235.5,235.5,0,0,1,0-50.29c.18-1.84-2.6-1.76-2.84,0Z"/><path class="limecls-2" d="M332.64,174.1c-2.43,16.17-3.66,33.34-1.5,49.6.22,1.63,2.6,1.75,2.63,0,.34-16.5.38-32.69,2.23-49.14.21-1.9-3.08-2.36-3.36-.46Z"/><path class="limecls-2" d="M323.21,161.81a125.47,125.47,0,0,1,36.22,3.54,1.16,1.16,0,0,0,.62-2.23,83.53,83.53,0,0,0-36.84-4.24c-1.84.18-1.9,3,0,2.93Z"/><path class="limecls-2" d="M296,145.37c13.14-3.7,26.05-5.26,39.66-3.83,1.4.15,1.72-2.21.33-2.47-13.71-2.52-27.75-1.69-40.77,3.45-1.73.68-1.09,3.37.78,2.85Z"/><path class="limecls-1" d="M432.8,288.46c-2,15-4.32,66.09-62.77,93s-108.93,10-143.8-22.58-33.21-80-29.56-84c.34-.37,2.67-.68,6.63-.95,32.6-2.18,175.18-.91,216.35-.5l11.17.12S434.21,277.92,432.8,288.46Z"/><path class="limecls-3" d="M419.65,273.39c-1.49,19.72-9.16,57.07-44.3,80.17-49.5,32.54-95.65,25.57-133.52-3.66-27.89-21.52-36.14-58.2-38.53-76,3.59-.24,8.51-.44,14.47-.61,19.14-.51,49.11-.66,80.57-.63h8.53c9,0,18,0,26.94.09l5.18,0c24.59.12,47.62.3,64.46.45Z"/><path class="limecls-4" d="M298.34,272.65c-8.76,19.92-29.35,62.51-45.88,64.29-21.58,2.33-37.53-41.84-38.86-51.14-.69-4.77,1.69-9.27,4.17-12.52C236.91,272.77,266.88,272.62,298.34,272.65Z"/><path class="limecls-4" d="M351.44,339c-5.65,13.28-18.61,23.91-45.51,24.24S279,353.89,281,336.61c1.57-13.46,18.49-49,25.85-63.95,9,0,18,0,26.94.09,1.94,5.17,4.75,12.33,7.66,18.7C346.78,303.08,357.08,325.66,351.44,339Z"/><path class="limecls-4" d="M383,317.35c-17.32,2-35.54-28.34-44-44.57,24.59.12,47.62.3,64.46.45C403.87,289.67,400,315.44,383,317.35Z"/><path class="limecls-3" d="M237.26,292.73c1.42-1.08,2.88-2.12,4.22-3.31,1.19-1.06-.36-3.07-1.71-2.21s-2.7,1.93-4,2.92a1.56,1.56,0,0,0-.54,2.06,1.52,1.52,0,0,0,2,.54Z"/><path class="limecls-3" d="M248.33,320.7c7-8.22,15.21-15.48,22-23.83,1.24-1.53-.41-4.37-2.3-3-8.73,6.39-15.86,15.59-22.44,24.08-1.49,1.92,1.1,4.68,2.74,2.74Z"/><path class="limecls-3" d="M305.46,334.76c2-8.08,4.56-16.21,5.85-24.44a1.73,1.73,0,0,0-3.33-.92c-2.62,7.91-4.08,16.29-6,24.41-.52,2.23,2.88,3.19,3.44.95Z"/><path class="limecls-3" d="M326.43,338.78c.52-15.45,1-33.27-3.72-48.16a1.49,1.49,0,0,0-2.91.4c-.08,7.92,1.5,15.91,2.14,23.81s1,16,1.26,23.95a1.62,1.62,0,0,0,3.23,0Z"/><path class="limecls-3" d="M381.55,295.37c-2.22-2.78-4.36-6.06-7.17-8.27a2,2,0,0,0-3.11,2.39c1.7,3.34,4.67,6.24,7.08,9.08,1.9,2.24,5-1,3.2-3.2Z"/><path class="limecls-2" d="M311.39,270.78c-5.48-1.86-12.16-1.2-17.89-1.34-7.83-.2-15.67-.34-23.5-.2-16.76.31-33.53-.05-50.28.65-6.15.25-12.41.3-18.54.77-6.54.5-8.26,3.23-9.15,9.65-2.74,19.7,1.18,42.66,12.89,59.07a2.79,2.79,0,0,0,4.81-2.81c-4.23-8.89-8.29-17.56-10.43-27.22-1.88-8.54-3.78-20.31-1.68-29,1.21-5.05,3.81-4.75,8-5.18a80.7,80.7,0,0,1,8.22-.59c6.58,0,13.16-.19,19.74-.31q21.67-.39,43.34-.19,10,.09,19.91.32c4.77.12,9.86.9,14.55-.11,1.85-.39,1.57-2.93,0-3.47Z"/><path class="limecls-3" d="M210.22,154.52a82.59,82.59,0,0,0-39.36-2c-12,2.17-27.23,6.86-35.61,16.19-2.95,3.29-.15,9.63,4.63,8,10.86-3.79,20.27-9.8,31.71-12.3a102,102,0,0,1,36.12-.77c5.88.88,8.51-7.31,2.51-9.13Z"/><path class="limecls-3" d="M121.49,182.27a45.27,45.27,0,0,0-2.45,4.27c-1,2.25-1.6,5.93,1.09,7.35,4.59,2.42,7.86-3.51,10-6.58,1.5-2.15.46-5.64-1.79-6.83a5.09,5.09,0,0,0-6.84,1.79Z"/><path class="limecls-3" d="M157.71,330.4c3.4.06,10.07,1.08,10.07-4.09s-6.67-4.15-10.07-4.09a4.09,4.09,0,1,0,0,8.18Z"/><rect class="limecls-5" width="512" height="512"/></g></g></svg>