<svg xmlns="http://www.w3.org/2000/svg" viewBox="0 0 512 512"><defs><style>.lycheecls-1{fill:#f5808f;}.lycheecls-2{fill:#4a2d2d;}.lycheecls-3{fill:#fff;}.lycheecls-4{fill:none;}</style></defs><g id="Capa_2" data-name="Capa 2"><g id="bocetos"><path class="lycheecls-1" d="M208.63,122.4c-.39,1.76-.75,3.53-1,5.3a51,51,0,0,0-.89,11.37c.35,4.79,1.13,9.63.65,14.44-.24,2.37-.73,5.06-3,6.41-2.56,1.55-5.82.21-7.29-2.2-1.6-2.63-1.84-6.05-2-9.05s-.37-6.13-.58-9.22a72.3,72.3,0,0,1,.65-18.06c-2.55,0-5.1.15-7.65.42-63.24,6.75-92.38,65.38-93.09,115.83s12.79,97,81.37,116.55,106.49-46,116.18-79.95C314.12,196.87,264.37,131.3,208.63,122.4Z"/><path class="lycheecls-2" d="M176.08,152.18a28,28,0,0,0,23.8,14.19c8.62.18,19.76-4.06,22.58-12.9.85-2.68-2.2-4.47-4.42-3.39-6.3,3.07-10.55,7.79-18.16,7.92s-13.95-4.12-18.59-9.84c-2.41-3-7.08.84-5.21,4Z"/><path class="lycheecls-2" d="M199.89,159.15a168.14,168.14,0,0,1-1.54-37.57c.54-6.52,1.42-13.3,4.25-19.28a29.7,29.7,0,0,1,7.54-10.18,3.11,3.11,0,0,1,1.2-.7c1-.26,1.5.4,1.62,1.3a19.5,19.5,0,0,1-1,8.53c-1.11,3.43-2.8,6.64-4,10a100.24,100.24,0,0,0-4.52,17,82.18,82.18,0,0,0,.81,31.87c1.09,4.51,8.57,3.66,8.23-1.12-.59-8.42-1.11-16.65-.22-25.07,1-9.42,4-18.16,6.35-27.27,1.54-6.07,5-26.41-7.8-22.87-11.26,3.1-16.69,18.63-18.26,28.61-2.51,15.84-1.64,32.66,1,48.42C194.31,165,200.46,163.21,199.89,159.15Z"/><path class="lycheecls-2" d="M251.17,170.7c3.75-3.85,7.51-7.68,11.23-11.56,3.36-3.49,7.33-7.08,9.74-11.31.87-1.54-.94-3.58-2.53-2.53-4.06,2.71-7.34,6.85-10.6,10.45-3.62,4-7.19,8-10.77,12-1.76,2,1,4.85,2.93,2.93Z"/><path class="lycheecls-2" d="M273.08,185c9.26-4.88,19.87-9.47,27.69-16.55,1.49-1.35-.07-4.22-2-3.49-9.89,3.7-18.91,10.73-27.8,16.36a2.13,2.13,0,0,0,2.15,3.68Z"/><path class="lycheecls-2" d="M213.46,201.83c-1.94,4.79-4.73,9.88-5.67,15a2.27,2.27,0,0,0,4.12,1.74c2.92-4.51,4.46-10.38,6.4-15.37,1.18-3-3.65-4.29-4.85-1.34Z"/><path class="lycheecls-2" d="M241.64,205.82l9.21,5.4c2.78,1.62,5.49,3.35,8.74,3.67,2.39.23,2.87-2.72,1.74-4.19-1.93-2.49-5.1-3.82-7.84-5.25l-8.91-4.67c-3.32-1.74-6.2,3.14-2.94,5Z"/><path class="lycheecls-2" d="M218,249.37c-.15,3.4-.83,7.37,0,10.7.54,2.19,3.47,1.88,4.15,0,1.15-3.19.84-7.34,1.05-10.7s-5.05-3.34-5.19,0Z"/><path class="lycheecls-2" d="M165.34,238.17l-1.21,13.21c-.36,4-1.17,8,0,11.92.51,1.74,3.23,2.35,4.11.53,1.76-3.6,1.73-7.55,2-11.51l1.08-14.15c.29-3.86-5.66-3.8-6,0Z"/><path class="lycheecls-2" d="M161.91,195.45c-10.92,3.62-24.77,8.21-32.76,16.87-1.31,1.42-.05,4,2,3.39,5.17-1.64,9.73-4.73,14.53-7.19,5.76-2.94,11.63-5.66,17.64-8.06,3-1.21,1.86-6.08-1.38-5Z"/><path class="lycheecls-2" d="M132.33,172.61c-9.68-4-18.14-10.52-27.77-14.42-2.13-.87-3.15,2.06-2,3.45,6.77,8.29,18.49,12.83,28.31,16.29,3.41,1.2,4.66-4,1.47-5.32Z"/><path class="lycheecls-2" d="M159.07,153.61c-2.43-4.57-4.74-9.2-6.85-13.93s-3.64-9.73-6.44-14c-1.49-2.3-4.54-.73-4.18,1.77,1.42,10,7.81,20.3,12.6,29.05,1.75,3.18,6.57.35,4.87-2.85Z"/><path class="lycheecls-2" d="M110.81,208.88c-9-.54-20.12-2.26-28.86.5a2.29,2.29,0,0,0,0,4.38c9,2.33,19.65.79,28.86,1.13,3.88.14,3.84-5.78,0-6Z"/><path class="lycheecls-2" d="M101,241.94c-5.4,1.7-10.76,3.51-16.07,5.5-4.35,1.63-9,3-12.61,5.9-1.4,1.13-.29,3.94,1.54,3.71,4.75-.6,9.09-2.92,13.55-4.59,5-1.87,10-3.59,15-5.21,3.37-1.07,1.94-6.38-1.46-5.31Z"/><path class="lycheecls-2" d="M131.36,248.08c-2.82,2.71-5.58,5.5-8.24,8.38-2.48,2.69-5.26,5.45-6.79,8.83-.8,1.76,1,4.48,3,3,3-2.19,5.23-5.18,7.68-7.94q3.91-4.4,8.09-8.54c2.43-2.41-1.29-6.12-3.76-3.75Z"/><path class="lycheecls-2" d="M142.88,282c-2.39,5-5.47,10.27-6.48,15.81-.32,1.8,1.95,3.65,3.39,2,3.69-4.27,5.82-9.74,8.24-14.77,1.65-3.45-3.51-6.47-5.15-3Z"/><path class="lycheecls-2" d="M178.69,291.23c1,4.46,1.81,8.93,2.46,13.44.58,4.07.81,8.13,2.61,11.87.83,1.72,3.5,1.18,4-.52,2.19-8-1.3-18.58-3.22-26.39-.93-3.79-6.65-2.18-5.82,1.6Z"/><path class="lycheecls-2" d="M163.68,335.82c-5.05,9.94-10.64,21.08-11.28,32.38a2,2,0,0,0,3.75,1c5.07-9.67,7.82-20.56,12.57-30.44,1.61-3.36-3.33-6.32-5-2.95Z"/><path class="lycheecls-2" d="M118.06,298.18c-6.65,5.42-14.87,10.67-19.87,17.73-1.44,2,1.27,3.9,3.08,3.08,7.88-3.53,14.74-10.81,21.32-16.28,3.19-2.64-1.37-7.1-4.53-4.53Z"/><path class="lycheecls-2" d="M206.22,345.5c1.95,6.78,3.32,14.41,6.59,20.7,1.07,2.05,4.72,1.18,4.5-1.22-.65-7.07-3.59-14.21-5.62-21-1-3.49-6.48-2-5.47,1.51Z"/><path class="lycheecls-2" d="M252.32,246.42c3,3.26,5.82,6.61,8.86,9.8,2.79,2.92,5.21,5.85,9.13,7.18a2,2,0,0,0,2.45-2.44c-1.31-3.91-4.25-6.37-7.15-9.17-3.17-3-6.51-5.92-9.76-8.9a2.5,2.5,0,0,0-3.53,3.53Z"/><path class="lycheecls-2" d="M282.7,235.14c7.15,2.66,17.17,7.28,24.89,5.54,2-.45,2.17-3.22.56-4.22-3.37-2.09-7.59-2.4-11.41-3.26-4.24-1-8.42-2.1-12.57-3.41-3.45-1.1-4.77,4.13-1.47,5.35Z"/><path class="lycheecls-2" d="M260.55,297.36c3.81,3.23,7.71,6.36,11.74,9.31,3.53,2.59,7.85,6.34,12.43,6.21a2.55,2.55,0,0,0,2.17-3.79c-2-3.53-6.49-5.32-9.88-7.39a111.26,111.26,0,0,1-12.21-8.59c-3-2.39-7.22,1.72-4.25,4.25Z"/><path class="lycheecls-2" d="M224.66,295c1.92,3.68,2,7.74,3.68,11.45.83,1.85,3.36,1,3.93-.52,1.62-4.4-.74-9.86-2.85-13.71-1.7-3.13-6.4-.36-4.76,2.78Z"/><path class="lycheecls-2" d="M244,331.48c3.22,3.68,6.35,7.44,9.31,11.33,2.46,3.22,4.7,6.58,8,9.05,1.58,1.19,3.78-.78,3.25-2.5-1.28-4.17-4.13-7.55-6.82-10.91-3-3.82-6.26-7.5-9.57-11.09-2.57-2.79-6.59,1.32-4.13,4.12Z"/><path class="lycheecls-3" d="M236.31,287.29s15-56,44.62-79.52,70.59-11.76,93.72,8.12,30.43,54.77,33.27,62.07a15.09,15.09,0,0,1-.82,13Z"/><path class="lycheecls-1" d="M221.66,288.81c.91-.32,208.66.27,209.73,2.13s2.13,72.49-48.77,101.27S274.43,413,249.91,387.41,206.74,294.14,221.66,288.81Z"/><path class="lycheecls-2" d="M404.74,292.47a55.34,55.34,0,0,0,8,.13c1.46-12.72-4-31.09-8.74-42.63A114.11,114.11,0,0,0,386.17,220c-14.29-17.18-35.09-29.77-57.6-31.64s-45.52,6.45-60,24.11c-16.69,20.33-26.14,48-34.42,72.64-1,3.09,3.7,4.28,4.83,1.33,8.62-22.37,18-47.73,33.06-66.65,13.4-16.78,35.3-24.65,56.38-21.14,19.61,3.26,36.82,14.55,49.36,29.75a104.44,104.44,0,0,1,16.75,29.81c3.68,9.87,6.26,24.41,9.05,34.52A1.87,1.87,0,0,1,404.74,292.47Z"/><path class="lycheecls-2" d="M226.74,352q1.51,2.5,3.24,4.85c.78,1.06,1.58,2.09,2.4,3.11-3.56-8.24-5.88-17.12-7.9-25.87a202,202,0,0,1-4.7-25.82c-.44-4.56-2.65-11.28,1.8-13.84,3.25-1.88,11.93-.35,15.88-.37,19.06-.09,38.12-.79,57.2-.82,22.18,0,44.36.3,66.54.86,22.43.55,45.38,3,67.64-.84a5,5,0,0,0,1.86-.59c2.61-1.65-.85-4.3-2.65-4.49-46.45-4.86-93.07-6.46-139.75-6q-15.9.15-31.78.6c-6.37.18-12.71.41-19.06.84-5.93.4-12.63-.13-18.46,1.11-4.16,1.59-6.23,5.44-6.69,10.15-.68,6.77.66,13.44,1.86,20C216.47,327.53,220,340.81,226.74,352Z"/><path class="lycheecls-2" d="M259.51,326.17A83.4,83.4,0,0,0,247.58,332c-3.71,2-8.27,4.05-11,7.32a2.17,2.17,0,0,0,2.09,3.6c4.22-.67,8.34-3.57,12-5.68a84,84,0,0,0,11.14-7.19c1.8-1.46-.14-4.67-2.27-3.9Z"/><path class="lycheecls-2" d="M237.66,306.28c-5,.46-9.93.77-14.91.85-4.48.08-9-.28-13.4.81-2.21.56-2,3.61,0,4.27,8.55,2.8,19.56.82,28.31-.17,3.62-.4,3.72-6.1,0-5.76Z"/><path class="lycheecls-2" d="M310.79,324.1c-4.17,7.17-10.05,14.3-12.72,22.18-.91,2.69,2.67,4.4,4.54,2.64,6-5.64,9.57-14.63,13-22,1.53-3.24-3-6-4.86-2.85Z"/><path class="lycheecls-2" d="M272.3,357.61c-3.55,6.05-8.29,12.31-10.37,19.05a2.58,2.58,0,0,0,4.27,2.49c4.83-5.14,7.93-12.35,11.43-18.43,2-3.44-3.31-6.53-5.33-3.11Z"/><path class="lycheecls-2" d="M321.16,363.14c2,6.53,2.59,13.83,5.25,20.08,1,2.37,4,.76,4.27-1.16.82-6.6-2-14.25-4-20.45-1.14-3.5-6.65-2-5.56,1.53Z"/><path class="lycheecls-2" d="M363.91,316.05c2.81,2.72,5.52,5.54,8.1,8.48s4.67,5.89,7.69,8.08c1.75,1.28,4.52-.86,3.75-2.88-2.67-7.07-9.74-13.05-15.16-18.06-2.92-2.71-7.27,1.6-4.38,4.38Z"/><path class="lycheecls-2" d="M361.51,349.72c.42,2.18.57,4.93,2.17,6.6a2.06,2.06,0,0,0,3.39-.9,6.59,6.59,0,0,0,.06-3.58c-.17-1.17-.41-2.34-.62-3.5a2.59,2.59,0,1,0-5,1.38Z"/><path class="lycheecls-2" d="M410,337.88a130.21,130.21,0,0,1,13,4.45c3.92,1.6,7.62,4,11.87,4.44,2.41.26,3.23-2.95,1.84-4.47-2.83-3.11-7.32-4.47-11.15-6a130.89,130.89,0,0,0-13.91-4.6c-4-1.09-5.67,5-1.7,6.18Z"/><path class="lycheecls-2" d="M290,305.94c-1.59,1.46-3.14,3-4.63,4.52s-3.29,3.28-3.81,5.3c-.41,1.62,1.2,3.78,3,3,2-.85,3.45-2.6,4.95-4.16s3-3.06,4.63-4.52c2.79-2.56-1.38-6.71-4.16-4.16Z"/><path class="lycheecls-2" d="M298.69,394.22c-2.83,9.15-5.28,18.72-5.4,28.35a1.84,1.84,0,0,0,3.59.49c2.51-9.1,4.2-18.38,6.89-27.44,1-3.26-4.08-4.64-5.08-1.4Z"/><path class="lycheecls-2" d="M244.64,375.73c-3.28,3.75-6.61,7.45-9.92,11.18-3,3.36-6.74,6.92-8.66,11a2.19,2.19,0,0,0,3,3c4-2.24,7.13-6.19,10.16-9.53,3.34-3.69,6.59-7.48,9.84-11.26,2.58-3-1.76-7.4-4.39-4.38Z"/><path class="lycheecls-2" d="M356.76,386.63a115.72,115.72,0,0,1,3.59,14c.87,4.65,1.12,9.6,2.8,14,.7,1.84,3.68,2.28,4.18,0,2.09-9.45-1.82-20.7-4.9-29.55-1.24-3.54-6.84-2.07-5.67,1.56Z"/><path class="lycheecls-2" d="M396.52,372.44q5.14,4.62,10.42,9.09c3.29,2.76,6.63,5.86,10.58,7.62a2.57,2.57,0,0,0,3.1-4c-2.69-3.37-6.46-5.88-9.8-8.57s-6.74-5.53-10.06-8.36c-2.9-2.5-7.13,1.63-4.24,4.24Z"/><path class="lycheecls-3" d="M168.36,181.48c5.92,0,5.93-9.19,0-9.19s-5.92,9.19,0,9.19Z"/><path class="lycheecls-3" d="M181.16,199c3.78,0,3.79-5.88,0-5.88s-3.8,5.88,0,5.88Z"/><path class="lycheecls-3" d="M124.66,283c6.24,0,6.25-9.7,0-9.7s-6.25,9.7,0,9.7Z"/><path class="lycheecls-3" d="M192.88,271.33a12.16,12.16,0,0,0,1.74-.23,2.52,2.52,0,0,0,1.2-.49,3.72,3.72,0,0,0,1.36-1.25c.17-.22.31-.38.45-.59a4.59,4.59,0,0,0,0-4.69.61.61,0,0,1-.07-.1,4.84,4.84,0,0,0-1.74-1.74,2.52,2.52,0,0,0-1.2-.49,12,12,0,0,0-1.74-.23,5.47,5.47,0,0,0-3.47,1.43,3.72,3.72,0,0,0-1,1.58,3.85,3.85,0,0,0-.42,1.89l.18,1.31a4.92,4.92,0,0,0,1.26,2.17l1,.76a4.84,4.84,0,0,0,2.48.67Z"/><path class="lycheecls-3" d="M254.71,308.67c6.35,0,6.36-9.88,0-9.88s-6.37,9.88,0,9.88Z"/><path class="lycheecls-3" d="M236.47,326.14l1.18.16,1-.14a2.59,2.59,0,0,0,1.2-.47,3.3,3.3,0,0,0,1.25-1.15,3.24,3.24,0,0,0,.79-1.51,4.5,4.5,0,0,0,0-2.36l-.44-1.06a4.51,4.51,0,0,0-1.6-1.59,3.39,3.39,0,0,0-1.65-.53,3.44,3.44,0,0,0-1.77.08,4.64,4.64,0,0,0-2.65,2,4.34,4.34,0,0,0-.61,2.24l.16,1.18a4.36,4.36,0,0,0,1.14,2,4.49,4.49,0,0,0,2,1.15Z"/><path class="lycheecls-3" d="M345.31,332.76c4.43,0,4.44-6.89,0-6.89s-4.43,6.89,0,6.89Z"/><path class="lycheecls-3" d="M405,320c7.25,0,7.26-11.25,0-11.25S397.75,320,405,320Z"/><path class="lycheecls-3" d="M370.55,363.49l-.47.66-.05.07-.39.94a2,2,0,0,0-.09.59,2.51,2.51,0,0,0-.07.55c0,.11,0,.22,0,.32a2.64,2.64,0,0,0,.31,1.38,2.76,2.76,0,0,0,.73,1.15,3.59,3.59,0,0,0,2.53,1h.29a4.74,4.74,0,0,0,1.13-.16,1.87,1.87,0,0,0,.51-.2,1.48,1.48,0,0,0,.54-.25l.66-.47a4.14,4.14,0,0,0,1.47-1.47,4.07,4.07,0,0,0,.56-2.07l-.15-1.09a4,4,0,0,0-1.05-1.81,3.1,3.1,0,0,0-1.32-.85,3.16,3.16,0,0,0-1.58-.35A4.07,4.07,0,0,0,372,362a4.14,4.14,0,0,0-1.47,1.47Z"/><rect class="lycheecls-4" width="512" height="512"/></g></g></svg>