<svg xmlns="http://www.w3.org/2000/svg" viewBox="0 0 512 512"><defs><style>.machecls-1{fill:none;}.machecls-2{fill:#6a8c2a;}.machecls-3{fill:#4a2d2d;}</style></defs><g id="Capa_2" data-name="Capa 2"><g id="bocetos"><rect class="machecls-1" width="512" height="512"/><path class="machecls-2" d="M288,234s52.6-9.92,91-6.47,66,23.71,64.24,61.66-30.18,79.34-86.67,78S282,318.48,272.49,303.39s-16.81-51.74-16.81-51.74Z"/><path class="machecls-2" d="M224.63,229.22s-9.48-25.87-12.93-48.29-3.88-44.84-41.83-69.85-84.51-16-102.62,20.7,0,84.51,47.86,101.76,78.05,4.31,85.81,4.31S224.63,229.22,224.63,229.22Z"/><path class="machecls-2" d="M219.46,253.8s-55.62,13.8-86.67,59.07-6.9,103.92,46.14,113.4,70.71-37.08,74.59-57.77,1.73-40.54-6.9-62.53-16.38-54.76-16.38-54.76Z"/><path class="machecls-2" d="M252.66,238.28s67.7-19.4,102.62-55.62S391.5,112.37,360,89.52s-59.07-19-76.75-3.45S263.44,116.68,254,143.42s-15.09,101.33-15.09,101.33Z"/><path class="machecls-2" d="M235.84,237.42s5.61-11.65,0-23.72S208.25,175.33,219,145.57s38.8-43.55,63.81-36.65,38.81,27.6,35.79,52.18-22.85,36.65-35.79,45.7-26.3,18.11-32.77,23.72a53,53,0,0,0-9.48,10.35Z"/><path class="machecls-2" d="M240.16,236.55s40.1-19,57.34-9.05,13.37,26.73-5.6,36.65-34.93,0-41.83-3.88-17.68-19.84-17.68-19.84Z"/><path class="machecls-2" d="M241.45,239.14s-11.64-27.6-35.79-35.36S169,224.91,174.18,237s25,14.23,40.1,13.37,30.19-7.76,30.19-7.76Z"/><path class="machecls-2" d="M235,240s-36.11,19.27-48.29,41c-13.8,24.57-18.54,65.54,16.81,71.14s48.73-23.28,50.88-43.12-14.22-72.44-14.22-72.44Z"/><path class="machecls-3" d="M317.46,143.19c5.88-11,11.9-22.35,16.58-33.88.63-1.54-1.7-2.29-2.53-1.07C324.63,118.32,318.9,130,314,141.16c-1,2.31,2.22,4.37,3.47,2Z"/><path class="machecls-3" d="M277.35,133.83a391.39,391.39,0,0,0-21.8,48.8c-5.84,16-13.14,34.31-13.86,51.46-.07,1.7,2.21,1.74,2.76.37,6.26-15.65,8.92-33.05,14.6-49a384.48,384.48,0,0,1,21.77-49.56c1.2-2.29-2.26-4.32-3.47-2Z"/><path class="machecls-3" d="M251.68,206.94c6.2-5.34,11.53-11.67,17.74-17.05s13-9.86,19.46-14.93c1.3-1-.35-2.84-1.68-2.18-13.7,6.87-29.37,19.56-37.76,32.43-.92,1.43,1.07,2.73,2.24,1.73Z"/><path class="machecls-3" d="M257,181.6c-5.69-8-10.11-16.8-15.68-24.87-.87-1.27-3.29-.53-2.67,1.12,3.53,9.43,9.8,17.72,15.93,25.62,1.06,1.36,3.43-.44,2.42-1.87Z"/><path class="machecls-3" d="M270.55,153.94c-1.49-6.41-3.15-12.83-6.66-18.48a1.39,1.39,0,0,0-2.53,1.07c1.47,6.25,4,12.19,5.82,18.34a1.75,1.75,0,0,0,3.37-.93Z"/><path class="machecls-3" d="M234.91,245.24c-6.68,12.47-11.55,25.77-16.06,39.14-4.8,14.23-9.85,28.87-12.08,43.76-.24,1.6,2,2.33,2.49.69,3.88-13.45,6.73-27.09,11.27-40.36,4.87-14.21,11.39-27.74,17.3-41.53.83-1.94-1.87-3.67-2.92-1.7Z"/><path class="machecls-3" d="M218.52,287c3.48,8.29,8.73,15.95,13.75,23.36a1.37,1.37,0,0,0,2.36-1.38c-3.71-7.94-7.51-16.32-12.74-23.4-1.12-1.51-4.25-.67-3.37,1.42Z"/><path class="machecls-3" d="M216.21,292.49c-7.6,2.62-16.8,7.12-21.14,14.24-.77,1.26.82,3,2.1,2.11,3.14-2.23,5.78-5.07,8.94-7.29a49.75,49.75,0,0,1,11-5.73c2.05-.77,1.2-4.07-.92-3.33Z"/><path class="machecls-3" d="M301.67,259.3C321.12,265.69,340,275.35,359,283c19.49,7.87,38.58,17.3,58.36,24.34,2.63.93,4.14-3,1.85-4.41-17.54-10.56-37.89-17.56-56.89-25.06-19.63-7.75-39.34-16.54-59.64-22.3-2.39-.68-3.35,2.93-1,3.69Z"/><path class="machecls-3" d="M326.79,269.53c-.63,16.22-1.51,33,.21,49.16a1.43,1.43,0,0,0,2.85,0c1-16.31.34-32.81.92-49.16.09-2.57-3.88-2.56-4,0Z"/><path class="machecls-3" d="M359.92,283.63c3.13,11.57,7.59,22.5,14.35,32.45a1.39,1.39,0,0,0,2.39-1.4,245.37,245.37,0,0,1-13.22-32c-.71-2.23-4.13-1.31-3.52,1Z"/><path class="machecls-3" d="M370,284.05c11.84-3,26.78-5.29,37.25-11.78,1.17-.72.79-2.88-.75-2.76-12.4,1-25.64,7.15-37.56,10.69a2,2,0,0,0,1.06,3.85Z"/><path class="machecls-3" d="M320.55,263.2c7.45-2.3,14.68-5.26,22.11-7.64s15.25-3.79,22.48-6.65c1.39-.55,1.39-3-.38-2.84-15,1.13-32.08,7.53-45.25,14.66a1.36,1.36,0,0,0,1,2.47Z"/><path class="machecls-3" d="M191.68,341c-12.09,18.11-24,37.91-32,58.17-.64,1.61,1.81,2.45,2.67,1.13C174.21,382,184.5,362,194.83,342.83a1.83,1.83,0,0,0-3.15-1.84Z"/><path class="machecls-3" d="M186.76,354.67c4,13.35,7.89,27.44,15.58,39.21.95,1.46,3.55.58,2.95-1.24-4.39-13.23-11.23-25.56-16.07-38.64-.56-1.51-2.94-.92-2.46.67Z"/><path class="machecls-3" d="M179.8,362.08A112.27,112.27,0,0,0,148,371.15c-1.38.62-.4,2.87,1,2.43A288.83,288.83,0,0,1,180.33,366c2.15-.4,1.69-4.17-.53-3.88Z"/><path class="machecls-3" d="M98.88,144.21C115.16,152,131,161.4,146.49,170.68s30,20.81,45.86,29.29a1.64,1.64,0,0,0,1.91-2.62c-12.83-11.8-29.17-20.75-44-29.77-16.11-9.79-32.78-18.17-49.39-27-2.36-1.25-4.38,2.49-2,3.64Z"/><path class="machecls-3" d="M165.77,178.53c-6.86-17.52-11.35-35.81-18-53.31-.52-1.39-2.92-1.22-2.75.45,1.92,18.46,9.91,37.56,18,54.11.75,1.53,3.37.35,2.74-1.25Z"/><path class="machecls-3" d="M131.88,159.39c-15.5,3.54-30.85,8.06-44.45,16.51-1.25.77-.36,2.94,1.09,2.4,14.73-5.56,29.05-11.79,44.35-15.68,2.12-.54,1.12-3.71-1-3.23Z"/><path class="machecls-3" d="M173.85,186.48c-9.92,2.59-18.94,6.86-26.34,14.05-1.3,1.26.46,3.27,2,2.4,8.22-4.82,16.55-9.4,25.61-12.46a2.09,2.09,0,0,0-1.22-4Z"/><path class="machecls-3" d="M190.94,189.1a107.21,107.21,0,0,0-1.21-17.17c-.24-1.37-2.63-1.31-2.78.08a107.48,107.48,0,0,0-.23,17.21,2.11,2.11,0,0,0,4.22-.12Z"/><path class="machecls-3" d="M265.67,109.35c15.13,2.42,29.46,5.13,40,17.46,12.12,14.2,11,32.47.56,47.35-17,24.22-48.21,35.82-64.39,60.64-1.69,2.59,1.66,5.89,4.25,4.24,7.67-4.88,13.66-12.39,20.35-18.54,7.22-6.62,14.9-12.54,22.55-18.63,13.59-10.82,26.68-24,31-41.44,8.11-32.58-22.58-58.3-53.53-57-3.18.14-4.29,5.32-.8,5.88Z"/><path class="machecls-3" d="M245.57,239.66C256.62,235,268.88,230,281,229.37c10.54-.57,26.49,2.85,24.79,16.72-1,8.41-10.06,13.81-17.23,16.66-9.38,3.74-17.95,3.21-27.34-.35-3.49-1.33-6,4.54-2.57,6.09,17.07,7.64,54.35.88,53.65-23.82-.32-11-10.61-20-20.92-21.55-15.85-2.41-34.57,5.48-48.63,11.72-3.3,1.46-.43,6.19,2.82,4.82Z"/><path class="machecls-3" d="M224.48,246.85c-32.12,7.24-59.11,51.38-46.27,82.77,15.5,37.9,71.06,24.38,77.49-13a3.53,3.53,0,0,0-6.8-1.88c-6.89,17.49-19.07,30.59-39.06,30.47-16.49-.09-27.58-15.58-27.9-31.15-.28-13.23,4.64-26.73,12.26-37.42,8.5-11.94,19.9-18.06,32.28-25.09,2.62-1.49.82-5.38-2-4.74Z"/><path class="machecls-3" d="M218.43,206.22c-7.16-6.12-15.18-10.73-24.77-7.6-8.38,2.73-14.07,10-17.61,17.78s-5.44,16.71-.83,24.61c3.84,6.57,11.53,11.36,19.13,10.07,2.05-.35,2.3-3.46.58-4.37-5.13-2.73-11-3.43-14.35-8.83-3.57-5.82-2.26-13.5.58-19.33,2.63-5.4,7.2-10.6,12.68-13.23,8.16-3.92,14.89.47,21.55,4.84,2.35,1.54,5.22-2.07,3-3.94Z"/><path class="machecls-3" d="M238.59,242.43a144.71,144.71,0,0,0-19.74-15.11c-6.16-3.93-13.38-8.7-20.95-8.18-1.5.1-2.07,2.52-.38,2.8,14.56,2.47,27.67,13.66,39,22.53,1.42,1.11,3.45-.75,2-2Z"/><path class="machecls-3" d="M240.16,246.61a217.27,217.27,0,0,1,53.92,1.76c1.89.3,2.74-2.39.81-2.93-17.39-4.89-36.94-4.34-54.73-2.55-2.36.23-2.4,3.94,0,3.72Z"/></g></g></svg>