<svg xmlns="http://www.w3.org/2000/svg" xmlns:xlink="http://www.w3.org/1999/xlink" viewBox="0 0 512 512"><defs><style>.mangocls-1{fill:#72ab4c;}.mangocls-2{fill:url(#Degradado_sin_nombre_50);}.mangocls-3{fill:#4a2d2d;}.mangocls-4{fill:none;}</style><linearGradient id="Degradado_sin_nombre_50" x1="159.95" y1="169.86" x2="287.86" y2="408.15" gradientUnits="userSpaceOnUse"><stop offset="0" stop-color="#ef2b45"/><stop offset="1" stop-color="#c0c728"/></linearGradient></defs><g id="Capa_2" data-name="Capa 2"><g id="bocetos"><path class="mangocls-1" d="M420.67,61.34A4,4,0,0,0,414.8,58a146.31,146.31,0,0,1-39.63,13.28c-11,2-22.38,3-32.86,7.23-20.83,8.45-28.17,28.08-31.6,48.8a2.62,2.62,0,0,0,.61,2.21,2.57,2.57,0,0,0,2.19,2.31c14.19,2.27,27.38,8.77,41.83,9.66,12.28.76,24.79-3.42,34.89-10.31C412.22,116.18,423.17,87.37,420.67,61.34Z"/><path class="mangocls-2" d="M311.81,147.68a28.4,28.4,0,0,1-.29,3.25c-.06.47-.13.95-.2,1.43,0,.23-.07.46-.11.7a1.39,1.39,0,0,1,0,.17v.08c-.13,1.23-.31,2.46-.52,3.69-.59,3.54-1.37,7.43-3.73,10.25-2.64,3.15-7.18,2.67-9.95-.08-3.47-3.45-2.43-9.29-1.14-13.46a70,70,0,0,1,2.8-7.25c.35-.81.71-1.6,1.11-2.38-5-1.29-10.23-2.41-15.73-3.35-90.61-15.34-116.11,53-121.3,92.81-4.39,33.61-.74,70.15-22.66,95.72s-55.53,49-45.3,89.88,78.26,72.29,164.41,30.7c84.77-40.93,111.81-101.21,125-152.73C401.33,229.7,378.9,170.5,311.81,147.68Z"/><path class="mangocls-3" d="M284.59,153.52c.64,8.1,5.33,15.76,13.22,18.6,7.55,2.72,17.61,1,22.14-6.05,1.75-2.73-1.63-5.6-4.23-4.23-4.92,2.59-9.4,5.33-15.21,3.61S291,158.64,290,152.79c-.53-3-5.62-2.34-5.38.73Z"/><path class="mangocls-3" d="M296.94,166.52a72.48,72.48,0,0,0,7.9-48A115.76,115.76,0,0,0,297,93a126.5,126.5,0,0,0-6-12.26c-2.11-3.78-6.12-8.15-7.08-12.39-1.11-4.91,1.19-9.81,7.55-6.66a15.1,15.1,0,0,1,5,4.9c2.68,3.89,4.46,8.58,6,13,3.35,9.39,6.13,19.07,7.16,29,2.45,23.32-1.33,39.68-7,58.42-1.74,5.73,4.89,7.72,6.72,2.07,6.94-21.46,10.33-44.63,7.2-67.11-2.11-15.16-7.85-45.5-26.41-49-6.5-1.23-13.7,2.14-15,9-1.83,9.34,7.37,19,11.38,26.52,12.06,22.72,16.49,51,5.24,75-1.61,3.43,3.31,6.45,5.17,3Z"/><path class="mangocls-3" d="M316.4,129.49c6-7.94,11.2-13.86,19.9-19.14a115.38,115.38,0,0,1,27-11.85c13.52-4,29.31-6.25,39.51-16.86,1.51-1.57-.47-4.39-2.4-3.11-15.72,10.41-33.73,12-50.82,19.09-12.28,5.07-33.51,15.91-36.34,30.55a1.72,1.72,0,0,0,3.13,1.32Z"/><path class="mangocls-3" d="M363.37,96.91c13,6.46,29.27,9.12,43.77,8.74,1.55-.05,2.06-2.59.38-2.85-14.45-2.27-29.29-1.8-42.85-8.12-1.48-.69-2.79,1.48-1.3,2.23Z"/><path class="mangocls-3" d="M332,114.37c15.09,9,33.28,16.65,50.73,19.06,1.41.2,2.08-1.86.61-2.2-17.18-4-34.75-10.22-50.12-18.94a1.21,1.21,0,0,0-1.22,2.08Z"/><path class="mangocls-3" d="M351.09,99.08c2.94-9.46,8-16.88,13.09-25.21a1.44,1.44,0,0,0-2.25-1.73c-6.85,6.92-10.92,17-13.6,26.18-.52,1.77,2.21,2.51,2.76.76Z"/><rect class="mangocls-4" width="512" height="512"/></g></g></svg>