<?xml version="1.0" standalone="no"?>
<!DOCTYPE svg PUBLIC "-//W3C//DTD SVG 20010904//EN"
 "http://www.w3.org/TR/2001/REC-SVG-20010904/DTD/svg10.dtd">
<svg version="1.0" xmlns="http://www.w3.org/2000/svg"
 width="404.000000pt" height="550.000000pt" viewBox="0 0 404.000000 550.000000"
 preserveAspectRatio="xMidYMid meet">

<g transform="translate(0.000000,550.000000) scale(0.100000,-0.100000)"
fill="#000000" stroke="none">
<path d="M2715 5218 c-35 -18 -75 -61 -75 -79 0 -10 -4 -19 -9 -21 -4 -1 -12
-14 -16 -27 -5 -16 -4 -21 4 -17 6 4 11 14 11 21 0 9 6 12 15 9 8 -4 17 1 21
10 3 9 13 16 20 16 8 0 17 7 20 15 4 9 19 15 40 15 19 0 34 4 34 9 0 4 12 6
26 3 19 -3 25 -1 20 6 -5 8 -2 10 8 6 9 -3 16 -10 16 -16 0 -5 10 -8 23 -7 12
1 35 -3 50 -9 49 -20 53 -13 14 24 -37 34 -62 38 -50 9 3 -8 0 -15 -5 -15 -6
0 -9 11 -6 25 5 28 8 26 -81 31 -33 1 -69 -2 -80 -8z m125 -8 c0 -5 -2 -10 -4
-10 -3 0 -8 5 -11 10 -3 6 -1 10 4 10 6 0 11 -4 11 -10z m-135 -20 c-3 -5 -12
-10 -18 -10 -7 0 -6 4 3 10 19 12 23 12 15 0z m-15 -24 c0 -2 -7 -6 -15 -10
-8 -3 -15 -1 -15 4 0 6 7 10 15 10 8 0 15 -2 15 -4z"/>
<path d="M2848 4994 c-16 -8 -28 -17 -28 -20 0 -3 5 -2 10 1 6 3 10 1 10 -5 0
-6 4 -9 9 -5 5 3 12 1 15 -4 3 -4 25 -11 48 -15 24 -3 57 -14 75 -23 18 -10
35 -14 39 -10 10 10 0 18 -24 20 -12 1 -18 6 -15 15 5 11 7 11 14 1 4 -8 10
-11 14 -8 8 9 -35 60 -46 54 -5 -4 -9 -1 -9 4 0 6 -9 11 -21 11 -13 0 -18 -4
-13 -12 6 -10 4 -10 -7 0 -17 16 -37 15 -71 -4z m77 -24 c3 -5 -1 -10 -10 -10
-9 0 -13 5 -10 10 3 6 8 10 10 10 2 0 7 -4 10 -10z"/>
<path d="M3260 5000 c0 -4 10 -6 23 -3 12 3 19 2 15 -2 -8 -9 32 -42 45 -37 4
1 7 -2 7 -8 0 -5 5 -10 11 -10 5 0 8 4 5 9 -4 5 3 7 14 4 11 -3 17 -9 14 -14
-3 -5 -10 -7 -15 -4 -15 10 -9 -9 11 -33 11 -13 23 -21 28 -18 5 3 9 -1 9 -9
0 -8 -4 -12 -9 -9 -4 3 -5 -2 -2 -10 3 -9 10 -16 14 -16 4 0 8 -6 7 -12 -1
-45 4 -57 21 -51 15 6 15 5 4 -10 -8 -9 -12 -24 -10 -34 4 -17 5 -16 15 2 6
11 14 38 18 59 6 32 5 37 -6 31 -11 -6 -11 -5 -3 4 15 16 -3 94 -21 88 -6 -3
-11 4 -11 17 1 14 -5 21 -16 20 -10 -1 -16 2 -13 6 7 11 -35 41 -47 34 -4 -3
-5 -11 -1 -17 4 -7 0 -6 -10 2 -19 15 -23 26 -5 15 6 -4 8 -3 4 4 -7 12 -96
14 -96 2z"/>
<path d="M2382 4873 c-7 -3 -17 -14 -23 -25 -9 -16 -8 -19 3 -13 7 3 5 0 -4
-8 -19 -15 -25 -77 -8 -77 6 0 10 5 10 11 0 5 4 8 9 4 12 -7 53 50 44 59 -4 4
0 4 10 0 9 -3 17 -1 17 4 0 6 -9 14 -21 17 -11 4 -18 9 -16 12 3 2 15 -1 27
-7 25 -13 59 -5 43 11 -11 11 -72 19 -91 12z"/>
<path d="M3145 4779 c20 -35 57 -79 66 -79 6 0 7 6 3 13 -5 9 -4 9 6 0 7 -6
20 -9 29 -6 13 4 14 3 1 -5 -8 -6 -18 -8 -23 -5 -5 3 -6 -5 -1 -18 4 -13 7
-31 6 -39 0 -8 2 -28 5 -45 l5 -29 19 23 c10 13 16 27 13 32 -3 5 0 9 5 9 20
0 11 64 -12 94 -16 20 -33 29 -55 30 -21 1 -31 5 -27 14 2 6 0 12 -4 12 -5 0
-17 3 -27 7 -13 5 -15 3 -9 -8z m80 -47 c-3 -3 -11 0 -18 7 -9 10 -8 11 6 5
10 -3 15 -9 12 -12z m46 -49 c-9 -18 -11 -25 -11 -43 0 -5 -4 -10 -9 -10 -11
0 -3 39 12 58 14 18 19 15 8 -5z"/>
<path d="M2660 4750 c0 -5 -3 -9 -7 -9 -20 3 -26 -2 -13 -11 13 -8 13 -10 -2
-10 -9 0 -20 -4 -23 -10 -4 -6 1 -7 11 -3 12 4 15 3 10 -5 -4 -7 -14 -12 -23
-12 -9 0 -13 -6 -9 -15 3 -8 1 -15 -4 -15 -6 0 -10 -7 -10 -15 0 -8 3 -15 6
-15 12 0 49 24 81 54 19 17 44 36 55 42 15 8 17 12 6 20 -18 14 -78 17 -78 4z"/>
<path d="M2918 4643 c-10 -3 -18 -8 -18 -13 0 -12 56 -38 99 -46 20 -4 43 -16
53 -26 20 -23 31 -10 24 28 -8 43 -30 58 -88 59 -29 1 -61 0 -70 -2z"/>
<path d="M2108 4622 c-59 -28 -78 -59 -74 -126 2 -31 6 -59 9 -62 11 -11 28 8
22 25 -13 32 -13 68 1 68 10 0 11 -4 3 -13 -7 -8 -6 -14 3 -17 9 -4 10 -6 1
-6 -7 -1 -10 -8 -6 -17 5 -13 7 -13 14 -2 7 10 9 10 9 -3 0 -9 -9 -24 -20 -34
-18 -16 -18 -19 -3 -41 8 -13 20 -21 26 -17 5 3 7 1 4 -4 -4 -6 1 -17 10 -24
15 -13 16 -11 9 11 -4 14 -8 37 -9 52 0 23 -3 25 -15 15 -13 -10 -14 -9 -3 12
7 13 11 35 8 50 -6 29 21 94 53 129 25 27 10 28 -42 4z m-19 -45 c-2 -1 -15
-11 -29 -22 l-25 -20 19 23 c11 12 24 22 29 22 6 0 8 -1 6 -3z"/>
<path d="M2798 4503 c-11 -3 -15 -10 -11 -20 4 -9 2 -14 -3 -10 -13 8 -37 -8
-40 -25 -1 -10 8 -14 28 -14 19 0 27 4 24 12 -7 18 13 29 27 15 9 -9 7 -11 -8
-5 -15 5 -17 4 -9 -5 14 -15 75 -2 82 17 3 10 -59 46 -70 41 -2 -1 -11 -3 -20
-6z m27 -13 c-3 -5 -12 -10 -18 -10 -7 0 -6 4 3 10 19 12 23 12 15 0z"/>
<path d="M3471 4428 c1 -109 6 -133 27 -116 30 26 44 76 31 116 -6 21 -16 42
-22 47 -7 7 -8 6 -3 -2 4 -7 2 -13 -3 -13 -6 0 -10 10 -8 21 1 12 -4 24 -10
26 -10 4 -13 -16 -12 -79z m45 -65 c-3 -4 -6 -1 -6 6 0 7 -4 9 -10 6 -6 -4 -7
1 -3 11 6 15 7 15 15 -1 6 -9 7 -19 4 -22z"/>
<path d="M2372 4427 c-12 -7 -28 -22 -35 -32 -16 -24 -21 -85 -7 -85 5 0 6 -7
3 -17 -5 -12 -3 -14 7 -8 9 6 11 4 6 -4 -5 -7 0 -19 10 -27 11 -9 13 -13 7 -9
-21 10 -15 -3 6 -14 17 -9 18 -6 19 49 0 39 -4 60 -11 60 -8 0 -8 3 -2 8 9 6
45 76 45 87 0 9 -25 4 -48 -8z m7 -60 c-2 -1 -13 -9 -24 -17 -19 -14 -19 -14
-6 3 7 9 18 17 24 17 6 0 8 -1 6 -3z m1 -57 c0 -5 -4 -10 -10 -10 -5 0 -10 5
-10 10 0 6 5 10 10 10 6 0 10 -4 10 -10z"/>
<path d="M2982 4408 c-15 -15 -16 -31 0 -22 7 4 8 3 4 -5 -6 -9 -11 -9 -22 0
-10 8 -14 8 -14 0 0 -6 3 -12 8 -12 36 -6 61 -9 85 -10 15 0 25 -4 23 -8 -3
-4 6 -8 20 -9 31 -2 30 9 -2 47 -28 33 -78 43 -102 19z m98 -22 c0 -2 -7 -7
-16 -10 -8 -3 -12 -2 -9 4 6 10 25 14 25 6z"/>
<path d="M2570 4387 c-18 -9 -25 -21 -26 -45 -1 -17 3 -32 9 -32 6 0 6 -5 -1
-12 -7 -9 -6 -22 2 -42 9 -23 14 -26 23 -15 17 22 33 109 19 110 -6 0 -1 4 12
9 26 11 30 40 5 40 -10 0 -29 -6 -43 -13z"/>
<path d="M3210 4331 c0 -5 7 -11 14 -14 10 -4 13 -1 9 9 -6 15 -23 19 -23 5z"/>
<path d="M3243 4326 c3 -7 1 -18 -4 -23 -10 -10 7 -82 23 -98 15 -16 39 25 36
62 -1 18 -6 33 -11 33 -5 0 -7 -6 -4 -14 3 -8 -2 -20 -11 -27 -9 -8 -14 -9
-10 -5 4 5 2 16 -4 25 -7 9 -8 13 -4 9 14 -12 36 25 24 39 -14 18 -42 17 -35
-1z"/>
<path d="M3633 4325 c3 -11 9 -37 13 -57 3 -21 10 -38 14 -38 4 0 5 -11 3 -24
-3 -13 -1 -32 5 -42 10 -18 -8 -58 -58 -124 -41 -53 -44 -61 -23 -53 10 3 25
12 34 20 9 7 19 10 24 6 4 -5 5 -2 1 5 -4 7 -1 12 9 12 21 0 37 16 58 59 22
44 21 96 -2 148 -22 47 -88 122 -78 88z m59 -107 c-7 -7 -12 -8 -12 -2 0 6 3
14 7 17 3 4 9 5 12 2 2 -3 -1 -11 -7 -17z m-71 -201 c-10 -9 -11 -8 -5 6 3 10
9 15 12 12 3 -3 0 -11 -7 -18z"/>
<path d="M2726 4314 c-9 -8 -16 -18 -17 -22 0 -4 -2 -15 -4 -24 -2 -10 1 -20
6 -24 5 -3 9 -11 9 -17 0 -7 -4 -6 -10 3 -7 11 -9 3 -8 -27 1 -24 3 -43 4 -43
8 0 62 105 58 112 -3 4 2 5 11 2 9 -4 37 -1 63 7 l46 13 -39 17 c-30 13 -42
15 -47 6 -6 -9 -8 -9 -8 1 0 17 -46 15 -64 -4z m20 -9 c-1 -8 -5 -17 -8 -21
-5 -4 -4 16 1 34 3 9 9 -1 7 -13z"/>
<path d="M2965 4264 c1 -32 -27 -64 -55 -64 -10 0 -23 -7 -30 -15 -8 -9 -17
-12 -22 -7 -11 11 -56 4 -64 -9 -8 -13 59 -39 101 -39 50 0 44 20 -7 22 l-43
1 38 4 c21 3 45 -1 53 -8 12 -10 19 -7 39 11 30 28 33 78 7 110 l-18 22 1 -28z
m5 -79 c0 -2 -9 -3 -19 -2 -11 0 -18 5 -15 9 4 6 34 0 34 -7z"/>
<path d="M3102 4196 c3 -16 1 -23 -8 -19 -8 3 -14 -10 -19 -36 -4 -23 -11 -41
-16 -41 -4 0 -13 -10 -20 -21 -11 -21 -10 -22 27 -16 47 8 65 26 70 69 6 44
-2 74 -22 82 -13 5 -15 1 -12 -18z m28 -82 c0 -2 -9 0 -20 6 -11 6 -20 13 -20
16 0 2 9 0 20 -6 11 -6 20 -13 20 -16z"/>
<path d="M2011 4192 c-7 -13 -6 -23 2 -32 9 -10 9 -11 -1 -6 -20 11 -9 -60 13
-84 17 -18 41 -18 30 0 -3 5 0 12 6 16 7 4 9 3 5 -4 -3 -6 -2 -14 4 -17 8 -5
8 -11 0 -20 -9 -10 -7 -16 9 -24 27 -15 29 -14 26 12 -1 12 -3 28 -4 35 0 7
-6 10 -13 6 -7 -4 -8 -3 -4 4 8 13 -47 105 -57 97 -4 -3 -3 1 3 7 5 7 10 16
10 20 0 15 -19 8 -29 -10z m33 -41 c3 -5 -1 -14 -8 -20 -12 -10 -13 -8 -9 8 6
23 9 25 17 12z"/>
<path d="M3398 4113 c-22 -55 -43 -93 -51 -93 -5 0 -7 -7 -4 -14 4 -9 1 -13
-7 -10 -7 3 -21 -4 -31 -16 -18 -20 -18 -20 9 -20 39 0 91 24 110 51 18 27 23
104 5 93 -8 -4 -9 0 -4 15 10 32 -13 26 -27 -6z m1 -96 c0 -9 -2 -8 -6 1 -2 6
-10 9 -15 6 -7 -4 -8 -2 -4 5 9 13 26 5 25 -12z"/>
<path d="M2525 4103 c-23 -34 -27 -109 -6 -105 12 3 12 0 2 -12 -10 -12 -6
-22 25 -55 20 -23 40 -41 44 -41 6 0 7 37 0 50 -1 3 -3 10 -4 15 -6 39 -19 75
-26 75 -5 0 -14 9 -20 20 -8 16 -8 18 4 14 12 -4 14 1 11 27 -6 43 -9 44 -30
12z"/>
<path d="M2660 4094 c0 -8 4 -13 9 -9 5 3 13 0 17 -6 4 -7 3 -9 -4 -5 -6 3
-13 2 -17 -4 -3 -5 -2 -10 4 -10 6 0 8 -6 5 -14 -3 -8 4 -24 15 -35 23 -23 47
-29 35 -8 -6 9 -4 9 8 -1 18 -15 61 -7 78 13 8 10 3 16 -24 25 -32 10 -39 9
-68 -11 -18 -13 -27 -16 -21 -8 7 9 10 18 7 21 -3 3 1 5 8 5 7 -1 13 3 13 8 0
6 -4 9 -8 7 -5 -1 -6 2 -3 7 4 5 -4 17 -16 25 -28 20 -38 20 -38 0z"/>
<path d="M2281 4052 c-6 -12 -9 -26 -6 -31 3 -5 -1 -11 -7 -14 -10 -3 -10 -7
1 -20 7 -10 10 -17 5 -17 -4 0 3 -11 15 -24 22 -24 77 -34 64 -12 -4 6 1 5 10
-3 10 -8 17 -9 17 -3 0 6 -10 18 -22 26 -12 9 -19 16 -15 16 4 0 -3 17 -16 38
-13 20 -26 44 -29 52 -4 12 -7 10 -17 -8z"/>
<path d="M2940 3959 c0 -24 4 -30 15 -25 11 4 19 -3 25 -19 11 -28 20 -31 39
-12 9 8 12 8 7 0 -4 -8 4 -10 26 -9 48 4 50 5 44 15 -4 5 2 7 13 4 10 -3 22 0
25 6 4 6 -11 15 -35 21 -36 10 -43 9 -54 -7 -13 -17 -14 -16 -8 6 6 22 4 23
-30 19 -20 -2 -34 -2 -32 1 6 6 -15 31 -26 31 -5 0 -9 -14 -9 -31z"/>
<path d="M2955 3921 c-3 -5 -1 -12 5 -16 5 -3 10 1 10 9 0 18 -6 21 -15 7z"/>
<path d="M3510 3842 c0 -6 6 -13 13 -15 8 -4 6 -6 -4 -6 -14 -1 -63 -61 -67
-83 -1 -5 -11 -17 -22 -28 -11 -11 -20 -24 -20 -30 0 -5 9 -10 20 -10 11 0 20
4 20 10 0 5 6 7 13 4 7 -2 26 10 42 27 17 18 23 29 15 25 -11 -6 -11 -4 1 6
20 16 21 99 2 105 -7 3 -13 0 -13 -5z m14 -44 c-3 -4 -9 -8 -15 -8 -5 0 -9 4
-9 8 0 5 7 9 15 9 8 0 12 -4 9 -9z m-27 -50 c2 -17 0 -19 -7 -8 -5 8 -6 18 -4
22 8 12 10 10 11 -14z"/>
<path d="M2330 3761 c-17 -41 -21 -134 -7 -162 22 -43 124 -82 153 -58 8 7 15
6 20 -2 5 -8 3 -10 -7 -4 -11 6 -12 5 -2 -5 11 -12 15 -11 28 6 9 11 13 13 10
4 -4 -12 2 -16 24 -18 16 -1 32 2 35 7 3 5 16 7 29 5 30 -7 -38 24 -72 32 -14
3 -34 6 -43 7 -9 1 -14 5 -12 9 3 4 -2 9 -10 9 -33 3 -88 27 -98 42 -13 20
-30 90 -30 124 0 40 -2 41 -18 4z m1 -74 c-10 -9 -11 -8 -5 6 3 10 9 15 12 12
3 -3 0 -11 -7 -18z m94 -107 c-3 -5 -11 -10 -16 -10 -6 0 -7 5 -4 10 3 6 11
10 16 10 6 0 7 -4 4 -10z m29 -28 c3 -5 -1 -9 -9 -9 -8 0 -15 4 -15 9 0 4 4 8
9 8 6 0 12 -4 15 -8z"/>
<path d="M2740 3752 c0 -19 29 -52 46 -52 5 0 2 5 -6 10 -10 7 -11 10 -2 10 7
0 15 -7 18 -15 4 -8 10 -15 16 -15 5 0 6 6 2 13 -6 10 -4 10 7 0 19 -18 43
-16 89 8 43 23 52 35 20 26 -13 -3 -18 -1 -13 6 4 6 0 8 -10 4 -10 -3 -17 -2
-17 3 0 6 -25 8 -57 6 -32 -2 -66 1 -75 6 -14 7 -18 5 -18 -10z m130 -6 c0 -2
-8 -10 -17 -17 -16 -13 -17 -12 -4 4 13 16 21 21 21 13z m27 -22 c-3 -3 -12
-4 -19 -1 -8 3 -5 6 6 6 11 1 17 -2 13 -5z"/>
<path d="M3159 3686 c-2 -2 -31 -6 -64 -9 -33 -4 -61 -6 -63 -7 -2 0 0 -6 4
-12 6 -10 5 -10 -7 -1 -9 7 -20 8 -28 4 -17 -11 -4 -34 16 -27 8 3 12 2 9 -3
-7 -11 33 -19 79 -16 38 2 79 26 94 53 8 14 5 18 -13 20 -13 1 -25 0 -27 -2z
m-34 -25 c3 -5 2 -12 -3 -15 -5 -3 -9 1 -9 9 0 17 3 19 12 6z"/>
<path d="M3198 3501 c-26 -25 -44 -39 -77 -59 -17 -10 -28 -22 -24 -25 3 -4
13 -1 21 5 7 7 24 13 35 14 12 2 16 0 10 -2 -20 -8 -15 -20 7 -21 11 -1 18 2
15 8 -4 5 0 9 7 9 14 0 33 26 47 64 7 17 5 22 -8 23 -9 0 -24 -7 -33 -16z"/>
<path d="M1040 3487 c0 -5 6 -7 14 -4 8 3 20 -2 27 -11 8 -9 9 -14 5 -10 -5 4
-16 2 -25 -4 -9 -7 -13 -8 -9 -4 4 5 0 15 -10 22 -14 10 -20 10 -34 -3 -24
-22 -22 -34 5 -29 12 2 40 -3 61 -11 31 -10 41 -11 47 -1 4 7 5 16 2 22 -3 5
-1 6 5 2 6 -4 9 -13 5 -21 -3 -10 2 -15 16 -15 18 0 20 3 11 19 -17 33 -61 61
-91 59 -16 -1 -29 -6 -29 -11z"/>
<path d="M2985 3420 c22 -24 47 -39 73 -45 9 -2 25 -6 35 -10 19 -8 24 10 5
21 -7 5 -8 3 -3 -5 6 -10 3 -11 -14 -2 -11 7 -21 13 -21 15 0 7 53 -3 63 -13
12 -12 47 3 47 20 0 6 -4 8 -9 4 -6 -3 -14 2 -19 10 -8 15 -10 15 -22 0 -11
-13 -15 -14 -29 -1 -9 7 -41 17 -71 21 l-55 7 20 -22z m155 -31 c0 -6 -4 -7
-10 -4 -5 3 -10 11 -10 16 0 6 5 7 10 4 6 -3 10 -11 10 -16z"/>
<path d="M553 3333 c-35 -18 -55 -41 -47 -54 4 -8 3 -9 -4 -5 -16 10 -15 -26
1 -43 10 -11 10 -13 0 -7 -9 5 -13 0 -13 -13 0 -36 17 -32 45 11 15 23 41 53
57 66 17 14 27 31 24 39 -3 8 -2 11 3 8 5 -3 13 -1 16 5 9 14 -51 9 -82 -7z
m37 -23 c0 -5 -2 -10 -4 -10 -3 0 -8 5 -11 10 -3 6 -1 10 4 10 6 0 11 -4 11
-10z"/>
<path d="M2110 3185 c52 -53 113 -107 135 -120 38 -23 214 -79 222 -71 2 2
-21 13 -51 26 -59 23 -118 61 -291 184 l-110 78 95 -97z"/>
<path d="M880 3252 c-16 -5 -49 -42 -50 -54 0 -4 12 -6 28 -5 15 1 39 -2 55
-6 17 -5 27 -3 27 3 0 6 -6 8 -12 4 -10 -5 -10 -4 -1 6 13 14 37 4 27 -11 -4
-6 5 -9 22 -7 32 4 41 24 9 21 -11 -1 -14 1 -7 3 20 9 14 21 -15 33 -37 15
-65 19 -83 13z m43 -16 c4 -10 0 -12 -15 -8 -15 4 -17 7 -6 13 17 11 15 11 21
-5z"/>
<path d="M1281 3131 c-11 -7 -7 -13 16 -25 17 -8 34 -12 38 -8 5 4 5 2 1 -5
-4 -7 2 -18 13 -24 10 -7 17 -18 15 -24 -3 -6 10 -28 28 -49 l33 -38 -1 44
c-2 81 -4 89 -29 113 -25 26 -82 36 -69 13 6 -10 4 -10 -7 0 -15 14 -19 15
-38 3z m92 -36 c-3 -9 -8 -14 -10 -11 -3 3 -2 9 2 15 9 16 15 13 8 -4z"/>
<path d="M714 3004 c-10 -8 -12 -12 -4 -8 8 4 12 3 7 -2 -4 -4 -18 -9 -30 -9
-15 0 -22 -6 -21 -17 1 -10 -3 -16 -10 -15 -6 1 -10 -4 -8 -10 1 -7 -3 -13 -9
-13 -14 0 -3 -50 16 -69 11 -11 14 -9 20 10 4 13 20 38 35 54 15 17 35 45 44
63 16 30 16 32 -2 32 -10 0 -27 -7 -38 -16z m26 -28 c0 -2 -6 -9 -14 -15 -11
-9 -16 -9 -22 0 -4 7 -3 9 4 5 6 -3 13 -2 17 4 6 10 15 14 15 6z"/>
<path d="M430 2958 c-16 -29 -30 -61 -30 -71 0 -45 43 -94 98 -111 l23 -8 -27
53 c-28 52 -37 96 -22 106 11 6 7 83 -4 83 -4 0 -21 -24 -38 -52z m0 -63 c-5
-7 -9 -14 -7 -16 1 -2 0 -3 -2 -1 -11 7 -7 29 5 29 9 0 11 -4 4 -12z"/>
<path d="M1129 2981 l-23 -19 32 -7 c18 -3 37 -15 43 -26 5 -11 15 -16 21 -13
6 4 8 3 5 -3 -8 -12 37 -46 47 -36 9 10 -15 34 -27 26 -6 -3 -7 -1 -3 6 6 9
11 9 23 -1 14 -11 15 -10 8 12 -9 30 -33 70 -43 71 -4 0 -19 3 -33 5 -16 3
-35 -3 -50 -15z m99 -46 c-3 -3 -9 2 -12 12 -6 14 -5 15 5 6 7 -7 10 -15 7
-18z"/>
<path d="M915 2960 c3 -6 -1 -7 -10 -4 -12 5 -16 2 -13 -12 2 -11 -2 -18 -10
-16 -16 3 -28 -26 -15 -39 10 -10 77 13 88 31 4 6 11 8 16 5 5 -4 16 -2 24 3
14 7 13 11 -5 27 -16 14 -23 16 -32 7 -7 -7 -17 -12 -22 -12 -6 0 -4 5 4 10
12 8 10 10 -8 10 -13 0 -20 -4 -17 -10z"/>
<path d="M1587 2873 c-6 -13 5 -153 12 -153 26 0 69 84 50 96 -5 3 -7 9 -4 14
3 5 -3 18 -15 30 -21 21 -36 25 -43 13z m50 -39 c-3 -3 -12 -4 -19 -1 -8 3 -5
6 6 6 11 1 17 -2 13 -5z m-7 -34 c0 -5 -7 -7 -15 -4 -8 4 -15 8 -15 10 0 2 7
4 15 4 8 0 15 -4 15 -10z"/>
<path d="M3605 2791 c-226 -165 -520 -368 -595 -411 -41 -24 -154 -86 -250
-137 -96 -51 -171 -93 -167 -93 20 0 324 129 438 186 138 68 223 131 483 353
269 230 274 235 91 102z"/>
<path d="M1031 2836 c-14 -17 2 -31 22 -20 7 4 8 3 4 -2 -5 -5 -21 -9 -35 -9
-18 0 -30 -8 -39 -25 -6 -13 -11 -26 -9 -27 6 -6 72 20 90 36 12 10 16 11 12
3 -6 -10 0 -13 24 -10 21 2 34 -2 36 -10 1 -7 0 -8 -3 -2 -6 12 -23 13 -23 1
0 -11 59 -36 66 -28 11 11 -27 69 -42 63 -8 -3 -13 0 -11 7 1 7 -3 11 -10 10
-7 -2 -10 4 -7 12 8 20 -59 21 -75 1z"/>
<path d="M1340 2784 c0 -9 6 -14 13 -11 8 3 14 -1 14 -9 0 -7 -3 -11 -6 -9
-10 5 49 -169 59 -179 10 -10 14 4 11 33 -2 7 2 10 8 6 15 -9 14 8 -1 24 -10
11 -10 13 0 7 6 -4 12 -3 12 3 0 5 -6 12 -12 14 -10 4 -10 6 0 6 16 1 15 21
-3 58 -23 45 -95 88 -95 57z m90 -73 c0 -4 -6 -8 -14 -8 -8 0 -12 6 -9 14 5
13 23 9 23 -6z"/>
<path d="M795 2780 c3 -6 0 -7 -8 -4 -18 7 -47 -32 -47 -62 0 -54 10 -54 64
-3 29 27 53 55 53 62 0 7 -15 13 -34 14 -19 1 -31 -2 -28 -7z m-3 -27 c-9 -4
-10 -8 -2 -18 8 -10 8 -15 -1 -21 -7 -4 -9 -3 -5 4 3 6 2 13 -4 17 -13 8 -3
25 13 24 8 0 8 -2 -1 -6z"/>
<path d="M1226 2670 c-9 -29 -24 -62 -33 -73 -13 -15 -14 -18 -3 -13 8 4 7 1
-3 -7 -11 -9 -14 -18 -8 -21 5 -4 12 -2 16 3 3 6 12 8 20 5 20 -8 55 14 55 36
0 10 5 20 10 22 13 4 -6 66 -26 87 -10 11 -15 5 -28 -39z m11 -92 c-3 -8 -6
-5 -6 6 -1 11 2 17 5 13 3 -3 4 -12 1 -19z"/>
<path d="M896 2693 c-17 -17 5 -88 31 -98 10 -3 13 -1 10 9 -4 10 -1 13 8 10
8 -3 11 -12 8 -20 -8 -22 36 -17 82 9 34 19 91 84 82 93 -8 8 -46 -10 -40 -19
3 -5 2 -7 -4 -4 -5 3 -32 -1 -60 -10 -31 -10 -58 -13 -69 -8 -11 5 -22 8 -26
7 -4 -1 -5 4 -2 12 6 15 -9 30 -20 19z m104 -88 c0 -12 -19 -12 -23 0 -4 9 -1
12 9 8 7 -3 14 -7 14 -8z"/>
<path d="M344 2545 c2 -58 31 -109 48 -83 5 9 8 6 8 -8 0 -15 8 -24 26 -28 15
-4 28 -5 31 -2 9 9 -28 67 -39 60 -7 -4 -8 -3 -4 5 4 7 5 19 2 28 -5 13 -9 13
-24 2 -16 -13 -16 -12 -2 5 13 16 12 20 -5 32 -10 8 -15 14 -11 14 5 0 3 7 -4
15 -22 26 -28 16 -26 -40z"/>
<path d="M654 2584 c5 -14 4 -15 -7 -5 -12 9 -17 6 -27 -18 -16 -38 7 -85 50
-99 37 -13 38 -7 11 71 -11 30 -17 58 -14 61 4 3 1 6 -6 6 -8 0 -11 -6 -7 -16z
m5 -55 c-17 -11 -39 -12 -39 -1 0 4 12 8 27 9 19 1 22 -1 12 -8z"/>
<path d="M812 2544 c-2 -31 22 -80 46 -93 26 -14 80 -7 100 13 9 9 13 16 7 15
-5 -2 -24 4 -41 14 -17 9 -35 13 -39 9 -3 -4 -5 -1 -3 7 2 8 -5 17 -15 19 -15
3 -18 0 -12 -17 5 -16 2 -21 -12 -20 -10 0 -13 3 -6 5 7 3 9 12 6 20 -3 7 -10
11 -16 7 -6 -3 -7 -1 -3 6 4 6 12 9 17 6 5 -4 9 -2 9 4 0 6 -8 15 -18 20 -15
8 -18 5 -20 -15z"/>
<path d="M1073 2440 c3 -11 1 -23 -4 -26 -5 -3 -6 -10 -3 -16 4 -7 2 -8 -5 -4
-15 10 -43 -13 -34 -28 3 -6 3 -8 -2 -4 -11 10 -38 -20 -30 -33 4 -6 0 -9 -10
-7 -10 2 -20 -2 -22 -8 -6 -18 60 -10 97 12 19 12 34 28 34 37 -1 9 2 15 6 12
17 -11 21 36 6 60 -20 30 -40 33 -33 5z"/>
<path d="M1352 2364 c-7 -8 -10 -19 -6 -26 4 -7 3 -8 -5 -4 -7 4 -19 5 -28 2
-13 -5 -13 -9 -2 -24 13 -15 12 -16 -4 -3 -16 13 -22 11 -52 -19 -19 -18 -32
-37 -29 -42 9 -14 43 -9 53 10 6 9 11 11 11 5 0 -18 14 -16 40 7 13 11 27 20
31 20 5 0 5 7 2 17 -4 10 -2 14 5 9 13 -8 25 25 16 48 -8 20 -15 20 -32 0z"/>
<path d="M600 2316 c0 -22 22 -66 32 -66 5 0 6 -5 3 -10 -4 -6 10 -17 30 -26
37 -15 75 -11 75 8 0 6 -7 5 -17 -3 -17 -13 -17 -12 -4 4 14 17 16 17 27 3 11
-15 13 -15 28 -1 8 9 18 16 21 15 18 -1 17 2 -3 10 -12 5 -29 7 -37 4 -8 -4
-15 -1 -15 5 0 6 -9 11 -21 11 -11 0 -33 8 -47 19 -52 36 -72 43 -72 27z"/>
<path d="M1216 2153 c-4 -4 -13 -8 -19 -9 -29 -2 -76 -27 -70 -37 3 -6 1 -7
-5 -3 -6 4 -21 2 -32 -4 -18 -10 -19 -14 -8 -28 12 -15 11 -16 -4 -4 -12 10
-22 11 -35 3 -16 -9 -15 -11 12 -21 57 -22 137 16 168 80 14 28 10 40 -7 23z
m-42 -45 c-3 -5 -10 -6 -15 -3 -5 4 -9 2 -9 -4 0 -5 5 -11 12 -13 7 -3 6 -7
-5 -11 -12 -5 -17 -1 -17 12 0 10 2 20 5 23 9 8 34 5 29 -4z"/>
<path d="M1886 1997 c154 -55 177 -69 364 -211 26 -19 -69 91 -106 123 -19 17
-51 39 -72 50 -56 28 -193 69 -254 76 -48 5 -41 1 68 -38z"/>
<path d="M3100 1640 c-74 -27 -178 -59 -230 -71 -52 -12 -117 -33 -144 -47
-42 -20 -156 -91 -156 -96 0 -1 75 17 168 41 139 35 190 54 307 111 139 69
219 113 200 111 -5 -1 -71 -23 -145 -49z"/>
<path d="M1130 1240 c-96 -20 -209 -54 -150 -45 197 31 324 30 449 -4 85 -22
82 -16 -12 33 -59 31 -77 36 -135 35 -37 0 -105 -9 -152 -19z"/>
</g>
</svg>
