<svg xmlns="http://www.w3.org/2000/svg" viewBox="0 0 512 512"><defs><style>.medlarcls-1{fill:#fe9736;}.medlarcls-2{fill:#febb7c;}.medlarcls-3{fill:#4a2d2d;}.medlarcls-4{fill:#945031;}.medlarcls-5{fill:#fff;}.medlarcls-6{fill:none;}</style></defs><g id="Capa_2" data-name="Capa 2"><g id="bocetos"><path class="medlarcls-1" d="M182.47,120c-5-.68-11.4.09-18.39,2.08a16.05,16.05,0,0,0,.62,1.89c1.7,4.08,5.38,6.9,6.7,11.26a19.09,19.09,0,0,1-4.24,18.41,19.69,19.69,0,0,1-17.75,5.54c-6.43-1.09-11.3-5.66-13.9-11.49a52.06,52.06,0,0,1-2.77-8.35c-.13-.53-.28-1.08-.43-1.64-14.39,10.08-27.45,23.9-34.14,40.2-15,36.65-44.71,148.8-2.2,190.58s106.66,45.81,142.57,31.89,73.65-52.86,79.9-99C329.07,223,204.46,123,182.47,120Z"/><path class="medlarcls-1" d="M212.16,321.6s7,55.71,42.14,80.26S334.2,445.11,391,403.7s53.14-102.26,47.28-128.28-30.79-71.83-68.17-84.29-89.43,2.56-115.45,26-41,67.8-41.78,79.89S212.16,321.6,212.16,321.6Z"/><path class="medlarcls-2" d="M427.25,263.57c-7.9-37.17-36.4-70.2-76.56-77.21-63-11-116.54,44.71-130.47,88s-5.87,96,54.24,115.08,107-14.66,134.14-46.91C427.88,319.56,433,290.48,427.25,263.57Z"/><path class="medlarcls-3" d="M131.39,152.18c.16.35.34.69.52,1,4.05,7.38,12.36,10.31,20.43,9.69,15.67-1.19,25.86-13.09,21.94-27.7-1.91-7.09-5.4-13.54-7.94-20.39-2.43-6.55-3.53-13.63-4.67-20.5A14.63,14.63,0,0,0,156,84.88c-3.92-2.71-8.6-1.47-12.8-.07a16.91,16.91,0,0,0-9,6.84c-5.57,8.63-4.23,21.48-5.1,31.24C128.28,132.28,127.1,143.38,131.39,152.18Zm9.88-57.67c2.4-2.73,10.32-7.37,12.8-2.18a13.83,13.83,0,0,1,1,3.46c-1.41,1.79-2.69,3.65-4.78,4.94-3.77,2.34-9.23,3.24-11.86-1.17a1.18,1.18,0,0,0-.13-.18A17,17,0,0,1,141.27,94.51Zm-6,28.38c.52-5.92.78-12,1.7-18,3.23,2.89,8,3.41,12.34,1.77a21.57,21.57,0,0,0,6.6-4.15,52.12,52.12,0,0,0,.62,5.6,75.25,75.25,0,0,0,5.37,16.54c2.82,6.3,8.4,13.6,6.3,20.83-1.86,6.42-9.17,9.78-15.21,10.6C132.67,158.9,134,136.63,135.26,122.89Z"/><path class="medlarcls-4" d="M326.5,247.57s-4-20.53-28.22-15.4-44.71,40.32-39.95,51.31,17.6,15.4,17.6,15.4-13.2,7-12.1,25.29,19.06,37.75,57.54,29.32,30.79-44.35,30.79-44.35,16.12,2.2,26.75-17.23,5.5-32.25-9.89-46.18-33-6.59-37.39-3.29S326.5,247.57,326.5,247.57Z"/><path class="medlarcls-3" d="M272.26,305.18c12.08-9.17,28.87-24.49,45.39-21.23,13.43,2.66,26.48,18.53,32,30.16,1.39,2.93,5.71.8,5-2.13-1.87-8.19-7.93-14.91-14.12-20.3s-13.13-11.52-21.38-13.23c-8.48-1.76-17.1,1.08-24.52,5-8.76,4.66-18.57,10.64-25,18.29-1.47,1.73.53,5,2.64,3.42Z"/><path class="medlarcls-3" d="M335.19,239c-15.95,6-24.75,25.25-22.81,41.58.29,2.43,4.29,3.59,4.75.64,2.49-15.81,3.95-29.8,20.05-37.48,2.62-1.25.77-5.77-2-4.74Z"/><path class="medlarcls-3" d="M278.15,197.82c-17.46,8.68-31.35,23.11-43.17,38.34-13.39,17.24-23.72,35.81-27.1,57.61a120,120,0,0,0,5.9,59.53c6.1,16.65,16.81,38.33,33,47.34a3.16,3.16,0,0,0,4.28-4.29c-3.93-7.87-10.19-14.6-15-22a132.78,132.78,0,0,1-12.75-25.06,109.52,109.52,0,0,1-6-55.81c6-37.05,34.08-69.36,64.27-89.92a3.33,3.33,0,0,0-3.36-5.74Z"/><path class="medlarcls-5" d="M297.08,240c-5.62-.49-11.32,3.43-15.08,7.28-3.92,4-8.74,10.85-5.37,16.5a5.23,5.23,0,0,0,5.83,2.37c4.59-1.59,6-6.12,8.8-9.62,2.67-3.26,6.43-5.29,9.2-8.38s.77-7.79-3.38-8.15Z"/><path class="medlarcls-5" d="M344.59,248.92c-2.89,1.77-5.87,4.44-6.57,7.9a4.4,4.4,0,0,0,7.35,4.28,15,15,0,0,0,1.33-1.44q.41-.51.78-1.05c.5-.72-.4.41,0,0s.69-.78,1.08-1.15l.52-.46c.87-.77-.79.55.17-.12,2-1.37,3.08-4.1,1.66-6.31a4.7,4.7,0,0,0-6.32-1.65Z"/><path class="medlarcls-5" d="M337.5,277.5c6,0,6-9.29,0-9.29s-6,9.29,0,9.29Z"/><path class="medlarcls-5" d="M294.48,298.41a27.15,27.15,0,0,0-13,8.45c-3.19,3.83-6.18,9.64-4.64,14.72.77,2.53,4.55,4.09,6.47,1.71,2.29-2.86,3.44-6.44,5.63-9.4a19.28,19.28,0,0,1,8-6.4c5.46-2.21,3.43-10.93-2.5-9.08Z"/><path class="medlarcls-5" d="M120.33,179.58c-6.56,5.11-10.15,13.53-13.17,21.09s-6.35,16.22-4.1,24.21c1.06,3.73,5.87,4.06,7.9,1,4.06-6,4.76-14,7.29-20.75,2.73-7.26,7.31-13.86,9.42-21.31,1.3-4.61-4.12-6.78-7.34-4.27Z"/><path class="medlarcls-5" d="M100.92,247.2c.42,3.56.49,7.27,3.06,10.06a3.91,3.91,0,0,0,6.08-.79c1.69-2.89,1.17-6.11.86-9.27-.26-2.6-2.12-5.13-5-5-2.44.11-5.33,2.21-5,5Z"/><rect class="medlarcls-6" width="512" height="512"/></g></g></svg>