<svg xmlns="http://www.w3.org/2000/svg" viewBox="0 0 512 512"><defs><style>.meloncls-1{fill:none;}.meloncls-2{fill:#9e991c;}.meloncls-3{fill:#4a2d2d;}.meloncls-4{fill:#fff;}.meloncls-5{fill:#fee9a6;}</style></defs><g id="Capa_2" data-name="Capa 2"><g id="bocetos"><rect class="meloncls-1" width="512" height="512"/><path class="meloncls-2" d="M399.32,195.1c-5.92-62.56-53.4-114.66-114.55-128.89-35.66-8.3-73.25-5.27-109,.84a417.53,417.53,0,0,0-55.89,13.56C104.36,85.52,89.11,92.17,78.44,105c-13,15.59-23.49,33.65-33.53,51.23-4.78,8.36-10.06,16.42-14.52,25a98.39,98.39,0,0,0-7.78,20.45c-1,3.68-2,7.53-1.64,11.37s2.62,6.79,4.1,10.26q2.68,6.31,5.58,12.57c3.87,8.35,8,16.57,12.59,24.57,9,15.89,19.69,31,32.53,44.05a154.05,154.05,0,0,0,24.06,20.08c16,10.75,34.4,17.82,53.19,21.89a243.34,243.34,0,0,0,37.44,4.81,234.66,234.66,0,0,0,149.7-44c14.4-10.47,26.35-22.31,36-37.34C389.53,249.06,401.72,220.42,399.32,195.1Z"/><path class="meloncls-3" d="M124.64,121.56c19-11.52,37.68-18.54,59.72-21.63,24.72-3.47,49-3.15,73.84-3.31,2.81,0,3.65-4.56.69-5.08-23.78-4.18-49.19-1.22-72.91,2.18-22.79,3.26-42.91,11.18-62.52,23.06-34.35,20.8-66,49.8-82.73,86.85-1.11,2.45,2.46,4.61,3.65,2.14C61.78,169.56,90.58,142.18,124.64,121.56Z"/><path class="meloncls-3" d="M283.23,102.76c14.51,4,29.24,8,42.53,15.3,12.27,6.68,20.57,15.65,29.35,26.26,1.46,1.76,4.82-.14,3.94-2.3C347.62,114,311,104,284.83,97,281.08,95.94,279.49,101.73,283.23,102.76Z"/><path class="meloncls-3" d="M219.23,118.74c-12.53.26-30.89-1.61-41,7.22-1.31,1.13-.31,3.74,1.48,3.57,6.85-.68,13.39-3,20.31-3.58,7.5-.68,15.14-.74,22.67-.89a348.32,348.32,0,0,1,45.91,1.56c29.21,3.26,57.94,12.74,80.57,32,2.31,2,5.66-1.28,3.37-3.37C330,134.75,300.9,124.75,271,120.87,253.86,118.64,236.53,118.37,219.23,118.74Z"/><path class="meloncls-3" d="M141.25,139.6c5.74-1.8,10.92-5.29,16.63-7.31,3.19-1.12,1.87-6.17-1.41-5.11-5.91,1.9-12.94,4.14-17.43,8.62C137.47,137.37,139.05,140.29,141.25,139.6Z"/><path class="meloncls-3" d="M261.8,159.14c9.92.65,19.67,2.84,29.56,3.4,2.43.14,2.61-3.28.55-4-17.24-6.2-38.53-6-56.6-5.43a344.78,344.78,0,0,0-58.74,7.3c-35.22,7.25-75,15.16-105.35,35.4-2.43,1.62-.19,5.56,2.32,4,30.53-19.49,67.72-27.05,102.86-33.67A407.07,407.07,0,0,1,233.65,159,256.64,256.64,0,0,1,261.8,159.14Z"/><path class="meloncls-3" d="M363.59,198.49c-51.58-21-109.33-15.12-163.38-10.7-2.92.24-3,4.8,0,4.59,54.66-4,109.22-5.78,162.22,10.32C365.18,203.53,366.12,199.52,363.59,198.49Z"/><path class="meloncls-3" d="M146.62,205.27c3.44-.52,1.95-5.67-1.44-5.2-29,4-60.29,10.16-87.25,21.92-2.1.92-.58,4.15,1.53,3.61,14.47-3.68,28.54-8.7,43.11-12.13S131.85,207.52,146.62,205.27Z"/><path class="meloncls-3" d="M359.94,229.2c-24,5.12-47.1,12.3-71.49,15.83s-49.28,5-74,5.7c-50.51,1.39-101.15-3.87-151.3-9.28-2.85-.31-2.8,4.12,0,4.45,51.94,6.1,104,10.65,156.3,10.24A531.06,531.06,0,0,0,290,250.67c23.83-3.4,49.64-7.35,71.9-16.83C364.67,232.67,362.6,228.63,359.94,229.2Z"/><path class="meloncls-3" d="M181.42,224.45c19.74,3.72,41.33,7,61.4,4.51a1.8,1.8,0,0,0,0-3.6c-20.11-2.07-40.21-2-60.29-4.94C179.93,220,178.74,223.94,181.42,224.45Z"/><path class="meloncls-3" d="M284.71,228.56c7.63-1,15.56-1.49,23-3.57a1.76,1.76,0,0,0-.46-3.45c-7.52-.11-15.09,1.39-22.53,2.34C281.76,224.26,281.73,229,284.71,228.56Z"/><path class="meloncls-3" d="M342.08,268.29c-2.18.47-4,1.74-6,2.81l-6,3.37c-2.95,1.65-.25,6.3,2.66,4.55l5.93-3.57a22.13,22.13,0,0,0,5.39-3.77A2,2,0,0,0,342.08,268.29Z"/><path class="meloncls-3" d="M285.35,289.2c-16.28,2.82-32.15,8.28-48.49,11.33-16.52,3.08-33.09,5.51-49.91,6.12a182,182,0,0,1-93-21.47,1.89,1.89,0,0,0-1.91,3.26c28.15,17.24,60.67,23.59,93.35,24.09a237.48,237.48,0,0,0,50-4.81c16.89-3.37,35.71-7.82,51.25-15.39C288.53,291.42,287.13,288.89,285.35,289.2Z"/><path class="meloncls-4" d="M76.32,145.14c6.84-7,14-13.86,21.36-20.3,6.67-5.78,15.5-11.3,19.69-19.21a4.21,4.21,0,0,0-4.7-6.11c-8.66,2.21-15.93,10-22,16.18A266.18,266.18,0,0,0,70.19,139c-3.33,4.27,2.14,10.25,6.13,6.13Z"/><path class="meloncls-4" d="M144,95.84c1-1,2-2,2.92-3a3.86,3.86,0,0,0,.59-4.58,3.82,3.82,0,0,0-4.26-1.73c-1.29.45-2.54,1-3.8,1.47a4.69,4.69,0,0,0-2.8,6.88,4.74,4.74,0,0,0,7.35,1Z"/><path class="meloncls-4" d="M388.19,185.6c1.74-5.76-2.74-12.64-6.49-16.7-4.22-4.56-10.22-7.88-16.54-6.86-2.87.47-4,4.91-1.78,6.73,3.44,2.79,7.56,4.59,10.75,7.71s4.4,7.67,7.45,10.86a4,4,0,0,0,6.61-1.74Z"/><path class="meloncls-4" d="M340.26,169a29.92,29.92,0,0,0-6.95.16,3.87,3.87,0,0,0-2.8,3.25,4,4,0,0,0,1.87,3.91c1.92,1.29,4.36,1.94,6.52,2.76,2.92,1.1,6-1.48,6.4-4.27a5.14,5.14,0,0,0-5-5.81Z"/><path class="meloncls-4" d="M164.35,191.72c3.7-.53,7.9-.52,10.65-3.43a3.55,3.55,0,0,0-.71-5.5c-3.81-2.19-8.36-.73-12.43-.1-2.5.39-3.88,3.52-3.27,5.76.74,2.69,3.24,3.62,5.76,3.27Z"/><path class="meloncls-4" d="M269.4,209.19c3.27-.14,7,.18,9.79-1.87a3.07,3.07,0,0,0,0-5.21c-2.79-2.05-6.52-1.73-9.79-1.87a4.48,4.48,0,0,0,0,8.95Z"/><path class="meloncls-4" d="M326,219.15l1.08-.64-.87.37c.27-.11.55-.2.83-.29a3.43,3.43,0,0,0,2.47-3.24A3.52,3.52,0,0,0,327,212.1l-.83-.28.87.37-1.08-.64a4.4,4.4,0,1,0,0,7.6Z"/><path class="meloncls-4" d="M135.9,234c.45,0,.91,0,1.36-.06a6.54,6.54,0,0,0,2.8-.82c1.3-.73,2.65-2,2.57-3.63a4.31,4.31,0,0,0-2.46-3.57,6.45,6.45,0,0,0-2.91-.87c-.45,0-.91,0-1.36-.06a4.51,4.51,0,1,0,0,9Z"/><path class="meloncls-4" d="M244.54,109.56a120.11,120.11,0,0,1,12.72-.63c3.89,0,8,.8,11.69-.63,2.14-.83,2.94-3.85.67-5.14-7-4-18.37-1.24-25.94.06-3.54.62-2.76,6.7.86,6.34Z"/><path class="meloncls-4" d="M53.44,212a10.55,10.55,0,0,0,2.54-4.2,2.91,2.91,0,0,0-3.54-3.54,10.44,10.44,0,0,0-4.2,2.54,3.68,3.68,0,1,0,5.2,5.2Z"/><path class="meloncls-4" d="M36.78,229.74l2.56.45a3.31,3.31,0,0,0,2-.15,2.91,2.91,0,0,0,1.44-1.24,3.08,3.08,0,0,0-.47-3.66l-1.82-1.72a3.84,3.84,0,0,0-5.94.76,4,4,0,0,0-.38,2.92,3.76,3.76,0,0,0,2.64,2.64Z"/><path class="meloncls-4" d="M75.69,271.43c4.24.82,11.26,1.31,13.35-3.55.61-1.41.57-3.53-1.12-4.27a10.31,10.31,0,0,0-5.84-.64,13.61,13.61,0,0,1-4.08.1c-2.31-.37-4.67.6-5.33,3-.59,2.12.71,4.88,3,5.33Z"/><path class="meloncls-4" d="M366.93,257.28l.53-.68a6,6,0,0,0,.64-1.44,3.12,3.12,0,0,0,0-1.66,3.17,3.17,0,0,0-.8-1.37,3.11,3.11,0,0,0-3-.81l-.34.14a4.41,4.41,0,0,0-1.1.51l-.68.52a3.54,3.54,0,0,0-1.26,1.26,3.49,3.49,0,0,0-.47,1.76,3.5,3.5,0,0,0,3.5,3.51,3.46,3.46,0,0,0,1.77-.48,3.51,3.51,0,0,0,1.25-1.26Z"/><path class="meloncls-4" d="M195,279.93s11-6.3,15.75-2.36,6.7,9.84,5.91,13.39a48.81,48.81,0,0,1-2.76,7.87s13.39-5.51,18.51-1.18S233.56,313,233.56,313s13.39-7.09,18.51-2,2.36,13,2.36,13,13.39-9.06,19.3-2.76a15.77,15.77,0,0,1,4.33,13.39s6.3-7.88,11.81-4.33S295.78,341,295.78,341s10.24-14.57,17.72-11,10.24,13,10.24,13,8.66-10.24,15.75-9.45,9.85,5.12,9.85,5.12,3.54-14.18,9.84-11.82S369,337.43,369,337.43s2.36-18.51,11-18.91,10.41,8.62,10.41,8.62,1-17.67,9.28-18.86A20.27,20.27,0,0,1,413.53,311s-3.55-17.33,3.94-17.72,10.23,1.18,10.23,1.18-8.66-9.84-.39-12.6,17.33,1.18,17.33,1.18S419,354,347.37,360.66,199.3,304.35,195,279.93Z"/><path class="meloncls-3" d="M438.7,280.28c-4.6-2-11.17-2.19-15,1.63-2.27,2.26-2,5.44-1,8.51-3.29-.55-6.72-.17-9.13,1.67-4.05,3.06-4.68,8.35-4.27,13.4a14.3,14.3,0,0,0-11.77.24c-5.23,2.82-7,8-7.11,13.35a12.63,12.63,0,0,0-13.26-2.41c-5.65,2.46-7.83,8.45-8.27,14.41-3-4.58-8.43-7.77-13.73-5.82-4.54,1.67-6.69,5.33-7.38,9.47a12.94,12.94,0,0,0-10.11-4.12c-5.42.42-9.42,4.22-12.2,8.77-1.62-5.76-5.7-11-11.59-12.08-7.56-1.39-12.68,4.29-16.8,10.17-.39-3.66-1.78-7.27-4.63-9-4.23-2.49-8.44-.21-11.92,2.93.14-5.86-1.56-11.76-6.88-14.86-6.11-3.55-12.52-.25-17.59,4.11a16.74,16.74,0,0,0,.88-6,10.61,10.61,0,0,0-5.63-8.35c-4.85-2.35-10.38.17-14.89,3.58,1.56-5,1.52-10.42-2.37-13.93-4.48-4-11.12-2.68-16.45.18a20.45,20.45,0,0,0-2.25-16.31c-4.89-7.43-12.43-5.37-19.54-2.63-2.33.9-1.46,4.52,1.06,3.82,5.59-1.54,12.07-3.92,15.2,2.66,2.49,5.23,1.19,10.68-1,15.73a2.38,2.38,0,0,0,.09,2.28,2.52,2.52,0,0,0,4.1,1.85c3.5-2.77,14.05-8.93,16.5-2.11,1.83,5.07-1.95,10.91-3,15.74-.34,1.55,1.75,3.19,2.94,1.71.2-.26.41-.54.61-.82a1.93,1.93,0,0,0,.63-.36c3.26-2.78,11.48-8.55,15.78-6.24,5.77,3.09,1.24,11.44,1.13,16.13-.06,2.58,3.31,2.63,4.16.57l0-.05c4.66-4.46,14.49-11.39,19.2-3.5,2.68,4.48,1.29,9.64,1,14.6-.13,2.57,3.39,3.25,4.64,1.25,2.08-3.32,8.42-12.22,12.43-3.37.82,1.8,0,5.22-.1,7.08a2.44,2.44,0,0,0,2.34,2.58,1.92,1.92,0,0,0,2.55-.3c3.94-4.59,7.07-12.68,13.52-14.19,9.6-2.26,10,9.52,12.34,15.3a1.82,1.82,0,0,0,1.87,1.5,1.69,1.69,0,0,0,2.21-1.42c.07-.44.11-.89.15-1.34,2.25-4.64,4.72-10.16,10.28-10.89,6.67-.88,9.11,4.81,11.72,9.6a1.59,1.59,0,0,0,2.2.66,1.92,1.92,0,0,0,1.5-2.25c-.79-4.38-.82-12.82,5.42-13.23,5.42-.35,7,6.15,10,9.25a2.37,2.37,0,0,0,3,.19c1.32.41,3.17-.36,3-2-.45-4.76-.16-11.6,3.45-15.27,5.17-5.26,10.89.35,13.65,4.79a2.2,2.2,0,0,0,3.63.14,1.7,1.7,0,0,0,.91-1.66c-.43-4.73-.55-11.07,3.64-14.26a8,8,0,0,1,6.38-1.53c2.8.53,3.7,2.37,5.75,4a2.58,2.58,0,0,0,1,.47l.29.07a2.36,2.36,0,0,0,2.94-2.28,2.44,2.44,0,0,0,0-.66c-.52-3.56-1.42-8.17,0-11.6,1.08-2.53,1.87-3.32,4.74-3.88,2.21-.43,5.06,0,6.65,1.7,2.13,2.27,5.85-.64,4.28-3.3-1.15-1.94-3.57-5.38-3.25-7.68.73-5.37,6.26-3.25,9.54-2.27C439.35,285.07,441.06,281.3,438.7,280.28Z"/><path class="meloncls-5" d="M144.17,283.87s48.44-12.21,52.77-9.85,28.35,54,94.9,66.56,114.21-22.84,127.59-38.2,11.82-26,19.3-26.39,48.44,0,50.8,4.33,10.63,76-70.1,128.78S228.84,429.18,190.64,391,137.87,291.74,144.17,283.87Z"/><path class="meloncls-2" d="M489.53,280.32c-.87-1.59-7-2.65-14.68-3.33-2.47,21.26-14.76,76.35-53.45,107.3-43.31,34.65-122.07,48.43-189.81,11.42C176.24,365.46,160.08,302.87,156,281c-6.89,1.62-11.85,2.87-11.85,2.87-6.3,7.87,8.27,68.91,46.47,107.11s148.07,70.89,228.79,18.12S491.89,284.66,489.53,280.32Z"/><path class="meloncls-3" d="M193.79,269.81c-13.32.1-27.2,3.63-40.06,6.86-8.2,2.05-15.54,2.29-15.82,11.85-.68,22.88,5.36,48.34,20.42,66.06,2.36,2.79,6.31-.76,4.82-3.72-9.08-18.05-17.64-35.79-19.12-56.31-.42-5.88-1.15-8.29,4.86-10.36,4.65-1.6,9.8-2.45,14.58-3.51,10.21-2.27,20.88-3.63,30.91-6.53a2.22,2.22,0,0,0-.59-4.34Z"/><path class="meloncls-4" d="M170.19,292l.26.56a4.23,4.23,0,0,0,2.77,2.26l1.14.15a3.22,3.22,0,0,0,1.65-.36,2.18,2.18,0,0,0,1-.56,3.2,3.2,0,0,0,1.11-1.2,4.29,4.29,0,0,0,.47-3.41c0-.09,0-.18-.07-.26l-.15-.6a4.62,4.62,0,0,0-2-2.66,4.4,4.4,0,0,0-2.24-.6,4.56,4.56,0,0,0-4.44,4.44,4.4,4.4,0,0,0,.6,2.24Z"/><path class="meloncls-4" d="M185.52,288.74a1.33,1.33,0,0,0,0-2.66,1.33,1.33,0,0,0,0,2.66Z"/><path class="meloncls-4" d="M239.41,333.83l-.11.12a2.07,2.07,0,0,0-.56.87,2,2,0,0,0-.23,1l.1.71a2.56,2.56,0,0,0,.69,1.19l.11.12.58.45.69.29a2.21,2.21,0,0,0,1.14.05,1.39,1.39,0,0,0,.72-.2,1.42,1.42,0,0,0,.63-.36,1.34,1.34,0,0,0,.51-.52,1.44,1.44,0,0,0,.37-.63,2.2,2.2,0,0,0,.25-1.1l-.1-.76-.29-.68-.45-.58-.58-.45-.68-.29a2.21,2.21,0,0,0-1.14,0,1.46,1.46,0,0,0-.73.2,2.11,2.11,0,0,0-.92.59Z"/><path class="meloncls-4" d="M222.14,362a1.33,1.33,0,0,0,0-2.66,1.33,1.33,0,0,0,0,2.66Z"/><path class="meloncls-4" d="M300.51,402.08a4,4,0,0,0,2.55-1.06,2.84,2.84,0,0,0,.75-1.16,2.69,2.69,0,0,0,.31-1.4l-.13-1a3.57,3.57,0,0,0-.93-1.59l-.73-.57a3.62,3.62,0,0,0-1.82-.49,4,4,0,0,0-2.56,1.06,4,4,0,0,0-1.06,2.55l.13,1A3.55,3.55,0,0,0,298,401l.73.56a3.57,3.57,0,0,0,1.83.5Z"/><path class="meloncls-4" d="M278.45,389c3.55,0,3.56-5.51,0-5.51s-3.55,5.51,0,5.51Z"/><path class="meloncls-4" d="M382.81,355.14a2.29,2.29,0,0,0,1.21-.27,2.81,2.81,0,0,0,1.67-1.66A2.52,2.52,0,0,0,386,352l-.12-.84a3,3,0,0,0-.8-1.39l-.64-.49a3.06,3.06,0,0,0-1.59-.43,2.29,2.29,0,0,0-1.21.27,2.32,2.32,0,0,0-1,.65,2.29,2.29,0,0,0-.65,1,2.33,2.33,0,0,0-.27,1.22l.11.83a3.1,3.1,0,0,0,.81,1.39l.63.49a3.06,3.06,0,0,0,1.59.43Z"/><path class="meloncls-4" d="M412.73,375.28l.21-.09a5.08,5.08,0,0,0,.61-.26,2.42,2.42,0,0,0,.86-.85c.09-.2.17-.4.25-.59l0-.1,0-.1a1.62,1.62,0,0,0,.12-.82,2.93,2.93,0,0,0-1.44-2.51,2.8,2.8,0,0,0-1.47-.4l-.77.1a3,3,0,0,0-1.29.75,3,3,0,0,0-.75,1.29,2.91,2.91,0,0,0,2,3.58,2.91,2.91,0,0,0,1.55,0Z"/><path class="meloncls-4" d="M449,310.77c4.22,0,4.22-6.55,0-6.55s-4.22,6.55,0,6.55Z"/></g></g></svg>