<svg xmlns="http://www.w3.org/2000/svg" viewBox="0 0 512 512"><defs><style>.milletcls-1{fill:#4a2d2d;}.milletcls-2{fill:none;}</style></defs><g id="Capa_2" data-name="Capa 2"><g id="bocetos"><path class="milletcls-1" d="M316.32,163.66a39.82,39.82,0,0,0,35.61-28.75,2.29,2.29,0,0,0,.33-1.88,2.82,2.82,0,0,0-1-1.92c-8-13.94-24.94-21.49-40.82-18.81-12.94,2.18-31.87,14.21-33.8,28.51C274.31,158.26,304.11,164.54,316.32,163.66ZM282,140c4.12-11.31,18.78-20,30-21.92,13.31-2.24,25.9,3.5,33.77,14-12.33-6.38-34.85-9.77-44.69.58a1.66,1.66,0,0,0,2,2.6c13.88-6.66,27.75-3.61,41.68.57-4.43,11-14.84,19-26.6,21a41.54,41.54,0,0,1-22.85-2.93c-3.08-1.27-7.26-2.79-9.71-5.1C282.58,145.88,280.72,143.63,282,140Z"/><path class="milletcls-1" d="M347.64,205c4.92,4.63,17.26,4.17,23.37,3.73a49,49,0,0,0,24.07-8.4c14.19-9.73,17.74-26.6,14.32-42.75-.6-2.8-4.7-2.3-6.8-3a37.28,37.28,0,0,0-10.07-2.06,51.82,51.82,0,0,0-13.38,1,45.46,45.46,0,0,0-22.1,11.72,40.67,40.67,0,0,0-11.64,21.93C344.51,192.07,343.48,201.08,347.64,205Zm15.07-37.87c10.19-9.18,27-10.82,39.94-8.19a2.2,2.2,0,0,0,.36,0c1.05,12.2.81,24.89-9,33.73-9.24,8.33-27.2,14.16-39.38,9.65C341.64,197.54,356.54,172.67,362.71,167.11Z"/><path class="milletcls-1" d="M363.82,224.78a2.56,2.56,0,0,0-1.77,1.35,1.81,1.81,0,0,0-.18.21c-10.9,14.75-16.52,33-6.93,50,7.28,12.89,25,22.68,39.73,17,16.3-6.29,11.52-32.77,6.72-45.09C395.24,232.42,381.36,220.24,363.82,224.78Zm21.87,63.36c-13.28-.58-25.64-10-29.39-22.78-2.82-9.61-.12-18,3.88-26.08-1.57,12.24,1.68,25.39,11.15,33.58,1.21,1.05,3.48-.37,2.38-1.83-9.31-12.44-13.83-25.91-8-40.85,14.68-2.53,25.47,10.19,30.18,22.57C400.17,264,404.5,289,385.69,288.14Z"/><path class="milletcls-1" d="M284.31,181.07c-3.46,1.71-4.84,6.3-5.77,9.73a49.92,49.92,0,0,0-2,14.2,43.93,43.93,0,0,0,9.72,26.36,42.86,42.86,0,0,0,23.35,14.55c6.3,1.44,16.66,2.72,21.8-2.15s6.76-16,6.75-22.81A42.08,42.08,0,0,0,330,196.43C320.5,183.61,299.77,173.42,284.31,181.07Zm43.54,55c1.06-16-10.44-29.31-22.22-38.93-1.69-1.38-4.09.88-2.44,2.44,11.53,11,20.38,22.15,21.89,38.5a1.11,1.11,0,0,0,.09.31c-10.65,6.7-29.5-4.63-35.84-13.14-8.54-11.45-8.13-25.51-3.65-38.34,6.45.21,12.26-.78,18.77,1.15a37,37,0,0,1,16.2,9.59C328,205.23,336.13,226.45,327.85,236Z"/><path class="milletcls-1" d="M192.91,127.74a40.29,40.29,0,0,0,18.39,16.34c14.77,6.33,34.67,5.11,46.2-6.87,6.13-6.37,1.95-16.91-2.16-23.33a47.09,47.09,0,0,0-19-17.11,46.36,46.36,0,0,0-24.6-3.67,40.23,40.23,0,0,0-12.37,3.37c-3.34,1.55-7.83,4-9.66,7.39s-1.63,8.53-1.09,12.15A32.53,32.53,0,0,0,192.91,127.74Zm1.4-21.78c13.61-6.69,26.5-10.92,40.84-2.11a39.19,39.19,0,0,1,13.62,14.45c2.43,4.4,3.09,9.08,4.59,13.61-11.85,6.25-21.9,10.33-36,6.45C201,133.85,193.17,122.24,194.31,106Z"/><path class="milletcls-1" d="M131.57,217.71c7.43,2.76,18.92-1.75,25.33-5.21a53.43,53.43,0,0,0,18.72-16.75c9.54-13.91,9.87-33.79-3.08-45.76-1.88-1.74-10.87-1.37-14.19-.93-13.56,1.78-27.6,11.12-33.69,22.53-4,7.6-4.64,16.88-3.13,25.22C122.6,202.72,125.18,215.33,131.57,217.71Zm-.71-45.55c7.21-11.54,18.18-14.27,30-16.55-13.21,7.09-24.41,20-27.44,34.58-.35,1.69,2.15,3,3,1.25,7.13-15.69,16.21-27.28,31.48-35.6,9.08,10.43,9.37,24.88,1.74,36.41-6.38,9.63-21.82,21.17-34.13,20.29-5.08-.37-4.82-2.49-6.71-8a51.29,51.29,0,0,1-2.7-11.5A32.71,32.71,0,0,1,130.86,172.16Z"/><path class="milletcls-1" d="M225.42,170.8c-12.23,3.41-34.28,17.55-32.13,32.91,1,7.4,10.05,13.31,16.09,16.21a42.7,42.7,0,0,0,28.32,3,42,42,0,0,0,22.1-13.55c4.73-5.59,9.61-15.78,6.54-23.29a10.8,10.8,0,0,0-.48-1C258.35,170.88,240,166.74,225.42,170.8Zm10,43.88c-9.27,2.17-40.81-2.24-35-17.05,4.56-11.69,16.78-19.64,28.7-21.58,11-1.78,19.92,1.22,27.79,7.55-14-5.37-31.28-4.17-42.59,6.19-1.49,1.37.41,3.44,2,2.66,14.48-6.88,27.8-9.54,43-4.1C258.09,201.93,248.89,211.54,235.42,214.68Z"/><path class="milletcls-1" d="M201.89,233.49c-8-2.41-15.13-4.66-23.62-4a45.27,45.27,0,0,0-22.9,8.61c-9.38,6.9-24.11,27.38-14.21,38.45,26.2,29.26,75.06-6,66.36-40.23C206.85,233.75,204,234.13,201.89,233.49Zm-13.58,36.23c-9.56,8.73-29.32,15.29-40.64,5.66l-.19-.18c14.51.83,29.9-5.09,39-16.61a1.55,1.55,0,0,0-2.19-2.19c-11.82,10.46-24,15.56-39.67,15.07-5.58-11.25,9.71-28.17,18.84-32.81,11.71-5.95,24.9-5,37-1C201.34,250,197.6,261.25,188.31,269.72Z"/><path class="milletcls-1" d="M244.85,233.69c-3.21,3.11-6.19,6-8.47,9.85a40.82,40.82,0,0,0-4.41,11,44.86,44.86,0,0,0-1.28,11.83,44.21,44.21,0,0,0,.53,5.74c.28,1.72,1.29,3.83,1.29,5.53a41.54,41.54,0,0,0,14.65,20.8c5.34,4,15.36,9.28,22.23,6.65,6-2.32,11-12.29,13.22-17.75a44.05,44.05,0,0,0,2.07-25.39c-3.76-17.16-17.58-31.28-35.72-31.13C246.94,230.81,246.16,232.43,244.85,233.69Zm32.38,29c2,9.59,1,32.15-10.59,35.26-11.91,3.21-26-14.35-28.92-24.44-3.89-13.64,1.86-25.57,10.37-35.74a4,4,0,0,0,.88.1C263,237.89,274.43,249.37,277.23,262.69Z"/><path class="milletcls-1" d="M336.39,279.55a3.35,3.35,0,0,0-3-1c-4,.05-7.69-1.21-11.76-.85a38.69,38.69,0,0,0-11.44,2.87A41.11,41.11,0,0,0,292,294.91c-8.07,11.79-11,34.52-1.19,46.37,4.57,5.51,14.62.88,20.1-1.15,8.39-3.11,16.19-7.87,22.1-14.67C344.17,312.63,348,293.35,336.39,279.55Zm-8.33,40.95c-5.65,6.81-27.65,23.19-34.15,12.24-6.05-10.2-3.08-25.71,3.14-34.89a34.28,34.28,0,0,1,27.07-15.12c-13.29,6.45-24.36,22.4-25.48,35.92-.15,1.82,2.53,2,3.05.42,2.82-8.57,5.53-16.07,11.91-22.75,5.28-5.53,11.46-8.38,17.89-11.83C337.39,296.5,336.9,309.86,328.06,320.5Z"/><path class="milletcls-1" d="M408.87,337.51c-.39-.31-.76-.61-1.06-.9a54.35,54.35,0,0,0-5.15-4.68,40.19,40.19,0,0,0-14.74-6.74c-7.47-1.82-15.78-2.2-23.18.17s-13.4,8.12-17.93,14.4c-3.62,5-10.5,15.23-8.7,21.91,1.73,6.45,10.64,11.54,16.18,14.06,7.77,3.53,17.16,4.77,25.44,2.36,15.61-4.54,29.61-21,31.36-37.17C411.25,339.46,410,338.42,408.87,337.51Zm-24.55,29.42c-10.45,6.06-28.86,5.14-37.63-4.53s11.9-29.68,20.95-32.23c11.15-3.13,28.86,1.93,36.91,10.88C401.63,352.2,394.43,361.07,384.32,366.93Z"/><path class="milletcls-1" d="M308.37,367.87a56.66,56.66,0,0,0-26.47.2c-16.38,4.12-30.71,17.08-30,35,.16,4.07,4.76,6.55,7.65,8.64a39.53,39.53,0,0,0,12.51,6c8.78,2.47,18.8,2.16,26.83-2.49l.92-.56c11.15-7.08,27.91-21.36,24.65-36.55C322.86,370.73,314.8,369.33,308.37,367.87Zm8.29,16.86c-1.05,9.81-12.53,19.64-20,24.51-11.2,7.28-26.43,4.07-36.05-4.64,14.78,2.23,30.63-1.68,42.05-11.52,1.49-1.28-.44-3.74-2.09-2.71-13.63,8.48-27.2,12.26-43,10.26,1.35-13.08,10.1-23.34,23.1-26.79C288.84,371.66,318.05,371.65,316.66,384.73Z"/><path class="milletcls-1" d="M243,315.9c-10.19-15.12-28.51-22.62-45.38-14.27-1.52.75-4,9.73-4.66,13.15-2.15,11.66.39,24.25,8.08,33.56,8.9,10.77,31.86,20.12,45,11.24,5.56-3.75,5.21-12.17,4.94-18.18A49.32,49.32,0,0,0,243,315.9Zm1.88,36.1c-1.89,3.84-6,3.94-9.76,4.27-26.77,2.32-40-21.76-36.92-44.81,2.3,13.49,12.71,26,25.55,30.57a1.42,1.42,0,0,0,1.37-2.36c-4.85-4.12-10.45-7.16-14.79-11.92A34.22,34.22,0,0,1,201,307.24c14.69-6.33,30,1.34,38,14.21a44.2,44.2,0,0,1,6.59,19.95C245.72,344.06,245.91,349.8,244.84,352Z"/><path class="milletcls-1" d="M163.75,341.61c4.35-6.57-.4-17.37-3-23.74-3.16-7.69-7.56-14.42-14.1-19.64A34.87,34.87,0,0,0,123,290.55a35.66,35.66,0,0,0-12.09,2.93,44.76,44.76,0,0,0-6.46,3.23,10.38,10.38,0,0,0-2.8,2.31c-1,1.4-.63,2.78-.55,4.45.18,3.66-.48,7.16,0,10.84a39.55,39.55,0,0,0,3.1,10.87,40.2,40.2,0,0,0,14.51,17.13,42.26,42.26,0,0,0,24.2,6.81C149.13,348.9,159.92,347.39,163.75,341.61Zm-9.61-2.55c-10.15,6.17-27.09,1.75-35.53-5.25-8.76-7.27-12.84-18.4-13.3-29.54a2.9,2.9,0,0,0,.34-.19c10.48-7.55,24.42-9.37,35.4-1.67C149,308,166.64,331.46,154.14,339.06Z"/><path class="milletcls-1" d="M204.3,368.39a38.73,38.73,0,0,0-26-2.28A37.81,37.81,0,0,0,166,371.74c-2.53,1.78-8.8,6.24-8.75,9.69.24,15.38,15.29,29.16,29,33.69,12.17,4,37.71,3.15,43.47-11.33C235.75,388.55,215.74,373.8,204.3,368.39Zm17,31.66c-3.86,13.66-28.86,10.68-38.51,5.45-10.92-5.91-14.37-15.32-19.57-25.7,0-.09-.1-.16-.16-.25,10.26-6.45,21.11-11.86,33.55-7.26C205.73,375.64,224.5,388.88,221.34,400.05Z"/><rect class="milletcls-2" width="512" height="512"/></g></g></svg>