<svg xmlns="http://www.w3.org/2000/svg" viewBox="0 0 512 512"><defs><style>.mintcls-1{fill:none;}.mintcls-2{fill:#79983f;}.mintcls-3{fill:#4a2d2d;}.mintcls-4{fill:#fff;}</style></defs><g id="Capa_2" data-name="Capa 2"><g id="bocetos"><rect class="mintcls-1" width="512" height="512"/><path class="mintcls-2" d="M418.73,136.93c5.93-6.39,15.28-15.4,16.24-24.56,1.87-17.89-24.4-13.9-40.43-10.6,2.11-3.71,3.65-7.71,2.43-11.47-1.5-4.62-6.19-6.3-10.64-6.51-12.59-.6-26.12,4-38.22,9.41,2.49-5,4.29-10.35,2.45-14.56-2.07-4.71-7.21-5.64-11.82-4.76-8.33,1.59-16.64,7.83-23.33,12.71A156,156,0,0,0,297.59,102c-.43-5.73-2.12-11.58-7.88-11.66-9.07-.11-18,12.81-22.57,19.17a134.41,134.41,0,0,0-16.69,33.08c-.25-.3-.5-.61-.78-.89-6.29-6.67-10.5,0-15.6,3.7-2.66-11-7.85-25.69-18-30.63-10.62-5.18-14.7,4.64-20.58,11.16-8.69-9.74-21.44-21.52-34.12-24.18-10.64-2.23-15.33,8.15-17.14,16.9-13.32-3.1-34.23-4.14-42.87,7.46-8.29,11.13,3.87,26,12.12,35.81-8.34,2.56-20.28,7.74-18.19,16.72,2.16,9.26,16.13,14.22,26.56,16.64-6.47,4.4-13.49,10-8.54,18.11,4.61,7.57,16.95,10.12,26.72,11-5.56,6.31-9.69,14.49-4,22.23a12.81,12.81,0,0,0,1.14,1.29,127,127,0,0,0-33.48,19.68C99,271.47,91.63,279,93.09,286c.69,3.34,3.49,4.44,6.63,4.9-9.69,8-19,17-23.81,28.76-1.87,4.56-4.55,11.48-1.67,16.07,1.84,2.92,5,3.64,8.33,3.9-4.53,7.16-9.8,16.58-8.19,23.95,1.43,6.59,7.18,8.3,13,8.32a118.55,118.55,0,0,0-5.48,34.73c0,8-.48,22.73,8.66,26.51,7.73,3.2,15.64-3.24,21.18-7.82a139.67,139.67,0,0,0,20.37-21.18c1.12,11.44,4.41,25.75,16.32,19.39,11.5-6.14,19.79-19.36,24.64-31.79,1.84,2.36,3.79,4.58,6.76,5.55,4.86,1.6,9.64-.67,12.94-4.15,7.13-7.5,10.32-19.73,11.93-31,2.12,2.16,4.61,3.75,7.45,3.92,5.93.36,9.44-6,11.86-10.43a86.21,86.21,0,0,0,8.88-26.84,12.81,12.81,0,0,0,7.55,2.35c6.5,0,10.87-4.15,14.06-9.19A104.19,104.19,0,0,0,262,336.62c3.48,5.53,7.88,13.14,14.23,15.75,10.21,4.21,17.49-8.61,22-18.35,6.78,11,16.07,22.31,27.57,27.43,9.56,4.26,16.86-1.17,20.22-9.3,9.85,7.69,26.35,19.62,30,1.34,1.5-7.46-.95-17.2-2.62-24.47a121.8,121.8,0,0,0-7.2-21.45c8.12,1.86,17.54,1.89,17.09-7.95-.29-6.3-5.67-12.8-9.11-17.69A110.27,110.27,0,0,0,365,270.56c3.94-.49,7.27-2.23,7.16-6.9-.18-7.64-10.3-16.37-17.76-22.42,5.21-2,10.41-5.36,11.1-9.8a76.63,76.63,0,0,0,11.53-4.1c3.92-1.77,10.8-4.63,10.59-9.91-.11-2.64-2-4.52-4.47-6,4.36-1,8.68-2.15,12.93-3.54,5.25-1.72,12.68-3.58,15.27-9.1,3.82-8.15-4.47-12.15-12.38-14.54a88.63,88.63,0,0,0,10.74-7.1c4.59-3.57,13.14-9.08,12.79-15.82-.4-7.78-10.82-9.42-20.06-9.52A148.34,148.34,0,0,0,418.73,136.93Z"/><path class="mintcls-3" d="M364.73,122c-24.59,6.25-48.39,20.9-68.36,36.17-19.72,15.09-38.21,33.41-50.77,55-.75,1.3,1.13,2.88,2.15,1.66,16.38-19.77,33-38.68,53.55-54.29,20.13-15.28,42-25,64.71-35.5,1.73-.81.48-3.46-1.28-3Z"/><path class="mintcls-3" d="M324.61,109.08c-10,9.25-17.85,23.1-22.17,35.92-.63,1.86,2.22,3,3.15,1.33,3.33-6.06,6.38-12.23,10-18.12s8-11.23,11.68-17.06c1.06-1.69-1.29-3.36-2.68-2.07Z"/><path class="mintcls-3" d="M365.31,164.33c-28.6-3.34-65.24-7.23-89.56,12.13-1.54,1.22.43,3.15,1.93,2.5,13.94-6,27-10.51,42.28-11.76,15-1.23,30.33,0,45.35.92,2.48.15,2.37-3.51,0-3.79Z"/><path class="mintcls-3" d="M133.94,148.53c21.22,9.23,43.33,20.06,60.27,36.12,16.26,15.42,26.12,35,40.09,52.08,1.33,1.62,3.48-.44,2.71-2.09-9.45-20.29-24.95-40.74-41.54-55.77-17.12-15.51-38.65-25.66-60-34-2.07-.8-3.57,2.72-1.52,3.61Z"/><path class="mintcls-3" d="M225.83,164.39c-2,13.06-4.48,26.4-4.9,39.63a1.36,1.36,0,0,0,2.65.36c3.61-12.67,4.79-26.43,5.67-39.53.14-1.93-3.12-2.41-3.42-.46Z"/><path class="mintcls-3" d="M147.53,205.5c19.43-2.12,39.46-4.41,59-1.79,1.58.22,3-2,1.21-2.87-8.14-3.9-18.09-2.81-26.88-2.56A205,205,0,0,0,147,201.93c-2,.39-1.57,3.8.49,3.57Z"/><path class="mintcls-3" d="M173.39,133.5c9.29,16,14.36,33.33,22.22,49.83.91,1.92,3.42.44,3.15-1.33-2.65-17.66-12.95-35.37-22.06-50.43-1.28-2.11-4.56-.21-3.31,1.93Z"/><path class="mintcls-3" d="M145.72,180.48c8.83-.92,18-.75,26.68-2.56,1.91-.4,1.21-2.93-.42-3.13-8.79-1.09-18.06.72-26.73,2.15-2,.32-1.55,3.75.47,3.54Z"/><path class="mintcls-3" d="M240.15,233.65a197.34,197.34,0,0,1,60,37,184.77,184.77,0,0,1,22.6,24.6c7.09,9.29,12.48,19.64,19.35,29,1.34,1.84,4.75.85,3.95-1.66-7-22-25.87-42.22-42.9-57.06a178.6,178.6,0,0,0-62-35.4c-2.24-.74-3.06,2.64-.95,3.47Z"/><path class="mintcls-3" d="M263.47,245.36c1.12,18.62,2,37.62,6.25,55.84a1.32,1.32,0,0,0,2.58-.35c-.1-18.52-2.95-37.09-4.88-55.49-.26-2.47-4.1-2.57-3.95,0Z"/><path class="mintcls-3" d="M295.1,260.86c8.66-.51,17.47-1.15,26.15-.5s16.45,3.18,24.76,5.54c2,.56,2.86-2.07,1.33-3.15-14.6-10.33-35.6-7.56-52.24-5.72-2.39.27-2.5,4,0,3.83Z"/><path class="mintcls-3" d="M278.9,237.94c9.74-1.81,19.41-1.27,29.13-2.53,1.64-.22,2.37-2.72.43-3.17-9.78-2.26-21-.37-30.74,1.43-2.8.51-1.62,4.79,1.18,4.27Z"/><path class="mintcls-3" d="M294.47,291.54c.85,3.24,1.18,6.58,2,9.83.48,2,3.31,1.43,3.42-.47.21-3.47-.67-7.09-1.53-10.43-.64-2.51-4.53-1.44-3.87,1.07Z"/><path class="mintcls-3" d="M221.87,242.51c-23.15,12.25-43.61,32.26-60.6,51.9-16.47,19-32.85,41.31-41.35,65.24-.67,1.88,2.16,3,3.15,1.32,13.85-22.71,26.14-45.16,43.85-65.31,17.09-19.45,37-34.31,57.09-50.38,1.62-1.3-.45-3.66-2.14-2.77Z"/><path class="mintcls-3" d="M172.78,282.33c-16.13,3-34.32,7.88-48.29,16.81a1.7,1.7,0,0,0,1.3,3.09c16.17-4.54,31.86-11.33,48-16.14,2.43-.72,1.4-4.22-1-3.76Z"/><path class="mintcls-3" d="M191.05,293.16c1.65,7.15,2.67,14.4,4.1,21.59.4,2.06,3.82,1.61,3.68-.5a95.4,95.4,0,0,0-4.6-22,1.65,1.65,0,0,0-3.18.87Z"/><path class="mintcls-3" d="M162.86,301.09c4.26,20.52,4.68,41.27,7.94,61.82.26,1.62,2.93,1.57,3.22,0,3.78-20.17-2-43.44-6.7-63.05-.69-2.91-5.06-1.67-4.46,1.23Z"/><path class="mintcls-3" d="M258.4,169.07c-.61-9-2.25-20.48-8.73-27.34a10,10,0,0,0-2.85-2.21,15.6,15.6,0,0,1,1,1.39c3.69,5.61,4.79,13.35,5.55,19.87a89.74,89.74,0,0,1-.63,23.38,137.18,137.18,0,0,1-5.84,23.53c-.59,1.75-1.18,3.51-1.8,5.27-.21.66-.41,1.32-.62,2-1.52,4.6-2.55,9.73-5.36,13.84-3.69,5.4-9.42,5.55-15.23,7.14-4.9,1.35-9.81,2.65-14.75,3.86q-4.21,1-8.44,2c-2.86.77-5.73,1.51-8.61,2.2a186.74,186.74,0,0,1-27.47,4.65c-7.94.69-17,1.08-24.33-2.54a14.12,14.12,0,0,1-6.95-7.67,13,13,0,0,0,2.68,8.21c7.39,10.06,28.3,7.27,38.66,6.4a219.55,219.55,0,0,0,37.86-6.47c8.5-2.23,18.48-4.29,26.15-8.8,2.12-1.24,5.43-5.2,6-7C251.85,209,259.91,191.39,258.4,169.07Z"/><path class="mintcls-3" d="M363.94,225.78c-4.12-6-13.88-9.55-20.24-12.57a131.94,131.94,0,0,0-22.46-8.38C324,201,326,197,322.55,192.28c-5.26-7.19-17.74-5.93-25.26-4.91-18.4,2.5-34.49,12.12-49.15,23.2a19,19,0,0,1-.43,2c-.39,1.38-.8,2.75-1.25,4.11a13.6,13.6,0,0,0-.44,1.52,60.8,60.8,0,0,1,5.21-3.65,194.94,194.94,0,0,1,30.91-16.1c9.48-3.75,23.18-9.35,33.26-5,6.48,2.79-2.27,8.34-3.39,11.63-1.22,3.59,4.24,4.59,6.45,5.18,6.21,1.66,12.44,3.22,18.55,5.23,6.93,2.27,14.8,5.33,20.85,9.44,4,2.75,5.82,5.82,6.49,9.39C365.92,231.85,366.15,229,363.94,225.78Z"/><path class="mintcls-3" d="M238.16,327.86c-10.11-11.69-14.16-28.89-14.54-44a153.76,153.76,0,0,1,2.15-26.66c.61-4,1.3-8.09,2.29-12a24.47,24.47,0,0,1,2.78-6.91,28.84,28.84,0,0,0-4.64,1.5c-.88.34-1.75.67-2.62,1-6.93,23.57-9.55,50.05-.41,73.28,3,7.68,7.63,17.16,17.23,17.12.35,0,.66-.06,1-.08A30.79,30.79,0,0,1,238.16,327.86Z"/><path class="mintcls-4" d="M371.56,154.83a8.08,8.08,0,0,0,6.27-.69,4.89,4.89,0,0,0,2.48-4.32,5,5,0,0,0-3.07-4.58,4.78,4.78,0,0,0-3.35-.22,3.64,3.64,0,0,1-.59.15l1.34-.18a4.22,4.22,0,0,1-.87,0l1.36.18a3.71,3.71,0,0,1-.67-.2l1.23.52-.16-.08a5.77,5.77,0,0,0-4-.52,5,5,0,0,0-3.34,3,4.9,4.9,0,0,0,0,4,5.2,5.2,0,0,0,3.34,3Z"/><path class="mintcls-4" d="M333.29,229.43a8,8,0,0,0-5.35-.65,4.43,4.43,0,0,0-3.07,5.41,4.8,4.8,0,0,0,2.69,2.94,10.54,10.54,0,0,0,3.84.36c1.2,0,2.3.23,3.34-.57a3.42,3.42,0,0,0,1.38-2.75A5.59,5.59,0,0,0,333.29,229.43Z"/><path class="mintcls-4" d="M294.15,217.36a3.12,3.12,0,0,0,0-1.91l0,0a4.09,4.09,0,0,0-1.69-2.19,4.07,4.07,0,0,0-2.83-.37,3.67,3.67,0,0,0-1.63.94l-.57.75a3.64,3.64,0,0,0-.5,1.85l.13,1A3.69,3.69,0,0,0,288,219l.75.58a3.64,3.64,0,0,0,1.85.5,2.77,2.77,0,0,0,1.42-.32,2.7,2.7,0,0,0,1.19-.76,3.69,3.69,0,0,0,.94-1.62Z"/><path class="mintcls-4" d="M283.06,328.05c4.78,0,4.79-7.44,0-7.44s-4.79,7.44,0,7.44Z"/><path class="mintcls-4" d="M103,316.26l-.56.87L102,318a2.87,2.87,0,0,0-.06,1.51,1.82,1.82,0,0,0,.26,1,2.84,2.84,0,0,0,.78,1.22l.77.59.9.38a2.91,2.91,0,0,0,1.52.07,2.73,2.73,0,0,0,1.4-.45l.87-.56a4.08,4.08,0,0,0,1.45-1.44,4,4,0,0,0,.54-2l-.14-1.07a4,4,0,0,0-1-1.77,3.06,3.06,0,0,0-1.3-.83,3,3,0,0,0-1.54-.35,4,4,0,0,0-3.47,2Z"/><path class="mintcls-4" d="M204.14,335.77c4.44,0,4.45-6.9,0-6.9s-4.45,6.9,0,6.9Z"/><path class="mintcls-4" d="M213.1,155.24a17.79,17.79,0,0,0-.57-4.12,7.68,7.68,0,0,0-.72-2.1,4,4,0,0,0-6.66-.41,6.23,6.23,0,0,0-1,2.34,18.28,18.28,0,0,0-.61,4.29,4.78,4.78,0,0,0,9.55,0Z"/><path class="mintcls-4" d="M168.63,133.72a6,6,0,0,0-2.06-3.45,6.45,6.45,0,0,0-3.49-1.24,3.45,3.45,0,0,0-3,1.73,3.56,3.56,0,0,0,0,3.52,2.31,2.31,0,0,1,.18.35l-.37-.88a3.08,3.08,0,0,1,.16.54,6,6,0,0,0,.53,1.45l-.42-1a3.71,3.71,0,0,1,.21.81l-.15-1.12a3,3,0,0,1,0,.42,4.29,4.29,0,0,0,4.85,4.21,4.08,4.08,0,0,0,2.8-1.62,4.32,4.32,0,0,0,.76-3.73Z"/><path class="mintcls-4" d="M175.86,227.31c4.35,0,4.36-6.75,0-6.75s-4.35,6.75,0,6.75Z"/></g></g></svg>