<svg xmlns="http://www.w3.org/2000/svg" viewBox="0 0 512 512"><defs><style>.morelcls-1{fill:none;}.morelcls-2{fill:#928181;}.morelcls-3{fill:#4a2d2d;}</style></defs><g id="Capa_2" data-name="Capa 2"><g id="bocetos"><rect class="morelcls-1" width="512" height="512"/><path class="morelcls-2" d="M221.88,364.74s-37.44,77.43-24.67,108.91,49.35,38.29,77.42,20.42,21.28-30.63,12.77-57.86-6-50.2-5.11-67.22S221.88,364.74,221.88,364.74Z"/><path class="morelcls-2" d="M223.16,7C195.6,9.41,190.4,32.47,182.74,44.81s-22.55,44.67-23.4,61.69,8.94,32.76,7.66,44.67-20.42,26.38-18.29,47.22,19.57,33.61,20.84,45.1-27.23,28.93-28.5,62.54,8.08,65.94,79.55,72.32,124.66-13.19,138.7-40.84,11.91-45.95,3-63-10.22-40.42-7.24-54.46,11.49-24.68-1.7-42.12-23.4-28.08-24.67-42.12.42-40.41-8.09-53.6-22.12-9.79-34.88-23.4S270.81,2.69,223.16,7Z"/><path class="morelcls-3" d="M238.63,48.25c-1.38-.91-4.73-1.79-6.88.7-6.14,7.13-6.56,17.29-5.35,26.7.57,4.48,2.33,16.6,9.54,15.68,6.67-.84,7.52-13.27,7.92-17.91C244.48,66.16,245.53,52.84,238.63,48.25Zm.47,21.15c0,2.87-1.13,19.21-5.9,13.7-2.55-2.93-2.16-11-2-14.57.09-2.69-.3-5.38-.08-8.07a11.16,11.16,0,0,1,1.57-5.26c1.62-2.33,3.71-1.37,4.9.71a12,12,0,0,1,1.31,4.37A69.37,69.37,0,0,1,239.1,69.4Z"/><path class="morelcls-3" d="M191,78.06c-10.54,6.82-10.12,46.71,5.07,41.94,10.26-3.22,12.42-25.74,6.13-36.25C200.19,80.36,196.09,74.78,191,78.06Zm3.52,35.67a2.72,2.72,0,0,1-2.74-.72,6.28,6.28,0,0,1-1.43-2.84c-1.64-5.87-1.76-12.37-1.37-18.42a20.43,20.43,0,0,1,1.34-6.61,2.64,2.64,0,0,1,.94-1.32c.86-.54,2-.08,2.81.5a14,14,0,0,1,5.19,7.46,29.18,29.18,0,0,1,1.06,9.17c-.06,3.22-.32,6.86-2,9.69A7.11,7.11,0,0,1,194.54,113.73Z"/><path class="morelcls-3" d="M240.26,123.67a11,11,0,0,0-4.58-5.43c-1.92-1.09-4.44-1.14-6,.66-1,1.21-1.25,2.87-1.59,4.36a39.48,39.48,0,0,0-.89,5.4,17,17,0,0,0,1.85,9.91c2.36,4.1,8.14,5.25,10.93,1C242.68,135.5,241.9,127.93,240.26,123.67Zm-4,11.73c-.68,1.87-2.08,1.52-3.08-.19a10.46,10.46,0,0,1-1.24-4c-.19-2.79-1.14-7,1.37-8.13,1.68-.78,2.87,2.21,3.26,4.46C237,129.61,237,133.38,236.3,135.4Z"/><path class="morelcls-3" d="M283.08,110.69c-.59-4.67-3-16.34-9.83-15.08-4.74.88-6.4,7.54-7.71,11.39a65.93,65.93,0,0,0-2.23,8.15,51.7,51.7,0,0,0-1,16.59,35.89,35.89,0,0,0,.68,3.84c1.22,5.13,7.2,17.38,14,10.82C284.57,139,284.26,120,283.08,110.69Zm-11,31.78c-2.66.08-4.38-9.33-4.59-10.87a43.06,43.06,0,0,1,.47-12A84.14,84.14,0,0,1,269.8,111c.37-1.43.76-2.85,1.16-4.26.31-1.13.45-2.8,1.26-3.7,1.85-2.08,3.54,4.09,3.81,5a42.89,42.89,0,0,1,1.59,11.77c0,2.16-.07,4.31-.22,6.45a56.78,56.78,0,0,1-1.27,9.27c-.47,2-1,4.35-2.39,5.94A2.39,2.39,0,0,1,272.08,142.47Z"/><path class="morelcls-3" d="M310.22,143a9.68,9.68,0,0,0-4.61-5.84c-3.57-1.73-6.55,1.22-7.16,4.57-.91,4.94-.93,10.64,1.56,15.14,1.9,3.46,6.21,6.08,9.09,2.09C312.13,154.8,311.66,147.71,310.22,143Zm-3.67,9.66c0,.18,0,.36-.07.53-.17,1.28-1,3.92-2.49,1.87a7.16,7.16,0,0,1-1.12-3.08c-.41-2.68-.5-5.41-.69-8.11a3.15,3.15,0,0,1,.07-1.3,1.14,1.14,0,0,1,.92-.82c1.61-.13,2.64,3.75,2.93,4.92A17.27,17.27,0,0,1,306.55,152.7Z"/><path class="morelcls-3" d="M206,160.1c-3.18-7.19-15.12-13.56-21-5.63-3.16,4.28-4.35,10.47-4.74,15.66a67.21,67.21,0,0,0,1.76,19.93c1.72,7.52,8.72,19.95,17.11,11.48C207.93,192.68,210.92,171.25,206,160.1Zm-5.7,23.8c-.87,5.72-3.09,11.33-9.43,11.17a4.64,4.64,0,0,1-2-.43c-2.68-1.35-2.34-6.28-2.63-8.76a64.61,64.61,0,0,1-.42-8.11,60.52,60.52,0,0,1,2.14-15.61,3.07,3.07,0,0,1,.6-1.32c2.07-2.26,8.27.08,10,1.75,3.59,3.43,2.6,9.53,2.38,14A73,73,0,0,1,200.3,183.9Z"/><path class="morelcls-3" d="M246,187.48a15.46,15.46,0,0,0-7.3-8c-4.3-2.22-9.4-1.26-12,2.95-1.73,2.8-2.3,6.14-3.11,9.28a55.91,55.91,0,0,0-2,11.49,48.92,48.92,0,0,0,3.52,21.3c3.62,8.47,12.72,8.36,17,.43C247.44,215,250.07,198.18,246,187.48Zm-4.68,15.17c-.23,5.19-.29,14.62-3.64,18.84-7.77,9.79-9.81-12.35-9.75-16.22a102.23,102.23,0,0,1,1.79-16.36,6.4,6.4,0,0,1,1-2.78c1.7-2.26,5.07-.37,6.73,1a9.64,9.64,0,0,1,3,4.41C241.72,195,241.51,199,241.36,202.65Z"/><path class="morelcls-3" d="M287.11,183.17a8.39,8.39,0,0,0-8.47,0,9.08,9.08,0,0,0-4.91,7,33.69,33.69,0,0,0-.13,6.19,19.54,19.54,0,0,0,.48,4.1,11.24,11.24,0,0,0,4.47,6.83c5.12,3.48,10.4.26,12.33-5C292.94,196.6,292.82,186.86,287.11,183.17Zm-1.17,14.94a14,14,0,0,1-1.1,4.24c-1.27,2.77-4,1.63-5.46-.36a11.29,11.29,0,0,1-1.7-7.85c.32-2.45,2.34-5.92,5.3-5.1S286.23,195.42,285.94,198.11Z"/><path class="morelcls-3" d="M328.18,197.37c-2.05-2.53-4.93-4.69-8.31-4.76a10,10,0,0,0-9.65,7.35c-.94,4-.49,8.21-.61,12.31s-.15,8.19.13,12.31c.33,4.69.4,10.48,3.5,14.35,6.91,8.65,13.26-3,15.58-9C332.38,220.65,335.1,205.89,328.18,197.37Zm-2.54,16c0,.47,0,.92-.05,1.36q-.16,6.87-.83,13.73c-.42,4.23-3.55,5.48-7.43,4.21a3.73,3.73,0,0,1-2.13-1.61,5.57,5.57,0,0,1-.52-2.56c-.28-6.64-.12-13.24-.29-19.88a13.12,13.12,0,0,1,.45-4.55,5.09,5.09,0,0,1,5-3.45c1.74.1,3.09,1.58,4.13,2.83C326.05,206.07,325.79,210.07,325.64,213.4Z"/><path class="morelcls-3" d="M276.76,233.84c-3.95-2.78-8.11-.18-10.57,3.21-3.4,4.69-3.63,10.16-2.79,15.68.59,4,2.32,7.7,5.8,9.9,6.24,3.95,10.53-4.18,11.94-9.22C282.82,247.4,282.43,237.83,276.76,233.84Zm-1.12,20.26-.06.16c-.49,1.34-1.34,3.55-3,3.77s-2.66-1.49-3.16-2.79a16.52,16.52,0,0,1-.79-8.94c.33-1.77,1.59-7.06,4.25-6.6,2.5.43,3.49,3.58,3.73,5.72A19.28,19.28,0,0,1,275.64,254.1Z"/><path class="morelcls-3" d="M211.9,251a14,14,0,0,0-9.26-6.27,12.6,12.6,0,0,0-11.9,5.13c-4.82,6.38-4.71,15.76-4.59,23.36a48.37,48.37,0,0,0,5.37,21.94c.26.49.52,1,.8,1.45,6,10.4,15.76,9.76,20.45-1.31C218.23,282.38,220.06,263.2,211.9,251Zm-3.72,39.37c-9.31,18.2-15.8-7.31-16.13-14.08a83.17,83.17,0,0,1,.64-14.11c.41-3.29,1.22-6.73,4-8.77,2.46-1.79,5.95-2.3,8.45-.3,2.67,2.14,3.94,7.71,4.65,10.87C211.47,271.31,211.71,283.42,208.18,290.32Z"/><path class="morelcls-3" d="M249.44,272.73c-5.18-3.63-10.14,1.45-11.91,6.2-1.91,5.13-1.08,12.73,3.63,16.13,5.5,3.95,9.72-2.61,11.11-7.25S254,275.92,249.44,272.73Zm-2.09,13.93c-.24.73-.5,1.46-.76,2.19a3.32,3.32,0,0,1-1.49,2c-2.5,1.24-3.22-3-3.43-4.54-.35-2.63.44-9.88,4.36-9.84,1,0,1.67,1,2,2a10.31,10.31,0,0,1,.22,5A23.34,23.34,0,0,1,247.35,286.66Z"/><path class="morelcls-3" d="M279.66,312.28a10.48,10.48,0,0,0-5-4.19c-2.91-1.18-7.78-1.27-10,1.29a8.29,8.29,0,0,0-1.68,3.83,42.56,42.56,0,0,0-1.05,7.85A23.63,23.63,0,0,0,265,333.53c3.14,5.4,11.27,8.32,14.67,1.46C282.76,328.73,283.32,318.35,279.66,312.28Zm-7.59,20c-2-.57-2.5-3.81-2.9-5.48a26.56,26.56,0,0,1-.82-7.89c.09-1.61.49-3.86,2-4.8,1.74-1.11,3.68.61,4.39,2.19A20.7,20.7,0,0,1,276,326.61c-.19,1.8-.59,5.26-2.83,5.67A2.45,2.45,0,0,1,272.07,332.25Z"/><path class="morelcls-3" d="M220.85,311.75c-4.54-2.6-10-2.22-13.68,1.64-5,5.26-5.88,12.48-7.17,19.28-1.19,6.29-1,13.51,3,18.81a17,17,0,0,0,2.79,2.89c3.08,2.51,7.74,5.33,11.83,3.79,5-1.88,8-9.9,9.39-14.51C229.91,333.75,231.42,317.79,220.85,311.75Zm.55,33.11c-1.48,4.36-5.59,10-10.57,6.42-4.14-3-5.31-6.55-5.31-11.36,0-5.37.16-11.16,1.93-16.28,1.4-4,5.29-9.54,10.18-7,3.48,1.81,5.43,6.56,5.82,10.27A43.68,43.68,0,0,1,221.4,344.86Z"/><path class="morelcls-3" d="M177.3,302.74c-3.52-1.45-6.88.41-8.69,3.52-3.38,5.79-1.46,16,4.22,19.81,6,4,10.28-1.23,11.22-7S183.21,305.16,177.3,302.74Zm-2.5,17.9c-2.16-2.45-4-8.8-.33-11,1.3-.78,2,.27,2.66,1.37a11.47,11.47,0,0,1,1.47,4.66C178.9,318.36,178.33,324.66,174.8,320.64Z"/><path class="morelcls-3" d="M325.16,260.71c-5.54-5.32-12.76-5.88-18.68-.87-7.26,6.13-9.51,15.71-10.55,24.73-1,8.86-.75,18.36,3.54,26.4A28.94,28.94,0,0,0,304,317.2c10.72,11.32,20.17.87,24.14-10.35C332.65,294,336.37,271.46,325.16,260.71Zm-3.51,45.68c-2,5-4.45,12.45-12.24,7.36-3.46-2.26-5.86-8.37-7-12-2.43-8.17-1.94-18.73.72-26.82a16.62,16.62,0,0,1,6.62-8.84c2.62-1.71,5.75-2.5,8.68-1.09,4.17,2,5.52,7.1,6.35,11.15C326.9,286.09,325.37,297,321.65,306.39Z"/><path class="morelcls-3" d="M308.49,349.1c1-.72,2-1.31,3-2.09l-1.07.83a7.28,7.28,0,0,0,2.23-2.12,5.66,5.66,0,0,0,.74-2.69,5.23,5.23,0,0,0-3.79-4.81,8,8,0,0,0-4,0,9.84,9.84,0,0,0-3.75,2.18,5.46,5.46,0,0,0-1.61,3.89,5.67,5.67,0,0,0,1.18,3.34c1.55,2,4.86,3,7.1,1.42Z"/><path class="morelcls-3" d="M330.58,330.92c2.46,0,2.47-3.83,0-3.83s-2.47,3.83,0,3.83Z"/><path class="morelcls-3" d="M184.44,224.82c1,0,2.08.07,3.09,0,2.58-.17,5.53-2,5.39-4.94a5.23,5.23,0,0,0-4.73-4.86,29.31,29.31,0,0,0-3.75-.09,4.95,4.95,0,0,0,0,9.89Z"/><path class="morelcls-3" d="M203.61,236.09l.3-.07-1.29.18a3.14,3.14,0,0,1,.75,0l-1.29-.17c.63.09,1.25.25,1.89.28a4.47,4.47,0,0,0,1.75-.18,4.82,4.82,0,0,0,2.73-2.1l.46-1.09a4.73,4.73,0,0,0,0-2.42,4.83,4.83,0,0,0-1.22-2.17l-.2-.21a5.48,5.48,0,0,0-2.6-1.46,8.13,8.13,0,0,0-3.86,0,4.87,4.87,0,0,0,2.58,9.39Z"/><path class="morelcls-3" d="M259.46,474.29l1-.14.86-.37a2.64,2.64,0,0,0,1-.92,1.79,1.79,0,0,0,.46-.8,2.66,2.66,0,0,0,.31-1.39,4.3,4.3,0,0,0-.49-1.82,2.81,2.81,0,0,0-.93-1,2.71,2.71,0,0,0-1.22-.64l-1-.14a3.73,3.73,0,0,0-2,0,3.83,3.83,0,0,0-1.65,1,3.93,3.93,0,0,0-1.1,2.65,3.87,3.87,0,0,0,1.1,2.65,3.75,3.75,0,0,0,1.65,1,4,4,0,0,0,2,0Z"/><path class="morelcls-3" d="M216.35,381.91c11.81,1.24,23.36,2.71,35.26,2.8,10.41.07,22.61,1.35,32.56-2,3.36-1.14,3.9-6.48,0-7.37-10.34-2.37-22-.39-32.56-.32-11.75.08-23.52.76-35.26.62-4.13-.05-3.94,5.88,0,6.3Z"/></g></g></svg>