<svg xmlns="http://www.w3.org/2000/svg" viewBox="0 0 512 512"><defs><style>.mung-beancls-1{fill:#4a2d2d;}.mung-beancls-2{fill:none;}</style></defs><g id="Capa_2" data-name="Capa 2"><g id="bocetos"><path class="mung-beancls-1" d="M431.29,179.68c-4.62-20.08-10.3-40.21-19.06-58.92-8.23-17.55-20-35.37-37.48-44.76-25.13-13.47-55.09-7.78-70.21,17.62-9.19,15.43-11.81,35.17-13.63,52.73-2,18.94-.67,38.89,8.61,55.91,7.83,14.37,20.34,25.91,34.47,34,27.84,15.84,74.2,24.21,94.16-8.13C437.34,213.21,435,195.86,431.29,179.68Zm-7.12,25c-3.38,38.53-46.42,38.15-74.21,26.43s-47-35.36-48.86-66a162.18,162.18,0,0,1,5.53-51c5-18.6,21.47-34.18,41.45-33.75,21.49.47,39,18,49.1,35.5,8.13,14.07,14.07,29.51,19.46,44.8C421.65,174.87,425.5,189.48,424.17,204.66Z"/><path class="mung-beancls-1" d="M260,281c15.18-16.48,26.22-38,26.25-60.78a67.09,67.09,0,0,0-10.08-35.71,63.52,63.52,0,0,0-17.66-17.91A91.45,91.45,0,0,0,220.84,152c-21.83-3.31-45.1-.36-65.88,6.86-38.88,13.5-72.07,44.84-77,87.26-4.68,40.52,20.09,82.25,62,89.2,23,3.81,44.5-5,64.52-15.4S244.63,297.67,260,281Zm-47.8,21.11c-17.26,9.86-36.53,21-56.75,22.55-37.73,2.94-67-31-67.66-66.91-.74-37.55,25.28-69.6,58.3-84.75,37.95-17.41,90-17.24,118.61,16.52a3.37,3.37,0,0,0,.61.59c15.36,23.45,10.06,53.95-9.06,77.11C244.22,281.79,228.56,292.75,212.23,302.08Z"/><path class="mung-beancls-1" d="M362,298.53a157.05,157.05,0,0,0-32.79-7.14c-19.36-2.33-39.56-1.79-57.27,7.23a66.92,66.92,0,0,0-16.75,12.22,69.26,69.26,0,0,0-19.26,35.74c-6.08,31.83,13.62,67.26,42.77,80.53,17.83,8.12,38.46,12.42,57.82,14.74,18,2.16,40.08,2.91,54.11-10.46,12.64-12,24.22-30.85,28.84-47.66a60.81,60.81,0,0,0-9.33-52C398.45,315.72,380.4,305,362,298.53ZM395.11,411.2c-4.37,5.16-9.95,11.25-15.89,14.54-8,4.45-18.58,4.59-27.54,4.53-17.18-.11-34.39-3.93-50.88-8.55-14.78-4.15-30.19-10.1-40.75-21.68a62.43,62.43,0,0,1-16.2-38.33c-1.13-21.19,10.63-41.09,28.6-51.92,20.79-12.51,46-9.64,68.64-5,15.5,3.19,30.68,8.4,44,17.15,14.65,9.63,26.68,22.81,27.65,41.05C413.62,380.28,406.16,398.17,395.11,411.2Z"/><path class="mung-beancls-1" d="M374.11,183.05c2.65-1.78,4.65-4.72,5.46-9.1,2.3-7.36.59-16.88-2.22-23.55C374,142.37,370,134,361.75,130c-6.59-3.17-15.72-3.45-21.11,2.17-11.78,12.28-1.1,33.69,7.81,44.24a25.44,25.44,0,0,0,16.17,8.66c1.5,8.74,4.15,17.4,6.76,25.85,2.22,7.2,3.65,16.18,9.37,21.4,1.5,1.37,4.7,1.07,5.06-1.34,1.17-7.76-2.76-15.28-4.92-22.68C378.46,200,376.58,191.41,374.11,183.05ZM354,168.29c-5.05-6.91-14.22-21.61-6.07-28.56,11.38-9.7,21.88,13.84,24.5,21.7a18.14,18.14,0,0,1,1.17,8.41C371.6,182.24,358.27,174.17,354,168.29Z"/><path class="mung-beancls-1" d="M168.07,169.61c-18.91,3.91-36.17,16-47.6,31.36-6.11,8.2-16.22,25,1.87,25.91,12.68.65,24.68-3.78,35.16-10.59a89.55,89.55,0,0,0,18.63-16.39c5.4-6.2,11.85-14.16,9.46-23C183.38,168.73,175.18,168.14,168.07,169.61Zm7.75,18.21c-.93,1.41-2,2.89-3.13,4.4-11.13,14.54-32.06,32-50.07,25.85a2.1,2.1,0,0,1-1.45-3.37c2.53-6.16,7.32-11.11,12-15.73a83.72,83.72,0,0,1,34.32-20.37C174.6,176.42,180.66,180.45,175.82,187.82Z"/><rect class="mung-beancls-2" width="512" height="512"/></g></g></svg>