<svg xmlns="http://www.w3.org/2000/svg" viewBox="0 0 512 512"><defs><style>.mushroom-oystercls-1{fill:none;}.mushroom-oystercls-2{fill:#d9987c;}.mushroom-oystercls-3{fill:#4a2d2d;}.mushroom-oystercls-4{fill:#e5d2c4;}</style></defs><g id="Capa_2" data-name="Capa 2"><g id="bocetos"><rect class="mushroom-oystercls-1" width="512" height="512"/><path class="mushroom-oystercls-2" d="M208.25,184.05s-73.89,3.86-98.94-16.7-18-41.12,21.2-54.61,84.81-37.27,109.86-57.18S336.75-.34,398.43,24.72s94.44,88,74.52,132.35-73.24,40.48-99.58,37.26-64.25-10.92-86.74-14.13S208.25,184.05,208.25,184.05Z"/><path class="mushroom-oystercls-3" d="M413.42,168.54c3.47,0,8.25.71,11.22-1.37a5.08,5.08,0,0,0,0-8.64c-3-2.07-7.77-1.37-11.22-1.37a5.69,5.69,0,1,0,0,11.38Z"/><path class="mushroom-oystercls-3" d="M427.12,157c1.95,0,4.14,0,5.8-1.18a5.74,5.74,0,0,0,0-9.92c-1.66-1.18-3.85-1.18-5.8-1.18a6.3,6.3,0,0,0-4.34,1.8A6.14,6.14,0,0,0,427.12,157Z"/><path class="mushroom-oystercls-3" d="M144.26,158.36c.3-.26.59-.52.9-.77l-1.06.82,1.52-1.17a4.71,4.71,0,0,0,1.7-5A5,5,0,0,0,144,149a17.49,17.49,0,0,0-2.57-.35l1.4.19c-.39-.06-.77-.14-1.16-.22A6.05,6.05,0,0,0,136,150.1a5.84,5.84,0,0,0,2.58,9.76,6,6,0,0,0,5.68-1.5Z"/><path class="mushroom-oystercls-4" d="M119.59,339.54s9.63,21.2,37.26,34.69,52,21.2,70.67,38.55S264.79,461,264.79,461s1.28-36.63-14.78-62.33-59.11-57.82-80.31-73.88-41.12-27.63-51.4-31.48-1.28-36,19.28-48.83,65.53-3.86,65.53-3.86-5.14,45,9.64,75.17S241,350.46,250,358.17,262.22,371,262.22,371s-8.35-31.48-.64-57.18-1.5-56.54-9.21-72.6-54-57.83-54-57.83,26.34-74.95,92.52-77.52,92.73,28.05,96.58,43.47-36,61-48.83,83.52-26.34,30.2-32.76,73.25,0,69.38,1.28,87.37-9,46.26-11.56,55.26a87.66,87.66,0,0,1-6.43,16.06s20.56-15.42,34.7-52,12.85-82.88,12.2-102.16-4.49-26.34-5.14-29.55,28.92-9.64,46.91,1.28,18,20.56,18,20.56,0,59.76-23.78,105.37-71.95,88-100.22,86.74-46.26-41.76-70-56.54-43.69-32.13-73.25-36.62a127.84,127.84,0,0,0-53.32,3.21s-9-16.06-5.14-27.63S119.59,339.54,119.59,339.54Z"/><path class="mushroom-oystercls-2" d="M112.52,211.68c-46.9,25.7-53.33,91.23-37.91,100.87s29.56,5.14,51.4-21.2,45.62-34.05,62.32-34.69,30.18,3.21,38.55-14.78C239.73,214.25,159.42,186,112.52,211.68Z"/><path class="mushroom-oystercls-2" d="M99,375.51c-18,25.7-9.64,75.82-33.41,79.67s-36-7.71-37.91-57.82,7.71-71.32,30.2-75.81,94.62-2.06,100.23,5.78C171,345.32,117,349.82,99,375.51Z"/><path class="mushroom-oystercls-3" d="M274.78,389.71c-5.1-18.28-11.32-36.5-11.68-55.53-.21-10.82,1.8-21.63,2.21-32.44a100.19,100.19,0,0,0-.43-16,62.8,62.8,0,0,0-2.14-10,63.94,63.94,0,0,1,.17,7.2c-.46,13.93-4.86,27.52-6.71,41.29-3.83,28.39,7.28,55.14,9.92,83.16a319.82,319.82,0,0,1,1.19,41c-.5,14.39-3.28,28.46-4.21,42.75-.39,6,7.69,6,9.63,1.31,10.73-25.85,8.42-59.52,4.79-86.55C276.78,400.47,275.84,395.08,274.78,389.71Z"/><path class="mushroom-oystercls-3" d="M339,132.67c-18.22,37.64-30.72,81.51-32.48,123.45-.09,2,3.31,2.56,3.61.49,3-20.44,5.8-40.7,10.91-60.77,5.32-20.88,13.29-41.18,21.68-61,1.05-2.49-2.49-4.71-3.72-2.18Z"/><path class="mushroom-oystercls-3" d="M336.8,207.12c7-20,22.14-35.61,30.53-54.8.76-1.74-1.41-4-2.89-2.23-7.18,8.5-12.52,18.94-18.39,28.39-5.46,8.8-10.37,17.55-13.45,27.48-.84,2.7,3.29,3.78,4.2,1.16Z"/><path class="mushroom-oystercls-3" d="M273,126.59c-5.63,50.74,22.09,98.24,16.09,149-3,25.52-11.75,50.24-11.33,76.16.43,26.88,9.56,52.72,11.22,79.52a2.16,2.16,0,0,0,4.31,0c.93-26.29-8.09-51.58-8.64-77.78-.55-26.39,7.89-51.88,10.94-77.9,6-50.94-21.91-98.31-16.59-149,.4-3.84-5.58-3.79-6,0Z"/><path class="mushroom-oystercls-3" d="M218.08,164a193.31,193.31,0,0,1,30,33.25c8.14,11.59,13.31,25.32,21.65,36.58A2.36,2.36,0,0,0,274,232c-2.23-14-12.41-28.44-20.75-39.62A182.91,182.91,0,0,0,222.12,160c-2.8-2.29-6.83,1.56-4,4Z"/><path class="mushroom-oystercls-3" d="M354.35,311.26c-1.75,23-2.38,45.37-8.07,67.88s-16,42.33-25.42,63.46a2.36,2.36,0,0,0,4.07,2.38c14.19-18.46,22.58-43.37,28-65.76,5.31-21.9,8.75-46.06,5-68.45-.36-2.17-3.47-1.45-3.62.49Z"/><path class="mushroom-oystercls-3" d="M360.25,401.87a39.71,39.71,0,0,0,4.21-22.51c-.16-1.61-2.71-2.3-3.08-.41A197.61,197.61,0,0,1,356,400.08c-.78,2.48,3.08,4.18,4.26,1.79Z"/><path class="mushroom-oystercls-3" d="M177.55,269.53c2,22.86,10.66,49,28.4,64.56,1.65,1.45,4.42-.39,3.16-2.43-5.86-9.51-12.47-18.27-17.12-28.51a135.08,135.08,0,0,1-10.11-34.21c-.39-2.43-4.54-1.89-4.33.59Z"/><path class="mushroom-oystercls-3" d="M152.33,282c10.94,6.45,19,15.77,26.76,25.6,1.3,1.64,4.24-.13,3.53-2.05-4.76-12.93-15.54-22.13-27.79-27.83-2.84-1.32-5.29,2.63-2.5,4.28Z"/><path class="mushroom-oystercls-3" d="M117.16,375.51c25,10.74,48.81,23.49,73.2,35.44a2,2,0,0,0,2-3.39C169.79,392.42,144.23,381,119,371.21c-2.46-1-4.26,3.25-1.81,4.3Z"/><path class="mushroom-oystercls-3" d="M219.6,432.29c11.05,10.3,18.72,22.26,27.19,34.59,1.07,1.57,4.15.63,3.31-1.4-5.74-13.91-16.73-26-27.87-35.82-1.78-1.58-4.4,1-2.63,2.63Z"/><path class="mushroom-oystercls-3" d="M99.66,387.41c8.37,1,16.68,3,25.11,3.1,2.85,0,3-3.74.64-4.68-8.11-3.17-17.13-3.52-25.75-4-3.66-.21-3.48,5.17,0,5.58Z"/><path class="mushroom-oystercls-3" d="M86.28,287.82l.4.36a4.54,4.54,0,0,0,1.9,1.22,5.38,5.38,0,0,0,4.53,0A4.45,4.45,0,0,0,95,288.18l.92-1.19a5.86,5.86,0,0,0,.8-3l-.21-1.56a5.9,5.9,0,0,0-1.51-2.6l-.35-.4a6.58,6.58,0,0,0-4.19-1.74,4.49,4.49,0,0,0-2.28.51,4.41,4.41,0,0,0-1.9,1.23l-.93,1.19a6,6,0,0,0-.81,3l.22,1.57a5.75,5.75,0,0,0,1.52,2.61Z"/><path class="mushroom-oystercls-3" d="M56.2,430.07c5.43,0,5.44-8.45,0-8.45s-5.45,8.45,0,8.45Z"/><path class="mushroom-oystercls-2" d="M306.55,245.73c1.74-1,55.25-35.33,98.3-19.91s61,91.23,52,104.72-37.26,11.57-59.75-3.21S366.3,299.7,340.6,298.42s-37.9,9-49.47-.65S277,263.72,306.55,245.73Z"/><path class="mushroom-oystercls-3" d="M424.55,313.84a6,6,0,0,0,5.69-3.82,4.69,4.69,0,0,0,.53-2.39l-.22-1.66a6.24,6.24,0,0,0-1.6-2.74l-1.26-1a6.07,6.07,0,0,0-3.14-.85,6,6,0,0,0-5.68,3.82,4.71,4.71,0,0,0-.54,2.4l.23,1.65a6.05,6.05,0,0,0,1.6,2.74l1.25,1a6.18,6.18,0,0,0,3.14.84Z"/></g></g></svg>