<svg xmlns="http://www.w3.org/2000/svg" viewBox="0 0 512 512"><defs><style>.mustardcls-1{fill:none;}.mustardcls-2{fill:#fdc247;}.mustardcls-3{fill:#fff;}</style></defs><g id="Capa_2" data-name="Capa 2"><g id="bocetos"><rect class="mustardcls-1" width="512" height="512"/><path class="mustardcls-2" d="M259.11,92.63c-8.24-13.74-30.07-3.89-24.89,11.48,2.6,7.7,11.15,12.07,18.46,8.15S263.67,100.23,259.11,92.63Z"/><path class="mustardcls-2" d="M185.82,118.11c-8.72-21.31-44.85-9.76-40.27,12.7a21.06,21.06,0,0,0,26.24,16.4C184,143.88,190.59,129.74,185.82,118.11Z"/><path class="mustardcls-2" d="M126.89,179.41C113.68,165.62,88,182,98.3,199.38c5.26,8.84,17.42,10.89,25.59,4.91C131.81,198.51,134,186.79,126.89,179.41Z"/><path class="mustardcls-2" d="M200.13,185.86a18.09,18.09,0,0,0-8.73-7.27c-11.35-4.77-22.65,4.22-26.78,14.45a16,16,0,0,0,16.4,22c6.83-.56,13-4.87,16.9-10.5,3.39-4.88,5.26-11.28,3.12-16.82A12.65,12.65,0,0,0,200.13,185.86Z"/><path class="mustardcls-2" d="M268,153.81c-3.47-8.26-13.06-11.58-21.35-9.21-10.3,3-16.22,14.21-15,24.51,1.34,11,13.59,15.53,23.08,11.74C265.1,176.73,272.55,164.62,268,153.81Z"/><path class="mustardcls-2" d="M325.18,136.43c-15.62-11.74-36.75,9.92-23.61,25.14A17.81,17.81,0,0,0,327.18,163C334.9,155.7,333.55,142.73,325.18,136.43Z"/><path class="mustardcls-2" d="M396.73,175.38c-5.26-6.17-15-9.39-22.8-6.12-9,3.78-13.66,16.44-8.45,24.91,4.92,8,18.33,11,26.32,5.93C399.35,195.29,402.82,182.52,396.73,175.38Z"/><path class="mustardcls-2" d="M323.26,202.68a15,15,0,0,0-20.13-3.6c-9.32,6.07-13.71,19-7.69,28.95,5.41,8.9,17.1,9.95,24.62,3.13S329.65,211,323.26,202.68Z"/><path class="mustardcls-2" d="M363.27,246.62c-13.82-10.78-34.92,7.95-25.16,22.84a16.65,16.65,0,0,0,23.22,4.25C369.5,267.79,371.74,253.23,363.27,246.62Z"/><path class="mustardcls-2" d="M411.88,260.74c-17.8-5.35-29.5,22.48-11.14,28.75,8.31,2.83,16.79-2,20.05-9.84C424.21,271.47,420.38,263.3,411.88,260.74Z"/><path class="mustardcls-2" d="M363.45,317.13c-16.48-11.45-37.92,11.58-24.21,26.41,6.44,7,17.54,5.54,23.53-1.23C368.32,336,371.52,322.73,363.45,317.13Z"/><path class="mustardcls-2" d="M302.36,299.16c-.58-7.69-5.24-14.52-14.72-15-10.92-.51-19.6,9.24-20,19.77A16.76,16.76,0,0,0,287.92,321C297.8,318.92,303,308.42,302.36,299.16Z"/><path class="mustardcls-2" d="M245.58,228.62A20.66,20.66,0,0,0,220.84,231c-10.63,9.32-7.61,24.44,3.47,32,10.53,7.2,24.51,4.78,30.07-7.2C259.59,244.59,254.28,233.73,245.58,228.62Z"/><path class="mustardcls-2" d="M154,242.12c-20.78-6.72-32.88,27.84-15.23,38.13,9.87,5.76,23.67-.74,27.64-10.8C170.67,258.66,165.29,245.77,154,242.12Z"/><path class="mustardcls-2" d="M113.23,291.8c-7.29-3.62-16.79-2.62-22.2,4-5.68,7-5.48,19.53,2.29,24.9a18.41,18.41,0,0,0,25.22-4.14C125,308.14,122.93,296.6,113.23,291.8Z"/><path class="mustardcls-2" d="M208.71,305.25a14.73,14.73,0,0,0-9.26,0c-10.5,3.47-15.14,19.72-5.15,26.65,7.88,5.47,17.38,1.53,22.53-5.64C222.93,317.72,217.11,308,208.71,305.25Z"/><path class="mustardcls-2" d="M275.05,352c-5.72-8.32-18.51-11.32-26.22-4.15-6.64,6.19-11.12,15.79-7.5,24.67,4.25,10.45,16.19,12.4,24.91,6.08C273.74,373.14,281.14,360.85,275.05,352Z"/><path class="mustardcls-2" d="M334.11,376.1c-13.7-7.74-32.49,8.41-21.53,22.17,6.27,7.86,17,8.72,23.81.79C342.31,392.15,342.67,380.94,334.11,376.1Z"/><path class="mustardcls-2" d="M166.51,349.35c-15.76-10.34-33.85,11.5-23.19,26A16.87,16.87,0,0,0,170,376.5,18.15,18.15,0,0,0,166.51,349.35Z"/><path class="mustardcls-2" d="M223.83,399.51a16.09,16.09,0,0,0-17-4.42c-10,3.33-16.32,14.73-12.31,24.84,4.17,10.53,18,11.5,26.22,5.28S230.8,407.34,223.83,399.51Z"/><path class="mustardcls-3" d="M120.05,188.78c2.51,0,2.52-3.91,0-3.91s-2.52,3.91,0,3.91Z"/><path class="mustardcls-3" d="M160.85,131.08c7.57,0,7.58-11.77,0-11.77s-7.59,11.77,0,11.77Z"/><path class="mustardcls-3" d="M244.18,103.52c6.73,0,6.74-10.47,0-10.47s-6.75,10.47,0,10.47Z"/><path class="mustardcls-3" d="M230.29,248c7.28,0,7.29-11.3,0-11.3s-7.29,11.3,0,11.3Z"/><path class="mustardcls-3" d="M205.12,324.59c4.13,0,4.14-6.43,0-6.43s-4.14,6.43,0,6.43Z"/><path class="mustardcls-3" d="M106.16,312.73c7.86,0,7.88-12.22,0-12.22s-7.88,12.22,0,12.22Z"/><path class="mustardcls-3" d="M250.41,367.27l1.05,1,1.12.86,1.32.56,1.46.2a4.12,4.12,0,0,0,2.13-.48,2.7,2.7,0,0,0,1.21-.71,2.61,2.61,0,0,0,1-1,2.67,2.67,0,0,0,.71-1.21,4.12,4.12,0,0,0,.48-2.13l-.17-1.36a6,6,0,0,0-6-6,4.66,4.66,0,0,0-2.33.52,4.58,4.58,0,0,0-1.94,1.25,6,6,0,0,0,0,8.54Z"/><path class="mustardcls-3" d="M285.84,307.48a6.74,6.74,0,0,0,4.3-1.78,4.52,4.52,0,0,0,1.25-1.95,4.63,4.63,0,0,0,.53-2.34l-.22-1.62a6.17,6.17,0,0,0-1.56-2.68l-1.23-.95a6.11,6.11,0,0,0-3.07-.82,6.74,6.74,0,0,0-4.29,1.77,4.67,4.67,0,0,0-1.26,2,4.57,4.57,0,0,0-.52,2.34L280,303a6.11,6.11,0,0,0,1.56,2.68l1.23.95a6,6,0,0,0,3.06.83Z"/><path class="mustardcls-3" d="M375.25,190.64c8.26,0,8.27-12.83,0-12.83s-8.27,12.83,0,12.83Z"/><path class="mustardcls-3" d="M303,206.72a6.69,6.69,0,0,0-.76,5.15,5.48,5.48,0,0,0,.74,1.84,6.4,6.4,0,0,0,3.75,2.95,4.4,4.4,0,0,0,2.33.1,4.28,4.28,0,0,0,2.18-.69l1.18-.91a4.33,4.33,0,0,0,1.21-1.89,2.83,2.83,0,0,0,.4-1.47,4.44,4.44,0,0,0-.1-2.34l-.59-1.39a5.87,5.87,0,0,0-2.1-2.1,6.75,6.75,0,0,0-1.71-.72l1.38.58a1.61,1.61,0,0,1-.28-.17l1.15.89a1.81,1.81,0,0,1-.24-.24l.87,1.13a2.61,2.61,0,0,1-.17-.28l.55,1.3a1.07,1.07,0,0,1-.08-.32l.19,1.43a1,1,0,0,1,0-.17l-.19-1.41a4,4,0,0,0-.95-1.81,2.7,2.7,0,0,0-1-1,4,4,0,0,0-1.81-.95l-1.41-.19-1.41.19a5.87,5.87,0,0,0-3.17,2.44Z"/><path class="mustardcls-3" d="M314.49,158.4c7,0,7-10.85,0-10.85s-7,10.85,0,10.85Z"/><path class="mustardcls-3" d="M351.82,324.1l-1.08.13a2,2,0,0,0-.73.11,3.92,3.92,0,0,0-1.71.9,5.46,5.46,0,0,0-.6.49,3.63,3.63,0,0,0-1,1.57,3.73,3.73,0,0,0-.43,1.89l.18,1.29a4.83,4.83,0,0,0,1.26,2.16l.1.1A5,5,0,0,0,350,334a2,2,0,0,0,.73.11c.37.05.72.1,1.08.13a3.83,3.83,0,0,0,1.95-.44,4.54,4.54,0,0,0,2.69-2.69,3.83,3.83,0,0,0,.44-1.95l-.18-1.35a5.17,5.17,0,0,0-1.31-2.25l-1-.79a5.13,5.13,0,0,0-2.56-.7Z"/><path class="mustardcls-3" d="M322.61,384.45l-3.46.9a2.07,2.07,0,1,0,1.1,4l3.48-.83a2.11,2.11,0,1,0-1.12-4.06Z"/><path class="mustardcls-3" d="M207.05,410a6.22,6.22,0,0,0,1,3.85l-.53-4a5.47,5.47,0,0,0,0,3,5.2,5.2,0,0,0,1.25,2.2l.95.73,1.11.47.13.06a2.77,2.77,0,0,0,.82.14,2.45,2.45,0,0,0,1.37,0,7.5,7.5,0,0,0,.81-.11l-4-.53a6.49,6.49,0,0,0,3.93,1.07l1.81-.24,1.63-.69a5.08,5.08,0,0,0,1.9-1.75,3.36,3.36,0,0,0,.88-1.5,3.42,3.42,0,0,0,.46-1.71,3.47,3.47,0,0,0,0-1.81,3.42,3.42,0,0,0-.46-1.71,5.12,5.12,0,0,0-1.41-2.19l-1.37-1.06-1.63-.69-1.81-.24-1.8.24-1.63.69a5.08,5.08,0,0,0-1.9,1.75,3.27,3.27,0,0,0-.88,1.5,5.1,5.1,0,0,0-.58,2.61Z"/><path class="mustardcls-3" d="M257.18,161.57l.43-.73.49-1.15a3.61,3.61,0,0,0,.08-1.9,2.4,2.4,0,0,0-.32-1.21,3.72,3.72,0,0,0-1-1.54l-1-.75-1.14-.48a3.55,3.55,0,0,0-1.91-.08,3.46,3.46,0,0,0-1.78.56l-.74.44a5,5,0,0,0-1.79,1.79,5,5,0,0,0-.69,2.53l.18,1.33a5.05,5.05,0,0,0,1.29,2.21,5.58,5.58,0,0,0,3.54,1.46,5,5,0,0,0,4.32-2.48Z"/></g></g></svg>