<svg xmlns="http://www.w3.org/2000/svg" viewBox="0 0 512 512"><defs><style>.nutmegcls-1{fill:none;}.nutmegcls-2{fill:#bb735e;}.nutmegcls-3{fill:#4a2d2d;}.nutmegcls-4{fill:#d5aa9d;}</style></defs><g id="Capa_2" data-name="Capa 2"><g id="bocetos"><rect class="nutmegcls-1" width="512" height="512"/><path class="nutmegcls-2" d="M239.19,150.64c-9.83-14.1-21.85-26.77-34.62-38.23-10.7-9.62-22.46-20.65-36.2-25.63-18.35-6.67-38.81-4.67-57.24.61-27.64,7.93-52,23.86-58.58,53.47-7.72,34.74-12.89,69-11.86,104.69.94,32.28,9.1,60.66,27.35,87.47,14.86,21.82,34.8,41.15,59.3,51.66,52.7,22.6,117.54-8.66,135.8-62.18C282.4,266,273.28,199.56,239.19,150.64Z"/><path class="nutmegcls-3" d="M66.51,256.67A53.21,53.21,0,0,0,72.66,286c5.43,10.38,17.26,17.56,20.41,28.94,2.48,8.94,2.07,16.38,8,24.13,5.11,6.65,12.67,12.1,21.13,13,2.06.22,2-2.65.45-3.31-9.76-4-17.79-8.75-22.19-18.86C97.23,322.43,98.27,314.21,94,307s-10.63-12.48-15-19.39c-6-9.42-8.27-20-9-31a1.74,1.74,0,0,0-3.48,0Z"/><path class="nutmegcls-3" d="M77.25,180.85c-1.38,17.18-1.38,35.52,3.34,52.27,3.84,13.6,11.29,21.12,22.78,28.48,19.06,12.22.32,30.11,7.61,46.2,3,6.74,9.2,12,14.33,17.1,6,6,11.95,12.14,18.9,17,1.12.78,2.73-.78,1.91-1.91-4.63-6.35-10.44-11.79-16.09-17.23-7.87-7.57-18.34-14.55-16.54-26.95,1.54-10.58,6.64-22.13-1-31.75-3.17-4-7.84-5.87-12-8.58-7.9-5.14-12.22-11.92-15.09-20.68-5.56-17-5.62-36.23-4.92-53.9.09-2.11-3.08-2.06-3.25,0Z"/><path class="nutmegcls-3" d="M184.93,360.05c-9.84-9-15-19.89-20.47-31.74a1.19,1.19,0,0,0-2.21.6c.91,13.53,9.89,25.48,20.22,33.6,1.71,1.34,4.15-.91,2.46-2.46Z"/><path class="nutmegcls-3" d="M97.7,199.63c8.08,18.73,22.18,31.31,36,45.65,15.35,15.88,6.57,39.91,19.13,57.38.89,1.22,3.28.54,2.66-1.12-4.17-11.21-7-21.26-7.65-33.33-.43-8-1.25-15.41-6.27-22-5.66-7.41-14.22-12.93-20.79-19.55a101.12,101.12,0,0,1-20-28.85c-1-2.12-4-.27-3.1,1.81Z"/><path class="nutmegcls-3" d="M90.73,119.46c1.75,17.4,4.92,38.62,17,52.1,14.35,16,35.87,22,41.65,44.91a1.53,1.53,0,0,0,3-.41c.34-16.75-15.52-27.39-27.62-36.11-10.63-7.66-18.81-15.48-23.22-28.15-3.7-10.67-4.46-22-7.47-32.79-.49-1.78-3.53-1.51-3.34.45Z"/><path class="nutmegcls-3" d="M79.86,153.1c.07-2.71.36-6.25-1-8.71a1.74,1.74,0,0,0-3.14.41c-1,2.59-.08,6.17.36,8.8.36,2.19,3.7,1.57,3.75-.5Z"/><path class="nutmegcls-3" d="M131.37,139.6c7.76,5.49,11.86,13.13,15.5,21.65.55,1.31,2.71.62,2.63-.71-.56-10.25-7.8-19-16.36-24-2-1.16-3.59,1.75-1.77,3Z"/><path class="nutmegcls-3" d="M143.51,107.44c33.56,16.89,13.71,61.3,34,86.2,1,1.25,3.25-.1,2.72-1.58-3.3-9.18-6.18-17.77-7.47-27.5-1.26-9.46-1.74-19.1-4-28.41-3.29-13.81-10.61-26-24-31.68-1.69-.72-2.89,2.15-1.26,3Z"/><path class="nutmegcls-3" d="M174.94,236.79c2.06,9.53,4.1,19.46,9.63,27.68,2.72,4,6.81,7.14,9.28,11.33,4,6.76,3.28,15.62,2.69,23.15-1.23,15.78-5.58,38.16,10.12,48.61,1.28.85,3-.86,2.15-2.15-13.27-19.13-5.37-37.56-7.76-58.78-.87-7.67-3.61-13.06-8.61-18.77-8.26-9.42-11.72-19.87-14.55-31.88-.45-1.92-3.36-1.1-2.95.81Z"/><path class="nutmegcls-3" d="M193.08,173.05c12.8,13.21,16.14,30.47,13.81,48.19-.17,1.31,2,1.56,2.29.31,4.62-18.66.95-37.92-13.91-50.69-1.5-1.29-3.6.74-2.19,2.19Z"/><path class="nutmegcls-3" d="M209.94,234.3c-1.5,10,1.06,19,5.59,28,6.89,13.57,14.27,24.17,16.19,39.77.19,1.47,2.63,2.19,2.9.39,3.72-24.87-24.52-42.43-21.82-67.75.17-1.61-2.61-2-2.86-.39Z"/><path class="nutmegcls-3" d="M224.74,188.17A176.65,176.65,0,0,1,247,233.31c.47,1.43,3,1.29,2.78-.38-1.71-16.7-12.21-33.35-22-46.54-1.33-1.77-4.34-.11-3,1.78Z"/><path class="nutmegcls-3" d="M211.32,156.6a7.46,7.46,0,0,0-1.75-1.43,1.75,1.75,0,0,0-1-.19,1.51,1.51,0,0,0-.92.44,1.81,1.81,0,0,0-.41.71,1.68,1.68,0,0,0,.16,1.24,7.46,7.46,0,0,0,1.43,1.75,1.78,1.78,0,1,0,2.52-2.52Z"/><path class="nutmegcls-4" d="M450.51,240.32s-2.17-26.47-14.76-31.25S411,198.25,404.89,191.31s-15.14-5.67-26.43-3.5-26-7.82-32.55-6.08-24.14,9.39-31.52,7.65-17.09-6-27.51-3.42-16.49,28.32-19.1,30.49-20,13-19.53,18.66,1.31,15.2,9.12,20.84,7.38,16.49,13.89,24.3,26.47,13,31.25,19.1,3.47,13.89,16.92,16.93,29.08,4.34,36,11.72,20.4,6.07,29.51,3,10.85-5.2,22.14-1.73,16.92-10.42,28.64-16.06,18.23-5.64,19.53-13,1.74-17.8,6.51-24.31,6.95-10.41,3-19.09S450.51,240.32,450.51,240.32Z"/><path class="nutmegcls-2" d="M465.37,276.18c-.55,1-1.07,2-1.58,3.13-1.64,3.46-3.24,6.95-4.89,10.41l-.87,1.77c-4,6.67-11.5,17.88-19.24,21.75-11.28,5.64-13.45,18.23-25.61,17.36s-20.4-3.47-33,0-26.48,1.74-32.12-3.47-19.75-6.08-25.39-6.95-13.24-11.28-18-17.79S279.07,292,276.47,289.8s-12.05-26.53-13.89-29.08c-3.43-4.74-9.38-5.06-11.86-7.45.09-.5.19-1,.28-1.48-.3-.35-.58-.71-.85-1A26,26,0,0,1,244.5,239c-4.31,17-7.47,34.57-10.55,51.85s-6.58,35.72-5.51,53.46c1.83,30.44,22.66,53.47,48.39,67.78a137.8,137.8,0,0,0,85,16.16c31-4.11,54.75-19.29,71.65-45.55C452.75,352.71,463,314.17,466,279A4.17,4.17,0,0,0,465.37,276.18Z"/><path class="nutmegcls-3" d="M462.43,248.09c-4.21-5.35-7.29-9.66-8.69-16.37-1.25-6-1.71-12.14-5-17.47-6.21-10-17.45-9.6-27.43-12.84-11.23-3.64-13.7-17.11-26.58-18.31-7.7-.72-14.89,3-22.53,2.63-9-.45-16.09-8.44-25.39-7.41-4.14.46-7.73,2.47-11.32,4.41-8.93,4.83-14.79,6.44-25.07,4-9.24-2.23-19.36-6.07-28.46-1.06-8.78,4.84-10,14.33-13.25,22.81-4.08,10.65-16,12.33-22,21.32-5.4,8.09-3.47,18.48,2.42,25.73,3.61,4.44,10,7.05,12.05,12.69,1.75,4.81,1.11,9.84,3.63,14.54,5.41,10.11,15.26,13.08,25.3,16.79,10.75,4,12.9,15,22.36,20.27,11.2,6.27,24.6,2.67,35.12,10.86,8.37,6.52,15.28,9.74,26.08,7.6,5.73-1.14,11.15-3.59,16.91-4.54,8.26-1.36,15.79,3.32,24,1.73,9-1.76,12.14-9.25,17.91-15.4,7.14-7.6,19.35-7,25.68-15.64,2.74-3.72,3.27-8,3.68-12.49.69-7.42,3.47-12,6.24-18.7C472.05,263.64,468.49,255.79,462.43,248.09Zm-6.38,35.43c-1,4-.46,8.25-1.51,12.2-1.71,6.41-6.14,7.93-11.49,10.3-9.05,4-13.44,8.82-19.87,16.26-5.79,6.7-10.3,6-18.52,4.55a35.92,35.92,0,0,0-12.15-.39c-12.05,1.8-23.29,9.86-34.58,1.73-7.78-5.62-12.94-9.42-22.66-10.94-4.55-.7-9.34-.87-13.75-2.33-7.93-2.62-9.14-9.07-13.79-15-5.21-6.61-13-8.55-20.54-10.88-6.13-1.88-11.63-4-14.9-10.19-2.54-4.77-2.19-10.44-4.46-15.31-4-8.54-14.84-11.45-16.67-21.35-2.25-12.21,13.68-17.64,19.49-26.07s5.42-24.41,16.14-28.14c11.9-4.15,24.44,5.8,36.62,4.3,5.93-.72,10.94-4.2,16.16-6.86a27.72,27.72,0,0,1,7.95-2.9c4.58-.75,7.89,1.89,11.64,4a29.75,29.75,0,0,0,14.13,4.08c5.24.09,10.26-1.93,15.49-2.1,5.73-.19,12.1.82,16.34,5.15,4.64,4.74,6.84,11.21,13.14,14.14a33.25,33.25,0,0,0,4,1.54c4.05,1.29,8.33,1.78,12.35,3.19,7.4,2.59,9.42,7.71,10.66,14.94,1.62,9.36,3.33,16.46,9.26,23.94,3.23,4.07,8.52,8.47,8.62,14.16C463.27,271.67,457.56,277.74,456.05,283.52Z"/><path class="nutmegcls-3" d="M274.31,304c-5,16.41-7.12,33.31-7.89,50.42-.73,16.17-1.49,35.38,3.79,50.83a1.46,1.46,0,0,0,2.86-.39c.06-16.22-3.29-32.23-2.74-48.63.58-17.33,3.75-34.38,7.23-51.33a1.69,1.69,0,0,0-3.25-.9Z"/><path class="nutmegcls-3" d="M301.88,328.09c4.46,13.6-4.72,26.57-8.6,39.22C290,377.86,288.19,389,289.17,400a1.32,1.32,0,0,0,2.64,0c.93-15.88,3.21-29.42,9.69-44,4.28-9.63,7.58-18.48,3.81-28.86-.77-2.12-4.15-1.25-3.43.94Z"/><path class="nutmegcls-3" d="M312.73,405.67a253.69,253.69,0,0,1,6.48-30.38c.53-2-2.32-2.68-3-.83a116.34,116.34,0,0,0-6.54,30.8c-.13,1.71,2.8,2.14,3.05.41Z"/><path class="nutmegcls-3" d="M320.3,368.9a1,1,0,0,0,0-1.95,1,1,0,0,0,0,1.95Z"/><path class="nutmegcls-3" d="M330.81,347.71c.71-2,1.39-4,1.9-6.14s-2.73-3.82-3.8-1.61-1.85,4.28-2.67,6.49a2.37,2.37,0,1,0,4.57,1.26Z"/><path class="nutmegcls-3" d="M365,354c-2.31,10.67-12.8,16.44-17.71,25.8-3.86,7.39-5.46,15.95-6.1,24.19-.14,1.73,2.6,2.06,3,.41,2.78-11.39,4.21-22,12.31-31.18,5.17-5.84,10.39-10.31,11.85-18.29.4-2.18-2.87-3.13-3.35-.93Z"/><path class="nutmegcls-3" d="M362.48,414c11.49-9.71,25.49-13.61,35.06-25.87A58.13,58.13,0,0,0,409.86,354c.09-2.4-3.41-2.29-3.67,0-1.54,13.86-7.1,26.68-17.07,36.57-8.62,8.55-20.35,12.64-29.34,20.73-1.84,1.66.85,4.27,2.7,2.7Z"/><path class="nutmegcls-3" d="M425.43,356.71a52.52,52.52,0,0,0,2.52-7.83c.36-1.83-2.3-3.27-3.22-1.36a54.32,54.32,0,0,0-2.84,8.22c-.67,2.3,2.72,3.15,3.54,1Z"/><path class="nutmegcls-3" d="M252.15,294.38c-4.93,12.05-7.52,26.1-3.58,38.87a1.63,1.63,0,0,0,3.19-.43c.18-12.86.23-25,4.19-37.39.79-2.48-2.87-3.33-3.8-1.05Z"/><path class="nutmegcls-3" d="M250.24,358.38l.3,3.21c.1,1.14.23,2.45,1.19,3.22a1.75,1.75,0,0,0,2.43,0c1.5-1.66.78-4.39.63-6.43a2.33,2.33,0,0,0-2.27-2.27,2.29,2.29,0,0,0-2.28,2.27Z"/><path class="nutmegcls-3" d="M351,273.27c-3.54,4.49-5.32,10.46-7.82,15.6-2.57,5.29-5.67,10.42-7.65,16-.63,1.76,1.81,2.41,2.76,1.17,3.85-5,6.7-11.15,9.35-16.9,2.18-4.74,4.95-9.8,5.32-15a1.16,1.16,0,0,0-2-.81Z"/><path class="nutmegcls-3" d="M326.46,262.11c-10.77,3.61-22.56,5.93-32.88,10.62a1.24,1.24,0,0,0,.62,2.29c11.37-1,23.19-5.18,33.63-9.66,1.85-.79.53-3.89-1.37-3.25Z"/><path class="nutmegcls-3" d="M332.14,249c-13.66-4.3-27.88-11.61-42.28-12.47-1.78-.11-1.83,2.33-.39,2.89,13.18,5.13,27.89,10.19,41.83,12.64a1.59,1.59,0,0,0,.84-3.06Z"/><path class="nutmegcls-3" d="M342.4,240.45c-2.94-4.64-6.7-8.74-10.09-13.06-3.64-4.62-6.84-10.06-11.16-14.07a1.53,1.53,0,0,0-2.4,1.85c2.53,5.28,6.91,10,10.44,14.63,3.32,4.37,6.45,9,10.36,12.85,1.44,1.42,4-.42,2.85-2.2Z"/><path class="nutmegcls-3" d="M354.43,235.07c-1.24-7-1.81-14.27-4.5-21a1.8,1.8,0,0,0-3.46,1c1.26,6.87,3.54,13.54,4,20.55a2,2,0,1,0,3.94-.53Z"/><path class="nutmegcls-3" d="M368.65,237.83c2.31-5.79,3.32-12.09,4.62-18.17s3.1-12.16,3.37-18.36c.08-1.86-2.4-1.9-3-.41-4.61,11.41-4.51,24.38-8.63,35.94-.82,2.32,2.77,3.22,3.65,1Z"/><path class="nutmegcls-3" d="M380.24,247.1c10.93-6,22.6-12.52,32.42-20.22,1.45-1.14-.39-3-1.83-2.37-11.17,5.1-22.3,12.5-32.48,19.35a1.88,1.88,0,0,0,1.89,3.24Z"/><path class="nutmegcls-3" d="M379.77,258.61c14.48-.71,29.47,1.15,43.83-.71,1.67-.22,2.48-2.89.45-3.27-14.37-2.71-29.8-.64-44.28-.07-2.6.1-2.6,4.18,0,4.05Z"/><path class="nutmegcls-3" d="M384.47,270.37c14.46,5.65,28.85,12.73,43.92,16.57,1.58.4,2.65-1.88,1.14-2.69-13.87-7.41-29.4-11.95-44-17.6-2.32-.89-3.31,2.83-1,3.72Z"/><path class="nutmegcls-3" d="M376.6,280.81c3.95,4.82,7.38,10.27,12,14.52a1.75,1.75,0,0,0,2.73-2.11c-3.23-5.54-7.93-10.21-11.87-15.24-1.57-2-4.47.84-2.83,2.83Z"/><path class="nutmegcls-3" d="M362,277.24c3.29,12.43,4.47,25.46,8,37.79a1.69,1.69,0,0,0,3.31-.45c-.09-13-4.25-26-7.67-38.34a1.87,1.87,0,0,0-3.61,1Z"/><path class="nutmegcls-3" d="M337.33,268.61c-7,5.07-12.48,12.15-18.95,17.86-1,.91.32,2.68,1.48,1.92,7.24-4.7,15.29-9.79,20-17.22,1-1.52-1-3.68-2.56-2.56Z"/><path class="nutmegcls-3" d="M244,234.28c-5.38,11.48-7.17,25.08-9.3,37.51-2.2,12.81-3.94,25.7-5.43,38.61-2.74,23.85-3.28,44.14,7.84,66.34,1.41,2.82,4.26,5.41,3,2.41-4.88-12-7.48-23.72-6.68-36.87.75-12.2,2.79-24.33,4.55-36.42,1.74-11.86,3.38-23.74,5.54-35.54,2.08-11.38,5.68-22.84,6.7-34.34.29-3.27-4.88-4.68-6.27-1.7Z"/></g></g></svg>