<svg xmlns="http://www.w3.org/2000/svg" viewBox="0 0 512 512"><defs><style>.oatmealcls-1{fill:#4a2d2d;}.oatmealcls-2{fill:none;}</style></defs><g id="Capa_2" data-name="Capa 2"><g id="bocetos"><path class="oatmealcls-1" d="M280.6,330.89a3.58,3.58,0,0,0,4.49,1.21,3.43,3.43,0,0,0,2.74-1.54C295.36,320,298,303,299.13,290.27a157,157,0,0,0-2.08-41.34c-4.28-24.75-12.17-52.2-38.08-61.29,3.89-40.74-19.13-95.26-63.81-99.33q3.5-4.38,7-8.77C212.07,67,222.2,55,235.62,45.92a52.52,52.52,0,0,1,46.69-5.51C313.67,51.85,334.16,82,336,114.52c-19.87,10-33.39,30.83-37.67,52.44-2.72,13.78-2.85,28.34-2,42.31.8,13.54,3,30.34,8.51,42.77a1.58,1.58,0,0,0,2.68,1.12c.11-.13.21-.28.33-.41a1.75,1.75,0,0,0,.73-.9c5.93-7.22,9.5-17.3,13-26a169.86,169.86,0,0,0,3.38,22.58c1.14,5.65,3,20.55,10.3,22.36,7.58,1.9,11.26-11.56,12.85-16.48a148,148,0,0,0,4.68-19.06,116.58,116.58,0,0,0,11,21.82,3.58,3.58,0,0,0,4.49,1.21,3.45,3.45,0,0,0,2.74-1.54c7.54-10.55,10.12-27.62,11.3-40.29a157,157,0,0,0-2.08-41.34c-4.29-24.81-12.2-52.33-38.26-61.36,3.51-33.38-25.26-69-54.27-80.25-25.61-9.92-55,1.79-74.3,19.84C192.47,72.87,174.55,95.4,158.48,119c-13.71,20.1-26.12,41.06-38,62.26C91.38,232.91,67.63,287.65,45.9,342.76c-6,15.18-11.66,30.5-17.24,45.83-5.46,15-11.68,30.06-15.56,45.56-1.11,4.45,5.63,7.75,7.73,3.25,11.42-24.46,19.4-50.83,29.32-75.94,10.93-27.65,22.15-55.17,34.29-82.31,8.21-18.35,16.77-36.62,25.78-54.66,14.86-.75,29.63-.12,40.49,12.11,10.35,11.66,15.79,26.06,18,41.19-20.46,9.8-34.39,31-38.74,53-2.73,13.78-2.85,28.34-2,42.3.8,13.54,3,30.34,8.52,42.78a1.57,1.57,0,0,0,2.67,1.12c.12-.13.22-.28.33-.41a1.83,1.83,0,0,0,.73-.9c5.93-7.22,9.5-17.3,13-26a171.41,171.41,0,0,0,3.39,22.59c1.14,5.65,3,20.54,10.3,22.36,7.58,1.89,11.25-11.56,12.84-16.48a148.23,148.23,0,0,0,4.69-19.07,115.64,115.64,0,0,0,10.95,21.82,3.59,3.59,0,0,0,4.5,1.22,3.46,3.46,0,0,0,2.74-1.54c7.53-10.55,10.11-27.62,11.3-40.3A157.79,157.79,0,0,0,211.84,339c-4.22-24.39-11.92-51.39-36.92-60.89.53-16.86-8.56-33.8-19.74-45.94-9.76-10.59-26.84-15.27-41.86-13.79a872.1,872.1,0,0,1,53.82-92.76C175,114,183.5,103,192.17,92.06c20.48,2.74,37.73,16.73,47.56,34.7,10.8,19.73,10.75,39.87,13.81,61.23-20.24,9.88-34,30.93-38.34,52.78-2.73,13.78-2.85,28.34-2,42.31.8,13.54,3,30.34,8.52,42.77a1.57,1.57,0,0,0,2.67,1.13c.12-.13.22-.28.34-.42a1.8,1.8,0,0,0,.73-.9c5.92-7.22,9.5-17.3,13-26a171.25,171.25,0,0,0,3.39,22.58c1.14,5.65,3,20.55,10.3,22.37,7.58,1.89,11.25-11.57,12.84-16.48a146.59,146.59,0,0,0,4.69-19.07A116,116,0,0,0,280.6,330.89Zm26.72-87.27c-.92-4.1-2-8.17-2.58-12.38-.9-6.71-1.25-13.52-1.75-20.27-.95-12.79-1.14-25.85.74-38.56,3.24-21.88,14.68-40.6,33.16-52.51-1.35,22.75-3,45.63-8.62,67.8a293.44,293.44,0,0,1-10.19,32.07C315.09,227.62,310.45,235.55,307.32,243.62Zm40.31-17a151.94,151.94,0,0,1-3.09,17.59c-.79,3.38-5.09,21.71-8.66,19.84-2.11-1.11-3.15-8.17-3.65-10.15a134.08,134.08,0,0,1-2.67-13.61c-1.44-9.6-1.65-19.23-2.46-28.85,2.8-7.78,5.32-15.65,7.49-23.63,1.42-5.24,2.72-10.51,3.85-15.81.83,6.11,1.79,12.18,2.75,18.17A257,257,0,0,0,347.94,221C347.86,222.85,347.83,224.76,347.63,226.58Zm24.67-44.12a164.45,164.45,0,0,1,.78,34,139,139,0,0,1-2.95,20.09c-.78,3.39-2,6.68-3.12,10-3-7.42-6.64-14.66-9.32-22.23a202.81,202.81,0,0,1-8.63-32.87C345,168,342.32,144.83,342.61,121,363.1,134.68,369.27,158.65,372.3,182.46ZM139,407.45c-.91-4.1-2-8.18-2.57-12.38-.9-6.71-1.26-13.52-1.76-20.28-.95-12.78-1.14-25.84.74-38.55,3.24-21.88,14.69-40.6,33.16-52.51-1.35,22.75-3,45.63-8.62,67.79a292.92,292.92,0,0,1-10.19,32.08C146.76,391.45,142.12,399.38,139,407.45ZM179.3,390.4a152.11,152.11,0,0,1-3.09,17.6c-.79,3.37-5.09,21.71-8.66,19.84-2.11-1.11-3.14-8.17-3.65-10.15a134.27,134.27,0,0,1-2.67-13.62c-1.44-9.59-1.65-19.22-2.45-28.85,2.79-7.77,5.31-15.64,7.48-23.62,1.42-5.24,2.72-10.51,3.86-15.81.82,6.11,1.78,12.18,2.74,18.17a257.24,257.24,0,0,0,6.75,30.81C179.53,386.68,179.51,388.59,179.3,390.4ZM204,346.29a164.35,164.35,0,0,1,.78,34,140.33,140.33,0,0,1-2.94,20.1c-.79,3.39-2,6.67-3.13,10-3-7.43-6.64-14.66-9.31-22.23a202.84,202.84,0,0,1-8.64-32.87c-4.06-23.48-6.73-46.61-6.45-70.41C194.77,298.51,201,322.47,204,346.29Zm85.22-90a164.46,164.46,0,0,1,.77,34A138.8,138.8,0,0,1,287,310.36c-.78,3.39-2,6.68-3.12,10-3-7.42-6.65-14.66-9.32-22.23A202.54,202.54,0,0,1,266,265.24c-4.07-23.48-6.74-46.6-6.46-70.41C280,208.49,286.16,232.46,289.19,256.27Zm-65,61.17c-.91-4.11-2-8.18-2.57-12.39-.9-6.71-1.25-13.52-1.75-20.27-1-12.78-1.14-25.85.74-38.56,3.23-21.88,14.68-40.59,33.15-52.51-1.34,22.75-3,45.64-8.61,67.8A292.81,292.81,0,0,1,235,293.58C232,301.43,227.34,309.36,224.2,317.44Zm40.32-17.05a152,152,0,0,1-3.1,17.59c-.78,3.38-5.09,21.72-8.65,19.84-2.11-1.1-3.15-8.17-3.66-10.15a136.89,136.89,0,0,1-2.67-13.61c-1.43-9.6-1.64-19.23-2.45-28.85,2.8-7.78,5.32-15.65,7.48-23.63,1.43-5.24,2.73-10.51,3.86-15.81.83,6.12,1.79,12.19,2.75,18.17a257,257,0,0,0,6.75,30.82C264.74,296.66,264.72,298.58,264.52,300.39Z"/><path class="oatmealcls-1" d="M403.25,356.92c3.31-11.28,4.41-22.59,1.94-34.15-2.2-10.3-5.43-22.83-13.33-30.35-9.8-9.33-23-.56-30.74,7-9.11,9-14.72,20.88-19.71,32.47-7.77,18.05-13.09,47.24,1.35,63.35,14.28,15.93,36.08,10.93,47.05-5.79C396.12,379.87,400,367.86,403.25,356.92Zm-33,40.68c-13.17,4.45-25.6-6.13-28.56-18.5-2.51-10.46-.68-24.55,1.95-34.82,3.27-12.71,8.28-26.25,17.11-36.37,4.42-5.07,10-9.25,16.58-10.93,8.57-2.19,12.19,2.56,15.23,10.08,4.08,10.08,7.51,21,7,32S395,361,391,371.29,381.54,393.8,370.26,397.6Z"/><path class="oatmealcls-1" d="M485.1,365.36c-17.61-5.09-34.14,11.26-47.7,20.05C425.67,393,413.22,400,402.31,408.72c-13.21,10.61-24.05,40.59-5.2,51.48,8.84,5.11,22.28,3.59,31.9,1.7,11.74-2.32,20.62-8.82,28.11-17.94,7.89-9.6,15-19.15,24-27.84,8.21-8,16.15-17,17.69-28.79C500.14,377.17,495.12,368.25,485.1,365.36Zm-73.89,44.37c9.42-6.81,19.39-12.94,29.14-19.26,8.28-5.36,33.64-24.69,45.18-17-13.76,13.84-26.24,28.49-41.17,41.24-15.15,12.94-31.55,23.42-48.08,34.36a15.86,15.86,0,0,1-2.09-7.78C393.71,426.88,400,417.85,411.21,409.73Zm62.36,3c-14.08,14.32-24.27,36.75-45,41.94-9.26,2.32-22.89,3.64-29.88-2.66,17-8.93,32.89-21,47.58-33.24,14.95-12.5,30.61-26.5,42-42.48a15.1,15.1,0,0,1,2,4.27C493.89,393,481.37,404.82,473.57,412.74Z"/><path class="oatmealcls-1" d="M334.4,404.39c-8.09-10.95-18.6-21.24-31.3-26.6-8.81-3.72-34.46-6.86-35.85,7.26-1.35,13.63-1.92,25.65,3.37,38.62a76.36,76.36,0,0,0,22.49,29.94c12,9.78,25.69,19.78,40.05,25.7,9.5,3.91,21,4.71,28.12-4.09,6.58-8.15,5.52-19.7,1.29-28.6C355.5,431.76,344.16,417.59,334.4,404.39ZM320,463.44c-9-5.83-18.21-11.61-26.24-18.71-17-15-23.7-34.76-21-56.54,10.17,16.7,21.65,33.12,34.85,47.51,12.53,13.66,27.16,28.73,42.93,38.74C340.47,477.55,327.39,468.27,320,463.44Zm34.83,8.7h0a2,2,0,0,0-.49-.73c-6.76-6.89-15-12.47-22.27-18.91s-14.31-13.2-20.9-20.35c-13.44-14.59-23.83-31.4-36-47,22.77-10.36,43.09,8.77,55.6,26.55,6.47,9.19,12.74,18.53,19,27.86C355.16,447.69,365.23,463.67,354.8,472.14Z"/><path class="oatmealcls-1" d="M160.3,302.12c-5.7,5-9.47,11.48-12.09,18.53a87.78,87.78,0,0,0-3.54,12.64c-.45,2.13-.85,4.27-1.23,6.42a18.71,18.71,0,0,0-.54,6,.49.49,0,0,0,.89.11,18.69,18.69,0,0,0,1.4-5.63c.38-2.15.78-4.29,1.23-6.41a90.11,90.11,0,0,1,3.19-11.66,49.87,49.87,0,0,1,11.7-19C162,302.49,161,301.52,160.3,302.12Z"/><path class="oatmealcls-1" d="M142.48,357.89a.9.9,0,0,0-.88.88l-.24,2.54a8.42,8.42,0,0,0-.08,1.22l0,.66a1.24,1.24,0,0,0,.11.46,2,2,0,0,0,.23.28.54.54,0,0,0,.72,0,1.09,1.09,0,0,0,.4-.63c.06-.21.12-.42.17-.63a10.3,10.3,0,0,0,.16-1.36l.27-2.54A.88.88,0,0,0,142.48,357.89Z"/><path class="oatmealcls-1" d="M187.2,316.22c.31.71.61,1.42,1,2.12a9.39,9.39,0,0,0,1.11,2,.53.53,0,0,0,.9-.37,10,10,0,0,0-.66-2.19c-.26-.72-.56-1.44-.86-2.15l-1.77-4.3a.85.85,0,1,0-1.55.66C186,313.38,186.58,314.8,187.2,316.22Z"/><path class="oatmealcls-1" d="M190,323.67c1.36,6.22,2.41,12.53,3.2,18.85.37,3,.7,6.05,1,9.08s0,6.12.95,8.88a.42.42,0,0,0,.81,0c.83-2.89.24-6.26,0-9.23s-.56-6-1-9a137.74,137.74,0,0,0-4.21-18.81A.38.38,0,0,0,190,323.67Z"/><path class="oatmealcls-1" d="M195.36,366l0,2.49a5.86,5.86,0,0,0,.14,1.39,4.59,4.59,0,0,0,.46,1.2.56.56,0,0,0,.95,0,4.66,4.66,0,0,0,.45-1.16,5.65,5.65,0,0,0,.15-1.43c0-.83,0-1.66,0-2.49a1.07,1.07,0,0,0-1.05-1.06A1.09,1.09,0,0,0,195.36,366Z"/><path class="oatmealcls-1" d="M243.56,215.41c-2.17,3.46-4.2,7.17-6.15,10.78a99.46,99.46,0,0,0-5.3,11c-2.89,7.48-5.71,15.85-5.6,24a.82.82,0,0,0,1.61.22c2-7.79,2.94-15.7,5.61-23.33a107.13,107.13,0,0,1,4.49-11.38c.91-1.87,1.87-3.7,2.88-5.51a56.35,56.35,0,0,1,3.63-5.07C245.23,215.4,244,214.67,243.56,215.41Z"/><path class="oatmealcls-1" d="M226.42,272.56a1,1,0,0,0-1,1v1.51a5.57,5.57,0,0,0,.14,1.68.91.91,0,0,0,.85.64.9.9,0,0,0,.85-.64,5.57,5.57,0,0,0,.14-1.68v-1.51A1,1,0,0,0,226.42,272.56Z"/><path class="oatmealcls-1" d="M265.55,217.64a41.76,41.76,0,0,1,4.85,7.79c.63,1.31,1.23,2.65,1.76,4,.29.73.5,1.5.82,2.21a3.7,3.7,0,0,0,1.27,1.84.82.82,0,0,0,1.1-.29c.71-1.32-.27-3.3-.77-4.56a35.87,35.87,0,0,0-2.12-4.42,44.86,44.86,0,0,0-5.71-7.78C266,215.62,264.9,216.81,265.55,217.64Z"/><path class="oatmealcls-1" d="M275.48,243.41c1.3,5.76,2.5,11.58,3.47,17.41.49,2.94.9,5.9,1.23,8.86.17,1.53.31,3.05.44,4.58a8.48,8.48,0,0,0,.72,3.57.58.58,0,0,0,1-.14,9.05,9.05,0,0,0,.08-4.08c-.14-1.53-.3-3.06-.48-4.58-.33-2.8-.7-5.61-1.12-8.4A146.12,146.12,0,0,0,277.1,243,.84.84,0,0,0,275.48,243.41Z"/><path class="oatmealcls-1" d="M325.66,146a41.25,41.25,0,0,0-7.16,8.59,38.78,38.78,0,0,0-2.62,4.93,11.92,11.92,0,0,0-1.39,5.3.47.47,0,0,0,.87.23,23.55,23.55,0,0,0,2-4.73,40.08,40.08,0,0,1,2.37-5,38.19,38.19,0,0,1,6.65-8.57C326.89,146.22,326.16,145.49,325.66,146Z"/><path class="oatmealcls-1" d="M312.45,172.93c-.38,2.6-.81,5.19-1.1,7.8-.14,1.28-.33,2.58-.42,3.87a13.83,13.83,0,0,0-.06,1.93,17.09,17.09,0,0,0,.35,1.87.28.28,0,0,0,.5.06,17.29,17.29,0,0,0,.74-1.71,15,15,0,0,0,.34-1.75c.22-1.31.31-2.65.46-4,.29-2.62.44-5.26.64-7.89C314,172.31,312.57,172.1,312.45,172.93Z"/><path class="oatmealcls-1" d="M359.82,173.89c2,7.25,2.72,14.76,4,22.14a.34.34,0,0,0,.65,0c1.22-7.68-.14-15.39-2.23-22.82a84.78,84.78,0,0,0-9.76-21.55.89.89,0,0,0-1.53.9A87.89,87.89,0,0,1,359.82,173.89Z"/><rect class="oatmealcls-2" width="512" height="512"/></g></g></svg>