<svg xmlns="http://www.w3.org/2000/svg" viewBox="0 0 512 512"><defs><style>.oatmeal-graincls-1{fill:#4a2d2d;}.oatmeal-graincls-2{fill:none;}</style></defs><g id="Capa_2" data-name="Capa 2"><g id="bocetos"><path class="oatmeal-graincls-1" d="M150.23,256.57c11-9.82,17.25-25.61,22-39.24,5.55-15.94,9.12-31.43,7.5-47.38a75.38,75.38,0,0,0-3.63-16.63c-3.43-10.07-10.07-18-21.11-19.41-10.73-1.4-19.56,5.67-26,13.38-8.63,10.3-16.92,21.09-25.08,31.77-13.95,18.23-26.84,45.06-12.73,67C103.13,264.72,133,272,150.23,256.57ZM93.1,218c3-25.37,24.61-42.13,38.22-62,3.63-5.29,7.18-11.46,12.92-14.75,5.25-3,11.16-2.22,16.12.52-8.54,29.75-20.72,56.92-33.92,84.78a2.28,2.28,0,0,0,3.93,2.3c17.32-24.39,28.39-55.09,33.91-84.34.53.47,1.06.94,1.54,1.44,7.94,8.17,8.33,20.19,7.11,30.85a201.69,201.69,0,0,1-6.24,32.39c-4,13.83-9.91,27.13-18.72,37.49-9.76,11.48-25.62,11.84-38.31,5.1S91.45,232,93.1,218Z"/><path class="oatmeal-graincls-1" d="M219.51,170.29c18.67,13.68,49.81,25,70.14,8.21,20.8-17.23,1.79-47.47-10.39-64C268.58,100,255.19,86.2,238.69,78.17c-15.86-7.72-39.4-11.35-53.91,1.19-.31.26-.6.53-.89.8-8.2,7.77-9.17,19.76-6.59,30.19C183.06,133.73,200.29,156.22,219.51,170.29ZM189,83.61a41,41,0,0,1,8.31-4.19c9.34,3.86,16.31,12.8,22.9,20.12s12.94,14.79,19.07,22.47c12.78,16,23.85,33.18,36.23,49.47,2.09,2.76,6.39.46,4.74-2.78-9.93-19.49-24.09-37.42-38.19-54.08-7-8.31-14.35-16.42-22-24.22-5.08-5.21-9.93-9.82-16.08-12.81,27.63-4.8,56.09,21.74,71.29,42.41,7.06,9.6,14.51,21.31,17.05,33.1,4.69,21.81-20.35,27.2-36.27,23.6C233,171.47,213.77,156.39,200,137.41c-7-9.54-15.3-21.14-18-32.78C180.1,96.44,181.69,88.4,189,83.61Z"/><path class="oatmeal-graincls-1" d="M337,224.26c18.25,16,44.88,2.12,60.85-10.42,17.31-13.61,33.13-36.47,28.18-59.6-2.32-10.9-10-20.28-19.73-25.46-13.76-7.28-34.92-6-47.6,3.05a59.68,59.68,0,0,0-19.82,25.11,144.65,144.65,0,0,0-10.28,38.84C327.33,206.22,328.69,217,337,224.26Zm81.27-53.68c-4.38,21.92-23.75,42.59-44.25,50.75a39.42,39.42,0,0,1-21.38,2.22c6.27-16.67,9.5-34.54,16.79-50.84,7.09-15.86,19.6-26.94,32.46-38C415.26,141.32,421.19,156,418.28,170.58Zm-78.45,5.8c2.15-11.75,6.57-23.67,14.77-32.58,10-10.88,26.6-15.42,40.88-11.54-12.31,10.67-24,22.68-31,37.55-7.51,16-13,34.75-17.15,52.06a17.93,17.93,0,0,1-8.82-8.37C333.23,203,337.84,187.24,339.83,176.38Z"/><path class="oatmeal-graincls-1" d="M404.93,268.09c-19.46-17.54-47.47-8-59.61,13.55-5.73,10.16-6.16,19.89-6.16,31.16,1.77,13.43,8.62,25.4,18,35,8.69,8.95,21.45,18.82,34.39,19.64,12.14.77,19.39-7.69,22.69-18.41,4.26-13.83,7.4-30.33,6.5-44.78C419.87,291,415,277.21,404.93,268.09Zm-56.22,46.78c-2.82-10.81-2.13-22.82,3.24-32.76a31.48,31.48,0,0,1,7.28-9,1.22,1.22,0,0,0,.12.19c9.61,12.77,18,26.22,23.62,41.25a111.18,111.18,0,0,1,5.73,21.34c1.23,7.7.9,15.52,2.2,23.17-.78-.15-1.58-.35-2.41-.59C369.91,352.9,353.5,333.2,348.71,314.87ZM396,359.27h0c2.94-15.1-2.21-33.66-7.24-47.84a108.29,108.29,0,0,0-25.54-41.13s-.05,0-.07-.06c11.48-7.08,27-6.62,37.32,4.17,7.62,7.95,11,19.13,12.06,29.86C414,318.3,415.05,357.06,396,359.27Z"/><path class="oatmeal-graincls-1" d="M296.07,240c-13.13-12.31-28.29-26.39-46.89-29.42-8.89-1.45-18.22,0-26.74,2.76a37.94,37.94,0,0,0-20.67,16,26.91,26.91,0,0,0-4,13.21c-.48,21.44,23.94,36.21,41.16,42.95a110.94,110.94,0,0,0,33.81,7.26c9.51.56,22.2.91,29.93-5.75C318.09,273.78,308.1,251.27,296.07,240Zm7.29,31.88c-3.33,13.27-16.61,12.45-27.72,11.77-20.37-1.23-40.24-6.75-56.75-19.12-9.26-6.94-20.24-17.07-15.47-29.79a1.08,1.08,0,0,1,.08-.19,1.92,1.92,0,0,0,1.32,1.17,254.42,254.42,0,0,1,46.59,18.64c14.1,7.28,27.22,16.91,41.47,23.68,3,1.41,6.32-2.23,3.69-4.77-11.7-11.24-28.43-19.1-43.19-25.43a350.77,350.77,0,0,0-47.47-16.1,2,2,0,0,0-1.12,0c10.16-19,41.64-16.93,58.28-9.13,10.5,4.93,19.61,12.5,27.66,20.76C297.89,250.74,306.13,260.82,303.36,271.87Z"/><path class="oatmeal-graincls-1" d="M211.54,294.2c-7.39-7.54-18.49-10.18-28.75-9.4-12.2.92-23.57,5.65-34.6,10.62-19.38,8.73-42.55,22-43.89,45.93-.51,9.08,3.45,19,10.56,24.81,8.8,7.17,21,5.55,31.47,4.22,23.35-2.95,48.5-10.48,63.94-29.4a41.38,41.38,0,0,0,8.68-31.9A27.2,27.2,0,0,0,211.54,294.2Zm-96.09,33.4c6-10.25,16.16-16.58,26.32-22.09,12.7-6.89,26.15-13.61,40.82-14.7C193.42,290,204.11,295.37,209,304c-15.49,8.73-29.67,19.05-45.9,26.56-16.58,7.67-33.79,13-51.55,17.14C110.26,341.07,112,333.53,115.45,327.6Zm95-5.28c-3.58,10.45-12.09,19.4-21.38,25.09-9.73,6-20.63,9.64-31.76,12-10.3,2.15-26.7,6.53-36.54,1.1a17.83,17.83,0,0,1-7.39-7.56,255.23,255.23,0,0,0,51.17-16.78c16-7.12,33.3-15.67,46.37-27.6A22.3,22.3,0,0,1,210.47,322.32Z"/><path class="oatmeal-graincls-1" d="M312.74,343.92c-13.13-10.36-30.26-23.75-48.36-20.5-16.08,2.89-26.47,19-28.74,34.21C232,382,249.41,406.11,267.08,421c16,13.49,44.35,27.54,64.63,14.95,21.42-13.28,17.12-42.17,6.84-61A102.7,102.7,0,0,0,312.74,343.92Zm26.62,69.24a25.68,25.68,0,0,1-5,10.29c-9.19-13.59-24.62-23.88-36.43-34.91-13.31-12.43-25.7-25.94-33.34-42.68-1-2.13-4.47-.62-3.77,1.59,5.18,16.42,15.27,30.15,27.48,42.12,6.73,6.61,13.89,12.75,20.92,19,6.86,6.13,13.25,13.22,20.35,19.06-6.52,4.22-15.22,4.9-24.2,3C281.86,425.89,261.69,407.36,250,387c-6.29-10.93-10-24.77-6.4-37.23,2.45-8.39,9.59-16.24,17.48-19.86,9.17-4.21,19.64,1.38,27.69,5.75,16.54,9,30.3,22.56,40.26,38.46C336,385.26,342.74,399.77,339.36,413.16Z"/><rect class="oatmeal-graincls-2" width="512" height="512"/></g></g></svg>