<svg xmlns="http://www.w3.org/2000/svg" viewBox="0 0 512 512"><defs><style>.olivescls-1{fill:#72ab4c;}.olivescls-2{fill:#4a2d2d;}.olivescls-3{fill:#9e991c;}.olivescls-4{fill:#fff;}.olivescls-5{fill:none;}</style></defs><g id="Capa_2" data-name="Capa 2"><g id="bocetos"><path class="olivescls-1" d="M275.31,208.4s16.29,4.44,54.42-11.47,75.52-37.4,106.25-23.7,25.54,44.43-29.25,59.6-112.17-2.59-122.16-7.77-13.33-7.4-13.33-7.4Z"/><path class="olivescls-1" d="M272.72,205.44s-26.65-63.3-73.67-91.81-62.19-23.32-70.71-11.48,12.22,43.32,55.9,60.72,60,25.54,71.45,34.43,14.07,17,14.07,17Z"/><path class="olivescls-2" d="M266.2,230.46c7.63,9.77,11.49,21,14.36,32.91,3.21,13.38,3.59,27.78,7.48,40.87,1.29,4.35,7.63,3.43,7.81-1.05.57-14.86-4.63-31.42-8.42-45.69-3.11-11.68-7.4-23.41-16.48-31.79-3.26-3-7.35,1.42-4.75,4.75Z"/><path class="olivescls-3" d="M216.45,255.79s11.48-33.32-30-51.09S94.66,204,84.66,235.43s14.44,52.19,64.05,58.12S212.38,270.59,216.45,255.79Z"/><path class="olivescls-3" d="M226.45,317.24s-21.84-30-75.89-10.37-70,77-38.13,94.78,58.49,17.39,90.7-6.3S235.7,333.53,226.45,317.24Z"/><path class="olivescls-3" d="M263.84,311c-11.48,21.47-10.37,86.25,21.1,104.39s59.6,7.78,68.12-31.09-2.47-66.33-17.77-80.71C304.56,274.67,275.31,289.47,263.84,311Z"/><path class="olivescls-2" d="M196.49,236.22c-7.47,5.9-10.05,18.85-3.45,26.41,1.65,1.9,5.22.41,5.06-2.1-.21-3.45-.94-6.85-.6-10.32A30.79,30.79,0,0,1,201,239.65c1.54-3-2-5.39-4.46-3.43Z"/><path class="olivescls-2" d="M208.13,336c32-26.08,51.88-62.7,63.68-101.74,6.28-20.78,9.88-42.28,12-63.86q1.89-18.9,2.21-37.92c.19-11.55.83-24.28-1.4-35.64-1.08-5.5-8.71-3.65-9.15,1.24-1,11.24.28,23.06.08,34.4-.2,11.61-.85,23.21-2,34.77a368.55,368.55,0,0,1-12,62.8c-10.74,38.12-29.75,73.37-58.2,101.16-3.19,3.11,1.48,7.5,4.79,4.79Z"/><path class="olivescls-2" d="M194,325c0,9.33,7.16,19.24,17.32,18.16a3.12,3.12,0,0,0,.82-6.09c-5.5-2.07-10.2-5.75-10.38-12.07-.15-5-7.75-5-7.76,0Z"/><path class="olivescls-2" d="M193.11,250.55c10.21,6.83,24.3,8.7,36.35,8.2,10.85-.46,26-2.51,33.89-10.7,2.34-2.44-.05-6-3.14-5.4-5.18,1-9.8,3.82-14.86,5.35a69.82,69.82,0,0,1-17.22,2.9c-11.69.47-21.6-3-32.61-6.07-3.52-1-5.28,3.79-2.41,5.72Z"/><path class="olivescls-4" d="M166.73,220.14c-16.37-8.73-50-14.55-60.35,6.55-2,4.09,2,7.87,6,6,7.51-3.47,14.35-7.19,22.81-7.72,9.91-.61,19.79,1.82,29.69,1.89,3.51,0,5-5,1.83-6.74Z"/><path class="olivescls-4" d="M154.44,318.48c-14.91,3.67-37.61,16.94-37.73,34.62,0,4.21,4.79,5.52,7.68,3.18,5.44-4.41,8.62-11.12,13.79-15.93a52.94,52.94,0,0,1,19.19-11.25c6.69-2.24,4-12.33-2.93-10.62Z"/><path class="olivescls-4" d="M107.53,370.68c-.32,1.66-.63,3.3-.85,5-.32,2.51.69,5.53,3.47,6.16,3.06.7,5.38-1.41,6.22-4.2.41-1.39.66-2.82,1-4.24.54-2.59-.76-5.62-3.55-6.25-2.51-.57-5.72.75-6.25,3.55Z"/><path class="olivescls-4" d="M286.56,303.14a39,39,0,0,0-16.32,23.57c-2.32,9.65-4.29,23.63,2.2,31.87,1.72,2.18,5.29,1.22,6.55-.85,4.32-7.09,1.67-16.53,2.78-24.49C283,324.71,286.18,317,293,311.48c4.67-3.75-1.46-11.72-6.44-8.34Z"/><path class="olivescls-4" d="M279.39,384l.22,1.05.29.68a2.13,2.13,0,0,0,.73.79,2.7,2.7,0,0,0,1.72.61,3.42,3.42,0,0,0,1.43-.38,2.19,2.19,0,0,0,.8-.74,2,2,0,0,0,.5-1l.22-1.05a3.05,3.05,0,0,0-.79-3,3.05,3.05,0,0,0-4.33,0,3.08,3.08,0,0,0-.79,1.35,3.22,3.22,0,0,0,0,1.63Z"/><rect class="olivescls-5" width="512" height="512"/></g></g></svg>