<svg xmlns="http://www.w3.org/2000/svg" viewBox="0 0 512 512"><defs><style>.onioncls-1{fill:none;}.onioncls-2{fill:#be7b67;}.onioncls-3{fill:#4a2d2d;}.onioncls-4{fill:#fbf7f6;}</style></defs><g id="Capa_2" data-name="Capa 2"><g id="bocetos"><rect class="onioncls-1" width="512" height="512"/><path class="onioncls-2" d="M183.65,95.12s3.45-5.18,5.17-20.7.86-26.73,3-25.87,13.8,22,14.66,25,15.95-17.25,20.7-18.11-3.45,25,5.6,39.67,79.44,45.51,101.33,74.7C359.36,203.45,358,265.14,329,307.26c-34.61,50.13-92.28,49.59-93.14,55.62s21.13,30.4,16.82,31.7-15.2-1.94-26.52-12a89,89,0,0,1-12.94-13.9s-3.88,36.11-9.05,39.13-11-36.87-11-36.87-8.62,17.89-20.69,26.52-18.11,8.19-16.82,5.17,18.43-38.16,18.43-38.16-89.68-16.6-115.12-86,10.45-117,44.09-140.67S183.65,95.12,183.65,95.12Z"/><path class="onioncls-3" d="M169.22,129.28c-33.16,15.28-58.59,52-64,87.58a103.6,103.6,0,0,0,6.7,55c7,17.29,18,36.57,32,49.18,2.24,2,5.95-.55,4.29-3.31-9-15.09-20.78-27.79-28.12-44.05-8.29-18.35-11.26-38.39-7.72-58.29a113.58,113.58,0,0,1,23.23-50.68c10.39-13,23.09-22.14,35.94-32.45,1.8-1.45-.49-3.82-2.3-3Z"/><path class="onioncls-3" d="M229.77,131.86c33.17,15.29,58.59,52,64,87.58a103.67,103.67,0,0,1-6.69,55c-7,17.3-18,36.58-32,49.19-2.24,2-6-.55-4.29-3.32,9-15.08,20.78-27.78,28.12-44,8.29-18.35,11.26-38.4,7.73-58.29a113.7,113.7,0,0,0-23.24-50.68c-10.39-13-23.09-22.15-35.94-32.46-1.8-1.44.5-3.81,2.3-3Z"/><path class="onioncls-3" d="M199.83,130c-3.68,35.15-4.43,70.92-5.25,106.23-.41,17.38-.54,34.77-.26,52.16.27,16.65-.42,34.32,2.64,50.73.45,2.45,4.06,1.72,4.17-.57.9-17.81-1.44-36.15-1.7-54-.23-16.74-.09-33.48.29-50.22.81-34.76,3.89-69.54,4.06-104.3,0-2.59-3.69-2.48-3.95,0Z"/><path class="onioncls-4" d="M423.39,266.73s-38.81-35.79-82.79-34.06-77.61,19-88.39,32.77-15.1,39.67-3.88,61.22,62.95,50,93.56,58.65,72.87,0,89.26-16.39,21.56-36.22,20.26-53.47S423.39,266.73,423.39,266.73Z"/><path class="onioncls-2" d="M257.81,257.14s-28.78,22.63-32,65.64,23.6,73.74,36.22,84.41S286,424,286,426.59,275.6,444.38,277.54,447s22-11.65,23-10,8.73,18.76,12.29,19.4,2.58-22,5.17-22.31,44,22,85.7-14.23,47.54-63.71,49.8-76-.32-24.57-.32-24.57-3.88,44-39.46,59.18-102.83,4.52-132.91-21.35-47.86-46.24-39.45-69.85S257.81,257.14,257.81,257.14Z"/><path class="onioncls-3" d="M450.22,297.4c-8.59-20.81-25.32-36.34-44.3-47.79-18.59-11.22-42.49-21.06-64.8-20.05-33.82-1.8-71.07,8.74-91.61,35.3-11.43,14.79-15.95,33.68-10.14,51.72,6.29,19.55,21.85,33.39,38.65,44.15,36.08,23.1,87.19,41.76,129.59,26.67C445.74,373.82,466.14,336,450.22,297.4Zm-5.65,39.26c-3.72,16.53-16.27,29.3-30.93,37C378,392.48,337,377.73,302.79,362.76c-17.8-7.78-35.48-15.9-47.44-31.94C243.21,314.53,241.07,294.89,251,277c23.27-42.12,79.54-44.66,120.63-32.08a117.5,117.5,0,0,1,18.56,7.31c15.83,8,31.12,19,41.67,33.4S448.59,318.84,444.57,336.66Z"/><path class="onioncls-3" d="M356.81,316.27c4.72-1.33,4.36-7.27,2-10.52-1.62-2.22-4.26-3.84-6.55-5.28a9.5,9.5,0,0,0-6.9-1.57c-6.08,1.2-6.18,9-2.54,12.69C346,314.9,352.18,317.57,356.81,316.27Zm-8.62-14a14.71,14.71,0,0,1,8.5,4.92c1,1.3,1.41,3.73-.15,4.86-1.19.85-3,.17-4.28-.17-2.47-.66-5.61-1.94-7.26-4C342.75,305.15,344.63,301.73,348.19,302.3Z"/><path class="onioncls-3" d="M300.71,286.9c-21.81,21.28,14.72,45.84,31.63,52.66,18.4,7.41,59.41,17.26,65.53-11.89,4.38-20.82-18.38-35.21-37.27-42.26C341.75,277.06,315.11,272.85,300.71,286.9Zm49.37-.66c14.77,6.15,38.33,14.78,44,31,5.31,15.23-11.52,24.92-24.18,25.57-11.13.57-22.72-2.81-33.07-6.67-9.82-3.67-20.71-8.39-28.24-16-4.73-4.75-9.58-12.16-9.5-19.08.1-8.7,7.6-13.81,15-16.23C324.86,281.33,338,282.63,350.08,286.24Z"/><path class="onioncls-3" d="M270.28,317.08c-18.93-39.45,29.14-61.33,61.25-60.31,1.74.06,2.2-2.82.42-3.09-34-5.25-88,25.6-64.33,64.95A1.54,1.54,0,0,0,270.28,317.08Z"/><path class="onioncls-3" d="M344.16,253c-2.45-.14-3,3.77-.58,4.29,23.49,5.13,44.13,12.15,62.45,28.48,9.1,8.12,19.72,18.31,23.39,30.23,4.32,14-3.21,28-14.6,36.06-20.67,14.66-51.34,12.45-74.73,6.72-25.33-6.2-47.94-18.72-67.25-36.14-1.4-1.25-3.4.72-2.07,2.07A145.23,145.23,0,0,0,348,365.44c24.93,4.55,59.21,5.32,76.9-16.31,7-8.61,11.66-19.79,9.79-31.06-2-12-12-22.36-20.34-30.68C395.93,269,370.6,254.57,344.16,253Z"/><path class="onioncls-3" d="M307.11,422.3A123.86,123.86,0,0,0,320.92,407c3.41-4.51,7.59-9.62,8.9-15.2a1.65,1.65,0,0,0-2.8-1.46c-4,4.26-6.45,10.17-9.81,15a124.53,124.53,0,0,1-12.4,14.92c-1.41,1.46.86,3.46,2.3,2.09Z"/><path class="onioncls-3" d="M330.62,434.07c21-3.92,43.57-15.57,55.27-34.16a1.54,1.54,0,0,0-2.41-1.86c-15.77,15.91-31.32,27.84-53.79,32.65-2.21.47-1.26,3.77.93,3.37Z"/><path class="onioncls-3" d="M258.66,256.15c-21.79,17.24-33.39,43.19-34.48,70.73-.63,16,3,47.43,29.66,72.76.26.24.49.5.74.76-14.8-25.16-28.91-64.82-21.1-93.56a96.94,96.94,0,0,1,19.05-36,126.69,126.69,0,0,1,10-10.81C265.2,257.53,261.38,254,258.66,256.15Z"/><path class="onioncls-3" d="M253.57,354.41c-.11,20.73,11.08,43.9,24.91,59,1.39,1.52,5.54,2.41,4.5.66-5.22-8.73-13.06-19.52-17.34-28.84-4.62-10.06-7-20.41-8.49-31.32-.28-2.08-3.56-1.51-3.58.48Z"/></g></g></svg>