<svg xmlns="http://www.w3.org/2000/svg" viewBox="0 0 512 512"><defs><style>.orangecls-1{fill:#fe9736;}.orangecls-2{fill:#4a2d2d;}.orangecls-3{fill:#fff;}.orangecls-4{fill:none;}</style></defs><g id="Capa_2" data-name="Capa 2"><g id="bocetos"><path class="orangecls-1" d="M352.73,163.32c-30.36-57.41-92.17-90.74-201.87-61.55a6.44,6.44,0,0,0,1.12,2.81c1.31,1.62,4.23,2.69,6.36,3.6a31,31,0,0,1,8,4.4c1.2,1,1.06,2.74.52,4-5,11.52-21.31,11.87-31.81,10-2.21-.4-2.62-3-1.89-4.63a75.47,75.47,0,0,0,4-11.38,42.21,42.21,0,0,0,.95-5c-14.57,5.43-73.4,30.95-90.09,94.53-19.9,75.77,15,189.81,153.84,190.57C340.48,391.4,387.93,229.91,352.73,163.32Z"/><path class="orangecls-2" d="M170.88,112.37c-1.44-4-5.08-5.82-8.91-7-4.35-1.35-6.45-.65-7.49-5.06-.94-4,.32-9.12-.06-13.25A39.68,39.68,0,0,0,151,73.57c-4.15-8.81-12.69-13.32-21.54-16.36-7.4-2.54-24.67-6.6-24.5,6.72.06,4.54,4.36,8.15,9.09,11,4.55,3.93,9.61,7.36,14,11.44,8.15,7.66,8.49,16.38,3.88,26.19-2.65,5.63-8.71,14.82.44,18.09,6.5,2.32,17.32,0,23.73-1.77C162.86,127,174.14,121.45,170.88,112.37ZM159.34,120c-3.18,1.68-7,2.39-10.56,2.94a65.36,65.36,0,0,1-11.27,1c-3-.06-3.65.87-3.23-1.89.46-3,3.31-6.44,4.45-9.31,8.53-21.37-7.5-36.86-25.08-46.18A7.52,7.52,0,0,1,110.39,64c-3-5.2,7.51-4.79,9.87-4.39A44.48,44.48,0,0,1,133,64a26.87,26.87,0,0,1,14.7,20.38c1,6.3-1.49,14.47,1.16,20.34,2.79,6.21,13.06,6.77,15,10C164.62,116,162.39,118.38,159.34,120Z"/><path class="orangecls-2" d="M90.54,166.91l-.25.15a7,7,0,0,0-2.51,2.51,7,7,0,0,0-1,3.53l.25,1.86A7,7,0,0,0,88.87,178a5.33,5.33,0,0,0,2.25,1.45,5.23,5.23,0,0,0,2.7.6,6.86,6.86,0,0,0,3.53-1,7,7,0,0,0,2.5-2.5l.15-.25.7-1.66a5.15,5.15,0,0,0,.12-2.75,3.45,3.45,0,0,0-.47-1.75A5.16,5.16,0,0,0,98.92,168l-1.4-1.08-1.65-.69a5.29,5.29,0,0,0-2.76-.13,5.17,5.17,0,0,0-2.57.82Z"/><path class="orangecls-2" d="M123.5,171.18a4.92,4.92,0,0,0,3.12-1.29,3.36,3.36,0,0,0,.92-1.43,3.4,3.4,0,0,0,.38-1.7l-.16-1.17a4.39,4.39,0,0,0-1.14-2l-.89-.69a4.4,4.4,0,0,0-2.23-.61,3.46,3.46,0,0,0-1.71.38,3.39,3.39,0,0,0-1.42.92,3.31,3.31,0,0,0-.91,1.42,3.22,3.22,0,0,0-.38,1.7l.16,1.18a4.37,4.37,0,0,0,1.13,1.95l.9.69a4.36,4.36,0,0,0,2.23.6Z"/><path class="orangecls-2" d="M106.88,203.6c.12.34.21.58.37,1a4.6,4.6,0,0,0,1.26,2,6.66,6.66,0,0,0,1.35,1l-2.56-3.33a9.27,9.27,0,0,0,.65,1.52l-.53-1.25a5.79,5.79,0,0,0,1.34,2.33,5.11,5.11,0,0,0,2.31,1.32,5.65,5.65,0,0,0,1.53.21,6,6,0,0,0,2.89-.8l-2.81.76h.12l1.61-.21a4.6,4.6,0,0,0,2.07-1.09,3,3,0,0,0,1.08-1.09,4.52,4.52,0,0,0,1.09-2.06l.06-.24a6.22,6.22,0,0,0,0-3.26,6.15,6.15,0,0,0-1.58-2.71,6.38,6.38,0,0,0-4.34-1.8,4.68,4.68,0,0,0-2.36.53,4.57,4.57,0,0,0-2,1.27,6.15,6.15,0,0,0-1.58,2.71,6.22,6.22,0,0,0,0,3.26Z"/><path class="orangecls-1" d="M464.85,299.17c.74-9.23,0-23.53-4.59-24.11-8.49-1.06-287.78-6.12-289.69-2.29S148,373.46,220.32,416.27c68.88,40.76,142.55,34.25,189.43,2.3C451.24,390.29,462,335.34,464.85,299.17Z"/><path class="orangecls-3" d="M388.7,405.56c-49.75,26-137.77,21.82-176-19.14-31.11-33.3-30.6-93.42-29.32-114.72,3.58-.1,7.85-.19,12.71-.26,25.6-.34,67.35-.1,110.16.4l15.7.17c37.39.48,74.21,1.13,100.47,1.74,9.21.22,17.12.43,23.3.62.21,4.68.48,9.95.81,15.62C447.63,309.89,438.45,379.54,388.7,405.56Z"/><path class="orangecls-1" d="M306.21,271.84c-12.26,8-47.13,30.31-66.77,40-24.11,11.86-34,8.42-42.08-7.67-4.84-9.66-3.31-23.33-1.31-32.7C221.65,271.1,263.4,271.34,306.21,271.84Z"/><path class="orangecls-1" d="M306.8,291.14c-12.24-8.42-87.63,35.2-91.46,47.07s13.78,35.59,27.56,47.07,21,13.77,35.2-1.15S319.05,299.55,306.8,291.14Z"/><path class="orangecls-1" d="M332.83,300.32s-8-5.74-13.4-.38S308,371.5,309.48,383.75s7.27,23.72,34.44,19.9,39.8-23,40.19-34.06S355,319.07,347.75,311.8A74.6,74.6,0,0,0,332.83,300.32Z"/><path class="orangecls-1" d="M394.44,342.8c-24.26-8.82-57.08-54-67.93-69.64,37.38.48,74.2,1.13,100.46,1.74a74,74,0,0,1,4.58,23.88C432.33,324.42,423.91,353.51,394.44,342.8Z"/><path class="orangecls-2" d="M167.66,271.6c-7.43,25.32-3.87,55.08,3,80.16,6.49,23.55,19.46,51.2,41.87,63.51,3.26,1.79,5.75-2.77,2.86-4.88-42.46-31-48.68-89.65-43.4-138.2.27-2.56-3.69-2.92-4.37-.59Z"/><path class="orangecls-3" d="M225.15,293.1c12.08-6.49,24.85-11.14,37.11-17.17,1.57-.77.44-3.11-1.16-2.74-13.2,3.05-26.07,10.19-37.54,17.2a1.57,1.57,0,0,0,1.59,2.71Z"/><path class="orangecls-3" d="M255.41,348A266.33,266.33,0,0,0,284,319.18a1.5,1.5,0,0,0-2.12-2.13C272,326.33,263,336.49,253,345.58c-1.66,1.51.79,3.92,2.46,2.46Z"/><path class="orangecls-3" d="M275.56,351c1.58-2.95,3.48-5.69,5.18-8.57a1.28,1.28,0,0,0-2-1.55,40.78,40.78,0,0,0-5.82,8.58c-.94,1.73,1.72,3.29,2.65,1.54Z"/><path class="orangecls-3" d="M334,369.77c-1.9-14.3-.83-29.38-4.36-43.43a1.44,1.44,0,0,0-2.82.39,388.86,388.86,0,0,0,3.84,43.5c.3,1.87,3.6,1.45,3.34-.46Z"/><path class="orangecls-3" d="M351.88,359.52c-1.2-1.78-2-3.75-3.22-5.53-.87-1.28-3.26-.93-3.14.85a14.1,14.1,0,0,0,2.67,6.84c1.5,2.3,5.24.12,3.69-2.16Z"/><path class="orangecls-3" d="M357.58,290.67c15.17,4.46,28.21,14.66,43.09,20,1.88.67,3.13-2.31,1.36-3.24-13.74-7.21-28.44-16.18-43.44-20.4-2.36-.66-3.36,3-1,3.67Z"/><path class="orangecls-2" d="M169.8,274c28.48,1.32,57.09.75,85.6,1.25,16.54.3,33.09.55,49.63.91s33.52,1.74,50.19,1.07c4.3-.18,4.22-6.29,0-6.62-16.63-1.3-33.51-.58-50.19-.88s-33.09-.68-49.63-.95c-28.46-.48-57.17-1.93-85.6-.34a2.78,2.78,0,0,0,0,5.56Z"/><rect class="orangecls-4" width="512" height="512"/></g></g></svg>