<svg xmlns="http://www.w3.org/2000/svg" viewBox="0 0 512 512"><defs><style>.oreganocls-1{fill:none;}.oreganocls-2{fill:#9bb533;}.oreganocls-3{fill:#4a2d2d;}.oreganocls-4{fill:#fff;}</style></defs><g id="Capa_2" data-name="Capa 2"><g id="bocetos"><rect class="oreganocls-1" width="512" height="512"/><path class="oreganocls-2" d="M460.46,421.87c-6.7-44.95-8.79-92.56-31.33-133.27-11.81-21.34-36-45.27-62.19-51a53.06,53.06,0,0,0-12.35-1.29c.76-.66,1.56-1.33,2.32-2,1.1-.93,2.2-1.88,3.27-2.81l0,0c13.1-11.47,25.44-24.8,34.86-39.35,21.33-33,20.91-76.24,7.45-112.15-.84-2.24-3.08-4-5.59-3.17-11.2,3.55-23.28,5.29-34.73,8.35-11.09,3-22.2,5.79-33.29,8.74-19.84,5.33-40.09,11.45-57.56,22.54a98.15,98.15,0,0,0-33.53,35.3s0,0,0,.06c-1.25,2.22-2.34,4.48-3.36,6.79-.78-1.59-1.58-3.13-2.43-4.65a87.1,87.1,0,0,0-12-16.86,78.85,78.85,0,0,0-27.77-19.33c-28.44-12-60-9.65-89.1-1.71a372.19,372.19,0,0,0-51,17.6c-12.78,5.57-10.5,14.95-6.59,26.72,9.7,29.15,30.29,57.79,54.29,76.91a107.13,107.13,0,0,0,48.61,21.91c1.81.31,3.67.61,5.55.88,2.47.38,5,.7,7.56,1-1.5,2-2.93,4-4.31,6l0,0a120,120,0,0,0-11.81,22.43C129.91,328.69,132.15,376,139,416.76c.46,2.79,4.12,4.65,6.69,3.8,26.73-8.85,52.52-19,77.08-32.93,14.66-8.3,32.43-17.68,46.24-29.77,1.57-1.35,3.07-2.74,4.53-4.18q2.06,4.47,4.54,8.75a107.81,107.81,0,0,0,25.56,29.93c41.17,33.4,98.69,40.09,150,38.34C458.68,430.53,461.13,426.41,460.46,421.87Z"/><path class="oreganocls-3" d="M319.15,219.86c-13.71-8.35-32.32-9.15-46.38-1.17a33.39,33.39,0,0,0-4.16,2.83c-3.07-14.83-14.51-27.52-27.43-34.93-20-11.49-41.36-10-63.23-6.73-2,.3-2.7,2.64-2.45,4.32,1.78,11.86,6.69,23.62,11.73,34.44,4.7,10.06,10,19.92,19,26.76,13.61,10.33,33.76,11.47,49.61,5.14a36.91,36.91,0,0,0,14.07,26.54c9.84,7.52,23.09,9.19,35,11.16,13.79,2.29,27.52,3.64,41.51,2.87,2.63-.15,5.79-2.38,5.4-5.4C348.46,260,343,234.38,319.15,219.86ZM206.93,233.5c-10.65-12.31-18.74-31.73-23.6-47.5,34-5.5,70.61,4.41,80.94,38.95-2.58,3.46-5.2,7.19-6.28,11.31-.08,0-2.94,7-3,7C237.8,246,219.81,248.37,206.93,233.5Zm82,44c-9.25-2.2-18.62-9.22-22.89-18.11-3.82-8-1.76-17.66.51-25.4,4.52-5.53,12-10.9,18.86-12.58,10.12-2.46,23.54,1.22,32.44,6.54,16.85,10.09,24.07,36.66,25.15,55.83C325.71,282.52,305.68,281.49,288.92,277.51Z"/><path class="oreganocls-3" d="M256.94,246.47A194.58,194.58,0,0,0,211,280c-13.12,12.78-24.39,27.73-31.84,44.52a90.13,90.13,0,0,0-5.1,14.06,53.28,53.28,0,0,0-1.41,15.51,1.39,1.39,0,0,0,2.72.37c1.4-4.19,3-8.27,4.44-12.46s2.72-8.08,4.31-12a124,124,0,0,1,12.37-23c10.06-14.92,23-27.41,36.88-38.74,8.15-6.66,16.71-12.82,25.05-19.23a1.46,1.46,0,0,0-1.47-2.53Z"/><path class="oreganocls-3" d="M330.78,291.61c12.93,8.72,25.62,17.95,37,28.7a199.25,199.25,0,0,1,29.78,35.82c2.42,3.73,4.66,7.57,6.95,11.38,2.11,3.5,4.5,7.64,7.63,10.33A1.15,1.15,0,0,0,414,377c-.13-7.53-5.16-15.27-9-21.45a184.86,184.86,0,0,0-49-52.78,130,130,0,0,0-23.81-13.68,1.44,1.44,0,0,0-1.45,2.48Z"/><path class="oreganocls-3" d="M355.38,116.54c-36.72,11.73-65.83,41.5-79.48,77.22-3.7,9.67-7.15,20.66-5.72,31.09.27,2,3,1.5,3.58,0,3.11-8.48,4.37-17.54,7.23-26.12a125.17,125.17,0,0,1,11.34-24.6,134.16,134.16,0,0,1,36.74-39.88,126.13,126.13,0,0,1,27.1-14.85c1.73-.69,1.07-3.46-.79-2.86Z"/><path class="oreganocls-3" d="M79,157.42c18.67,2.1,37.5,4.46,55.58,9.77a128.85,128.85,0,0,1,22.71,9,102.14,102.14,0,0,1,10.64,6.25c3.25,2.2,6.37,5,10.1,6.32,1.86.66,3.14-1.57,2.38-3.09-1.89-3.75-5.89-6.41-9.27-8.71a97,97,0,0,0-10.63-6.29,126.18,126.18,0,0,0-24-9c-18.77-5.11-38.24-6.14-57.55-7.41-2-.14-2,2.9,0,3.12Z"/><path class="oreganocls-3" d="M203.08,204.07c12.08,3.33,24.34,7.07,34.83,14.13a61.41,61.41,0,0,1,12.47,11,66.5,66.5,0,0,1,5,6.66c1.52,2.33,3.07,4.34,4.79,6.51a1.05,1.05,0,0,0,1.78-.73,18.32,18.32,0,0,0-2-8,41,41,0,0,0-4.83-7.5,59.46,59.46,0,0,0-13.78-12.27c-11.38-7.35-24.55-11.22-37.9-12.84-1.75-.22-2,2.56-.41,3Z"/><path class="oreganocls-3" d="M264.27,239.2a64,64,0,0,1,27.53,4.88,57.5,57.5,0,0,1,11.89,6.58c1.89,1.36,3.77,2.73,5.7,4,1.67,1.11,3.32,2.75,5.44,2.4a1.36,1.36,0,0,0,1-1c.53-2.16-1.36-4.12-2.64-5.69a28.81,28.81,0,0,0-5.79-5.29A62,62,0,0,0,293.88,238a56.3,56.3,0,0,0-30.12-2.59c-2.14.37-1.65,3.92.51,3.79Z"/><path class="oreganocls-3" d="M202.35,239.72c-24.84,8.92-42.34,23.34-40.84,21.38-2.55-.3-5.09-.62-7.56-1,1.37-1.22,2.79-2.4,4.23-3.57a114.83,114.83,0,0,1,20-13.26,87.22,87.22,0,0,1,11.18-4.71,61.45,61.45,0,0,1,11.91-2.6A2,2,0,0,1,202.35,239.72Z"/><path class="oreganocls-3" d="M276,313.24c-3.76,24.64-1,43.42-2.39,40.44-1.46,1.44-3,2.83-4.53,4.18a114.27,114.27,0,0,1-1.43-23.08,140.11,140.11,0,0,1,4.27-29.3q1.83-7.23,4.24-14.26c1.44-4.16,2.94-10,6.59-12.68.8-.59,2.64.06,2.33,1C282.07,287.89,276.67,308.65,276,313.24Z"/><path class="oreganocls-3" d="M366.94,237.61a128.81,128.81,0,0,0-15.46,2.93c-4.8,1.16-9.82,3.64-14.79,3.55a1.61,1.61,0,0,1-1.12-2.72c3.53-3.87,19.78-5.71,19-5.05A53.06,53.06,0,0,1,366.94,237.61Z"/><path class="oreganocls-3" d="M233.74,174.24c-.17,2.11-.26,4.24-.28,6.35s.23,4.12-.7,6a1.08,1.08,0,0,1-1.83,0c-1.21-1.69-1.19-4-1.31-6-.17-2.4-.26-4.83-.24-7.26a81,81,0,0,1,1.4-13.73c.34-1.88.74-3.76,1.2-5.62.85,1.52,1.65,3.06,2.43,4.65A152.7,152.7,0,0,1,233.74,174.24Z"/><path class="oreganocls-4" d="M112.27,134.34c1.92-.46,3.88-.92,5.83-1.24,2.29-.38,5.07-.43,7-1.85,2.57-1.91,2.88-5.5,0-7.35-4.65-3-12,0-16,2.81-3.8,2.64-1.56,8.79,3.22,7.63Z"/><path class="oreganocls-4" d="M318.05,113.43c0-.14.08-.29.11-.43l.17-1.25a3.52,3.52,0,0,0-.41-1.81,2.32,2.32,0,0,0-.6-1,3.58,3.58,0,0,0-1.32-1.21,17.14,17.14,0,0,0-1.59-.66l-1.38-.19-1.39.19a4,4,0,0,0-1.77.93,2.59,2.59,0,0,0-.93.93,2.63,2.63,0,0,0-.67,1.15,5.18,5.18,0,0,0-.36,2.7,4,4,0,0,0,.62,1.94l.82,1,1,.82,1.24.52,1.39.19,1.38-.19a3.88,3.88,0,0,0,1.77-.93,2.57,2.57,0,0,0,.94-.94,3.88,3.88,0,0,0,.93-1.77Z"/><path class="oreganocls-4" d="M221.05,198.68c1.8,0,4,.2,5.52-.93a3.51,3.51,0,0,0,0-6.07c-1.53-1.14-3.72-.91-5.52-.94a4,4,0,1,0,0,7.94Z"/><path class="oreganocls-4" d="M234.84,206.39a14.05,14.05,0,0,0,2.06,1.18,5.17,5.17,0,0,0,2.66.36,4.07,4.07,0,0,0,3-1.92,4.34,4.34,0,0,0,.38-3.14,5.85,5.85,0,0,0-1.35-2.24,10.4,10.4,0,0,0-2.44-1.6,4.41,4.41,0,0,0-3.28-.42,4.29,4.29,0,0,0-2.54,1.95,4.36,4.36,0,0,0,1.52,5.83Z"/><path class="oreganocls-4" d="M318.23,250.69l.84,1.1a9.5,9.5,0,0,0,1,1.25,16.28,16.28,0,0,0,1.34,1c1.46,1.1,3.66,1.76,5.34.67a4.61,4.61,0,0,0,1.57-5.7,11,11,0,0,0-.85-2c-.27-.42-.62-.8-.92-1.2a5.29,5.29,0,0,0-2.89-2.22,4.86,4.86,0,0,0-5.95,3.37,4.72,4.72,0,0,0,.49,3.73Z"/><path class="oreganocls-4" d="M168.21,275.19a44.44,44.44,0,0,0-8.22,8.72c-2.45,3.3-5,7.29-3.74,11.55a4.86,4.86,0,0,0,5.9,3.35c4-1.35,5.84-4.95,7.93-8.39,1.9-3.12,3.95-6.14,5.92-9.22a4.93,4.93,0,0,0-1.28-6.39c-2.14-1.6-4.5-1.18-6.51.38Z"/><path class="oreganocls-4" d="M152.6,320.54a7.62,7.62,0,0,0-2.2,2.71,7.22,7.22,0,0,0-.84,3,7.58,7.58,0,0,0,.17,1.71,5.34,5.34,0,0,0,4.45,3.88,5.55,5.55,0,0,0,6.13-6,7.72,7.72,0,0,0-.85-3.38c-.2-.36-.42-.71-.63-1.07a4,4,0,0,0-6.23-.8Z"/><path class="oreganocls-4" d="M418,325l.67.53a3,3,0,0,0,1.24.72,2.79,2.79,0,0,0,.72.29,4.26,4.26,0,0,0,2.21.1,4,4,0,0,0,2.06-.66l1.12-.87a5.55,5.55,0,0,0,1.43-2.44,3.68,3.68,0,0,0,.21-1.68,5.59,5.59,0,0,0-.77-2.85A5.63,5.63,0,0,0,422,315.3a6.31,6.31,0,0,0-4,1.66,5.65,5.65,0,0,0,0,8Z"/></g></g></svg>