<svg xmlns="http://www.w3.org/2000/svg" viewBox="0 0 512 512"><defs><style>.papayacls-1{fill:#c0c728;}.papayacls-2{fill:#4a2d2d;}.papayacls-3{fill:#fff;}.papayacls-4{fill:#fdcf3f;}.papayacls-5{fill:#f1854c;}.papayacls-6{fill:none;}</style></defs><g id="Capa_2" data-name="Capa 2"><g id="bocetos"><path class="papayacls-1" d="M318.68,261.06c-4.45-45.12-23.13-87.95-48.8-125-19.95-28.76-42.71-58-71.87-78.39C170,38.16,125.52,26,98.54,54.45c-17,17.92-19.08,44.1-18.35,67.5.48,15.54,2.41,31.8-.75,47.16-3,14.54-9.92,27.75-15.79,41.26-19.81,45.52-37.46,107.15-5.49,151.54,18.33,25.45,47.73,37.32,78,40.93,15.51,1.85,31.21,1.77,46.78.82,30.41-1.85,63-1.41,91-15,37.49-18.22,45.21-67.65,45.65-105A205.58,205.58,0,0,0,318.68,261.06Z"/><path class="papayacls-2" d="M112.19,73.12c9.63,9.62,26.29.25,23.42-13-1.11-5.14-8.89-3.84-9,1.21,0,2.5-.39,5.1-2.72,6.52s-5.3.93-7.44-.3c-3.46-2-7.14,2.68-4.28,5.55Z"/><path class="papayacls-3" d="M97.34,106.52c4,3.61,9.63,6.39,15.13,5.25a5.61,5.61,0,0,0,4.07-5.35c0-2.21-1.7-5-4.07-5.34-3.4-.48-6.5,0-9.62-1.69-4.38-2.36-9.48,3.55-5.51,7.13Z"/><path class="papayacls-3" d="M100.63,131.25a30.76,30.76,0,0,0,3.84.17,7.35,7.35,0,0,0,3.86-.86,5.27,5.27,0,0,0,2.49-3.73c.41-3.08-2-5.19-4.69-6.06a31.65,31.65,0,0,0-3.95-1c-3.43-.65-6.78,1.17-7.28,4.85A5.56,5.56,0,0,0,96.05,129a6,6,0,0,0,4.58,2.3Z"/><path class="papayacls-3" d="M61.48,308.72c.43,10.54,1.75,20.93,7.05,30.25,4.22,7.41,12,15.75,21.17,15.35,5-.21,6.62-5.54,3.78-9.12-4.45-5.61-10.36-8.88-14-15.47-3.8-6.93-5.65-14.78-7.05-22.5-1.13-6.2-11.23-4.76-11,1.49Z"/><path class="papayacls-4" d="M396.66,116.31S378,99.64,357,110.75s-42.46,62.3-61.9,88.89-79,73-88.49,127.38S209,431.78,255,447.65s57.54-4.76,80.95,2.78,49.61,30.16,84.92,14.68,62.3-56.34,55.95-139.68-34.12-136.11-48-165.08S396.66,116.31,396.66,116.31Z"/><path class="papayacls-5" d="M362.93,141.7c4.78,5.69,9.83,14,6.26,29.05-12,50.78-58.86,87.4-65,140-2.78,23.81-.4,59.92,18.65,71.43s29,9.12,46.43-5.95c20.05-17.32,30.88-50.89,33.53-76.43A146,146,0,0,0,396,238.58c-6.36-19-17.24-36-19.21-56.4-1.2-12.3,3.57-42.06,15.47-40.48s25.4,27.78,32.94,54.37,28.57,96.43,31.35,125,2.38,78.17-19.45,101.58-43.25,25.8-58.33,21.83S337.13,425,326,427s-29,11.9-59.92-.4S222.05,378.21,228,341.7s35.31-77.78,40.87-84.52,33.73-37.3,46-56.35,19.84-36.11,25.4-47.22S355.7,133.11,362.93,141.7Z"/><path class="papayacls-2" d="M385.62,248c3.38-2.92,5.09-7,3.71-11.39-1.95-6.21-7.53-10.87-14.3-10-8.14,1.05-12.6,10.42-9.27,17.64C369.43,252.25,379.26,253.55,385.62,248Z"/><path class="papayacls-2" d="M351,262.53c8.16-.28,13.21-7.52,11.6-15.26-2.64-12.61-21.84-9.38-23.06,2.4C338.81,256.51,343.87,262.77,351,262.53Z"/><path class="papayacls-2" d="M367.85,273.46c4.93,4.15,12.85,4.6,16.79-1.16,3.41-5,1.82-13.24-4-15.73-4.68-2-11.93-.63-14.86,3.78C363.14,264.37,364.22,270.39,367.85,273.46Z"/><path class="papayacls-2" d="M350.32,285.55c5.9,1,12.32-4.51,11.8-10.59a7,7,0,0,0-1.29-3.41,2.2,2.2,0,0,0-.33-.62c-3.78-4.81-12.2-4.65-15.63.45S343.94,284.49,350.32,285.55Z"/><path class="papayacls-2" d="M388.5,284.83c-4.36-3.47-12.59-5.4-16.8-.83-3.7,4-2.73,11.21.91,14.94,4.31,4.43,11.58,6.15,16.63,1.9C394.54,296.4,393.69,289,388.5,284.83Z"/><path class="papayacls-2" d="M351.47,314.13c3.25.82,6.52,1,9.16-1.35a12.35,12.35,0,0,0,3.95-10c-.79-10.57-17.27-18.37-21.88-5.85C340.12,303.92,344.3,312.33,351.47,314.13Z"/><path class="papayacls-2" d="M326.77,297.87c2.77,1.57,6.17,1.38,9.47-2.12,4-4.22,4.94-13,0-16.83s-12-2.78-14.61,3C319.13,287.36,322,295.18,326.77,297.87Z"/><path class="papayacls-2" d="M344.31,317.5c-3.64-.06-7.13,1.53-8.72,5.31-2.64,6.23.25,15.5,7.49,17,6.77,1.4,12.33-5.86,12.59-12S349.94,317.6,344.31,317.5Z"/><path class="papayacls-2" d="M321.28,322.33c6.65,2,15.4-9,9.27-15.59a8.06,8.06,0,0,0-12.81,1.41c-2,3.26-2.14,8.15,0,11.37A6.58,6.58,0,0,0,321.28,322.33Z"/><path class="papayacls-2" d="M374.11,306.45c-3.16.74-7.45,5.16-7.74,8.91-.8,5.2,3.12,10.23,8.4,11.25,5.77,1.12,13.68-2.53,13.41-9.21C387.93,311.27,380.21,305,374.11,306.45Z"/><path class="papayacls-2" d="M370.32,331.54a7.81,7.81,0,0,0-4.57.06,6.39,6.39,0,0,0-4.31,5.61c-.29,2.56,1.68,4.59,3.62,6,3.63,2.62,11.19,3.77,12.37-2.1C378.31,336.79,374.54,332.68,370.32,331.54Z"/><path class="papayacls-2" d="M363,349.94c-6.83.35-6.25,13,.22,13.84,3.86.49,6.21-3.06,6.22-6.57C369.4,353.53,367,349.74,363,349.94Z"/><path class="papayacls-2" d="M332,341c.23-4-1.58-8.49-6-9.23a8.22,8.22,0,0,0-8.84,5.48c-1.56,4.68-.32,11.32,5.26,12.4C327.75,350.65,331.73,345.87,332,341Z"/><path class="papayacls-2" d="M333.91,350.34a24.51,24.51,0,0,0-2.91,4,14.3,14.3,0,0,0-1.1,13.58c3,6.58,11.25,9.63,17.36,5.18,6.48-4.72,7.72-15.17,2.71-21.29a12.35,12.35,0,0,0-9.71-4.5A8.89,8.89,0,0,0,333.91,350.34Z"/><path class="papayacls-2" d="M311.92,168.59c-11.83,21.44-26.61,39.91-44.07,57.06-16.9,16.6-35.05,30.77-47.74,51.16a155.43,155.43,0,0,0-21.88,61.41c-2.76,20.67-2.54,44.79,5.74,64.29,1.49,3.5,6.32.81,5.75-2.43-2-11.44-4.87-22.4-5.44-34.09a150.46,150.46,0,0,1,27.82-94.81c25.57-35.42,67.88-58.32,84.47-100.63,1.06-2.7-3.28-4.44-4.65-2Z"/><path class="papayacls-3" d="M247.14,344.33l.2.14a5,5,0,0,0,5,0l.21-.14A4,4,0,0,0,254,343a2.65,2.65,0,0,0,.68-1.18,4.08,4.08,0,0,0,.47-2.06l-.2-1.42-.53-1.28a4.15,4.15,0,0,0-1.38-1.5,2.71,2.71,0,0,0-1.18-.69,4.15,4.15,0,0,0-2.06-.46l-1.42.2-1.27.53a4,4,0,0,0-1.5,1.38,2.62,2.62,0,0,0-.69,1.18,4,4,0,0,0-.46,2.06l.19,1.42.54,1.27a5.2,5.2,0,0,0,1.92,1.92Z"/><path class="papayacls-3" d="M249,366.94c7.46,0,7.47-11.59,0-11.59s-7.47,11.59,0,11.59Z"/><path class="papayacls-3" d="M412.53,218.63c6.56,0,6.57-10.2,0-10.2s-6.57,10.2,0,10.2Z"/><path class="papayacls-3" d="M422.85,247.36c5.75,0,5.76-8.94,0-8.94s-5.77,8.94,0,8.94Z"/><path class="papayacls-3" d="M409.05,411.45l.26.23a5.08,5.08,0,0,0,3.22,1.33l1.21-.16a4.64,4.64,0,0,0,2-1.17l.26-.23.77-1,.5-1.18a3.84,3.84,0,0,0,.09-2,2.6,2.6,0,0,0-.34-1.25,4.89,4.89,0,0,0-2.6-2.6,3.66,3.66,0,0,0-1.9-.42l-1.31.17-1.18.5-1,.77-.77,1-.5,1.17a3.88,3.88,0,0,0-.09,2,2.49,2.49,0,0,0,.34,1.24,3.66,3.66,0,0,0,1,1.58Z"/><rect class="papayacls-6" width="512" height="512"/></g></g></svg>