<svg xmlns="http://www.w3.org/2000/svg" viewBox="0 0 512 512"><defs><style>.paprikacls-1{fill:none;}.paprikacls-2{fill:#eb3b3b;}.paprikacls-3{fill:#fff;}.paprikacls-4{fill:#4a2d2d;}</style></defs><g id="Capa_2" data-name="Capa 2"><g id="bocetos"><rect class="paprikacls-1" width="512" height="512"/><path class="paprikacls-2" d="M419,247.26c-3.17-66.58-31.07-90-72.92-92.58a146,146,0,0,0-30.77,1.91,4.39,4.39,0,0,1-.4.33c-3.35,2.29-6.13,5.29-9,8.11a71.22,71.22,0,0,1-9.07,7.46c-5.22,3.64-10.82,6.69-16.27,10,7.33,7.35,13,16.37,18.95,24.77,1.68,2.36-.11,5.2-2.49,6a3.9,3.9,0,0,1-.25,2.72c-1.23,2.48-4.73,3-7.19,2.77a19.94,19.94,0,0,1-6.65-2,29.07,29.07,0,0,1-5.4-3.51l-.57-.46c-2.86-.09-5.89-1.58-8.3-2.9a64.46,64.46,0,0,1-6.75-4.33c-4.37-3.19-8.52-6.73-13.13-9.57-2.45,1.95-4.65,4.15-7.33,5.81-5.79,3.56-11.95,6-18.21,8.54-5.72,2.35-12,4.9-18.27,4.53a3.34,3.34,0,0,1-2.34-5.63c8.37-9.67,18.44-17.37,28.75-24.79-1.72-1.78-3.52-3.48-5.33-5.2-2.66-2.54-5-5.32-7.42-8-4.06-4.5-8.9-9.5-10-15.69-17.22-7.68-39.52-13.06-62.25-5.88-48.19,15.22-60.87,72.29-45.65,137S150.82,424.8,192,431.78s52.63-27.9,65.31-21.56,26,34.87,68.48,19.66S422.21,313.84,419,247.26Z"/><path class="paprikacls-3" d="M167.57,170.69c-15.61.4-28.15,10.87-36.16,23.64-7.75,12.34-13.82,32.77-2.51,44.58a6.74,6.74,0,0,0,10.48-1.35c5.78-10.09,3.93-22.5,9.74-32.87,5.42-9.67,14.83-15.91,23-23,4.21-3.68.83-11.09-4.53-11Z"/><path class="paprikacls-3" d="M133.32,267.87c.37,1.15.75,2.28,1.19,3.4a5.55,5.55,0,0,0,1.75,2.54,4.7,4.7,0,0,0,3,1.05,5.76,5.76,0,0,0,2.46-.67,5.17,5.17,0,0,0,2.25-2.92c.44-1.12.82-2.25,1.19-3.4,1.23-3.82-2.07-7.74-5.9-7.74s-7.14,3.93-5.91,7.74Z"/><path class="paprikacls-4" d="M325.13,390l5.68.12c2.16.05,4.26.18,6.09-1.17a3.89,3.89,0,0,0,0-6.6c-1.83-1.36-3.93-1.23-6.09-1.18l-5.68.13c-5.59.13-5.6,8.57,0,8.7Z"/><path class="paprikacls-4" d="M329.08,373a23.52,23.52,0,0,1,6.16-.05c2.3.33,4.54.85,6.83.29,3.37-.82,3.9-4.85,1.9-7.21-3.63-4.28-11.27-3.6-16.23-2.89-5.54.79-4.29,10.52,1.34,9.86Z"/><path class="paprikacls-4" d="M317.92,146.73c-13.87,3.92-30,10.67-44.94,12,9.69-26.49,10.55-81.53-24.56-81.47-13.58,0-32.44,11.32-30.52,26.82,1.17,9.48,8.56,18.36,13.08,26.51,5.35,9.64,10.3,19.31,11.14,30.14a183.36,183.36,0,0,0-35.59-16.68c-3.22-1.11-5.73,2.24-5.14,5.13,2.8,13.69,9.48,27.14,20.55,35.67a146.61,146.61,0,0,0-26.4,26.34c-2.43,3.16,1,7,4.14,7.22,10,.8,20.07-.08,29.22-4.22,13-5.88,19.21-12.28,21.25-11.87,2.75.55,8.16,6.95,21.79,12.91,8.73,3.81,18.42,4.92,27.93,4.64a5.94,5.94,0,0,0,5.07-8.84,118.27,118.27,0,0,0-17.77-24.39,95.87,95.87,0,0,0,36.67-32.25C326.43,150.56,322.16,145.52,317.92,146.73Zm-87.07-51.2c2.73-3,7-5.11,10.79-6.28,4.5-1.4,8.28-1.35,11.45-.26-3.65,8.46-13.8,14-24.32,16.06C228,101.71,228.19,98.43,230.85,95.53Zm46,86c-3.63,1.47-5.16,2.12-1.75,5.26,6.08,5.6,16.2,16.92,20.6,23.67-16.29,4-39.29-14.53-43.28-16.13-6.51-2.6-8.45,2-20.29,8.53-14.22,7.9-21.43,7.51-28.5,8.77,6.86-7.13,20.21-19,29.08-24,3.78-2.12,3.36-3.8-.14-6-10.31-6.44-20.25-20.59-24.56-31.27,11.2,4.56,26.57,13.65,36.76,20.27l.07,0c3.14,2.42,5.21,2.85,5.85-2.48,1.65-13.77-1.17-27.92-8.48-39.46-3.66-5.78-7.81-11-10.84-17.06,11.31-2.33,23-11,24.09-21.65,7.77,4.32,11.29,15.45,12.61,25.19,2.11,15.69,2.76,30.64-5.1,44.79-1.72,3.1-.39,7.79,3,8,8.77.49,15.87-2.52,24.31-4.62,4.46-1.1,18.71-5.4,22.51-7.3C304.59,164.16,287.79,177,276.83,181.5Z"/></g></g></svg>