<svg xmlns="http://www.w3.org/2000/svg" viewBox="0 0 512 512"><defs><style>.parsleycls-1{fill:none;}.parsleycls-2{fill:#abc153;}.parsleycls-3{fill:#4a2d2d;}</style></defs><g id="Capa_2" data-name="Capa 2"><g id="bocetos"><rect class="parsleycls-1" width="512" height="512"/><path class="parsleycls-2" d="M270.82,279.45c.92-1.84,18.35-24.32,5.51-65.15s-51.84-61.47-44.5-80.28,27.53.46,39-10.55S269,78.52,287.34,71.63s30.73,38.54,42.2,53.68,14.22,15.14,17,9.17-6.43-75.69,15.59-84.41S396.52,68,404.78,67.51s24.77-24.32,45.87-16.06-14.22,44.5-7.34,57.34,31.2,28,22.94,45S395.14,173,393.77,184s6.42,17,31.65,27.06,36.24,11,33.95,27.53-28.44,10.09-31.2,20.18,7.09,26.78-6.42,35.78c-20.64,13.77-41.74-17-65.14-26.14-27.89-10.94-50.46-11-61.47-6.43S275,282.66,275,282.66Z"/><path class="parsleycls-2" d="M202.47,346s5.05-30.27,30.74-52.75,42.66-35.33,34.86-49.09-36.7,10.09-39.91,3.67,20.64-34.86,11-44.95-21.56.91-28,6.42-15.14,13.3-19.73,3.67,13.76-78.91-12.84-89-27.07,28.9-38.54,26.15-21.56-46.79-45.41-37.62,0,54.13-1.84,61S63,173,55.67,185.4,62.09,218,87.33,228.07s22,15.59,10.55,21.1-49.55,7.34-49.09,23.39,39.45,12.39,41.75,22-28,24.78-18.81,37.16,55.51-3.67,75.69-5S197.88,337.25,202.47,346Z"/><path class="parsleycls-2" d="M250.64,345.5c1.38,0,44-10.09,66.06-25.23s49.08-23.85,58.26-12.84,10.09,34.4,22,36.7,35.78-10.09,45.41,3.21-15.59,25.23-3.67,34.86,33,19.73,32.12,33.95c-1.31,20.33-39-.92-45.88,9.18s5.05,34.86-11,37.15-35.78-39-50.46-36.24S347,461.11,330.92,462.48,302,440,280,406.52s-43.12-55-50-55S250.64,345.5,250.64,345.5Z"/><path class="parsleycls-3" d="M357.5,152.61c-16.68,25.63-32.39,51.48-51.14,75.72C286.52,254,266,279.17,245.21,304.1c-21,25.2-42.06,50.33-62.87,75.68-10,12.18-19.73,24.6-29.79,36.74-9.42,11.36-23.37,22.87-29.53,36.34-2.3,5,2.32,9.46,7.29,7.29,13.58-5.92,24-21.51,33.24-32.63q15.06-18.24,29.66-36.87c21.62-27.49,43-55.19,64.4-82.82,19.46-25.1,39.93-49.42,59.1-74.76,18.13-24,36.88-49.29,46.26-78.15,1.08-3.34-3.68-5.06-5.47-2.31Z"/><path class="parsleycls-3" d="M136.19,213.58c12.81,23.63,25.42,47.21,36.43,71.76,5.54,12.37,10.74,24.94,15.33,37.69,4.83,13.41,6.82,26.93,10.46,40.56,1.55,5.81,9.68,4.25,10.07-1.36.91-12.92-4-26.57-8.35-38.59-4.69-13.05-10.14-25.87-15.84-38.51C172.54,259,158.83,233.41,142.4,210c-2.62-3.75-8.45-.5-6.21,3.63Z"/><path class="parsleycls-3" d="M379.19,369.43c-29.41-16.12-65.45-23.95-98.75-26.08-12-.76-24-1.14-36-.9-9.05.18-19.33-.22-27.11,5.14-4,2.73-1.63,9.27,3.36,8,8-2.06,18-1.66,26.17-1.89,11.2-.3,22.44-.13,33.62.54,33.35,2,64.09,12.71,95.67,22.53,4.31,1.34,7.06-5.13,3.08-7.32Z"/><path class="parsleycls-3" d="M205.48,236.34c-5.61,8.83-9.54,19-13.63,28.63l-6,14.17c-1,2.43-2,4.86-3,7.31-.89,2.23-1.87,4.38-1,6.76a1.34,1.34,0,0,0,1.92.78c2.27-1.07,3.11-3.27,4.07-5.45q1.59-3.62,3.11-7.27L196.72,267c4-9.65,8.5-19.6,10.88-29.79a1.16,1.16,0,0,0-2.12-.89Z"/><path class="parsleycls-3" d="M121.38,263.38c8.85,1.41,17.73,2.69,26.55,4.32,4.34.8,8.7,1.55,13,2.42a41.73,41.73,0,0,1,5.16,1.26c1.42.48,2.56,1.47,4.1,1.13a1.36,1.36,0,0,0,1-.95c1-3.48-4.41-5.13-6.85-5.64-4.56-.95-9.19-1.72-13.79-2.38A242.15,242.15,0,0,0,121.71,261c-1.35,0-1.73,2.2-.33,2.42Z"/><path class="parsleycls-3" d="M163.83,184a23.57,23.57,0,0,1,.16,5.24c-.19,1.66-.48,3.3-.75,4.95s-.7,3.28-1,4.92-.77,3.6,0,5.21a1.25,1.25,0,0,0,1.69.44c1.49-1,2-2.83,2.37-4.52a38.46,38.46,0,0,0,.52-5.57,35.28,35.28,0,0,0-.2-5.24c-.18-1.81-.15-3.62-.27-5.43-.11-1.62-2.68-1.6-2.52,0Z"/><path class="parsleycls-3" d="M162.56,208.9a.1.1,0,0,0,0-.2.1.1,0,0,0,0,.2Z"/><path class="parsleycls-3" d="M306,158.31c1.51,7.26,3.06,14.51,5.14,21.64,1,3.48,2.12,7,2.95,10.49.4,1.71.66,3.46,1.08,5.17.33,1.36.5,3,1.58,3.95a1.23,1.23,0,0,0,1.46.19c2.64-1.79,2-6.58,1.42-9.26-.74-3.66-2-7.23-3.11-10.79-2.3-7.5-5.07-14.81-7.95-22.1a1.33,1.33,0,0,0-2.57.71Z"/><path class="parsleycls-3" d="M386,160.31a71,71,0,0,0,12.36-.84c3.8-.6,8.3-1,11.05-4a.8.8,0,0,0-.35-1.33c-3.74-1.48-8-.14-11.8.52s-7.82,1.49-11.71,2.37c-1.9.43-1.43,3.29.45,3.32Z"/><path class="parsleycls-3" d="M321.28,225c14.68,1.74,29.43,2.76,44,5.11,7.15,1.16,14.27,2.53,21.35,4.06,3.54.76,7.08,1.58,10.59,2.45,3.35.83,7,2.17,10.48,1.54a2.2,2.2,0,0,0,1-3.64c-2.63-2.29-6.51-3-9.82-3.78-3.67-.91-7.37-1.76-11.07-2.56-7.26-1.55-14.58-2.78-21.93-3.78-14.77-2-29.67-3.48-44.58-2.35a1.48,1.48,0,0,0,0,3Z"/><path class="parsleycls-3" d="M301.59,355a296.93,296.93,0,0,1,14.76,28.66c2.19,4.79,4.36,9.59,6.34,14.47s3.51,10.5,6.72,14.83c1.09,1.48,3.8,1.16,3.74-1-.16-5.4-2.55-10.53-4.58-15.44s-4.27-10.09-6.73-15a260.3,260.3,0,0,0-17-28.45c-1.34-2-4.51-.2-3.25,1.91Z"/><path class="parsleycls-3" d="M348.46,361.26a109.66,109.66,0,0,1,11.77-3.64A51.39,51.39,0,0,0,366,356a8.18,8.18,0,0,0,2.84-1.39c.36-.44.42-.53.2-.27l.66-.48a11.2,11.2,0,0,0,1.16-.78.73.73,0,0,0-.32-1.21,16.25,16.25,0,0,0-2.69-.45l.85.23c-1.47-1-4.05-.35-5.65,0a52.94,52.94,0,0,0-5.49,1.73c-3.57,1.3-7.09,2.75-10.56,4.28-2,.88-.57,4.31,1.49,3.54Z"/><path class="parsleycls-3" d="M388.88,395.81a43.83,43.83,0,0,1,6.35,7.79c.91,1.42,1.76,2.9,2.59,4.37.95,1.66,1.7,3.42,3.14,4.72a2.33,2.33,0,0,0,3.92-1.63,11.79,11.79,0,0,0-1.88-5.79,36,36,0,0,0-3.18-4.77,50.66,50.66,0,0,0-7.65-8,2.4,2.4,0,0,0-3.29,0,2.37,2.37,0,0,0,0,3.29Z"/></g></g></svg>