<svg xmlns="http://www.w3.org/2000/svg" viewBox="0 0 512 512"><defs><style>.passion-fruitcls-1{fill:#754680;}.passion-fruitcls-2{fill:#4a2d2d;}.passion-fruitcls-3{fill:#fff;}.passion-fruitcls-4{fill:#feac5e;}.passion-fruitcls-5{fill:#6e5757;}.passion-fruitcls-6{fill:none;}</style></defs><g id="Capa_2" data-name="Capa 2"><g id="bocetos"><path class="passion-fruitcls-1" d="M309.12,244.73c-5.52-73.31-55.8-96.67-83.62-108.3A106.41,106.41,0,0,0,180,128.77c.09.68.16,1.36.21,2,.27,3.47.25,7,.28,10.48,0,3-.07,6.25-1.48,8.95a6.49,6.49,0,0,1-3.54,3.16c-1.78.64-3.29.17-5.07-.14s-2.72-2.5-2.35-4.14a32.68,32.68,0,0,0,1.08-6.86,36.78,36.78,0,0,0-.42-5.74c-.31-2.11-.82-4.3-1.21-6.5-24.4,3.65-47.32,14.73-62.05,31.5-26.52,30.21-50.83,85.47-40.88,149.19s82.51,101.67,147.34,91S314.65,318,309.12,244.73Z"/><path class="passion-fruitcls-2" d="M158.7,127.84c.19.26.39.51.57.77,3.26,4.78,5.41,8.93,5.29,14.65-.07,3.18-.28,4.22-.92,5.36a40.47,40.47,0,0,1-5.38-3.13c-2.93-2-6.52,2.59-3.81,4.94,7,6,16.51,9.78,25.58,6.14,6.56-2.63,13.55-10.19,10.22-17.54-.88-1.94-3.73-1.6-4.71,0-.53.87-1,1.74-1.42,2.6A75.69,75.69,0,0,0,181,109.48c-.75-2.43-1.6-4.82-2.58-7.17C173.05,89.47,164.13,75,148.18,77c-12.87,1.62-19.58,13.48-11.56,24.26C143.65,110.74,153,118.42,158.7,127.84Zm-7.63-42.92c4.46-.2,8.09,1.59,11.24,4.61,5.19,5,8.74,12.66,11.15,19.33,5.15,14.23,3.61,26.47,2.61,41.07a1.47,1.47,0,0,0,0,.21l0,0a13.51,13.51,0,0,1-5.18.54c5-7.75,2-17.69-2.18-25.41a90.63,90.63,0,0,0-10.46-14.76,85.35,85.35,0,0,0-7.86-8.27c-2.29-2.08-5.65-3.9-7.31-6.57C139.08,89.32,145.33,85.19,151.07,84.92Z"/><path class="passion-fruitcls-1" d="M220,362.23s29.83,61.52,90.25,68.52,100.93-15.1,120.82-74,5.16-103.51-18.79-128.19-67-36.84-105-28.37-78.46,73.68-87.67,95.78S210,347.5,220,362.23Z"/><path class="passion-fruitcls-3" d="M255,393.55c44.57,18.41,88.41,16.2,126-17.32S427,296.3,423.68,267.56c-3-25.84-26.52-49.29-41.14-59.38a122.83,122.83,0,0,0-75.26-8c-37.94,8.48-78.46,73.68-87.67,95.78-7.81,18.74-9.23,42.74-3.43,58.6C222.49,369,234,384.88,255,393.55Z"/><path class="passion-fruitcls-2" d="M418,243.77a83.1,83.1,0,0,0-30.16-33.1q-3.52-2.19-7.22-4.1a98.48,98.48,0,0,0-17.73-7.12c-11.16-3.22-23.12-5.34-34.76-4.92-36,1.31-66.15,26.8-86.44,54.65-10.85,14.89-18,30.75-25.47,47.34A77.66,77.66,0,0,0,212,348.3c9.65,35.64,45.95,58.7,81.28,62.48a113.73,113.73,0,0,0,27.53-.54c32.68-4.53,62.05-23.73,81.66-49.92,22.89-30.57,33.54-72.69,18.89-109.11Q419.86,247.42,418,243.77Zm-2.6,74.88A123.16,123.16,0,0,1,359,388.5c-25.2,14.47-55.8,19-83.72,10.38-28.48-8.76-56.94-31.52-59.44-63.19-1.5-18.86,4.95-37.1,13.49-53.61a208.7,208.7,0,0,1,40-54.33c10.24-9.93,21.7-18.66,35.51-22.86,12.12-3.68,25.11-4.31,37.67-3.13,36.44,3.42,70.59,27.82,78.1,65.17.44,2.22.78,4.46,1,6.7C423.07,288.69,420,304.35,415.39,318.65Z"/><path class="passion-fruitcls-4" d="M333.3,378.58c36.3-9.17,57.72-47,64-81.53,3.3-18.19,2.44-38.8-9.19-54.05a60.27,60.27,0,0,0-22.88-17.89c-22.91-10.5-50.31-8-72,3.89a107.27,107.27,0,0,0-29.32,23.75c-21,24.22-45.68,66.33-25.25,97.42C257.75,379.3,301.41,386.62,333.3,378.58Z"/><path class="passion-fruitcls-5" d="M326.56,257a13.53,13.53,0,0,0,6.59-17.74c-2.87-6-8.49-11.77-15.78-9.17-7.53,2.69-11.29,12.42-8.28,19.6A13.32,13.32,0,0,0,326.56,257Z"/><path class="passion-fruitcls-5" d="M352.69,264.26c8,1,15.28-7.71,16.84-14.88a9.42,9.42,0,0,0-2.59-9.08c-4.33-4-8.63-7.32-14.83-5.37a15.47,15.47,0,0,0-10.52,11.94C340.37,254.87,343.71,263.13,352.69,264.26Z"/><path class="passion-fruitcls-5" d="M352.82,292.19c2.59,8.78,12.78,17,22,12.34,5.55-2.83,9-8.53,10.43-14.44,1.38-5.73,2.15-12.83-2.29-17.44A23.87,23.87,0,0,0,374.9,267a15.11,15.11,0,0,0-10,0C354.91,270.48,349.91,282.36,352.82,292.19Z"/><path class="passion-fruitcls-5" d="M323.46,299.93c7.8,3.41,18.64-.24,21.77-8.25a22.94,22.94,0,0,0,.95-13c-2.05-8.79-14.66-10.39-21-5.35-5.65,4.47-10,13.4-7.46,20.6A10.46,10.46,0,0,0,323.46,299.93Z"/><path class="passion-fruitcls-5" d="M282.74,284.89c8.94,3.3,23.64-.32,28.24-9.17,2.74-5.27,1.79-11.29-1.78-15.91a20.91,20.91,0,0,0-6.56-5.52c-4.22-2.29-11.45-2.31-16-1.17a18.68,18.68,0,0,0-12.12,9.34C270.12,270.77,273.78,281.58,282.74,284.89Z"/><path class="passion-fruitcls-5" d="M261.67,317c8.7-1.6,15.17-10.71,14.62-19.43-.3-4.73-3.78-9.15-7.68-11.57-17-10.55-30.79,18.36-17.28,28.92A12.78,12.78,0,0,0,261.67,317Z"/><path class="passion-fruitcls-5" d="M323.38,315.18a11.83,11.83,0,0,0-5.49-11.53c-3.29-2-7.22-2-10.93-1.81s-7.28,0-10.56,1.69c-4.71,2.42-7.45,8.24-8.67,13.14-1,4.11-1.54,9,1.4,12.42,3.26,3.77,9.71,4.56,14.35,4.14C312.8,332.39,322.47,325,323.38,315.18Z"/><path class="passion-fruitcls-5" d="M355.2,313.85a20.61,20.61,0,0,0-5.58-.55c-5.42.24-9.63,5.12-11,10-2.6,9.05,1.15,19,10.8,21.39,9.24,2.32,19-3.19,20.25-13a15.4,15.4,0,0,0-4.55-12.63A20.75,20.75,0,0,0,355.2,313.85Z"/><path class="passion-fruitcls-5" d="M322.25,341a16,16,0,0,0-8.31,2.52c-4.51,3.1-6.94,9-7,14.41-.07,9.38,11.49,10.72,18.57,10,7.39-.71,14-8.9,12.5-16.46a13.31,13.31,0,0,0-6.42-8.41A17.44,17.44,0,0,0,322.25,341Z"/><path class="passion-fruitcls-5" d="M282,333.59c-7.46-7.14-18.74-10.61-25.58-2.29-6.7,8.13-2.39,18.11,4.14,24.76s18.26,7.39,25.23.91S289.09,340.39,282,333.59Z"/><path class="passion-fruitcls-3" d="M288.12,271.55c6.55,0,6.56-10.18,0-10.18s-6.56,10.18,0,10.18Z"/><path class="passion-fruitcls-3" d="M319.8,247.51c5,0,5-7.78,0-7.78s-5,7.78,0,7.78Z"/><path class="passion-fruitcls-3" d="M356.64,257.44c4.51,0,4.52-7,0-7s-4.52,7,0,7Z"/><path class="passion-fruitcls-3" d="M367.69,288.05c6.93,0,6.94-10.76,0-10.76s-6.94,10.76,0,10.76Z"/><path class="passion-fruitcls-3" d="M333.06,286.54c5,0,5-7.74,0-7.74s-5,7.74,0,7.74Z"/><path class="passion-fruitcls-3" d="M308,321.31c5.17,0,5.18-8,0-8s-5.19,8,0,8Z"/><path class="passion-fruitcls-3" d="M253.85,296.67l0,.45a5.51,5.51,0,0,0,11,0l0-.45c.49-7.14-11.57-7.15-11.08,0Z"/><path class="passion-fruitcls-3" d="M265.29,345.8a5.55,5.55,0,0,0,3.48-1.45,5.41,5.41,0,0,0,1.44-3.48l-.17-1.31a5,5,0,0,0-1.27-2.18l-1-.77a4.94,4.94,0,0,0-2.48-.67,3.74,3.74,0,0,0-1.9.43,3.64,3.64,0,0,0-1.59,1,3.75,3.75,0,0,0-1,1.59,3.66,3.66,0,0,0-.42,1.9l.17,1.31a5,5,0,0,0,1.27,2.17l1,.77a5,5,0,0,0,2.49.68Z"/><path class="passion-fruitcls-3" d="M322.75,359.85c5.47,0,5.48-8.49,0-8.49s-5.48,8.49,0,8.49Z"/><path class="passion-fruitcls-3" d="M353,333.78c6.05,0,6.06-9.4,0-9.4s-6.06,9.4,0,9.4Z"/><path class="passion-fruitcls-3" d="M134.2,165.32a87.77,87.77,0,0,0-27.62,29.45c-5.94,10.42-13.55,25.83-9.58,38a4.83,4.83,0,0,0,8.71,1.14c6.27-9.38,7.24-22.19,12.53-32.31a113.1,113.1,0,0,1,21.7-28.84c3.78-3.65-1.21-10.5-5.74-7.43Z"/><path class="passion-fruitcls-3" d="M91.19,252.64c.06.2.41,1.85.3.88a12.34,12.34,0,0,1,0,1.72,16.92,16.92,0,0,0,.18,3.7,3.33,3.33,0,0,0,4.07,2.31c4.63-1.56,5.3-7,4.58-11.13-.42-2.44-3.55-4-5.82-3.3s-4.15,3.31-3.3,5.82Z"/><rect class="passion-fruitcls-6" width="512" height="512"/></g></g></svg>