<svg xmlns="http://www.w3.org/2000/svg" viewBox="0 0 512 512"><defs><style>.peachcls-1{fill:#fe9736;}.peachcls-2{fill:#ffd0a5;}.peachcls-3{fill:#72ab4c;}.peachcls-4{fill:#4a2d2d;}.peachcls-5{fill:#a46a50;}.peachcls-6{fill:#fff;}.peachcls-7{fill:none;}</style></defs><g id="Capa_2" data-name="Capa 2"><g id="bocetos"><path class="peachcls-1" d="M302.18,221.12a110.3,110.3,0,0,0-58.29-58.23c-28-12-60.09-13.29-88.19-1.91-5.59,2.27-9.38,4.63-10.14,4.46a61,61,0,0,0-17.6-1.26c-21,1.49-41.76,13.92-57.48,27.14-17.7,14.88-30.9,33.29-37,55.75-5.81,21.26-5.74,44.41-2.58,66.09,7.2,49.29,48.27,77.87,90.43,97.52,20.61,9.61,42.94,16.76,65.72,18.4,25.59,1.83,50.36-4.34,70.38-20.67,20.22-16.49,33.32-40.13,41.77-64.47q2-5.9,3.75-11.89c6.38-22.35,10.3-45.86,9-69.15A122,122,0,0,0,302.18,221.12Z"/><path class="peachcls-1" d="M395.82,253.6s35.76,8.25,43.61,9.82,30.65,13.76,40.86,39.29,19.25,87.61-55.39,141.83-173.65,16.11-200.76-58.93,14.53-134,41.25-157.15,66-28.29,82.9-22,29.07,19.25,33.39,29.86S395.82,253.6,395.82,253.6Z"/><path class="peachcls-2" d="M215.72,327.79a139.85,139.85,0,0,0,3,27.74,77.55,77.55,0,0,0,3.48,12.88A63.49,63.49,0,0,0,228,379.22c4.51,7.07,9.69,13.77,14.51,20.64a126.53,126.53,0,0,0,58,44.83,105.39,105.39,0,0,0,48,5.67c32.5-3.47,63.44-18.8,87.06-41.16C446.87,398.52,456.44,386.15,463,372a104.08,104.08,0,0,0,7.29-21.94,101.88,101.88,0,0,0,2.57-26.84c-.51-9.37-4.15-17.55-8.54-25.69a111.71,111.71,0,0,0-14.7-21.41A91.93,91.93,0,0,0,434,262.26c-14.3-4.11-27.91-6.07-36.87-10C392,250,386.26,244,381.94,233.41s-16.76-20.67-33.65-26.95-56.19-1.18-82.9,22c-19.16,16.62-46,51.63-49.64,97.78C215.74,326.76,215.72,327.27,215.72,327.79Z"/><path class="peachcls-3" d="M212.06,52.53A2.2,2.2,0,0,0,209.38,51c-21.24,8.32-45.56,14.51-61.93,31.35a74.39,74.39,0,0,0-21.13,50.27l-.14,0c-2.13.41-1.69,3.32.11,3.81,0,.14,0,.28,0,.42a1.18,1.18,0,0,0,2.36,0c0-.09,0-.18,0-.28,21.72.53,47.73-6.09,64.67-19.63A58,58,0,0,0,212.06,52.53Z"/><path class="peachcls-4" d="M144.56,163.34a98.86,98.86,0,0,0-24.7-37.45c-9.73-9.07-24.55-20.31-38.52-20-3.47.09-4.11,4.19-1.65,6.06,10.49,8,23.55,11.46,33.86,20.2a86.5,86.5,0,0,1,24.07,33.05c1.74,4.18,8.61,2.47,6.94-1.91Z"/><path class="peachcls-4" d="M132.17,130.59c8.47-10.12,15.6-20.76,25.17-30,8.94-8.65,19-15.72,28.69-23.4,1.34-1.06-.38-3.17-1.8-2.33C173.55,81.1,163.82,89.6,155,98.26c-9.11,9-19,19.18-25.84,30-1.12,1.79,1.57,4,3,2.29Z"/><path class="peachcls-4" d="M105.78,170.51c14.41-4.73,34.1-3.66,48.33,1.77,15.36,5.85,25.94,19.35,34.65,32.81,9.13,14.12,15.33,30.12,16.85,46.94a162.21,162.21,0,0,1,0,26.08c-.63,8.87-3.27,17.34-4.09,26.14-.21,2.19,3,2.4,3.67.5,12.32-37.07,9.56-77.31-14.37-109.1-19.75-26.24-48.48-39.24-84.3-27.28-3.58,1.19-3.76,3.12-.77,2.14Z"/><path class="peachcls-5" d="M389.93,272c-.75-.69-1.55-1.35-2.38-2-16.06-12.25-37.16-9.41-54.51-1.64-23.68,10.61-40.68,34.27-46.52,59.2-3.08,13.16-3.72,28.24,4.63,39.65,7.77,10.63,18.5,11.42,30.76,11.16,25.44-.52,50.66-10.26,66.25-31.18C403.2,327,410.89,290.89,389.93,272Z"/><path class="peachcls-4" d="M370,279.53a5.72,5.72,0,0,0,5.36-5.74l-.25-1.46a5.61,5.61,0,0,0-1.51-2.4l-1.15-.83a5.55,5.55,0,0,0-2.83-.66,4.22,4.22,0,0,0-2.12.55,5.68,5.68,0,0,0-3.23,5.18l.25,1.47A5.52,5.52,0,0,0,366,278l1.15.83a5.53,5.53,0,0,0,2.82.66Z"/><path class="peachcls-4" d="M363.53,293.22c3-.1,2.8-4.69-.16-4.59s-2.8,4.69.16,4.59Z"/><path class="peachcls-4" d="M381.57,303.46a5,5,0,0,0,4.73-5.06l-.22-1.29a4.84,4.84,0,0,0-1.34-2.12l-1-.73a4.93,4.93,0,0,0-2.5-.59,5.51,5.51,0,0,0-3.41,1.55,5.38,5.38,0,0,0-1.31,3.51l.22,1.3a4.87,4.87,0,0,0,1.33,2.12l1,.73a4.87,4.87,0,0,0,2.49.58Z"/><path class="peachcls-4" d="M376.86,320l-.08,0a4.55,4.55,0,0,0-2.4.08,4.45,4.45,0,0,0-1.95,1.23,4.46,4.46,0,0,0-1,4.43l0,.08a4.69,4.69,0,0,0,1.24,2,4.58,4.58,0,0,0,4.48,1,4.5,4.5,0,0,0,2-1.24,4.61,4.61,0,0,0,1.1-2,4.57,4.57,0,0,0-3.37-5.5Z"/><path class="peachcls-4" d="M362.31,312.2a5,5,0,0,0,4.65-3.37,3.87,3.87,0,0,0,.38-2l-.23-1.38a5.24,5.24,0,0,0-1.42-2.25l-1.08-.78a5.24,5.24,0,0,0-2.66-.62,5,5,0,0,0-4.65,3.36,4,4,0,0,0-.38,2l.24,1.37a5.19,5.19,0,0,0,1.41,2.26l1.09.78a5.18,5.18,0,0,0,2.65.62Z"/><path class="peachcls-4" d="M345.56,285.15a3.23,3.23,0,0,0,1.62-.42,3.76,3.76,0,0,0,2.15-2.31,3.14,3.14,0,0,0,.31-1.63l-.19-1.12a4.2,4.2,0,0,0-1.15-1.83l-.87-.63a4.16,4.16,0,0,0-2.15-.5,3.23,3.23,0,0,0-1.62.42,3.14,3.14,0,0,0-1.33.92,3.08,3.08,0,0,0-.82,1.39,3.14,3.14,0,0,0-.31,1.63l.19,1.12a4.11,4.11,0,0,0,1.15,1.83l.87.63a4.13,4.13,0,0,0,2.15.5Z"/><path class="peachcls-4" d="M325.11,289l-.05.37-.11,1a3,3,0,0,0,.39,1.5,2,2,0,0,0,.53.84,2.91,2.91,0,0,0,1.14,1l.94.37,1.05.1a4.37,4.37,0,0,0,2.72-1.24l.24-.27a4,4,0,0,0,.9-3.94l-.44-.95a3.91,3.91,0,0,0-1.49-1.39,4.45,4.45,0,0,0-3.11-.3,4,4,0,0,0-2.71,2.9Z"/><path class="peachcls-4" d="M337.34,308.49l-.2.09-1.09.5a3.56,3.56,0,0,0-1.26,1.24,2.45,2.45,0,0,0-.56,1,3.45,3.45,0,0,0-.33,1.8l.2,1.22.51,1.09a5.15,5.15,0,0,0,2.84,2l.2.07a4.75,4.75,0,0,0,2.51-.08,4.68,4.68,0,0,0,2-1.29l.7-1a4.78,4.78,0,0,0,.57-2.4A3.61,3.61,0,0,0,343,311a3.46,3.46,0,0,0-1-1.48,4.69,4.69,0,0,0-2.12-1.15,4.86,4.86,0,0,0-2.51.09Z"/><path class="peachcls-4" d="M356.1,331.9c3.85-.13,3.65-6.1-.2-6s-3.65,6.11.2,6Z"/><path class="peachcls-4" d="M359.81,343.14c-.54.42-1.07.85-1.6,1.29a2.7,2.7,0,0,0-.69,1.16,2.66,2.66,0,0,0-.25,1.37,3.43,3.43,0,0,0,1.11,2.45l1.68,1.18a4.31,4.31,0,1,0-.25-7.45Z"/><path class="peachcls-4" d="M331.13,345.49v.45a4.32,4.32,0,0,0,1.4,3.16,4.67,4.67,0,0,0,3,1.12l1.1-.19a4.18,4.18,0,0,0,1.79-1.13,4.29,4.29,0,0,0,1.17-3.25l0-.45a3.15,3.15,0,0,0-.41-1.6,3.23,3.23,0,0,0-.92-1.33,4.63,4.63,0,0,0-3-1.12l-1.11.18a4.26,4.26,0,0,0-1.82,1.15l-.63.87a4.3,4.3,0,0,0-.5,2.14Z"/><path class="peachcls-4" d="M318.31,363.37l.58.09-1.95-1a1.58,1.58,0,0,0,.52.39c.16.13.33.25.5.37a4.49,4.49,0,0,0,2.27.53,4.43,4.43,0,0,0,2.24-.69,4.47,4.47,0,0,0-2.54-8.25,4.4,4.4,0,0,0-2.23.69l-.48.39a1.71,1.71,0,0,0-.49.43l1.87-1.18-.56.13-1,.46a3.36,3.36,0,0,0-1.15,1.13,2.15,2.15,0,0,0-.51.95,3.17,3.17,0,0,0-.3,1.64l.18,1.12.46,1a4.76,4.76,0,0,0,2.59,1.86Z"/><path class="peachcls-4" d="M303.2,348.26c4.36-.15,4.14-6.93-.23-6.78s-4.14,6.93.23,6.78Z"/><path class="peachcls-4" d="M322,335a5.51,5.51,0,0,0,3.42-1.56,3.75,3.75,0,0,0,1-1.61,3.89,3.89,0,0,0,.36-1.91l-.22-1.29a5,5,0,0,0-1.34-2.13l-1-.73a4.83,4.83,0,0,0-2.5-.58,3.67,3.67,0,0,0-1.87.48,4.41,4.41,0,0,0-2.51,2.68,3.89,3.89,0,0,0-.36,1.91l.22,1.3a5,5,0,0,0,1.34,2.12l1,.73a4.93,4.93,0,0,0,2.5.59Z"/><path class="peachcls-4" d="M311.59,305.86a4.3,4.3,0,0,0-1.65,1.68l1.18-1.26-.28.16A3.25,3.25,0,0,0,311,312l.29.14L310.05,311a4.3,4.3,0,0,0,1.77,1.56,3.89,3.89,0,0,0,3.9-.13,3.86,3.86,0,0,0-.23-6.67,3.83,3.83,0,0,0-2-.46,3.9,3.9,0,0,0-1.94.59Z"/><path class="peachcls-4" d="M306.48,329.1c3.12-.1,3-5-.17-4.85s-3,5,.17,4.85Z"/><path class="peachcls-4" d="M281.24,223c3.49-2.25,7.1-4.32,10.77-6.23,4.25-2.21,8.6-4.23,13-6.14l.58-.26a2.71,2.71,0,0,0-2.69-4.47c-39,9.13-68.8,41.71-80.68,79.08a184,184,0,0,0-8,68.9c1.76,21.95,7.74,49.91,22.51,67,2.35,2.72,7.22-.16,6.07-3.54-3.8-11.14-10.2-21.15-13.76-32.49a138.52,138.52,0,0,1-5.95-31,185.17,185.17,0,0,1,6.51-64.22C237.9,261,256.84,238.35,281.24,223Z"/><path class="peachcls-6" d="M82.85,206.74c2.87,1.17,5.72,2.45,8.88,2.39a5.64,5.64,0,0,0,2.84-10.5c-3.16-1.75-6.78-1.93-10.31-2.28-2.61-.26-4.88,2.21-5.2,4.59-.37,2.8,1.31,4.79,3.79,5.8Z"/><path class="peachcls-6" d="M76,222.24a18.62,18.62,0,0,0,5.41,1.11,4.92,4.92,0,0,0,4.68-3.57,5,5,0,0,0-2.23-5.48,18.64,18.64,0,0,0-5.14-1.93A5.12,5.12,0,1,0,76,222.24Z"/><rect class="peachcls-7" width="512" height="512"/></g></g></svg>