<svg xmlns="http://www.w3.org/2000/svg" viewBox="0 0 525.14 525.14"><defs><style>.pearcls-1{fill:#72ab4c;}.pearcls-2{fill:#4a2d2d;}.pearcls-3{fill:#c0c728;}.pearcls-4{fill:none;}</style></defs><g id="Capa_2" data-name="Capa 2"><g id="bocetos"><path class="pearcls-1" d="M271.75,125.93s16.22-41.87,49-54.31S389,64.45,399.6,64.45s13.57-1.88,13.95,2.64-14.71,52.8-67.13,67.89S271.75,125.93,271.75,125.93Z"/><path class="pearcls-2" d="M246.59,427.19a83.77,83.77,0,0,0-11.84,24.36c-1.06,3.41-3.55,10.1,1,12.36,4.89,2.41,9.94-4.83,12.38-7.74a73.75,73.75,0,0,0,12.64-22.38l-5.19-1.43c-1,5.84-5,33.56,6.3,33.44,10-.1,9.57-25.67,9.64-32.08l-5.64.76c.85,6.33,6.11,34.41,17.68,29.65,10.56-4.34,2.84-26.82-1.1-33.34-1.91-3.16-6.21-.4-4.82,2.81.84,1.94,10,25.48.86,20.9-1.87-.94-3.82-8.12-4.47-10A64.9,64.9,0,0,1,271.45,433c-.49-3.24-5.66-2.4-5.64.76a83.8,83.8,0,0,1-1,13.79c-.36,2.29-.44,6.84-1.83,8.55-3.34,4.1-2.8-4.43-3-6.93a68.51,68.51,0,0,1,.79-15.34c.42-2.71-3.57-5.12-4.92-2.07A108.49,108.49,0,0,1,249.15,445c-1.57,2.56-7.18,13.27-10.11,13.39-5.06.2,9.3-26.28,11.2-29.09,1.55-2.28-2.09-4.33-3.65-2.14Z"/><path class="pearcls-3" d="M364.52,273.76c-17-22.63-26.17-77.83-40-101.83-11.48-20-32.55-27.42-53.73-27.28a96.88,96.88,0,0,1-.48,16.69c-.65,5-2.95,13.95-10,11.12a3.36,3.36,0,0,1-2.42-3.16c.6-7.83,1.55-15.88.56-23.72-19.61,2.75-37.66,11.37-46.3,21.83-19.61,23.76-7.54,64.49-24.13,92.4s-64.87,65.62-62.23,117.66,42.62,78.82,83.35,72,56.19-12.07,87.49-1.13,70.15,17,104.09-32.43S381.49,296.39,364.52,273.76Z"/><path class="pearcls-2" d="M247.4,168a21.77,21.77,0,0,0,19,7c6.6-.9,14.16-5.31,16-12.07.63-2.39-2.31-5.25-4.59-3.52-3.91,3-6.74,6.49-11.79,7.6-5.39,1.18-10.61-.49-14.93-3.74-2.79-2.1-5.87,2.32-3.62,4.69Z"/><path class="pearcls-2" d="M262.55,168.58c2.85-12-.18-26.34-3.79-37.9a145.84,145.84,0,0,0-7.13-17.89c-3.14-6.77-8.07-13.79-6.77-21.43,2.4-14.13,16.5,5.2,18.59,10.87a90.42,90.42,0,0,1,4.5,21.15,133.9,133.9,0,0,1,.94,22.37c-.43,7.46-2.28,14.7-2.92,22.12-.41,4.67,6.28,4.93,7.69,1,6.41-17.61,5.13-40.77.82-58.73-2.88-12-10.39-30.52-25.1-31.1-15.87-.63-13.77,16.83-9.56,26.71s9.32,19.39,12.47,29.85c3.25,10.79,3.32,21.08,4.32,32.14.29,3.19,5.09,4.34,5.94.8Z"/><path class="pearcls-2" d="M234.47,182.18a2.62,2.62,0,0,0,.31-1.38c0-.32-.09-.64-.13-1a3.64,3.64,0,0,0-.92-1.59l-.73-.56a3.53,3.53,0,0,0-1.82-.49,2.66,2.66,0,0,0-1.39.31,2.72,2.72,0,0,0-1.16.74,4,4,0,0,0-1,2.55c0,.32.08.64.13.95a3.64,3.64,0,0,0,.92,1.59l.73.57a3.62,3.62,0,0,0,1.82.49,2.76,2.76,0,0,0,1.39-.31,2.84,2.84,0,0,0,1.16-.75A2.69,2.69,0,0,0,234.47,182.18Z"/><path class="pearcls-2" d="M221,194l-.65-.51a3.21,3.21,0,0,0-1.63-.44l-.85.12a3.15,3.15,0,0,0-1.42.83l-.42.33a3.59,3.59,0,0,0-1,2.32,2.38,2.38,0,0,0,.28,1.26,2.45,2.45,0,0,0,.68,1.06l.66.51a3.41,3.41,0,0,0,1.66.45l.87-.12a3.33,3.33,0,0,0,1.44-.84l.34-.43a3.31,3.31,0,0,0,0-4.54Z"/><path class="pearcls-2" d="M240.9,200.4l-.94-.73a4.56,4.56,0,0,0-2.34-.63,3.54,3.54,0,0,0-1.79.4,3.58,3.58,0,0,0-1.5,1,5.2,5.2,0,0,0-1.36,3.29c.06.41.11.82.17,1.23a4.67,4.67,0,0,0,1.19,2.05l.95.73a4.56,4.56,0,0,0,2.34.63,3.44,3.44,0,0,0,1.79-.4,4.24,4.24,0,0,0,2.46-2.45,3.56,3.56,0,0,0,.4-1.79c-.06-.42-.12-.83-.17-1.24A4.59,4.59,0,0,0,240.9,200.4Z"/><path class="pearcls-2" d="M168.49,389.78c-.13-.32-.27-.63-.4-.95a2.92,2.92,0,0,0-1-1.12,1.91,1.91,0,0,0-.88-.51,2.89,2.89,0,0,0-1.53-.34l-1.06.14-1,.4a3,3,0,0,0-1.11,1,2.86,2.86,0,0,0-.72,1.35c0,.12,0,.25-.06.38a3.93,3.93,0,0,0,0,2.15,4.05,4.05,0,0,0,1,1.79l.82.63a4,4,0,0,0,2.05.56,3.13,3.13,0,0,0,1.56-.35,2.93,2.93,0,0,0,1.3-.84,4.07,4.07,0,0,0,1.05-1.79,4.13,4.13,0,0,0,0-2.15C168.53,390,168.52,389.9,168.49,389.78Z"/><path class="pearcls-2" d="M195.79,413.38l-.68-.88a5.27,5.27,0,0,0-1.06-.8,4.47,4.47,0,0,0-6.72,3.86,4.49,4.49,0,0,0,2.22,3.85,4.45,4.45,0,0,0,4.5,0,5.66,5.66,0,0,0,1-.79,3.71,3.71,0,0,0,.71-.92c.14-.34.29-.68.43-1a2.87,2.87,0,0,0,.15-1.13,4.22,4.22,0,0,0-.58-2.14Z"/><path class="pearcls-2" d="M353.59,417.67c6.35,0,6.36-9.88,0-9.88S347.22,417.67,353.59,417.67Z"/><path class="pearcls-2" d="M375.8,390.82a4.24,4.24,0,0,0,.48,1.11,3.27,3.27,0,0,0,.14.33,4.29,4.29,0,0,0,3.72,2.14,4.27,4.27,0,0,0,2.18-.59,4.88,4.88,0,0,0,1.7-1.71,6.23,6.23,0,0,0,.28-.62,5,5,0,0,0,.26-.66,4.52,4.52,0,0,0,0-2.42,3.42,3.42,0,0,0-.81-1.54,3.51,3.51,0,0,0-1-1,3.27,3.27,0,0,0-1-.53,3.22,3.22,0,0,0-1.7-.38l-1.17.15a4.68,4.68,0,0,0-1.27.62,3.94,3.94,0,0,0-.77.59,3.71,3.71,0,0,0-1,1.66.51.51,0,0,0,0,.13,3.36,3.36,0,0,0-.2,1.26,2.29,2.29,0,0,0,0,.25C375.69,390,375.74,390.42,375.8,390.82Z"/><path class="pearcls-2" d="M360,386.1a3.65,3.65,0,0,0,2.67-.35,3.58,3.58,0,0,0,1.6-2.08,3.48,3.48,0,0,0-.89-3.38l-.3-.36a4.33,4.33,0,0,0-1-.73,3.19,3.19,0,0,0-3.19,0,3.27,3.27,0,0,0-1.14,1.14,3.1,3.1,0,0,0-.43,1.6,4.85,4.85,0,0,0,.22,1.73A3.45,3.45,0,0,0,360,386.1Z"/><path class="pearcls-2" d="M275,130.24a178.26,178.26,0,0,1,68.11-34.4c11.15-2.9,22.6-4.59,33.65-7.87,8.72-2.6,19.77-6,25.39-13.51,1.15-1.55-.76-3.86-2.5-3.26-5.86,2-11,5.89-16.79,8.22a133.43,133.43,0,0,1-15.66,4.91c-11.68,3.07-23.62,5.2-35,9.18A203.56,203.56,0,0,0,271.71,127c-2.3,1.86,1,5.06,3.24,3.24Z"/><path class="pearcls-2" d="M303.39,109.09c4.23-12.4,11.16-22.15,18.64-32.71,1.2-1.69-1.35-3.43-2.76-2.13-9.6,8.84-15.61,21.57-19.5,33.84-.73,2.32,2.85,3.27,3.62,1Z"/><path class="pearcls-2" d="M355.66,90.87a130.55,130.55,0,0,1,7.38-12c3-4.18,6.63-7.74,9.76-11.78,1-1.25-.34-3.64-1.89-2.46-7.84,6-14,15.79-17.8,24.75-.73,1.7,1.6,3.21,2.55,1.5Z"/><path class="pearcls-2" d="M325.55,101.4c17,6.44,37,11.34,55.3,9.41a1.55,1.55,0,0,0,0-3.09c-18.68-1.39-36.53-3.69-54.35-9.78-2.2-.76-3.08,2.65-.95,3.46Z"/><path class="pearcls-2" d="M289.77,120.23c17.29,8.83,39.08,14.67,58.57,11.4,1.76-.3,1.2-2.87-.41-3-20-1.31-37.95-3-56.69-11-1.68-.71-3.19,1.65-1.47,2.52Z"/><rect class="pearcls-4" width="525.14" height="525.14"/></g></g></svg>