<svg xmlns="http://www.w3.org/2000/svg" viewBox="0 0 512 512"><defs><style>.peascls-1{fill:#4a2d2d;}.peascls-2{fill:none;}</style></defs><g id="Capa_2" data-name="Capa 2"><g id="bocetos"><path class="peascls-1" d="M429.29,156.4c-6.2-16.61-16.92-32.27-33.48-39.75-22.74-10.27-55.22-7.09-76.47,5.79-19,11.49-29.27,35.63-32.89,56.63-2.85,16.59-1.16,32.06,7.15,46.76a81.64,81.64,0,0,0,31.06,30.87c13.27,7.28,31.49,12.47,46.68,10.17,16.24-2.47,32.22-13.9,43.2-25.73C435.51,218.52,439.93,184.87,429.29,156.4Zm-14.58,67.09c-6.74,11.16-17,19.87-28.19,26.38-14.48,8.45-28.2,8.49-44,4-12.78-3.6-24.9-9.13-33.59-19.48C300,223.84,296.33,209.31,296,195.7c-.39-17,3-35.51,11.32-50.49,7.24-13,20-19.84,34.33-22.21,13.68-2.27,31.46-3.21,44.76,1.19,13.66,4.53,22.92,14.95,29.29,27.51C426.89,173.74,427.67,202,414.71,223.49Z"/><path class="peascls-1" d="M322,274.43c-23.3-15.65-53.91-11.4-73.36,8.64-10.61,10.94-20.31,24.35-25.93,38.55-5.52,13.93-6.83,29.73,0,43.47,6.52,13.08,19.12,23.51,32.18,29.69a69.59,69.59,0,0,0,74.33-9.5C351.42,367,359,335.18,349.11,308.4A71.48,71.48,0,0,0,322,274.43ZM300.49,389.35c-28.41,8-69.79-9.09-73.1-41.63-1.8-17.78,7.28-33.77,17.57-47.47,7.68-10.23,17.51-20.72,30.5-24.14,14.72-3.86,30.54.61,42.86,9a56.59,56.59,0,0,1,24,36.68A58.83,58.83,0,0,1,300.49,389.35Z"/><path class="peascls-1" d="M166.07,168.35c-18.78-8.22-41.93-6.86-58.49,6.11C89.45,188.67,79,213.55,77.42,236.08c-2.1,29.26,7.41,64.45,36.65,77.18,29.93,13,62.37-2.6,82.3-25.66,11.16-12.91,16.77-26.39,16.67-43.52a89.8,89.8,0,0,0-11-43.14A77,77,0,0,0,166.07,168.35ZM196.8,268.43c-7.5,13.81-21.08,26.1-35.17,32.86-15,7.2-33.66,8.36-48.29-.45-14.35-8.65-22.28-23.94-25.23-40-5.24-28.53,1.41-72.74,32-85,16.11-6.44,34.33-1.05,48.84,7a64.89,64.89,0,0,1,29.05,35C203.68,233.74,205.07,253.19,196.8,268.43Z"/><path class="peascls-1" d="M107.69,201a1.8,1.8,0,0,0,0,3.6A1.8,1.8,0,0,0,107.69,201Z"/><path class="peascls-1" d="M105.3,236.33c1.11-4,.82-8.22,1-12.35a75.69,75.69,0,0,1,2.07-14.36c.94-3.93-4.84-5.53-6.05-1.67-2.59,8.31-6,19.92-2.52,28.38C100.79,238.78,104.49,239.28,105.3,236.33Z"/><path class="peascls-1" d="M103.8,254.93a3.7,3.7,0,0,0-2.51,4.42,41.91,41.91,0,0,0,1,5.11c1,3.63,6.87,3,6.72-.91a52.33,52.33,0,0,0-.78-6.11C107.92,255.58,105.5,254.38,103.8,254.93Z"/><path class="peascls-1" d="M323.55,143.33c-11.88,12-18.92,32.63-14.84,49.36.61,2.54,4.56,2.57,5.16,0,1.77-7.58,1-15.46,2.79-23.11,1.91-8.36,5.43-15.51,11.73-21.42C331.59,145.15,326.66,140.19,323.55,143.33Z"/><path class="peascls-1" d="M316.31,210.62c0-.06-.08-1-.09-1.05a3.76,3.76,0,0,0-3.7-3.7c-1.79.08-4,1.64-3.7,3.7.33,2.55.69,6.56,3.41,7.76,1.35.59,3.31.51,4-1.07a6.19,6.19,0,0,0,.3-4.26C316.48,211.54,316.38,211.08,316.31,210.62Z"/><path class="peascls-1" d="M241.85,321.83c-3.24,8.08-6.72,18.93-2.19,27.15,1,1.84,4.5,1.69,4.83-.63.58-4.06.47-8.13,1.29-12.16s2.06-8.3,3.07-12.43C250,319.11,243.55,317.58,241.85,321.83Z"/><path class="peascls-1" d="M250.1,360.56c-1.71,1.1-2.69,3.61-1.43,5.45,1.05,1.53,2,3.23,3.75,4.08a3.45,3.45,0,0,0,3.37,0,3.35,3.35,0,0,0,1.66-2.89c0-2-1-3.55-1.91-5.21A4,4,0,0,0,250.1,360.56Z"/><rect class="peascls-2" width="512" height="512"/></g></g></svg>