<svg xmlns="http://www.w3.org/2000/svg" viewBox="0 0 512 512"><defs><style>.pepper-millcls-1{fill:none;}.pepper-millcls-2{fill:#b3644c;}.pepper-millcls-3{fill:#4a2d2d;}.pepper-millcls-4{fill:#fff;}</style></defs><g id="Capa_2" data-name="Capa 2"><g id="bocetos"><rect class="pepper-millcls-1" width="512" height="512"/><path class="pepper-millcls-2" d="M423.5,108.38c-19.25-45.5-85.22-76-127.2-40.42C280,81.8,271.68,107.05,282.79,125.71c-18.17,5-31.6,21.06-30.53,42.32.44,8.68,4.34,16.5,5.12,25,1.39,15.05-17.39,7.22-26,7.71a26.08,26.08,0,0,0-23,17.14,49.64,49.64,0,0,0-9.49-.81c-19.83.27-40.58,16.83-37,37.88-.32.09-.65.16-1,.26-19.46,6.09-35.92,26.2-48.95,40.86-13.17,14.82-31.4,34.78-26.93,56.27,4.07,19.59,20.81,36.3,35,49.23,25.66,23.33,75,59.4,106.38,27,18.07-18.6,36.55-42.14,46.24-66.44a40.6,40.6,0,0,0,3-18.48c18.13-3.47,34.61-24,24.7-52a27.16,27.16,0,0,0,12.72-22c.29-5.84-1.75-11-4-16.29-1.76-4.14-5.62-11.24-1.22-14.91,3.58-3,11.76-1.49,15.93-1.48,13.66,0,28.22-2.81,37.9-13.27,7.16-7.73,10.47-18.23,10.46-28.67,16.85,3.89,36-5.34,46.2-18.68C433.2,157,432.65,130,423.5,108.38Z"/><path class="pepper-millcls-3" d="M92.3,337.14c13.83.51,29.22,9.9,40.38,17.33,12.7,8.47,24.56,18.45,36.3,28.18s23,19.58,32,31.92c3.61,5,9,21.54,17.1,18.87a5.49,5.49,0,0,0,3.39-5.73c-2.2-14.06-13.24-26.51-22.89-36.26-11.18-11.3-23.87-20.85-36.57-30.34-12-9-24.64-17.91-38.39-24.12-7-3.18-26.93-12.68-33.29-4.77-1.36,1.69-.37,4.83,2,4.92Z"/><path class="pepper-millcls-3" d="M157.33,405c4.44-7.13.71-17.14-7.57-19.13-6.28-1.5-13.5,2.68-16,8.39-4,9.22,8.78,18.45,17.09,16A11.71,11.71,0,0,0,157.33,405Z"/><path class="pepper-millcls-3" d="M101.42,405.89c4.43-7.13.71-17.14-7.57-19.12-6.28-1.51-13.5,2.67-16,8.39-4,9.21,8.78,18.44,17.09,16A11.73,11.73,0,0,0,101.42,405.89Z"/><path class="pepper-millcls-3" d="M107,459c4.44-7.12.71-17.13-7.57-19.12-6.28-1.5-13.5,2.68-16,8.39-4,9.22,8.79,18.44,17.09,16A11.7,11.7,0,0,0,107,459Z"/><path class="pepper-millcls-3" d="M153.75,460c4.43-7.13.7-17.14-7.57-19.12-6.28-1.51-13.5,2.67-16,8.39-4,9.22,8.78,18.44,17.09,16A11.77,11.77,0,0,0,153.75,460Z"/><path class="pepper-millcls-4" d="M127.87,325c6.28-6.2,11.55-13.36,17.49-19.88,5.2-5.72,13.24-11.36,16.33-18.48.87-2-.62-5.2-3.24-4.22-7.68,2.9-13.42,11-18.8,17-6.09,6.77-12.39,13.69-16.88,21.66-1.81,3.2,2.45,6.56,5.1,3.93Z"/><path class="pepper-millcls-4" d="M179.23,277.45a10,10,0,0,0,1-2.4,3.75,3.75,0,0,0-.37-2.8l-.56-.73a3.75,3.75,0,0,0-1.61-.94,4.9,4.9,0,0,0-.67-.26c-.23-.06-.48-.07-.71-.11L175,270l-1.31.17-1.18.5-1,.77-.77,1-.49,1.18-.18,1.31a3.72,3.72,0,0,0,.42,1.89,2.47,2.47,0,0,0,.64,1.09,2.5,2.5,0,0,0,.88.89,2.54,2.54,0,0,0,1.09.63,2.46,2.46,0,0,0,1.24.34,2.64,2.64,0,0,0,1.31,0,2.5,2.5,0,0,0,1.25-.34,2.54,2.54,0,0,0,1.09-.63,3.75,3.75,0,0,0,1.26-1.39Z"/><path class="pepper-millcls-4" d="M281.53,172.49c.66-3.59,1.07-7.33,2.62-10.69s3.9-5.94,5.11-9.29c.87-2.4-1.79-4.8-4.09-4.1-8.85,2.71-12.85,16-10.28,24.08.95,3,6,3.54,6.64,0Z"/><path class="pepper-millcls-4" d="M315.68,98c-.3-4.88,2.65-8.07,4.94-12.06,1.2-2.1-.29-5.33-2.94-5.12-8.3.65-12.56,9.68-12.17,17.18.35,6.52,10.57,6.53,10.17,0Z"/><path class="pepper-millcls-4" d="M398.57,172.12a13.76,13.76,0,0,0,3.53-5.66c.65-2.24-1.61-4.77-4-4a12.25,12.25,0,0,0-1.77.69,11.45,11.45,0,0,0-1.08.74,15.88,15.88,0,0,0-2.62,2.29,4.16,4.16,0,1,0,5.89,5.89Z"/><path class="pepper-millcls-4" d="M228.25,390.11c.68-3,1.49-6.05-1-8.59l1.37,2.35-.1-.29a5.28,5.28,0,0,0-3.59-3.59,5.12,5.12,0,0,0-5,1.32l-.2.21,2.35-1.36a6.08,6.08,0,0,0-3.49,2.63,10.35,10.35,0,0,0-.79,2c-.2.76-.31,1.56-.45,2.34a6,6,0,0,0,.57,4.35,5.69,5.69,0,0,0,3.38,2.6c2.86.66,6.26-.86,6.95-3.95Z"/><path class="pepper-millcls-4" d="M282.21,311.33l0-.39a3.26,3.26,0,0,0-.38-1.71,3.36,3.36,0,0,0-.92-1.43l-.9-.7a4.4,4.4,0,0,0-2.24-.6l-.39,0-1.29.17-1.16.49a3.63,3.63,0,0,0-1.36,1.25,2.36,2.36,0,0,0-.62,1.07,2.52,2.52,0,0,0-.34,1.22,2.56,2.56,0,0,0,0,1.29,2.53,2.53,0,0,0,.34,1.23,3.61,3.61,0,0,0,1,1.56l1,.76,1.16.49,1.29.17,1.29-.17,1.16-.49a3.72,3.72,0,0,0,1.36-1.25,2.36,2.36,0,0,0,.62-1.07,3.55,3.55,0,0,0,.42-1.87Z"/><path class="pepper-millcls-3" d="M371.43,186.93c-2.88-15.11-12.68-28.19-24.08-37.93-12.07-10.3-27.13-19.95-43-23.27-9.69-2-17.76-2.1-25.88,1.3,19.34,1.48,44.16,13.43,56.31,23.11,11.81,9.41,31.51,34.48,36.7,53A44,44,0,0,0,371.43,186.93Z"/><path class="pepper-millcls-1" d="M274.07,358.21c-3-14.73-12.33-31.75-19.62-40.08-6.87-7.84-15.64-13.82-23.77-20.23-9.13-7.21-18.27-14.41-27.49-21.5-9-6.91-23.49-19.76-49.74-17.15a21.43,21.43,0,0,0-2.54.4,82.64,82.64,0,0,0-12.28,8.72c-5.17,8-7.1,19.54-13.65,28.1S112,313.93,106,323c-5.21,7.71-10.93,15.56-9.54,25.37,2.41,17.1,19,32.94,31,43.86,15.24,13.87,32.8,25.88,52,33.61,7.5,3,16,5.57,24.18,3.91,9.64-2,16.3-10.81,22.43-17.84,7.9-9.07,19.86-13.4,30.14-19.21a161.35,161.35,0,0,0,16.6-30.52C273.25,360.82,273.69,359.51,274.07,358.21Z"/><path class="pepper-millcls-3" d="M203.19,276.4c9.22,7.09,18.36,14.29,27.49,21.5,8.13,6.41,16.9,12.39,23.77,20.23,7.29,8.33,16.64,25.35,19.62,40.08,8.06-27-13.69-48.12-32.55-64.64a364.47,364.47,0,0,0-31.36-24.74q-2.94-2.06-5.93-4c-12.8-8.5-28-14.38-43.28-9.6a51.93,51.93,0,0,0-10,4.46,21.43,21.43,0,0,1,2.54-.4C179.7,256.64,194.19,269.49,203.19,276.4Z"/><path class="pepper-millcls-3" d="M300.8,291.15c-8-19.78-24.81-35.89-41.18-48.56-16.62-12.86-38.93-26.34-61-26a35.68,35.68,0,0,0-9.27,1.63c26.53,3.41,51.65,23.49,63.8,32.71,10.83,8.22,23.83,17.39,36.2,33.67,6.86,9,12.34,20.27,13.3,32.09C305.15,308.65,305.27,302.25,300.8,291.15Z"/></g></g></svg>