<svg xmlns="http://www.w3.org/2000/svg" viewBox="0 0 512 512"><defs><style>.pineapplecls-1{fill:#438f10;}.pineapplecls-2{fill:#569a28;}.pineapplecls-3{fill:#d9b229;}.pineapplecls-4{fill:#4a2d2d;}.pineapplecls-5{fill:none;}</style></defs><g id="Capa_2" data-name="Capa 2"><g id="bocetos"><path class="pineapplecls-1" d="M224.84,113.68s-16.09-38.21-27.35-55.91-15.68-31.77-8-31.37S222,39.44,235.7,61c12.07,18.9,13.68,31,13.68,31s13.67-39.42,43.43-55.51,38.21-14.88,37-10.86-23.33,20.52-34.19,49.07a314.23,314.23,0,0,0-12.47,42.23S268.68,140.62,255.81,139,224.84,113.68,224.84,113.68Z"/><path class="pineapplecls-2" d="M232.08,165.56s-14.08-36.2-40.62-51.88S144,96,146,92.76s18.1-15.28,55.5-1.61,47.87,38.61,47.87,38.61,16.08-28.95,49.87-40.22,52.29-4,51.08-.8-35.39,16.49-50.68,35l-15.28,18.5-5.63,22.12s-28.56,14.08-37,12.47S232.08,165.56,232.08,165.56Z"/><path class="pineapplecls-1" d="M213.18,194.52s-16.09-20.11-43.44-25.74-41-1.21-40.62-4S144.8,137.41,183,137.81s65.56,28.56,65.56,28.56,20.51-27.76,56.71-30.17,64,22.52,64,25.74-37.8,0-52.69,12.47-19.3,22.12-19.3,22.12Z"/><path class="pineapplecls-3" d="M158.48,206.59c-35,29.76-44.65,105.78-44.65,159.67s24.54,99.75,70,111.41,124.28,12.07,166.51-8,47.46-92.11,31.77-170.94S335.85,190.1,288.39,186.07,193.47,176.82,158.48,206.59Z"/><path class="pineapplecls-4" d="M371.09,332.68a263.11,263.11,0,0,1-28.75,56.11c-8.66-6.63-17.27-13.33-25.54-20.5-6.18-5.36-12.23-10.87-18.21-16.46a630.83,630.83,0,0,0,38.74-50.5A300.3,300.3,0,0,0,367,324.78c2.74,1.87,5.56-2.18,3.43-4.45-8.78-9.38-18.31-18-28-26.56q8.7-13,16.76-26.47c2-3.33-3.11-6.27-5.19-3q-8.1,12.66-16.73,25c-10.76-9.43-21.57-18.83-31.59-29-2.38-2.41-4.73-4.87-7.05-7.33q2.18-3.19,4.32-6.41t4.23-6.46c1.39-2.17,2.78-4.34,4.14-6.52s2.72-4.37,4.06-6.57,2.66-4.4,4-6.62,2.6-4.43,3.87-6.67c.41-.71.82-1.43,1.22-2.15.2-.37.44-.72.62-1.11.51-1.13-.85-2.67-1.88-3.14a3.76,3.76,0,0,0-4.64,1.33c-.2.32-.37.65-.55,1-.47.81-.95,1.61-1.45,2.4s-4.14,6.74-5.52,8.95-2.77,4.39-4.17,6.58-2.81,4.37-4.23,6.54-2.85,4.33-4.3,6.49-2.9,4.3-4.37,6.43l-.33.48c.15-.21-5.1-5.74-5.59-6.31q-2.81-3.25-5.55-6.57Q277.09,227.9,272,221q-4.69-6.36-9.06-13c-1.46-2.2-5.67-13-12.59-13.29-3.72-.13-9.91,11.18-12.35,14.89-3.3,5-6.7,9.94-10.33,14.71-6.05,8-12.48,15.65-19.2,23.07-10-14.48-20.16-28.91-28.32-44.54-2.27-4.36-7.7-1.81-5.82,2.61,7.47,17.54,18.66,32.06,29.13,47.4q-3.48,3.71-7,7.33c-10,10.17-20.83,19.57-31.59,29q-8.62-12.3-16.74-25c-2.07-3.24-7.18-.31-5.18,3q8,13.47,16.76,26.47c-9.67,8.53-19.2,17.18-28,26.56-2.1,2.25.67,6.33,3.44,4.45a300.3,300.3,0,0,0,29.71-23.45,630.83,630.83,0,0,0,38.74,50.5c-5.62,5.25-11.29,10.44-17.09,15.48-8.63,7.51-17.63,14.53-26.68,21.47,0,0-8.35-13.24-9.07-14.47a259.35,259.35,0,0,1-15.84-31.9c-.91-2.21-1.8-4.43-2.65-6.67-.59-1.57-1.07-5-3.55-3.77-3.07,1.51-1.68,5.59-1,8.08a87.79,87.79,0,0,0,4,10.65q3.6,8.43,7.74,16.63,3.36,6.68,7.09,13.15c.61,1.07,7.7,12.59,7.69,12.6q-5.4,4.1-10.76,8.27c-1.43,1.11-2.84,2.26-4.26,3.38a24.45,24.45,0,0,0-3.94,3.3,5.79,5.79,0,0,0-1.42,4.74c.37,1.64,2.3,3.43,4.07,2.86,2-.67,4-2.44,5.84-3.61,3.41-2.23,15.42-11.14,15.72-11.14q6.71,9.58,14.28,18.6c5.8,6.87,12,13.66,18.6,20.19q-8.28,6.84-16.56,13.76c-3,2.56.87,7.39,4.19,5.43C186.5,455,193.2,450.39,199.5,446c12,11,42.54,35.67,51.28,35.67s40.14-24.24,52.12-35.3c6.31,4.44,12.74,8.65,19.31,12.54,3.29,1.94,7.26-2.84,4.19-5.43q-8.26-6.94-16.56-13.76c6.58-6.53,12.81-13.32,18.6-20.19q7.59-9,14.28-18.6a234.83,234.83,0,0,0,25.86,17.4c2.61,1.5,5-.91,5.11-3.51a2.94,2.94,0,0,0-.25-1.47,7.58,7.58,0,0,0-2.22-2.07c-1-.8-2-1.59-2.92-2.37q-2.94-2.36-5.9-4.68-5.92-4.62-11.92-9.17c-.21-.16-2.53-1.89-2.51-1.92a284.15,284.15,0,0,0,29-58.8C378.26,330.61,372.42,329.05,371.09,332.68ZM294.46,259c1.66,1.78,3.32,3.57,5,5.33,10.42,10.82,21.27,21.83,32.62,32.24q-18.51,25.75-39.32,49.72-14.65-14-28.49-28.88-4.12-4.43-8.12-8.95C269.66,292.62,282.49,276.12,294.46,259Zm-7.23,93.54q-7,7.83-14.2,15.44c-7.12,7.46-14.46,14.6-22,21.54-7.49-6.94-14.84-14.08-22-21.54-4.83-5.06-9.54-10.22-14.2-15.43q15.3-14.82,29.53-30.68,3.34-3.73,6.63-7.51,3.28,3.78,6.63,7.51Q271.92,337.77,287.23,352.57Zm-36.16-149.7a340.3,340.3,0,0,0,38.36,50.68q-18,25.49-38.36,49.17-20.46-23.62-38.36-49.17A339.62,339.62,0,0,0,251.07,202.87Zm-81,93.73c11.36-10.41,22.2-21.42,32.62-32.24,1.69-1.76,3.34-3.55,5-5.33,12,17.1,24.8,33.6,38.31,49.46q-4,4.51-8.11,8.95-13.8,14.87-28.5,28.88Q188.56,322.41,170.06,296.6Zm28.52,137.9a235.19,235.19,0,0,1-17.73-18.22q-8.31-9.55-15.73-19.84c9-7.17,17.71-14.72,26.22-22.15q9-7.87,17.69-16.09c4.3,4.93,8.66,9.82,13.11,14.62,7.14,7.69,14.5,15.41,22.07,23C229.37,409.15,214,421.8,198.58,434.5Zm52.49,40.2c-15.64-10.59-30.79-21.3-44.88-33.41a452.5,452.5,0,0,0,44.88-38.7A451.18,451.18,0,0,0,296,441.29C281.86,453.4,266.72,464.11,251.07,474.7Zm70.22-58.42a235.19,235.19,0,0,1-17.73,18.22c-15.43-12.7-30.79-25.35-45.63-38.69,7.57-7.59,14.93-15.3,22.07-23,4.46-4.8,8.81-9.69,13.12-14.62q8.69,8.21,17.69,16.09c8.5,7.43,17.21,15,26.22,22.15Q329.61,406.7,321.29,416.28Z"/><path class="pineapplecls-4" d="M337.36,138.71a72.21,72.21,0,0,0-48.07-3.29,95.21,95.21,0,0,0-41.57,25.35c-18.33-21.62-48.52-28.06-75.82-23.87-3.43.53-5,2.74-1.51,2.57,27.16-1.39,54.43,8.66,75.42,26.24h0a2.59,2.59,0,0,0,4.17.56c11.43-11.68,26.8-19.76,42.56-24.1,16.44-4.52,22-3.92,44-1.05C340.08,141.58,340.72,140.2,337.36,138.71Z"/><path class="pineapplecls-4" d="M193.62,89.39c18.51,9.73,39,19.6,50.54,37.93,1.23,2,4.55,2.89,6.21.8,8.46-10.59,18.14-19.47,30.18-25.85,12.36-6.55,21.67-12.42,37.2-16.19,4.18-1,5.14-1.77,1.06-2.12-13.28-1.13-29,5.73-40.41,11.82a116.52,116.52,0,0,0-30.35,23.1c-12.45-17.38-28.94-23.6-50.81-30.54C194,87.31,190.62,87.82,193.62,89.39Z"/><rect class="pineapplecls-5" width="512" height="512"/></g></g></svg>