<svg xmlns="http://www.w3.org/2000/svg" viewBox="0 0 512 512"><defs><style>.pinto-beanscls-1{fill:#4a2d2d;}.pinto-beanscls-2{fill:none;}</style></defs><g id="Capa_2" data-name="Capa 2"><g id="bocetos"><path class="pinto-beanscls-1" d="M158.71,230.92c8.3,1.12,17.4-.62,25-2.47,15.17-3.7,29.59-10.19,43.48-17.22,7.39-3.75,15.51-8.11,18.94-15.23,35.65-9.77,58.37-47.14,40.49-81.84-18.46-35.8-58.95-44.74-95.94-41.95-45.11,3.39-90.72,17.23-128.74,42C44.9,125.24,28,138.71,20,158c-7.42,18-5.34,39.53,6.07,55.44C55.52,254.51,113.75,249.61,158.71,230.92ZM235.28,194a2.76,2.76,0,0,0-.64.58,58.25,58.25,0,0,1-11.17,7.1,267.74,267.74,0,0,1-25.4,11.89,142.88,142.88,0,0,1-26.42,7.73,50.31,50.31,0,0,1-12,1.26c10.39-23,35.44-36.93,60.31-37.25a70.28,70.28,0,0,1,11.86.86c2.71.43,5.32,1.28,8,1.92A20.59,20.59,0,0,1,235.28,194Zm5.6-8.32a46.15,46.15,0,0,0-7.3-1.71,82.12,82.12,0,0,0-31.92.68,66.62,66.62,0,0,0-34.36,21.7,60.48,60.48,0,0,0-9.78,16,15.83,15.83,0,0,1-2.19-.5c-9.48-2.93-9.66-12.79-4.12-19.53,11-13.39,29.07-20.74,45.57-24.21a135.38,135.38,0,0,1,24.8-3.13c5.3-.11,10.85.32,15.27,3.56a10.09,10.09,0,0,1,4.29,6.7A3.54,3.54,0,0,0,240.88,185.7ZM46.15,217.21C31.33,205.39,23.24,186.41,27,167.53c3.68-18.26,18.08-31.2,32.67-41.46,31-21.81,66.37-34.69,103.45-41.6,34-6.34,74.52-9.33,102,15.77,12.89,11.79,22.07,29,19,46.88-3.31,19.24-18.36,33.31-35.94,40.07a17.09,17.09,0,0,0-1.41-8c-4.84-11-17.16-13.49-28.07-13-25.3,1.22-58.07,9.74-74.08,31-6.37,8.44-8.28,19.6-.22,27.28C111.75,233.3,74.72,240,46.15,217.21Z"/><path class="pinto-beanscls-1" d="M106.3,127.66c-5.74,3.13-8.85,9.55-10.17,15.67s-2.36,15.88,5.25,18.31c6.45,2.05,13.13-2,16.2-7.6s4.3-13.63,2.2-19.8C118,128.93,111.72,124.7,106.3,127.66Z"/><path class="pinto-beanscls-1" d="M72,129.21a6.22,6.22,0,0,0-5.22.83c-3.25,1.93-6.47,7.31-5.41,11.22.67,2.48,4.42,2.8,6.46,2.27a10.11,10.11,0,0,0,6.68-6.05C75.64,134.63,75.26,130.45,72,129.21Z"/><path class="pinto-beanscls-1" d="M61,178.73c-3.57-4.07-8.53-9.4-14.48-8.9-3.62.31-5.59,3.25-6.2,6.58A35.65,35.65,0,0,0,43.5,198c3.07,6.16,9.39,13.07,16.91,12.64,7.93-.46,11-9.09,9.52-15.88C68.57,188.7,65,183.34,61,178.73Z"/><path class="pinto-beanscls-1" d="M158.56,117.56c8.08,4.21,18.76,2,26.71-1.35a63.75,63.75,0,0,0,12.54-7.08c3.39-2.45,6.63-5.58,7.22-9.93.53-3.89-1.23-7.72-5-9.11-4.17-1.52-9,.13-13.11,1.19-6,1.59-12,3.36-17.93,5.42A23.62,23.62,0,0,0,156.66,106C154.18,109.93,153.92,115.14,158.56,117.56Z"/><path class="pinto-beanscls-1" d="M240.81,124.32c6.56,3.9,14.69,5.17,21.74,1.77,2.92-1.41,3.74-4,3.45-6.69a18.7,18.7,0,0,0-4-8.89c-4.44-5.46-12.51-8.12-19.33-8.65-5.44-.43-14.9,1.39-14.41,8.62a11.48,11.48,0,0,0,3.62,7A45.34,45.34,0,0,0,240.81,124.32Z"/><path class="pinto-beanscls-1" d="M252.71,154c-2.26,3.3-4.47,10.13,1.26,11.18a14.41,14.41,0,0,0,12.48-4c2.78-2.79,4.92-7.38,3.77-11.36a4.65,4.65,0,0,0-4.11-3.64C261.34,145.78,255.27,150.27,252.71,154Z"/><path class="pinto-beanscls-1" d="M313,208.92a8,8,0,0,0-6.59,2.51,17.63,17.63,0,0,0-4.44,7.81c-.52,1.77-.71,3.89.36,5.51a6.87,6.87,0,0,0,4.76,2.68,9.69,9.69,0,0,0,9.05-3.3,13.71,13.71,0,0,0,2.26-5.78,10.43,10.43,0,0,0-.08-5.57A6.27,6.27,0,0,0,313,208.92Z"/><path class="pinto-beanscls-1" d="M371.68,190.6c-2-3.53-6.64-5.44-10.37-6.37a35.31,35.31,0,0,0-14-.36c-6.16,1-13.09,2.27-18.22,6.14a11.3,11.3,0,0,0-4.81,7.8c-.37,4.5,3.67,7,7.37,8.4,8.48,3.2,18.3,4.18,26.92.95C364,205.1,375.86,198,371.68,190.6Z"/><path class="pinto-beanscls-1" d="M363.23,239.78c-5.5,4.79-8.37,14.89-8,21.93s3.66,15.8,11.24,17.7c8,2,15.3-3.66,17.77-11,2.68-8,0-17.53-4.85-24.15C375.93,239.49,368.56,235.14,363.23,239.78Z"/><path class="pinto-beanscls-1" d="M446.94,244.27c-8.38,2.47-14,12.06-13,20.54A19.78,19.78,0,0,0,448.44,282c7.66,2,17.65-.23,21.77-7.57,4.55-8.1.26-19.46-6.12-25.29C459.48,244.86,453.14,242.45,446.94,244.27Z"/><path class="pinto-beanscls-1" d="M447.73,300c-6.4-3.13-12.68,3.75-15.37,8.81-2.82,5.28-4.46,12.82-1,18.23a7.41,7.41,0,0,0,8,3.42c3.38-.79,6.07-3.59,8.18-6.19a22.21,22.21,0,0,0,5.16-10.56,18,18,0,0,0-.88-8.95A8.65,8.65,0,0,0,447.73,300Z"/><path class="pinto-beanscls-1" d="M441.19,210.29c.53-4.53-4.5-7.11-8.32-7.56-4-.46-8,2.41-7.85,6.61.09,3.69,3.64,6.71,7.14,7.13C436.14,217,440.68,214.55,441.19,210.29Z"/><path class="pinto-beanscls-1" d="M109.54,296.74c-3.21,2.69-6.48,6.39-6.56,10.81-.07,4.79,3.6,7.42,7.9,8.34a32.42,32.42,0,0,0,19.91-2c7.33-3.47,11-12.48,4.24-18.72C127.77,288.53,116.46,290.92,109.54,296.74Z"/><path class="pinto-beanscls-1" d="M115,325.76c-3.23-1-6.72.79-9.23,2.75a5.08,5.08,0,0,0-2.2,4.07,4.89,4.89,0,0,0,1.32,3.05,7,7,0,0,0,5.67,2.39c3.13-.27,6.71-2,8.06-5a5,5,0,0,0-.11-4.58A6,6,0,0,0,115,325.76Z"/><path class="pinto-beanscls-1" d="M222,299c-6.13-1.73-12.3,1.3-15.63,6.51a23.85,23.85,0,0,0-3.29,12.6,9.78,9.78,0,0,0,2,6.41,9.14,9.14,0,0,0,5.08,2.78,16.6,16.6,0,0,0,19.77-13.18C231.14,307.77,228.64,300.87,222,299Z"/><path class="pinto-beanscls-1" d="M240.25,336.87c-5.75,1.75-6.32,8.68-4,13.32A22,22,0,0,0,242,357a13.34,13.34,0,0,0,7.57,3.15,14.21,14.21,0,0,0,13.53-7.64c1.65-3.46.63-6.42-1.55-8.73a15.7,15.7,0,0,0-3.84-2.88C252.92,338.27,245.6,335.24,240.25,336.87Z"/><path class="pinto-beanscls-1" d="M247.94,373.4c-2-.91-4.58-1.49-6.59-.32s-2.6,3.36-2.82,5.46a13.19,13.19,0,0,0,1.07,5.84,15.46,15.46,0,0,0,3.27,5.05c2.72,2.82,7.73,5.66,11.29,2.58,3-2.61,3-6.49,1.47-10.09S250.91,374.75,247.94,373.4Z"/><path class="pinto-beanscls-1" d="M209.41,386.31c-4.46-1-10.67.48-11.06,5.91a16.15,16.15,0,0,0,2.09,8,18.36,18.36,0,0,0,4.3,5.67,13.21,13.21,0,0,0,6.83,3.13c2.6.37,5.82.73,8.15-.77,4.51-2.9,3.95-9.09,1.28-13S214.36,387.39,209.41,386.31Z"/><path class="pinto-beanscls-1" d="M494.83,249.06c-3.8-19.84-16-37.46-31.25-50.4-33.75-28.67-85.41-38.6-128.33-29.45-24.7,5.26-41.57,21.69-51.9,44.25-4.62,10.11-7.69,21.89-6.33,33.06.9,7.4,4.13,13.57,8.37,19.15a4.34,4.34,0,0,0,.37.79c22.64,38.17,42.44,86.82,92.18,92.48,22,2.5,45.13,1.49,65.81-6.84,20.07-8.1,34.59-23.52,42.91-43.37C494.58,289.85,498.75,269.52,494.83,249.06Zm-145,90.6c-8.26-5.55-15.17-13.18-21-21.15-8.11-11-14.06-23.43-20.88-35.25-1.52-2.62-3.13-5.14-4.78-7.62a25.58,25.58,0,0,1,16.9,5.47c6.16,4.6,11.18,10.46,15.65,16.68a78.82,78.82,0,0,1,11.23,20.82,61.85,61.85,0,0,1,2.7,12,44.87,44.87,0,0,1,.48,6.54A19.33,19.33,0,0,1,349.82,339.66Zm13.21-.51a61.76,61.76,0,0,1-2,6.17,50.66,50.66,0,0,1-6.79-3,38.6,38.6,0,0,0,1-8,40,40,0,0,0-.82-11.39,62.48,62.48,0,0,0-8.06-19.75,104.32,104.32,0,0,0-13-16.65c-4.55-4.82-9.55-9-15.72-11.57-5-2.06-11-3.25-16.47-2.09q-1.49-2.17-3-4.32c21.21-4.48,37.46,7.85,49.56,25.31,5.64,8.14,11.06,17,14,26.49C363.7,326.39,364.46,332.91,363,339.15Zm116.89-36.87c-7,16.41-21,32.47-36.75,40.91-17.91,9.6-39.7,8.41-59.25,6.54a122.26,122.26,0,0,1-15.79-2.35c3.43-6.55,2.87-15.82,1.57-22.52-2.62-13.49-10.49-27-18.63-37.87-12.35-16.49-35.39-31.65-56.36-23.36-.72-1-1.43-2-2.16-3-4.91-6.76-8.46-14-7.95-22.55.56-9.24,4.68-17.85,9-25.87,10.24-19.13,25.26-31.26,46.62-35.67,20.56-4.25,42.06-2.27,62.33,2.6,18.85,4.53,37.23,11.79,52.2,24.41C483,227.41,494.66,267.68,479.92,302.28Z"/><path class="pinto-beanscls-1" d="M226.48,279.92c-14.46-5-29.58-7.73-44.74-9.51-22.49-2.63-46.46-5.75-67.13,5.94A62.82,62.82,0,0,0,84,319.13a65.16,65.16,0,0,0,13.91,53.39c13.34,16,32.32,27.05,49.25,38.73,17.75,12.24,36.55,24.5,58.22,28.08a74.2,74.2,0,0,0,55.29-13.4c32.37-23.59,36.11-69.48,18.73-103.39C268.53,301.27,248.64,287.59,226.48,279.92ZM268.27,404.5c-10.77,15.26-28.64,24.22-47.15,24.86-18.26.64-35-6.7-50.39-15.92s-30.46-20-45.12-30.56C111.52,372.71,96.93,360,92.12,342.54c-6-21.61,3.2-44.74,21.64-57.15a54.34,54.34,0,0,1,23.15-8.54c9.32-1.28,18.82-.08,28,1.55s18.31,3.11,27.49,4.57c13.67,2.19,27.4,5.1,40.12,10.72a84.62,84.62,0,0,1,22.73,14.55C281,331.55,288.79,375.42,268.27,404.5Z"/><path class="pinto-beanscls-1" d="M202.25,144.72a6.25,6.25,0,0,0,3.77,3.7c3.48,1.46,9.72.84,12.23-2.33,1.6-2-.38-5.23-2-6.55a10.05,10.05,0,0,0-8.83-1.76C204.44,138.56,201.3,141.35,202.25,144.72Z"/><rect class="pinto-beanscls-2" width="512" height="512"/></g></g></svg>