<svg xmlns="http://www.w3.org/2000/svg" viewBox="0 0 512 512"><defs><style>.plumcls-1{fill:#4a2d2d;}.plumcls-2{fill:#72ab4c;}.plumcls-3{fill:#754680;}.plumcls-4{fill:#fec48c;}.plumcls-5{fill:#945031;}.plumcls-6{fill:#fff;}.plumcls-7{fill:none;}</style></defs><g id="Capa_2" data-name="Capa 2"><g id="bocetos"><path class="plumcls-1" d="M410.44,251c3-4.1,5.77-8.44,8.88-12.41a21.39,21.39,0,0,1,4.42-4.58,8.74,8.74,0,0,1,3-1.47c1.59.25,1.84,0,.75-.8.13,3.53-4.34,9.15-6.42,11.47-3,3.32-6.7,4.92-9.94,7.74-2.57,2.23-1,6.89,2.2,6.42,5.86-.87,11.59-6.62,15.33-11.56,3.37-4.45,9.26-13.3,5.52-19-3.33-5.07-10.25-3-14.35,0-6.34,4.56-10.6,12.63-14.82,19.38-2.63,4.2,2.45,8.86,5.39,4.83Z"/><path class="plumcls-2" d="M121.13,118.63s5.93-68.76,59.35-72.71S276.93,78.07,276,82s-28.69,51.45-73.7,58.86S121.13,118.63,121.13,118.63Z"/><path class="plumcls-1" d="M149.41,199.43c4.76-22-6.07-47.82-16.74-66.74A150.71,150.71,0,0,0,110,102.27c-6.22-6.45-14.66-14.94-24.49-14-7.14.66-11.83,6.47-9.14,13.47,2.15,5.63,8,10.15,11.93,14.36,4.81,5.09,9.65,10.15,14.44,15.26a127.33,127.33,0,0,1,23.31,34.1c6,13.05,8.21,26.75,10.55,40.79.59,3.56,6,2.54,6.1-.83.55-18.59-6.13-38.14-15.24-54.16-6.25-11-14.86-20.32-23.8-29.18-3.39-3.36-6.89-6.6-10.31-9.93-3.19-3.1-6.72-6.3-9.3-9.93-1.34-1.88-1.92-5,0-6.67a5.31,5.31,0,0,1,4.59-.81c3.66.75,6.76,3.13,9.56,5.48a102.39,102.39,0,0,1,9,8.92,149.41,149.41,0,0,1,19.07,25.67,151.52,151.52,0,0,1,13.22,29.15c3.51,10.54,8.34,23.44,6.38,34.55C145.49,200.73,148.91,201.75,149.41,199.43Z"/><path class="plumcls-3" d="M145.65,191.24c5.44-3.89,24.49-34.2,73.85-22.54S279.36,253.43,279,276.75s1.55,122.43-78.12,141.09S52.36,366.19,43,303.18c-9.72-65.69,17.81-93.84,44.31-105.33C119.61,183.85,140.21,195.13,145.65,191.24Z"/><path class="plumcls-1" d="M124.61,120.44c15.67-14.66,32-26.2,52.41-33.43,20.1-7.14,38.86-6.84,59.76-6.13a1.91,1.91,0,0,0,.5-3.73c-19.72-4.83-43.89-.81-62.81,5.71-19.66,6.77-39.33,18.61-52.73,34.71-1.65,2,.93,4.69,2.87,2.87Z"/><path class="plumcls-3" d="M216.59,360s2.06,48.33,24.68,74.94C267.7,466,319,481.68,372.89,461.9S454.51,387.21,458,357.53s4.16-59.89-12.45-80.3C429.92,258.08,216.59,360,216.59,360Z"/><path class="plumcls-4" d="M401.58,240.8s-16.82-21.76-44-22.26-74.2,16.82-95,41.55S217.08,318.46,219.06,364s43.53,72.22,79.14,76.17S367,441.62,408,402.54c24.67-23.48,43.29-57.2,44.81-91.8.8-18.48-5-44.44-24.53-51.64C417.26,255,405,245.25,401.58,240.8Z"/><path class="plumcls-5" d="M302,379.65c23.08,1.82,42.31-9.2,57.81-25.73,8.3-8.86,15.4-19.87,18.41-31.75s4.21-25.91-1.16-37.33c-1.63-3.49-10.05-4.4-13.48-5a66.16,66.16,0,0,0-14.74-.83,77.57,77.57,0,0,0-28.81,7.43c-17.94,8.45-33.38,23.48-40.27,42.29a60.87,60.87,0,0,0-2.91,10.86C273.55,359.09,280.43,378,302,379.65Z"/><path class="plumcls-1" d="M310.23,316.56c9.59-8.69,19.75-14.92,32.75-16.77,3.08-.44,1.77-5.11-1.29-4.68-13.3,1.87-26.35,8.17-34.43,19.16C305.93,316.07,308.72,317.93,310.23,316.56Z"/><path class="plumcls-1" d="M297.35,358.49c4.4-21.25,26.62-34.67,44.4-43.85,1.77-.91.55-3.94-1.37-3.26-19.56,7-42.8,24.51-47,46C292.91,360,296.82,361.08,297.35,358.49Z"/><path class="plumcls-1" d="M290.8,345.34a45.08,45.08,0,0,1,3.8-9c1.49-2.71,3.53-5.07,5-7.74.9-1.61-1-3.78-2.65-2.65-5.87,4-8.88,11.62-10.05,18.32C286.5,346.77,290.06,347.86,290.8,345.34Z"/><path class="plumcls-1" d="M336.36,339.64a99.3,99.3,0,0,1-27.2,16.79c-2.39,1-.67,5.18,1.78,4.23,19-7.39,40.56-22,48.48-41.59.78-1.94-2.18-3.55-3.5-2C349.3,324.63,344,332.91,336.36,339.64Z"/><path class="plumcls-1" d="M357.1,301l.16,0h.08c.41.16.85.23,1.28.35a2.63,2.63,0,0,0,2.94-3.83,4.52,4.52,0,0,0-2.81-2.1,6.5,6.5,0,0,0-3.19,0A2.89,2.89,0,1,0,357.1,301Z"/><path class="plumcls-6" d="M97.36,216.29A49.51,49.51,0,0,0,65.5,245.1c-5.62,13.37-9.64,37.85,1.31,49.5,2.86,3,7.49,1.23,8.75-2.31,2-5.68.65-11.17.36-17.06a62.94,62.94,0,0,1,2.32-21.33c3.29-11,11.33-22,22.23-26.33,6.83-2.69,4.23-13.56-3.11-11.28Z"/><path class="plumcls-6" d="M77.28,321.3l.91.28a3.82,3.82,0,0,0,4.71-4.71l-.28-.92A4.27,4.27,0,0,0,81.5,314a4.34,4.34,0,1,0-4.22,7.26Z"/><path class="plumcls-1" d="M275.08,242.85c-13.9,7-23.94,19-33,31.25a170.83,170.83,0,0,0-23.63,43,134,134,0,0,0-7.81,47.07c.2,15,2.56,33.06,11.11,45.8,1.69,2.53,6.19,1,5.16-2.17-5-15.35-9.68-28.64-9.89-45.11A129.26,129.26,0,0,1,223.56,320c9.32-27.77,29.3-56.85,53.93-73a2.39,2.39,0,0,0-2.41-4.12Z"/><path class="plumcls-6" d="M336.45,239.77l1.14.51a11.57,11.57,0,0,0,1.52.65,5,5,0,0,0,2.66,0,4.44,4.44,0,0,0,2.63-6.44,5.06,5.06,0,0,0-1.79-1.83,8.59,8.59,0,0,0-1.53-.62l-1.18-.42a3.4,3.4,0,0,0-1.79-.08,3.32,3.32,0,0,0-1.66.53,4.73,4.73,0,0,0-1.84,2.14,4.42,4.42,0,0,0,1.84,5.6Z"/><path class="plumcls-6" d="M324.43,248.76h1.17a4.45,4.45,0,0,0,2.25-.59l.8-.62a3,3,0,0,0,.83-1.29,2,2,0,0,0,.27-1,3,3,0,0,0-.07-1.6,5.41,5.41,0,0,0-1.38-2.29l-.53-.68a4.76,4.76,0,0,0-2.09-1.22,4.86,4.86,0,0,0-2.51,0,4.73,4.73,0,0,0-2.08,1.22,3.57,3.57,0,0,0-1,1.52,3.51,3.51,0,0,0-.4,1.81,4.75,4.75,0,0,0,.64,2.39,4.8,4.8,0,0,0,4.08,2.34Z"/><path class="plumcls-6" d="M358.88,409.76l1.48.3a3.12,3.12,0,0,0,3.83-3.83l-.3-1.48A4.09,4.09,0,0,0,361,401.9a4.08,4.08,0,0,0-5,5,4.09,4.09,0,0,0,2.85,2.85Z"/><rect class="plumcls-7" width="512" height="512"/></g></g></svg>