<svg xmlns="http://www.w3.org/2000/svg" viewBox="0 0 512 512"><defs><style>.pomegranatecls-1{fill:#ef2b45;}.pomegranatecls-2{fill:#ffdab7;}.pomegranatecls-3{fill:#fff;}.pomegranatecls-4{fill:#4a2d2d;}.pomegranatecls-5{fill:none;}</style></defs><g id="Capa_2" data-name="Capa 2"><g id="bocetos"><path class="pomegranatecls-1" d="M311.06,211.2c-6.22-17.39-20.27-57.42-34.54-65.31s-66.81-13.13-74.31-21.39-7.88-23.27,3-33A30.16,30.16,0,0,1,228.86,84s-2.63-13.13-16.14-12.76-25.53,15.39-25.53,15.39,3-18.77,7.51-25.9,7.51-9,6-9.38-14.64,3-22.9,17.64-8.63,21-8.63,21,0-18.39-10.14-27-17.64-9.75-18.39-8.63,7.88,10.14,9.76,20.65,1.13,13.13,1.13,13.13-6.38-15-18-14.64S112.88,82.09,114.75,84s15.39-2.62,23.65,9,9,31.15,8.26,33S78,145.89,68.59,158.28s-33.78,58.93-33.78,86.33,15,73.94,31.15,87.45,63.43,37.91,112.23,36S249.88,358,276.9,339.57,320.33,237.14,311.06,211.2Z"/><path class="pomegranatecls-1" d="M343,173.29s6.76,1.51,15.76,7.51,8.64,12,8.64,12,2.25-12.76,12.38-18.39,15-3,15-3-7.13,6.75-9.39,11.63a36.38,36.38,0,0,0-2.62,6.76s14.26-4.13,23.64.37,10.14,7.51,10.14,7.51-18,.75-22.52,8.26-5.26,9.38-3,12.76,44.29,33,59.68,49.92,25.15,54.8,8.26,94.21-50.67,89-119.36,92S204.46,392.12,197,368.1s-10.13-52.18.75-77.32,31.91-61.94,63.44-77.32,75.06-4.51,82.95-7.89S346,175.55,343,173.29Z"/><path class="pomegranatecls-2" d="M442.42,295.8q-.9-2.21-1.94-4.33c-4.26-8.75-10.23-16.54-16.8-23.67-3.3-3.59-6.76-7-10.27-10.41a75.16,75.16,0,0,0-10.34-8.67c-3.43-2.29-7.08-4.53-10-7.36A49.51,49.51,0,0,1,381.26,224c-3.51-9-1.27-17.62,1.81-26-6.64,4.06-12.3,11.25-16.23,18.11a2.35,2.35,0,0,1-4.34-1.18A69.36,69.36,0,0,0,360.36,200a24.56,24.56,0,0,1-9,15c-6.87,5.35-15.87,5.33-24.17,5.48-12.14.24-24,.56-35.66,4.35a99.52,99.52,0,0,0-31.89,17.47c-16.63,13.51-28.47,31.75-36.89,51.28-9.47,22-16.35,46.78-3.75,68.94,10.14,17.82,28.39,31.52,44.7,43.35A115,115,0,0,0,331.41,428c21.68.13,47.79-4.55,66.18-16.58,17.19-11.24,29.11-29.48,39.34-46.88,6.6-11.23,11.67-22.34,11.92-35.61A86.55,86.55,0,0,0,442.42,295.8Zm-64-42.23a10.07,10.07,0,0,1,10.65-5.48c4.25.57,7.45,3.09,11.12,5,3.3,1.71,7.16,2.89,9.6,5.87a12.57,12.57,0,0,1,2.65,7,20.91,20.91,0,0,1-5,14.73c-6.07,7.13-18.81,17.51-28,9.57C370,282,373.3,263.2,378.45,253.57Zm2.79,42.15c7.45,3.47,12,11.74,14.52,19.2a29.26,29.26,0,0,1,1.6,10.58,26.35,26.35,0,0,1-8.83,19c-10.41,9-20.09,2.37-26.92-7.54-7.08-10.28-14-29.69-1.7-38.69A21.11,21.11,0,0,1,381.24,295.72Zm-47.92-24.67c.26-2.86.48-5.72.75-8.57a100.14,100.14,0,0,1,2.82-17.21c1.42-5.14,2.78-11.85,8-14.47,10.48-5.26,21.86,4.32,24.95,14,3.39,10.64,1.82,30.46-9.95,35.54A27.25,27.25,0,0,1,344,281.93c-3.32-.69-7-1.93-9.36-4.52C333,275.57,333.12,273.33,333.32,271.05Zm-35.45,30.57c1.91,4.61,2.13,10.73,2.28,15.65.2,6.67-.93,14.13-6.72,18.32-6.7,4.84-17.9,5.94-23.18-1.41s-6.13-22.42-1.89-30.32c3.29-6.15,10.38-8.27,17-7.95C289.91,296.13,295.86,296.8,297.87,301.62Zm-8.05-28.16c2.4-4.81,8.25-6.66,13.17-7.5,8.85-1.52,20.7-2.76,24.58,7.57,1.65,4.41.79,9.54-3.57,12-7,4-20.57,9.18-28.73,6.87-3.64-1-5.19-3.66-5.74-7.17C289,281.56,288,276.89,289.82,273.46ZM292,340.7c5.15-5.93,15.84-9.5,22.11-3.21,2.54,2.55,2.13,5.39,1.42,8.63C314,353.17,310,360.74,302.18,362c-7.11,1.1-13.45-4.85-13.56-11.89A13.87,13.87,0,0,1,292,340.7Zm18.87-14.1c-6.67-6.28-9.85-22.17-3-29.23,4.35-4.48,10.71-6.16,16.72-6.89a89.82,89.82,0,0,1,9.7-.55c3.64,0,8-1.33,11.29.82,2.29,1.51,3,4,3.81,6.47a22.72,22.72,0,0,1,.89,9.45,23.25,23.25,0,0,1-9.06,15.89C333.07,328.68,319.71,334.91,310.89,326.6Zm-25.45-93.76c4.32-5.28,11.7-6.32,18.12-6.22a89.29,89.29,0,0,1,19.31,2.66c3.11.74,5.83,1.72,7.4,4.7a14.4,14.4,0,0,1,1.12,8.42c-.65,5.28-3.2,12-8,14.84-8.3,4.94-24.93,7.57-33.54,1.93C282.05,254.07,279.43,240.18,285.44,232.84Zm-41.17,34.82c1-10.58,9-23.42,21.23-20.94,7.17,1.46,11.24,8.73,13.38,15.1,2.46,7.29,4.1,16.38-.17,23.31a18.06,18.06,0,0,1-16.07,8.37C251.25,293.13,243.31,277.65,244.27,267.66Zm-18.84,68.67c-11.86-5.58-6.1-19.29-1.77-28.64,2.52-5.45,6.84-11,12.12-14.12,3.64-2.12,7.82-2.25,11.84-1.36,3.06.67,6.07,1.5,8.28,3.83a25.61,25.61,0,0,1,4.31,7.28,26.18,26.18,0,0,1,2.31,11.6,33.92,33.92,0,0,1-5,16.89C250,343.88,236.8,341.68,225.43,336.33Zm22.39,45.93c-9.4-6.57-17.91-21.38-8.82-31.23,4.22-4.57,8.85-10.17,15.11-11.69,5.89-1.44,13.11.56,18.51,3,5.83,2.66,8.64,8.11,9.88,14.18,1.13,5.56.86,12-2.29,16.93C274,383.05,257.66,389.15,247.82,382.26Zm81.85,14.46c-1.85,5.54-5,11.73-10.8,13.82-6.39,2.3-14.8,1-21.24-.63-8.14-2-28.66-9.63-24.42-20.87a25.92,25.92,0,0,1,13.88-14.62,36,36,0,0,1,22.54-2.77,43.42,43.42,0,0,1,4.63,1.22,30.77,30.77,0,0,1,4.25,1.73,25.66,25.66,0,0,1,7.36,5.42A16.56,16.56,0,0,1,329.67,396.72Zm-12.16-40.33a24.74,24.74,0,0,1,2.66-10.3c5.4-10,17.85-10.23,27.48-7.35a48.18,48.18,0,0,1,15.51,8c3.74,2.89,8.82,6.56,9.42,11.64a9.18,9.18,0,0,1-.17,3.14c-.77,3.56-3.4,6.79-6,9.07-8.09,7.14-20.52,9-30.8,6.67S316.83,367.57,317.51,356.39Zm57.11,47.82c-3.26,12-18,11.58-28,11.33-4.8-.11-10,.18-13.09-4.13-2.75-3.85-1.9-9.38-1-13.7,1.42-6.68,6.54-11,12.64-13.49,4.83-2,11.3-4.57,16.61-3.65a13.11,13.11,0,0,1,1.64.41,16.6,16.6,0,0,1,9.41,8.39A21.35,21.35,0,0,1,374.62,404.21Zm44.68-28.54a18.15,18.15,0,0,1-3.24,7.53,36.13,36.13,0,0,1-12.72,10.89c-5.12,2.72-11.43,5-17.32,3.81-5.45-1.1-7.46-5-9.64-9.75-5.42-11.86-2.21-22.17,7.71-30.44,5.16-4.29,12-4.38,18.16-2.36,4.8,1.59,10,4.39,13.37,8.34A14.41,14.41,0,0,1,419.3,375.67ZM434,342.05c-3.55,7.71-11.4,17-21,14-7.41-2.29-13.26-14.05-11.42-21.37a11.29,11.29,0,0,1,7-8c3.61-1.38,8.57-1.52,12.48-1.37l.47,0c4.18.19,8.5,1.37,11.21,4.78A11.3,11.3,0,0,1,434,342.05Zm.63-28.21c-5.5,7.2-21.26,7.42-29.14,5.09-9.25-2.72-10.74-11.28-5.51-18.85,1.84-1.84,3.19-4.11,5.14-5.9a35.61,35.61,0,0,1,6.27-4.58c4.13-2.38,9.09-4.56,14-3.87,3.61.5,5.21,3.55,6.92,6.39a38.82,38.82,0,0,1,3.49,7.3C437.43,304.15,437.86,309.64,434.66,313.84Z"/><path class="pomegranatecls-3" d="M299.63,250c.33-.23.64-.47,1-.71a2.22,2.22,0,0,0,.53-.43,4.62,4.62,0,0,0,1.21-2.08l.08-.21a5,5,0,0,0-.45-3.45l-.7-.9a4.53,4.53,0,0,0-2-1.15l-.24-.07-1.25-.17c-.45.05-.89.11-1.33.18-.19.05-.37.12-.55.18a4.78,4.78,0,0,0-2.13,1.24l-.75,1a4.76,4.76,0,0,0-.66,2.44,3.57,3.57,0,0,0,.41,1.85,3.71,3.71,0,0,0,1,1.56,3.56,3.56,0,0,0,1.55,1,3.63,3.63,0,0,0,1.86.42,4.72,4.72,0,0,0,2.43-.66Z"/><path class="pomegranatecls-3" d="M356.08,251.72c.17-.16.34-.33.5-.5a5.65,5.65,0,0,0,1.43-2.47c0-.1.07-.19.1-.29a5.15,5.15,0,0,0,0-2.7,5.14,5.14,0,0,0-3.54-3.54,5.15,5.15,0,0,0-2.7,0l-.29.1a5.65,5.65,0,0,0-2.47,1.43c-.17.16-.34.33-.5.5a4,4,0,0,0-1.1,1.7,4.83,4.83,0,0,0,0,4.07,3.92,3.92,0,0,0,1.1,1.7l1.07.83a5.18,5.18,0,0,0,2.66.72l1.41-.19a5.25,5.25,0,0,0,2.33-1.36Z"/><path class="pomegranatecls-3" d="M257.75,272a11.12,11.12,0,0,0,1.91-.27,6.51,6.51,0,0,0,2.59-1.51,5.29,5.29,0,0,0,2-4.15,4.76,4.76,0,0,0-1.3-3.33,4.38,4.38,0,0,0-3.21-1.28,5.54,5.54,0,0,0-2.7.67,6.37,6.37,0,0,1-.73.39l1.17-.49c-.69.27-1.37.58-2.05.88l1.16-.5-.13.06a5.45,5.45,0,0,0-2.9,2.23,5,5,0,0,0-.58,3.09,4.62,4.62,0,0,0,1.34,2.79,4.74,4.74,0,0,0,3.43,1.42Z"/><path class="pomegranatecls-3" d="M302.24,284.57c5.78,0,5.79-9,0-9s-5.8,9,0,9Z"/><path class="pomegranatecls-3" d="M320.82,314.61c6.75,0,6.76-10.51,0-10.51s-6.77,10.51,0,10.51Z"/><path class="pomegranatecls-3" d="M283.38,305.56a6.36,6.36,0,0,0-3-.76,6.27,6.27,0,0,0-3,.83,5.78,5.78,0,0,0-2.19,2.2,6.76,6.76,0,0,0-.83,3.09,4,4,0,0,0,.46,2,3.9,3.9,0,0,0,1.08,1.69l1.07.82a3.82,3.82,0,0,0,1.95.63,2.73,2.73,0,0,0,1.39,0,3.88,3.88,0,0,0,2-.63,5.15,5.15,0,0,0,2.41-3.13c0-.1.05-.19.08-.29l-.53,1.26a4.08,4.08,0,0,1,.34-.57l-.82,1,.15-.15-1,.8a1.16,1.16,0,0,1,.24-.14l-1.22.51.21-.05-1.34.18h.08l1.33-.18a3.72,3.72,0,0,0,1.71-.9,2.43,2.43,0,0,0,.9-.9,3.82,3.82,0,0,0,.9-1.71,6,6,0,0,0,0-2.67,5.69,5.69,0,0,0-2.31-3Z"/><path class="pomegranatecls-3" d="M239.83,325.12a13.19,13.19,0,0,0-.26-3.32,9,9,0,0,0-1.83-3.39,4.37,4.37,0,0,0-6.13,0,9,9,0,0,0-1.83,3.39,13.19,13.19,0,0,0-.26,3.32,5.16,5.16,0,0,0,10.31,0Z"/><path class="pomegranatecls-3" d="M252.26,365l.29-.08a6,6,0,0,0,3.26-2.5c.13-.17.26-.33.38-.51a3.18,3.18,0,0,0,.57-1.42L257,359a4.83,4.83,0,0,0-.18-1.59,4.75,4.75,0,0,0-.94-1.83,2.73,2.73,0,0,0-.93-.92c-.3-.24-.33-.28-.51-.4a3.88,3.88,0,0,0-1.92-.61,6.42,6.42,0,0,0-.75-.1l-1.4.19-.19.06-1.29.55a1.78,1.78,0,0,0-.66.47,4.2,4.2,0,0,0-1.4,1.53l-.08.1c-.07.1-.15.2-.22.31a1.53,1.53,0,0,0-.35.75,4,4,0,0,0-.47,2.1,1.5,1.5,0,0,0,0,.3,5.23,5.23,0,0,0,.71,2.64,4.09,4.09,0,0,0,1.34,1.46,4,4,0,0,0,1.78.93,5.21,5.21,0,0,0,2.77,0Z"/><path class="pomegranatecls-3" d="M293.3,393.07l.72-.19,1-.44a3.18,3.18,0,0,0,1.2-1.1,2.07,2.07,0,0,0,.55-.95,3.23,3.23,0,0,0,.37-1.65L297,387.6l-.43-1a3.2,3.2,0,0,0-1.11-1.2,3.27,3.27,0,0,0-1.46-.77l-.72-.19a4.5,4.5,0,0,0-4.38,1.15,4.7,4.7,0,0,0-1.31,3.18,3.31,3.31,0,0,0,.39,1.73,3.43,3.43,0,0,0,.92,1.45,4.56,4.56,0,0,0,4.38,1.15Z"/><path class="pomegranatecls-3" d="M339.48,359.89a8.76,8.76,0,0,0,1.6-5.09,4.68,4.68,0,0,0-7-4,8.73,8.73,0,0,0-3.64,3.82,5.45,5.45,0,0,0-.53,4.05,5.31,5.31,0,0,0,2.41,3.14,5.37,5.37,0,0,0,7.19-1.89Z"/><path class="pomegranatecls-3" d="M303.92,353.66c4.85,0,4.86-7.54,0-7.54s-4.85,7.54,0,7.54Z"/><path class="pomegranatecls-3" d="M372.77,318.56c.12-.12.24-.22.37-.33a8.09,8.09,0,0,0,1.17-1.55l-.95,1.22a9.33,9.33,0,0,0,1.08-1.44,15.55,15.55,0,0,0,.68-1.63l-.59,1.4a2.92,2.92,0,0,1,.29-.48l-.87,1.12.24-.25a5.35,5.35,0,0,0-2.36-8.95,7.84,7.84,0,0,0-4.27,0,6.89,6.89,0,0,0-4.82,6.7,6.28,6.28,0,0,0,.8,3l.92,1.19a4.33,4.33,0,0,0,1.89,1.21,5.76,5.76,0,0,0,4.53,0,4.33,4.33,0,0,0,1.89-1.21Z"/><path class="pomegranatecls-3" d="M386.69,283a3.94,3.94,0,0,0,2-.44,5.32,5.32,0,0,0,3.18-4.74l-.18-1.38a5.17,5.17,0,0,0-1.34-2.29l-1.05-.81a5.09,5.09,0,0,0-2.61-.71,3.82,3.82,0,0,0-2,.45,4.64,4.64,0,0,0-2.74,2.74,3.82,3.82,0,0,0-.45,2l.19,1.38a5.12,5.12,0,0,0,1.33,2.28l1.05.81a5.13,5.13,0,0,0,2.62.71Z"/><path class="pomegranatecls-3" d="M414.84,309.94a5.65,5.65,0,0,0,3.59-1.49,3.85,3.85,0,0,0,1.06-1.64,3.78,3.78,0,0,0,.43-2l-.18-1.35a5,5,0,0,0-1.31-2.25l-1-.79a5.17,5.17,0,0,0-2.57-.7,3.87,3.87,0,0,0-2,.44,3.92,3.92,0,0,0-1.64,1.05,3.74,3.74,0,0,0-1.05,1.64,3.79,3.79,0,0,0-.44,2l.18,1.35a5.08,5.08,0,0,0,1.31,2.25l1,.79a5,5,0,0,0,2.57.7Z"/><path class="pomegranatecls-3" d="M416,344.78c5,0,5-7.8,0-7.8s-5,7.8,0,7.8Z"/><path class="pomegranatecls-3" d="M394.73,377.35l-.19-.32a7.44,7.44,0,0,0-.9-1.19l-1.08-.83a2.82,2.82,0,0,0-.64-.28,2.66,2.66,0,0,0-1.32-.35l-.71-.1a3.63,3.63,0,0,0-1.5.22l-.33.14-1.41.59a4.42,4.42,0,0,0-1.66,1.52,2.94,2.94,0,0,0-.76,1.31,2.91,2.91,0,0,0-.41,1.49,4.51,4.51,0,0,0,.11,2.36l.59,1.41.93,1.2a4.48,4.48,0,0,0,1.9,1.22,2.9,2.9,0,0,0,1.49.4,3,3,0,0,0,1.58,0,4.36,4.36,0,0,0,2.19-.7l1.2-.92.92-1.2.6-1.41a4.51,4.51,0,0,0,.11-2.36,4.38,4.38,0,0,0-.71-2.2Z"/><path class="pomegranatecls-3" d="M346.13,406.27c2.43-.85,4.65-2.83,4.5-5.64a4,4,0,0,0-6.87-2.84l-.37.32a6.4,6.4,0,0,0-.91,1.15l.67-.86a3.51,3.51,0,0,1-.55.54l.85-.66a2.73,2.73,0,0,1-.55.32,4.16,4.16,0,0,0-1.93,2.51,4.26,4.26,0,0,0,.21,2.73,4.16,4.16,0,0,0,4.95,2.43Z"/><path class="pomegranatecls-4" d="M275.81,212.47a116.8,116.8,0,0,1,13.67-3.69c2-.42,16.8-3.28,28.33-3.58a4.13,4.13,0,0,0-2.92-3.63c-14-3.5-39.65,1.44-56,9.79-17.29,8.84-33.32,25-45,40.34-17.27,22.57-30.61,46.72-28.56,76.1a130.25,130.25,0,0,0,2.82,19.05,92.9,92.9,0,0,0,5.77,18.23c1.3,2.92,2.67,5.8,4,8.71.45,1,.85,2,1.25,3a3.44,3.44,0,0,0,.94-3.48c-4.51-20-10.45-39.93-8.36-60.76,2-19.58,14.4-38.31,25.58-54.08A175.78,175.78,0,0,1,235.1,236.8c6.8-6.91,14.42-11.55,22.74-16.32A100.54,100.54,0,0,1,275.81,212.47Z"/><path class="pomegranatecls-3" d="M72.91,170c8,10,22.37,19.81,35.8,17.4,4.25-.76,3.17-6.31,0-7.58-5.34-2.13-11-2.72-16.27-5.32a50.84,50.84,0,0,1-13.87-10.16c-3.67-3.78-8.78,1.73-5.66,5.66Z"/><path class="pomegranatecls-3" d="M125.78,194.19l1.4-.39a3,3,0,0,0,0-5.73l-1.4-.39a3.37,3.37,0,1,0,0,6.51Z"/><path class="pomegranatecls-3" d="M258.85,167.82c.52-.3,1-.59,1.55-.91a14.68,14.68,0,0,0,1.87-1.46,3.19,3.19,0,0,0,.5-3.85,3.29,3.29,0,0,0-3.58-1.46,24.65,24.65,0,0,0-4,1.46,3.6,3.6,0,0,0-1.65,2.15,3.6,3.6,0,0,0,5.29,4.07Z"/><path class="pomegranatecls-4" d="M117.73,88.39c9.3-1,17.14,4.47,21.31,12.58,3.88,7.54,2.75,15.87,5.37,23.63,1,2.88,5.17,3.09,6.05,0,5.89-20.48-11.46-46.68-33.68-43.28-4,.61-3.09,7.51,1,7.07Z"/><path class="pomegranatecls-4" d="M199.82,121.75c.7-8.93-2.07-18,4.3-25.72,5.59-6.75,13.94-8.94,22.28-9.87a2.85,2.85,0,0,0,0-5.69c-10.65-.75-21.15,2.51-28.1,11.08-6.63,8.16-8.42,22.21-3.53,31.57,1.34,2.56,4.86,1.12,5-1.37Z"/><path class="pomegranatecls-4" d="M171.8,125.42c-.37-3,.88-6.87-1.46-9.32a3.67,3.67,0,0,0-3.57-.94c-4.18,1.13-4.52,6.71-4.09,10.26.28,2.36,1.89,4.68,4.56,4.56,2.22-.1,4.86-2,4.56-4.56Z"/><path class="pomegranatecls-4" d="M184.75,119.68c.67-2.52,2.16-5.9,1.28-8.48a3.08,3.08,0,0,0-5.08-1.34c-2,1.76-2.45,5.42-3.14,7.91a3.6,3.6,0,1,0,6.94,1.91Z"/><path class="pomegranatecls-4" d="M358.07,215.58c4.52-4.84,8.6-13.79,5-20.2-1.14-2-5-1.88-5.37.71s0,5.18-.45,7.76a15.78,15.78,0,0,1-3.57,7.34c-2.57,3,1.64,7.35,4.4,4.39Z"/><path class="pomegranatecls-4" d="M381.77,215.15a24,24,0,0,1,1.31-7.11c.78-2.26,2.11-4.27,2.8-6.56.73-2.45-2.35-5.21-4.62-3.55-5.13,3.78-6.69,11.17-6.37,17.22.23,4.4,6.73,4.44,6.88,0Z"/><path class="pomegranatecls-4" d="M393.11,218.39a20.83,20.83,0,0,1,6.35-12.09,17.2,17.2,0,0,1,5.77-3.54c2.13-.76,4.47-.81,6.32-2.2,1.7-1.27,1.95-3.68,0-4.91-5.19-3.26-13,1.54-16.94,5a21.76,21.76,0,0,0-7.53,16.89c.07,3.31,5.47,4.37,6,.82Z"/><path class="pomegranatecls-4" d="M347.42,207.54c2.81-3.82,6.93-13.07,2.25-16.92-1.29-1.06-3.54-1.19-4.41.57-1.1,2.21-.57,4.43-.53,6.81a11.6,11.6,0,0,1-2.17,6.71c-2,3.08,2.76,5.68,4.86,2.83Z"/><path class="pomegranatecls-4" d="M68.62,300.47c1.09,3.42,2.53,12,7.79,10.54,5.46-1.5,1.46-9.51.31-12.78a4.32,4.32,0,0,0-5.17-2.93,4.26,4.26,0,0,0-2.93,5.17Z"/><path class="pomegranatecls-4" d="M84.23,309.7c1.42,4.69,3.39,9.88,8.25,11.85,2,.83,4.41-1.25,4.31-3.28-.2-4-2.78-7.26-4-10.93a4.43,4.43,0,0,0-8.54,2.36Z"/><rect class="pomegranatecls-5" width="512" height="512"/></g></g></svg>