<svg xmlns="http://www.w3.org/2000/svg" viewBox="0 0 512 512"><defs><style>.porcinicls-1{fill:none;}.porcinicls-2{fill:#e5d2c4;}.porcinicls-3{fill:#4a2d2d;}</style></defs><g id="Capa_2" data-name="Capa 2"><g id="bocetos"><rect class="porcinicls-1" width="512" height="512"/><path class="porcinicls-2" d="M101.76,163.82C85,128.39,92.1,88.45,182.92,40.79s189.37-7.73,219,50.24,1.93,78.58-44.44,96S118.51,199.24,101.76,163.82Z"/><path class="porcinicls-2" d="M210.62,180.56S258.93,306.81,248,350.61,197.09,455,231.23,474.92s67,7.09,90.18-11.59,37.35-52.18,18-102.42-45.73-96-52.17-129.46-1.93-68.28-1.93-68.28Z"/><path class="porcinicls-3" d="M367.54,149.5a12.06,12.06,0,0,0,4.49.81,9,9,0,0,0,6.26-2.26,6.17,6.17,0,0,0,1.82-4.4,6.79,6.79,0,0,0-1.82-4.4c-2.53-2.87-7.32-3-10.75-2.13a6.49,6.49,0,0,0-4.72,6.19,7.65,7.65,0,0,0,.88,3.24,6.82,6.82,0,0,0,3.84,2.95Z"/><path class="porcinicls-3" d="M370.14,129.55a29.36,29.36,0,0,0,4.77-.61c2.25-.52,4.66-2.5,4.55-5.06a5.55,5.55,0,0,0-4.37-5,24.87,24.87,0,0,0-4.95-.66,5.7,5.7,0,0,0-5.66,5.67c.13,2.93,2.49,5.85,5.66,5.67Z"/><path class="porcinicls-3" d="M124.06,144.13a15.51,15.51,0,0,0,6.4,0,8.12,8.12,0,0,0,1.31-.45c.3-.13,2.18-1.56,1.32-.88a7.65,7.65,0,0,0,2.3-2.47c.85-1.62.54-4.09-1.3-5-.36-.17-2.77-1.18-2.79-.88,1.46.52,1.41.47-.13-.14a4.83,4.83,0,0,0-1.81-.16c-1.33,0-2.65.17-4,.16a5,5,0,0,0-4.9,4.33c-.3,2.22,1.12,5.09,3.58,5.47Z"/><path class="porcinicls-3" d="M313.48,434.06l1.42-1a13.66,13.66,0,0,0,1.49-1.14,5.53,5.53,0,0,0,1.58-3.78l-.17-1.29a3.65,3.65,0,0,0-.86-1.64,5,5,0,0,0-5.46-1.72,7.53,7.53,0,0,0-1.79.85l-1.4.86a5.33,5.33,0,0,0-2.36,3.07,5.16,5.16,0,0,0,3.59,6.33,5.07,5.07,0,0,0,4-.52Z"/><path class="porcinicls-3" d="M214.75,201.68a220.39,220.39,0,0,0,37.7,4.85c11.17.53,25.25,1.76,35.37-3.69,3.47-1.87,3.07-8.3-1.18-9-11-1.77-22.94,1.56-34.19,1.68-12.25.13-24.45-1.09-36.68-1.37-4.25-.09-5.27,6.55-1,7.51Z"/></g></g></svg>