<svg xmlns="http://www.w3.org/2000/svg" viewBox="0 0 512 512"><defs><style>.portobellocls-1{fill:none;}.portobellocls-2{fill:#c49e8c;}.portobellocls-3{fill:#ab745b;}.portobellocls-4{fill:#4a2d2d;}.portobellocls-5{fill:#f7ede4;}</style></defs><g id="Capa_2" data-name="Capa 2"><g id="bocetos"><rect class="portobellocls-1" width="512" height="512"/><path class="portobellocls-2" d="M165.88,366.25c-2.52-.84-100.06,0-131.17-60.54s-.84-149.66,118.56-183.29S403,135,452.6,187.16s44.56,132-42.89,169S165.88,366.25,165.88,366.25Z"/><path class="portobellocls-3" d="M181,342.71S117.11,341,92.73,320s-16-52.13,16-69.79S249.12,235.93,313,239.29s105.1,20.18,109.31,50.45-20.18,42-51.29,49.61S181,342.71,181,342.71Z"/><path class="portobellocls-4" d="M169.21,258.44c-31.24,1.65-64.72,12.84-89.07,33-2,1.68.56,4.7,2.73,3.53,14-7.57,27.85-15.31,43.05-20.38a252.41,252.41,0,0,1,44.12-10c3.5-.49,2.67-6.34-.83-6.16Z"/><path class="portobellocls-4" d="M147.33,301.55c-17.51,2.55-32.49,8.86-45.91,20.43-1.77,1.52.5,4.33,2.45,3.18,13.92-8.19,29.27-14.47,45.19-17.34,4.16-.76,2.32-6.86-1.73-6.27Z"/><path class="portobellocls-4" d="M331.54,267.24c12.49,2.11,25.06,4.2,37.31,7.47,13.14,3.52,24.39,9.71,36.61,15.33,2.48,1.14,5.22-1.81,3.06-4-18.71-18.66-51.43-21.43-76.21-24.5-3.2-.4-4,5.13-.77,5.67Z"/><path class="portobellocls-4" d="M344.12,298.79c18.75,3.64,36.24,11,53.51,19a2.14,2.14,0,0,0,2.16-3.7c-16-11.91-34.52-18-54-21.17-3.82-.62-5.52,5.14-1.63,5.89Z"/><path class="portobellocls-4" d="M78.31,244.23c3.09-3.34,7.26-4.63,10.7-7.65a5.19,5.19,0,0,0,1.08-5.72c-.92-2.08-2.61-2.93-4.78-3.22-5.84-.77-11.85,4-15.47,8.12a6.12,6.12,0,0,0,0,8.47,6,6,0,0,0,8.47,0Z"/><path class="portobellocls-4" d="M75.91,211c8,0,8-12.43,0-12.43s-8,12.43,0,12.43Z"/><path class="portobellocls-5" d="M183.54,238.45S138.13,344.39,161.68,375.5,287,397.36,313.86,387.27s39.52-31.95,31.11-64.74S324.79,241,324.79,241Z"/><path class="portobellocls-4" d="M406.32,332.69c-16.59,9.07-39.57,14.8-59.06,14.42a58.07,58.07,0,0,0,0-11.35c18.26-3.65,37.5-5,53.8-14.8,17.54-10.53,18.47-30.81,6.25-46.14-10.37-13-27.55-18.33-43.18-21.71-12.5-2.73-25.21-4.75-38-6.32-6.46-.82-12.91-1.52-19.36-2.14-38.63-3.73-77.32-3.41-116-.53-3.2.25-6.51.45-9.9.68-32.14,2.1-71.05,4.71-91.3,31.9C61.16,315,125.77,333.17,155.79,334c-.42,3.58-.68,7.08-.81,10.46-21.65,1.23-45.6-8.4-63-19.62-17.86-11.46-24.71-29.07-13.75-48.41,21.11-37.29,71.45-39.27,109-42.39,49.15-4.09,99.42-5.58,148.44.73,35.33,4.58,86.77,12.85,93,56.27C431.2,308.93,421.86,324.22,406.32,332.69Z"/><path class="portobellocls-4" d="M293.71,347.88a13,13,0,0,0,6.76.64,11.25,11.25,0,0,0,3.87-1.12,8.45,8.45,0,0,0,1.4-.92c.25-.19,2.19-2.3,1.31-1.36a5.66,5.66,0,0,0-3.95-9.55c1.68.07-1.11-.18-1.71-.18a8.7,8.7,0,0,0-2.33.23c.64-.08.72-.11.24-.07-.2,0-2,0-1.24.05,1.16,0-2.26-.24-2.65-.29-3.15-.33-5.9,2.7-6.29,5.55-.46,3.42,1.6,5.76,4.59,7Z"/><path class="portobellocls-4" d="M305.62,323.53c.21-.2.41-.42.64-.62a4.93,4.93,0,0,0,1.75-3.74,5,5,0,0,0-1.7-3.71c-.24-.21-.46-.44-.69-.66a6.9,6.9,0,0,0-2.73-1.59,5.93,5.93,0,0,0-4,.31,6.08,6.08,0,0,0-2.47,1.9,5.87,5.87,0,0,0-1.33,3.75,6.45,6.45,0,0,0,3.06,5.33,6.29,6.29,0,0,0,7.49-1Z"/></g></g></svg>