<svg xmlns="http://www.w3.org/2000/svg" viewBox="0 0 512 512"><defs><style>.potatocls-1{fill:none;}.potatocls-2{fill:#b37e4c;}.potatocls-3{fill:#fff5d9;}.potatocls-4{fill:#4a2d2d;}</style></defs><g id="Capa_2" data-name="Capa 2"><g id="bocetos"><rect class="potatocls-1" width="512" height="512"/><path class="potatocls-2" d="M160,176.33s57.34-61.66,83.65-75.46S333.32,66,384.2,84.05s63.82,66.84,50,114.27S411,296,400.15,319.05C385.93,349.23,323,411.32,249.24,420.81s-124.18-31.05-154.36-66.4S94.88,203.92,160,176.33Z"/><path class="potatocls-3" d="M246.65,196.16s-32.28-35.28-78-27.95S75,238.85,69.87,265.15s5.6,69.42,37.08,98.74S175.51,398,212.16,373s56-76.32,56.48-106.94S257.86,208.67,246.65,196.16Z"/><path class="potatocls-4" d="M312.14,165.69c3.29-1.31,8.52-3.38,11.32-.12,3,3.45,2.27,9.68,3.51,13.81a1.65,1.65,0,0,0,3.15,0c1.85-5.21.61-14.66-4.12-18.17-4.51-3.36-10.77-1.11-15.38.87-2,.87-.56,4.43,1.52,3.61Z"/><path class="potatocls-4" d="M375.7,127.46c1.54-.41,2.59,1,3.29,2.21a1.53,1.53,0,0,0,2.77-.37c.89-4-3.71-6.58-7.13-5.72-2.51.63-1.44,4.53,1.07,3.88Z"/><path class="potatocls-4" d="M372.1,203.6a13.45,13.45,0,0,1,5.06,5.61c1,2.1,1,4.86,2.69,6.54a2.14,2.14,0,0,0,3.31-.42c1.92-2.58,0-6.84-1.41-9.24a18.75,18.75,0,0,0-7.1-6.85c-2.85-1.58-5.3,2.63-2.55,4.36Z"/><path class="potatocls-4" d="M248.38,144.6c4.65-.33,7.11,4,7.85,8a1.62,1.62,0,0,0,2.92.38c1.72-3.19.52-6.88-1.9-9.33a9.92,9.92,0,0,0-9.38-2.81c-2.09.47-1.67,3.92.51,3.77Z"/><path class="potatocls-4" d="M332.67,118.28c-.58.08.43.1-.16,0,0,0,.72.2.29,0a3.46,3.46,0,0,1,.5.27c.14.1.13.08,0,0l.25.23.4.41c.31.32,0-.17.17.25a5.28,5.28,0,0,0,.88,1.26,1.83,1.83,0,0,0,2.86-.37c1.07-1.66.24-4-1.13-5.21a6.21,6.21,0,0,0-5.31-1.49,2.44,2.44,0,0,0-1.69,3,2.48,2.48,0,0,0,3,1.68Z"/><path class="potatocls-4" d="M325.74,259c.5-.24,1.31.07,2,.68-.22-.19.6.63.4.41,0,0,.81,1.35.48.6-.25-.57.07.42.11.55.1.33.22.66.34,1a2.15,2.15,0,0,0,3.55.94c2.18-2.41,1-5.94-1.25-7.86a7.09,7.09,0,0,0-8.26-.77c-2.82,1.8-.36,5.91,2.61,4.46Z"/><path class="potatocls-4" d="M303.57,328.73c4.16-.15,3.73,4.09,3.41,7a1.58,1.58,0,0,0,2,1.52c3.46-1.22,4.48-5.45,3-8.54a8.3,8.3,0,0,0-8.38-4.58c-2.85.37-3.07,4.74,0,4.63Z"/><path class="potatocls-4" d="M367.13,286.11a10.29,10.29,0,0,1,1.52,2.05,9.37,9.37,0,0,0,1.7,2.59,2.13,2.13,0,0,0,3.49-.92c1.08-2.59-1.16-5.8-2.85-7.59-2.42-2.55-6.32,1.35-3.86,3.87Z"/><path class="potatocls-4" d="M132.84,219.43l7.67,7.33c2.39,2.29,4.71,4.89,7.76,6.28a1.7,1.7,0,0,0,2.31-2.31c-1.56-3-4.25-5.1-6.68-7.35l-7.79-7.22c-2.18-2-5.43,1.21-3.27,3.27Z"/><path class="potatocls-4" d="M116.61,249.38c4.52,2.09,9,4.4,13.79,5.8,1.94.57,2.93-2.1,1.33-3.16-4-2.65-8.49-4.51-12.84-6.54-2.62-1.23-4.92,2.68-2.28,3.9Z"/><path class="potatocls-4" d="M180,354.89a42.28,42.28,0,0,0-8.72-3.09c-1.54-.32-3.18,1.74-1.7,2.92a41.27,41.27,0,0,0,7.74,4.76c3.08,1.52,5.76-3.19,2.68-4.59Z"/><path class="potatocls-4" d="M238,262.78c3.05,0,3.06-4.74,0-4.74s-3.06,4.74,0,4.74Z"/><path class="potatocls-4" d="M268.21,234.54c-5.2-19.36-15.64-38.31-31-50.86-17.5-14.25-40-23.54-62.85-21.19-23.75,2.45-43.77,17.85-60.66,33.64-4.65,4.34-9.16,8.84-13.6,13.4-17.57,18-30.61,38.94-32.94,64.46-4.39,48,23.94,95,65.66,114.32,42.64,19.76,69-3,86.45-16.79C239.08,355.87,253,333,262.67,309.94,272.74,286,275.05,260,268.21,234.54ZM230.76,342c-14.9,22.29-36.85,40.52-64.87,40.9-26.93.37-47.63-16.84-64.54-35.51-3.16-3.49-5.55-7.61-8-11.66-11.76-19.65-17.76-43.56-14.09-66.38C83,246.21,97,227.5,113.19,211.29c15.64-15.66,33.71-33.39,55.94-38.64,23.18-5.47,49.42,9.66,65.68,25.27C275,236.49,258,301.26,230.76,342Z"/></g></g></svg>