<svg xmlns="http://www.w3.org/2000/svg" viewBox="0 0 512 512"><defs><style>.potato02cls-1{fill:none;}.potato02cls-2{fill:#b37e4c;}.potato02cls-3{fill:#4a2d2d;}</style></defs><g id="Capa_2" data-name="Capa 2"><g id="bocetos"><rect class="potato02cls-1" width="512" height="512"/><path class="potato02cls-2" d="M255,72.57c-76.12,35.9-89.1,80.45-93.86,93s-8.22,25.08-16.87,35.46-68.34,54.5-73.09,114.19,31.14,115.49,102.51,126.3,126.29-.43,185.12-49.31S413.32,270,423.64,237.8c14.27-44.55,10.85-85.71-5.63-114.62C395.09,83,331.08,36.67,255,72.57Z"/><path class="potato02cls-3" d="M185.41,262.5c3.74-.44,9.66-1.21,10.68,3.66.85,4-2.18,8.17-4.1,11.51a1.67,1.67,0,0,0,2.61,2c4.79-4.06,9.21-10.21,6.13-16.71-2.95-6.21-10.17-5.79-15.88-4.65-2.33.46-1.84,4.47.56,4.18Z"/><path class="potato02cls-3" d="M271,258.5c3.79.79,3.36,5.46.13,6.78a1.78,1.78,0,0,0,.47,3.48,7.11,7.11,0,0,0,7.46-7.11c-.1-4.18-3.5-7.17-7.45-7.64-2.55-.3-3.11,4-.61,4.49Z"/><path class="potato02cls-3" d="M347,203.57c8.23,3,9.49,10.72,10.23,18.35a1.79,1.79,0,0,0,3.31.9c6-9.14-3.65-20.85-12.48-23.1-2.53-.65-3.45,3-1.06,3.85Z"/><path class="potato02cls-3" d="M304.05,172.9c4.36-1.78,7,1.73,8.82,5.1a2,2,0,0,0,3.55-.46c1-3.53-1.42-6.8-4.34-8.55a10.46,10.46,0,0,0-9.89-.51c-2.46,1.13-.68,5.46,1.86,4.42Z"/><path class="potato02cls-3" d="M226.22,159.52a2.76,2.76,0,0,1,3.49-.57c1.23.8,1.45,2.36,1.91,3.63a2.07,2.07,0,0,0,3.73.48c2.08-3.05-.12-7.37-3.09-8.95a8.09,8.09,0,0,0-9.65,1.8c-2.17,2.43,1.28,6,3.61,3.61Z"/><path class="potato02cls-3" d="M330,108c4.19,1.07,6.15,4.21,8.38,7.61a1.75,1.75,0,0,0,3.23-.88c.14-5.61-5.38-9.93-10.4-11.1-2.83-.67-4,3.64-1.21,4.37Z"/><path class="potato02cls-3" d="M255.14,204.68a5.73,5.73,0,0,0-1.3,2.3,5.48,5.48,0,0,0,0,2.64,3,3,0,0,0,3.21,2.17,2.77,2.77,0,0,0,1.59-.81,3.37,3.37,0,0,0,.94-2.28l-.11.77c0-.15.06-.29.1-.44.12-.48-.28.52-.1.22l.18-.34c.24-.47-.49.55-.11.13a3.14,3.14,0,0,0,0-4.36c-1.13-1-3.27-1.33-4.36,0Z"/><path class="potato02cls-3" d="M357.63,279.61c.47.32-.51-.47-.12-.1.13.12.27.24.4.38s.39.47.62.69a3.88,3.88,0,0,0,1.72,1.15,2.81,2.81,0,0,0,2.66-.7c1.16-1.18.93-3.1.14-4.42a8.37,8.37,0,0,0-2.33-2.3,3.09,3.09,0,0,0-2.36-.31,3.07,3.07,0,0,0-.73,5.61Z"/><path class="potato02cls-3" d="M389,182.86a1.94,1.94,0,0,0,0-3.88,1.94,1.94,0,0,0,0,3.88Z"/><path class="potato02cls-3" d="M196.31,345.82c6.81-.23,10.36,5.06,12.37,10.82.64,1.81,3.4,2.05,3.93,0,2.33-9.05-8.09-16.64-16.3-15.54-2.91.39-3.14,4.83,0,4.72Z"/><path class="potato02cls-3" d="M130.66,291.54a8.24,8.24,0,0,0,1.54.45,3.2,3.2,0,0,0,2.25-.29,3,3,0,0,0,1.19-1.4,2.9,2.9,0,0,0-1.19-3.64,11,11,0,0,0-2.2-.88,3,3,0,0,0-3.68,2.08,3,3,0,0,0,.3,2.31,3.37,3.37,0,0,0,1.79,1.37Z"/><path class="potato02cls-3" d="M283.33,364.48a3.45,3.45,0,0,1,3.85-1.43c1.75.59,2.36,2.16,3.2,3.63a1.72,1.72,0,0,0,3.1-.41c1.33-3.41-1.73-7.28-4.94-8.18a8.34,8.34,0,0,0-8.94,3.5c-1.56,2.18,2,5,3.73,2.89Z"/><path class="potato02cls-3" d="M273.83,310.31l-.24.31a8.58,8.58,0,0,0-.65.84,4.7,4.7,0,0,0-.36.9,2.68,2.68,0,0,0,.1,1.81,2.91,2.91,0,0,0,2,1.62,5.19,5.19,0,0,0,1.47.11,3.34,3.34,0,0,0,2.83-1.62,3.2,3.2,0,0,0,.45-1.65,3.59,3.59,0,0,0-1-2.32,3.27,3.27,0,0,0-1.45-.84,3.21,3.21,0,0,0-1.74,0,3.29,3.29,0,0,0-1.44.84Z"/><path class="potato02cls-3" d="M155.06,389.17l.25-.09a2.09,2.09,0,0,0,.41-.17,2.34,2.34,0,0,0,1.05-.67l.08-.07a3.42,3.42,0,0,0,.93-2.23l-.11-.84a3.12,3.12,0,0,0-.82-1.4l-.08-.06-.66-.51a7.11,7.11,0,0,0-.8-.34l-.25-.08a3.36,3.36,0,0,0-1.78,0,3.4,3.4,0,0,0-1.48.86l-.52.68a3.32,3.32,0,0,0-.46,1.69,2.6,2.6,0,0,0,.29,1.29,2.7,2.7,0,0,0,.69,1.08,3.4,3.4,0,0,0,1.48.86,3.36,3.36,0,0,0,1.78,0Z"/></g></g></svg>