<svg xmlns="http://www.w3.org/2000/svg" viewBox="0 0 512 512"><defs><style>.pumpkincls-1{fill:none;}.pumpkincls-2{fill:#fe9736;}.pumpkincls-3{fill:#4a2d2d;}</style></defs><g id="Capa_2" data-name="Capa 2"><g id="bocetos"><rect class="pumpkincls-1" width="512" height="512"/><path class="pumpkincls-2" d="M346,86.16c-1.93.33-13.53,8.06-29.63,11.6s-29.95,1.93-44.44,18.68-27,61.83-44.77,85.66-39.61,34.14-57,41.87-57.32,24.79-69.88,71.49-4.83,85,7.4,102.09S149.09,464.94,213,482.6c60.55,16.75,84.38,16.75,118.52-4.51s34.13-64.41,28.34-87.59-18.68-47.67-21.26-69.56,14.17-39.29,33.17-72.46,40.62-65.23,36.39-88.73c-5.47-30.43-25.44-60-29-57.27-2.85,2.2,3.22,29.74,5.15,36.5,4.06,14.21-9.66,12.56-15.13,11s-22.23-19-26.73-25.76-5.8-11.6-1.94-18.36S346,86.16,346,86.16Z"/><path class="pumpkincls-3" d="M398.13,18.32c-.79-1.7-3.3-3-6-3.48-8.4-1.58-15.08-.25-23.17,3.35-7.63,3.39-13.95,9.44-18.57,16.31-.94,1.39,1.37,14.52-.56,27.51-1.79,12.06-3.9,25.55-9.23,36.61-2.46,5.1-7.08,9.91-6.74,15.94.33,5.81,3.43,11.11,6.63,15.61,7.79,11,17.87,22.25,31.54,25.49,10.73,2.55,18.47-4,18.7-15.18.26-12.19-12.84-24.17-9.55-36.17,2.06-7.55,9-15.28,12.45-22.33a100,100,0,0,0,8.05-21.26C405.17,46.1,404.52,32,398.13,18.32Zm-6.95,1.38c-1.67,2.51-6.39,6.52-9.32,8.25-2.77,1.63-15.4,7-23,6.47C365.47,26.36,375.69,19.22,391.18,19.7Zm1.05,46.39A74.11,74.11,0,0,1,382.56,88c-3.19,4.92-7.81,8.62-9.35,14.38-2.54,9.54,2.35,18.29,5.91,26.81,2.88,6.91,6.4,16.62-4.71,17.8-6.47.69-15.21-8.7-19.21-13.15-4.63-5.14-11.53-12.28-12.12-19.3-.44-5.34,3.14-9.3,5.26-14.24,3.88-9.07,6.1-18.79,7.72-28.49a171.9,171.9,0,0,0,2.77-25.49c0-.92.08-3.53.12-4.91,11.48.32,27-5.49,35-12.67C396.86,40.15,395.56,54.32,392.23,66.09Z"/><path class="pumpkincls-3" d="M329.32,145.74c9.63,57-26.65,103.69-52.79,150.63-11.91,21.38-19.51,41.41-20.73,66-1.24,25-3.37,52.74,5.73,76.62a2,2,0,0,0,3.83-1.05c-5.72-27.15-6.26-54.8-3.9-82.42s16.75-51.09,30.68-74.24c24.33-40.4,53.6-87.15,40.57-136.48-.59-2.23-3.76-1.25-3.39.94Z"/><path class="pumpkincls-3" d="M312.82,429.26c2.11-13.9-.67-26.86-4.07-40.33-4-15.85-6-32.06-4-48.37.17-1.35-2-1.59-2.34-.32-3.56,13.46-4.22,26.15-1.25,39.83,3.51,16.25,10.33,31.87,8.73,48.8-.16,1.64,2.64,2,2.89.39Z"/><path class="pumpkincls-3" d="M310.56,311.9a70.37,70.37,0,0,0,2-11.8c.08-1.62-2.53-2.47-3.21-.87a70.42,70.42,0,0,0-3.38,11.4c-.71,3,4,4.29,4.63,1.27Z"/><path class="pumpkincls-3" d="M352.94,221.25a60.25,60.25,0,0,0,11.93-33.61,1.42,1.42,0,0,0-2.78-.38,129.06,129.06,0,0,1-12.61,32c-1.29,2.31,1.95,4,3.46,2Z"/><path class="pumpkincls-3" d="M304.27,173.1c-13,46.15-41.57,85.54-69.9,123.44-14.2,19-28.34,37.93-41.32,57.79-12.08,18.49-25,38.77-31.47,60-.62,2.05,2.56,3.48,3.53,1.48,10.32-21.31,20-42,33.25-61.82,13.44-20.1,28.35-39.25,42.79-58.64C269,258,295.49,219.53,308.28,174.21c.73-2.58-3.28-3.69-4-1.11Z"/><path class="pumpkincls-3" d="M205.5,417.46c2.22-6.84,4.93-13.71,6.54-20.71.44-1.9-2.48-3.38-3.32-1.4-2.86,6.78-4.78,14.06-7.05,21-.79,2.44,3,3.48,3.83,1.06Z"/><path class="pumpkincls-3" d="M127.53,367.06c9.3-17.67,22.5-32.52,36.63-46.46,13.31-13.11,29.19-24.93,40.5-39.84,1.2-1.58-1.16-3.87-2.74-2.74-16,11.42-29.49,27.87-43.23,41.85-13.41,13.66-25.79,28.06-34.62,45.16-1.18,2.29,2.26,4.32,3.46,2Z"/><path class="pumpkincls-3" d="M230.69,250a37.57,37.57,0,0,0,7.81-9.1,1.54,1.54,0,0,0-2.41-1.86,110.76,110.76,0,0,1-8.31,8.05c-2,1.69.92,4.67,2.91,2.91Z"/><path class="pumpkincls-3" d="M303,127.27c-7,6.68-11.53,15-15.48,23.8-4.12,9.12-8.67,18.61-11.42,28.21a1.92,1.92,0,0,0,3.49,1.47c9.47-16.87,13.48-35.41,26.59-50.29,1.91-2.17-1.06-5.19-3.18-3.19Z"/><path class="pumpkincls-3" d="M154.77,288.2a55.24,55.24,0,0,0,6.24-4.83c1.52-1.53-.4-3.77-2.23-2.88a50.57,50.57,0,0,0-6.15,4.05,2.17,2.17,0,0,0-.76,2.9,2.14,2.14,0,0,0,2.9.76Z"/></g></g></svg>