<svg xmlns="http://www.w3.org/2000/svg" viewBox="0 0 512 512"><defs><style>.pumpkin_1cls-1{fill:none;}.pumpkin_1cls-2{fill:#fe9736;}.pumpkin_1cls-3{fill:#4a2d2d;}</style></defs><g id="Capa_2" data-name="Capa 2"><g id="bocetos"><rect class="pumpkin_1cls-1" width="512" height="512"/><path class="pumpkin_1cls-2" d="M479.66,365.51c-24.56,45.72-48.72,61.24-85.8,66.85-19.52,2.95-36.19-2-44.74-5.44a57.88,57.88,0,0,1-6.1-2.75l0,0s-23.28,31-71.15,31c-28.68,0-48.21-10.36-59.27-18.68a62.32,62.32,0,0,1-11-10.19s-2.31,1.19-6.5,2.87c-19,7.61-76.5,25.38-134-10.63-70.3-44-61.24-128.06-41.84-175.5S75.65,144.31,120.91,134.4s66.42,9.91,66.42,9.91l14.22,57.36,15.53,17.25s16.82-9.06,35.78-9.06,21.57.85,21.57.85l23.29-21.11S266.67,162,268.38,156.83s39.25-33.65,93.13-31.92,99.62,50,121.18,93.56S508,312.83,479.66,365.51Z"/><path class="pumpkin_1cls-3" d="M210,206.82c-3.1-14.95-11-28.63-13.94-43.79-3-15.48-1.47-30.49,3.3-45.43a184.51,184.51,0,0,1,19.29-41.83c4-6.34,8.82-12.33,15.7-15.7,5.47-2.67,18.17-5.85,24.19-3.62,8.86,3.29-4,33.09-6.07,40.63a79.28,79.28,0,0,0-2,35c4.5,26.2,22.11,44.82,41.53,61.7,4.48,3.89,10.64-2.14,6.55-6.55-11.26-12.14-25-22.38-32.41-37.6a72.59,72.59,0,0,1-4.82-50.05c3.22-12.75,12.38-30.21,9.31-43.73-2.73-12-18.54-8.79-27.57-7.14-14.16,2.59-24.06,11-31.51,23a183.89,183.89,0,0,0-19.79,43.87c-8.89,30.14-5.18,67.12,12.67,93.65a3.05,3.05,0,0,0,5.55-2.34Z"/><path class="pumpkin_1cls-3" d="M225.87,64.85c6,4.33,13.59,6.5,21,7,6.32.4,15.17.21,19.71-4.73,1.48-1.61,1.17-5.16-1.46-5.52-5.39-.74-10.39,1.53-15.89,1.47-7-.06-13-2.2-19.26-5.13a4,4,0,0,0-4.06,6.95Z"/><path class="pumpkin_1cls-3" d="M173.11,279.37c-9.62,22-13.64,47.17-9,70.9a1.32,1.32,0,0,0,2.58-.35c-1.27-24.05.95-46.59,9.37-69.29.64-1.72-2.24-3-3-1.26Z"/><path class="pumpkin_1cls-3" d="M330.71,257.47c18.06,18.45,21.22,45.77,27.26,69.65a1.41,1.41,0,0,0,2.76-.38c-.46-14.5-4.84-29.32-9.79-42.87-4-10.89-8.92-21.13-17.3-29.33a2.07,2.07,0,0,0-2.93,2.93Z"/><path class="pumpkin_1cls-3" d="M84.89,243.05c-23.39,35.8-32.49,86-16,126.51a1.35,1.35,0,0,0,2.6-.72c-10.37-43.19-7.35-85.41,17.21-123.54,1.56-2.42-2.27-4.63-3.83-2.25Z"/><path class="pumpkin_1cls-3" d="M85.57,392.36a1,1,0,0,0,0-1.94,1,1,0,0,0,0,1.94Z"/><path class="pumpkin_1cls-3" d="M403.59,206.05c26.56,16.5,39.6,47.16,44.2,77a163.11,163.11,0,0,1,.76,46.85c-2,14.61-7.31,27.35-12,41.16-.69,2.06,2.12,2.83,3.23,1.36,8.76-11.55,11.67-28.18,13.48-42.2a172.22,172.22,0,0,0-.64-49.77c-5-30.49-19.05-62.15-47.13-77.74a1.92,1.92,0,0,0-1.94,3.31Z"/><path class="pumpkin_1cls-3" d="M224,82.82c-11.18,19-18.89,37.34-17,59.89,1.53,18.73,6,42.22,18.45,57,1.15,1.35,3.11-.37,2.36-1.82-9.36-18-15.34-36.54-16.78-57-1.5-21.26,5.92-38.16,16.55-56,1.35-2.27-2.21-4.34-3.54-2.07Z"/><path class="pumpkin_1cls-3" d="M244.77,184.75c-10.31-11-15.3-24.3-16.66-39.14a1.35,1.35,0,0,0-2.7,0c-1.07,15.9,5.51,30.73,16.49,42,1.83,1.88,4.66-1,2.87-2.87Z"/><path class="pumpkin_1cls-3" d="M232.91,115.88c1.7-4.75,4.1-9.73,5.07-14.68.29-1.45-1.71-2.49-2.5-1-2.49,4.53-3.89,10-5.68,14.87-.72,1.94,2.41,2.81,3.11.86Z"/><path class="pumpkin_1cls-3" d="M275.44,191.85a66.46,66.46,0,0,1-24.14-29.94c-5.15-12.57-5.57-25.06-6.83-38.34-.13-1.32-2.31-1.9-2.54-.34-3.9,27,8.81,56.76,32.15,71,1.5.92,2.78-1.36,1.36-2.33Z"/><path class="pumpkin_1cls-3" d="M201.55,426.32s-2.31,1.19-6.5,2.87c-10.18-12.2-17.32-28.05-21.51-41.83-1-3.36,4-4.62,5.16-1.44a136.39,136.39,0,0,0,14.7,29.81C198.9,423.9,201.55,426.32,201.55,426.32Z"/><path class="pumpkin_1cls-3" d="M349.12,426.92a57.88,57.88,0,0,1-6.1-2.75c3.88-7.06,7.59-14.15,10.21-21.91,3.69-10.94,5.49-22.25,6.52-33.72.27-3.18,4.91-3.28,5,0C365.32,388,360.1,410,349.12,426.92Z"/><path class="pumpkin_1cls-3" d="M301.1,217.28c-19.2-11-43.19-12.55-64.77-6.25A94,94,0,0,0,211,222.63,86.4,86.4,0,0,0,181.65,255c-1.07,2.09-1.09,4,1.89,4a3,3,0,0,0,2.67-1.49c14.54-24,35.12-37.94,61.15-41.32a87.43,87.43,0,0,1,11.24-.72,92,92,0,0,1,29.2,4.79c10.87,3.63,19,9.59,27.69,15.89,1.91,1.39,3.85,2.8,5.85,4.21a2.87,2.87,0,0,0,1.71.56,3.81,3.81,0,0,0,2.8-1.42C326.62,238.59,319.7,228,301.1,217.28Z"/><path class="pumpkin_1cls-3" d="M220.17,218.75c-8.37-22.46-35.43-31.9-57.65-29.28-14.24,1.67-28.17,6.66-40.69,13.56a66.8,66.8,0,0,0-9.4,6.22c-1,.83-8.52,7.44-3.23,6.18,4.35-1,8.11-4.69,11.83-7a89.79,89.79,0,0,1,12.69-6.5c9.28-3.85,19.55-6.49,29.63-6.49a72,72,0,0,1,29.31,6c9.4,4.18,15.64,11.56,21.63,19.7a3.52,3.52,0,0,0,2.91,1.38,3.38,3.38,0,0,0,2.8-1.28A2.58,2.58,0,0,0,220.17,218.75Z"/><path class="pumpkin_1cls-3" d="M385.15,186.81l-.41-.32A49.48,49.48,0,0,0,370,179a82.08,82.08,0,0,0-26.13-3.79c-12.13.24-25.13,2-36.67,6.62-12.93,5.71-26.51,14.93-34.41,27.72a2.19,2.19,0,0,0-.16,2.33,2.85,2.85,0,0,0,2.46,1.35,2.77,2.77,0,0,0,1.76-.63c16.23-13.32,29.19-23.1,48.14-27.64a86.91,86.91,0,0,1,20.26-2.36,91.41,91.41,0,0,1,9.78.52,100.13,100.13,0,0,1,15.13,3.25,107,107,0,0,0,13.62,3.06h.3c.92,0,2.18-.59,1.75-1.75A2.15,2.15,0,0,0,385.15,186.81Z"/></g></g></svg>