<svg xmlns="http://www.w3.org/2000/svg" viewBox="0 0 512 512"><defs><style>.quinoacls-1{fill:#4a2d2d;}.quinoacls-2{fill:none;}</style></defs><g id="Capa_2" data-name="Capa 2"><g id="bocetos"><path class="quinoacls-1" d="M258.11,118.44c-10.69,4.43-16.05,18.06-9.49,28.11,1.45,2.22,5.59.86,4.54-1.92a25.93,25.93,0,0,1-1.37-5.11,14.87,14.87,0,0,0,7.16,6.73c10,4.26,21.56-2.68,21.69-13.75C280.77,120.06,268.81,114,258.11,118.44ZM262.32,142c-6.92-2.15-7.86-11.47-4.16-16.81,4.21-6.08,14.38-1.63,16.09,4.49C276.23,136.79,269.67,144.28,262.32,142Z"/><path class="quinoacls-1" d="M349.89,139.18c-4.42-11.2-19.18-14.44-28.53-7.74-1.37,1-.61,3.62,1.24,2.95a18.82,18.82,0,0,1,2-.59,17.28,17.28,0,0,0-4.95,6.32c-4.54,10.09,2.43,22.19,13.81,22C344.44,162,354.11,149.86,349.89,139.18Zm-16.45,16.4c-8.12.53-10.36-10-6-15.1,3.26-3.84,13-5.87,15.18.16a11.37,11.37,0,0,1-.54,8.09C340.56,152.25,337.41,155.31,333.44,155.58Z"/><path class="quinoacls-1" d="M348.6,192.79a2.1,2.1,0,0,0-4.11.55c-.08.72-.18,1.44-.29,2.16a16.52,16.52,0,0,0-6.31-8.53c-9.13-6.08-23.9-3.74-26.77,8.09C308,208,317.71,217.7,330.58,216.7,341.72,215.85,353.54,204.55,348.6,192.79Zm-31.78,6.88c-.05-8.12,8.81-11.86,15.41-8.07,4.26,2.44,5.85,7.57,4.6,12.19a12.15,12.15,0,0,1-3.22,5.47c-1.76,1.72-3.8,1.81-6.16,1.5a13.55,13.55,0,0,1-5.34-1.84A10.83,10.83,0,0,1,316.82,199.67Z"/><path class="quinoacls-1" d="M382.89,226.14c-10,3.08-16.31,13.82-11.92,23.75.81,1.81,3.71.85,3.65-1v-.54a10.41,10.41,0,0,0,6.79,5.87c9.82,2.82,24.07-1.53,23.86-13.57C405.07,229.33,393,223,382.89,226.14Zm.84,22.6a10.85,10.85,0,0,1-4.21-3.69,8.56,8.56,0,0,1-1.68-4.33,7.06,7.06,0,0,1,1.61-4.64c4.44-5.57,14.86-4.72,17.56,2.22a7.87,7.87,0,0,1-2.05,8.21A10.11,10.11,0,0,1,383.73,248.74Z"/><path class="quinoacls-1" d="M396.47,293.58A2.43,2.43,0,0,0,393,297a22.87,22.87,0,0,1,1.44,1.92,16.84,16.84,0,0,0-8.65-1.92c-12.85.51-22.52,11.34-16.87,24,5.21,11.71,22.5,16.34,31.16,5.69C408.11,316.87,406,301.43,396.47,293.58Zm-19.54,27.7c-2.3-2.77-3.59-6.87-2.46-10.42,1-3.29,4.61-5.85,7.87-6.56a11.14,11.14,0,0,1,10.15,2.95c2.75,2.86,3.43,7.18,2.93,11-.69,5.18-4.73,8.08-9.84,7.69A12.65,12.65,0,0,1,376.93,321.28Z"/><path class="quinoacls-1" d="M345.26,255.68c-8.45-5.39-23.11-3.05-27.78,6.43a2.63,2.63,0,0,0,2.68,3.87,19.64,19.64,0,0,0,.68,11.77c4.34,10.27,18.59,14.82,26.66,5.86C354.38,276,354.36,261.5,345.26,255.68ZM344.5,275c-2.44,7.54-12.36,7.55-16.1,1.17a10.9,10.9,0,0,1-.69-9.57c1.46-3.72,4.31-7.48,8.7-7.38,3.3.07,6,2.5,7.47,5.32A13.84,13.84,0,0,1,344.5,275Z"/><path class="quinoacls-1" d="M267.75,176.88c-12.24-4.81-27.91,3-32.75,14.87-.83,2,2.05,3.19,3.41,2,.94-.85,1.85-1.73,2.74-2.62-1.48,5.77-.74,12.13,2.79,16.58,7.45,9.38,23.87,7.46,31-1.18C283,196.85,279.55,181.53,267.75,176.88Zm4.11,21.65a12.86,12.86,0,0,1-6.8,7.31,14.37,14.37,0,0,1-13.61-1c-3.81-2.66-4.67-7.47-3.74-11.78,1-4.73,4.14-9.36,8.78-11.15,5.15-2,11,.3,14,4.78A13.1,13.1,0,0,1,271.86,198.53Z"/><path class="quinoacls-1" d="M285.08,250.79a16.34,16.34,0,0,0-11.55-3.56c-13.24-2.27-28.32,5.89-25.21,20.6,3,14,20.18,20.19,32.33,13.88C292.55,275.53,295.58,259.8,285.08,250.79Zm-13.42,26.14c-6.62.46-14.72-4.23-16.24-11.06-1.54-7,1.56-11.66,6.71-13.48a11.9,11.9,0,0,0-2.88,8.76,2.1,2.1,0,0,0,4.1.56c1.5-3.91,3.51-8,8-8.9a10.58,10.58,0,0,1,11.7,6.61C286.11,267.37,280.09,276.35,271.66,276.93Z"/><path class="quinoacls-1" d="M308.59,315.73a16.82,16.82,0,0,0-13.29,1.54,14.34,14.34,0,0,1,3.25-3.86c2.66-2.07-1.07-5.74-3.7-3.7-10.1,7.83-15.61,24.52-7,35.17,7.46,9.2,22.39,9.44,29.67-.24C325.07,334.65,320.53,319.71,308.59,315.73Zm-2.08,28.6c-5.07,1.71-11.08-.77-14-5.14-3.43-5.14-.84-11.51,3.9-14.86a10.67,10.67,0,0,1,13.38.46C316.59,330.65,315.21,341.39,306.51,344.33Z"/><path class="quinoacls-1" d="M348.84,363.84c-2.12-1.8-5.38.43-3.94,3,.19.35.38.71.58,1.06a14.58,14.58,0,0,0-5.82-.74c-4.11.37-8.92,1.92-11.15,5.66s-3,9.72-.81,13.74c4.29,7.76,15.18,8.14,21.34,2.53C356.26,382.54,356.39,370.25,348.84,363.84Zm-11.76,22a5.87,5.87,0,0,1,.09-11.2,10,10,0,0,1,6.91.13c2.66,1.2,3.54,4.8,2.55,7.36C345.21,385.82,340.57,387.12,337.08,385.87Z"/><path class="quinoacls-1" d="M268.34,366.86c-8.84-4.7-17.9.84-22.95,8.32-1.32,1.94,1.77,4.37,3.28,2.53l.27-.31a17.25,17.25,0,0,0,1.25,10.23c4.26,9.12,16.38,7,22.1.53A13.58,13.58,0,0,0,268.34,366.86Zm.34,14.39c-1.31,4.48-9.29,8.86-12.35,3.63a9.73,9.73,0,0,1,1.65-11.4c2.92-3,6.87-1.61,9.32,1.18A6.89,6.89,0,0,1,268.68,381.25Z"/><path class="quinoacls-1" d="M187.73,373.5c-11.55,4.29-15.11,16.91-7,26.08,7,7.88,22.3,5.27,25.9-4.79a10.85,10.85,0,0,0,2.46-5.3C211.23,377.2,198.41,369.53,187.73,373.5Zm1.38,24.33c-7.31-1.29-10-9.62-5.15-15.16,3.89-4.48,10.78-6.08,15.63-2.23,2.18,1.72,4.31,5.13,3.44,8.11a6.13,6.13,0,0,1-1,2.05c-.06.06-.12.1-.17.16l-.47.51c-3,2.49-8.22-.54-9.55-4.19a2.43,2.43,0,0,0-4.69,1.29,12.92,12.92,0,0,0,7,9.07A9.32,9.32,0,0,1,189.11,397.83Z"/><path class="quinoacls-1" d="M243,314.1c-2.57-4.21-7.45-6.59-12.28-6.85-11.2-.61-19.8,11.68-15.46,22,3.21,7.63,14.31,13.29,21.81,8.3S247.84,322.05,243,314.1ZM235.32,332c-4.79,4.8-12.76.89-15.38-4.34-4.67-9.33,10.35-17.81,16.85-10.49C241,321.89,239.52,327.74,235.32,332Z"/><path class="quinoacls-1" d="M173.68,300.16a10.71,10.71,0,0,0-9.72,2.36c-9.45,8.34-8.46,22.08,1.93,29s24.12-.31,27-11.68C195.53,309,185.48,294.44,173.68,300.16Zm11.93,17.64a12.31,12.31,0,0,1-13.33,8.75c-6.91-1-12.7-7-9.17-14.07,1.92-3.83,5.62-7.27,9.77-4.86,3.93,2.28,2.77,6.8,2.25,10.77-.32,2.45,3.3,2.57,4.05.55,1.31-3.56,2-7.81,1.06-11.56C184.35,308.78,187.09,312.18,185.61,317.8Z"/><path class="quinoacls-1" d="M135.41,326.27a15.73,15.73,0,0,0-9.18-6.09l1.39-.41c2.48-.73,2.9-5,0-5.46-9.92-1.56-19.09,8-20.7,17.25-1.79,10.31,9.1,19.24,19,17.23A14.74,14.74,0,0,0,135.41,326.27ZM121.61,343a9.92,9.92,0,0,1-8.17-4.55c-5.46-9.22,10.13-16.93,16.38-9.86C135.28,334.74,129,343.43,121.61,343Z"/><path class="quinoacls-1" d="M132.24,245.41c-10.83,4.54-14.51,19.42-4.76,27.22,9.2,7.35,23.79,1.57,25.48-10.05a13,13,0,0,0,.13-1.87c.95.53,2.35.36,2.57-.94C157.84,247.38,141.79,241.41,132.24,245.41Zm14.51,15.81c-1.38,7.6-12.25,11.83-17.34,5a9.87,9.87,0,0,1-1.36-8.81,9.26,9.26,0,0,1,9.84-6.63C143.57,251.09,147.8,255.45,146.75,261.22Z"/><path class="quinoacls-1" d="M199.78,229.05c-6.61,1-14,6.5-14.87,13.51a23,23,0,0,0,.18,12.82,1.7,1.7,0,0,0,3.32-.45v-.06a18.59,18.59,0,0,0,5.46,5.3c11.2,6.88,24.34.55,26.32-12.26C221.91,236.75,210.58,227.38,199.78,229.05Zm1.71,27.73a9.49,9.49,0,0,1-2.2-.6c-4.49-1.79-8.35-6.32-8.45-11.29a9.17,9.17,0,0,1,3.83-7.51c8.31-6.3,22.38,1.51,18.25,12.23C211.09,254.34,206.36,257.5,201.49,256.78Z"/><path class="quinoacls-1" d="M206,181c-4-11.79-17.95-16.26-29.15-12.72-2.69.86-2.37,5.33.7,5.14l1.7-.09a16.35,16.35,0,0,0-7.95,13.53c-.55,11.3,9.08,20.66,20.34,18.18C202.59,202.67,209.78,192,206,181Zm-11.13,16.71c-7.72,4.36-18.55,1.36-18.48-9A11.36,11.36,0,0,1,181,180,21,21,0,0,1,191,176.05a6.31,6.31,0,0,1,5.34,1.74C203.29,183.6,202.91,193.22,194.88,197.75Z"/><path class="quinoacls-1" d="M141.9,198.24c-3-10.23-19.06-18.4-26.27-7.31-.06.09-.07.18-.12.27a12.31,12.31,0,0,0-3,2c-9.81,8.79-1.83,23.15,9.54,25.23S145.36,210.15,141.9,198.24Zm-12.18,12.49c-5.47,2.37-13-.22-14.91-6.22-1-3.07,0-7.57,3.6-8.56,5-1.37,7.46,4.1,7.65,8,.08,1.7,2.59,2.69,3.44.93,2.38-4.9.94-9.33-2.15-12a7.63,7.63,0,0,1,6.37,3C137.75,200.59,135.14,208.38,129.72,210.73Z"/><path class="quinoacls-1" d="M206.06,108c-2.43-1-3.57,2.69-1.69,4a12.91,12.91,0,0,1,2.13,1.9,13.62,13.62,0,0,0-5.25-1.77c-11.39-1.28-21.18,8.84-15.7,20,5.13,10.48,20.53,9.32,27.11,1.15A16.29,16.29,0,0,0,206.06,108ZM193.1,132c-7.26-5.26-2.94-13.94,5.12-14a9.71,9.71,0,0,1,8.77,4.7,8.26,8.26,0,0,1,.52,6.9c-1.14,2.72-4.08,3.78-6.76,4.22A10.24,10.24,0,0,1,193.1,132Z"/><rect class="quinoacls-2" width="512" height="512"/></g></g></svg>