<svg xmlns="http://www.w3.org/2000/svg" viewBox="0 0 512 512"><defs><style>.radishcls-1{fill:none;}.radishcls-2{fill:#72ab4c;}.radishcls-3{fill:#4a2d2d;}.radishcls-4{fill:#e54167;}</style></defs><g id="Capa_2" data-name="Capa 2"><g id="bocetos"><rect class="radishcls-1" width="512" height="512"/><path class="radishcls-2" d="M243.68,152.3s20.37-30.72,61.12-42.69,66.29-8.41,69.2-1-12,47.54-58.21,56S243.68,152.3,243.68,152.3Z"/><path class="radishcls-2" d="M233.33,71.77c-17.64-24.59-34-32-37.51-29.42s-16.17,47.86-.33,73.08,50.13,33.63,50.13,33.63S256.29,103.79,233.33,71.77Z"/><path class="radishcls-3" d="M245.16,196.42c1.83-26.39,3.48-50.93,12.62-76.12,9.09-25,24.33-44.64,39.17-66.29,3.3-4.81-3.61-9-7.51-5.8-20.74,16.86-34.52,44.16-43.39,68.86s-14.7,54.41-10.21,80.61c.95,5.56,9,3.76,9.32-1.26Z"/><path class="radishcls-4" d="M228.8,193.69c-51.74,5.82-72.76,34-82.79,51.42s-30.39,68.56,11,104.13S228.48,377.05,235,392.9s-2.91,62.41,4.2,70.5,17.46-5.82,20-21.35-2.26-49.8,2.91-50.12,75-13,90.23-78.59C371.42,231.2,280.54,187.87,228.8,193.69Z"/><path class="radishcls-3" d="M160.12,263.39c18.47,7.4,45.2,15.47,64.95,8.68,1.6-.55,2-3.39,0-3.7-10.14-1.54-20.62-.09-30.9-1.37a145.78,145.78,0,0,1-32.87-7.9c-2.7-1-3.79,3.24-1.18,4.29Z"/><path class="radishcls-3" d="M253.06,268.89c1.36-.11,2.7-.25,4-.49,2.14-.39,2.14-3.94,0-4.32-1.34-.24-2.68-.38-4-.5a2.66,2.66,0,1,0,0,5.31Z"/><path class="radishcls-3" d="M292.73,298.16c6.16.6,13,.14,18.25-3.48a2,2,0,0,0-1.57-3.72c-5.67,1-10.84,2.44-16.68,1.92-3.39-.3-3.35,4.95,0,5.28Z"/><path class="radishcls-3" d="M311.48,272a30.43,30.43,0,0,0,3-1.33,2,2,0,0,0-1-3.65,31.7,31.7,0,0,0-3.2.62,2.26,2.26,0,0,0,1.21,4.36Z"/><path class="radishcls-3" d="M278.62,320.72c15.75,4.53,36.12,2.94,49.66-6.93,1.34-1,.62-3.48-1.21-2.88-7.4,2.44-14.42,5.53-22.15,6.82-8.63,1.43-17.24.85-25.87-.15-1.83-.21-2.1,2.66-.43,3.14Z"/><path class="radishcls-3" d="M170.64,318.06c14.49,5.95,31.79,10.63,47.54,7.92,2.09-.37,1.34-3.25-.47-3.44-16-1.66-30.77-2.36-46-8.25-2.36-.91-3.32,2.83-1,3.77Z"/><path class="radishcls-3" d="M230.63,326.85l3.45-.38a1.6,1.6,0,0,0,0-3.19l-3.45-.38a2,2,0,0,0,0,4Z"/></g></g></svg>