<svg xmlns="http://www.w3.org/2000/svg" viewBox="0 0 512 512"><defs><style>.raspberrycls-1{fill:#4a2d2d;}.raspberrycls-2{fill:#f1475d;}.raspberrycls-3{fill:#fff;}.raspberrycls-4{fill:none;}</style></defs><g id="Capa_2" data-name="Capa 2"><g id="bocetos"><path class="raspberrycls-1" d="M198.33,185.06c-13.2-23.68-39.72-34.5-64.86-40.37-2.63-.62-5.64,1.79-4.65,4.65a81,81,0,0,0,22.36,33.95c9.11,8.12,23,17,35.69,16.56,3.27-.11,5.22-5.08,1.8-6.67-11.1-5.17-21.91-7.74-31.7-15.67a64.47,64.47,0,0,1-20.85-30.18L131.46,152c24,5.9,47,15,61.12,36.44,2.34,3.57,7.86.41,5.75-3.37Z"/><path class="raspberrycls-2" d="M366.29,242s7.07-9.55,2.12-31.12a30.84,30.84,0,0,0-8.73-15.37,64.46,64.46,0,0,1-10.67,6,122.06,122.06,0,0,1-21.86,7.4A114.12,114.12,0,0,1,299.46,212c-4.81,0-10.08.25-14.72-1.22a10.55,10.55,0,0,1-2.95-1.46,42.58,42.58,0,0,1-15.5,6.79,25.67,25.67,0,0,1-11.47,0c-3.57-.88-6.85-2.59-10.37-3.59s-7.4-.71-11.07-1a36.14,36.14,0,0,1-11.33-2.92c-6.36-2.72-11.42-7.47-15.56-12.93-2.39-3.16-4.47-6.53-6.63-9.86a43.61,43.61,0,0,0-36.16,4.58c-20.51,12.37-17,36.41-10.26,44.19s11.32,9.55,11.32,9.55-19.85,12.28-18,36.77c2.12,28.64,29.34,35.71,29.34,35.71s-15.2,27.22.36,45.26,38.18,17.32,38.18,17.32-5,43.91,45.61,45.61c42.08,1.41,46.67-43.49,46.67-43.49s27.93-2.47,38.89-24.75c12.72-25.83-2.82-45.61-2.82-45.61s27.22,0,34.29-27.22S366.29,242,366.29,242Z"/><path class="raspberrycls-1" d="M380.06,157.44a156.35,156.35,0,0,0-78.32,31.09c9.28-16.63,14.57-37.11,18-52.51a3.52,3.52,0,0,0-5.11-3.92c-17.18,9.89-31.91,24.28-43.73,40.74.43-18.78-.74-37.51-7.15-55.46-4.31-12.1-17.73-42.83-35.57-30.51-18.36,12.68,1.23,36.3,7.76,49.48,5.52,11.14,9.73,22.67,11.7,35,1.49,9.31,1.12,18.08.18,27-6.33-13.41-16.34-25.88-25.74-36.2a269.24,269.24,0,0,0-23-22.71c-4.1-3.55-11.17-8.82-15.69-3.06-4.84,6.17-2.76,18.93-1.34,25.9,2.14,10.49,6.94,22.08,13.42,30.65,5.46,7.2,12.18,15.11,20.43,19.14,9.71,4.74,21.3,5.51,31.92,5.76a6.12,6.12,0,0,0,1.39-.14,3.22,3.22,0,0,0,2.85-.81,2.4,2.4,0,0,0,1.3.57,40.9,40.9,0,0,0,24.19-3.67c10-1.23,20.19.25,30.2.09,11.62-.18,23.73-2,34.57-6.32,20.3-8,35.7-23.91,41.52-45.09C384.5,160.17,382.67,157.17,380.06,157.44ZM242.75,134c-4-8.72-10.75-16.86-13.49-26.06-1.38-4.64-1.48-12.13,3.69-14.83,6.08-3.17,11.2,4.14,13.79,8.36A101.52,101.52,0,0,1,258,128.26c4.8,18.06,5,37.33,5.41,56a183.39,183.39,0,0,0-8.75,16.17c2.26-13.6.21-28.51-3.12-41.28A154.25,154.25,0,0,0,242.75,134Zm-39,56.2c-5.79-7-9.51-15.84-12.5-24.37a59,59,0,0,1-3.33-14.49c-.34-4.14-1.17-11.43,4.53-8.56,6.27,3.17,12.38,10.23,17.4,15.05a172.15,172.15,0,0,1,14.9,16.35c8.33,10.35,13.78,21.16,18.89,32.79-6.7-.76-13.42-1.4-20-3C215.66,201.84,209,196.47,203.77,190.15Zm51.62,21c15.87-25.64,30.73-51.15,55.71-68.53a179.88,179.88,0,0,1-18,42.81c-3.73,6.5-8.15,13-14,17.71C271.78,209.11,263.9,209.24,255.39,211.19Zm74.66-7.73c-13.44,4.21-27,3.09-40.61,3.35,23.7-22.51,52.24-36.69,84.78-40.81C366.52,184.66,349.16,197.48,330.05,203.46Z"/><path class="raspberrycls-1" d="M364.64,240.31c-3.42,2.91-5.51,7-8.95,10a36.8,36.8,0,0,1-16,8.06c-12.12,2.67-24.36-1.55-33.69-9.31,2.19-15.93-2.42-36.83-18.58-40.68a2.56,2.56,0,0,0-2,4.66c15.23,10.13,19.06,30.72,11,46.74C289,274.55,272.26,283,256,282.05c-15.79-.94-30.65-10.72-37.31-25.1-7.31-15.75-1.31-33.45,11.56-44.25,1.64-1.38-.53-4.23-2.31-3-8.11,5.66-13.22,14.42-15.25,23.93-6.81,4.66-12,9.79-20.38,12-9.49,2.45-19.14,1.17-28.06-2.67-1.82-.78-3.4,1.67-1.6,2.73,14,8.21,37.41,8.31,49.1-4.62a43.32,43.32,0,0,0,2.84,17.65c3.84,9.85,11.49,17.76,20.73,22.79-3.88,11.42-10.89,22.91-21.56,29.2-12.06,7.1-25.06,6.44-38.09,3-2-.53-3.52,2.56-1.48,3.52,21.13,9.92,43.72.81,56.36-16.41-1.26,12.28,2.93,24.38,13.25,32.48a38.54,38.54,0,0,0,14.16,7c.06.47.13.94.2,1.41-4.12,8.14-8.24,15.56-15.47,21.79-8.39,7.22-18.32,10.83-28.91,13.44a1.83,1.83,0,0,0,.48,3.58c17.83-.24,38-13.46,46.23-30.4a46.7,46.7,0,0,0,13.39,17.62c8,6.72,19.85,16,30.91,14.75,2.14-.24,3-3.48.55-4-17.42-4-37.65-17.08-42.17-35.57.13-.5.25-1,.36-1.53,9.8,1.19,20.07-.92,29.16-5.32,13.41-6.48,25.13-18,29.53-32.38a31,31,0,0,0,8.41,5.05c3.74,1.49,8.87,3.57,12.85,2.29a1.91,1.91,0,0,0,.45-3.44c-2.91-2.24-7.26-2.13-10.7-3.32a47.35,47.35,0,0,1-9.91-5c.17-.88.33-1.75.45-2.65,1.74-13.64-2.62-27.86-12.23-37.51a39.64,39.64,0,0,0,27.38,5.06c10.5-1.83,26.87-10.33,28.61-22.15A1.73,1.73,0,0,0,364.64,240.31ZM318.4,294.16c-1.55,16-11.8,26.9-25.35,34.5-12.77,7.17-29.16,10.06-42.61,2.93-13.21-7-18.25-22.56-16.1-36.77a51.42,51.42,0,0,0,4.59-11.57,48.49,48.49,0,0,0,19.36,4.3c18.49.14,37.44-10.57,44.85-27.86C312.86,268.75,319.74,280.3,318.4,294.16Z"/><path class="raspberrycls-3" d="M174.85,191.73a25.85,25.85,0,0,0-13.29,10.15c-3.09,4.89-4.83,12-1.15,17,2.16,2.94,7.68,4.19,9.54,0,2.77-6.27,2.2-13.46,9.31-16.69,5.85-2.67,1.69-12.65-4.41-10.47Z"/><path class="raspberrycls-3" d="M231.71,228.66a20,20,0,0,0-5.88,14.72c.15,5.2,3.7,13.52,10.1,12.74,2.13-.25,4.41-1.38,4.89-3.72,1-5-4.66-10.83-.88-15.51,4.59-5.71-2.77-13.61-8.23-8.23Z"/><path class="raspberrycls-3" d="M351,220.81l.07.09-.82-1.05a1.48,1.48,0,0,1,.21.37l-.54-1.28a4.76,4.76,0,0,1,.2.74l-.19-1.45a7.49,7.49,0,0,0,.27,1.88l.54,1.29a4.1,4.1,0,0,0,1.4,1.52,5.19,5.19,0,0,0,3.28,1.16,6.36,6.36,0,0,0,2.73-.74,4.07,4.07,0,0,0,1.52-1.39,4.15,4.15,0,0,0,1-1.84,1.8,1.8,0,0,0,.14-.83,7.83,7.83,0,0,0,.1-.83L360.7,217a.94.94,0,0,0,0-.16,8,8,0,0,0-.74-1.76,7.4,7.4,0,0,0-1-1.21,6.49,6.49,0,0,0-1.21-.93,6.75,6.75,0,0,0-1.72-.75l-1.37-.18a3.88,3.88,0,0,0-2,.44,5,5,0,0,0-2.47,2.11,6.13,6.13,0,0,0-.71,2.61,3.89,3.89,0,0,0,.45,2,3.78,3.78,0,0,0,1.07,1.66Z"/><path class="raspberrycls-3" d="M353.92,235.78a1.59,1.59,0,0,0,0-3.18,1.59,1.59,0,0,0,0,3.18Z"/><path class="raspberrycls-3" d="M355.34,296.26c10-4.14,18.29-18.05,10.33-27.81-2.13-2.61-6.85-1.13-7.54,2-.74,3.36-.51,6.81-1.61,10.1a18.48,18.48,0,0,1-5.66,8c-3.36,2.88.22,9.45,4.48,7.7Z"/><path class="raspberrycls-3" d="M244.81,295.11A23.36,23.36,0,0,0,249,316.92c4.78,5.77,12.68,8.65,19.62,5.2,3.63-1.8,2.68-7.67-1.12-8.59s-7.56-1.92-10.06-5.06-3-8.07-3.2-12.09c-.24-5.37-7.8-6.54-9.42-1.27Z"/><path class="raspberrycls-3" d="M162.46,258.38c-8.33,9-12.79,29.08.16,36.52,3.69,2.13,7.66-1.37,6.85-5.27-1.72-8.39-5.79-15.89.51-23.73,4.19-5.21-2.77-12.65-7.52-7.52Z"/><path class="raspberrycls-3" d="M182,331.39c-4,6.34-4.8,14.41-1,21.08,3.31,5.85,10.22,10.81,17.12,8.56,3-1,4.39-4.91,1.91-7.23-5.1-4.78-12.8-8.77-9.21-17.26,2.5-5.9-5.16-10.85-8.81-5.15Z"/><path class="raspberrycls-3" d="M228.38,386.85c0,12.23,9.71,25.6,22.56,26.49,3.61.25,5.77-4.16,4.05-7.07-4.14-7-15.92-10.26-16.47-19.42-.39-6.47-10.12-6.59-10.14,0Z"/><path class="raspberrycls-3" d="M274.72,412.24c3.45,0,3.45-5.36,0-5.36s-3.46,5.36,0,5.36Z"/><path class="raspberrycls-3" d="M285.84,350a22.38,22.38,0,0,0,7.68,12.11c3.86,3.11,9.55,5.71,14.38,3.28,2.12-1.07,2.83-4.79.81-6.35-2.62-2-6-2.63-8.82-4.49a12.87,12.87,0,0,1-5.16-7c-1.74-5.67-10.29-3.33-8.89,2.45Z"/><path class="raspberrycls-3" d="M343.31,336.41a1.81,1.81,0,0,0,0-3.62,1.81,1.81,0,0,0,0,3.62Z"/><rect class="raspberrycls-4" width="512" height="512"/></g></g></svg>