<svg xmlns="http://www.w3.org/2000/svg" viewBox="0 0 512 512"><defs><style>.red-cabbagecls-1{fill:none;}.red-cabbagecls-2{fill:#b75778;}.red-cabbagecls-3{fill:#4a2d2d;}.red-cabbagecls-4{fill:#fff;}.red-cabbagecls-5{fill:#edd4dc;}</style></defs><g id="Capa_2" data-name="Capa 2"><g id="bocetos"><rect class="red-cabbagecls-1" width="512" height="512"/><path class="red-cabbagecls-2" d="M421.63,372c-17.26,21.62-44.12,38.55-74.09,50.59l-.07,0c-1.14.43-2.27.9-3.43,1.33-1.36.53-2.75,1.05-4.14,1.54-.47.2-1,.37-1.43.53a.24.24,0,0,0-.15.06,313,313,0,0,1-38.83,11.22h0c-2.34.53-4.69,1-7,1.47-28.29,5.59-56,7.13-78.48,4.45-1-.11-2-.25-3-.39-1.77-.23-3.59-.49-5.41-.78l-.72-.12c-2.66-.43-5.38-.91-8.12-1.46-1.83-.35-3.67-.75-5.53-1.18l-2.79-.64-2.82-.68c-.94-.26-1.9-.49-2.83-.75h0c-.82-.21-1.65-.43-2.47-.66l-.15,0C122.53,420.53,57,377.91,47.58,282,36.3,166.47,121.79,89.39,138.39,80.45c16.93-9.11,21.72-3.46,24.32-.43a10.13,10.13,0,0,1,1.72,4.4c9-8.5,25.72-22.93,40.43-27.43,21.28-6.51,30.39,9.56,30.39,9.56s42.58-9.11,74.29.88,47.37,21.72,47.37,21.72,6.08-6.51,7.82-6.51,47.78,17.36,73,83.83S464.64,318.09,421.63,372Z"/><path class="red-cabbagecls-3" d="M152.37,105.58c12-10.93,24.32-22.68,37.53-32.24,7.14-5.16,15.87-10.52,25.1-9.41,8.91,1.07,13.88,8.36,18.75,15,8,11,15.82,18.55,28.9,23.21,14.74,5.26,27.11,7.77,35.8,21.91,2.36,3.83,9.09,1.39,8.32-3.09-2.5-14.55-17.59-21.38-30.24-25.45-10.56-3.41-20.88-6.21-28.4-14.94-5-5.82-8.94-12.54-14.73-17.69-11.91-10.6-26.52-8.7-39.69-1.46-17.61,9.68-32.8,24.44-45.2,39.95-1.94,2.43,1.35,6.47,3.86,4.2Z"/><path class="red-cabbagecls-3" d="M245.6,182.24c7.83-12.78,13.17-26.88,23.75-37.86a50.78,50.78,0,0,1,20-13.16c7.61-2.57,15.5-2.34,23.3-3.77C334,123.54,358.22,107.7,368.17,88c2.24-4.44-4-9.15-7-4.95-8,11.27-18,24.26-30.94,30.22s-27.66,4.48-40.86,9.57c-23.63,9.11-41.8,33.26-49.41,56.8a3.1,3.1,0,0,0,5.61,2.64Z"/><path class="red-cabbagecls-4" d="M221.51,239.85a2,2,0,0,0-3.54,1.32c1.87,13,.16,24-8.21,34.52-7.27,9.17-17.44,15.53-26.73,22.42-11.53,8.56-23.74,19.21-28.14,33,1.21,2.55,2.35,5.14,3.44,7.75,6.37-25.69,31-35.24,49.24-52C219.5,275.82,231.7,255.68,221.51,239.85Z"/><path class="red-cabbagecls-4" d="M104.08,208.33c-3.29,34.37,7.69,72.43,33.3,96.62,2.41,2.27,6.42-1.35,4.31-3.95-21.79-26.81-35.09-56.75-33.47-92,.12-2.63-3.88-3.46-4.14-.71Z"/><path class="red-cabbagecls-4" d="M209.85,286.06c15.39-.56,34-5.71,45.06-17,1.35-1.37-.44-3.9-2.18-3.09C246,269.1,239.9,273.32,233,276.12a122.94,122.94,0,0,1-23.46,6.59,1.68,1.68,0,0,0,.33,3.35Z"/><path class="red-cabbagecls-4" d="M375.57,356.56c10.9-18.2,11.6-43.21,5.58-63.12-3.83-12.69-12.19-22.91-17.55-34.87-6.75-15-4.64-28.57-2.61-44.24a1.81,1.81,0,0,0-3.4-1.07c-12.23,21.26-1,45.8,10,64.64,14.18,24.3,14.67,51.21,4.88,77.21a1.7,1.7,0,0,0,3.08,1.45Z"/><path class="red-cabbagecls-4" d="M402.84,325.57c17.81-16.76,42.32-41.32,38.83-68.34a1.94,1.94,0,0,0-3.83-.14c-2.64,13-5.52,24.74-12.81,36.09-7,11-16.1,20.53-24.74,30.24-1.46,1.65,1,3.58,2.55,2.15Z"/><path class="red-cabbagecls-4" d="M220.57,152.39c8.45-16.84,23.37-24.48,36.61-36.67,1.13-1-.37-3-1.71-2.42-15.7,7.26-31.67,21.31-38.57,37.36a2,2,0,0,0,3.67,1.73Z"/><path class="red-cabbagecls-4" d="M183.37,138.28c4.36-14.35,12.71-24,21.83-35.39a1.62,1.62,0,0,0-2.16-2.35c-12.17,8.06-19.44,23.48-22.91,37.18-.53,2.08,2.64,2.53,3.24.56Z"/><path class="red-cabbagecls-4" d="M329.67,145.74c3,14.75,8.33,33.08,20.36,43.17,1.38,1.16,3.81-.33,3-2.11-3.23-7-8.07-13.16-11.46-20.12a111,111,0,0,1-8.15-21.81c-.53-2.1-4.18-1.28-3.74.87Z"/><path class="red-cabbagecls-4" d="M319.39,211.42a121.2,121.2,0,0,1-11-10.27c-3.43-3.59-6.27-7.79-10-11.09a1.84,1.84,0,0,0-2.88,2c3.8,9.29,13.24,16.85,21.19,22.49,2.14,1.52,4.75-1.46,2.66-3.16Z"/><path class="red-cabbagecls-4" d="M225,382.93c21.62-18.5,40.5-44,45.79-72.55.35-1.89-2.56-2.9-3.29-1-10.52,26.87-22.88,50.88-44.73,70.43-1.82,1.63.32,4.79,2.23,3.16Z"/><path class="red-cabbagecls-4" d="M276.61,358.54c11.8-4.27,23.9-9.8,33.73-17.73a1.76,1.76,0,0,0-2-2.87c-10.81,6.33-21.31,12.45-33.15,16.73-2.5.9-1.06,4.77,1.45,3.87Z"/><path class="red-cabbagecls-4" d="M128.7,193.76c-4-17-2.88-33.79,1.65-50.5.44-1.61-2.2-2.45-2.82-.89-6.74,17.12-7,35-2.45,52.74.62,2.42,4.18,1,3.62-1.35Z"/><path class="red-cabbagecls-4" d="M119.25,337.36c-14.48-6.09-24.84-16.22-34-28.73C84.05,307,81,308.38,82,310.37c7.07,14.65,20.48,25.1,35.39,31,2.64,1,4.54-2.91,1.89-4Z"/><path class="red-cabbagecls-4" d="M183.71,237c3.9-4,7.87-7.95,11.66-12.05,1.16-1.26-.72-3.39-2.05-2.24-4.22,3.65-8.3,7.47-12.41,11.24a2.08,2.08,0,1,0,2.8,3.05Z"/><path class="red-cabbagecls-4" d="M308.39,94.16l4.42-1.48a12.29,12.29,0,0,0,4.1-1.85c.95-.81.88-2.82-.66-2.93-3.05-.23-6.43,1.47-9.31,2.39-2.52.81-1.08,4.72,1.45,3.87Z"/><path class="red-cabbagecls-5" d="M211,442.81c-1.77-.23-3.59-.49-5.41-.78l-.72-.12c-2.66-.43-5.38-.91-8.12-1.46-1.83-.35-3.67-.75-5.53-1.18l-2.79-.64-2.82-.68c-.94-.26-1.9-.49-2.83-.75h0a3.25,3.25,0,0,1-2.45-.58l-.17-.12c-16.91-11.42-25.73-33.8-31.87-52.57A269.7,269.7,0,0,1,140.05,249c4.24-21.46,10.36-44.55,21.17-63.67a2.24,2.24,0,0,1,4.05,1.92c-9,25.59-17.89,49.67-18,77.14-.09,26.16,4.87,52.23,12.2,77.26a287.49,287.49,0,0,0,19.63,49.59C186.69,406.14,197.82,426.55,211,442.81Z"/><path class="red-cabbagecls-5" d="M418,273.45c-1.87,30-15,64.07-27.94,91.11-9.52,19.86-22.52,46.51-42.56,58l-.07,0a60.79,60.79,0,0,1-7.65,2.85l-1.35.55a.24.24,0,0,0-.15.06,313,313,0,0,1-38.83,11.22h0c-2.34.53-4.69,1-7,1.47,36-24.38,71.82-61.93,89.73-102.32a246.32,246.32,0,0,0,18.27-63.77c1.67-11.24,3.21-23.32,3.09-34.7a252.76,252.76,0,0,0-2.71-31c-7-28.09-15.79-53-31.65-77.2-1.23-1.92.26-6.36,1.63-4.56C403.33,167.94,421.43,219.36,418,273.45Z"/><path class="red-cabbagecls-3" d="M152.19,89.18c-7.5,10.84-6.63,22.83-.12,34,7.75,13.33,22.23,19.25,36.36,23.56,16.78,5.11,38.74,8.89,47.85,25.92,7.15,13.36,2.6,30,10.72,43.15,8.93,14.54,27.05,22.61,40.09,32.87A117.86,117.86,0,0,1,320,288.37c15.28,30.56,15.58,67.3-2.22,96.88-10.18,16.89-25.19,29.28-42.93,37.58a104.67,104.67,0,0,1-22.87,7.93c-9.82,2-19.75,1.52-29.63,2.84A4.27,4.27,0,0,0,222,442c28.77,6.31,65-8.49,86.12-27.69,23.28-21.17,36.85-53.53,35.14-85-1.77-32.61-18.59-64.78-43.83-85.41-6.9-5.64-14.49-10.34-21.94-15.2-7.74-5-17.49-10.41-22.21-18.69-8.13-14.25-2.56-32.16-12.66-46.08-10.48-14.43-28.39-19.61-44.76-24.05-11.3-3.07-23.57-6.18-32.6-14.09-8.66-7.58-14.83-21.6-7.92-32.27,2.3-3.57-2.66-8-5.15-4.34Z"/></g></g></svg>