<svg xmlns="http://www.w3.org/2000/svg" viewBox="0 0 512 512"><defs><style>.red-peppercls-1{fill:none;}.red-peppercls-2{fill:#e3365e;}.red-peppercls-3{fill:#fff;}.red-peppercls-4{fill:#4a2d2d;}</style></defs><g id="Capa_2" data-name="Capa 2"><g id="bocetos"><rect class="red-peppercls-1" width="512" height="512"/><path class="red-peppercls-2" d="M419.09,244.55c-3.21-67.43-31.47-91.2-73.85-93.77a148.47,148.47,0,0,0-31.17,1.94,4.39,4.39,0,0,1-.4.33c-3.39,2.32-6.21,5.36-9.14,8.21a73.2,73.2,0,0,1-9.19,7.57c-5.29,3.68-11,6.77-16.48,10.1,7.42,7.44,13.15,16.57,19.19,25.08,1.7,2.39-.11,5.27-2.52,6.06a3.93,3.93,0,0,1-.26,2.75c-1.24,2.5-4.78,3-7.28,2.8a20.11,20.11,0,0,1-6.73-2,29,29,0,0,1-5.47-3.56c-.2-.15-.38-.32-.58-.47-2.9-.08-6-1.59-8.4-2.94a64.5,64.5,0,0,1-6.84-4.38c-4.43-3.23-8.62-6.81-13.3-9.69-2.48,2-4.71,4.21-7.43,5.88-5.85,3.61-12.1,6.06-18.43,8.66-5.8,2.38-12.12,5-18.51,4.59a3.39,3.39,0,0,1-2.37-5.71c8.48-9.79,18.67-17.59,29.12-25.11-1.74-1.8-3.57-3.52-5.4-5.26-2.69-2.57-5-5.39-7.51-8.14-4.12-4.56-9-9.63-10.15-15.89-17.45-7.79-40-13.23-63.05-6-48.8,15.41-61.65,73.21-46.24,138.71s50.74,140,92.48,147.07,53.3-28.26,66.15-21.84,26.33,35.32,69.36,19.91S422.3,312,419.09,244.55Z"/><path class="red-peppercls-3" d="M164.4,167c-15.81.4-28.51,11-36.62,23.94-7.85,12.5-14,33.19-2.54,45.15a6.82,6.82,0,0,0,10.61-1.37c5.86-10.22,4-22.78,9.87-33.29,5.48-9.79,15-16.11,23.27-23.33,4.27-3.73.84-11.24-4.59-11.1Z"/><path class="red-peppercls-3" d="M129.72,265.43c.37,1.15.75,2.3,1.2,3.43a5.55,5.55,0,0,0,1.77,2.57,4.71,4.71,0,0,0,3,1.07,5.87,5.87,0,0,0,2.5-.68,5.27,5.27,0,0,0,2.28-3c.45-1.13.83-2.28,1.2-3.43,1.25-3.87-2.09-7.85-6-7.85s-7.22,4-6,7.85Z"/><path class="red-peppercls-4" d="M324,389.13l5.75.13c2.19.05,4.31.18,6.17-1.19a4,4,0,0,0,0-6.69c-1.86-1.37-4-1.24-6.17-1.19l-5.75.13c-5.67.13-5.68,8.68,0,8.81Z"/><path class="red-peppercls-4" d="M328,371.94a24.14,24.14,0,0,1,6.24-.05c2.33.33,4.59.86,6.92.29,3.41-.83,3.95-4.91,1.93-7.3-3.69-4.33-11.43-3.65-16.45-2.93-5.61.8-4.35,10.65,1.36,10Z"/><path class="red-peppercls-4" d="M316.67,142.73c-14.05,4-30.36,10.81-45.51,12.2,9.82-26.83,10.68-82.58-24.87-82.52-13.76,0-32.86,11.46-30.92,27.17,1.19,9.59,8.68,18.59,13.26,26.84C234,136.19,239.06,146,239.91,157a186.38,186.38,0,0,0-36-16.9c-3.26-1.12-5.8,2.27-5.2,5.2,2.83,13.87,9.6,27.49,20.8,36.12a149.08,149.08,0,0,0-26.73,26.69c-2.46,3.2,1,7.05,4.19,7.31,10.12.81,20.33-.08,29.59-4.28,13.14-6,19.47-12.43,21.53-12,2.78.55,8.26,7,22.07,13.07,8.83,3.86,18.66,5,28.28,4.7a6,6,0,0,0,5.14-8.95,119.7,119.7,0,0,0-18-24.7,97.28,97.28,0,0,0,37.14-32.67C325.29,146.61,321,141.51,316.67,142.73ZM228.49,90.88c2.77-3,7.11-5.18,10.93-6.37,4.55-1.41,8.38-1.36,11.6-.26-3.7,8.57-14,14.15-24.64,16.26C225.57,97.13,225.8,93.81,228.49,90.88Zm46.57,87.06c-3.68,1.5-5.22,2.16-1.78,5.33,6.16,5.68,16.41,17.14,20.87,24-16.5,4-39.8-14.72-43.83-16.34-6.59-2.64-8.56,2-20.55,8.64-14.41,8-21.7,7.61-28.87,8.88,6.95-7.22,20.47-19.2,29.46-24.27,3.82-2.16,3.4-3.85-.15-6.07-10.44-6.52-20.51-20.85-24.87-31.68,11.34,4.62,26.9,13.83,37.23,20.54l.07,0c3.18,2.45,5.28,2.88,5.92-2.52a61.3,61.3,0,0,0-8.58-40c-3.71-5.85-7.91-11.11-11-17.28,11.45-2.36,23.26-11.13,24.4-21.92,7.87,4.37,11.43,15.65,12.76,25.51,2.15,15.89,2.81,31-5.16,45.36-1.74,3.14-.39,7.89,3.05,8.08,8.89.5,16.08-2.55,24.63-4.67,4.51-1.12,18.94-5.48,22.79-7.4C303.18,160.38,286.17,173.42,275.06,177.94Z"/></g></g></svg>