<svg xmlns="http://www.w3.org/2000/svg" viewBox="0 0 512 512"><defs><style>.ricecls-1{fill:#4a2d2d;}.ricecls-2{fill:none;}</style></defs><g id="Capa_2" data-name="Capa 2"><g id="bocetos"><path class="ricecls-1" d="M190,76a16.69,16.69,0,0,0-2.74-2.16c-5.67-3.54-11.54-.29-16.38,3.25-7.84,5.74-13.89,13.44-20.19,20.73-6.93,8-37,40.95-20.72,50.94,6.83,4.18,16.17-1.65,21.9-5.19a100.42,100.42,0,0,0,24.51-21.2c7.84-9.43,18.72-22.43,18.48-35.5A15.85,15.85,0,0,0,190,76Zm-18.67,39.4a118.82,118.82,0,0,1-28.85,25.69c-3.57,2.28-8.45,1.33-9.85-3-1.8-5.59,3.26-11.26,6-15.62A203.8,203.8,0,0,1,151.26,105c7.18-9,15.77-21.08,26.83-25.55a8.55,8.55,0,0,1,3.71-.77c8.61.54,4.85,14.46,2.66,18.79C181.1,104.12,176,109.61,171.36,115.39Z"/><path class="ricecls-1" d="M332.24,92.49c-6.6-8.8-19.67-11.44-29.7-13.82a156,156,0,0,0-31.41-3.85c-9.45-.27-19.36-1.1-28.34,2.55A14.38,14.38,0,0,0,235.7,83c-6.59,10.93,11.38,17,18.4,20.09,18.14,7.88,37.84,14.39,57.69,15.7,7.19.48,16.87-.09,21.53-6.33C337.74,106.54,336.47,98.13,332.24,92.49Zm-3.1,11c-.92,10.56-21.37,7.07-27.77,6.11a194,194,0,0,1-30.11-7.47c-8.86-2.83-18.57-5.3-26.56-10.18-3.25-2-4.48-6.6-1.2-9.21a10.75,10.75,0,0,1,4.89-1.9c7.21-1.3,14.35,0,21.56.52a195,195,0,0,1,40.21,6.83C317.28,90.24,330,93.94,329.14,103.53Z"/><path class="ricecls-1" d="M336.21,175.21c-1.32-6.56-12.3-8.74-17.38-10.12-9.25-2.5-19.12-1.79-28.48-.27-9.66,1.56-19.36,2.82-29,4.33-6.07.95-13.47,2.79-14.64,9.94-1.23,7.49,6.25,14,12.18,16.94,10.14,5.1,21.22,5.58,32.28,4,10.74-1.52,21.11-5.58,31.06-9.79C327.64,187.94,337.76,182.92,336.21,175.21Zm-9.58,5c-3.9,4.06-13.1,5.79-18.43,7.28a143.25,143.25,0,0,1-18.22,4,80.31,80.31,0,0,1-20.55.2,47.87,47.87,0,0,1-11-2.47c-7-2.57-7.84-12.09-.36-14a199.71,199.71,0,0,1,28.45-4.62c9.82-1,19.88-2.27,29.72-.87C321.27,170.46,333.34,173.23,326.63,180.23Z"/><path class="ricecls-1" d="M410.66,209.79c-.67-11.89-5.31-23.4-10.36-34-4.64-9.79-9.46-20.22-17-28.14-3.69-3.86-9.85-9.72-15.73-8.8-8.54,1.34-7.88,14.52-7,20.77,1.56,11.28,6,22.73,9.38,33.58s7.63,21.48,14.57,30.56c4.43,5.8,11.37,12.8,19.39,8.95C411.17,229.16,411,216.52,410.66,209.79Zm-6.92,10.93c-.59,3.2-2.26,6-5.93,5.64-4.36-.4-7.24-6.31-9.4-9.47a118.24,118.24,0,0,1-17-37,86.05,86.05,0,0,1-2.87-20.18c-.06-3.78-.16-14.77,6.33-9.32,5.21,4.39,8.93,10.38,12,16.37,7.81,15.11,13.72,30.85,16.79,47.59A18.51,18.51,0,0,1,403.74,220.72Z"/><path class="ricecls-1" d="M427.06,264.06c-7.8-2.88-14.76.84-19.51,7.06-8.07,10.57-13.33,23.06-17.52,35.6-4.31,12.9-8.36,26.24-9,39.9-.43,8.54.48,19.69,10.24,22.65,10.12,3.08,18.36-7.79,23.69-14.69A111.33,111.33,0,0,0,431.31,324c3.93-10.88,7.45-22.24,8.38-33.83C440.48,280.36,436.68,267.61,427.06,264.06Zm-2.47,53.69c-4,12.44-11.63,31.67-22.88,39.63-14.45,10.22-13.2-9.76-12.35-17.24,1.08-9.4,3.65-18.46,6.55-27.43,2.76-8.52,5.35-17.07,9.06-25.24a66,66,0,0,1,6.19-11.57c3.91-5.43,9.5-9.15,14.73-2.94C436.77,285.89,429.08,303.87,424.59,317.75Z"/><path class="ricecls-1" d="M362.34,267.19c-6.06-8.07-13.4-14.3-21.28-20.54-8.21-6.51-16.78-12.76-26.49-16.84-7.28-3.05-15.26-2.66-19.41,4.87-4.44,8,.08,16.86,4.13,24a78.34,78.34,0,0,0,20.5,23.86c9.17,7.05,43.77,28.65,50.86,9.09,3.13-8.62-3.36-17.83-8.25-24.36Zm-19.61,18.52a98.11,98.11,0,0,1-16.17-9.49c-6.68-4.89-13.21-10.21-18.63-16.51-3.55-4.14-8.12-9.19-9-14.78-1.76-11.28,14.11-9.66,19.87-5.86a248.21,248.21,0,0,1,26,19.1c4.57,3.95,9.23,7.92,12.9,12.74,3,3.89,7.9,11.78,5.39,16.89-1.27,2.57-4.63,3.42-7.46,3C351.15,290,346.81,287.63,342.73,285.71Z"/><path class="ricecls-1" d="M219.67,208.28c-6.8-7.37-15.91-13.46-23.94-19.46-4.14-3.1-8.18-6.34-12.36-9.41-4-3-8.28-6.22-13-8-4-1.55-9-2-13.09-.32a9.71,9.71,0,0,0-5.87,6.73c-1.9,7.91,3.49,17,7.51,23.48,9.77,15.69,25.22,27.42,43.44,31.26,7,1.48,16.39,1.85,20.92-5C227.51,221.11,224.34,213.34,219.67,208.28Zm-12.34,17.24c-5.16,0-10.87-2.62-14.85-4.65a89.51,89.51,0,0,1-15.83-10.54,71.46,71.46,0,0,1-10.19-10.09c-2.9-3.55-6-7.65-7.51-12a12.54,12.54,0,0,1-.25-7.87c.68-2.09,2.52-5.55,5.18-4.78,8,2.34,20.9,13.42,28.56,18.89,5.31,3.87,10.51,7.88,15.45,12.22,1.69,1.49,3.44,2.95,5.17,4.41,1.57,1.34,3.16,2.68,3.78,4.73a7.13,7.13,0,0,1-2.26,7.17A10.44,10.44,0,0,1,207.33,225.52Z"/><path class="ricecls-1" d="M120.6,213.89c-3.53-11.26-9.3-21.87-15-32.13a65.89,65.89,0,0,0-19.66-21.69c-9.73-6.79-13.76,7.85-13.61,15.05.19,9,2.15,18.23,4.67,26.9a166.84,166.84,0,0,0,13.39,32.91c4.16,7.68,9.69,17.39,19.07,19.17C131.72,258.33,124.18,225.29,120.6,213.89ZM115,247c-10.32,4-18.22-14.36-21.33-21.12a202.06,202.06,0,0,1-16.05-50.69c-.73-4.29-.25-12.46,6.09-9.86,3.9,1.61,7.17,6,9.57,9.35a138.13,138.13,0,0,1,13.6,23.73C110.12,205.66,128.78,241.69,115,247Z"/><path class="ricecls-1" d="M157.41,286.29c-5.11-1.75-11.44-2.18-15.31-2.41a84.85,84.85,0,0,0-46.62,11.23C87,299.92,77,306.52,73.32,316c-2.75,7.14-.33,16.32,6.47,20.23,9.29,5.35,20.88.2,30-2.95,11-3.81,22.22-7.74,32.4-13.43,8.37-4.69,19.25-11.82,22.66-21.3C167.25,291.81,163.09,288.24,157.41,286.29ZM149.24,307a59.79,59.79,0,0,1-9.17,6.56A136.54,136.54,0,0,1,119.74,323c-6.72,2.62-13.51,5.14-20.35,7.47-3.34,1.14-6.93,2.52-10.51,2.71-10,.51-13.36-8.18-8.91-16.29,6.66-12.13,23.17-19.74,35.85-23.24,5.48-1.51,11.64-1.65,17.28-2,7.06-.46,14-1.22,21,0C164.07,293.4,152.63,304,149.24,307Z"/><path class="ricecls-1" d="M276.61,262.16c-4.19-14.07-21.71-5.86-29.58-.54-13.39,9.06-23.66,22.77-31.44,36.75-4.22,7.59-10,19.17-7.76,28.12,2,7.95,9.07,11,16.41,7.91,18.38-7.67,34.5-27.52,44.06-44.33C272.63,282.44,279.31,271.25,276.61,262.16Zm-23.68,38a112.84,112.84,0,0,1-13.29,14.6c-3.78,3.5-10.41,10.75-15.72,12-16.64,3.88-6.08-17.5-3.81-22.42a97.38,97.38,0,0,1,11.76-19.3c7.83-9.94,16.53-22.42,29.75-25.13C279.29,256.34,256.62,295.32,252.93,300.21Z"/><path class="ricecls-1" d="M343,357.47c-2.42-10.84-5-22.17-9.91-32.22-3.66-7.58-9.84-16.29-18.23-19.05-5.28-1.73-12.39-.51-14.78,5.05-2,4.68-.77,10.23-.68,15.14a170.66,170.66,0,0,0,1.27,18.77c1.58,12.19,4.95,24.24,11.27,34.86,5.29,8.91,28.9,32.83,33.7,10.63C347.93,380.16,345.32,367.76,343,357.47Zm-11.17,33.39c-10.44-4.81-18.42-22.23-21.61-32.38s-4.38-20.62-4.75-31.11c-.13-3.66-1.56-11.1.79-14.09s6.81-1.71,9.34.19c3.41,2.56,5.81,6.63,7.86,10.29a102.64,102.64,0,0,1,9,21.65c2.06,7.27,4.21,14.56,5.82,21.95C339.48,372.71,344.93,396.89,331.85,390.86Z"/><path class="ricecls-1" d="M302.25,409.83c-10.43-9.14-22.73-15.95-34.57-23-8.55-5.11-16.3-11.4-25.39-15.59-4.43-2-9.37-3.86-14.33-3.66a14.79,14.79,0,0,0-13.79,10.6c-3.2,10.69,4.48,22,10.92,29.88a82.15,82.15,0,0,0,24.76,20.29,93.21,93.21,0,0,0,35.34,11c8.52.78,22.77,1.36,26.28-8.72C314.41,422.14,308.1,415,302.25,409.83Zm2.88,18.87c-1.53,2.56-4.7,4.34-8.17,4.83-6.26.9-12.66-.59-18.82-1.6a84.14,84.14,0,0,1-33.76-13.8,74.46,74.46,0,0,1-19-18.52c-3.81-5.44-10.56-15.37-3.91-21.19a11.16,11.16,0,0,1,2.87-1.72,14.46,14.46,0,0,1,9.61-.28c13.34,3.73,24.41,13.15,35.91,20.45,7.6,4.82,15.23,9.58,22.75,14.52,4,2.62,9.2,5.08,11.89,9.15C306.55,423.64,306.47,426.46,305.13,428.7Z"/><path class="ricecls-1" d="M185.46,342.81a7.35,7.35,0,0,0-4.17-1.52c-5.23-.34-10,3.92-13.62,7.21-8.38,7.67-15.63,18.11-21.69,27.67s-11.13,20.24-12.23,31.71c-.78,8.11-.15,17.64,8.87,20.47s17-3.66,22.62-10.06a103.39,103.39,0,0,0,18.31-30.45,75.08,75.08,0,0,0,4.57-17.36,137,137,0,0,0,.74-18.68C188.82,348.3,187.93,344.76,185.46,342.81ZM170.9,396.73a93.09,93.09,0,0,1-12.74,18.65c-2.94,3.32-11.85,14-16.56,2.65-1.48-3.57-.08-9.84.65-13.36C145.08,391,153,378.89,160.38,367.3c4.1-6.42,8.19-13.39,14-18.4,1.71-1.46,6.89-4.92,8.55-1.71S177.19,384.65,170.9,396.73Z"/><rect class="ricecls-2" width="512" height="512"/></g></g></svg>