<svg xmlns="http://www.w3.org/2000/svg" viewBox="0 0 512 512"><defs><style>.rosemarycls-1{fill:none;}.rosemarycls-2{fill:#83a04e;}.rosemarycls-3{fill:#4a2d2d;}</style></defs><g id="Capa_2" data-name="Capa 2"><g id="bocetos"><rect class="rosemarycls-1" width="512" height="512"/><path class="rosemarycls-2" d="M439.84,131.71c-5.65-7.89-28.35-4.54-35.85-3.54-16.91,2.26-33.58,7.52-49.41,13.75a279.57,279.57,0,0,0-41,20.15c-8.49,5.07-19.08,10.84-27.45,17.87a1.45,1.45,0,0,0,.1-.41c1.8-34.79,12.54-67.91,22.8-100.94,3.3-10.62,21.75-56.76.74-59.13-9.49-1.06-12.58,10.05-14.57,17.33a470.91,470.91,0,0,0-10.62,50c-2.5,15.7-4.11,31.52-5.11,47.38s-2.4,32.39-.11,48.13a2.3,2.3,0,0,0,2.21,1.85,43.52,43.52,0,0,0-4.19,4.92c-1.18,1.63.81,4.36,2.73,3.56,1.61-.67,3.18-1.44,4.73-2.27a115.42,115.42,0,0,0-12.47,11.75,1.81,1.81,0,0,0,2.56,2.55c28.75-24.56,61-39.49,97.93-47.66C379.94,155.43,450.39,146.44,439.84,131.71Z"/><path class="rosemarycls-2" d="M241.6,258.28c-.1.39-.19.78-.29,1.17a2.12,2.12,0,0,0,1.32,2.44,1.71,1.71,0,0,0,1.44.25c15.29-4.25,31.08-7.15,46.14-12.12,12.62-4.16,24.91-10.44,36.38-17.11a103.19,103.19,0,0,0,25-19.7c6-6.6,17.31-18.25,18.27-27.34.8-7.68-5.63-11.09-12.19-8.81-12.08,4.2-22.63,18.71-32.41,26.53a303.45,303.45,0,0,1-40.95,27.35c-11,6.19-23.23,10.95-34.42,17,1.23-3.93,2.27-7.89,3.15-11.88a282.9,282.9,0,0,0,15.53-77.84,275.25,275.25,0,0,0-1.37-47.51C265.83,98.83,265,86.13,256.34,77.1a2.23,2.23,0,0,0-3.7,1c-13.15,57.3,2.91,116.43-9.55,173.84-.64.41-1.31.79-2,1.21A2.94,2.94,0,0,0,241.6,258.28Z"/><path class="rosemarycls-2" d="M219.67,179.87c.76,19.9-.19,30,.16,55.93.22,16.14.7,40.24,3.85,53.89-.23,1.47-4.2,1.29-4.42,2.76-.29,1.89,2.46,2.76,2.93.81.09-.37.17-.74.26-1.11,1.7.5,3.9-1.42,3.62-3.5-.38-2.77-.64-5.55-.86-8.32,7.35-32.74,12.59-66.58,14.27-99.93a304.19,304.19,0,0,0-2.11-57.08c-1-7-2.34-29.91-13.82-30.16-10.33-.22-8.91,23-8.62,28.66C215.9,141.21,218.93,160.43,219.67,179.87Z"/><path class="rosemarycls-2" d="M199.14,200.31c5.47,18.51,7.2,36.44,8.83,55.55.26,3,3.74,3.55,4.28.12.29-1.89.5-3.8.67-5.7,6.4-29.68.62-63.27-6.42-92-3.69-15-7.15-31.23-14-45.2-2.66-5.44-7-13.77-13.28-15.69-22.55-6.89,1.69,49.49,3.6,54.84C188.55,168.12,194.33,184.08,199.14,200.31Z"/><path class="rosemarycls-2" d="M392,238.48c-19.58,0-39,3.21-58,8.09-34,8.76-72.1,20.07-101.49,40.48a90,90,0,0,0-12,9.28c-2.16,2,.59,4.85,2.94,3.81,19.11-8.41,36.54-18.5,56.8-24.46,21.23-6.25,43.25-9.58,65.27-11.4,20.32-1.67,40.92-.81,61.14-3.3,7.18-.89,23.06-4.14,15.74-15.08C416.7,237.32,400.42,238.48,392,238.48Z"/><path class="rosemarycls-2" d="M359.82,319.27a187.94,187.94,0,0,0-27.72-2.54c-18.66-.38-37.4,1.53-55.78,4.62-35,5.87-69.41,17-100.65,33.86l-.44.19a31,31,0,0,0,1-9c5-13.35,6.65-27.12,8.1-41.71q1.77-17.7,2.69-35.51c.87,1.09,1.78,2.15,2.63,3.25,4.86,6.21,9.66,12.79,12.93,20A52.21,52.21,0,0,1,206.07,304q.59,3.53,1.11,7.1a1.5,1.5,0,0,0,.38.8c.17.83.34,1.67.53,2.51a1.92,1.92,0,0,0,1.55,1.37v0c-.51.41-1,.79-1.54,1.23-2.19,1.94.6,4.91,2.94,3.81,28.31-13.34,64.14-12.54,95-12.91,6.34-.08,56.77,5.27,48.65-12.73-3.23-7.17-16.49-10.1-23.13-11-13.36-1.81-27.33.35-40.52,2.59a254.8,254.8,0,0,0-67.92,21.6A50.11,50.11,0,0,0,212,314.05c4-9.85.72-20.58-4.6-30.24a145.45,145.45,0,0,0-17.19-39.69c-.74-1.21-1.51-2.4-2.29-3.59.21-16.52.17-33.18-3.57-49.33-2.33-10.1-6.5-35.76-17.69-40.66-11.87-5.22-10.36,14.19-10.25,20,.25,13.15,2,26.23,3.86,39.28-4.95-4.15-10.77-8-16.41-7.83-5.94.21-10.17,4.87-8.61,10.76,1.39,5.24,7.47,9.25,11.15,12.72,5,4.73,9.93,9.56,14.69,14.55,1.11,1.17,2.21,2.36,3.32,3.53q2.4,24,3.53,48.07c.49,10.74.72,21.49,1,32.24.24,9.24,1.49,19.24.44,28.62-.25.69-.48,1.39-.74,2.08a1.5,1.5,0,0,0,.2,1.45c-.1.56-.17,1.12-.29,1.66a2.6,2.6,0,0,0,.12,1.48l-.05,0a2,2,0,0,0-1.1,1.95,13.21,13.21,0,0,0-1.52,2.47,2.6,2.6,0,0,0,4.06,3.13c7.8-6.26,20.11-7.43,29.58-9.56Q215,353.64,230.54,351c20.47-3.5,41.18-5.85,61.9-7.35,21.5-1.55,43.36-1.88,64.73-4.86,5.54-.77,22.72-3.66,18.16-12.84C372.86,321,364.39,320.05,359.82,319.27Z"/><path class="rosemarycls-2" d="M134.24,397c-.31.51-.6,1-.93,1.52-.06.1-.07.2-.12.3l-.86,1.5c-1.32,2.24,1,4.2,2.93,3.71-1,1.4-.12,3.95,1.86,3.76,13.55-1.33,26.61-4,40.31-4.21,14-.22,28,.53,42.08.48,7.79,0,38.67,3.44,39.79-9.25,1.48-16.78-34.84-11.36-42.75-10.68-24.32,2.11-48.63,7.08-71.52,15.72a53,53,0,0,0-8.36,3.24c0-.06.09-.1.13-.16.47-.71.92-1.43,1.38-2.14,5.26-4,7.94-10.35,9.26-17.37a156.82,156.82,0,0,0,12-49.92,170.63,170.63,0,0,0-.81-35.36c-1.15-8.88-2.8-20.93-10.65-26.74-18.86-13.95-9.45,34.72-8.85,40.29a377.63,377.63,0,0,1,2.28,43.58c-.09,13.55.31,27.22-5.8,39.28C135.14,395.33,134.69,396.15,134.24,397Z"/><path class="rosemarycls-2" d="M116.94,369.57c1.81,16.6,4.28,34.08.11,50.46-.78,3.07,4,5.38,5.33,2.25a53.25,53.25,0,0,0,2.1-5.87c5.62-9.87,6.15-22.08,7.23-33.17a266.85,266.85,0,0,0,.67-50,259.74,259.74,0,0,0-8.63-45.93c-2.55-9.19-5.74-23.14-16.38-26.38-23.28-7.08-1.75,47.84-.05,54.8A415,415,0,0,1,116.94,369.57Z"/><path class="rosemarycls-2" d="M108.34,387.66c-4-16-11.69-42-28.16-49.57-17.52-8.08-7.54,19.55-4.27,25.45,6.41,11.59,12.47,23.07,16.59,35.73,3.84,11.83,8.44,25.26,6,37.73-.43.84-.86,1.69-1.34,2.53-1.12,2,1.79,4.48,3.29,2.54.1-.12.18-.25.28-.38a2.43,2.43,0,0,0,1.82-1.07,18.53,18.53,0,0,0,2.61-6C112.41,420.31,112.19,403.22,108.34,387.66Z"/><path class="rosemarycls-2" d="M328,352c-20.12-1.12-40.63,1.29-60.61,3.54-27,3.05-53.64,7.9-79.22,16.43a154.33,154.33,0,0,0-40.07,15.61c-2.2,1.25-.71,5.18,1.77,4.2,39.07-15.31,78.74-19.68,120.49-19.16,22,.27,44.06,1.3,66.1,1,6.18-.09,31.15,2.82,28.05-10.33C362,352.65,336.42,352.43,328,352Z"/><path class="rosemarycls-2" d="M270.46,421.88a151,151,0,0,0-40.69-9c-27.46-2.49-54.72.9-81.6,6.43a2,2,0,0,0-1.27.8c-2,1.26-.87,4.83,1.69,5,17.14,1.41,34.07-1,51.22,2,14.13,2.5,27.69,7.4,41.3,11.8,7.57,2.44,58.81,21.12,51.55-.78C289.63,429,278.63,425,270.46,421.88Z"/><path class="rosemarycls-2" d="M223,455.11a150.47,150.47,0,0,0-35-13c-24-5.76-48.95-5.73-73.24-2.11-1,0-2,0-3,0-3.43.14-4.51,5.48-.85,6.25,14.73,3.1,29.23,4.67,43.68,9.3,13.14,4.21,26,9.38,38.71,14.69,7.16,3,55.75,27,48.76,3C239.45,464.46,230.5,459.1,223,455.11Z"/><path class="rosemarycls-3" d="M80.75,463.5c47-40.18,88-85.64,124.8-135.27a791.53,791.53,0,0,0,51-78c16.4-28.59,30.39-58.5,47.42-86.74a307,307,0,0,1,67-78.42c2.42-2-.66-5.57-3.24-4.2-54.34,28.94-83.52,91-112,142.5-30.56,55.27-65.6,107.92-106.94,155.75-23.48,27.16-48.25,53.42-74.31,78.12-4.19,4,2,9.95,6.28,6.28Z"/><path class="rosemarycls-3" d="M134.27,213c4.48,14.55,19.19,23.51,29.71,33.44a165.53,165.53,0,0,1,29.79,38.29q3.45,6,6.36,12.3c1.94,4.17,3.48,8.5,5.89,12.43,1.14,1.85,3.56.54,3.29-1.38-1.12-7.75-5.32-15.34-8.92-22.2a149.65,149.65,0,0,0-13-20.44,168.41,168.41,0,0,0-15.73-18.12c-5.62-5.6-11.79-10.47-17.88-15.54-6.85-5.7-12.92-11.86-17.12-19.79a1.31,1.31,0,0,0-2.39,1Z"/><path class="rosemarycls-3" d="M218.34,96.51c-2.77,4.41-3.34,10-3.51,15.1-.19,6.06.16,12.16.31,18.21.34,12.94.62,25.88.93,38.83.6,25.53,1.27,51.08,2.42,76.59.33,7.33.44,14.69.57,22,.06,3.5,0,7,.23,10.5s.05,7.34,1.11,10.77a1.07,1.07,0,0,0,2,0c.72-2.86.51-5.75.52-8.68,0-3.15-.12-6.29-.24-9.44-.25-6.47-.44-12.94-.64-19.41-.39-12.59-.46-25.18-.81-37.77q-1.07-38-2.33-76.07c-.23-6.85-.48-13.7-.63-20.55a57.24,57.24,0,0,1,2.6-19c.48-1.55-1.74-2.39-2.57-1.08Z"/><path class="rosemarycls-3" d="M306.35,19.16c-7.9,3.49-11.62,14.2-13.84,21.84a327.57,327.57,0,0,0-7.43,33.35,529.09,529.09,0,0,0-8.23,71c-.6,13.5-1.25,27.3-.07,40.78a1.6,1.6,0,0,0,3.2,0c.65-11.54.49-23.12,1.11-34.67s1.47-23.08,2.68-34.58a680.16,680.16,0,0,1,11.15-68.31A86.68,86.68,0,0,1,299,33.76,34,34,0,0,1,302.56,27a55.88,55.88,0,0,1,5.34-5.85,1.29,1.29,0,0,0-1.55-2Z"/><path class="rosemarycls-3" d="M248.05,261.46c39.95-5.5,81.58-21.4,109.42-51.59a85.58,85.58,0,0,0,9.58-12,27,27,0,0,0,4.44-13.54c.08-1.74-2.54-2-3-.4a43.31,43.31,0,0,1-5,11.84,85.84,85.84,0,0,1-8.36,10.47,131.79,131.79,0,0,1-20.71,18.49c-16,11.59-34.08,19.9-52.91,25.82-11.17,3.52-22.58,6.23-34,8.95-1.3.31-.71,2.12.54,1.94Z"/><path class="rosemarycls-3" d="M204.5,323.41a219.09,219.09,0,0,1,77.2-14.82c4.34,0,8.67,0,13,.24,4.14.28,8.76,1.35,12.85.6,1.53-.27,1.13-2.24,0-2.7-3.79-1.55-8.8-1.21-12.85-1.32-4.5-.12-9-.27-13.48-.17a212.72,212.72,0,0,0-26.31,2.25,208.25,208.25,0,0,0-51,14.48c-.81.35-.23,1.76.61,1.44Z"/><path class="rosemarycls-3" d="M319.8,310.76l.79-.05.38,0h.19a2,2,0,0,0,.43-.05,1.44,1.44,0,0,0,.63-.38,1.11,1.11,0,0,0,.28-.43,1.17,1.17,0,0,0,.12-.52l-.05-.36a1.4,1.4,0,0,0-.35-.6.53.53,0,0,0-.16-.13,1,1,0,0,0-.47-.24,2.83,2.83,0,0,0-.42-.06H321l-.38,0-.79-.05a1,1,0,0,0-.57.13,1.12,1.12,0,0,0-.47.3,1.08,1.08,0,0,0-.31.48,1.2,1.2,0,0,0-.13.57,1.51,1.51,0,0,0,.44,1,1.44,1.44,0,0,0,1,.43Z"/><path class="rosemarycls-3" d="M136.71,400.79c2.12-4.52,3.14-9.38,4.2-14.24s1.9-9.82,2.55-14.78a209.29,209.29,0,0,0,1.47-31.16c-.21-10.5-1-21-2.06-31.43-.54-5.26-1.45-10.44-2.13-15.68a121.39,121.39,0,0,0-2.55-15,1.26,1.26,0,0,0-2.47.34,143.35,143.35,0,0,0,1.43,15.59c.59,4.89.89,9.81,1.41,14.71,1.08,10.12,1.94,20.27,2.27,30.45a262.32,262.32,0,0,1-.75,30.2c-.42,5-1,10-1.89,15-.89,5.14-2.38,10.14-3.1,15.31-.12.89,1.15,1.68,1.62.68Z"/><path class="rosemarycls-3" d="M140.26,272l.43-.26.11-.06,0,0a.82.82,0,0,0,.32-.29.64.64,0,0,0,.1-.13l.1-.2a1,1,0,0,0,.13-.49.8.8,0,0,0-.08-.37.79.79,0,0,0-.2-.31,1,1,0,0,0-.43-.25l-.19,0a1.19,1.19,0,0,0-.62,0l0,0-.12,0-.46.19a1.29,1.29,0,0,0-.52.3l-.18.24a1.17,1.17,0,0,0-.16.6.79.79,0,0,0,.1.45,1,1,0,0,0,.24.39,1,1,0,0,0,.38.24.89.89,0,0,0,.46.1,1.11,1.11,0,0,0,.59-.16Z"/><path class="rosemarycls-3" d="M70,350.3c4.83,14.23,12.56,27.29,18.23,41.19a141.14,141.14,0,0,1,6.82,20.82c.82,3.47,1.37,7,1.94,10.48.61,3.75.67,7.65,1.68,11.32a.77.77,0,0,0,1.47,0c2-6.64.35-14.78-1.11-21.39a137.77,137.77,0,0,0-6.93-21.8,319.7,319.7,0,0,0-20.39-41.34c-.52-.89-2.06-.3-1.71.72Z"/><path class="rosemarycls-3" d="M145.76,424.48c8,5.07,18.61,4.44,27.69,4.06,10.07-.42,20.1-1.1,30.06.9s19.4,5.65,28.84,9.13a211.38,211.38,0,0,0,30.23,8.72A111.75,111.75,0,0,0,279,449.9c4.06.22,9.06-.74,11.88-3.89.43-.48,0-1.47-.69-1.19-4.13,1.61-7.91,1.31-12.22.65-4.92-.76-9.83-1.6-14.71-2.62a261.94,261.94,0,0,1-28.94-8c-9.12-3-18-6.64-27.46-8.73s-18.71-2-28.26-1.4c-5.3.34-10.6.72-15.91.57-5.54-.16-11-1.24-16.41-2.16a.72.72,0,0,0-.55,1.3Z"/><path class="rosemarycls-3" d="M156.23,389.76c5.89-2.07,11.87-3.72,17.91-5.3,3-.79,6.06-1.48,9.09-2.2,2.76-.65,6-.91,8.52-2.34.48-.27.45-1.16-.16-1.26-2.92-.47-6.19.58-9,1.21-3,.67-6,1.52-9,2.41a172.37,172.37,0,0,0-17.69,6.58c-.51.22-.14,1.09.38.9Z"/><path class="rosemarycls-3" d="M203.34,378l.68-.32a2.19,2.19,0,0,0,.5-.41,1.68,1.68,0,0,0,.33-.46,1,1,0,0,0,.1-.72.9.9,0,0,0-.43-.56l-.12-.05h0a1.13,1.13,0,0,0-.56-.16h-.08l-.19,0a1.45,1.45,0,0,0-.5,0l-.76.15a1.36,1.36,0,0,0-.61.36l-.21.27a1.34,1.34,0,0,0-.19.7,1,1,0,0,0,.12.53,1,1,0,0,0,.28.44,1,1,0,0,0,.45.29,1,1,0,0,0,.53.12,1.38,1.38,0,0,0,.69-.19Z"/><path class="rosemarycls-3" d="M230.8,374.33c8.36-1.2,16.94-1.37,25.38-1.57,8.25-.21,16.51.05,24.75.48,16.71.87,33.43,2.12,50.17,2.23,4.62,0,9.24,0,13.85-.25,3.74-.18,9.24.2,12.23-2.35a1.28,1.28,0,0,0-.26-2c-3.17-1.53-7.58-.32-11,0q-6.42.57-12.86.73c-8.28.2-16.55-.07-24.82-.48-16.7-.81-33.38-2-50.11-1.43a150,150,0,0,0-27.58,3.82c-.57.13-.32.93.23.85Z"/></g></g></svg>