<svg xmlns="http://www.w3.org/2000/svg" viewBox="0 0 512 512"><defs><style>.rye-graincls-1{fill:#4a2d2d;}.rye-graincls-2{fill:none;}</style></defs><g id="Capa_2" data-name="Capa 2"><g id="bocetos"><path class="rye-graincls-1" d="M292.39,183.44c9.54-1.52,15.18-13.05,19.48-20.43,6.06-10.39,10.34-22.87,12.85-34.58a3.4,3.4,0,0,0,.09-.81,94.13,94.13,0,0,0,2.9-19.92c.33-6.35.12-16.52-7.89-18.12-9.09-1.83-16.69,11.47-21.07,17.46a106.28,106.28,0,0,0-15.69,31.82C280,149,270.05,187,292.39,183.44Zm-6.39-20a110.14,110.14,0,0,1,1.87-13.64c2.93-14.56,9-30.22,17.32-42.59,2.31-3.42,15-15.92,16.05-5.08a71.83,71.83,0,0,1-.09,9.73c-.48,11.84-4.58,22.16-8.19,33.28-2.86,8.81-6.61,19.53-13.6,26.38a26.28,26.28,0,0,1-4,3.22,7.29,7.29,0,0,1-4.7,1.44,5.74,5.74,0,0,1-4.31-3.48C285.06,169.78,285.78,166.48,286,163.43Z"/><path class="rye-graincls-1" d="M393.63,150.41l-1.43.23c-19.88,3.16-42.48,9.93-55.14,26.47-4.4,5.76-5.52,13.92,1.67,18,9.45,5.37,23.27,1.88,33.18-.07,12.47-2.46,25.11-5.53,36.87-10.41,8.61-3.57,20.51-9.52,21.31-20.21C431.47,146,405.2,148.66,393.63,150.41Zm29.42,14.71c-.61,4.45-6.23,7.6-9.7,9.71-9.23,5.63-19.61,8.68-30,11.34a193.36,193.36,0,0,1-29.06,5.09c-6.43.63-14-.23-13.14-8.61.39-3.88,4.29-6.82,7.16-9.05A91.82,91.82,0,0,1,404.85,155c5.25.15,13.25.2,16.85,4.69A7,7,0,0,1,423.05,165.12Z"/><path class="rye-graincls-1" d="M178.13,158.09c23.27,16.29,54.2,2.27,73.81-13.09,8.05-6.31,24.57-18.86,13.35-29.73-7.73-7.49-24.68-5.24-34.27-5-13.6.29-27.4,2.11-40,7.5-8.39,3.59-16.87,9.38-19.74,18.51C168.72,144.44,171,153.07,178.13,158.09Zm55.5-10c-11,4.67-22.19,8.77-34.28,8.63-8.62-.1-21-1.89-23-10.78,14.49-3.31,28.91-6.85,43.37-10.26,12.93-3,26.64-5.08,39.47-8.88a12.68,12.68,0,0,1-1.33,3.3C252.43,139.15,243,144.09,233.63,148.07Zm-37.17-26c16.21-5.82,35.84-7.12,52.88-4.77,2.37.33,5.54.54,7.66,1.83a5.13,5.13,0,0,1,2.36,3.58c-13.09,1.81-26.25,5.8-39,8.8-14.85,3.5-29.65,7.15-44.33,11.27a16,16,0,0,1,.33-2.71C178.34,130.4,188,125.09,196.46,122Z"/><path class="rye-graincls-1" d="M184.85,232.32c18.89-3.14,4.08-29-1.17-37.92-1.7-2.9-3.4-5.89-5.13-8.89-4.52-7.82-9.28-15.74-15-22.43-5.95-7-14.41-15.86-24.2-16.56-26.8-1.9-10.86,32.68-4.89,44C143,206.72,162.92,236,184.85,232.32Zm-43.93-79.81c4,.89,7.6,3.93,10.57,6.6a78.41,78.41,0,0,1,13.41,16.3c4.31,6.74,8.34,13.65,12.29,20.6,3.73,6.57,8,12.92,9.24,20.5,1.68,10-7.83,8.62-13.84,5.17-13-7.46-23.26-21-31.23-33.41-4.07-6.33-8.31-13.54-10.45-20.79S131,150.31,140.92,152.51Z"/><path class="rye-graincls-1" d="M265.36,216.26c-2.63-10.65-6.89-22.88-18.15-27a24.77,24.77,0,0,0-8.14-1.43c-27.73-.43-27.39,36.37-21.79,54.5a89.33,89.33,0,0,0,18.34,33.27c6.16,6.95,14.71,15,24.81,11.26s9.4-16.35,10.29-25.23c1.48-14.64-1.43-29.17-4.87-43.33C265.69,217.61,265.52,216.93,265.36,216.26Zm-41.1,25.63c-2.84-8.12-4.7-17-4.18-25.68.44-7.49,4-16,10.39-19.92a373.57,373.57,0,0,1,11.08,45.63c2.2,12.06,4.3,26,10.21,37.26C240.55,272.74,226.35,247.9,224.26,241.89Zm38.54,33.78c-1.36,3.05-3.14,4.57-5.18,4.94-4.93-14.28-9.21-27.84-12.08-42.86-2.75-14.38-5-29.87-12.48-42.71a14.78,14.78,0,0,1,8.09-.6c8.08,1.55,12.86,8.63,15.64,15.83,4.54,11.77,6.58,24.33,7.3,36.88C264.57,255.46,266.23,268,262.8,275.67Z"/><path class="rye-graincls-1" d="M180.36,262.7c-5.71-9-18.12-10-27.59-11.31a218.62,218.62,0,0,0-39.69-2c-8,.38-21.59-.16-27.66,6.32-12.72,13.59,11.93,22.91,21.69,26A117.83,117.83,0,0,0,144,287.28c10.7-.12,25.24-.43,34-7.44C183.37,275.56,183.93,268.32,180.36,262.7ZM163,280.85a54.45,54.45,0,0,1-5.85.79,99.07,99.07,0,0,1-16-.17c-8.49-.67-16.79-2.75-25.06-4.69a128.88,128.88,0,0,1-13.78-3.8c-3.88-1.38-9.85-2.47-11.31-7a7,7,0,0,1,1.71-6.51c3.54-4.07,8.75-3.49,13.61-3.5a325.21,325.21,0,0,1,43.78,2.58c7.77,1.05,21.22,1.18,24.24,9.78C177.12,276.2,169.47,279.61,163,280.85Z"/><path class="rye-graincls-1" d="M386.84,213.57c-.78-.39-1.57-.75-2.36-1.09-12-5.13-25.37-5.26-38-3a137.73,137.73,0,0,0-28.75,8.82c-6.12,2.56-13.13,6.55-15.89,12.88-4.41,10.11,6.69,15.28,14.09,18.77,21.28,10,49.86,19.05,72.65,8.16,8.36-4,15.18-12.81,15-22.4C403.39,225.46,395.46,217.86,386.84,213.57Zm-58.26,7.83c12.67-4.65,25.95-7.78,39.49-6.34,8.24.88,17.44,3.36,23.41,9.53A15.24,15.24,0,0,1,396,236.32c-6-1.44-12.54-1.47-18.65-2-7.66-.64-15.33-1.3-23-1.74-14.33-.83-28.79-1.3-43.16-.77C314.2,227.13,323.44,223.74,328.58,221.4Zm57.83,30.18c-11,7.25-24.74,6.31-36.92,3.07A145.68,145.68,0,0,1,331,248.12c-2.78-1.16-5.5-2.45-8.29-3.57s-5.75-1.73-8.26-3.34a10.13,10.13,0,0,1-2.24-1.88,7.61,7.61,0,0,1-1.83-3.41c14.08.09,28.15,0,42.23.65,7.09.32,14.17.66,21.23,1.27s14.4,2.25,21.51,2.25A21.72,21.72,0,0,1,386.41,251.58Z"/><path class="rye-graincls-1" d="M257.53,319.83c-6.13,7.56-14.1,16.44-14,26.8.1,8.41,5.58,15.45,14.17,16.14,21.5,1.73,39.08-25.95,49.72-40.92,6.26-8.8,14.87-20.81,15.23-32.1.18-5.52-3.45-8.95-8-10a14.16,14.16,0,0,0-6.11,0c-9.27,2.08-16.87,8.13-24.36,13.64C274.05,300.93,265.45,310.05,257.53,319.83Zm51-33.48c1.85-.44,4.71-1,5.8,1,2.44,4.59-.36,10.82-3.79,16.32-2.2,3.55-4.67,6.8-6.15,9.09-4.5,7-9.53,13.68-14.68,20.19a103.13,103.13,0,0,1-13.6,14.72c-6.63,5.65-25.2,15.77-25.94-1.07-.37-8.56,7.26-15.85,12.21-21.92,4.61-5.65,9.26-11.2,14.28-16.49,5.29-5.55,10.8-11,17.3-15.12C298.38,290.3,303.46,287.56,308.56,286.35Z"/><path class="rye-graincls-1" d="M352.06,285.05a13.63,13.63,0,0,0-11.53,1.24c-4.72,3.06-4.65,9.83-5.23,14.76a98.62,98.62,0,0,0-.1,21.52,108.38,108.38,0,0,0,12.78,41c.06.11.12.23.19.34,9.36,16.85,30.67,26.58,43.34,7.09,13.27-20.4.5-45.28-12.74-62.21C372.11,300.24,362.68,288.68,352.06,285.05ZM347,340a95.38,95.38,0,0,1-4-21.72c-.56-7.32-2.57-15.11-.4-22.34a5.58,5.58,0,0,1,2.26-3.26c7.41,14.08,12.81,29,18,44.05,4.29,12.56,8.25,25.66,14.89,37.24l-.38.11C360.3,378.39,350.8,352,347,340Zm34.88,32.4A437,437,0,0,1,365,329.79c-4.5-13.19-9.33-26-16.9-37.71a7.54,7.54,0,0,1,1.55.43c7.06,2.83,13.11,9.52,18.14,15.06a100.58,100.58,0,0,1,12.9,17.9C387.73,337.93,398.86,363.87,381.85,372.36Z"/><path class="rye-graincls-1" d="M322.32,381.66c-2.81-2.82-7.93-2.67-11.57-3.37a124,124,0,0,0-18.12-2.12A118.33,118.33,0,0,0,256,380.33c-12.94,3.6-42,13.17-28.49,31.76,10.74,14.78,36.91,10.94,51.77,6.59a148.23,148.23,0,0,0,30.94-13.5c4.37-2.47,8.67-5.66,11.22-10.07,1.44-2.48,2.95-6.4,2.58-9.69A6.15,6.15,0,0,0,322.32,381.66Zm-46.68,29.68a91,91,0,0,1-23.28,3.89,43,43,0,0,1-9.88-.49,19.27,19.27,0,0,1-6.31-2.39c-8.06-4.8-3.64-14.48,2.62-18.31,4-2.43,8.73-4,13.12-5.49a111.81,111.81,0,0,1,23-5.18A116.52,116.52,0,0,1,316.2,386C316.64,399.63,285.89,408.35,275.64,411.34Z"/><path class="rye-graincls-1" d="M212.89,293.07l-.61-.81a4.19,4.19,0,0,0-1.32-1.33,4,4,0,0,0-2.23-.24,36.65,36.65,0,0,0-11.27,3.21,54.12,54.12,0,0,0-14.69,10c-8.71,8.09-15.45,18.19-21.1,28.59-7.47,13.73-20.72,43.12,2.39,49.29,15.74,4.2,29.34-10.23,37.29-21.88,9.52-13.94,17.09-31.5,17.75-48.57a32.14,32.14,0,0,0-.92-10.11C217.32,298.23,214.84,295.57,212.89,293.07Zm-40.86,35a91.27,91.27,0,0,1,14.17-18.91,54.76,54.76,0,0,1,9.06-7.28c2.37-1.5,7.25-5.08,10.29-4.49-8.28,12.87-16.14,26-24.17,39.07-7,11.39-15.81,23.22-20.68,35.86C151.74,362.66,167,336.66,172,328.07Zm37.91-3.94A132.09,132.09,0,0,1,200,348.4c-.31.58-.63,1.16-1,1.72-6.05,9.73-20.52,31.17-34.67,24.71,7.36-12.45,14.23-25.27,21.66-37.73,7.59-12.74,15.41-25.38,22.78-38.26C216.58,303.91,212.27,316.47,209.94,324.13Z"/><rect class="rye-graincls-2" width="512" height="512"/></g></g></svg>