<svg xmlns="http://www.w3.org/2000/svg" viewBox="0 0 512 512"><defs><style>.ryecls-1{fill:#4a2d2d;}.ryecls-2{fill:none;}</style></defs><g id="Capa_2" data-name="Capa 2"><g id="bocetos"><path class="ryecls-1" d="M278.49,285.62c-8.92,5.39-16.72,13.3-25.11,19.49-10.43,7.7-21.75,14.34-32.89,21a3.36,3.36,0,0,0-2.1-1,124.1,124.1,0,0,0-57.62,10.76,137.3,137.3,0,0,0-33,21q3.75-8.26,7.63-16.46t7.81-16.09c18.78,6.76,39.71,1,56.77-8.69a133.55,133.55,0,0,0,26.7-20.31c5.63-5.4,14.3-12.48,17.15-20.42,11.43-7.3,23-14.67,33.69-23,8.21-6.39,19.8-14,25.08-23.17.72-1.24-.75-2.85-2-2-8.62,5.61-16.06,13.62-24.11,20.05C266.25,255,255,262.15,244,269.27a3.1,3.1,0,0,0-2.05-.9A124.53,124.53,0,0,0,184.71,281a140.4,140.4,0,0,0-29.2,19.3q9.77-18.65,20.29-36.89c19.53,7.3,41.1.83,58.46-9.77a134.52,134.52,0,0,0,26-21.17c5.36-5.5,14-13.08,16.56-21.09,11.12-7.68,22.45-15.38,32.83-24,8-6.66,19.34-14.63,24.34-24,.64-1.21-.74-2.93-2-2-8.42,5.9-15.59,14.12-23.42,20.8-10,8.53-21,16-31.82,23.54a2.85,2.85,0,0,0-2-.84A124.36,124.36,0,0,0,218,219.35a142.33,142.33,0,0,0-27.15,18.89Q201.68,220.86,213.3,204c.73-1.06,1.48-2.09,2.22-3.14,21.1,6.85,43.38-2.73,60.15-15.67a133.39,133.39,0,0,0,22.73-22.76c4.92-6.17,13-14.62,14.67-22.94,10.5-8.85,21.13-17.84,30.68-27.64,7.21-7.4,17.36-16.29,21.37-26,.62-1.5-1.48-2.3-2.47-1.44-8.15,7-14.71,16.4-22.24,24.14-8.76,9-18.5,17.19-28.09,25.37a2.2,2.2,0,0,0-1.78-.64,124.38,124.38,0,0,0-55,19.92c-2.74,1.84-5.57,3.88-8.4,6.08,7.62-9.5,15.33-18.94,23-28.46,2.76-3.43-1.59-8.09-4.93-4.93a430.58,430.58,0,0,0-46.63,52.46,152.21,152.21,0,0,0,5.19-24.44A122.83,122.83,0,0,0,216,93.76a3.54,3.54,0,0,0-1.63-1.84c2.81-12.62,5.46-25.42,9.43-37.71,3.21-10,8.22-19.89,10.5-30.06.3-1.32-1.46-2.67-2.47-1.44-6.12,7.41-9,19.36-11.95,28.32-4.61,13.89-7.65,28.4-10.76,42.71-6.09,4.8-9.49,15.15-12.29,21.47a135.42,135.42,0,0,0-10.89,36.16c-2.67,18.94-.48,40.3,12.58,54.94-6.25,9.22-12.29,18.55-18.12,27.91a142.11,142.11,0,0,0,3.31-32.51,124.51,124.51,0,0,0-14.9-56.65,2.52,2.52,0,0,0-1.67-1.26c1.28-12.79,2.48-25.72,5-38.29,2.08-10.43,5.92-21,7-31.56.16-1.57-2-1.87-2.76-.75-5.63,8.69-7.09,22-9,32-2.6,13.43-3.86,27.26-5.21,40.89-5.53,5.44-7.94,17-9.92,23.33a133.81,133.81,0,0,0-6.52,37.26c-.34,19.34,4.54,39.93,19.35,52.93q-9.12,15.64-17.58,31.68a142.56,142.56,0,0,0,.84-30.68,124.63,124.63,0,0,0-18.67-55.55,2.94,2.94,0,0,0-1.85-1.31c.37-12.37.67-24.88,2.13-37.12,1.31-11,4.65-22.25,5-33.3a1.49,1.49,0,0,0-2.76-.74c-5,9-5.48,22.12-6.76,32.15-1.76,13.74-2.13,27.82-2.48,41.71-5.13,5.83-6.63,17.05-8.2,23.65-2.92,12.27-4.64,25-4,37.6,1,19.15,7.07,39.44,22.55,51.43q-8.22,16.8-15.89,33.86a139.4,139.4,0,0,0-.2-38.32,123,123,0,0,0-22-54.33,3.47,3.47,0,0,0-2-1.35c-.39-12.31-.89-24.75-.22-37,.6-11.08,3.23-22.54,2.93-33.6,0-1.37-2.1-2.15-2.76-.75-4.37,9.23-4.13,22.45-4.77,32.45-.9,13.88-.37,28,.17,41.95-5.07,6.48-5.75,18.26-6.92,25.49-2,12.5-2.78,25.15-1.2,37.75,2.41,19.18,10.25,39.41,27.37,49.75q-4.75,11.07-9.33,22.21-3.17,7.68-6.18,15.43a143.09,143.09,0,0,0-.62-35.17,123,123,0,0,0-22.05-54.33,3.67,3.67,0,0,0-1.67-1.26c-.35-12.36-.81-24.85-.1-37.17.63-11.07,3.3-22.53,3-33.59,0-1.37-2.09-2.15-2.75-.75-4.4,9.21-4.2,22.43-4.88,32.43-.93,13.76-.46,27.77,0,41.6-5.38,6.38-6,18.52-7.25,25.91-2,12.5-2.77,25.15-1.19,37.75,2.42,19.33,10.37,39.7,27.75,50l-.94,2.52c-5.35,14.38-11.47,28.9-15.1,43.82-1.08,4.46,5.59,7.75,7.72,3.26,7.19-15.1,12.92-31,18.74-46.85,18.35,6.36,38.77.89,55.52-8.4a134.3,134.3,0,0,0,26.73-20c5.85-5.53,14.93-12.83,17.87-21,11.44-7.26,23.06-14.6,33.75-22.88,8.23-6.37,19.83-13.94,25.15-23.09.72-1.24-.76-2.85-2-2-8.63,5.59-16.09,13.59-24.16,20-10.28,8.15-21.52,15.23-32.59,22.32a3.21,3.21,0,0,0-2.06-.91,124.39,124.39,0,0,0-57.25,12.49c-10.89,5.35-23.25,13.26-33,22.63.53-1.33,1-2.68,1.59-4q7.78-19,16-37.88c18.22,7.08,39,2.14,56.06-6.67a134.21,134.21,0,0,0,27.31-19.15c6-5.36,15.19-12.29,18.4-20.35,12.05-7.16,24.33-14.35,35.59-22.66,8.15-6,19.33-12.82,24.75-21.54A1.49,1.49,0,0,0,278.49,285.62ZM84.86,378.39c1.58,9,2.75,18.54,2.39,27.69C87,412.5,85.73,418.71,84.58,425c-12.26-29.53-15.41-61.39-16.4-93.12A144.49,144.49,0,0,1,84.86,378.39ZM61.7,386.48a127.21,127.21,0,0,1,0-27.24c.51-5.3,1.35-10.54,2.31-15.77,1.66,29.67,6,59.84,19.72,86.35l0,.22C70,420.08,63.67,403.12,61.7,386.48Zm107.55,22.09a133.1,133.1,0,0,1-23.1,16.93c-15.22,8.64-33.8,14.19-50.69,8.45l.19-.49c29-3.71,55.77-16.68,80.72-31.67C174,404.1,171.69,406.38,169.25,408.57Zm-33.18-4.78a143.43,143.43,0,0,1,49.14-13C158.29,408,130.06,423.48,98.59,430.1c4.35-4.33,8.6-8.74,13.55-12.5C119.4,412.07,127.8,407.63,136.07,403.79Zm28.64-62.11A143.51,143.51,0,0,1,212.36,331c-27.45,16.37-56.12,30.93-87.79,36.59,4.77-4.45,9.41-9,14.87-12.77C147.16,349.48,156.05,345.24,164.71,341.68Zm55.06-49.17a133,133,0,0,1-22.12,16.36c-15.28,8.86-34.05,14.67-51.13,9,.09-.19.19-.38.29-.57,28.89-3.84,55.55-16.85,80.4-31.87C224.78,287.83,222.32,290.22,219.77,292.51Zm-32.87-5A143.58,143.58,0,0,1,236,274.42c-26.87,17.28-55,32.81-86.51,39.52,4.34-4.34,8.58-8.76,13.51-12.53C170.26,295.86,178.64,291.39,186.9,287.53Zm66.52-57.87a133.52,133.52,0,0,1-21.55,17.1c-15.19,9.49-34.18,16.09-51.68,10.51l.2-.2c30.06-4.74,57.44-19.64,82.72-36.34C259.43,224.35,255.53,227.64,253.42,229.66ZM196,241.23c7.25-6.08,15.81-11,24.24-15.32A143.52,143.52,0,0,1,269,211.11c-26.3,18.17-54,34.64-85.21,42.38A138.49,138.49,0,0,1,196,241.23ZM271.7,179.3c-14.31,11.07-32.24,19.2-50.24,15.54l.13-.15c28.53-7.51,53.5-24.26,76.37-42.67-2,2.64-4.07,5.26-6.23,7.8A134.65,134.65,0,0,1,271.7,179.3ZM259,159.12a144.46,144.46,0,0,1,46.14-19.07c-24.33,20.73-50.2,39.92-80.51,50.73A138,138,0,0,1,235.86,177C242.64,170.09,250.82,164.28,259,159.12ZM217.21,151c-.68,9.41-1.92,19.11-4.69,28.15a139.83,139.83,0,0,1-7,17c-4.76-31.86,0-63.69,6.76-94.95A144.71,144.71,0,0,1,217.21,151Zm-24.32,1.84a127.86,127.86,0,0,1,7.1-27.47c1.53-4.09,3.26-8.1,5.07-12.08-5.38,28.43-8.23,57.86-1.82,86.14l-.46.66C192.39,187,190.69,169.26,192.89,152.8Zm-16,50.42c.33,9.2.17,18.83-1.53,27.88a135.94,135.94,0,0,1-4.91,17.22c-8.39-31.1-7.39-63.3-4.24-95.13A144.09,144.09,0,0,1,176.84,203.22Zm-24,1.85a130.57,130.57,0,0,1,4.58-29.18c.87-3.29,1.87-6.55,2.91-9.8-2.1,29.25-1.54,59.29,8.54,86.92v0c0,.07-.07.14-.11.2C156,241.14,152.33,222.31,152.88,205.07Zm-11.28,57a141.86,141.86,0,0,1,.71,25c-.53,7.13-2.35,13.87-4.05,20.69-10.48-30.41-11.72-62.58-10.76-94.53A144,144,0,0,1,141.6,262.07Zm-23.76,4a130.47,130.47,0,0,1,2.48-29.44c.66-3.44,1.46-6.85,2.3-10.26-.05,29.1,2.55,58.75,14.25,85.53-.08.17-.17.33-.25.49C123.39,301.21,118.47,283.15,117.84,266.09Zm-7.38,49.49c1.58,9,2.76,18.54,2.39,27.69-.26,6.43-1.52,12.66-2.67,18.91-12.45-29.69-15.66-61.77-16.73-93.72A144.46,144.46,0,0,1,110.46,315.58Zm-23.15,8.09a127.21,127.21,0,0,1,0-27.24c.48-4.9,1.23-9.75,2.11-14.59,1.8,29.3,6.28,59,19.92,85.18l0,.21C95.59,357.27,89.28,340.31,87.31,323.67Zm109.62,23.69a136,136,0,0,1-23.47,16.46c-15.75,8.58-35,13.9-52.1,7.52l.22-.48c29.06-2.82,56.24-14.95,81.64-29.17C201.15,343.62,199.07,345.52,196.93,347.36Z"/><path class="ryecls-1" d="M454.58,324c10.37-20-30.93-15.57-38.84-15.09-15.54.94-31.74,2.43-46.47,7.8-8.39,3.06-19.51,8.42-19.95,18.74-.84,20.06,27.67,18.4,47.14,14.5,11.38-2.14,22.48-5.79,33.5-9.34C439.31,337.58,449.78,333.24,454.58,324Zm-76.5,22.11c-8,.16-32.18-3.15-20.63-16.55,6.58-7.62,20.13-9.67,29.5-11.32,11.18-2,22.46-2.68,33.78-3.28,6.77-.36,13.73-1.31,20.51-.66,3.58.34,9.72.94,9.39,6-.28,4.32-7.13,8.2-10.46,10.05-9.47,5.26-20,8.26-30.54,10.57C399.27,343.13,388.72,345.87,378.08,346.09Z"/><path class="ryecls-1" d="M325.86,384.3c-4.57-8.64-10.77-18.24-20.73-21.22-21.37-6.39-9.69,33.55-7.85,41.23,3.63,15.11,7.94,30.79,15.81,44.33,4.55,7.82,12.14,18.07,22.58,16.06,20.36-3.94,14.7-28.22,5.58-49.66C335.71,402,328.89,390,325.86,384.3Zm4.75,74.87c-10.12-2.52-15.92-19.44-19-27.93A260.32,260.32,0,0,1,303,401c-1.71-7.4-4.15-14.94-4.84-22.54-.22-2.4-.9-7.66.92-9.47,4.19-4.15,11.08,2.81,13.6,5.6,14.28,15.8,22.26,36.8,27.13,57.26C341.51,439.08,345.32,462.83,330.61,459.17Z"/><path class="ryecls-1" d="M453.9,390.16c-13-16.19-33.9,26.18-37.7,32.76-7.24,12.52-32,54.92-8.69,64.07,18.71,7.35,33.21-23.13,39.1-40.25,2.95-7.83,5.37-15.88,7.85-23.84C457.48,413.26,461.05,399.09,453.9,390.16Zm-30.6,33c4.5-7.48,8.87-15.28,13.93-22.4,1.78-2.5,5-7.53,8.2-8.16a5,5,0,0,1,2.89.22c-7.43,14.38-13.84,29.31-20.81,43.92C420.7,451.07,412,465.24,406.26,480,396.9,470.33,419.09,430.23,423.3,423.21Zm29-17.22c-1,15.85-6.55,31.11-13.51,45.25-4.78,9.71-12.74,29.91-25.59,30.85a12,12,0,0,1-3.49-.22c9.19-13.65,15.27-30.64,22.22-45.43,6.44-13.67,13.27-27.29,18.72-41.4C452.37,398,452.51,402.82,452.31,406Z"/><rect class="ryecls-2" width="512" height="512"/></g></g></svg>