<svg xmlns="http://www.w3.org/2000/svg" viewBox="0 0 512 512"><defs><style>.sack-ricecls-1{fill:#4a2d2d;}.sack-ricecls-2{fill:none;}</style></defs><g id="Capa_2" data-name="Capa 2"><g id="bocetos"><path class="sack-ricecls-1" d="M180.67,222.24c21.05,10.4,47.26,14.7,70.48,16.78a147.34,147.34,0,0,0,50.71-4.09c16.38-4.34,32.1-12,44.53-23.64A81.63,81.63,0,0,0,357,199.21c4.33-6.06,8-12.49,6.35-20.18a31.3,31.3,0,0,0-11.85-18.2c-9.47-6.88-21.13-4.38-31,.55.89-6.57.59-13.54-5.19-17.92-4.77-3.62-12.23-3.84-18.44-2.5a15.59,15.59,0,0,0-9.58-16.45c-9.31-4-19.56-.34-26.52,6.35-4.79-10.07-17-16.62-27.92-14-13.5,3.23-16.61,14-15.7,25.62-13.55-4.39-30.65-.36-32.91,14.42-15.17-9.62-36-5.39-43.72,12.09a3.48,3.48,0,0,0-.63,1.5l0,.07a1.72,1.72,0,0,0,.13,1.55C143,192.63,162.83,213.42,180.67,222.24ZM185,164.89a3,3,0,0,0,4.94-2.88c-1.41-7.48,4.1-12.94,10.78-14.83,6.49-1.84,12.51-.07,18.54,2.63,2.18,1,4.57.08,3.68-2.64-3.62-11.08-.33-24.77,13.05-25.81,10.69-.83,16.76,6.8,22.06,14.55.57.84,3.22,1.58,3.84,1.05,4.52-3.88,9.26-8.94,15.51-9.45,8-.66,17.62,7.18,13.2,16.5-1.27,2.68,1.06,4.44,3.75,3.16,6.43-3.08,13-3.76,18,1.05,3.16,3,3.86,7.11,3.77,11.32,0,1.68-1.49,10.78,2.7,8.51,9.64-5.24,22-10.61,30.74-1.53,6.05,6.28,6.78,12,8,19.58-3.08,4.05-14,16.55-17.48,19.69a94.71,94.71,0,0,1-23.62,16c-1.28.6-2.58,1.16-3.9,1.69-17.65,7.11-38.13,8.53-56.83,7.53-31.23-1.68-70.31-6.48-92.54-31-7.8-8.58-12.9-15.63-18.74-29.13C153.71,156.72,171.64,152.42,185,164.89Z"/><path class="sack-ricecls-1" d="M193.69,194.09c4-2.62,9.06-3.54,13.39-1s4.27,6.61,6.31,10.49c.65,1.22,2.84,1.38,3.43,0,2.5-5.79-2.6-12.68-7.68-15.29a15,15,0,0,0-17.53,3.11C190.3,192.76,192,195.19,193.69,194.09Z"/><path class="sack-ricecls-1" d="M236.65,167.58c1.9-3.24,5-6.34,9-6.44s5.25,2.65,7.86,4.9a2.2,2.2,0,0,0,3.7-1.54c.33-5.31-6.5-8.45-11-8.41-6,0-10.72,4.23-13.3,9.31C231.65,167.87,235.23,170,236.65,167.58Z"/><path class="sack-ricecls-1" d="M261.57,191.64c2.64-1.87,5.69-4.07,9.1-3.85,3.15.21,3.73,2.31,5.73,4.13a2,2,0,0,0,3.31-.87c1.24-4.15-3.61-7.13-7.1-7.73-5.11-.89-9.55,2.37-13.26,5.45C257.78,190.09,259.87,192.84,261.57,191.64Z"/><path class="sack-ricecls-1" d="M307.88,204.13a7.61,7.61,0,0,1,5.5-6.59c3.08-.71,5.18,1.11,7.64,2.55,2,1.17,3.89-1.11,3-3-2.11-4.49-8.58-5.72-12.93-4.26a11.57,11.57,0,0,0-7.7,11.31C303.41,207.08,307.59,207,307.88,204.13Z"/><path class="sack-ricecls-1" d="M436.83,379c-2.08-5.49-8.94-13.35-12.68-17.67a50,50,0,0,1-10.41-20.52c-3.74-14.32-2.88-29.63-1.44-44.2,2.78-28,2.11-55.43-16.95-77.8,9.21-17.64,11.49-39.23-5.16-53.81-11.48-10.06-26.83-15.71-39.23-24.7-13.61-9.88-24.92-21.66-36.42-33.8-10.23-10.78-20.12-16.9-34.64-20A57.46,57.46,0,0,0,249.67,88a60,60,0,0,0-21.28,11.18c-11.15,9.12-22.12,15.24-36,19.23-22.52,6.47-48.87,7.32-68.67,21-17.52,12.13-24.33,34.24-20.55,54.67a63.94,63.94,0,0,0,5.68,16.82C106.24,228,100.35,245.31,90.78,259a96.18,96.18,0,0,0-16.61,41.47c-1.72,12.45-.58,25.37,4.68,36.89,2.86,6.26,7.41,11.56,10.3,17.79,4.87,10.49-.86,17.13-6.33,25.54s-11.15,20.73-6.15,29.85c5.47,10,16.75,12.59,27.33,11.91,16.83-1.09,35.56-.83,52.52-1.45,18.06-.65,39.89-1,57.66,2.13,18,3.14,35.4,4.89,53.64,2.79a257.27,257.27,0,0,0,30.1-4.95c9.34-2.22,18.67-4.88,28.29-5.56,9.88-.7,19.68,1.35,29.48,2.33,13.81,1.38,33.74,1.21,47.53-1C420.26,414,445.45,401.73,436.83,379ZM112.7,161.44c14-26.9,47.14-28.08,73.24-34.39,12.06-2.92,24.07-6.85,34.54-13.68,5.18-3.38,9.58-7.69,14.52-11.39a60.87,60.87,0,0,1,19.28-9.46,50.57,50.57,0,0,1,23.19-.74c12.81,2.64,22.4,9.18,31.19,18.69,17.83,19.28,35.73,36.54,58.8,49.58,13,7.34,26,14.27,26.82,31,.81,15.77-6.49,29.32-17.56,40.34-15.72,15.66-39.05,26.2-57.53,30.72a158.08,158.08,0,0,1-18.93,3.41c-23.9,2.88-48.13,1.64-72-1.19-21.87-2.6-43.65-6.57-64-15.36a143.28,143.28,0,0,1-19-9.91C120.92,223.89,97.4,190.88,112.7,161.44ZM415.18,399.36c-10.58,6.48-23,7.92-35.15,7.72-14.41-.24-28.6-3.05-42.94-4.16-19.33-1.49-38.32,3.65-56.94,8.12-19,4.57-37.39,5.83-56.83,2.87-30.9-4.7-60.45-7.56-91.66-3.23-12.88,1.79-33.32,9.24-43.86-2-12.57-13.4,2.5-25,7.57-36.86,4.59-10.7-1.22-19.93-7-28.79-8.53-13.16-11.71-27.4-8.8-42.93,3.12-16.66,12.32-30.39,21.63-44.15,6.61-9.79,13.67-20.53,15.68-32.32A102.85,102.85,0,0,0,146.2,249c12.68,7.44,26.62,12.59,40.65,16.84,15.14,4.59,29.59,8.19,45.39,9.7a284.74,284.74,0,0,0,69.88-1.81c30.73-4.68,59.1-14.83,80.92-37.7a75.68,75.68,0,0,0,7.92-9.9c6.11,9.72,12.16,18.65,14.14,30.21,2.47,14.36,1.23,29.13.11,43.57-1.71,21.92-2.85,45.78,11.48,64.18,3.73,4.79,9.54,8.64,10.95,14.75C429.71,387.78,422.19,395.06,415.18,399.36Z"/><path class="sack-ricecls-1" d="M135,313c-17.31-.92-33.57-6.59-46.71-18.09-1.74-1.53-4.29,1-2.56,2.56C99.28,310,116.32,317,135,315.59A1.32,1.32,0,0,0,135,313Z"/><path class="sack-ricecls-1" d="M120.45,336.88c-7.74-1.37-14.59-2.9-21.18-7.48-1.65-1.15-3.78,1.55-2.18,2.82,6.36,5.07,14.54,8.95,22.89,8.15C121.81,340.2,122.58,337.26,120.45,336.88Z"/><path class="sack-ricecls-1" d="M368.1,315.49c-23.42,12.57-49.07,16.68-75.46,15.86-2.27-.07-2.26,3.43,0,3.53,26.07,1.13,55.31-.46,77.06-16.65A1.59,1.59,0,0,0,368.1,315.49Z"/><path class="sack-ricecls-1" d="M356.22,347.61c-9.15,4.55-18.35,8.2-28.62,9.19-2.1.2-2.18,3.44,0,3.34,11-.47,21.64-3.38,30.44-10.18C359.45,348.87,357.66,346.89,356.22,347.61Z"/><rect class="sack-ricecls-2" width="512" height="512"/></g></g></svg>