<svg xmlns="http://www.w3.org/2000/svg" viewBox="0 0 512 512"><defs><style>.saffroncls-1{fill:none;}.saffroncls-2{fill:#eb3b3b;}.saffroncls-3{fill:#c38fd0;}.saffroncls-4{fill:#4a2d2d;}</style></defs><g id="Capa_2" data-name="Capa 2"><g id="bocetos"><rect class="saffroncls-1" width="512" height="512"/><path class="saffroncls-2" d="M385.39,80.27c-20.63.32-42.43,16.45-56.81,30-16.05,15.09-33.32,36.54-40.87,57.4-1.1,3,3.23,4.32,4.88,2.05,6.45-8.9,11-19.16,17.3-28.24a164.77,164.77,0,0,1,22-25.71A131,131,0,0,1,357.76,96.5c9.25-5.23,19.3-7.62,28.76-12.06,2.06-1,1-4.2-1.13-4.17Z"/><path class="saffroncls-2" d="M320.73,47.32c-13.41,16.4-27.69,32.12-41,48.52a2.07,2.07,0,0,0,2.92,2.92c16.36-13,30.77-30.89,41.86-48.55,1.41-2.24-2-5-3.74-2.89Z"/><path class="saffroncls-2" d="M295.24,1.71c-27.13,10.72-49.91,26.42-66.13,51A181.8,181.8,0,0,0,209.62,93c-2.81,8.07-5.08,16.26-7.09,24.56-1.89,7.81-4.72,15.93-4.74,24,0,2.23,3.32,3.34,4.38,1.19,6.1-12.33,8.07-27.66,12.33-40.83,4.65-14.37,10.14-28.55,17.82-41.61,15-25.56,37.59-43,64.51-54.81,2.12-.93.59-4.64-1.59-3.78Z"/><path class="saffroncls-3" d="M127.48,262.68S110.55,225.79,108,184.12s11.72-87.67,26.47-117.19S163.5,20.06,170,25.27s25.18,66.84,25.18,87.67S193,139.85,193,139.85s30.38-25.17,49-39.5,27.78-22.13,33-19.53.43,33.42-1.74,56.43a340.12,340.12,0,0,1-5.21,36.89s25.61-6.51,54.25-13.89,47.75-15.19,52.09-10.85-17.8,64.67-61.2,95.92-118.92,33.42-118.92,33.42-47.75,27.34-55.12,26.91S127.48,262.68,127.48,262.68Z"/><path class="saffroncls-1" d="M268.47,83.39c.75.31.39-.52-.4-1.8C249.3,96,230.43,110.28,211.73,124.76c-15,15.79-29.43,32.14-43,48.94a154.38,154.38,0,0,0-30.05,58.4c-6.16,22.73-3.65,45.33,5.23,66.81,35.54-18,73.24-43,93.38-77.81,10.26-17.77,27.3-40,33.59-60.45,1.36-7.36,2.27-14.73,2.94-22.1C273.54,120.25,267.93,102.83,268.47,83.39Z"/><path class="saffroncls-4" d="M166.65,173.9c8.41-10.4,23.27-26.44,33.26-37.06l1.1-1.7c.91-1.44,1.9-2.83,2.87-4.24-17.47,13.87-34.8,29.14-48.41,46.61C127.81,213,115,262.26,137,303.74a11.8,11.8,0,0,1,3.65-3.2c1.07-.53,2.15-1.09,3.22-1.63-8.88-21.48-13.45-43.88-7.3-66.61A154.47,154.47,0,0,1,166.65,173.9Z"/><path class="saffroncls-4" d="M270.4,162.78a2.26,2.26,0,0,1-.22-.11c-6.75,19.88-18.79,42.07-33.55,63.33-22.94,33.07-57.2,54.94-92.74,72.91.31.77.62,1.54,1,2.31,2,4.66-4.41,8.76-7,4.09-.29-.52-.55-1.05-.83-1.57-2.81,3.53-4.21,8.12-.86,6.68,39.77-17.09,88.41-45.56,110.88-83.61,11.5-19.47,19.09-41.85,23.41-64Z"/><path class="saffroncls-4" d="M144.85,301.22c-.34-.77-.65-1.54-1-2.31-1.07.54-2.15,1.1-3.22,1.63a11.8,11.8,0,0,0-3.65,3.2c.28.52.54,1.05.83,1.57C140.44,310,146.88,305.88,144.85,301.22Z"/><path class="saffroncls-4" d="M214.66,177.25c-10.32,9-18.33,21.6-26.49,32.5-8.84,11.82-17.22,24-25.19,36.44a507.33,507.33,0,0,0-39.73,75.32c-10.86,25.55-20.27,51.84-27,78.78-3.62,14.41-6.65,29-8.87,43.66-2.28,15-6.84,32.94-4.23,48,1,5.63,8.54,4.33,10.17,0,2.59-6.9,2.59-14.72,3.46-22q1.56-13.17,3.67-26.25c2.17-13.44,4.64-26.83,7.72-40.09a517.82,517.82,0,0,1,24.93-79.71,548.69,548.69,0,0,1,37.8-75c7.06-11.71,14.69-23,22.78-34.06,8.37-11.39,18.85-21.49,26.54-33.33,2.28-3.51-2.65-6.76-5.53-4.26Z"/><path class="saffroncls-4" d="M142.71,187.26a119.77,119.77,0,0,0,1.58,16.38c1.69-3,3.5-6,5.34-9-.66-2.71-1.35-5.39-1.9-8a112.42,112.42,0,0,1-2.68-29.36c1.06-19,3.32-37.85,9.1-56,1-3.29-3.78-4.39-5-1.39a118.51,118.51,0,0,0-8.58,57.4C141.49,167.2,142.18,177.24,142.71,187.26Z"/><path class="saffroncls-4" d="M305,207a324.51,324.51,0,0,1-43.59,21.26c-9.89,4-20.34,6.9-30.35,10.69-2.45,2.53-4.78,5.19-7.14,7.81-.15.15-.29.32-.43.48,13.92-1.38,27.86-7.15,40.58-12.68a312.19,312.19,0,0,0,43.33-23.44C310,209.48,307.66,205.44,305,207Z"/><path class="saffroncls-2" d="M253.89,355.31c-9,22.28-6.44,48.71,6.36,69.08,10.1,16.07,31.6,35.6,52.11,33.7,2.56-.24,3.95-3.69,1.39-5.13-7.63-4.3-16.25-6.32-23.8-10.89a73.08,73.08,0,0,1-23-21.6c-12.81-19.06-14.42-42.14-8.16-63.8.94-3.24-3.72-4.32-4.92-1.36Z"/><path class="saffroncls-2" d="M200.68,421c2.09,14.81,9.93,27.44,20.19,38.06,9.38,9.71,20.49,19.8,32.28,26.55,12.66,7.23,28,10.92,42.18,13.79,13.82,2.8,31.54,5.51,44.58-1.17,2.59-1.33,1.3-5.35-1.44-5.34-7,0-13.88,1.53-20.93,1.4a116.3,116.3,0,0,1-21.91-2.73c-12.89-2.72-27.07-6-38.64-12.52-10.36-5.81-20.05-14.7-28.74-22.76-11-10.18-19.89-21.58-22.71-36.62-.6-3.24-5.31-1.79-4.86,1.34Z"/><path class="saffroncls-2" d="M286.55,391.13c22,6.15,41.78,18.42,58.42,34,16.35,15.3,28.63,33.52,42.87,50.6,1.89,2.26,5.16-.62,3.92-3C371,432.61,332.92,395.87,287.91,386.2c-3.19-.68-4.54,4-1.36,4.93Z"/><path class="saffroncls-2" d="M323.36,374.72c21.35-4.08,43.81,1.81,64.36,7.61,19.41,5.48,31.94,16.46,46,30.21,2.08,2,4.85-.52,3.79-2.92-8.13-18.38-27.65-28.91-46.13-34.14-22.32-6.31-46.6-11.94-69.61-6.56-3.81.89-2.17,6.52,1.6,5.8Z"/><path class="saffroncls-2" d="M293.57,351.18c18.24-7.25,37.22-12.63,56.79-14.54,19.17-1.87,37.12,1,56.13,1.91,3.57.17,3.93-4.9.81-6-18.12-6.17-40.39-5.19-59.11-2.83a178.11,178.11,0,0,0-56.61,16.7c-2.58,1.27-.74,5.81,2,4.72Z"/></g></g></svg>