<svg xmlns="http://www.w3.org/2000/svg" viewBox="0 0 512 512"><defs><style>.shallot-onioncls-1{fill:none;}.shallot-onioncls-2{fill:#b3644c;}.shallot-onioncls-3{fill:#4a2d2d;}</style></defs><g id="Capa_2" data-name="Capa 2"><g id="bocetos"><rect class="shallot-onioncls-1" width="512" height="512"/><path class="shallot-onioncls-2" d="M149.42,89.79s9.82-24.55,16.37-24.22-4.58,12.43,0,31.74,54.73,58.42,68.74,110.31c14.4,53.35,9.82,93.61-11.79,133.54-14.28,26.41-39,42.23-44.51,45.83,1,3.27,20.29,20.29,17,27.49s-23.57-14.73-23.57-14.73-.33,23.9-5.24,21.93-11.12-23.23-11.12-23.23-19.32,21.6-24.88,19.31,12.11-29.13,12.11-29.13S71.21,347.5,73.81,271.12c2.62-76.92,25.53-105.07,41.57-127.65s26.19-32.74,25.86-35.68-18-35.68-12.11-38.95S149.42,89.79,149.42,89.79Z"/><path class="shallot-onioncls-3" d="M135.08,149.45c-29.17,63.94-42.34,149.43,0,211.22a1.84,1.84,0,0,0,3.18-1.86c-17-32-27.27-65.08-26.31-101.65,1-36.92,10.81-72.49,26.05-106,.9-2-2-3.73-3-1.73Z"/><path class="shallot-onioncls-3" d="M153.23,153.6c6.24,33.55,10,67.35,9.83,101.5-.14,34.45-5.59,67.5-11.07,101.37-.36,2.24,2.84,3.25,3.49,1,9.24-32.67,11.9-68.52,12.19-102.33a440.52,440.52,0,0,0-10.81-102.5c-.54-2.38-4.07-1.35-3.63,1Z"/><path class="shallot-onioncls-3" d="M169.3,154.36c22.14,27.83,27.53,64.81,30.45,99.21a208.89,208.89,0,0,1-2.3,52.2c-3,18.07-9.87,33.62-16.95,50.34a1.79,1.79,0,0,0,3.09,1.8c22.4-29.26,23.26-72.67,21.15-107.66-2.07-34.4-9-72.18-32.8-98.53-1.64-1.81-4.1.81-2.64,2.64Z"/><path class="shallot-onioncls-2" d="M383.13,194.85s26.18,39.61,19.31,86.42S373,360.8,356,378.48s-45.17,33.06-56.3,37-43.53,0-43.53,0,12.44,17.67,61.21,16,100.81-38,113.9-102.12S421.1,224.31,411.93,211.55,386.73,190.93,383.13,194.85Z"/><path class="shallot-onioncls-3" d="M417.07,169.6a51.12,51.12,0,0,0-18.68,3.31c3.74-11.25,6-25.12-5.38-25.28-7-.1-13.06,9.08-16.24,14.28-4.93,8-7.86,17.12-10.29,26.19-43,18.35-83.05,50.77-103.32,93.46-11.89,25-19.51,53-24.05,80.3-1.07,6.38-1.93,12.81-2.5,19.25-.6,6.75.64,16.13-2.48,22.32-4.29,8.5-13.19,11.33-13,22.06a3.73,3.73,0,0,0,4.68,3.56,73.69,73.69,0,0,0,14.21-5.28c-1.1,9.21-1.41,21.16,8.76,19.84,8.36-1.09,11-13.21,11.62-21.85,51.71,8,98.11-30.2,123.69-72.21,27.11-44.51,38.35-104.32,9.51-150.39a109.83,109.83,0,0,0,16.22-10c4.95-3.52,9.89-7.6,11.75-13.59A4.74,4.74,0,0,0,417.07,169.6Zm-31.36,21.79c-3.57.63-5.07,5.1-3.33,8,27.14,44.66,19.87,97.8-5.56,141.93-23.82,41.35-66.65,82-118.07,71.69-2.73-.55-5.75,1.23-5.65,4.3.07,2.28.48,21.1-5.15,18.39-2.27-1.09,0-16.48.11-19.2.18-3.2-2-4.37-4.7-2.51-3.89,2.69-11.68,10.08-15.27,7.09-3.27-2.73,13.9-11.53,15.65-16.59,3.85-11.14,2.18-24.85,3.91-36.48,4-27.08,11.27-55.18,22.83-80.06,20.23-43.52,57.95-71.15,99.78-91.92a9.85,9.85,0,0,0,5.16-6.5c2.53-9.34,6.58-21.83,12-29.95,2.74-4.1,7.22-6.06,5,3.19-1.35,5.75-4.33,12.77-6.81,18.1-1.8,3.86.61,5.83,4.9,2.77,5.34-3.81,25.1-11.62,22.92-5.89C411.19,183.66,393.23,190.07,385.71,191.39Z"/><path class="shallot-onioncls-3" d="M379.78,197.12c-1.67-6.06-14.24,5.68-16,7.11l-.79.66q-5.79,4.85-11.22,10.11a257,257,0,0,0-20.37,22.26c-6.39,7.82-12.38,16-18.11,24.27s-11.17,16.82-16.48,25.41c-1.08,1.76-2.16,3.51-3.23,5.27-11.9,19.54-23.64,39.12-32.75,60.16q-6.57,15.18-11.7,30.92c-.94,2.9-2.18,6-3,9.2a1.89,1.89,0,0,0-2.48.55c-4,5.63-1.17,12.6,4.87,15.41,9.36,4.34,22.27-1,30.76-5,23.43-11.07,44.29-29.55,60.44-49.59a193.36,193.36,0,0,0,35.95-69.36C383.31,257.31,387.4,224.77,379.78,197.12ZM258.2,370.83q5.94-15.75,13.44-30.87c8.71-17.58,19.12-34.29,29.42-51,19.79-32.07,41.63-64.72,71.78-88.05-3.59,21-13.17,39.71-22.74,58.59-8.86,17.46-17.91,34.82-27.75,51.75-19.27,33.19-42,65.18-72.12,89.35C247.77,392.31,255.68,377.52,258.2,370.83ZM375.08,266.3a187.3,187.3,0,0,1-23.72,63.24,191.24,191.24,0,0,1-39.58,46.72A182.81,182.81,0,0,1,285.72,395a90.93,90.93,0,0,1-17.05,8.12,55.54,55.54,0,0,1-6.22,1.71,27.65,27.65,0,0,1-6.64.84,6.83,6.83,0,0,1-4.27-.86c31.27-25.73,55.34-57.78,75.74-92.56,10.45-17.82,19.93-36.19,29.29-54.6,8-15.78,16.44-31.77,19.61-49.18C377.57,227.9,378.58,246.55,375.08,266.3Z"/></g></g></svg>