<svg xmlns="http://www.w3.org/2000/svg" viewBox="0 0 512 512"><defs><style>.shiitakecls-1{fill:none;}.shiitakecls-2{fill:#ab745b;}.shiitakecls-3{fill:#928181;}.shiitakecls-4{fill:#4a2d2d;}.shiitakecls-5{fill:#bc907b;}</style></defs><g id="Capa_2" data-name="Capa 2"><g id="bocetos"><rect class="shiitakecls-1" width="512" height="512"/><path class="shiitakecls-2" d="M72.08,223.67c-27.8-60.94,18.71-97.83,70-127.23S254.89,41.39,316.9,59,452.68,195.34,442,255.74s-70.43,65.8-128.83,67.35C233,325.23,99.87,284.61,72.08,223.67Z"/><path class="shiitakecls-3" d="M172.94,146.84c-49.89,2.55-66.52,23.66-72.27,48s21.1,49.25,63.31,67.79,116.4,30.06,151.58,30.7,73.54-9.59,81.22-30.06S377,215.81,362.24,207C323.87,183.93,222.82,144.28,172.94,146.84Z"/><path class="shiitakecls-4" d="M137.75,246c13.41.25,26.8.21,40.21.22,12.21,0,25.16,1.32,37.23-.7,2.45-.42,2.43-4.52,0-4.95-12.05-2.12-25-.82-37.23-.71-13.42.12-26.81.34-40.21,1-3.32.15-3.35,5.12,0,5.18Z"/><path class="shiitakecls-4" d="M111.8,198.34c31,10.21,62.37,19.24,94,27.35,2.46.63,3.36-2.9,1-3.75-30.72-11.19-62.09-20.14-93.48-29.25-3.64-1.06-5.12,4.47-1.56,5.65Z"/><path class="shiitakecls-4" d="M172.09,161.11c9.06,8.35,17.85,17.06,26.26,26.07,7.65,8.19,14.27,18.26,23.25,25,2.1,1.57,3.94-1.35,3.16-3.16-4.37-10.29-13.7-19-21.28-27a296.6,296.6,0,0,0-27.17-25.15c-2.91-2.4-7.09,1.58-4.22,4.22Z"/><path class="shiitakecls-4" d="M261.06,215.33c.26,0,.54.11.81.16,4.5-14.66,4.25-33.57,3.44-48.19a2.9,2.9,0,0,0-5.8,0c-.75,8.55-1.17,17.12-1.79,25.68-.53,7.27-2,14.76-2,22.07A27.6,27.6,0,0,1,261.06,215.33Z"/><path class="shiitakecls-4" d="M283.45,219.9c11.09-4.17,22.29-8,33.55-11.69,10.29-3.33,21.29-5.31,31.12-9.84,2.08-1,1-4.35-1.15-4.26-11.33.47-22.73,4.75-33.42,8.27a295.66,295.66,0,0,0-32.05,12.88c-2.58,1.2-.74,5.65,1.95,4.64Z"/><path class="shiitakecls-4" d="M291.91,240.65a349,349,0,0,1,46.75.67c15.48,1.3,30.71,4.5,46.17,5.86,2.49.22,2.54-3.26.55-4C356.74,232,322.05,232.05,291.91,235c-3.58.34-3.71,5.87,0,5.68Z"/><path class="shiitakecls-4" d="M282.63,255.73c22,9.06,42.24,21.42,64,30.87,1.92.83,4.25-1.47,2.43-3.15-18-16.57-41.7-26.41-64.62-34.13-4.14-1.39-5.61,4.83-1.77,6.41Z"/><path class="shiitakecls-4" d="M374.22,188.55c.79,2.71,3.26,4.9,5.47,6.57a21.75,21.75,0,0,0,7,3.91c6.13,1.8,11-6.37,6.3-10.82a21.61,21.61,0,0,0-6.86-4c-2.62-1.11-5.74-2.15-8.57-1.44a4.78,4.78,0,0,0-3.3,5.82Z"/><path class="shiitakecls-4" d="M375,169.6a15.23,15.23,0,0,0,3.3,1.34,5.46,5.46,0,0,0,2.89.14,4.15,4.15,0,0,0,2.39-1.84,4.2,4.2,0,0,0-1.11-5.21,16.57,16.57,0,0,0-1.7-1.33c-.43-.26-.89-.46-1.34-.68-2.05-1-4.85-.62-6,1.57-1.05,2-.61,4.91,1.58,6Z"/><path class="shiitakecls-4" d="M159.72,128.43c1.32-.09,2.62-.18,3.93-.35a19.77,19.77,0,0,0,2.58-.34,7.91,7.91,0,0,0,2.28-1.2,4,4,0,0,0,0-6.74,8.43,8.43,0,0,0-2.28-1.2,19.77,19.77,0,0,0-2.58-.33c-1.31-.17-2.61-.27-3.93-.35a5.28,5.28,0,0,0-5.25,5.25c.12,2.7,2.31,5.44,5.25,5.26Z"/><path class="shiitakecls-4" d="M395.52,231.59c-13.91-20.33-39.3-34.18-60.57-45.38-44.17-23.27-95.5-37.53-145.31-41.46-38.65-3.05-98.37,8.79-93.51,59.57,2.35,24.51,24.45,40.06,44.11,51.41,21.66,12.51,46.55,25,71.75,29.87.26-.69.54-1.37.79-2.06a70.68,70.68,0,0,0,2.19-7c-19.06-6.78-38.51-12-56.9-20.92-17.33-8.43-38.1-19.62-48.28-36.66-11-18.44-4-42.29,14.11-52.84,17.68-10.3,38.37-12.76,58.5-11.82C223.08,156.18,265.26,168,302.51,184a325.67,325.67,0,0,1,58.39,32.38c14.73,10.31,41.42,32.07,25.46,52-9.81,12.26-30,15.41-44.66,17-23.45,2.59-45.83.08-68.66-3.71a95.34,95.34,0,0,1-3.53,9c-.29.66-.61,1.31-.9,2,22.66,7.2,47.86,7.83,71.18,5.5,17-1.69,35.47-4.79,49.3-15.55C405.51,269.76,407.06,248.47,395.52,231.59Z"/><path class="shiitakecls-5" d="M276.54,213.14c-14.49-7.25-44.77-10.24-57.13,8.1s0,29-13.22,70.35-45.62,103.18-34.11,133,43.49,40.51,72.06,33.69,33.26-35,27.71-50.32-17.48-31.12-12.79-68.64,17.74-65.15,21.75-77.17C287.63,241.7,291,220.38,276.54,213.14Z"/><path class="shiitakecls-4" d="M234.33,243.21l1.09-.07a5.43,5.43,0,0,0,3.42-1.42,3.61,3.61,0,0,0,1-1.56,3.55,3.55,0,0,0,.42-1.87l-.17-1.29a4.89,4.89,0,0,0-1.25-2.14l-1-.75a4.86,4.86,0,0,0-2.44-.67l-1.09-.07a4.75,4.75,0,0,0-4.49,3,3.6,3.6,0,0,0-.42,1.89l.17,1.31a5,5,0,0,0,1.27,2.17,4.89,4.89,0,0,0,3.47,1.44Z"/><path class="shiitakecls-4" d="M234.31,263.32a6.82,6.82,0,0,0,1.86-.74,4.43,4.43,0,0,0,0-7.64,6.52,6.52,0,0,0-1.86-.74,4.74,4.74,0,0,0-4.6,1.21,4.94,4.94,0,0,0-1.39,3.35,3.66,3.66,0,0,0,.41,1.82,3.6,3.6,0,0,0,1,1.52,4.79,4.79,0,0,0,4.6,1.22Z"/><path class="shiitakecls-4" d="M241.93,426.07c.2.05,1,.32.09,0q-.69-.32-.18,0l-.65-.5c.17,0,1.43,1.82.16.1a6.92,6.92,0,0,0,1.81,1.81c-1.45-.95-1.54-1.79-1.06-1a4.54,4.54,0,0,0,1.66,1.71l-1.49-1.86c.1.38.1.27,0-.32a3.71,3.71,0,0,0,1.73,3,3.44,3.44,0,0,0,3.52,0,8.68,8.68,0,0,0,1.19-1c.31-.33.91-1.57.55-.7-.23.26-.27.33-.13.21a1.36,1.36,0,0,0,.42-.5,5,5,0,0,0,1-2.59c.1-.76.12-.83,0-.21-.07.44-.08.54,0,.31.41-.44.12-2.44,0-2.77a8.24,8.24,0,0,0-5.86-5.66,5.25,5.25,0,0,0-6.37,3.61c-.6,2.63.78,5.75,3.61,6.37Z"/></g></g></svg>