<svg xmlns="http://www.w3.org/2000/svg" viewBox="0 0 512 512"><defs><style>.sorghumcls-1{fill:#4a2d2d;}.sorghumcls-2{fill:none;}</style></defs><g id="Capa_2" data-name="Capa 2"><g id="bocetos"><path class="sorghumcls-1" d="M172.34,220.23c20.17-1,37.43-20.65,32.46-40.34-3-11.8-11.94-22.58-23.65-25.92a35.19,35.19,0,0,0-44.26,28.69C133.72,204.29,151.25,221.27,172.34,220.23Zm23.56-20.75a27.07,27.07,0,0,1-1.85,2.6c-4-.08-8.52-1-10.17-4.64s2.71-4.85,5.43-4.72c2.06.11,7.19,1.46,8.21,3.61A24.71,24.71,0,0,1,195.9,199.48Zm-52.54-16.8c2.65-15.91,19.83-27.13,35.52-22.94,13.84,3.7,23,18.8,20,32.46-4.26-4.75-15.19-4.73-18.47.67-2.19,3.61.55,7.55,3.47,9.72a17.23,17.23,0,0,0,6.7,3,27.64,27.64,0,0,1-16.27,6.33C157,212.91,140.22,201.51,143.36,182.68Z"/><path class="sorghumcls-1" d="M250.91,152.12c16.71-11.75,23.28-37.57,5.85-51.45-9.51-7.57-23.2-10.07-34.69-5.56-17.14,6.72-27.45,27.18-19.88,44.48C210.33,158.19,234.77,163.48,250.91,152.12Zm-1.52-21.64a3.58,3.58,0,0,1,4.49-3,7.94,7.94,0,0,1,3.41,1.93,29.34,29.34,0,0,1-3.83,8.23C250.89,136.41,248.86,133.3,249.39,130.48Zm-43.13-6.86c1-11.07,11.05-19.93,21.5-22.16a28.81,28.81,0,0,1,19.29,2.69c8.9,4.7,12,12.94,11.08,21.16-4-2.62-9.95-2.1-12,2.9-1.76,4.38.86,10.36,5.21,12.23a28.21,28.21,0,0,1-7.85,6.46c-12.52,6.9-30.51,1.62-35.7-12.17A25,25,0,0,1,206.26,123.62Z"/><path class="sorghumcls-1" d="M230,169.59c-8.21,10-10.19,25.09-5.14,36.95,9,21.14,33.56,23.07,51,11.24a32.51,32.51,0,0,0,7.53-47.06C271,154.76,243,153.77,230,169.59Zm1.89,8.1c2.54.25,4.93.36,7.33,1.51,2.55,1.24,6.56,4.39,4.33,7.53-1.61,2.26-5.29,2.16-7.6,1.27-3.22-1.23-4.89-4.17-5.77-7.32A23.14,23.14,0,0,1,231.89,177.69Zm46.9-2.35a24.89,24.89,0,0,1-6.42,35.51c-14.15,9.74-33.73,9.91-42-7.3a26.61,26.61,0,0,1-2.08-17.3c3.58,6.56,13.57,10.09,18.71,3.15,5.26-7.1-4-14.88-11.71-15.78C246.91,162.3,269,161.29,278.79,175.34Z"/><path class="sorghumcls-1" d="M318.83,191.67c19.58,2.58,42.15-11.36,43.73-32.13,1.64-21.63-22.89-37.21-42.54-31.37a35.23,35.23,0,0,0-21.25,18.11c-4.14,8.27-5.51,18.61-2,27.44S309.22,190.41,318.83,191.67Zm1.77-10.6a11.24,11.24,0,0,1-3.12,3,21,21,0,0,1-7-3.26c1.91-3.61,4.84-7.65,8.9-6C322,175.79,321.81,179.09,320.6,181.07Zm-8.65-40a26.66,26.66,0,0,1,6.3-4c14.91-6.87,37.53,3.25,37.28,21.13-.24,16.33-17.24,26.48-32.12,26.65H323c3.09-3.88,4-9.62-.36-12.73-5.29-3.74-11.74,1-15,6.25A18.69,18.69,0,0,1,303,169C301.13,159.3,304.37,147.6,312,141.05Z"/><path class="sorghumcls-1" d="M406.93,220.43c-3.46-8.62-11.76-14.62-20.45-17.21-23.7-7.06-46.57,15.14-44.41,38.74.05.5.11,1,.18,1.49,3.1,21.8,23.32,32.27,43.63,24.32C404.28,260.57,414.42,239.07,406.93,220.43Zm-10.07-1.89a31,31,0,0,1-2.5,3.54c-1.29,1.41-4.12,4.62-6.33,4.11-2.71-.61-2.68-4.41-2.11-6.43a9.53,9.53,0,0,1,4.53-5.57,1.79,1.79,0,0,0,.65-.63,27.84,27.84,0,0,1,3.35,2.51A22.48,22.48,0,0,1,396.86,218.54Zm-15.53,43c-16.69,5.07-33.15-5.43-33-23.53.14-20.13,21.85-33.79,39.2-26.3-5.08,3.75-8.77,12.59-2.71,17.12,5,3.73,11.64-1.62,14.33-7a19.35,19.35,0,0,1,1.77,4.37C404.82,241,395.93,257.06,381.33,261.5Z"/><path class="sorghumcls-1" d="M312.49,279.48a34.29,34.29,0,0,0,22-45.66c-3.61-8.91-11.54-15.63-20.55-18.67-23.22-7.84-49.4,12.58-45.66,37.27C271.41,273.32,292.58,285.59,312.49,279.48Zm11.81-18.17c-3.29-.55-7-2.18-7.64-5.17-1.13-5.43,8.65-1.7,10.68-.81A27.16,27.16,0,0,1,324.3,261.31ZM274,249.15c-1.58-22.47,27.41-35.2,44.75-23a23.54,23.54,0,0,1,7.5,8.94,25.7,25.7,0,0,1,2.1,16.52c-4.91-2.5-14.78-4.06-15.49,3.36-.32,3.33,1.92,6.08,4.56,7.83a12.05,12.05,0,0,0,4.32,1.78,26.82,26.82,0,0,1-12.64,7.7C292.86,276.72,275.24,266.71,274,249.15Z"/><path class="sorghumcls-1" d="M247.63,241.76a31.92,31.92,0,0,0-23.7-15.87c-9.26-1.3-20.77-.07-28.05,6.39-10.58,9.39-13.35,27.45-7.41,40.07,7.58,16.13,29.92,20.74,45.2,13.9C250.57,278.68,256.6,257.75,247.63,241.76Zm-39.86-8.13a30.24,30.24,0,0,1,7.29-1c.83,1.75,2,3.19,2.15,5.31.16,2.29-.56,6.7-3.73,6.27C209,243.58,207.61,237.75,207.77,233.63ZM233,278.18c-10.33,6.14-25.78,5.07-34.5-3.55-6.56-6.5-8.2-16.36-5.59-25a27.4,27.4,0,0,1,6.68-11.37,17.23,17.23,0,0,1,4.63-3.27c-.2,6.52,3.66,14.48,11,13.33,6.3-1,7.79-10.37,4.65-15.53l.81.07c7.57.77,14.64,4.3,18.91,10.74C246.94,254.75,244.88,271.09,233,278.18Z"/><path class="sorghumcls-1" d="M169.54,261.15a30.26,30.26,0,0,0-6.95-21.75C157.2,233,149,229.63,140.5,229.14s-16.92,1.83-23.2,6.79-11.39,11.76-13.61,19.41c-5,17.14,7.46,35.72,24.78,38.63C148.41,297.31,168,281.07,169.54,261.15ZM154.45,278c-2.89-2.28-6.53-5.13-4.81-8.46,2.3-4.42,7.05-1,10,1.26A28.13,28.13,0,0,1,154.45,278ZM126.88,287C111,283.76,105,269.07,110.45,254.69c7.3-19.38,38.94-26.1,49.24-5.61a24,24,0,0,1,.89,19.43c-2.09-1.85-4.25-4.08-7-4.44a6.79,6.79,0,0,0-6.82,3.73c-2.25,4.35.89,9.7,4.8,12.79C144.63,286.05,135.39,288.76,126.88,287Z"/><path class="sorghumcls-1" d="M248.79,347.45c14.93,7.37,35.81,3.35,43.4-12.47a41.88,41.88,0,0,0,2.3-28.94c-2.28-7.89-8.23-14.07-15.51-17.52a31.45,31.45,0,0,0-13-3,28.72,28.72,0,0,0-11.05,2.18,37.66,37.66,0,0,0-17.28,14.64c-4.79,7.5-8.86,17.88-6,26.75C234.3,337.09,241.34,343.78,248.79,347.45ZM273.4,293.9c-.61,1-.85,2.19-1.39,3.37a18.33,18.33,0,0,1-3.47,5.14c-3.1,3.06-4.61-.58-4.53-3.35a32,32,0,0,1,.95-6.68A21.56,21.56,0,0,1,273.4,293.9Zm-31.8,13.84c3.69-6.72,9.71-12.24,17.15-14.42.64-.19,1.28-.34,1.92-.47-1.2,5.49-1.49,14.25,5.41,14.74,3.19.23,5.64-2.46,7.34-4.83,1.31-1.83,3-4.65,3.27-7.19a21.27,21.27,0,0,1,6,5.7,29.27,29.27,0,0,1,2.2,30.07c-5.74,11.41-19.63,13.48-30.79,9.63-5.4-1.86-10.47-5-13.75-9.79C235.22,323.73,237.54,315.13,241.6,307.74Z"/><path class="sorghumcls-1" d="M357.76,278.15c-11.43-2-21.29,3.56-29.4,11-7.78,7.17-11.94,19.16-10.06,29.57,3.44,19.09,29.07,27.58,45.67,20.85,17.27-7,25.29-28,16.94-44.71C376.46,286,367.45,279.89,357.76,278.15Zm-28.24,47.18a17.27,17.27,0,0,1-3.63-6.07c2.71-1.14,7.43-2.4,8.59.12.82,1.8-1.3,3.89-2.55,4.77A9.61,9.61,0,0,1,329.52,325.33Zm33.25,6.24c-8.41,3.93-21.52,2.74-29.89-3.26,4-2,7.32-6.06,5.88-10.24-1.85-5.35-9.09-4.72-13.69-2.34-2.93-20.48,21.21-37.47,39.64-27.43a22.79,22.79,0,0,1,8.4,8.23C381,309.46,376.5,325.14,362.77,331.57Z"/><path class="sorghumcls-1" d="M324.09,351a41.28,41.28,0,0,0-12.89,0c-10.42,1.61-20.23,7.64-25.54,16.87a31.4,31.4,0,0,0-3.41,8.76c-4.25,19.06,9.24,35.25,28.07,37.41s35.77-10,38.15-29a33.19,33.19,0,0,0-6.73-24.55C337.4,355,330.92,352.06,324.09,351Zm-32.88,20.78a14,14,0,0,1,4.36,1.53c1.53.86,4.77,2.49,2,4.32-2.44,1.63-6.44.38-8-1.88,0,0-.05,0-.07-.07A24.34,24.34,0,0,1,291.21,371.74Zm49,17c-4.12,13.94-18.39,20.62-32.21,17.79-13.34-2.72-21.9-14.19-19.46-27.25,3.31,3.79,9.85,4.57,13.2.13,2-2.64,1.1-5.53-1.38-7.41a20.45,20.45,0,0,0-7-3.55,26.89,26.89,0,0,1,5.62-5.34c10.75-7.58,29.73-8.2,38,3.74A25.85,25.85,0,0,1,340.22,388.7Z"/><path class="sorghumcls-1" d="M200,323c-2.93-9.31-11-18.05-20.62-20.33a34.55,34.55,0,0,0-34.59,12.22c-5.91,7.52-9.28,17.58-8.29,27.17,2.06,19.93,21.27,30.8,40.15,26.67C198.29,364,206.36,343,200,323Zm-53.91,27.65c2.35-3.81,6.23-7.94,10.39-8.35,5.45-.53,2.75,5.16,1.66,7.76-1.17,2.77-4.07,4.9-6.73,6.36A24.14,24.14,0,0,1,146.13,350.63Zm23.4,11.51a28.24,28.24,0,0,1-15.26-3.79c6.3-2.68,14.21-14.68,7.76-19.68-3.63-2.81-8.94-.21-12.15,2a21.06,21.06,0,0,0-5.82,6.05,24.69,24.69,0,0,1-1.85-9.82,23.74,23.74,0,0,1,6.2-15.84c6.62-7.3,17.86-13.92,28.05-11.22,9.61,2.55,16.59,12.07,18.38,21.53C198.05,348.3,186.4,361.59,169.53,362.14Z"/><path class="sorghumcls-1" d="M243.14,353.71c-23.76-5.84-45.92,16.79-41.94,40.32,3,17.92,23,29.13,40.1,23.76,19.35-6.08,30.78-28.07,22.43-46.87A30.46,30.46,0,0,0,243.14,353.71Zm-13.58,51.36a4.25,4.25,0,0,1,5.2-4.79c4.76,1,3.9,6.05,4.74,9.72a21.68,21.68,0,0,1-7.19,1.22A14.19,14.19,0,0,1,229.56,405.07Zm14,3.16a15.12,15.12,0,0,0-2.36-7.71,8.27,8.27,0,0,0-8-3.76,8.37,8.37,0,0,0-6.69,5.95c-.79,2.7,0,5.54,1.29,8.05a25.82,25.82,0,0,1-18.95-16.55,26.71,26.71,0,0,1,.33-17.43c4.21-11.92,18.52-18.85,30.71-16,6.41,1.51,12.06,4.93,15.51,10.69C263.59,385.15,256.7,401.19,243.54,408.23Z"/><rect class="sorghumcls-2" width="512" height="512"/></g></g></svg>