<svg xmlns="http://www.w3.org/2000/svg" viewBox="0 0 512 512"><defs><style>.spinachcls-1{fill:none;}.spinachcls-2{fill:#6a8c2a;}.spinachcls-3{fill:#4a2d2d;}</style></defs><g id="Capa_2" data-name="Capa 2"><g id="bocetos"><rect class="spinachcls-1" width="512" height="512"/><path class="spinachcls-2" d="M250.35,425.53a313.71,313.71,0,0,1-35.67-41.84c-16.29-23.33-32.59-46.67-34.35-60.77s13.21-33.9,16.3-60.33,1.76-35.67-25.54-56.8-70.46-59.9-93.36-47.56-26.87,80.58-5.29,111,52,46.24,65.62,49.32,25.1.88,30.38,7.49,16.74,39.63,30.83,61.65,33,40.51,40.07,44S257.4,430.81,250.35,425.53Z"/><path class="spinachcls-2" d="M253.88,290.78s-4.85-16.74-35.67-52-48.89-74-33.91-115.37,54.6-66.06,93.8-47.56,45.35,75.3,38.31,121.1-26.86,62.09-35.23,88.51-11.89,68.7-16.74,97.76-10.56,47.56-14.53,48-9.25-5.72-8.37-11,9.25-32.59,13.22-74.87S253.88,290.78,253.88,290.78Z"/><path class="spinachcls-2" d="M296.15,357.71c20.37-33.67,33.47-68.25,32.15-81s-19.38-49.76-.88-81.9,65.17-58.13,97.32-45.36,26.86,79.7-.44,132.11S359.12,311,345.47,315s-53.28,79.7-69.58,100-25.54,19.38-29.5,15S264.44,410.12,296.15,357.71Z"/><path class="spinachcls-3" d="M172.59,310.72c-1.65-3.59-4.76-8.77-6.7-12.21-12.14-17.83-23.58-33.6-35.49-51.59-6.57-9.93-12.9-20-18.69-30.43s-10-21.65-16-31.8a2.37,2.37,0,0,0-4.32,1.82c5.49,21.38,20.15,42.21,32.06,60.53,13.37,20.56,27.83,40.35,41.76,60.52C173,318.84,174.61,315.12,172.59,310.72Z"/><path class="spinachcls-3" d="M75.48,199.05c5.29,9.13,15.09,15.57,24.86,19.11,1.67.61,2.52-1.85,1.16-2.74-8.45-5.55-17.48-9.12-23.06-18.09a1.71,1.71,0,0,0-3,1.72Z"/><path class="spinachcls-3" d="M133.18,199.83A97.35,97.35,0,0,1,135.33,224c-.27,7.25-2.76,13.93-3.67,21.05-.19,1.44,2,1.87,2.65.72,7.52-13.55,6.28-32.42,2.62-46.94-.62-2.44-4.27-1.4-3.75,1Z"/><path class="spinachcls-3" d="M90.94,248c11.53,8.54,29.89,14,44.13,14.65,1.3.06,2-2,.7-2.58-13.88-6-30.32-6.57-43-15.19-2-1.33-3.65,1.76-1.82,3.12Z"/><path class="spinachcls-3" d="M165.46,226.81c-.24,18.81-3.44,36.36-7.57,54.62-.35,1.54,2,2.75,2.71,1.14,7.57-17.35,10.11-37,9.24-55.76-.13-2.81-4.34-2.84-4.38,0Z"/><path class="spinachcls-3" d="M123.1,290.59c3.92,3.28,10.66,5,15.27,2.07,1.54-1,1.09-3.92-1-3.73-4.49.42-7.74.85-11.93-1.36-1.83-1-4.08,1.56-2.33,3Z"/><path class="spinachcls-3" d="M232.82,98.08c9.82,31.87,20.29,63.36,26,96.32a361.74,361.74,0,0,1,5.5,51.16c.48,16.85-1.41,33.44-2.42,50.21-.13,2.08,3.13,2.5,3.62.49,7.81-31.83,5-67.87-.28-99.9-5.65-34.06-15.15-68.06-29-99.72-.85-1.94-4-.56-3.4,1.44Z"/><path class="spinachcls-3" d="M258.8,169.07c9.92-16.07,21.71-37.34,19.13-56.91-.25-1.83-3.31-2.77-3.63-.49-1.29,9.3-2.46,18.25-5.85,27.09-3.73,9.76-8.95,18.69-13.64,28-1.33,2.64,2.42,4.87,4,2.33Z"/><path class="spinachcls-3" d="M205.09,130.3a142.81,142.81,0,0,1,31,24.88c9.19,10,15,21.63,22.78,32.53,1.06,1.48,3.66.65,3.1-1.31-7.43-25.89-32.1-47.15-54.77-59.68a2.08,2.08,0,0,0-2.1,3.58Z"/><path class="spinachcls-3" d="M274.77,240.13c12.3-18.83,24.15-43.33,23.77-66.36a1.64,1.64,0,0,0-3.21-.43c-2.88,10.78-4.33,21.77-7.85,32.43a150.82,150.82,0,0,1-15.6,32.67c-1.15,1.84,1.71,3.48,2.89,1.69Z"/><path class="spinachcls-3" d="M204.44,185.86c11.11,5.65,22.36,11.32,32.75,18.22,11.45,7.6,19.13,17,28.38,26.75,1.75,1.85,4.21-.49,3.29-2.54-10.39-23.16-40.55-36.65-62.4-45.88-2.3-1-4.37,2.26-2,3.45Z"/><path class="spinachcls-3" d="M335.23,308c20.74-18.05,37.19-40.86,50.6-64.74,6.93-12.35,12.37-25.11,18-38.08,5.41-12.51,11.1-25.16,14.25-38.47.51-2.17-2.83-3.85-3.8-1.6-5,11.56-8.53,23.7-13.13,35.42-5.21,13.28-12,26.24-18.91,38.74a295.1,295.1,0,0,1-49.76,65.95c-1.79,1.82.89,4.42,2.78,2.78Z"/><path class="spinachcls-3" d="M374.67,261.7c13.78-9.06,27.05-18.2,39.37-29.19,7.36-6.57,16-14.39,18.43-24.39.37-1.54-1.67-3-2.83-1.65-6.87,8.06-11.91,16.3-20,23.53-11.78,10.54-25.34,18.48-37.29,28.71-1.63,1.4.51,4.17,2.31,3Z"/><path class="spinachcls-3" d="M378.45,173.33c-4.78,20.53-7.07,42.08-4,63,.23,1.58,2.81,1.19,2.76-.37-.67-21-.21-41.2,4.4-61.81.46-2-2.67-2.92-3.15-.87Z"/><path class="spinachcls-3" d="M353.76,291.47c18.78,2.14,41-.38,54.94-14.45,1.46-1.48-.46-4.19-2.28-3-16.61,11.2-33.23,12.12-52.66,13.49a2,2,0,0,0,0,3.92Z"/><path class="spinachcls-3" d="M357.64,279.25c-10.11-15.9-12.32-38.81-13.74-57-.14-1.86-3.18-2.61-3.51-.48-1.66,10.67.48,21.54,3.35,31.85,2.38,8.59,4.27,21.56,11.52,27.48,1.24,1,3.38-.27,2.38-1.84Z"/></g></g></svg>