<svg xmlns="http://www.w3.org/2000/svg" viewBox="0 0 512 512"><defs><style>.spring-onioncls-1{fill:none;}.spring-onioncls-2{fill:#4a2d2d;}.spring-onioncls-3{fill:#9bb533;}.spring-onioncls-4{fill:#fff;}</style></defs><g id="Capa_2" data-name="Capa 2"><g id="bocetos"><rect class="spring-onioncls-1" width="512" height="512"/><path class="spring-onioncls-2" d="M236.08,381.61c-2.36-18.16-18.89-31.08-8.38-60,1.4-3.84-3.7-9.47-5.33-5.82-10,22.47-5.91,36.69-.51,51.62,6,16.7,8.58,37.4.46,54-15.78,32.22-60.89,40.74-89.57,22.16-27.8-18-38.76-55-18.28-82.68,9-12.09,21.32-18.82,35-24.29,7.66-3.07,15-7.38,20.15-14,5.95-7.71,8.78-17.72,12.58-26.57,3.3-7.66,6.73-15,9.32-22.9-1.46-1.93-1.78-2.27-3.17-4.26-1-1.37-1.93-1.92-2.81-3.34-6.63,20.54-15,40.43-24.05,54-6.21,7.13-14.72,8.46-24.35,13-10.74,5.05-21.18,13.95-28.71,23-15.69,18.94-18,44-6.84,65.86C113,443.66,137,459.81,161.74,462.55c25.09,2.78,54.92-10.68,66.69-33.81C235.41,415,238.07,396.85,236.08,381.61Z"/><path class="spring-onioncls-3" d="M240.45,158.47c.38-1.5,13.88-87,18.75-111.73s5.25-39,19.87-42,58.73,7.13,60,17.25c.75,6-20.25,57.74-29.25,83.24S278.7,208.34,278.7,208.34s-35.25,40.5-43.87,36S240.45,158.47,240.45,158.47Z"/><path class="spring-onioncls-3" d="M240.08,203.09s32.62-59.61,59.62-88.86,61.49-57,66.74-55.49,30.75,28.12,35.62,39.37,6,18-1.5,22.87-63.74,49.12-99.36,88.86-65.62,81.74-70.87,90.74S240.08,203.09,240.08,203.09Z"/><path class="spring-onioncls-3" d="M184.58,267.59s14.25-38.62,11.25-94.12-23.24-108-21.74-108.74S224,46,228.45,48.24,248.33,79.36,254,142s-3,109.11-12.75,137.61-16.12,38.62-16.12,38.62a110,110,0,0,1-25.5-24A123.78,123.78,0,0,1,184.58,267.59Z"/><path class="spring-onioncls-2" d="M226.94,49.12c17.79,41.76,24.1,88.06,24.27,133.18a295.6,295.6,0,0,1-9,72.82c-5.74,22.9-15.3,44.47-21.78,67.1-1,3.41,4.45,5.93,5.91,2.49,19.38-45.8,32.21-94.29,32.41-144.23.18-45.07-6-93.62-28.81-133.13-1.16-2-3.89-.24-3,1.77Z"/><path class="spring-onioncls-2" d="M256.61,179C271.86,156,287.9,133.68,307,113.61c18.68-19.59,40.28-35,60.82-52.46,2.51-2.13-.74-6.26-3.5-4.54-23.11,14.45-44.22,34-63.35,53.24C281.6,129.38,264,151.48,253.11,177c-1,2.35,2,4.28,3.5,2.05Z"/><path class="spring-onioncls-4" d="M205.64,117.84c7.38,25.85,11.07,52.4,12.57,79.21,1.45,26-2.1,51.21-4.5,77-.17,1.77,2.56,2,3,.41,7.18-25.36,7.59-53,6.44-79.2-1.17-26.61-6.8-52.81-14.6-78.21-.57-1.87-3.47-1.09-2.93.8Z"/><path class="spring-onioncls-4" d="M240,208.58a42.32,42.32,0,0,0-.25-14c-.33-1.69-2.71-1.14-2.83.39-.34,4.32-.59,8.71-1.21,13a2.17,2.17,0,1,0,4.29.58Z"/><path class="spring-onioncls-4" d="M267.4,131.46c3.92-15.67,8.4-31.26,13.58-46.57S293.4,55,298.58,39.75c.58-1.72-2-2.74-2.88-1.22-7.81,13.37-12.92,29-18,43.59a427.24,427.24,0,0,0-13.78,48.37c-.51,2.28,2.94,3.26,3.51,1Z"/><path class="spring-onioncls-4" d="M273,197.26c23.46-36.36,54-63.81,88.52-89.3,1.7-1.25.25-3.94-1.68-2.88-37.41,20.42-67.92,54.38-90,90.34-1.24,2,1.88,3.8,3.14,1.84Z"/><path class="spring-onioncls-4" d="M322.43,158.09c5.24-4.15,10.61-8.4,14.88-13.57a1.54,1.54,0,0,0-2.18-2.18c-5.27,4.16-10.05,8.94-15.23,13.22-1.78,1.48.76,3.93,2.53,2.53Z"/><path class="spring-onioncls-2" d="M126.56,443c-6.18,2.81-10.77,9.19-16.77,12.67-5.61,3.26-13,5-16.15,11.09a3.65,3.65,0,0,0,4.08,5.3,70.58,70.58,0,0,0,20.66-9.73c5.36-3.64,12.13-8.43,13.87-14.95.94-3.52-2.72-5.72-5.69-4.38Z"/><path class="spring-onioncls-2" d="M135.34,456.08c-7.66,12.07-12.88,31.32-4.92,44.55,1.43,2.38,6.05,2.34,6.52-.86,1-6.48,0-13,.92-19.6a89.94,89.94,0,0,1,5.46-20.72c1.89-4.76-5.44-7.36-8-3.37Z"/><path class="spring-onioncls-2" d="M151.76,459.09a41.22,41.22,0,0,0,1,13.82,21.36,21.36,0,0,0,6.86,11.17,3.53,3.53,0,0,0,5.84-3.4c-.74-3.66-1.51-7-2.56-10.57a49.9,49.9,0,0,1-2-11,4.56,4.56,0,0,0-9.11,0Z"/><path class="spring-onioncls-2" d="M114.1,376.16c-3.38,10-4.28,21.75,1.38,31.1.75,1.24,3.18.85,3-.81-1.24-10-2.8-19.2-.43-29.21a2,2,0,0,0-3.92-1.08Z"/><path class="spring-onioncls-2" d="M122.31,417.12c1.59,1.76,3.19,4,5.41,4.92,1.27.55,3.06-.37,2.54-2-.81-2.5-2.91-4.39-4.65-6.27a2.33,2.33,0,0,0-3.3,3.3Z"/></g></g></svg>