<svg xmlns="http://www.w3.org/2000/svg" viewBox="0 0 512 512"><defs><style>.staranisecls-1{fill:none;}.staranisecls-2{fill:#b3644c;}.staranisecls-3{fill:#4a2d2d;}.staranisecls-4{fill:#fff;}</style></defs><g id="Capa_2" data-name="Capa 2"><g id="bocetos"><rect class="staranisecls-1" width="512" height="512"/><path class="staranisecls-2" d="M439.85,322c-1.42-6.18-6.18-12.73-9.44-18.11-4.13-6.81-9.54-11.94-15.08-17.68-9.69-10.05-14.65-14.7-27.91-19.06-2.54-.84-79.09-11.57-81.67-12.25,9.87-.68,61.59,1.36,80.31-6.81,26.37-11.51,35.18-39.09,48.18-63.32,1.61-3,1-7.79-2.45-9.35-24.16-10.91-51.18-11.42-76.7-1.86C344.2,177.61,299,219.4,295.2,221.85c.92-2.22,40.18-42.78,45.26-53.09,6.9-14,6.81-30.59,4.73-45.95a222.25,222.25,0,0,0-4.86-24.38c-1.42-5.71-2.39-14.33-7.2-18.46-8.73-7.49-25,2.47-33.19,8.86-12.29,9.59-24.93,21.51-32.87,35.8-5.34,9.62-10.44,57-11.57,70.33-2.47-6.39-7.72-53.76-15.79-65.9-12.81-19.24-32.94-30.74-54.85-37.16A4.58,4.58,0,0,0,179.75,94c-9.89,20-18.9,45.33-12.73,67.19,3.5,12.42,35.39,32.67,48.55,52.63-.3-.11-36.53-29.94-51.73-36.75-28-12.52-58.82-6.13-86.68,3.56a4.77,4.77,0,0,0-2.82,6.92c9.14,15.91,19.28,36.35,33.24,48.28s57.17,15.2,87.34,15.66c-74,6.8-103.14,49.93-114,75.07-1,2.42-.92,5.87,1.89,7.19,23.72,11.19,52,15.45,77.19,6.21,13.62-5,43.06-33.67,55.59-45.6-1.19,2.23-34.17,41.18-41.29,54.91-9.31,17.92-12,35.89-6.9,51.79,2.82,8.84,9.43,33.25,21.14,33,5.48-.14,12.35-4.94,17.32-7.32a131.82,131.82,0,0,0,20.75-12.17c12.16-8.86,18.13-16.39,21.87-31,4.54-17.69,5.42-76.35,5.67-77.13.34,2.48,5.08,73.08,5.45,75.55,2.14,14.27,7.19,30.81,19.51,39.47,13.51,9.49,24.83,11.17,40.72,13.39,4.91.69,8,1.27,11.58-2.21,1.47-1.44,4.14-9.23,4.16-9.28,2-4.59,4-9.2,6.16-13.7,6.56-13.48,9.84-27.68,5.9-42.87-4.77-18.38-53.56-71.54-57.18-77.14,4.38,2.33,63.08,62.62,67.84,63.94,17.08,4.72,31.44-1.58,46.9-8.47,9.45-4.21,20.82-7.56,29.51-13.14C438.61,329.38,441,326.93,439.85,322Z"/><path class="staranisecls-3" d="M278.89,240.59c-4.3-9.47-13.41-16.43-25.68-14.21-14.28,2.6-23.29,18.94-20.53,32.77,2.93,14.68,20.93,21.9,34.11,16.81C281.83,270.14,284.58,253.16,278.89,240.59ZM266,264.94c-8.91,5.08-23.55,1.23-26.22-9.7-2.19-8.92,6.68-17.71,14.94-19.3C270.36,232.92,280.25,256.81,266,264.94Z"/><path class="staranisecls-3" d="M319.84,127c-10-17.27-30.17-4.57-36.25,8.76-5,11-6.59,23.6-8.13,35.44-2.06,16-4.22,31.83-6.58,47.74-.6,4,3.64,5.14,6.27,2,17.78-21.41,26.69-34.17,36.61-51.58C318.94,156.73,328.23,141.45,319.84,127Zm-4.2,19.65c-3.13,11.48-10.8,22.75-16.93,32.78s-13.37,19.18-20.53,28.4c2.76-15.43,3.31-31.38,6-46.75,1.7-9.56,3.2-22.2,10-29.72,5-5.62,14.45-7.54,19.52-.77C316.85,134.81,317,141.81,315.64,146.64Z"/><path class="staranisecls-3" d="M391,212c5.61-19.16-17.47-25-31.32-20.24-11.4,3.94-21.65,11.49-31.29,18.53-13,9.5-26,18.87-39.14,28.12-3.32,2.33-1.21,6.18,2.89,5.91,27.76-1.86,43.15-4.2,62.61-9C368.8,231.8,386.28,228,391,212Zm-17.14,10.5c-10.48,5.64-23.93,7.84-35.42,10.31s-23.11,3.52-34.73,4.69c13.09-8.63,25-19.22,38-27.84,8.1-5.35,18.29-13,28.39-13.27,7.55-.22,15.42,5.28,14,13.63C383.25,215.18,378.26,220.08,373.84,222.46Z"/><path class="staranisecls-3" d="M376.61,322.64c17.86-8.91,6.47-29.82-6.45-36.73-10.63-5.68-23.14-8.07-34.86-10.35-15.79-3.08-31.5-6.24-47.22-9.6-4-.85-5.37,3.32-2.37,6.14,20.23,19.1,32.41,28.8,49.15,39.8C347,319.86,361.64,330.1,376.61,322.64Zm-19.35-5.43c-11.26-3.86-22-12.22-31.64-19S307.33,283.67,298.57,276c15.23,3.73,31.11,5.29,46.27,9,9.44,2.29,22,4.59,29,11.8,5.29,5.39,6.61,14.9-.47,19.54C369,319.16,362,318.83,357.26,317.21Z"/><path class="staranisecls-3" d="M294.73,388.39c19.08,5.84,25.22-17.16,20.62-31.07-3.8-11.45-11.22-21.79-18.14-31.52-9.33-13.1-18.59-26-27.34-39.45-2.2-3.41-6.13-1.45-6,2.66.82,27.82,3.44,43.33,8,62.84C275.16,366,278.74,383.49,294.73,388.39Zm-10.29-17.27c-5.51-10.55-7.54-24-9.87-35.54a256.36,256.36,0,0,1-4.33-34.75c8.13,13.4,19,25.22,27.43,38.34,5.26,8.16,12.76,18.45,12.92,28.55.13,7.55-5.46,15.36-13.79,13.84C291.6,380.62,286.76,375.57,284.44,371.12Z"/><path class="staranisecls-3" d="M121,299.61c-5.39,19.22,17.75,24.81,31.55,19.88,11.35-4.06,21.51-11.72,31.08-18.88,12.88-9.64,25.77-19.16,38.82-28.55,3.29-2.37,1.14-6.2-3-5.88-27.74,2.17-43.1,4.68-62.5,9.71C142.92,279.52,125.49,283.51,121,299.61Zm17-10.69c10.42-5.76,23.84-8.11,35.3-10.71s23.08-3.78,34.68-5.08c-13,8.77-24.81,19.5-37.72,28.26-8,5.45-18.15,13.19-28.25,13.59-7.54.3-15.48-5.1-14.16-13.46C128.67,296.3,133.6,291.34,138,288.92Z"/><path class="staranisecls-3" d="M192,385.93c10.19,17.17,30.21,4.27,36.16-9.11,4.89-11,6.36-23.67,7.78-35.53,1.91-16,3.91-31.87,6.12-47.8.55-4-3.7-5.1-6.3-1.91-17.56,21.58-26.35,34.43-36.1,51.93C192.59,356.18,183.45,371.55,192,385.93Zm4-19.7c3-11.5,10.57-22.84,16.6-32.94s13.19-19.3,20.25-28.6c-2.61,15.46-3,31.42-5.57,46.81-1.6,9.57-3,22.23-9.65,29.82-5,5.66-14.37,7.68-19.52,1C194.89,378.08,194.71,371.09,196,366.23Z"/><path class="staranisecls-3" d="M124.55,194.06c-16.82,10.75-3.27,30.33,10.3,35.83,11.18,4.53,23.87,5.58,35.77,6.61,16,1.38,32,2.85,48,4.53,4,.43,5-3.86,1.71-6.35-22.15-16.85-35.28-25.2-53.1-34.37C154.3,193.68,138.64,185.05,124.55,194.06Zm19.82,3.35c11.6,2.64,23.18,9.82,33.47,15.51s19.73,12.54,29.25,19.29c-15.53-2.1-31.49-2-47-4-9.62-1.28-22.32-2.24-30.12-8.66-5.83-4.79-8.15-14.11-1.6-19.47C132.5,196.71,139.48,196.3,144.37,197.41Z"/><path class="staranisecls-3" d="M201,120.67c-19.63-3.66-23.13,19.89-17,33.19,5.06,10.95,13.6,20.39,21.58,29.28,10.75,12,21.39,24,31.91,36.11,2.65,3.07,6.28.59,5.59-3.47-4.64-27.44-8.51-42.51-15.25-61.38C223,140.74,217.45,123.73,201,120.67Zm12.17,16c6.66,9.86,10.2,23,13.82,34.21s5.82,22.64,8.15,34.08c-9.9-12.15-21.64-23-31.52-35-6.14-7.51-14.75-16.9-16.06-26.91-1-7.49,3.7-15.88,12.15-15.31C205,128,210.37,132.51,213.18,136.66Z"/><path class="staranisecls-4" d="M248.75,250.56a3.11,3.11,0,0,1,.11.41l-.18-1.35a2.62,2.62,0,0,1,0,.56l.18-1.36a12.85,12.85,0,0,0-.2,1.5,5.38,5.38,0,0,0,.46,2.09,10.07,10.07,0,0,0,.46.93l-.47-1.11a1.31,1.31,0,0,1,.09.28l-.15-1.15a6.1,6.1,0,0,0,.38,1.86,4,4,0,0,0,2.67,2.35,5.86,5.86,0,0,0,3.94-.61,5.3,5.3,0,0,0,2.84-4.71,7.75,7.75,0,0,0-.94-3.56,5.11,5.11,0,0,0-3-2.32,5.27,5.27,0,0,0-3.28.26,4.76,4.76,0,0,0-2.41,2.06,5,5,0,0,0-.5,3.87Z"/><path class="staranisecls-4" d="M190.87,140.45l1.61,4.24c.72,1.89,2.65,3.39,4.77,2.7,1.82-.58,3.51-2.75,2.71-4.76l-1.69-4.22c-.74-1.86-2.59-3.37-4.72-2.68-1.82.59-3.44,2.71-2.68,4.72Z"/><path class="staranisecls-4" d="M204.68,161.57c5.19,0,5.2-8.08,0-8.08s-5.21,8.08,0,8.08Z"/><path class="staranisecls-4" d="M294.52,150.72c5.24,0,5.25-8.16,0-8.16s-5.26,8.16,0,8.16Z"/><path class="staranisecls-4" d="M138,214l.86.41a7.93,7.93,0,0,0,1.76.74l1.14.15a3.19,3.19,0,0,0,1.64-.37,4.09,4.09,0,0,0,2-1.75A5.08,5.08,0,0,0,146,211a4.28,4.28,0,0,0-1.25-3,10.46,10.46,0,0,0-2.38-1.52,4.62,4.62,0,0,0-3.36-.44,4.36,4.36,0,0,0-3,5.36,4.29,4.29,0,0,0,2,2.6Z"/><path class="staranisecls-4" d="M146.4,295.51l.33-1.07a3,3,0,0,0-3.64-3.64l-1.07.33a3.56,3.56,0,0,0-1.57,5.95,3.6,3.6,0,0,0,3.46.91,3.63,3.63,0,0,0,2.49-2.48Z"/><path class="staranisecls-4" d="M345.55,221.27l.81-.91c.16-.18.3-.36.45-.56a3.82,3.82,0,0,0,.79-1.89,2.62,2.62,0,0,0,0-1.15,3.51,3.51,0,0,0-.49-1.48l.52,1.89v-.1l-.13,1,.14-.6a3.28,3.28,0,0,0-4-4l-.61.14,1-.13h-.11l1.9.51a6.3,6.3,0,0,0-1-.41,4.34,4.34,0,0,0-1.14-.14,4.25,4.25,0,0,0-2,.54,5.57,5.57,0,0,0-1,.77l-.9.81a4.11,4.11,0,0,0-1.2,2.88,4.17,4.17,0,0,0,1.2,2.89,4.08,4.08,0,0,0,2.88,1.19,4.12,4.12,0,0,0,2.88-1.19Z"/><path class="staranisecls-4" d="M360.74,209.59a12.59,12.59,0,0,0,2.3-1.73,3.36,3.36,0,0,0,.51-4,3.87,3.87,0,0,0-1.18-1.17,3.63,3.63,0,0,0-2.52-.33,4.61,4.61,0,0,0-1,.2l-.93.36a3.65,3.65,0,0,0-1.61.94l-.56.73a3.65,3.65,0,0,0,5,5Z"/><path class="staranisecls-4" d="M329.1,290.23l.4.29a3.13,3.13,0,0,0,2.86.38h-1.57l.18.05a2.84,2.84,0,0,0,3.49-3.5l0-.18v1.57A3.14,3.14,0,0,0,334,286l-.28-.39a3.4,3.4,0,0,0-1.22-1.22,3.33,3.33,0,0,0-1.71-.47,3.59,3.59,0,0,0-2.41,1,3.75,3.75,0,0,0-1,2.4,3.35,3.35,0,0,0,1.68,2.93Z"/><path class="staranisecls-4" d="M278.11,331.88a13.8,13.8,0,0,0,1,2.39,3.18,3.18,0,0,0,5.45,0,13,13,0,0,0,1-2.39,3.84,3.84,0,1,0-7.4,0Z"/><path class="staranisecls-4" d="M207.66,376.4a12.28,12.28,0,0,0,.44-2.61,5.28,5.28,0,0,0-1.51-3.8l1,1.76-.15-.52a3.8,3.8,0,0,0-2.68-2.68,4.68,4.68,0,0,0-2,0,3.8,3.8,0,0,0-2.68,2.68l-.15.52,1-1.76a5.3,5.3,0,0,0-1.51,3.8,12.28,12.28,0,0,0,.44,2.61,4,4,0,0,0,7.78,0Z"/><path class="staranisecls-4" d="M210.88,358.4l0-.08.3.7a2.5,2.5,0,0,1-.07-.26l.1.78a2.29,2.29,0,0,1,0-.37l-.1.77a2,2,0,0,1,.09-.35l-.29.68a1.6,1.6,0,0,1,.23-.4l-.44.57a3,3,0,0,1,.44-.43l.41-.54.27-.63a2.68,2.68,0,0,0-.14-1.72,2.65,2.65,0,0,0-2.41-1.62,3.77,3.77,0,0,0-3.24,1.86,4.39,4.39,0,0,0-.52,3.32,2.91,2.91,0,0,0,1.36,1.77A3,3,0,0,0,211,361a2.22,2.22,0,0,0,.25-1.14,3,3,0,0,0-.4-1.49Z"/></g></g></svg>