<svg xmlns="http://www.w3.org/2000/svg" viewBox="0 0 512 512"><defs><style>.star-applecls-1{fill:#fdca2a;}.star-applecls-2{fill:#4a2d2d;}.star-applecls-3{fill:#fedd75;}.star-applecls-4{fill:#fff;}.star-applecls-5{fill:none;}</style></defs><g id="Capa_2" data-name="Capa 2"><g id="bocetos"><path class="star-applecls-1" d="M261.38,95.57C240.05,70.24,209,50.1,178.73,36.74a3.07,3.07,0,0,0-2.95-.34C143.34,49,114,70,88.39,93.25c-26.68,24.27-46,53.5-53.35,89.2-14.14,69,12.66,140.92,61.72,190.07,26.75,26.8,64.14,49.14,99.71,62.08.13,0,.24,0,.36.08l.13,0a3.4,3.4,0,0,0,.53.08,4.36,4.36,0,0,0,1.85-.24c14-5,26.24-17.35,35.89-28.35,10.28-11.71,19.08-24.76,27.15-38.06,17.34-28.6,33.83-58.63,41.41-91.46C318.42,213.31,303.35,145.41,261.38,95.57Z"/><path class="star-applecls-2" d="M161.65,380.28A239.87,239.87,0,0,1,144.13,351a292,292,0,0,1-23.54-66c-6.11-26.35-5.49-52.19-3.62-79,1.86-26.43,5.18-52.85,13.39-78.15,8.35-25.73,21.58-49.72,40.79-68.94,2.12-2.12-1.16-5.41-3.29-3.29-36.09,35.82-49.8,86.1-55.33,135.29-3,27-6.08,55.14-1.32,82.14a296,296,0,0,0,22.57,71.85,247,247,0,0,0,19.92,35.54c7.28,10.73,15.3,22.2,25.69,30.08,2,1.49,4.76-1.42,3.38-3.38C176.23,397.77,168.2,389.63,161.65,380.28Z"/><path class="star-applecls-2" d="M228.25,143.06c-8.51-29.78-23.46-56-40.12-81.86-1.67-2.6-5.68-.29-4.15,2.43,15,26.73,29,53.24,37.16,83a476.86,476.86,0,0,1,15.67,86.52c2.33,29-1.78,58.14-9.28,86.1-7.67,28.55-20.14,55.12-30.27,82.77-1,2.88,3.59,4.84,5,2.09,13.2-26.34,23.18-54.92,31.15-83.25,8.14-29,12.81-59,10.69-89.15A439,439,0,0,0,228.25,143.06Z"/><path class="star-applecls-3" d="M453.14,303.11c-6.31-3.26-14-3.77-20.84-4.94-10.09-1.72-20.13-3.44-30-6.06-8.52-2.25-21.37-3.2-27.93-9.53-6.25-6-9.07-15.66-11.32-23.75-2.41-8.69-4.33-17.47-6.81-26.12-2.26-7.85-3.44-16.07-7.62-23.26-4.56-7.81-13.17-6.22-18.16.16-4.87,6.22-7.36,13.84-11.35,20.58q-6.92,11.7-13.87,23.37c-4.73,7.92-9.1,17-14.76,24.26-3.23,4.14-4.29,4.38-9.36,3.39-4.43-.87-8.86-1.72-13.28-2.64-15.11-3.14-30.67-8.35-46.25-8.32-11.35,0-17.64,7.72-11.84,18.18,7,12.65,17.81,23.56,28.15,33.47,5.37,5.16,11.06,10,16.28,15.31,2.43,2.48,5.87,5.33,7.72,8.31,3.44,5.57-.89,10.08-3.61,14.85-8.81,15.47-16,31.89-22.9,48.26-3.22,7.6-12.77,24.84,2.14,26.29,7.06.69,14.82-3.37,21.24-5.73,8.45-3.1,16.82-6.44,25.27-9.53a253.91,253.91,0,0,1,25.67-8.25c10-2.51,17.88-1.59,26.46,4.13,14.63,9.75,28.35,20.92,43,30.69,4.81,3.21,11.36,9.46,17.6,8.85,6.66-.65,7.53-7,7.57-12.43.15-17.09-4.74-34.2-7.58-50.94-1-6-5.13-19.62-1.2-25.07,2.24-3.1,7.77-6,10.88-8.41,3.32-2.53,6.6-5,9.71-7.78,10.81-9.68,23-17.77,33.84-27.39C456.41,317.34,463.82,308.63,453.14,303.11Z"/><path class="star-applecls-2" d="M331.26,314.22c4.08-7.27,18-29.62,2.2-33.36s-8.74,25.93-5.74,32.75C328.54,315.48,330.09,316.3,331.26,314.22Z"/><path class="star-applecls-2" d="M313.54,326c-5.2-6.77-10.72-12.16-18.46-16-4.52-2.25-12.45-6.28-16.51-1.09-4.58,5.87,2,12,6.53,15,7.75,5.13,17.24,8.12,26.53,7,2.16-.26,3.41-3.21,2.08-4.57A1.26,1.26,0,0,0,313.54,326Z"/><path class="star-applecls-2" d="M302.75,346.29c-5.85,3.2-11.1,7-14.54,12.76-2.77,4.64-5.71,12.07-.56,16.23,11.6,9.35,19-19.52,19.6-26C307.57,345.52,304.81,345.16,302.75,346.29Z"/><path class="star-applecls-2" d="M332.52,348.54a2.55,2.55,0,0,0-3.7,2.6l-.2,1.25c-.94,6.52-.6,12,3.23,17.44,2.73,3.86,8.31,9.49,13.66,8.21C359.15,374.8,338.09,350.94,332.52,348.54Z"/><path class="star-applecls-2" d="M374.86,323.89c-2.76-14.14-29.11.63-37.2,6.7-2.19.6-2.48,4.61.12,5.05C345.1,336.89,377.64,338.14,374.86,323.89Z"/><path class="star-applecls-2" d="M315.73,229.74c-5.44,9.49-11,18.94-17.15,28-3.59,5.23-6.86,11-10.81,15.92-6.77,8.48-16.81,3-25.73.71-13.71-3.48-59.65-17.91-54.77,12,1.77,10.83,11.91,20.43,18.88,28.25,8.56,9.61,17.61,18.77,26.06,28.49,3.87,4.46,4.91,7.53,3.51,13.62-.93,4.07-3.26,8.13-4.95,11.95-2.74,6.21-5.52,12.4-8.21,18.64-5.42,12.57-10.34,25.28-14.91,38.18-1.15,3.24,4.26,5.59,5.63,2.37,5.56-13.14,12-25.91,17.84-38.93q3.8-8.46,7.27-17c2.34-5.76,5.82-12,7.21-18.1,2.41-10.51-9.68-20.72-16.08-27.43-8.87-9.3-18.84-17.54-26.88-27.63-4.76-6-14.38-19.35-1.45-23.19,7.32-2.17,16.6,1.12,24,2.5,7.55,1.41,15.13,2.74,22.66,4.24,5,1,11.91,4.18,17.08,2.55,3.82-1.2,5.79-5.17,7.79-8.28,3.48-5.38,6.9-10.79,10.37-16.18,5.93-9.23,12.51-18,17.41-27.82,1.55-3.12-3-5.84-4.73-2.76Z"/><path class="star-applecls-4" d="M125.63,77.13a163.87,163.87,0,0,0-40.07,38A158.36,158.36,0,0,0,71,138.6c-4,7.92-9,17.3-8,26.41.35,3.11,4.18,5.51,6.7,2.77,5.6-6.06,8-14.41,11.53-21.72a169.9,169.9,0,0,1,50.12-61.49c4.23-3.27-1.3-10.45-5.75-7.44Z"/><path class="star-applecls-4" d="M55.38,190.82c0,4.93-1,11.33,1.13,15.87,1.17,2.55,5.56,2.55,6.72,0,2.08-4.54,1.1-10.94,1.13-15.87,0-5.78-9-5.79-9,0Z"/><path class="star-applecls-4" d="M168.07,76.65c-1.63,3.53-4.2,7.49-4.44,11.42-.17,2.87,3.52,4,5.42,2.24,2.61-2.43,3.95-6.72,5.47-9.89a3.83,3.83,0,0,0-1.34-5.11c-1.61-.94-4.26-.5-5.11,1.34Z"/><path class="star-applecls-4" d="M152.06,115.55l.38.85a3.19,3.19,0,0,0,1.11,1.11,3.07,3.07,0,0,0,3.1,0,3.19,3.19,0,0,0,1.11-1.11l.38-.85a3.44,3.44,0,0,0,.48-1.77,3.47,3.47,0,0,0-.48-1.78,3.53,3.53,0,0,0-6.08,0,3.68,3.68,0,0,0-.48,1.78,3.64,3.64,0,0,0,.48,1.77Z"/><path class="star-applecls-4" d="M233.37,99.71a185.5,185.5,0,0,1,21,27.2c5.82,9.18,10.09,19.54,16.43,28.33a4,4,0,0,0,7.28-3.08c-2.21-11.23-9.32-22.2-15.92-31.38a185.45,185.45,0,0,0-23.34-26.49c-3.59-3.39-8.78,1.81-5.42,5.42Z"/><path class="star-applecls-4" d="M281.36,187.19c5,0,5-7.72,0-7.72s-5,7.72,0,7.72Z"/><path class="star-applecls-4" d="M334.55,232.07l-.53,1.86a6,6,0,0,0,1.55,5.87l.16.14L334.1,236l0,.46a6.64,6.64,0,0,0,.73,2.72,5.48,5.48,0,0,0,8.46,1.09l.3-.32-3.95,1.64.15,0,1.6-.21a4.56,4.56,0,0,0,2.05-1.08,6.5,6.5,0,0,0,2.16-3.13l.7-1.81a6.18,6.18,0,0,0-.61-4.72,6.14,6.14,0,0,0-8.38-2.2,6.48,6.48,0,0,0-2.81,3.66Z"/><path class="star-applecls-4" d="M346.63,265.8c7,0,7-10.86,0-10.86s-7,10.86,0,10.86Z"/><path class="star-applecls-4" d="M267.65,332.86l.21-.16-2.81.37.44.09a3.36,3.36,0,0,0,3.27-.87,3.36,3.36,0,0,0,.86-3.27l-.09-.43-.36,2.81a1.82,1.82,0,0,0,.38-.76,3.39,3.39,0,0,0,.4-1.79,5.2,5.2,0,0,0-1.36-3.29l-.94-.73a5.15,5.15,0,0,0-3.58-.46,5.15,5.15,0,0,0-2.77,2.13l-.47,1.11a3.53,3.53,0,0,0-.08,1.85,3.37,3.37,0,0,0,.55,1.73l.72.94a4.74,4.74,0,0,0,2.05,1.2l1.24.16a4.56,4.56,0,0,0,2.34-.63Z"/><path class="star-applecls-4" d="M312.39,394.7a4.38,4.38,0,0,0,2.28-.52,4.33,4.33,0,0,0,1.91-1.22,6.58,6.58,0,0,0,1.74-4.2l-.21-1.57a5.85,5.85,0,0,0-1.53-2.62l-1.2-.93a6,6,0,0,0-3-.81,6.1,6.1,0,0,0-5.93,5.93l.21,1.58a5.93,5.93,0,0,0,1.52,2.62l1.2.93a6.08,6.08,0,0,0,3,.81Z"/><path class="star-applecls-4" d="M344.49,404.27c3.43,0,3.44-5.34,0-5.34s-3.45,5.34,0,5.34Z"/><rect class="star-applecls-5" width="512" height="512"/></g></g></svg>