<svg xmlns="http://www.w3.org/2000/svg" viewBox="0 0 512 512"><defs><style>.strawberrycls-1{fill:none;}.strawberrycls-2{fill:#f1475d;}.strawberrycls-3{fill:#4a2d2d;}.strawberrycls-4{fill:#fff;}</style></defs><g id="Capa_2" data-name="Capa 2"><g id="bocetos"><rect class="strawberrycls-1" width="512" height="512"/><path class="strawberrycls-2" d="M338,166.09c-8.58-2.5-18.6-3.52-28.73-3.67a12.55,12.55,0,0,1-2.18,1.93,19.07,19.07,0,0,1-6.17,2.72c-3.43.91-7.18,1.09-10.59,2.19A67.06,67.06,0,0,0,301,193.93c2.8,4,6.45,7.1,10.12,10.28a48.73,48.73,0,0,0,11.68,8c2.85,1.29,1.52,6.47-1.64,6.06-3.64-.48-7.35.15-11,.07a58.87,58.87,0,0,1-10.33-1.15A47.05,47.05,0,0,1,281,209.36c-10-7.37-14.86-18.73-21.72-28.66a39,39,0,0,0-6.12,3.12c-5.94,4.09-13.78,13.07-20.26,16.29a72.8,72.8,0,0,1-21,7c-8.17,1.29-16.26.69-24.48.94-7.22.21-14.75.75-21.59-2a3.08,3.08,0,0,1-.72-5.54,92.69,92.69,0,0,0,8.16-7.18,90.87,90.87,0,0,1,8.76-7.16A65.14,65.14,0,0,1,199.65,177a79,79,0,0,1,9.87-2.77,67,67,0,0,1,10.86-1c3.53-.09,7-.32,10.56-.49a37.88,37.88,0,0,0,9.32-1.07,5.46,5.46,0,0,0,.85-.35,11.27,11.27,0,0,1-3.17-4.48,1.81,1.81,0,0,1-.09-.37c-20-3.1-60.06-6.09-82.78,14.11-31.18,27.72-33.26,108.79,25.64,178.78,57.13,67.88,80.38,65.14,110.18,47.12s74.84-90.77,82.46-157.3C379.39,196.47,371.27,175.79,338,166.09Z"/><path class="strawberrycls-3" d="M208.83,263.08a2.27,2.27,0,0,0-4.08.47c-.82,2.7-8,29.83,2.28,25.41,3.61-1.56,4.6-7.14,4.94-10.53.51-4.92.9-11.59-3-15.27A.91.91,0,0,0,208.83,263.08ZM207,283.28c-.32.64-.84,1-1.5.36s-.6-2-.65-2.68c-.1-1.64.73-4.55,1.15-6.24.48-1.88,1-3.76,1.62-5.63a29.3,29.3,0,0,1,.32,5,42.51,42.51,0,0,1-.66,8.35A3.78,3.78,0,0,1,207,283.28Z"/><path class="strawberrycls-3" d="M259.41,276.48c5.17,3.36,8.67-3,9.31-7.25.77-5.12-.53-12.83-5.12-16-5.07-3.51-7.63,3.72-8.1,7.63C254.91,265.7,254.71,273.42,259.41,276.48Zm1.65-19.31c.62.15,1.32,1.73,1.7,2.52a15.13,15.13,0,0,1,1.29,8.59c-.09.65-.31,3.3-1,3.66-4.07,2-3.14-12.12-2.78-13.63C260.46,257.38,260.75,257.1,261.06,257.17Z"/><path class="strawberrycls-3" d="M317,252.65a4.33,4.33,0,0,0-1.64,1c-2,2-1.08,6.26-.63,8.7a26.73,26.73,0,0,0,3.69,9.25c2.18,3.46,6.05,6.66,9.47,2.45,2.71-3.35,1.53-9,.27-12.68a18.22,18.22,0,0,0-4.32-7.53,5.56,5.56,0,0,0-3.66-1.66A9.8,9.8,0,0,0,317,252.65Zm5.56,17.22c-1.54-1.24-2.3-5-2.72-6.91a42.7,42.7,0,0,1-.78-6.3c2.6.35,4.47,5.28,5.06,7.1C324.51,265.1,325.86,272.55,322.52,269.87Z"/><path class="strawberrycls-3" d="M279.65,308.57a6.61,6.61,0,0,0-2.93,5.32c-.17,4.33.14,9.38,2.63,13.07,1.78,2.63,6.31,6.09,8.31,2,2.24-4.63,2-11.29-.05-15.88a10.32,10.32,0,0,0-3.14-4A4.15,4.15,0,0,0,279.65,308.57ZM285,326.19c-.13-.11-.31-.24-.54-.4a7.47,7.47,0,0,1-1.28-1.68,12.29,12.29,0,0,1-1.43-3.5,26.82,26.82,0,0,1-.44-7.86c2,.54,2.69,3.27,3.23,5.23S285.61,324.47,285,326.19Z"/><path class="strawberrycls-3" d="M230.59,321.66a23.17,23.17,0,0,0,.16,7,12.81,12.81,0,0,0,1.08,3.57c.23.48,1.37,2.91,2,2.91,2.84,3,7.23,2.37,7.91-2,.71-4.52-.23-11.93-3.72-15.26a4.08,4.08,0,0,0-4.79-.67A5.84,5.84,0,0,0,230.59,321.66Zm6.87,11.11c-.56.78-2.44-3.45-2.66-4.21a10.69,10.69,0,0,1,.13-6.06A1.65,1.65,0,0,0,235,322a1.86,1.86,0,0,0,.13-.46,27.54,27.54,0,0,0,1.22,2.78c.23.7.4,1.42.56,2.14C237.19,327.67,238.27,331.62,237.46,332.77Z"/><path class="strawberrycls-3" d="M257.64,362.52a10.27,10.27,0,0,0-1.37,5.14c-.16,4.17.62,8.53,3.11,12,2.65,3.67,8.08,5.56,10.83.89s-.11-10.08-2.69-14c-1.35-2.06-3.35-4.31-5.72-5.17A3.23,3.23,0,0,0,257.64,362.52Zm9,14c0,.14,0,.28,0,.42a1,1,0,0,1-.11.5c-.65,1-2.6-.83-3-1.31a7.46,7.46,0,0,1-1.52-3.64,28.5,28.5,0,0,1-.31-3.58c0-.4.21-2.93-.07-3.14,1.69,1.21,2.92,3.61,3.77,5.45A12.85,12.85,0,0,1,266.63,376.56Z"/><path class="strawberrycls-3" d="M176.37,237.07a3.77,3.77,0,0,0-3.79-2.23,5.94,5.94,0,0,0-4.42,2.37c-2.07,2.58-2.72,6.73-3.06,9.62-.27,2.31-.35,5,1,7,2.37,3.72,6.68,1.47,8.24-1.64C176.14,248.5,178.14,241.1,176.37,237.07Zm-3.58,8.4c-.25,1.07-.49,2.14-.7,3.22a6.94,6.94,0,0,1-.54,1.87,1.78,1.78,0,0,1-3.42-.66,5.81,5.81,0,0,1,.15-1.76l1.11-5.92c.37-1.94,1.71-6.17,4.1-3.53,1.06,1.16.33,2.87,0,4.18C173.22,243.74,173,244.6,172.79,245.47Z"/><path class="strawberrycls-3" d="M239.31,225.26c.87-3.28,2.67-10.53-2.41-11.42s-7.73,5.56-8.68,9.36c-.78,3.12-2.13,9.4,2.16,10.65C235.16,235.23,238.34,228.88,239.31,225.26Zm-7-.79c.88-2.33,2.38-6.37,3.61-6.25.57.06-.59,5.37-.73,5.91a12.77,12.77,0,0,1-1.1,3c-.14.26-2,3.08-2.09,3.07C231.45,230.15,231.84,227.13,232.31,224.47Z"/><path class="strawberrycls-3" d="M182.12,306.12c-3.69,2.23-1.77,9.55.14,12.24a1.81,1.81,0,0,0,3.3-1.39c-.37-1.6-1.2-3.48-1.08-5.14.19-2.84,1.68.86,2.05,1.94.57,1.7,1.44,6.14.54,8.48-.39-.43-.77-.95-1-1.18-.93-1-2.8.36-2,1.52,1.68,2.31,4.19,5.45,6.17,1.28,1.9-4,1.22-9.32-.53-13.24C188.53,307.82,185.64,304,182.12,306.12Z"/><path class="strawberrycls-3" d="M319.69,299.56c-2.72-.17-4.5,2.94-5.43,5.05-1.19,2.71-1.9,6.09-.61,8.89s4.27,2.89,6.47,1.18a10.23,10.23,0,0,0,3.49-8.08,10.55,10.55,0,0,0-1.65-5.46A3.09,3.09,0,0,0,319.69,299.56Zm-1.2,11c-.09.17-.73,1.42-.93,1.36-.41-.12-.36-2.17-.35-2.43a19.25,19.25,0,0,1,1.17-5,2.61,2.61,0,0,0,.08-.36,3.8,3.8,0,0,1,.86,2.49A7.49,7.49,0,0,1,318.49,310.54Z"/><path class="strawberrycls-3" d="M223.74,360.11c-3.23-1.62-4.72,3.47-4.42,5a9.81,9.81,0,0,0,4.61,6.86,1.77,1.77,0,0,0,2.57-1C227.64,367.33,227.82,362.17,223.74,360.11Z"/><path class="strawberrycls-3" d="M299.05,356.63a2.43,2.43,0,0,0-3.52,1.44c-.07.26-.15.52-.22.78a10.55,10.55,0,0,0-.17,1.24c0,.18.05.36.07.53s.14.32.2.48a2,2,0,0,0,1,.82,2,2,0,0,0,2.19-.41,11.6,11.6,0,0,0,1-1.11,2.4,2.4,0,0,0,.61-1.06,2.29,2.29,0,0,0,0-1.27A2.52,2.52,0,0,0,299.05,356.63Z"/><path class="strawberrycls-3" d="M348.57,201.78a3.28,3.28,0,0,0-4.08,2.72c-.26,1.93,1.65,3.86,3.25,4.63a3,3,0,0,0,4.39-3,4.68,4.68,0,0,0-.58-2.13A4.87,4.87,0,0,0,348.57,201.78Zm-1.52,6.32a4.85,4.85,0,0,0,.57.09l-.5-.06Z"/><path class="strawberrycls-3" d="M296.47,220.08c-.75,7,6,11.69,12.39,11.45a7,7,0,0,0,6.29-4,4.82,4.82,0,0,0-2.61-6.63c-1.69-.61-3.93.17-3.23,1.9a4.34,4.34,0,0,1,.66,3.3c-.47,1.78-2.42.68-3.42,0-2-1.4-4.06-3.45-3.85-6,.31-4-5.8-3.92-6.23,0Z"/><path class="strawberrycls-4" d="M191.1,239.22a5.74,5.74,0,0,0,3-.66,6.87,6.87,0,0,0,4-4,5.74,5.74,0,0,0,.66-3l-.27-2a7.71,7.71,0,0,0-2-3.38,8,8,0,0,0-5.41-2.24,5.79,5.79,0,0,0-2.95.66,6.85,6.85,0,0,0-4,4,5.73,5.73,0,0,0-.66,2.94l.28,2a7.57,7.57,0,0,0,2,3.37,7.93,7.93,0,0,0,5.41,2.24Z"/><path class="strawberrycls-4" d="M167.2,284.87c7.06,0,7.07-11,0-11s-7.08,11,0,11Z"/><path class="strawberrycls-4" d="M154.72,239.51c6.2,0,6.21-9.64,0-9.64s-6.21,9.64,0,9.64Z"/><path class="strawberrycls-3" d="M335.12,215.11c-18-8-34.53-26.38-42.74-44.07,31.55-4.46,59.38-32.66,60.07-61.53a3.29,3.29,0,0,0-.18-1.16c-.32-2.33-2.28-4.43-5.13-3.51-26,8.36-53,26.88-73.05,50.68,1.61-13.35,5.35-33.75.47-46.63C270,97,259.61,81.1,245.45,80c-5.61-.45-11.56,2-14.38,7.14-3.52,6.36,0,12.7,3.53,18.14,5.36,8.13,11.79,15.61,15,25,2.26,6.58,4.86,20.21,4.46,27-12.77-22.64-41.79-28.3-53.39-47.3-1.31-2.15-3.62-4.14-5.49-1.63-15.59,20.87,2.14,47.62,25.94,59.81-23.24,3-49.63,15.73-63.08,33a3.81,3.81,0,0,0,.34,5.1,2,2,0,0,0,1.15,1.15c31.1,13.55,75.84,1.31,98-24.83,8,13.71,14.95,29.9,30.54,36.33,6.9,2.85,14.34,3.85,21.72,4.56,8.64.82,17.27,1.78,25.31-2C337.47,220.3,337.55,216.18,335.12,215.11Zm-46.53-4.49c-12.25-6.11-21.86-21-28.67-32.58a2.64,2.64,0,0,0-4.09-.53c-12.47,11.36-24.46,21.16-41,26.11-16.86,5.06-32.83,3.4-49.52,0,9.84-10.28,20.47-18.41,34.19-23.4,14.33-5.21,28.09-5.3,43.06-4.67a3.19,3.19,0,0,0,3.22-2.64c.86-3.89-4.53-5.87-7.31-6.88-5.16-1.86-10.29-3.74-15.27-6.06-5.77-2.68-11.48-5.61-16.45-9.63-10.93-8.86-14.63-22.8-8.81-35.09,13,20.82,42.82,25.34,52.54,49.1,1.51,3.68,7.43,4.69,8.53,0A66.68,66.68,0,0,0,257.65,128a72.34,72.34,0,0,0-8.72-17.48c-1.94-2.91-3.8-5.9-6-8.6-5.68-6.92-5.78-10-3.65-12.15,6.89-7.07,17.31,4.38,21.15,9.85A47.5,47.5,0,0,1,267.5,117c3.27,15.15.65,31.41-.92,46.64-.5,4.88,6,5.36,8.3,2.25C292.8,141.51,316,124,344.46,114.51c-3.33,12.22-7,23.32-16.65,32.87a74,74,0,0,1-20.33,14.21,79.85,79.85,0,0,1-11.78,4.5c-3,.89-8.37.68-8.69,4.43a3.16,3.16,0,0,0,.1,1.13c5.83,19.84,19.88,33.72,36.31,44.7C311.75,217.46,298,215.34,288.59,210.62Z"/></g></g></svg>