<?xml version="1.0" standalone="no"?>
<!DOCTYPE svg PUBLIC "-//W3C//DTD SVG 20010904//EN"
 "http://www.w3.org/TR/2001/REC-SVG-20010904/DTD/svg10.dtd">
<svg version="1.0" xmlns="http://www.w3.org/2000/svg"
 width="354.000000pt" height="470.000000pt" viewBox="0 0 354.000000 470.000000"
 preserveAspectRatio="xMidYMid meet">

<g transform="translate(0.000000,470.000000) scale(0.100000,-0.100000)"
fill="#000000" stroke="none">
<path d="M1750 3799 c-199 -30 -391 -143 -517 -303 -116 -149 -182 -342 -169
-493 31 -335 231 -574 554 -660 83 -22 119 -26 252 -27 146 -1 160 1 244 28
222 73 388 253 468 506 20 66 23 95 23 235 -1 147 -3 167 -28 240 -98 292
-332 461 -662 478 -55 3 -129 1 -165 -4z m309 -182 c6 -8 14 -28 17 -45 18
-89 -101 -117 -135 -33 -13 30 -3 66 23 83 19 13 83 9 95 -5z m-425 -33 c16
-16 21 -50 10 -78 -8 -21 -62 -21 -92 0 -22 15 -28 47 -16 78 8 21 77 21 98 0z
m194 -10 c43 -30 22 -104 -30 -104 -59 0 -86 50 -52 98 18 26 50 28 82 6z
m483 -152 c21 -18 22 -21 10 -65 -15 -51 -34 -63 -74 -48 -30 12 -47 39 -47
75 0 52 65 75 111 38z m-210 -2 c19 -11 24 -37 13 -77 -5 -19 -13 -23 -50 -23
-64 0 -80 41 -36 93 17 19 44 22 73 7z m-547 -16 c3 -9 6 -31 6 -49 0 -41 -24
-58 -78 -53 -36 3 -37 4 -40 48 -3 33 1 47 14 57 26 19 90 17 98 -3z m-223
-86 c48 -16 59 -44 35 -95 -12 -24 -21 -33 -32 -29 -9 3 -22 6 -30 6 -27 0
-54 39 -54 78 0 57 9 62 81 40z m394 -43 c0 -50 0 -50 -34 -53 -59 -6 -81 5
-81 39 0 55 15 70 68 67 l47 -3 0 -50z m209 39 c21 -21 21 -88 -1 -105 -22
-19 -101 -18 -113 1 -17 26 -11 79 10 100 24 24 82 27 104 4z m324 -106 c29
-29 4 -108 -34 -108 -18 0 -64 44 -64 62 1 41 70 74 98 46z m-159 -59 c26 -9
31 -16 31 -45 0 -42 -34 -68 -75 -58 -26 6 -27 9 -22 52 4 35 17 59 33 62 1 0
15 -5 33 -11z m-335 -35 c12 -4 16 -20 16 -55 l0 -49 -49 0 c-35 0 -51 4 -55
16 -10 26 -7 69 6 82 13 13 56 16 82 6z m-180 -20 c12 -31 6 -82 -10 -88 -33
-13 -73 -6 -84 13 -14 27 -13 35 11 65 23 30 73 36 83 10z m-233 -4 c14 -8 19
-21 19 -55 0 -39 -3 -45 -24 -51 -13 -3 -37 -4 -52 -2 -26 3 -29 7 -32 47 -2
24 -1 50 2 57 6 16 59 19 87 4z m1093 -1 c32 -15 38 -32 25 -66 -13 -35 -26
-43 -69 -43 -43 0 -60 15 -60 53 0 62 41 84 104 56z m-515 -98 c19 -12 5 -88
-19 -101 -61 -33 -103 8 -76 73 13 32 19 37 48 37 18 0 39 -4 47 -9z m172 -21
c19 -11 26 -51 13 -84 -10 -25 -70 -21 -88 6 -23 33 -20 67 7 78 30 12 45 12
68 0z m193 -66 c19 -7 20 -38 5 -83 -15 -42 -37 -53 -82 -39 -32 10 -37 16
-37 40 0 64 56 104 114 82z m-931 -35 c43 -23 50 -66 15 -99 -28 -25 -48 -25
-82 1 -31 25 -33 47 -5 83 22 29 39 32 72 15z m257 -49 c15 -27 -4 -86 -31
-101 -39 -20 -89 14 -89 61 0 52 8 60 61 60 38 0 51 -4 59 -20z m228 -34 c8
-15 11 -34 8 -42 -13 -34 -88 -36 -109 -3 -15 23 0 69 26 78 31 12 60 -1 75
-33z m247 -70 c0 -62 -16 -75 -74 -57 -49 14 -63 47 -37 87 15 22 23 25 64 22
l47 -3 0 -49z m160 -40 c18 -13 24 -64 10 -86 -16 -26 -105 7 -105 38 0 50 55
78 95 48z m-720 -61 l0 -50 -44 -3 c-49 -4 -61 6 -61 54 0 41 17 55 65 52 l40
-3 0 -50z m239 -27 c30 -13 40 -39 32 -74 -6 -23 -11 -25 -54 -22 -47 3 -47 3
-50 41 -5 60 20 79 72 55z m246 -47 c5 -11 10 -38 10 -60 l0 -41 -44 0 c-55 0
-76 19 -76 70 0 42 7 48 62 49 27 1 40 -4 48 -18z"/>
<path d="M700 1987 c0 -2 14 -16 31 -33 18 -17 28 -22 24 -12 -6 14 -55 55
-55 45z"/>
<path d="M780 1913 c1 -13 108 -93 224 -168 87 -57 103 -71 84 -74 -13 -2 -63
-9 -113 -15 l-90 -12 -108 53 c-75 37 -145 62 -229 83 -67 16 -123 28 -125 26
-4 -4 271 -122 334 -143 24 -8 45 -18 47 -22 3 -4 -36 -13 -87 -20 -115 -17
-479 -89 -486 -98 -3 -3 14 -3 39 1 227 36 486 74 488 71 2 -1 -26 -26 -62
-54 -65 -52 -89 -79 -161 -181 -38 -54 -37 -54 51 31 49 48 112 101 139 119
28 18 69 48 92 67 42 33 45 34 200 48 86 8 158 13 160 12 1 -2 -46 -55 -105
-118 -112 -119 -146 -163 -202 -264 -40 -72 -43 -75 110 100 228 260 255 286
300 292 30 4 40 10 36 20 -4 8 -6 17 -6 19 0 3 -19 2 -43 -1 -38 -6 -48 -3
-112 40 -39 26 -115 70 -169 97 -55 27 -117 61 -137 74 -38 24 -69 31 -69 17z"/>
<path d="M1455 1693 c-16 -3 -40 -14 -54 -24 l-25 -20 42 7 c23 4 42 4 42 1 0
-13 -144 -255 -180 -301 -37 -49 -68 -109 -85 -166 -10 -32 159 174 224 275
28 42 60 103 72 135 l21 59 52 6 c28 3 75 6 104 8 29 1 52 7 52 12 0 10 -208
16 -265 8z"/>
<path d="M188 1513 c6 -2 18 -2 25 0 6 3 1 5 -13 5 -14 0 -19 -2 -12 -5z"/>
</g>
</svg>
