<svg xmlns="http://www.w3.org/2000/svg" viewBox="0 0 512 512"><defs><style>.sweet-potato02cls-1{fill:none;}.sweet-potato02cls-2{fill:#b3644c;}.sweet-potato02cls-3{fill:#4a2d2d;}</style></defs><g id="Capa_2" data-name="Capa 2"><g id="bocetos"><rect class="sweet-potato02cls-1" width="512" height="512"/><path class="sweet-potato02cls-2" d="M403.93,42.41c-6.2,2.28-1.63,19.58-12.08,30.36s-29.38,18.28-48.31,18.6-41.46,0-64,10.78-34.28,35.58-49.62,39.49-45.37-1-74.75,17.63-45.38,45.7-49.62,68.88-2,55.49,4.9,81,6.2,37.22,1.63,49-53.54,72.14-46.68,86.18S113.73,471,157.8,454.37s69.86-71.49,86.18-77,49.94-3.59,90.75-30.69,73.12-63.65,83.56-97.93-7.18-73.44-5.55-86.5S434.08,130,436.9,102.15C440.16,69.83,410.13,40.12,403.93,42.41Z"/><path class="sweet-potato02cls-3" d="M187.47,263.31c6.2.45,12.09,1.77,13.9,8.45a1.74,1.74,0,0,0,3.32,0c1.31-3.78-.87-7.43-3.94-9.57-3.9-2.71-8.72-2.75-13.28-2.75-2.52,0-2.46,3.7,0,3.87Z"/><path class="sweet-potato02cls-3" d="M143.1,352.28A7.5,7.5,0,0,1,148,354c1.39,1.17,2.08,2.85,3.19,4.24s3.26.14,3.34-1.38c.28-5.52-6.75-9.1-11.46-8.86-2.74.13-2.78,4.31,0,4.29Z"/><path class="sweet-potato02cls-3" d="M344.88,206.48a7.52,7.52,0,0,1,6.5,1.81c1.8,1.56,2,4.27,3.72,5.64a2.09,2.09,0,0,0,3.22-.41c2.18-3.15-1.58-7.7-4-9.51a12.52,12.52,0,0,0-10.68-2.12c-3,.79-1.71,5.22,1.27,4.59Z"/><path class="sweet-potato02cls-3" d="M200.5,331.82c10.66,16.89,28.3,33.29,48.6,37,2,.37,3.66-2.55,1.51-3.57-18.73-8.89-34.39-17.87-45.94-35.82-1.67-2.6-5.83-.21-4.17,2.43Z"/><path class="sweet-potato02cls-3" d="M317.59,277.45C327.66,293,342.34,315.61,363.83,314a1.71,1.71,0,0,0,.45-3.35c-9.33-3.06-17.17-6.39-24.5-13.11-7.12-6.54-12.65-14.53-18.12-22.44-1.7-2.47-5.73-.2-4.07,2.38Z"/><path class="sweet-potato02cls-3" d="M247.64,226c6.2,12,14.09,27.55,28.83,30.14,2,.35,3.43-2.33,1.45-3.43-12.44-6.9-19.62-16.75-26.5-28.92-1.4-2.46-5.06-.28-3.78,2.21Z"/><path class="sweet-potato02cls-3" d="M249.29,128.21c3.57,13.76,10.54,28.78,22.29,37.43,1.49,1.1,3.64-1.08,2.57-2.57-8.45-11.72-16.46-21.88-20.73-36a2.14,2.14,0,0,0-4.13,1.14Z"/><path class="sweet-potato02cls-3" d="M332.74,130.85c2.73,6.6,7.6,15.22,14.74,17.77,1.6.57,3.33-1.57,2.3-3-2-2.69-4.71-4.75-6.88-7.3a38.52,38.52,0,0,1-5.75-9.34c-1.1-2.47-5.46-.67-4.41,1.86Z"/><path class="sweet-potato02cls-3" d="M390.36,111.93c7,9.92,14.77,21.16,25,28.06,1.35.92,3.23-.92,2.28-2.28-6.94-9.92-16.23-18.25-23.6-27.9-1.61-2.11-5.24-.12-3.64,2.12Z"/><path class="sweet-potato02cls-3" d="M134.34,187.64c3.77,12.67,12.12,27.42,24.75,33.06,1.88.84,3.9-1.33,2.3-3-4.43-4.54-9.35-8.35-13.23-13.45a58.93,58.93,0,0,1-9.24-17.9c-.93-2.89-5.46-1.68-4.58,1.27Z"/><path class="sweet-potato02cls-3" d="M139,399.44c7.59,12.14,18.46,23.21,32.35,27.73,2,.66,3.13-2.28,1.42-3.37-11.66-7.38-22.38-14.86-30.39-26.34-1.42-2-4.73-.19-3.38,2Z"/><path class="sweet-potato02cls-3" d="M107.6,433.41c1.14.78,2.26,1.59,3.44,2.3a1.52,1.52,0,0,0,1.84-2.37c-1-1-2-1.9-3-2.82a1.84,1.84,0,1,0-2.23,2.89Z"/></g></g></svg>