<svg xmlns="http://www.w3.org/2000/svg" viewBox="0 0 512 512"><defs><style>.sweet-potatocls-1{fill:none;}.sweet-potatocls-2{fill:#b3644c;}.sweet-potatocls-3{fill:#fe9736;}.sweet-potatocls-4{fill:#4a2d2d;}</style></defs><g id="Capa_2" data-name="Capa 2"><g id="bocetos"><rect class="sweet-potatocls-1" width="512" height="512"/><path class="sweet-potatocls-2" d="M169.54,181.91s10.41-3.47,33.4-5.64,47.71-35.13,72.44-44.67,69.4-14.75,80.68-20.39,23-28.63,42.51-28.2,24.72,22.12,19.52,40.34S390.33,167.16,389,194.06s24.73,58.56,4.78,105S343,383.18,306.17,399.67s-86.75,20.82-114.08,16.05-63.76-88.06-60.73-130.14S164.33,182.78,169.54,181.91Z"/><path class="sweet-potatocls-3" d="M183,180.18c-41.21,3.47-75.47,42.51-86.32,85.88S84.52,373.21,124.42,399.67s79.82,14.75,95.87,6.5,44.24-47.28,51.62-83.71c6-29.7,2.57-59.52-1.74-72.44C259.76,218.78,224.19,176.71,183,180.18Z"/><path class="sweet-potatocls-4" d="M241.67,199.05c-32.6-32.12-84.62-28.29-114.65,6.49C97.44,239.78,81.07,292.45,88.81,337.2c3.4,19.67,11.74,40.42,24.78,55.68,14.83,17.36,36.75,25,59,26.73,23,1.78,44.54-2.65,62.14-18.22,16.86-14.93,27.39-36.41,35.12-57.2,9.91-26.64,14.82-56.53,8.92-84.67C273.62,235,260.17,215,241.67,199.05ZM266,317.31c-8,35.16-28.73,82.87-69.22,89-41.33,6.23-83.48-12.74-95.26-54.79-10.89-38.87-4.19-84.91,16.57-119.35,12.9-21.4,30.75-40.88,56.41-45.46,24-4.28,48.38,4.4,65.14,21.83a4.06,4.06,0,0,0,1,.74C267.4,238.06,274.67,279.28,266,317.31Z"/><path class="sweet-potatocls-4" d="M328.12,230.7a6.45,6.45,0,0,1,7.52,1.53c1.63,1.85,1.39,4.17,2.51,6.18a2,2,0,0,0,3.4,0c2.34-3.32-.69-8.51-3.47-10.59A11.47,11.47,0,0,0,326,227C323.51,228.28,325.68,231.78,328.12,230.7Z"/><path class="sweet-potatocls-4" d="M253.44,153.56c14.36,8.83,22.48,21.76,29.85,36.45,1.12,2.24,4.43.63,3.91-1.65-3.83-16.73-17.28-30-31.77-38.2A2,2,0,0,0,253.44,153.56Z"/><path class="sweet-potatocls-4" d="M364.06,146.58c-2.08-1.67-5.08,1.16-3,3,8.62,7.6,14.23,16.9,21.28,25.78,1.31,1.65,4.23-.13,3.54-2.06C382,162.53,372.8,153.58,364.06,146.58Z"/><path class="sweet-potatocls-4" d="M307.37,312.57c-2.81-1.95-5.38,2.59-2.66,4.55a108,108,0,0,1,21.51,20.33c5.69,7.15,9.7,15.43,15.37,22.54,1.12,1.4,3-.16,2.75-1.6C340.6,339.51,322.47,323,307.37,312.57Z"/><path class="sweet-potatocls-4" d="M357.34,272.22a2.14,2.14,0,0,0,0,4.28c5,.22,6,5.85,3.69,9.48a1.77,1.77,0,0,0,2.4,2.4C371.43,283.24,366.15,271.83,357.34,272.22Z"/><path class="sweet-potatocls-4" d="M321.78,154.71a4.74,4.74,0,0,1,3.46,2c.89,1.19,1,2.57,1.57,3.89a1.73,1.73,0,0,0,2.5,1c2.84-2,2.12-6.09.32-8.5a7.78,7.78,0,0,0-8.48-3A2.38,2.38,0,0,0,321.78,154.71Z"/><path class="sweet-potatocls-4" d="M386.69,120.37a13.69,13.69,0,0,0-7.64-2.25c-3.07,0-3.07,4.72,0,4.78a8.83,8.83,0,0,1,5.17,1.71c1.47,1.11,2.3,2.92,4.1,3.51a1.94,1.94,0,0,0,2.37-1.34C391.3,124.07,388.74,121.75,386.69,120.37Z"/><path class="sweet-potatocls-4" d="M284.74,355.24c-2.53-1.43-4.81,2.48-2.27,3.89a5.66,5.66,0,0,1,2.34,6.35c-.56,1.81,1.95,2.69,2.93,1.24A8,8,0,0,0,284.74,355.24Z"/><path class="sweet-potatocls-4" d="M128,258.85c-2.68-.51-3.85,3.56-1.14,4.13,9.44,2,17.38,6.43,26.32,9.67a1.75,1.75,0,0,0,1.69-2.9C147.67,263.34,137.3,260.62,128,258.85Z"/><path class="sweet-potatocls-4" d="M141,299.36c-4.93-2-10.36-2.95-15.53-4.2-2.6-.63-3.71,3.39-1.11,4,5.33,1.28,10.73,2.94,16.2,3.41C142.54,302.76,142.53,300,141,299.36Z"/><path class="sweet-potatocls-4" d="M234.26,276c-1.63-.16-1.92,2.08-.77,2.84a43.54,43.54,0,0,0,7.87,3.79c2.86,1.16,4.37-3.79,1.3-4.72A43.14,43.14,0,0,0,234.26,276Z"/><path class="sweet-potatocls-4" d="M201.36,380.13a12.91,12.91,0,0,0-9.21-.88,1.42,1.42,0,0,0,.38,2.77,19,19,0,0,1,6.77,1.64C201.68,384.83,203.73,381.16,201.36,380.13Z"/><path class="sweet-potatocls-4" d="M216,359.06c-2.58,0-2.59,4,0,4S218.53,359.06,216,359.06Z"/></g></g></svg>