<svg xmlns="http://www.w3.org/2000/svg" viewBox="0 0 512 512"><defs><style>.sybeanscls-1{fill:#4a2d2d;}.sybeanscls-2{fill:none;}</style></defs><g id="Capa_2" data-name="Capa 2"><g id="bocetos"><path class="sybeanscls-1" d="M328.22,264.23c18-1,34.31-13.38,46.94-25.36a97,97,0,0,0,27.32-46.78c4.49-18,7.28-38.72,2.25-56.82C399.94,118,388.43,98.07,373.25,88c-15.65-10.39-39.09-11.71-56.87-6.66s-32.06,18.79-42.25,33.59a101.48,101.48,0,0,0-13.19,26.32c-5.92,18.43-7.3,40.81-5.33,60,1.71,16.67,7.5,33.9,20.33,45.39C288.59,258,311.42,265.2,328.22,264.23ZM290,245c-15-7.63-22.48-22.48-25.17-38.53a162.19,162.19,0,0,1-.15-51.66C271,117,303.89,82,344.56,87.33a55.49,55.49,0,0,1,20.74,7c12.54,7.33,21.56,22.84,27,36C403.7,158,395,195.8,377.81,219.46c-9.12,12.54-23,24.14-37.23,30.38C325.27,256.54,304.55,252.41,290,245Z"/><path class="sybeanscls-1" d="M223.69,222.08c-27.32-18-58.09-21.75-89.09-11.84C119.72,215,105.31,222.51,96,235.48c-19,26.45-6.61,62.17,17.05,80.82,28,22.1,67.31,28.59,101.65,19.88,15.82-4,29.5-13.08,36.6-28.07,6.33-13.36,10.79-29.52,8.17-44.38C256.22,245.49,238.21,231.66,223.69,222.08Zm-2.23,101c-27.2,11.85-63.52,7.25-89.47-5.7-24.14-12.05-44.07-38.89-34.88-66.93,5-15.1,19.34-25.37,33.08-32,19.27-9.34,41.4-6.87,61.17-.7,19.23,6,38.7,15.81,51.16,32.15C260.58,273.54,248,311.51,221.46,323.08Z"/><path class="sybeanscls-1" d="M422.38,304.61C414.81,279,381,266.92,357.08,274.9c-14.83,5-25.48,16.81-35.58,28.15-21.71,24.39-42.43,54.95-34.82,89.41,6.69,30.35,39.39,45.83,68.22,39.74,33.17-7,55.87-37.17,64.7-68.28C424.88,345.27,428,323.56,422.38,304.61Zm-10.13,47.25c-5.59,26.57-20.17,56.22-46.91,67-24.27,9.79-56,4.07-67.08-22-11.58-27.27,4.58-57.73,21.39-78.73,8.84-11.05,18.49-23.28,30.56-30.92,20-12.65,54.41-2.91,62.65,20.06C417.91,321.32,415.26,337.59,412.25,351.86Z"/><path class="sybeanscls-1" d="M285.84,154.05a121.45,121.45,0,0,0-3.54,22.58c-.25,6.22-.87,13.44,1.06,19.45,1.58,4.92,5.59,9.33,11.11,9.18,5.69-.15,10.17-4.93,12.87-9.5a61.78,61.78,0,0,0,7.11-16.95,106.46,106.46,0,0,0,2.36-19.58c.32-6.63.75-14.23-4-19.53C299.73,125.18,288.76,143.49,285.84,154.05ZM310,158.84c-.33,9.87-1.07,20.23-4.19,29.67-1.42,4.3-4,9.08-8.18,11.23s-8.24-.79-9.7-4.92c-1.67-4.76-1.25-10.49-1.24-15.46a113.54,113.54,0,0,1,.87-14.86,51.75,51.75,0,0,1,4.73-16.19c1.41-2.82,3.2-6.55,6.19-7.95C309.63,135.11,310.23,152.46,310,158.84Z"/><path class="sybeanscls-1" d="M199.33,301.13c-15.64-10.13-39.67-19.21-57.78-11-5,2.28-10.64,6.22-11.56,12.09-.86,5.44,3.87,9.06,8.68,10.07,6.35,1.34,13.13.7,19.59,1.25,7.27.62,14.33,2.19,21.5,3.51,3.52.65,7,1.3,10.58,1.84,3.38.52,7.41,1.46,10.82.8,5.37-1.05,7.38-7.21,5.12-11.81C204.84,304.94,202,302.88,199.33,301.13Zm.66,13.24c-2.76-.11-5.71-1-8.41-1.56-3.07-.64-6.13-1.37-9.18-2.1a159.27,159.27,0,0,0-17.32-3.17,125.36,125.36,0,0,0-17.55-.44c-3.47.06-10.23,1.25-12.82-1.91-3.64-4.46,4.26-9.26,7.5-10.6,12.78-5.27,28.11-1.69,40.38,3.4a98,98,0,0,1,14.6,7.48c1.91,1.19,4.09,2.63,4.89,4.85C202.75,312.18,202.21,314.45,200,314.37Z"/><rect class="sybeanscls-2" width="512" height="512"/></g></g></svg>