<svg xmlns="http://www.w3.org/2000/svg" viewBox="0 0 512 512"><defs><style>.tangerinecls-1{fill:none;}.tangerinecls-2{fill:#72ab4c;}.tangerinecls-3{fill:#fe9736;}.tangerinecls-4{fill:#fea754;}.tangerinecls-5{fill:#4a2d2d;}.tangerinecls-6{fill:#fff;}</style></defs><g id="Capa_2" data-name="Capa 2"><g id="bocetos"><rect class="tangerinecls-1" width="512" height="512"/><path class="tangerinecls-2" d="M200.54,137.4s25.85-52.85,73.53-68.94,108.58-10.34,108.58-5.17-23.55,73-87.9,85S200.54,137.4,200.54,137.4Z"/><path class="tangerinecls-3" d="M354.31,245.4c-7.66-16.47-36-46-98.05-67.79-20.65-7.26-37.68-10.48-52.36-11.23.63,2.33,1.32,4.64,1.94,7,.94,3.49,1.93,7.42,1.7,11.07-.17,2.78-1.33,5.31-4,6.45s-5.47.8-8.15.54a3.14,3.14,0,0,1-3.07-3.07,120,120,0,0,1,1.18-14.17,75.19,75.19,0,0,0,.5-7.93c-24.16.6-41.83,7.87-59.89,13.29-30.64,9.19-69.7,17.23-84.64,49.79s-2.68,86.94,15.32,117.19,37.53,45.19,64,48.64,93.45,14.55,144.77,7.28,81.57-50.94,87.32-78.51S362,261.87,354.31,245.4Z"/><path class="tangerinecls-4" d="M349,359.92a85.26,85.26,0,0,0,42.51-15.71c20.68-14.93,27.57-29.49,50.17-21.06s16.85,69.32-19.92,100.72-102.64,36-143.23,6.52S230.22,360.3,244,340.77s34.47-13.79,47.87-5.37S317.92,359.53,349,359.92Z"/><path class="tangerinecls-5" d="M86.94,233.53a6.75,6.75,0,0,0-6.55,1.15,9.25,9.25,0,0,0-2.67,4.7c-.58,2.28-.5,4.93,1.71,6.24a6.56,6.56,0,0,0,7.67-.84c2.26-1.92,3.9-6.74,2.18-9.4A4.77,4.77,0,0,0,86.94,233.53Z"/><path class="tangerinecls-5" d="M122.51,215.65c-2.21-1.76-5.83-2.05-8,.26a5.84,5.84,0,0,0,.31,8c3.18,2.91,8.17,1,9.36-3A4.71,4.71,0,0,0,122.51,215.65Z"/><path class="tangerinecls-5" d="M110.35,256.7a4.71,4.71,0,0,0-7.11.65c-1.59,2.35-.54,5,1.5,6.62a4.64,4.64,0,0,0,2.35.64,3.54,3.54,0,0,0,1.79-.4,4.69,4.69,0,0,0,2.83-4.73A4.42,4.42,0,0,0,110.35,256.7Z"/><path class="tangerinecls-6" d="M299.52,366.43c-8.35,9.62-15.62,20-20,32-.89,2.42,2.83,3.86,4.09,1.72,6.08-10.35,12-20.79,19.42-30.24,1.91-2.43-1.37-5.9-3.47-3.48Z"/><path class="tangerinecls-6" d="M349.56,380.59c-1,10.14-2.38,20.45-2.14,30.65.05,2.48,4.07,3.27,4.52.61,1.71-10.28,1.83-20.87,2.31-31.26.14-3.06-4.4-3-4.69,0Z"/><path class="tangerinecls-6" d="M392.18,368c7.87,10.17,14.48,21.78,23.15,31.27,2.14,2.34,5.41-.64,4.16-3.22-5.61-11.6-15.27-22.05-23.44-31.92-2.28-2.75-6,1.15-3.87,3.87Z"/><path class="tangerinecls-5" d="M177.25,185.41c10.59,12.1,33.82,14.13,43.9.12,1.68-2.34-1.58-5.32-3.88-3.88-10.73,6.73-25.8,8.76-36.4.13a2.56,2.56,0,0,0-3.62,3.63Z"/><path class="tangerinecls-5" d="M195.11,190.33c4.47-21.51,3.45-43.23-6.09-63.42-.89-1.89-6.51-9.92,1.5-7.36,1.48.47,3.19,7.76,3.6,8.92a165.08,165.08,0,0,1,5.35,18.34c3,13.27,2.84,26.24,3.47,39.71.12,2.79,4.38,3.64,5.06.69,3.62-15.7.15-33-4.18-48.18-2.39-8.4-5.71-28.41-17.88-28.07-14.79.41-2.13,19.87.06,25.65,6.39,16.93,8,35.39,5.73,53.26-.24,1.92,3,2.35,3.38.46Z"/><path class="tangerinecls-5" d="M203.36,140.92c24.78-11.31,49.58-22.55,74.86-32.72,12-4.83,24.07-9.55,36.22-14,11.76-4.34,24.52-7.52,35.65-13.3,3.21-1.66.83-6-2.3-5.45-13,2.19-26,8.17-38.35,12.78-12.64,4.71-25.21,9.62-37.64,14.85-24.15,10.14-48,21-71.15,33.24-3.09,1.65-.37,6,2.71,4.63Z"/><path class="tangerinecls-5" d="M247.64,117.06c2.33-8.06,4.46-15.94,8-23.6,3.17-6.91,7.4-13.08,11-19.71.74-1.35-1.09-2.89-2.2-1.69-10.67,11.48-17.75,29.19-19.79,44.6-.23,1.73,2.52,2,3,.4Z"/><path class="tangerinecls-5" d="M297.66,98.09c2.52-7,5.07-14,8.9-20.42,3.49-5.88,8.05-10.83,12.08-16.3,1.09-1.48-1.13-2.73-2.33-1.8-11,8.61-19,24.15-21.54,37.73a1.5,1.5,0,0,0,2.89.79Z"/><path class="tangerinecls-5" d="M285.65,105.93c15.8,8.45,33.63,15.11,51.61,16.49,1.88.15,2.28-2.86.45-3.28-17.54-4-34-8.29-50.22-16.36-2.09-1-3.92,2-1.84,3.15Z"/><path class="tangerinecls-5" d="M239.11,126.51c16.49,11.41,37,16.09,56.79,17.31,1.7.11,2.11-2.68.4-3-19.42-3.74-38.48-6.18-55.33-17.48-2-1.32-3.79,1.84-1.86,3.18Z"/><path class="tangerinecls-5" d="M254.2,402.16c-8.24-13.35-15.47-27-12.66-43.26,2.71-15.77,13.43-30.83,31-26.85,13.66,3.1,24.22,13.58,36.41,19.91,10.77,5.59,24.12,11.8,36.52,10.4,3.54-.4,4.43-5.06.85-6.31-8.83-3.07-17.78-5.2-26.34-9.14-8.18-3.77-15.55-8.75-23.15-13.53-12.76-8-28.68-14.92-43.11-6.51-26.54,15.48-24.27,59.61-4.52,79.12,2.52,2.48,6.88-.72,5-3.83Z"/><path class="tangerinecls-6" d="M96.18,325.23c3.67.41,7.21,1,10.74-.51,2.93-1.25,2.93-6.49,0-7.73-3.52-1.5-7.07-.92-10.74-.52a4.38,4.38,0,0,0,0,8.76Z"/><path class="tangerinecls-6" d="M89.11,301.51l4.31-2.79a3.68,3.68,0,0,0,1.49-4.55,3.61,3.61,0,0,0-4.3-2.11l-4.75,1.75a4.21,4.21,0,1,0,3.25,7.7Z"/></g></g></svg>