<svg xmlns="http://www.w3.org/2000/svg" viewBox="0 0 512 512"><defs><style>.tarragoncls-1{fill:none;}.tarragoncls-2{fill:#9bb533;}.tarragoncls-3{fill:#4a2d2d;}</style></defs><g id="Capa_2" data-name="Capa 2"><g id="bocetos"><rect class="tarragoncls-1" width="512" height="512"/><path class="tarragoncls-2" d="M254,266.15a.31.31,0,0,1-.24-.1,1.08,1.08,0,0,1-.07-.75c2.84-18.47,10.51-36.79,17.93-54.51l.32-.76a500.75,500.75,0,0,1,24-49.47c17-30.71,38.58-60.95,65.85-92.44h0a1.3,1.3,0,0,1,.93.76c27.13,78.05-35.57,147.75-103.3,187a4.2,4.2,0,0,0-1.8,2.12c-1.11,3-2.06,5.34-3,7.54-.1.24-.32.65-.61.65Z"/><path class="tarragoncls-2" d="M226.32,319c-1.28,0-2.57,0-3.86-.05a.89.89,0,0,1-.32-.05,2.9,2.9,0,0,1,.09-.44c0-.11.08-.15.26-.19a4.06,4.06,0,0,0,1.65-.78l.16-.13c7.46-5.09,15.49-9.7,23.26-14.16,9.06-5.2,18.42-10.57,27.19-16.88a437.31,437.31,0,0,0,46.36-38.91C351,219,377.34,187,400.58,158.72c.12-.14.46-.15.57-.15a2.58,2.58,0,0,1,1.79.76c.16.18.15.26.14.3C392,247.5,312.68,319,226.33,319Z"/><path class="tarragoncls-2" d="M202.86,338.29a4.32,4.32,0,0,0-.22-1.63c-8.8-25.39-9.62-60.31-9.66-70.4a306.45,306.45,0,0,1,6.46-63.71C207.77,162.66,224.11,126.82,248,96a1.16,1.16,0,0,1,.31,0,1.89,1.89,0,0,1,1.51.72c6.8,34.75-3.9,71.26-14.24,106.57-1.31,4.45-2.6,8.86-3.84,13.21-13.72,48.19-22.68,86.17-29,122.84Z"/><path class="tarragoncls-2" d="M175.26,414.06a117.22,117.22,0,0,1-24.44-2.17,4.38,4.38,0,0,0-.88-.09,4.17,4.17,0,0,0-2.34.72c-32.44-67.08-43.22-147.23-31.17-231.9,0-.33.78-.72,1.63-.72a1.57,1.57,0,0,1,1,.3c24.88,27.63,40.76,64.62,45.94,107,4.64,37.95.25,79.93-12,115.16a4.15,4.15,0,0,0,3.91,5.51,4.3,4.3,0,0,0,1.17-.17l.21-.07c42.26-10.42,76.16-33.3,110-57.83,30-21.74,64.06-46.38,104.46-55.31a1.72,1.72,0,0,1,.39,0,3.17,3.17,0,0,1,2.55,1.56,1.07,1.07,0,0,1-.11,1.29c-21.9,31.07-49.16,65.83-85.28,88-17.57,10.79-37.75,18.37-61.67,23.17A289.16,289.16,0,0,1,175.26,414.06Z"/><path class="tarragoncls-3" d="M264.43,228.4a489.63,489.63,0,0,1-28.15,52.49c-11.95,19-24.11,37.92-36.71,56.53-24.55,36.25-50,72-78.13,105.59-3,3.59,2,8.76,5.22,5.22,29.48-31.88,55.85-66.63,80.6-102.26q19.28-27.75,37.3-56.34c8.13-12.9,18.9-27.4,26.32-40.85C257.87,254.42,263.43,233,264.43,228.4Z"/></g></g></svg>