<svg xmlns="http://www.w3.org/2000/svg" viewBox="0 0 512 512"><defs><style>.thymecls-1{fill:none;}.thymecls-2{fill:#4a2d2d;}.thymecls-3{fill:#79983f;}</style></defs><g id="Capa_2" data-name="Capa 2"><g id="bocetos"><rect class="thymecls-1" width="512" height="512"/><path class="thymecls-2" d="M233.62,14.74c-11.92,13.49-20.46,32-28.26,48.14q-11.48,23.74-20.6,48.56c-12.7,34.7-22.62,70.31-32.44,105.9-9.76,35.36-18.33,71-24.77,107.18-6.67,37.49-13.66,77.72-12,115.89.26,6,10.2,8.13,11.13,1.51,2.6-18.58,3.16-37.45,5.23-56.1q3.19-29,8.07-57.88c5.91-35,13.77-69.61,22.87-103.89,9.16-34.47,18.52-69,30.12-102.72,6.22-18.11,12.9-36.1,20.77-53.56,7.54-16.74,17.85-32.26,25.16-49,1.4-3.19-2.52-7.19-5.27-4.07Z"/><path class="thymecls-2" d="M338.92,13.21c-12.38,35.66-24.5,71-40.75,105.17-15.89,33.4-34.24,65.35-53.05,97.16C228,244.55,210,273,193.33,302.32c-14.92,26.23-29.38,52.72-44.4,78.9q-13.8,24-28.28,47.64C110.17,446,96,463.49,89,482.35c-1.75,4.75,4.73,7.64,8,4.65,13.08-12.07,22.2-30.2,31.64-45.16,9.12-14.46,17.76-29.23,26.29-44,15.42-26.78,30.14-54,45.26-80.91,34.56-61.61,73-120.62,103.18-184.65C321,94.91,338.22,55.94,347.59,15.6c1.31-5.67-6.78-7.83-8.67-2.39Z"/><path class="thymecls-2" d="M406.61,154C355.46,203,308.74,256.69,266,313.13c-21.25,28-41,57.17-59.78,86.93q-14.55,23.08-28,46.82C170,461.28,159.1,477.8,155.43,494c-1,4.38,4.55,8.25,7.91,4.6,11.25-12.17,19.16-30,27.47-44.3q12.76-22,26.17-43.68c18.52-29.9,38.31-58.95,58.76-87.56,41.37-57.86,87.58-111.78,137-162.9,3.88-4-2.09-10-6.12-6.13Z"/><path class="thymecls-3" d="M248.28,30.71c-11.05,6.93-24.35,12.07-33.74,21.35-1.35,1.33,0,4.08,2,3.35,12.36-4.69,22.67-14.36,33.85-21.17,2.25-1.37.17-4.93-2.06-3.53Z"/><path class="thymecls-3" d="M188.53,53.85c-1.64,12.57-1.37,28.31,2.58,40.46.47,1.45,2.94,1.75,3.24,0,2.26-13.12-3-27-1.89-40.46.21-2.56-3.61-2.44-3.93,0Z"/><path class="thymecls-3" d="M221.64,87.06c-11.94,13.39-27,23.67-38.94,37.05-1.28,1.43.34,3.78,2.11,2.73,8.31-4.91,15.42-11.45,22.43-18,6-5.64,13.85-11.82,17.46-19.39.88-1.86-1.49-4.11-3.06-2.35Z"/><path class="thymecls-3" d="M172.7,100.32c1.67,8.21,2.47,17.33,8.45,23.73,1.41,1.51,3.34-.14,3.11-1.81-1.09-8-5.82-15.14-7.61-23-.59-2.58-4.47-1.48-4,1.08Z"/><path class="thymecls-3" d="M211.58,135.59c-9.18,5.82-18.87,8.68-28.89,12.53a2,2,0,0,0,.54,3.94c11.49,1.29,23.19-5,31.15-12.85,1.83-1.81-.55-5-2.8-3.62Z"/><path class="thymecls-3" d="M154.52,150.84c.78,9.68,2.45,21.69,9.22,29.17,1.68,1.86,4.08-.19,3.79-2.2-1.36-9.25-6.46-18.47-9-27.52-.6-2.14-4.21-1.82-4,.55Z"/><path class="thymecls-3" d="M185.84,191.56c-6.56,6.13-14.6,10.46-21.88,15.64a1.89,1.89,0,0,0,1.45,3.44c10-1.7,17.4-8.22,23.49-16,1.68-2.15-1-5-3.06-3.07Z"/><path class="thymecls-3" d="M129.13,236c3.54,12.32,6.3,26.31,15.35,36,1.37,1.47,3.56-.09,3.18-1.85-2.65-12.35-10.31-23.38-14.47-35.26-.88-2.53-4.82-1.52-4.06,1.12Z"/><path class="thymecls-3" d="M163,262.35c-.33,2.14-4.51,4.65-6,6-2.18,1.87-4.44,3.65-6.59,5.55-4.13,3.65-7.85,7.42-10.17,12.49a2,2,0,0,0,3.14,2.42c5.62-5,11.53-9.7,17.1-14.77,2.81-2.55,10.48-8.42,6-12.57-1-1-3.19-.72-3.45.91Z"/><path class="thymecls-3" d="M149.81,304c-6.42,5.87-13,12-18.33,18.89-1.48,1.9.33,4.88,2.72,3.53,8-4.52,14.59-11.72,19.52-19.4,1.57-2.46-1.89-4.87-3.91-3Z"/><path class="thymecls-3" d="M103.51,344.83c4.5,8.66,9.13,18.91,16.42,25.6,2.13,2,4.83-.48,3.78-2.91-3.83-8.92-11.13-16.84-16.67-24.76a2,2,0,0,0-3.53,2.07Z"/><path class="thymecls-3" d="M149.13,337.34C142.18,343.56,134,349,127.81,356a2.26,2.26,0,0,0,2.72,3.53c8.61-4,16-11.47,22.75-18,2.72-2.66-1.36-6.66-4.15-4.15Z"/><path class="thymecls-3" d="M122.28,396a154.44,154.44,0,0,1,10.61-11.54c3.47-3.41,7.54-6.49,10.27-10.55.91-1.36-.63-3.56-2.24-2.92-9.41,3.74-16.61,14.29-21.85,22.54-1.22,1.92,1.71,4.28,3.21,2.47Z"/><path class="thymecls-3" d="M170.45,273.84c3.46,13.45,8.47,29,18.27,39.27,1.62,1.69,5.19-.06,4.19-2.45-5.44-13-13.12-24.61-17.62-38.15-1-3-5.65-1.82-4.84,1.33Z"/><path class="thymecls-3" d="M198.9,300.16c-2.38-14.09-1-28.26-3.11-42.22-.28-1.87-2.95-1.51-3.44,0-4.38,13.4-1.09,30.06,2.53,43.33.72,2.64,4.45,1.49,4-1.11Z"/><path class="thymecls-3" d="M219.32,281.53c14.9-3.11,31.73-6.68,44.85-14.75a2.13,2.13,0,0,0-1.63-3.88c-15,3.43-29.54,10.19-44.35,14.53-2.64.78-1.54,4.66,1.13,4.1Z"/><path class="thymecls-3" d="M221.28,287.63c9.91,3.84,21.23,6.62,31.86,4.62,1.66-.31,1.7-3.11,0-3.39-10.38-1.72-20.59-2.23-30.78-5.17-2.58-.75-3.49,3-1.08,3.94Z"/><path class="thymecls-3" d="M235.76,254.48c9.08-1.75,20.51-3.72,27.38-10.44a1.84,1.84,0,0,0-1.77-3c-4.38,1.1-8.32,3.49-12.48,5.21a76.63,76.63,0,0,1-14.19,4.46c-2.5.51-1.43,4.31,1.06,3.82Z"/><path class="thymecls-3" d="M231.8,246.32a224.73,224.73,0,0,0-7.57-30.24,1.67,1.67,0,0,0-3.26.44,76.92,76.92,0,0,0,6.61,31.58c1.09,2.55,4.66.6,4.22-1.78Z"/><path class="thymecls-3" d="M225,189.05c3.24,10.63,8,25.66,17.55,32.2a1.64,1.64,0,0,0,2.38-1.83c-1.45-5.49-5.24-10.16-8-15.07a181.31,181.31,0,0,1-8.32-16.83c-.89-2.07-4.28-.59-3.63,1.53Z"/><path class="thymecls-3" d="M266.51,201.41c19.29-4.9,42.1-11.68,57.09-25.46,2.19-2-.6-4.76-2.92-3.78-8.87,3.74-16.91,9.37-25.62,13.53a223.2,223.2,0,0,1-29.64,11.77,2,2,0,0,0,1.09,3.94Z"/><path class="thymecls-3" d="M279.79,178.74c7.89-.72,17.64-3.15,22.79-9.7a2.25,2.25,0,0,0-2.72-3.52c-3.31,1.56-6.25,3.79-9.57,5.37a45,45,0,0,1-11.08,3.59c-2.37.45-1.86,4.48.58,4.26Z"/><path class="thymecls-3" d="M262.42,144.42c-1.41,12-2.9,24.71,2.5,36,.87,1.81,3.59.83,3.62-1,.18-11.67-2.92-23.24-2.16-35,.17-2.59-3.67-2.47-4,0Z"/><path class="thymecls-3" d="M244,159.12c2.67,11.44,5.64,25.51,13.76,34.46,1.47,1.61,3.87-.12,3.45-2-2.5-11.5-9.53-22.33-13.34-33.51a2,2,0,0,0-3.87,1.06Z"/><path class="thymecls-3" d="M276.34,103.72a41.47,41.47,0,0,1,7.58,12.07c1.61,3.86,2.28,8.08,4.27,11.78a2.23,2.23,0,0,0,4-.53c2.68-9.85-5.26-20.84-12.1-27.1a2.67,2.67,0,0,0-3.78,3.78Z"/><path class="thymecls-3" d="M300.06,144.19c14.38-6.92,30.6-11.79,44-20.5,2-1.32.79-4.86-1.72-4.07-15.43,4.84-29.66,14.32-44.31,21.08-2.35,1.08-.31,4.62,2,3.49Z"/><path class="thymecls-3" d="M318.67,96c7.93-1.21,18.38-3.57,24.23-9.43,1.24-1.24.41-3.93-1.54-3.73-4.15.41-7.7,2.14-11.56,3.59-4.15,1.57-8.37,3-12.54,4.46A2.65,2.65,0,0,0,318.67,96Z"/><path class="thymecls-3" d="M296,68.37c3.25,8.38,4.66,18,8.78,26,1,1.86,3.72.89,3.78-1C308.86,84.53,304.35,75,301,67c-1.25-3-6.16-1.76-4.95,1.37Z"/><path class="thymecls-3" d="M312.75,21.74c2.37,5.78,4.75,11.59,6.79,17.5s2.76,12.16,4.93,18c.66,1.77,3.68,2.26,4.09,0,2.34-12.62-6.2-26.48-12.15-37-1.08-1.91-4.55-.6-3.66,1.55Z"/><path class="thymecls-3" d="M334,59.55c11.88-.51,27.46-6.39,32.5-18.18.75-1.75-1-4.36-3-3-4.62,3.23-8.41,7.39-13.25,10.36a55.34,55.34,0,0,1-16.86,6.61c-2.32.52-1.83,4.28.57,4.17Z"/><path class="thymecls-3" d="M188.36,336.6c17.46-.87,35.75-5.44,50.5-15.07,1.57-1,.62-3.86-1.34-3.18-16.59,5.72-32.36,11.18-49.67,14.44-2.15.4-1.67,3.92.51,3.81Z"/><path class="thymecls-3" d="M184.64,349.42c9.25.3,19.68-.56,27.17-6.53,1.87-1.49-.22-4-2.13-3.66-8.56,1.65-16.14,4.84-25,4.85-3.45,0-3.43,5.22,0,5.34Z"/><path class="thymecls-3" d="M348.15,223c.78-7.55,2.2-15.42,1.49-23a2,2,0,0,0-3.9-.53c-3,7.33-2.77,15.81-2,23.54a2.19,2.19,0,0,0,4.37,0Z"/><path class="thymecls-3" d="M364.4,194.46a94.06,94.06,0,0,1,.06-16c.5-5.28,1.92-10.45,2.11-15.74.08-2-2.71-2.63-3.7-1-5.82,9.56-4.95,22.8-2.57,33.3.52,2.26,4.27,1.81,4.1-.55Z"/><path class="thymecls-3" d="M391.1,142.19c-4.42,10.2-9.39,22.76-7.26,34,.44,2.35,3.51,1.79,4.21,0,2-5.12,2.4-10.71,3.53-16.08s2.52-10.75,4.14-16c.83-2.68-3.46-4.62-4.62-1.95Z"/><path class="thymecls-3" d="M380,196.28c13.6,1.44,30.92-.23,41.29-10.17a2.57,2.57,0,0,0-2.48-4.26c-6.13,1.74-11.77,4.86-17.91,6.64A82.6,82.6,0,0,1,380,191.7c-3,.09-2.87,4.27,0,4.58Z"/><path class="thymecls-3" d="M314.23,253.94c-2.91-7.28-1.74-13.78-2.11-21.33a2.14,2.14,0,0,0-4-1.07c-4.71,7.23-2.31,17.26,1.08,24.51,1.29,2.77,6.14.78,5-2.11Z"/><path class="thymecls-3" d="M347.36,238.46c14.9.1,32.11-2.32,44.05-12,2.13-1.72-.18-5.18-2.6-4.46-14.17,4.19-26.37,9.86-41.45,10.83-3.55.23-3.63,5.56,0,5.59Z"/><path class="thymecls-3" d="M330.35,264c8.86,1,19.23,2.35,27.8-.69,2.75-1,2.08-4.51-.65-4.85-8.89-1.13-18.15.48-27.15-.13-3.69-.24-3.55,5.27,0,5.67Z"/><path class="thymecls-3" d="M299,295c10.61,4.28,24.71,7.47,35.71,2.87,2.48-1,2.22-4.55-.65-4.77-11.57-.91-22.36.53-33.92-2.24-2.75-.65-3.64,3.13-1.14,4.14Z"/><path class="thymecls-3" d="M293.92,305c3.1,5.3,9,10,15.4,8,1.6-.51,2.22-3,.5-3.84-4.3-2.09-9-3.25-12.27-6.94-1.77-2-4.93.56-3.63,2.79Z"/><path class="thymecls-3" d="M271.06,327.82c11.61,1.19,27.57,2.54,38.23-3.22a2,2,0,0,0-.46-3.55c-5.91-1.44-11.7-.44-17.67.14-6.72.65-13.41,1.29-20.1,2.18a2.23,2.23,0,0,0,0,4.45Z"/><path class="thymecls-3" d="M250.82,357.29c9.53.44,21.86,1.66,30.85-2,1.65-.67,2-3.16,0-3.71-9.52-2.61-21.78.12-31.38,1.74-2.35.39-1.64,3.87.53,4Z"/><path class="thymecls-3" d="M232.44,380.75c5.84.67,11.68,1.52,17.48,2.44,4.64.73,10.06,1.08,14.13,3.58,2.6,1.59,4.79-1.45,3.79-3.8-2.17-5.06-8-5.33-12.91-6a119,119,0,0,0-22.49-.68,2.21,2.21,0,0,0,0,4.41Z"/><path class="thymecls-3" d="M223.6,399.64a82.65,82.65,0,0,1,14.34,3.23c4.28,1.38,8.39,3.5,12.88,4,2,.21,2.88-2.58,1.61-3.87-6.66-6.76-19.32-7.58-28.25-7.58-2.36,0-3.06,3.91-.58,4.25Z"/><path class="thymecls-3" d="M210.73,76.12q4.82-2.46,9.78-4.6c3.29-1.41,6.76-2.48,9.79-4.41.8-.5.58-2.07-.52-1.94-3.73.43-7.11,2-10.53,3.46s-6.79,3.07-10.11,4.77c-1.81.93-.21,3.64,1.59,2.72Z"/><path class="thymecls-3" d="M220.44,41A62.82,62.82,0,0,1,216.61,27c-.38-2.48-.58-5-.92-7.45-.22-1.61-.32-5.92-3.08-4.94a3,3,0,0,0-1.71,2.66,28.57,28.57,0,0,0-.37,3.92,40.44,40.44,0,0,0,.72,7.53A62.55,62.55,0,0,0,215.75,43c1.16,2.63,5.79.72,4.69-2Z"/><path class="thymecls-3" d="M174,152.76c-1-3.15-2-6.31-3-9.43a65.48,65.48,0,0,0-4.07-9.09c-.55-1.05-2.51-.63-2.35.63a66.6,66.6,0,0,0,1.88,9.71c.91,3.17,2,6.31,2.95,9.45a2.45,2.45,0,0,0,3,1.68,2.43,2.43,0,0,0,1.68-3Z"/><path class="thymecls-3" d="M177.34,185l11.95-7.84c2-1.28,4-2.51,5.85-3.89s3.9-2.83,5.16-5a1.3,1.3,0,0,0-1.45-1.89,16.92,16.92,0,0,0-6.56,2.91c-1.91,1.21-3.76,2.54-5.63,3.82L175,181.1c-2.4,1.64-.17,5.56,2.3,3.94Z"/><path class="thymecls-3" d="M153.56,236c-3.91-6.28-7.66-12.68-11.5-19-.56-.93-2.22-.33-1.82.76A73.65,73.65,0,0,0,144.92,228a77.05,77.05,0,0,0,6.3,9.4c1,1.35,3.29.16,2.34-1.37Z"/><path class="thymecls-3" d="M133.31,305.55c-2.06-3.72-3.86-7.55-5.66-11.41s-3.54-7.68-5.63-11.29c-.89-1.53-2.89-.42-2.66,1.12a49,49,0,0,0,3.86,12.51,109.42,109.42,0,0,0,6.07,11.42c1.53,2.58,5.47.28,4-2.35Z"/><path class="thymecls-3" d="M122.92,346.66c-.29-2-.15-4-.55-6a29.29,29.29,0,0,0-1.71-5.73,23,23,0,0,0-6.92-9.66c-.82-.62-1.59.53-1.26,1.26,1.51,3.33,3.4,6.48,4.75,9.89.67,1.69,1.34,3.4,1.85,5.15a22,22,0,0,1,1.36,5.45,1.26,1.26,0,1,0,2.48-.34Z"/><path class="thymecls-3" d="M284.83,147.88c-.25-.53-.49-1-.72-1.58s-.29-.69-.53-1.28c-.44-1.1-.89-2.2-1.3-3.33-.83-2.29-1.75-4.33-2.63-6.56a1.6,1.6,0,0,0-1.73-1.12,1.56,1.56,0,0,0-1.37,1.54,25.44,25.44,0,0,0,1.28,7.5,45.57,45.57,0,0,0,3.23,7,2.22,2.22,0,0,0,3,.78,2.24,2.24,0,0,0,.78-3Z"/><path class="thymecls-3" d="M309.62,115.79l9.88-2.94c1.59-.47,3.16-1,4.74-1.51a17.43,17.43,0,0,0,5.05-2.27c1.49-1.1,1.1-3.64-1-3.65a16.59,16.59,0,0,0-5.39,1.09c-1.58.5-3.16,1-4.72,1.57l-9.75,3.46a2.27,2.27,0,0,0-1.54,2.71,2.23,2.23,0,0,0,2.72,1.54Z"/><path class="thymecls-3" d="M319.31,64.84c-1.12-2.29-2.23-4.6-3.41-6.87a50.06,50.06,0,0,0-4.13-6.45,1.58,1.58,0,0,0-2.88,1.21,52.06,52.06,0,0,0,2.57,7.68c1,2.39,2.15,4.75,3.25,7.13a2.68,2.68,0,0,0,3.65.95,2.74,2.74,0,0,0,.95-3.65Z"/><path class="thymecls-3" d="M341.45,37.42a47.92,47.92,0,0,0,12.09-7,34.18,34.18,0,0,0,4.85-4.62c1.48-1.73,3.41-4.15,3.22-6.54a1.67,1.67,0,0,0-2.09-1.59c-2.1.68-3.58,2.65-5,4.26s-2.91,3.13-4.46,4.58a43.17,43.17,0,0,1-10.24,7c-2.1,1-.61,4.75,1.63,3.86Z"/><path class="thymecls-3" d="M256.74,224.79A54.34,54.34,0,0,0,269.39,221c4-1.76,7.87-4,10.78-7.31a1.27,1.27,0,0,0-1.53-2c-3.78,1.76-7.33,4-11.15,5.66a56.35,56.35,0,0,1-11.76,3.76,1.9,1.9,0,0,0-1.32,2.32,1.93,1.93,0,0,0,2.33,1.32Z"/><path class="thymecls-3" d="M209.29,311.46a34.32,34.32,0,0,0,11.65-2.23,25.25,25.25,0,0,0,5.29-2.67,21.51,21.51,0,0,0,4.39-4.29,1.22,1.22,0,0,0-1.47-1.9c-1.64.83-3.35,1.5-5,2.26s-3,1.49-4.61,2.1a37.29,37.29,0,0,1-10.23,2.51,2.17,2.17,0,0,0-2.11,2.11,2.12,2.12,0,0,0,2.11,2.11Z"/><path class="thymecls-3" d="M283.82,302.75c-.67-4.44-1.2-8.91-1.72-13.37a65.64,65.64,0,0,0-3-13.23.71.71,0,0,0-1.36,0A40.49,40.49,0,0,0,277,289.9a136.17,136.17,0,0,0,2.5,14,2.26,2.26,0,0,0,2.74,1.56,2.29,2.29,0,0,0,1.56-2.75Z"/><path class="thymecls-3" d="M303.08,269.24a31.28,31.28,0,0,1-2.89-7.25c-.19-.66-.33-1.34-.51-2s-.46-1.17-.62-1.81c-.33-1.31-.7-2.59-1.14-3.86-.2-.57-1.11-.83-1.42-.18a11.9,11.9,0,0,0-1.12,4.26,18.23,18.23,0,0,0-.16,2.2,19.78,19.78,0,0,0,.37,2.53,25.91,25.91,0,0,0,3.47,8.47c1.55,2.56,5.53.25,4-2.35Z"/><path class="thymecls-3" d="M333.06,234.67a96.42,96.42,0,0,1,.06-11.9c.15-2,.24-4,.45-6a29.23,29.23,0,0,0,.46-5.9c-.15-1.64-2.48-2.66-3.38-.92a17.88,17.88,0,0,0-1.54,6.37,45.58,45.58,0,0,0-.38,6.18,57.25,57.25,0,0,0,1.62,12.5,1.39,1.39,0,0,0,2.71-.37Z"/><path class="thymecls-3" d="M334.84,201.76a.11.11,0,0,0,0-.21.11.11,0,1,0,0,.21Z"/><path class="thymecls-3" d="M370,211.51a38.39,38.39,0,0,0,11.77,0c3.73-.57,7.81-1.78,10.43-4.65a1.54,1.54,0,0,0-1.48-2.56c-3.43.47-6.67,1.84-10.05,2.55a32.92,32.92,0,0,1-10.1.45c-2.37-.25-3,3.82-.57,4.19Z"/><path class="thymecls-3" d="M308,277.16A58,58,0,0,0,328,281a49.44,49.44,0,0,0,10.29-1c3.22-.64,6.71-1.59,9.25-3.72,1.47-1.22.2-3.49-1.47-3.55-3.1-.12-6.33.94-9.37,1.5s-6,.94-9,1.2a68.32,68.32,0,0,1-18.88-1,1.39,1.39,0,0,0-.73,2.67Z"/><path class="thymecls-3" d="M254.94,327.88c-.37-2.91-.52-5.84-.87-8.76-.18-1.47-.4-2.95-.62-4.42s-.27-2.81-.51-4.2c-.13-.69-1.13-.59-1.31,0a37.63,37.63,0,0,0-.85,4.2,41.09,41.09,0,0,0-.57,4.42,50.38,50.38,0,0,0,.42,8.76,2.22,2.22,0,0,0,2.16,2.15c1.05,0,2.31-1,2.15-2.15Z"/><path class="thymecls-3" d="M250.53,367c2.43.34,4.86.6,7.31.72s5,.23,7.17-.7a.83.83,0,0,0,0-1.59c-2.23-.72-4.71-.6-7-.69s-4.72-.29-7.06-.6c-1.61-.21-2,2.63-.39,2.86Z"/><path class="thymecls-3" d="M214.18,411.61c5.41,2.38,10.88,4.6,16.43,6.62a100.28,100.28,0,0,0,17.24,4.34,1.55,1.55,0,0,0,.83-3c-5.49-2-10.91-4.15-16.48-5.93s-11-3.72-16.41-5.85c-2.18-.86-3.77,2.86-1.61,3.81Z"/><path class="thymecls-3" d="M403.87,159.39a47.33,47.33,0,0,1,1.72-7.79c.8-2.59,2-5.16,2.36-7.85.18-1.3-1.27-2.46-2.35-1.37-2.14,2.14-3.26,5.25-4.11,8.09a53.19,53.19,0,0,0-1.79,8.92,2.1,2.1,0,0,0,2.08,2.09,2.14,2.14,0,0,0,2.09-2.09Z"/><path class="thymecls-3" d="M397.74,175.16a37.13,37.13,0,0,0,14.54,1.65c5-.51,10.15-1.71,13.94-5.28,1.62-1.52-.11-3.79-2-3.45-4.16.75-8.18,2.26-12.39,2.79a37.08,37.08,0,0,1-12.78-.47,2.47,2.47,0,0,0-1.31,4.76Z"/></g></g></svg>