<svg xmlns="http://www.w3.org/2000/svg" viewBox="0 0 512 512"><defs><style>.tomatotomatocls-1{fill:none;}.tomatotomatocls-2{fill:#e01f4c;}.tomatotomatocls-3{fill:#fff;}.tomatotomatocls-4{fill:#4a2d2d;}</style></defs><g id="Capa_2" data-name="Capa 2"><g id="bocetos"><rect class="tomatotomatocls-1" width="512" height="512"/><path class="tomatotomatocls-2" d="M399.37,233.07c-15-26.18-37.78-43.91-74.75-45.73A46.16,46.16,0,0,1,311.53,195a100.69,100.69,0,0,1-19.76,5.4c-3,.56-6,1.05-9,1.58-2.56.45-5.37.8-7.73,2-1.9.93-1.76,1.15-1,3A46.83,46.83,0,0,0,278.9,215c1.94,2.86,3.64,5.84,5.66,8.64.6.84,1.22,1.67,1.84,2.51,8.06,6.54,16.93,12,24.93,18.63a4,4,0,0,1,.63,4.85,4.2,4.2,0,0,1-4.52,1.84,86.2,86.2,0,0,1-39.51-15c-5.93-3.92-11.36-8.63-15.24-14.66a37.82,37.82,0,0,1-4.37-9.75c-.77-2.59-1.29-5.3-2.18-7.86-5.87,2.89-11.23,6.8-17,9.92-7.23,3.93-15,6.88-22.59,10.11-6.26,2.68-12.15,5.72-18.16,8.88-5.16,2.72-11,5.73-17,5.43a3.64,3.64,0,0,1-2.54-6.14c5.15-5.89,11.75-10.29,17.93-15a141.84,141.84,0,0,1,19.8-12.67c5.45-2.87,11.05-5.36,16.56-8.09,3.31-1.63,7-3.49,9.38-6.34-4.53-1.08-9.16-1.74-13.57-3.28-5.88-2.05-11.12-5.54-17.1-7.28-20.93-1.23-44.12.7-63.12,10.59C91.51,215,74,286.11,90.86,334.62s51.74,73.73,97.66,66,66-9.06,95.08-.65,88,13.59,118.36-32.34S414.9,260.24,399.37,233.07Z"/><path class="tomatotomatocls-3" d="M171,198.85c-12.85,3.19-24.81,10.83-34.23,20.05-8.39,8.2-17.73,20.69-14.16,33a4.8,4.8,0,0,0,7.93,2.09c7.6-7.11,10.82-17.86,17.82-25.69,7.59-8.48,17.29-14,26.38-20.58,4.29-3.12,1.9-10.28-3.74-8.88Z"/><path class="tomatotomatocls-3" d="M119.17,274.88l1.11,1.94a3.42,3.42,0,0,0,5.84,0l1.11-1.94a4.67,4.67,0,1,0-8.06,0Z"/><path class="tomatotomatocls-3" d="M354.16,373.72c7.38-.19,13.89-2.11,19.23-7.54,5-5.09,10.24-14.28,4.43-20.52a5.53,5.53,0,0,0-6.54-.84c-4.56,2.24-5.1,7.52-8,11.23-2.51,3.2-6.44,6.75-10.42,7.9-5.28,1.54-4.41,9.92,1.32,9.77Z"/><path class="tomatotomatocls-4" d="M340.41,149.21a139.29,139.29,0,0,1-31.83,20.6,124.07,124.07,0,0,1-17.84,6.8c-2.55.76-14.52,4.68-15.76,3.32-2.56-2.82,5-14,6.6-16.24a115,115,0,0,1,10.73-12.19c6.22-6.4,13.8-13.44,16.71-22.14,7.15-21.34-17.71-26.25-31.18-14.84-16.73,14.17-23.92,39.9-27,61.06-27.52-1.44-52.34-18.54-62-44.69-.91-2.47-4.48-4.19-6.52-1.72-10.88,13.23-9.78,32.29.18,45.85,8.21,11.19,22.08,18.18,36.23,20.27-8.7,4-17.57,7.73-25.71,13.1-12.22,8.06-22.06,18-32.12,28.58-2.88,3,.08,7.17,3.81,6.55,25.95-4.35,55.45-12.69,77-29.17,7.15,13.08,14.87,23.82,28.75,31.72a71.4,71.4,0,0,0,47,8.46c4.4-.69,4.73-7.25,1.2-9.23-16.89-9.47-29.12-22.78-40.28-38,16.09-1,31.32-3.56,45.22-13.48A59.29,59.29,0,0,0,348,153.64C348.71,149.17,344.05,146.06,340.41,149.21Zm-66.35,51.2c-2.42,0-5.21,2.83-4.2,5.34,6.61,16.4,24.52,31.45,38.64,41.88-27.49-.49-55.72-19.37-60.15-41.56-.72-3.6-4.1-4.12-6.95-2.75-12.55,6.05-24.89,12.22-37.61,18-8.92,4.07-23.71,10.18-33,13.18a266.76,266.76,0,0,1,24.9-20.86C206.51,206,223,195.31,236.39,193.3c4-.61,3.49-5-.19-5.86-14.42-3.42-29.08-3.66-41.31-13.3-10-7.88-15.57-22.17-10.51-33.88-.38.88,2.92,5.43,3.46,6.3,1.29,2.12,2.69,4.18,4.18,6.17a77.65,77.65,0,0,0,10,10.94,76.72,76.72,0,0,0,25.08,15.25,72.25,72.25,0,0,0,13.68,3.85c4.62.73,10.31,1.63,14.11-1.83,5.21-4.73,6.76-12.39,8.4-18.92,2-7.94,6.23-16,10.08-23.21,3.51-6.59,13.83-25.81,23.73-17.47,3.47,2.92,2.32,4.81.35,8.62a50.77,50.77,0,0,1-5.38,7.75c-2.85,3.55-6,6.9-9.07,10.23-5.87,6.31-11.88,12.76-15.16,20.87-2.21,5.46-3.46,13.52,1.57,18.18,5.41,5,16.29.89,22.22-.69,15.85-4.24,34.37-17,47.47-26.47C329,186.18,298.08,200.64,274.06,200.41Z"/></g></g></svg>