<svg xmlns="http://www.w3.org/2000/svg" viewBox="0 0 512 512"><defs><style>.trufflecls-1{fill:none;}.trufflecls-2{fill:#897777;}.trufflecls-3{fill:#4a2d2d;}.trufflecls-4{fill:#fff;}</style></defs><g id="Capa_2" data-name="Capa 2"><g id="bocetos"><rect class="trufflecls-1" width="512" height="512"/><path class="trufflecls-2" d="M265.44,70c-36.38,13-48.07,21.44-76,17.54S132.91,70,107.58,97.94s0,70.81-5.85,87.7-53.92,46.78-50,87.7,21.44,123.44,94.2,159.17S268,441,296.63,419.52s57.82-36.39,92.9-49.38S455.14,304.53,450,262.3s-26.64-50-39.63-85.75-14.6-64.65-30.54-79.91C349.25,67.4,301.82,57,265.44,70Z"/><path class="trufflecls-3" d="M145.26,394a8.54,8.54,0,0,0,8.11-5.46,6.67,6.67,0,0,0,.77-3.42l-.32-2.36a8.8,8.8,0,0,0-2.28-3.91l-1.8-1.39a8.83,8.83,0,0,0-4.48-1.21,9.83,9.83,0,0,0-6.28,2.6,6.58,6.58,0,0,0-1.83,2.85,6.72,6.72,0,0,0-.77,3.42l.32,2.36a8.84,8.84,0,0,0,2.28,3.92l1.8,1.39a8.81,8.81,0,0,0,4.48,1.21Z"/><path class="trufflecls-3" d="M193.87,344.67l-.14.15-1.16,1.5a.83.83,0,0,0-.08.12,13.09,13.09,0,0,0-.9,2.07,7.32,7.32,0,0,0,1.89,7.13,17.2,17.2,0,0,0,1.53,1.17l-2.49-2.49,0,.07a7.75,7.75,0,0,0,4.1,3.15l1.82.25a6.89,6.89,0,0,0,3.46-.94l.06,0-5.33.69.05,0,1.95.26a5.46,5.46,0,0,0,2.82-.63,3.69,3.69,0,0,0,1.62-.94,3.29,3.29,0,0,0,.77-.61c.07-.05.12-.11.19-.17l-1.49,1.16a2.07,2.07,0,0,1,.25-.15l-1.77.75.09,0a7.56,7.56,0,0,0,3.29-1.92,7.46,7.46,0,0,0,1.92-3.3l.27-2a7.39,7.39,0,0,0-1-3.77,8.38,8.38,0,0,0-4.46-3.43,7.56,7.56,0,0,0-7.27,1.92Z"/><path class="trufflecls-3" d="M202.43,409.81a7.74,7.74,0,0,0,4-.9,10.71,10.71,0,0,0,6.42-9.53l-.38-2.78a10.36,10.36,0,0,0-2.68-4.6l-2.11-1.64a10.39,10.39,0,0,0-5.27-1.42,10.1,10.1,0,0,0-9.54,6.41,8,8,0,0,0-.9,4l.37,2.77a10.46,10.46,0,0,0,2.69,4.61l2.11,1.63a10.36,10.36,0,0,0,5.27,1.42Z"/><path class="trufflecls-3" d="M341.63,143.41v-.18a4.56,4.56,0,0,0-.53-2.44,3.1,3.1,0,0,0-.8-1.38,3.19,3.19,0,0,0-1.11-1.11c-.27-.21-.52-.41-.8-.6a4.77,4.77,0,0,0-.86-.38,3.32,3.32,0,0,0-1.69-.46,5,5,0,0,0-2.66.12l-1.59.67-1.35,1-1,1.35-.67,1.59-.24,1.77.24,1.78.67,1.59,1,1.35,1.35,1,1.59.67a5,5,0,0,0,2.66.12,3.32,3.32,0,0,0,1.69-.45,3.43,3.43,0,0,0,1.47-.86,3.34,3.34,0,0,0,1.19-1.2,3.22,3.22,0,0,0,.86-1.47,5,5,0,0,0,.58-2.57Z"/><path class="trufflecls-3" d="M347,112.94a11.88,11.88,0,0,0-.61,2.38,5.64,5.64,0,0,0,.14,3l.06.36a3.3,3.3,0,0,0,.21.82l.74,1.74a5.53,5.53,0,0,0,1.88,2,7,7,0,0,0,4.42,1.56,8.78,8.78,0,0,0,3.68-1,5.62,5.62,0,0,0,2-1.88,5.5,5.5,0,0,0,1.3-2.48,3.49,3.49,0,0,0,.2-.7l.08-.48a5.74,5.74,0,0,0,.13-3,11.24,11.24,0,0,0-.61-2.38,7.52,7.52,0,0,0-2.54-3.68,6.75,6.75,0,0,0-4.29-1.52,8.43,8.43,0,0,0-3.58,1,7.39,7.39,0,0,0-3.26,4.23Z"/><path class="trufflecls-3" d="M393.59,281.9a8.15,8.15,0,0,0-2.13,1.94,3.6,3.6,0,0,0-.93,1.6,2.61,2.61,0,0,0-.39,1l3.06-4-.12.08a6.75,6.75,0,0,0-3.25,5.68,6.6,6.6,0,0,0,3.25,5.68l.12.06-3.3-5.75a7.6,7.6,0,0,0,1,3.84l1.16,1.49,1.49,1.16a5.58,5.58,0,0,0,2.75.88,3.87,3.87,0,0,0,2,0,3.69,3.69,0,0,0,1.86-.51,3.59,3.59,0,0,0,1.63-1,3.69,3.69,0,0,0,1.33-1.33,5.58,5.58,0,0,0,1.32-2.51l.27-2-.27-2-.74-1.77-1.16-1.49-1.5-1.16a5.41,5.41,0,0,0-2.74-.87,3.66,3.66,0,0,0-2,0,5.47,5.47,0,0,0-2.75.87Z"/><path class="trufflecls-3" d="M349.9,258.35l0,.1-.27.63a3.82,3.82,0,0,0-.43,1.92l.18,1.33.5,1.19v0l0,.06,0,0a1.47,1.47,0,0,0,.42.55,4,4,0,0,0,1.47,1.35l1.26.53,1.4.19,1.39-.19,1.26-.53a4,4,0,0,0,1.48-1.35,2.66,2.66,0,0,0,.67-1.16,2.6,2.6,0,0,0,.36-1.33,2.56,2.56,0,0,0,0-1.4,3.9,3.9,0,0,0-.62-1.95l-.82-1.07-1.07-.82-1.26-.53-1.39-.19a3.93,3.93,0,0,0-2,.45,2.63,2.63,0,0,0-1.16.68,4,4,0,0,0-1.36,1.48Z"/><path class="trufflecls-3" d="M173.81,155a8.75,8.75,0,0,0,8.25-5.55,7,7,0,0,0,.78-3.48l-.33-2.4a9,9,0,0,0-2.32-4l-1.83-1.42a9.05,9.05,0,0,0-4.55-1.23,8.71,8.71,0,0,0-8.25,5.55,6.74,6.74,0,0,0-.78,3.48l.32,2.4a9,9,0,0,0,2.32,4l1.83,1.42a9.12,9.12,0,0,0,4.56,1.23Z"/><path class="trufflecls-3" d="M145.91,131.39c8.78,0,8.79-13.64,0-13.64s-8.8,13.64,0,13.64Z"/><path class="trufflecls-3" d="M364.53,158l-.2.32,2.64-2.64-.07,0a5.65,5.65,0,0,0-2.1,1.93,3.73,3.73,0,0,0-1,1.65,5.66,5.66,0,0,0-.65,2.89l.27,2,.75,1.79a5.73,5.73,0,0,0,1.93,2.1,3.62,3.62,0,0,0,1.66,1,5.64,5.64,0,0,0,2.89.65l2-.27,1.79-.75a5.69,5.69,0,0,0,2.11-1.93,3.8,3.8,0,0,0,1-1.66,5.71,5.71,0,0,0,.65-2.89l-.27-2-.76-1.79a7.46,7.46,0,0,0-2.69-2.69l-.06,0,2.64,2.64-.21-.32a7.14,7.14,0,0,0-9.75-2.56,7.22,7.22,0,0,0-2.56,2.56Z"/><path class="trufflecls-3" d="M307.64,341.08a7.65,7.65,0,0,0,7.25-4.87,6,6,0,0,0,.68-3l-.28-2.11a8,8,0,0,0-2-3.5,8.26,8.26,0,0,0-5.61-2.32,8.13,8.13,0,0,0-7.92,7.93l.28,2.1a8,8,0,0,0,2,3.5,8.25,8.25,0,0,0,5.6,2.32Z"/><path class="trufflecls-3" d="M164,273.1a3.18,3.18,0,0,0,.23-.4l-.81,1,.08-.07-1,.79a6.87,6.87,0,0,0,.72-.52,2.4,2.4,0,0,0,.88-.88c.15-.17.29-.36.43-.55a4.7,4.7,0,0,0,0-4.83,5.66,5.66,0,0,0-1.31-1.43,6.49,6.49,0,0,0-.72-.52l1,.79-.08-.07.81,1a3.18,3.18,0,0,0-.23-.4,4.44,4.44,0,0,0-1.53-1.66,2.91,2.91,0,0,0-1.31-.77,4.51,4.51,0,0,0-2.29-.51l-1.58.21-1.42.6a4.55,4.55,0,0,0-1.67,1.53,2.94,2.94,0,0,0-.76,1.31,4.35,4.35,0,0,0-.51,2.3,6.9,6.9,0,0,0,.81,3,4.37,4.37,0,0,0,1.53,1.66,3,3,0,0,0,1.31.77,4.51,4.51,0,0,0,2.29.51l1.58-.21,1.42-.6A5.88,5.88,0,0,0,164,273.1Z"/><path class="trufflecls-3" d="M146.8,226.23c8.09-.52,17-1.32,24.33,2.93,7,4,10.81,11.53,13.23,18.89,4.19,12.73,3.63,26.34,9.82,38.46,1,2,4.62,1.67,5-.66,2.72-15.92-.67-37.61-9.52-51.34-10.18-15.79-25.23-18.42-42.88-16.59-5.22.54-5.41,8.66,0,8.31Z"/><path class="trufflecls-3" d="M257.09,361.89c9.81,7.69,24.12,11.86,35,3.71,2.27-1.71,1.93-6.35-1.64-6.05-9.91.83-19.59,1.35-28.35-4.19-3.9-2.47-8.8,3.58-5,6.53Z"/><path class="trufflecls-3" d="M275.24,114.15c-2.35,6.2-3,17,3.9,20.67a3.55,3.55,0,0,0,5.28-3c.16-2.67-.88-5.15-1.39-7.73a15.52,15.52,0,0,1,.52-7.62c1.62-5.4-6.38-7.38-8.31-2.29Z"/><path class="trufflecls-3" d="M350.68,214.67a85.36,85.36,0,0,1,8.23,3.83c3,1.53,8.09,2.61,9.32-1.84,1-3.82-2.27-6.29-5.26-7.79a83.65,83.65,0,0,0-9.57-4.05c-2.6-.92-5.59,1-6.29,3.57-.78,2.87,1,5.31,3.57,6.28Z"/><path class="trufflecls-4" d="M124.25,319.82a6.59,6.59,0,0,0,3.39-.75,7.89,7.89,0,0,0,4.66-4.66,6.55,6.55,0,0,0,.75-3.39l-.31-2.34a8.81,8.81,0,0,0-2.26-3.88l-1.79-1.38a8.85,8.85,0,0,0-4.44-1.2A9.79,9.79,0,0,0,118,304.8a6.55,6.55,0,0,0-1.82,2.83,6.7,6.7,0,0,0-.76,3.39l.32,2.34a8.75,8.75,0,0,0,2.26,3.89l1.78,1.37a8.65,8.65,0,0,0,4.44,1.2Z"/><path class="trufflecls-4" d="M149.68,326.62l0,.79a4.3,4.3,0,0,0,.49,2.21,4.35,4.35,0,0,0,1.18,1.84,6.35,6.35,0,0,0,4.05,1.67l1.52-.2a5.7,5.7,0,0,0,2.52-1.47l.89-1.16a5.62,5.62,0,0,0,.78-2.89l0-.79a6.34,6.34,0,0,0-1.68-4.07,4.25,4.25,0,0,0-1.86-1.19,4.21,4.21,0,0,0-2.21-.5l-1.53.21a5.59,5.59,0,0,0-2.54,1.48l-.9,1.16a5.73,5.73,0,0,0-.79,2.91Z"/><path class="trufflecls-4" d="M238.59,185.14a6.19,6.19,0,0,0,3.23-.72,7.5,7.5,0,0,0,4.43-4.43,6.19,6.19,0,0,0,.72-3.23l-.3-2.23a8.3,8.3,0,0,0-2.15-3.7l-1.7-1.31a8.39,8.39,0,0,0-4.23-1.14,8.61,8.61,0,0,0-8.38,8.38l.3,2.23a8.49,8.49,0,0,0,2.15,3.7l1.7,1.31a8.29,8.29,0,0,0,4.23,1.14Z"/><path class="trufflecls-4" d="M302.69,169.11c6.87,0,6.88-10.68,0-10.68s-6.88,10.68,0,10.68Z"/><path class="trufflecls-4" d="M312.22,122.13l.67-.07a3.2,3.2,0,0,0,1.61-.36,3.8,3.8,0,0,0,2.22-2.22,3,3,0,0,0,.36-1.62l-.15-1.12a4,4,0,0,0-1.08-1.85l-.85-.66a4.13,4.13,0,0,0-2.11-.57l-.67-.07a3.23,3.23,0,0,0-1.65.37,3.83,3.83,0,0,0-2.25,2.25,3.23,3.23,0,0,0-.37,1.65l.15,1.14a4.22,4.22,0,0,0,1.1,1.88l.86.67a4.32,4.32,0,0,0,2.16.58Z"/><path class="trufflecls-4" d="M307.89,269.45c8.92,0,8.94-13.87,0-13.87s-8.94,13.87,0,13.87Z"/><path class="trufflecls-4" d="M374.59,325.92a3.44,3.44,0,0,0,1.73-.39,4,4,0,0,0,2.38-2.38,3.41,3.41,0,0,0,.39-1.73l-.17-1.2a4.5,4.5,0,0,0-1.15-2l-.91-.71a4.54,4.54,0,0,0-2.27-.61,5,5,0,0,0-3.19,1.32,3.51,3.51,0,0,0-.93,1.44,3.36,3.36,0,0,0-.38,1.74l.16,1.19a4.48,4.48,0,0,0,1.15,2l.91.7a4.56,4.56,0,0,0,2.28.62Z"/></g></g></svg>