<svg xmlns="http://www.w3.org/2000/svg" viewBox="0 0 512 512"><defs><style>.turmeric-curcumacls-1{fill:none;}.turmeric-curcumacls-2{fill:#fea14a;}.turmeric-curcumacls-3{fill:#bb735e;}.turmeric-curcumacls-4{fill:#4a2d2d;}</style></defs><g id="Capa_2" data-name="Capa 2"><g id="bocetos"><rect class="turmeric-curcumacls-1" width="512" height="512"/><path class="turmeric-curcumacls-2" d="M317.7,370.81s-36.78-7.65-52.44,2.19S238,410.5,244.87,431.26s29.13,28.4,51.71,21.48,33.86-29.13,36.05-44.06S317.7,370.81,317.7,370.81Z"/><path class="turmeric-curcumacls-3" d="M105.05,438.55c-9.85,0-18.38-3.45-24.68-10l-.12-.13-.15-.1a26.87,26.87,0,0,1-9.25-11.88c-7.16-17.52-1.44-39.28,5-60.06C83,333.7,92.45,314.38,104,299l1.17-1.55-1.55-1.18c-15.2-11.56-26-26.79-31.22-44-5.67-18.74-5.08-40,1.85-66.94.55-2.15,1.1-4.44,1.67-6.8,3.56-14.74,8-33.09,18.93-42.45a19.21,19.21,0,0,1,12.49-4.93c7.15,0,13.25,4.59,15.93,12,2.25,6.2,2.32,13.18,2.4,19.94,0,1.55,0,3.08.07,4.6.29,10.47.51,20.94.72,31.4,0,1.32,0,2.7,0,4.11,0,8.35,0,17.82,4.76,24.91,2.64,3.95,6.08,6,10.21,6,8.37,0,16.85-8.52,20.11-12.18,17.55-19.72,29.06-43.62,40.2-66.73,7.45-15.45,15.15-31.43,24.56-45.92,10-15.47,31-43,58.38-53.49a51.35,51.35,0,0,1,22.66-4.89,56.76,56.76,0,0,1,16.27,2.28c17.68,5.38,26.13,20.33,23.19,41-2.65,18.69-10.89,40.15-23.83,62-10,16.85-19.58,29.49-29.44,38.61l-4.31,4,5.85-.62a284.65,284.65,0,0,1,30.1-1.75A163.6,163.6,0,0,1,368,201.58c11.6,3.1,24.48,9.1,29.22,21a17.46,17.46,0,0,1-.36,14.41c-3.47,6.68-12.24,12.08-26.07,16.06-10.85,4.14-23,6-33.67,7.71l-1.29.2c-13,2.05-30.24,4.94-47.38,9.16-17.6,5.88-32,13.9-44.2,24.55-24.3,21.24-42.68,48.87-58.9,73.24l-3.83,5.78c-14.48,21.95-30.89,46.82-53.95,59A48.33,48.33,0,0,1,105.05,438.55Z"/><path class="turmeric-curcumacls-3" d="M442.74,333.81c-3.08-11.85-13.16-20.13-24.05-24.63-27.48-11.35-58-2.39-83.18,10.52-24.43,12.51-47.22,29.43-68.72,47-19.38,15.79-38.15,38.87-28.38,65.48a44,44,0,0,0,20,23.27c10.29,5.66,20.18,5.28,31.47,5.06,14.68-.28,30-6.54,43.11-12.58,13.65-6.27,26.62-13.92,39.31-21.94,23-14.52,46.46-31.81,61.13-55.19C440.17,360.09,446.08,346.63,442.74,333.81ZM243.33,422.62c-2.92-18.81,6.34-34.43,20.56-44.28,8.3-5.75,17.21-9.19,28.11-8.71,12.2.54,23.69,7.63,28.22,19.21,8.4,21.48-5.44,52.61-26.43,61.69A36.54,36.54,0,0,1,243.33,422.62Z"/><path class="turmeric-curcumacls-4" d="M268.93,75.82c8.42,26.1,34.43,54.73,63.88,55.4,2.54.06,2.57-3.25.55-4.1-13.08-5.46-25.49-9.35-36.48-18.87A87.67,87.67,0,0,1,273,74.69c-1-2.45-4.93-1.52-4.08,1.13Z"/><path class="turmeric-curcumacls-4" d="M246.62,122c12.37,20.31,37.52,42.29,63.07,40.6a2.23,2.23,0,0,0,.59-4.35c-11.4-4-22.52-6-33.22-12.15a87.22,87.22,0,0,1-27.87-25.61c-1.08-1.55-3.59-.16-2.57,1.51Z"/><path class="turmeric-curcumacls-4" d="M222.94,171.48c16.1,19.48,45.89,37.25,72.18,30.75,1.78-.44,2-3.47,0-3.79-12.12-1.95-23.9-2.24-35.51-6.84a88.76,88.76,0,0,1-33.4-23.39c-2-2.24-5.14,1-3.27,3.27Z"/><path class="turmeric-curcumacls-4" d="M300.43,201.22c-13.73,9.29-18.15,33.92-15.71,49.21.33,2.09,3.4,1.42,3.51-.48.82-13.34,2.54-36,14.46-44.87,2.27-1.67.17-5.5-2.26-3.86Z"/><path class="turmeric-curcumacls-4" d="M327.46,203.43c-10.25,15.16-17.22,37.65-4.94,53.84,1.29,1.7,4.84.81,3.86-1.63-7.2-18-5.26-33.45,5.28-49.75,1.71-2.66-2.46-5-4.2-2.46Z"/><path class="turmeric-curcumacls-4" d="M362.73,248.23c-7.27-10.65-7.43-21.1-4.9-33.28a2.07,2.07,0,0,0-3.77-1.59c-8.48,11.42-4.68,28.37,4.84,37.82,1.91,1.89,5.43-.6,3.83-3Z"/><path class="turmeric-curcumacls-4" d="M180.81,206.43c9.77,30.46,37.2,53,69.51,54.46,1.64.07,2.08-2.71.39-2.94-29.67-4-55.74-24-65.21-52.81-1-3-5.66-1.71-4.69,1.29Z"/><path class="turmeric-curcumacls-4" d="M151.93,270.66c6.59,11.29,17.44,18.19,28.81,24.06,12.09,6.24,26.43,13.47,40.08,8.18,1.75-.67,1.67-3.51-.47-3.47-14.2.3-25.51-3.74-38-10.2-10.28-5.3-20.27-10.7-26.59-20.78-1.49-2.38-5.2-.24-3.78,2.21Z"/><path class="turmeric-curcumacls-4" d="M129.72,328.45c15.11,15.1,38.19,28,60.25,25.17,1.8-.23,2.6-3,.47-3.46-21.71-4.83-40.45-9.49-57.35-25.08-2.25-2.08-5.55,1.19-3.37,3.37Z"/><path class="turmeric-curcumacls-4" d="M81.61,351.82a154.7,154.7,0,0,0,34.18,28.6c11.31,6.92,25.45,14.74,38.89,15.53,1.82.11,2.45-2.53.92-3.38-11.85-6.57-25.15-10.06-37-17a162.36,162.36,0,0,1-33.91-26.86c-2-2.05-5,1-3.12,3.13Z"/><path class="turmeric-curcumacls-4" d="M77.54,188c14,6.31,32.81,7.17,45.22-3.14,1.47-1.22-.11-4-1.91-3.28-14,5.49-26.37,8.61-40.85,2.22-2.83-1.26-5.32,2.91-2.46,4.2Z"/><path class="turmeric-curcumacls-4" d="M72.35,240.91c14.61,8.86,35.28,9.94,49.35-.69,1.53-1.16.72-4.34-1.45-3.46-15.56,6.33-29.93,7.75-45.36-.18-2.87-1.47-5.32,2.65-2.54,4.33Z"/><path class="turmeric-curcumacls-4" d="M213,206.83c4.83,0,4.84-7.49,0-7.49s-4.83,7.49,0,7.49Z"/><path class="turmeric-curcumacls-4" d="M219.49,226.23c3,0,3-4.62,0-4.62s-3,4.62,0,4.62Z"/><path class="turmeric-curcumacls-4" d="M164.37,319.92c5.69,0,5.7-8.84,0-8.84s-5.69,8.84,0,8.84Z"/><path class="turmeric-curcumacls-4" d="M152.22,367.62a2.33,2.33,0,0,0,1.19-.26,2.39,2.39,0,0,0,1-.64,2.27,2.27,0,0,0,.63-1,2.22,2.22,0,0,0,.27-1.19l-.11-.82a3.17,3.17,0,0,0-.79-1.36l-.63-.48a3,3,0,0,0-1.55-.42,2.45,2.45,0,0,0-1.19.27,2.27,2.27,0,0,0-1,.63,2.25,2.25,0,0,0-.63,1,2.28,2.28,0,0,0-.27,1.18l.11.82a3.11,3.11,0,0,0,.79,1.36l.63.48a3,3,0,0,0,1.55.42Z"/><path class="turmeric-curcumacls-4" d="M186.07,330.52a1.57,1.57,0,0,0,0-3.13,1.57,1.57,0,0,0,0,3.13Z"/><path class="turmeric-curcumacls-4" d="M106.65,410.57a3,3,0,0,0,1.51-.34,2.92,2.92,0,0,0,1.26-.81,3,3,0,0,0,.81-1.27,2.89,2.89,0,0,0,.34-1.51l-.14-1a3.94,3.94,0,0,0-1-1.73l-.79-.61a3.83,3.83,0,0,0-2-.54,2.89,2.89,0,0,0-1.51.34,3,3,0,0,0-1.27.81,2.92,2.92,0,0,0-.81,1.26,3,3,0,0,0-.33,1.51l.14,1.05a3.92,3.92,0,0,0,1,1.73l.8.61a4,4,0,0,0,2,.54Z"/><path class="turmeric-curcumacls-4" d="M87.12,210.06a2.62,2.62,0,0,0,1.35-.3,2.51,2.51,0,0,0,1.12-.73,3.81,3.81,0,0,0,1-2.47l-.13-.93a3.38,3.38,0,0,0-.9-1.55l-.71-.55a3.49,3.49,0,0,0-1.76-.47,3.92,3.92,0,0,0-2.48,1,2.67,2.67,0,0,0-.72,1.13,2.62,2.62,0,0,0-.3,1.35l.12.93a3.53,3.53,0,0,0,.9,1.54l.71.55a3.46,3.46,0,0,0,1.77.48Z"/><path class="turmeric-curcumacls-4" d="M87.12,226.61c2.91,0,2.91-4.52,0-4.52s-2.92,4.52,0,4.52Z"/><path class="turmeric-curcumacls-4" d="M331.37,331.45c16.52,4.09,27.67,22.6,32.08,38,4.57,15.93,2.7,31.18-2.43,46.63-.83,2.49,3,4.08,4.22,1.78,9.1-16.68,8.85-37.85,2.28-55.36-5.79-15.44-18-32.93-35.6-35.07-2.33-.28-2.77,3.5-.55,4.06Z"/><path class="turmeric-curcumacls-4" d="M382.89,320.86c17.35,12.58,23.86,33,19.59,53.71a2,2,0,0,0,3.83,1.05c7.75-22.6-1.52-45.73-21.11-58.71-2.49-1.64-4.65,2.26-2.31,3.95Z"/><path class="turmeric-curcumacls-4" d="M335.92,378.66a2.1,2.1,0,0,1,.15.3l-.4-.95a4.49,4.49,0,0,0,2.1,2.8l-1.33-1.33a4.4,4.4,0,0,0,2.35,1.81l-2.19-2.19c.07.3.06.19,0-.35a1.5,1.5,0,0,1,0,.3c.08-.53.09-.55,0-.07a1.88,1.88,0,0,0-.05.47,2.49,2.49,0,0,0,.35,1.26q-.34-.79-.09-.18a2.22,2.22,0,0,0,.94,1.07,3.34,3.34,0,0,0,4.09-1.12l-1.39.81a3.69,3.69,0,0,0,2.41-1.81l-.58.75a4,4,0,0,0,1.21-3.48,6.07,6.07,0,0,0-.71-2.1,4,4,0,0,0-5.43-1.43,4.06,4.06,0,0,0-1.43,5.44Z"/><path class="turmeric-curcumacls-4" d="M341.48,404.64l.43,0a3,3,0,0,1,.43,0l.52-.07.46-.19a1.92,1.92,0,0,0,.8-.93,1,1,0,0,0,.13-.49,1.1,1.1,0,0,0,0-.51,1.94,1.94,0,0,0-.54-1.12,3.08,3.08,0,0,1-.24-.27l.32.42-.25-.42a2.39,2.39,0,1,0-4.12,2.41,2.39,2.39,0,0,0,2.06,1.18Z"/><path class="turmeric-curcumacls-4" d="M417.41,347.06a2.5,2.5,0,0,0,1.29-.29,3,3,0,0,0,1.77-1.77,2.5,2.5,0,0,0,.29-1.29l-.12-.89a3.4,3.4,0,0,0-.86-1.48l-.68-.53a3.34,3.34,0,0,0-1.69-.45,2.5,2.5,0,0,0-1.29.29,2.39,2.39,0,0,0-1.08.69,3.63,3.63,0,0,0-1,2.37l.12.89a3.31,3.31,0,0,0,.86,1.48l.68.52a3.23,3.23,0,0,0,1.69.46Z"/><path class="turmeric-curcumacls-4" d="M314.53,95.43a6.08,6.08,0,0,0,1.59-.2,3.46,3.46,0,0,0,1.57-.91,2.66,2.66,0,0,0,.73-1.14,2.58,2.58,0,0,0,.31-1.37,3.52,3.52,0,0,0-.49-1.79,5.84,5.84,0,0,0-1-1.16,3.75,3.75,0,0,0-1.7-1,3.92,3.92,0,0,0-2,0,3.81,3.81,0,0,0-1.7,1,4.25,4.25,0,0,0-1.13,2.72,3.77,3.77,0,0,0,.53,1.94,3.82,3.82,0,0,0,3.32,1.91Z"/><path class="turmeric-curcumacls-4" d="M305.43,77.53c4.31,0,4.32-6.7,0-6.7s-4.32,6.7,0,6.7Z"/></g></g></svg>