<svg xmlns="http://www.w3.org/2000/svg" viewBox="0 0 512 512"><defs><style>.turnipcls-1{fill:none;}.turnipcls-2{fill:#72ab4c;}.turnipcls-3{fill:#4a2d2d;}.turnipcls-4{fill:#f2e2e7;}.turnipcls-5{fill:#8f6998;}</style></defs><g id="Capa_2" data-name="Capa 2"><g id="bocetos"><rect class="turnipcls-1" width="512" height="512"/><path class="turnipcls-2" d="M251.33,159.53s35.5-79.15,52.11-87.29,18.23,12.05,18.23,12.05,28.67-39.08,59.61-49.5,38.1.32,34.19,17.58-22.14,37.46-22.14,37.46,31.26,2.93,32.24,28-36.48,33.22-66.12,34.52-53.41-1-77.51,1.63A227.5,227.5,0,0,0,251.33,159.53Z"/><path class="turnipcls-2" d="M248.07,185.58s-15.63-64.16-36.15-95.43-32.35-20.3-34.85-14.65a28.51,28.51,0,0,0-2.28,11.4s-46-54.62-78.49-42.67C68,54.65,91.74,94.39,114.86,105.46s36.81,12.7,36.81,12.7-46.47,6.65-35.5,32.9c9.12,21.82,66.76,14,94.12,26.05s36.8,16.29,36.8,16.29Z"/><path class="turnipcls-3" d="M356.84,91.42c-3.34,1.1-6.66,2.35-10,3.68a104.8,104.8,0,0,0,8.81-13.84A1.55,1.55,0,0,0,353,79.7c-4.18,6.21-8.44,12.44-13.09,18.33-11.81,5.22-23.34,11.49-34.33,17.69-3.54,2-7,4.09-10.48,6.23,2.67-5.53,5.67-10.9,8.6-16.28.83-1.51-1.23-3.27-2.46-1.9-5.5,6.15-9,14.06-12.1,21.62a1.53,1.53,0,0,0-.07.41,228.45,228.45,0,0,0-27.46,21.09c.83-5.32,1.45-10.68,1.8-16.11a214.76,214.76,0,0,0-2.23-45.52c-2-13.58-4.38-31.93-12.61-43.24-2.69-3.7-9.42-2.84-9.26,2.51.41,13.54,6.33,27.46,8.38,41a263.86,263.86,0,0,1,2.68,43.6c-.21,14.6-1.13,29.49-3.78,43.88-.38,2.09-.87,4.14-1.4,6.18-8-19.79-23.79-38.55-38.15-53.37a218.12,218.12,0,0,0-60-43.74c-2.18-1.09-4.11,2.13-1.93,3.3a230.66,230.66,0,0,1,57.26,43c4.31,4.46,8.42,9.12,12.34,13.92-16.31-.59-33.37,1.14-48,8.67-1.75.9-.5,3.42,1.28,3,16.87-3.64,32.68-7.32,50-7.49,2.37,3.05,4.69,6.14,6.9,9.32,6.76,9.69,11.75,20.41,18.26,30.2-3.11,9.63-7,18.95-9.41,28.78a3.23,3.23,0,0,0,5.88,2.47c8.17-12,11.67-28.1,15.59-41.89a245,245,0,0,0,5.59-23.87,1.7,1.7,0,0,0,1.56-.43c14.19-12.8,30-23.31,46.82-32.4,16-8.65,33.25-15.13,48.89-24.27C359.65,93.48,358.63,90.83,356.84,91.42Z"/><path class="turnipcls-3" d="M388.2,116c-21.76-2.41-44.15-1.69-66-.58-2.06.11-2.07,3.33,0,3.21,22.07-1.18,43.92-.25,66,0C389.94,118.66,389.85,116.18,388.2,116Z"/><path class="turnipcls-3" d="M203.78,115.23c-.12-6-.8-11.9-3.2-17.45-.69-1.61-3.62-.84-3.38.91.74,5.53,1.84,11,2.07,16.54C199.39,118.12,203.85,118.15,203.78,115.23Z"/><path class="turnipcls-4" d="M402.86,324.85c-2.87,13.07-9.05,27.3-19,42.68-35.63,55.14-99.88,68.61-109.43,69.92s-9.13,11.29-10,18.23-5.65,21.71-14.34,21.71-5.65-5.65-6.08-15.63-1.31-25.62-13.46-29.1-96.4-9.54-125.5-48.62c-10.92-14.65-14.79-32.55-13-51.31,3-31.23,21.69-64.86,49.91-89.83,45.16-40,147.2-48.64,225.79,3.47C395.85,265,410.33,291.06,402.86,324.85Z"/><path class="turnipcls-5" d="M402.86,324.85c-18.41,13.86-55.46,33.75-119.73,37.91-89.67,5.78-173.17-20.77-191-30,3-31.23,21.69-64.86,49.91-89.83,45.16-40,147.2-48.64,225.79,3.47C395.85,265,410.33,291.06,402.86,324.85Z"/><path class="turnipcls-3" d="M146.64,279.32a238.2,238.2,0,0,0,50.49,16.94c15.83,3.49,34,7.38,50.18,5.1,2.44-.34,2.29-4.32,0-4.79-16.52-3.38-33.7-3.15-50.33-6.6s-32.76-8.7-48.68-14.6C146,274.53,144.42,278.28,146.64,279.32Z"/><path class="turnipcls-3" d="M279.66,297.61c3.66,0,8.39.74,11.83-.66a2,2,0,0,0,0-3.87c-3.44-1.41-8.18-.67-11.83-.67C276.32,292.41,276.31,297.61,279.66,297.61Z"/><path class="turnipcls-3" d="M329.75,291.05c2.43-.58,5.07-1,7.31-2.12,1.64-.84.81-3.33-.9-3.35-2.51,0-5.11.85-7.53,1.41C326,287.61,327.11,291.69,329.75,291.05Z"/><path class="turnipcls-3" d="M357.27,326.13c-14.78,3.67-28.53,9.09-43.83,10.91a171.38,171.38,0,0,1-45.19-.78c-2.83-.41-4.08,3.88-1.2,4.35,28.81,4.72,65.65,4.05,91.55-11.33A1.73,1.73,0,0,0,357.27,326.13Z"/><path class="turnipcls-3" d="M203.11,334.88c-3.28-.95-4.6,4-1.4,5.09,7.45,2.47,16.83,5.31,24.63,3a2,2,0,0,0,0-3.8C218.88,336.85,210.72,337.08,203.11,334.88Z"/><path class="turnipcls-3" d="M150.34,325.68l-5.68-2.59c-3.12-1.43-5.87,3.18-2.72,4.65l6,2.82c1.93.9,3.76,1.89,5.91,2s2.93-2.57,1.62-3.91S152.17,326.51,150.34,325.68Z"/><path class="turnipcls-3" d="M273.19,383.53c-28.07-3.9-57.73,3.45-85-6.34-2.71-1-3.81,3.27-1.18,4.28,13.05,5,26.76,5.77,40.6,6.17,14.93.43,30.83,1.88,45.61-.6C274.91,386.75,275,383.78,273.19,383.53Z"/><path class="turnipcls-3" d="M309.19,380a1,1,0,0,0,0,2A1,1,0,0,0,309.19,380Z"/></g></g></svg>