<svg xmlns="http://www.w3.org/2000/svg" viewBox="0 0 512 512"><defs><style>.vetchcls-1{fill:#4a2d2d;}.vetchcls-2{fill:none;}</style></defs><g id="Capa_2" data-name="Capa 2"><g id="bocetos"><path class="vetchcls-1" d="M344.82,96.29a2.84,2.84,0,0,0-1.05-.15c-13.19.53-26.7,4.83-39.27,8.65a424.74,424.74,0,0,0-40.21,14.56c-9.79,4.09-20.62,8.27-27.87,16.38-4.24,4.75-5.45,10.69,1.68,13.11,9.56,3.23,23.78-2.37,33-4.72,12.17-3.1,24.34-6.39,36.05-11,10.49-4.1,20.41-9,29.29-16,5.87-4.63,15.68-11.09,11-19.52A2.54,2.54,0,0,0,344.82,96.29ZM330.5,111.77c-3.19,2-6.49,3.9-9.83,5.69a166.25,166.25,0,0,1-25.32,10.92c-7.8,2.64-15.73,4.87-23.69,7-9.07,2.4-18.88,5.81-28.36,5.79l-2.45,1.36,2.74-3.35A33.75,33.75,0,0,1,249,134.7a74.46,74.46,0,0,1,10.77-5.63c9.11-4.14,18.44-7.81,27.88-11.14,17.78-6.27,36.72-9.53,54.4-15.83C340.32,106.07,332.78,110.31,330.5,111.77Z"/><path class="vetchcls-1" d="M364.17,187.19C379.45,169,391,144.85,391.22,120.68c.23-26.8-18.71-45.38-41.65-54.86a97,97,0,0,0-26.4-6.75,202,202,0,0,0-74.73,5.67c-42.65,11.76-81.87,45.12-87.17,91.12-2.5,21.7,4.35,43.09,21.18,57.48,15.88,13.58,36.22,19.4,56.66,21.53C286,239.77,333.56,223.69,364.17,187.19ZM257.51,223.66C221,223.91,172.89,211,170.89,167c-1.89-41.69,32.75-77.45,69.75-90.71,21.74-7.78,45.17-10.31,68.15-9.73,21.63.55,43.42,6.92,59.21,21.93.58.62,1.16,1.22,1.71,1.87,7.21,8.59,10.22,19.31,10.45,30.36.4,19.26-7,37.5-18,53C338.64,206.85,297.3,223.38,257.51,223.66Z"/><path class="vetchcls-1" d="M141.61,285.75c-3.72,3.47-5.51,8.45-7.6,13-3,6.49-6,13-9,19.48-5.4,12.07-10.7,24.18-17.91,35.31-6.89,10.63-17,19.26-22.68,30.67-2.62,5.29-5.73,17.26,0,21.64,6.53,5,17,.06,22.46-4.18,10.62-8.28,16.84-21.1,24.39-31.93,6.14-8.82,12.34-17.7,17-27.43a138.54,138.54,0,0,0,9.18-27.16c2-8.25,4-17.25.8-25.49C155.37,282.27,147.46,280.29,141.61,285.75Zm8.59,16.59c-.76,8.47-2.07,16.64-5.29,24.54-3.29,8.08-7.72,15.63-11.95,23.23-1.62,2.9-3.22,5.82-4.83,8.74-3.7,6.69-7.47,13.35-11.74,19.7C111,386.5,103.51,398.1,93.9,401.14c-4.14,1.31-7.32,2-5.75-3.89.78-2.95,2.75-6.26,4.24-8.88,5.36-9.42,13.63-16.9,20-25.61,14.09-19.22,21.16-41.69,31.18-63,.72-1.52,2.63-7,4.14-8C152.65,288.4,150.39,300.3,150.2,302.34Z"/><path class="vetchcls-1" d="M135.39,250.37c-27.71,1.48-55.23,16.42-74.87,35.49-15.67,15.22-24.74,33.86-29.8,54.94-5.34,22.23-7.95,46.38-.23,68.41,6,17.21,17.72,32.28,34.74,39.6,18.45,7.93,39.8,6.57,58.11-1.05,37.06-15.41,62.61-55.65,75.16-92.23,7.6-22.13,11-47.61,1.52-69.7C189.41,261.08,161.09,249,135.39,250.37Zm53.1,99.13c-10.25,31.84-31.3,66.51-60.94,83.58-30.37,17.49-70,10.88-84.81-23.15-8.16-18.76-7.1-40.11-3.42-59.79,3.49-18.61,9.13-37.34,21.65-52a104.13,104.13,0,0,1,39-28.31c23.24-9.69,56.55-15,77.94,2.68,6.91,5.71,10.86,14.07,13.06,22.6C195.51,312.54,194,332.48,188.49,349.5Z"/><path class="vetchcls-1" d="M484.66,323.7c-7.74-35.24-38-61.08-70-74.54-18.43-7.73-38.78-12-58.79-9.95-42,4.24-97.32,30.55-97.47,78.82-.07,22.18,12.56,41.56,28.5,56.05,34.52,31.38,86.18,42,131.53,35.47,22.26-3.18,44.35-13,57.17-32.24C485.75,362,488.57,341.47,484.66,323.7ZM279.45,296.64c2.2,11.87,9.29,22.86,18.49,31.2,7.43,6.74,16,12.07,24.74,16.94,5.8,3.24,11.7,6.28,17.46,9.58,4.19,2.39,12.34,6,15.91,10.78-21,2.89-45.11-14.13-59.1-27.58-7.76-7.48-14.11-16.46-16.85-27A34.6,34.6,0,0,1,279.45,296.64ZM438.18,393c-19.84,7.94-42.8,8.2-63.81,6.12-20.12-2-40.06-7.38-58-16.8-20-10.51-40.61-28.06-47.39-50.42-3.74-12.34-3.3-23.22.18-32.7a65.43,65.43,0,0,0,1.22,11.09c2.42,12.24,9.2,23.18,17.79,32.07,9.31,9.64,20.94,16.81,33.19,22.06,13.07,5.6,26.06,6.22,40,7.19,2.2.16,3.54-1.86,3.77-3.77,1.07-9-8.28-13.7-14.87-17.74-9.7-5.95-22.56-11.05-32.33-16.88-19.34-11.53-37-32.13-32.1-56.8,27.49-23.17,77.55-30.6,106.69-23.49,29.56,7.22,59.12,24.89,74.41,51.92C485.16,337.1,473.5,378.9,438.18,393Z"/><rect class="vetchcls-2" width="512" height="512"/></g></g></svg>