<svg xmlns="http://www.w3.org/2000/svg" viewBox="0 0 512 512"><defs><style>.wasabicls-1{fill:none;}.wasabicls-2{fill:#c0c728;}.wasabicls-3{fill:#4a2d2d;}.wasabicls-4{fill:#fff;}.wasabicls-5{fill:#c9a380;}.wasabicls-6{fill:#cdd253;}</style></defs><g id="Capa_2" data-name="Capa 2"><g id="bocetos"><rect class="wasabicls-1" width="512" height="512"/><path class="wasabicls-2" d="M440.14,316.55c-19.21-16.06-45-18.41-67.84-26.45C343.79,280.05,317,259,315,226.64a5.3,5.3,0,0,0-.47-1.86,3.79,3.79,0,0,0-6.36-3.23c-9.43,8-17.81,15-28.84,20.91-9.72,5.2-19.88,10.12-28,17.74a55.08,55.08,0,0,0-17,46.3c-15.68,11.21-32.17,24.62-39.5,42.9-6.87,17.16-6.56,38.56,2,55.08,10.5,20.22,31.38,35,51.21,45.13a201.14,201.14,0,0,0,68.08,20.14c45.31,5.31,100.2-2.83,131.56-39C476.51,397.6,474.82,345.55,440.14,316.55Z"/><path class="wasabicls-3" d="M378.5,381.63c-25.17-6.47-45.72-12.26-69.48-21-21.84-8.05-48.2-15.47-62.12-37.51-7-11.11-9.65-18.72-11.56-35.42a52.69,52.69,0,0,0,1.48,29.5c8.77,25.41,33.75,36.07,56.7,45.73a441.07,441.07,0,0,0,42,15.27c14.22,4.36,28.36,8.83,43.29,9.13C383.05,387.41,382.85,382.75,378.5,381.63Z"/><path class="wasabicls-4" d="M303.07,265.38c-1.41,7.84-.62,14.72,3.88,21.52,3.79,5.74,10.09,12.43,17.48,12.45,3.5,0,4.82-4.11,2.71-6.53-3.53-4.07-8.45-6.32-11.57-11a38.82,38.82,0,0,1-6.23-15.63c-.41-3.2-5.57-4.75-6.27-.85Z"/><path class="wasabicls-4" d="M337.93,308c.79.34,1.58.72,2.39,1a3.64,3.64,0,0,0,1.88.08,3.52,3.52,0,0,0,1.76-.56l1-.74a3.54,3.54,0,0,0,1-1.52,2.36,2.36,0,0,0,.32-1.19,3.64,3.64,0,0,0-.08-1.88,5.17,5.17,0,0,0-2.17-2.82c-.38-.25-.79-.46-1.18-.69a5,5,0,0,0-3.7-.48,4.9,4.9,0,0,0-2.87,2.21,4.84,4.84,0,0,0-.49,3.7l.49,1.15a4.81,4.81,0,0,0,1.72,1.72Z"/><path class="wasabicls-4" d="M424.48,345.79A24.64,24.64,0,0,1,431.12,357c1.05,4.17.69,8.46,1.37,12.67.53,3.27,5.19,4.14,7.28,1.93,9.55-10.16,1.18-27.84-10.06-32.62-4.22-1.8-9,3-5.23,6.78Z"/><path class="wasabicls-4" d="M233.13,390.59a65.38,65.38,0,0,0,29.29,32.54c11.66,6.21,30.24,13.9,43.43,9.6,2.93-1,4.77-5.24,2-7.52-9.53-7.81-23.67-7.66-34.84-12.42a64.39,64.39,0,0,1-30.85-27.47c-3.46-6-11.56-.73-9,5.27Z"/><path class="wasabicls-4" d="M327.62,439.37c4.32.46,9.33,1.32,13.09-1.54,2.14-1.63,2.66-4.18.81-6.31-3.42-3.92-9.13-3.94-13.9-4.38-3.29-.31-6.12,3-6.12,6.11,0,3.6,2.82,5.76,6.12,6.12Z"/><path class="wasabicls-5" d="M274.45,88.6c-13.55-1.45-31.94,12.1-59.48,35.76-1.42,1.22-2.78,2.41-4.14,3.59-1-15.46-2.79-42.2-4.13-51.93-1.94-14-3.87-26.14-16.94-26.62s-17.9,11.13-22.26,20.33-7.26,31-7.26,31-28.55-45.49-46-50.82S92.49,55.21,90.56,64.4s14.51,22.26,22.26,44S123.46,160.7,124,164.57s85.17,23.23,85.17,23.23,4.35-2.9,12.1-10.64,33.87-25.17,46.45-33.88,27.59-20.32,27.1-33.39S288,90.05,274.45,88.6Z"/><path class="wasabicls-3" d="M176.25,165.12c13.61-14.33,28.13-27.09,43.4-39.74q12.57-10.41,26-19.73c7.8-5.41,19.07-15.74,29.16-12.75,11.6,3.44,18.48,19.2,9.88,28.89-6.62,7.45-16.4,13.2-24.41,19-16.13,11.74-35.42,22.85-48.63,38-3.18,3.63,1,10.16,5.47,7.1,11.7-8,22.09-18,33.48-26.48,11.22-8.31,22.85-16.09,33.94-24.56,15.36-11.72,18.79-33.2,1.58-45.68-19.16-13.91-41.66,7.66-56.75,18.5-21.27,15.28-40.64,32.94-58.62,51.89-3.48,3.66,2.06,9.22,5.54,5.55Z"/><path class="wasabicls-3" d="M121.77,165.75a25.94,25.94,0,0,1,3.81-3,22.76,22.76,0,0,1,3.64-1.87c-.28-6.12-1.77-12.17-2.76-18.5-1.58-10.08-3.72-20.38-7.58-29.86-4-9.7-8.22-19.35-13.76-28.27-2.71-4.36-6.43-8.48-8.76-13-3.14-6.12-.88-12.81,4.84-17.33,9.22-7.29,23.4,8.73,29.92,15.63A132.29,132.29,0,0,1,150.73,97c10.85,19.85,14.24,40.76,14.83,62.7q2.73.54,5.42,1.27a39.86,39.86,0,0,1,4.61,1.61c3-24.29-3.26-50.2-14.93-71.38a121.85,121.85,0,0,0-23.58-29.78c-7.32-6.88-19.17-18.88-29.67-19.68C98,41,89.24,52.76,85.72,60.32c-5.06,10.87,6,18.53,11.47,26.73a155.39,155.39,0,0,1,18.65,38.69C120.27,139.35,121.6,151.87,121.77,165.75Z"/><path class="wasabicls-3" d="M165.68,108.87c2-10.64,3.53-21.29,5.76-31.9,1.41-6.71,1.82-14.39,8.1-18.75,2.27-1.57,11.32-2.85,14.34-1.92,8.32,2.54,7.59,11.19,8.37,18.15.58,5.19,1.3,10.38,1.86,15.57,1.25,11.43,1.75,22.93,3.09,34.34.57,4.89,8.29,5,7.77,0-1.81-17.22-3.79-34.38-5.42-51.62-1.05-11.12-.51-23.6-14.36-25.11-11.44-1.25-22.39,2.07-27.63,12.69-6.77,13.68-9,32.43-9.15,47.56,0,4.07,6.47,5.17,7.27,1Z"/><path class="wasabicls-3" d="M169.8,63.12c1.9,12.27,34.35,19.35,36.66,5.45.25-1.45-1-3.29-2.65-2.65-4.26,1.58-7.11,4-12.05,3.64-5.3-.33-15.2-1.52-16.88-7.84-.89-3.36-5.59-1.87-5.08,1.4Z"/><path class="wasabicls-3" d="M263.51,88.78c-12.74,14.88,5.59,39.92,23.38,36.86,2-.35,2.42-3.6.58-4.46-6-2.8-12.46-3.41-17.24-8.57-6-6.44-5.46-13.83-2.6-21.43.86-2.29-2.55-4.23-4.12-2.4Z"/><path class="wasabicls-6" d="M192,163.86c-5.24-1.43-10.41-2.55-14.82-3.67-12.14-3.06-27-7.37-39.67-5.94-25.46,2.89-34.49,34.26-45.23,53-14.58,25.5-33,47.34-41.37,76-8.14,27.8-10,57-13.49,85.59-3.24,26.39-6.27,52.69,14.29,72.93,17.42,17.15,41.73,17.89,61.22,3.57,23.15-17,33.6-47.56,45.08-72.72a376.14,376.14,0,0,1,21.57-41.39c7.58-12.28,15.42-24.49,20.66-38,6.36-16.39,8.88-34.18,12.34-51.35,3.15-15.58,6.64-31.14,9.37-46.81C225.31,175.73,208.33,168.31,192,163.86Z"/><path class="wasabicls-3" d="M123.55,209.2c-.64-2-2.45-3.86-1.8-6.07.79-2.73,3.86-3.39,6.28-2.61,2.05.66,4.66,2.56,5.15,4.77.87,3.87-2.93,4-5.14,5.46a1.48,1.48,0,0,0,0,2.52c3.82,2.38,9.06-1.76,9.93-5.58,1.11-4.89-3.22-9.64-7.5-11.28s-9.21-.69-11.82,3.16c-2.45,3.62-1.54,9.39,2.52,11.47a1.64,1.64,0,0,0,2.38-1.84Z"/><path class="wasabicls-3" d="M102.8,228.43c3.33,3.82,9.2,1.69,10.91-2.68s-2.51-8.87-7-8.2c-2,.3-4.37,1.79-4.87,3.86a2.12,2.12,0,0,0,1.1,2.42c1.07.5,1.92-.09,2.7-.74,1.25-1,4.52-2.35,4.5.56,0,2.72-3.7,3.73-5.69,2.66a1.35,1.35,0,0,0-1.63,2.12Z"/><path class="wasabicls-3" d="M185.06,194.22c1.21-1.45,3.82-1.86,5.62-1.25s2.37,2.74,2.1,4.41a3.19,3.19,0,0,1-3.35,2.72c-1.74-.09-2.47-1.74-4.06-2a1.71,1.71,0,0,0-2.05,1.16c-.94,3.58,4.2,5.17,6.88,4.89a8.23,8.23,0,0,0,7-6.44c.92-3.54-.71-7.8-4.31-9.06-3.84-1.34-8,.51-10.24,3.67-1,1.43,1.32,3.27,2.46,1.9Z"/><path class="wasabicls-3" d="M162.29,218.58a2.45,2.45,0,0,0,1.52-.63,2.31,2.31,0,0,0,.63-1.52l-.08-.57a2.07,2.07,0,0,0-.55-1l-.43-.34a2.2,2.2,0,0,0-1.09-.29,1.55,1.55,0,0,0-.82.19,1.57,1.57,0,0,0-.7.44,1.67,1.67,0,0,0-.44.69,1.58,1.58,0,0,0-.18.83l.07.57a2.22,2.22,0,0,0,.55.95l.44.33a2.07,2.07,0,0,0,1.08.3Z"/><path class="wasabicls-3" d="M170.39,242.79c.92-3.08,5.28-5.15,7.18-1.57a3.23,3.23,0,0,1-1,4.17c-1.6,1.32-2.9.94-4.73.48-2.23-.56-4.17,1.13-2.55,3.32,1.74,2.37,5.42,2.36,7.89,1.35,5.5-2.27,8-9.9,2.73-13.89-5-3.77-11.74-.56-13.24,5.11a2,2,0,0,0,3.75,1Z"/><path class="wasabicls-3" d="M116.28,257c.9-2.33.38-5.94,3-7.37s6.6.17,8.49,1.94c2.72,2.56,1.28,7.12-1.43,9.26-2.1,1.66-4.87.61-7.21,1.77a1.49,1.49,0,0,0-.3,2.32c3.5,3.38,9.63,1.36,12.35-2,3.48-4.33,4.81-10.26.36-14.39a10.85,10.85,0,0,0-12.42-1.72c-3.55,2-8.66,6.1-5.89,10.62a1.71,1.71,0,0,0,3.08-.4Z"/><path class="wasabicls-3" d="M90.45,280.85c-.62-3.19,1.24-7,4.7-7.22,2.92-.19,6.15,1.57,7,4.49a6.1,6.1,0,0,1-2.17,6.3c-2.37,2-5.17,1.81-8.09,1.83a1.94,1.94,0,0,0-1,3.58c9.66,5.6,20.57-7.14,14.07-16-2.42-3.29-8.33-5.41-12.18-3.43s-7.25,7-5.78,11.4a1.8,1.8,0,0,0,3.46-.95Z"/><path class="wasabicls-3" d="M120.5,309.73c.49-4,4.21-7.4,8.22-7.06,3.55.3,7.58,3.61,7.13,7.45-.4,3.48-3.77,5.64-7,5.46-2.76-.15-4.74-2.08-7.41-2.37-1.57-.17-2.35,1.55-2.14,2.82,1,5.82,10,6.27,14.37,4.75,5.76-2,9.8-8.28,7.79-14.34-4-12.16-25.67-10.88-23.9,3.29a1.5,1.5,0,0,0,3,0Z"/><path class="wasabicls-3" d="M146.44,275.31l-.09,0a3.36,3.36,0,0,0-1.78,0,3.24,3.24,0,0,0-1.47.86,3.28,3.28,0,0,0-.86,1.47,3.36,3.36,0,0,0,0,1.78l0,.09a3.41,3.41,0,0,0,2.37,2.37,3.4,3.4,0,0,0,4.18-4.18,3.41,3.41,0,0,0-2.37-2.37Z"/><path class="wasabicls-3" d="M167.58,280.32a8.45,8.45,0,0,0-4.35,11A9.68,9.68,0,0,0,175,296.4c4.75-1.57,8.13-6.2,7.17-11.27s-6.31-8.36-11-5.58a1.58,1.58,0,0,0,.37,2.84c2.48.58,5.62.34,6.35,3.4.68,2.91-1.7,6.15-4.42,6.95-5.68,1.65-9.32-6.06-4.12-9.23,2.1-1.27.27-4.1-1.86-3.19Z"/><path class="wasabicls-3" d="M141.72,337.62c3.62,0,3.63-5.64,0-5.64s-3.64,5.64,0,5.64Z"/><path class="wasabicls-3" d="M77.49,321.23c-.32,5.5,4.52,8.64,9.56,8.89,5.55.27,9.33-4.23,9.57-9.53s-2.8-10.13-8.31-10.87c-4.57-.62-9.68,3.42-10.73,7.84a1.73,1.73,0,0,0,3.14,1.33c1.52-2.56,2.76-4.57,6.09-4.47,3,.1,4.54,2.17,4.74,5.13.18,2.77-1,5.35-3.84,5.93-3.36.68-7-1-7.54-4.62-.23-1.59-2.6-1.08-2.68.37Z"/><path class="wasabicls-3" d="M71.73,367.45c.14-3-1.34-6.86,1.3-9.22s6.59-1,8.6,1.29,3.18,7.06,0,9a9.48,9.48,0,0,1-5.7.84c-2-.27-2.88-1.36-4.27-2.64a1.32,1.32,0,0,0-2.19.58C68,374.23,78.37,375,82.7,373.52c6.36-2.09,7.36-9.87,4.31-15.08-2.91-5-9.33-7.83-14.52-4.48-4.44,2.86-7.25,10.29-3.63,14.68,1,1.19,2.82.14,2.87-1.19Z"/><path class="wasabicls-3" d="M115.33,391.24c-.37-4.7-5.27-6.86-9.54-5.64-4,1.16-6.45,6.88-5.05,10.7s5.69,6.51,9.63,5.34,6.33-6,4.5-9.63a1.44,1.44,0,0,0-2.6.34c-.29,2-.12,4.2-2.22,5.28-1.89.95-3.41-.22-4.42-1.77a4.82,4.82,0,0,1,.64-5.32,3.53,3.53,0,0,1,5.5,1.18c.66,1.77,3.74,1.71,3.56-.48Z"/><path class="wasabicls-3" d="M119,364.87a15,15,0,0,1,5.25-6.35c3.48-2.13,6.4,2.84,6.43,5.83.07,7.47-11.8,7.58-12.05.4a1.6,1.6,0,0,0-3.12-.43c-2.15,5.62,2.56,9.75,7.88,10.27a10.21,10.21,0,0,0,11-8.32c.84-4.77-2.26-10.41-7-11.83-5.44-1.63-10.19,4-12.06,8.3-1.07,2.46,2.57,4.62,3.65,2.13Z"/><path class="wasabicls-3" d="M76.08,403.82c-4.3,1.52-5.45,6.72-3.94,10.72,1.61,4.26,7.7,7,11.9,5.16,3.7-1.64,6-7.21,4.48-10.91-1.62-3.89-6.6-8.16-10.91-5.56-1.18.71-1.18,3,.42,3.25,2.27.31,4.31,0,5.93,2s1.1,4.42-.48,6.32c-1.71,2.08-4.82,1.3-6.65-.35-1.56-1.4-2.23-6,.3-6.86,2.36-.83,1.34-4.62-1-3.78Z"/><path class="wasabicls-4" d="M137.62,183.22a3.84,3.84,0,0,0,1.92-.43,5.08,5.08,0,0,0,3.05-4.55l-.17-1.32a5.06,5.06,0,0,0-1.28-2.19l-1-.78a4.9,4.9,0,0,0-2.51-.68,3.86,3.86,0,0,0-1.92.43,4.44,4.44,0,0,0-2.62,2.63,3.6,3.6,0,0,0-.43,1.91l.18,1.33a5,5,0,0,0,1.27,2.19l1,.78a4.93,4.93,0,0,0,2.51.68Z"/><path class="wasabicls-4" d="M139.58,227.46l.11.91a6.33,6.33,0,0,0,.3,1.79,2.77,2.77,0,0,0,.67,1.28,2.83,2.83,0,0,0,1.06,1,4,4,0,0,0,2.91.39,9,9,0,0,0,2.31-1.12,4.89,4.89,0,1,0-7.36-4.22Z"/><path class="wasabicls-4" d="M66.41,301.94c7.4,0,7.41-11.5,0-11.5s-7.41,11.5,0,11.5Z"/><path class="wasabicls-4" d="M99.64,349.65l0,.85a2.48,2.48,0,0,0,.28,1.26,2.45,2.45,0,0,0,.68,1.06,3.33,3.33,0,0,0,2.33,1l.85,0,1.09-.15,1-.41a3.17,3.17,0,0,0,1.15-1.06,2,2,0,0,0,.53-.91,4.13,4.13,0,0,0,0-3.17,3.1,3.1,0,0,0-.85-1.32l-.83-.64-1-.42-1.09-.14-1.1.14-1,.42a3.09,3.09,0,0,0-1.15,1.06,2,2,0,0,0-.53.9,3,3,0,0,0-.35,1.59Z"/><path class="wasabicls-4" d="M189.45,260.67l-.85.07a1.87,1.87,0,0,0-.91.2,1.81,1.81,0,0,0-.76.49,2.35,2.35,0,0,0,0,3.33l.48.37a2.26,2.26,0,0,0,1.19.32l.85.08a1.87,1.87,0,0,0,.93-.21,1.94,1.94,0,0,0,.79-.5,2.77,2.77,0,0,0,.71-1.72,2.5,2.5,0,0,0-.71-1.72,2.36,2.36,0,0,0-1.72-.71Z"/><path class="wasabicls-4" d="M53.68,402.39c6.73,0,6.74-10.45,0-10.45s-6.74,10.45,0,10.45Z"/></g></g></svg>