<svg xmlns="http://www.w3.org/2000/svg" viewBox="0 0 512 512"><defs><style>.watermeloncls-1{fill:#438f10;}.watermeloncls-2{fill:#4a2d2d;}.watermeloncls-3{fill:#fff;}.watermeloncls-4{fill:#f1475d;}.watermeloncls-5{fill:none;}</style></defs><g id="Capa_2" data-name="Capa 2"><g id="bocetos"><path class="watermeloncls-1" d="M297.68,72c-45.6-34.35-145.83-22-201,21.4S22.9,211.64,36.42,274.14s47.3,110.37,126.13,125.57S314,382.26,350.05,328.76s26-110.62,23.65-120.49C365.25,172.79,343.29,106.35,297.68,72Z"/><path class="watermeloncls-2" d="M155.86,120.34c26.33-9.48,54.15-16,82.27-15.78a150.13,150.13,0,0,1,39.15,5.35c14.07,3.91,25.43,11.27,38.33,17.53,2.06,1,4.36-1.55,2.55-3.3-9-8.65-22.27-13.81-34-17.62a151.11,151.11,0,0,0-40.29-7c-30-1.28-59.71,5.87-87.77,16-26.28,9.53-49.56,22.2-68.25,43.38C70.45,178.61,57.12,202.09,46,225.81c-1.16,2.48,2.37,4.65,3.73,2.18,12.13-21.94,23.47-44.42,39.86-63.6C107.46,143.49,130.12,129.6,155.86,120.34Z"/><path class="watermeloncls-2" d="M188.94,192.24a380.25,380.25,0,0,1,68.36-11.12c23.6-1.63,46.38.8,69.86,1.88,2.85.13,3.52-4.43.68-5-22.6-4.77-47.63-3.89-70.54-2.25A399.06,399.06,0,0,0,189,186.81c-46.32,11.63-90.27,31.37-130.67,56.73-2.63,1.65-.21,5.83,2.45,4.17C100.44,223,143.59,203.87,188.94,192.24Z"/><path class="watermeloncls-2" d="M345.62,241.13c-37.91,29.78-88.6,42.75-136,47.28A300.08,300.08,0,0,1,67.59,267c-2-.81-3.45,2.62-1.47,3.48,46.53,20.46,97.43,28.71,148,23,46-5.23,98.49-18.39,134.14-49.63C350.15,242.17,347.48,239.67,345.62,241.13Z"/><path class="watermeloncls-2" d="M337.48,309c-22.35,10.36-44.15,20.43-68.11,26.65a272.43,272.43,0,0,1-74,8.52c-26-.56-50.52-5.19-73.71-17.27-21.14-11-38.34-27-58.31-39.61-2-1.28-4.25,1.64-2.54,3.3,17.51,17,40.2,32,62,42.81,22.47,11.12,46.14,15.47,71.08,16,49,1.09,104.24-9.38,145.83-36.63A2.2,2.2,0,0,0,337.48,309Z"/><path class="watermeloncls-1" d="M415.74,414.91c-67.57,54.81-156.91,47.68-219.6,2.63s-66.81-124.26-66.07-130.62S147,264.84,149.6,262.13c7.86-8.19,251.9-33,302.34-29.34,5,.36,8.06,1,8.85,2C469.05,244.48,483.31,360.11,415.74,414.91Z"/><path class="watermeloncls-3" d="M394,406.28c-71.7,50.67-165.16,17.65-200.08-29.65-28.87-39.12-40.55-92.74-44.29-114.5,1.07-1.11,6.49-2.53,15.17-4.13,49.88-9.24,207.74-24.85,270.31-25.55,6.86-.06,12.55,0,16.86.34C454,267.73,454.68,363.37,394,406.28Z"/><path class="watermeloncls-4" d="M436.38,277.15c-2.62,35.66-21,95-57,118.25S279.1,427.68,225.8,385.26C184,352,169.21,285.26,164.77,258c49.88-9.24,207.74-24.85,270.31-25.55A211.34,211.34,0,0,1,436.38,277.15Z"/><path class="watermeloncls-2" d="M236.35,318c5.6,1.48,9.45-4.83,11.22-9,3.37-8.05,3-17,1.65-25.44-.34-2.08-2.44-2.23-3.78-1.28-1.7,1.21-12.22,13.73-14,22.11C230.38,309.14,230.29,316.4,236.35,318Z"/><path class="watermeloncls-2" d="M320.83,316.74c4-.34,6.64-4,6.84-7.87.3-6.12-5.12-13.64-8.12-18.68-.74-1.24-3.19-2.53-4.34.47C312.58,297.56,307.85,317.84,320.83,316.74Z"/><path class="watermeloncls-2" d="M390.42,294.07c11.09-6.05-5.22-22.6-12-24.86-1.41-.47-4.4-.24-4.29,3.08.21,6.33,1.13,12.56,5,17.68C381.77,293.38,386.11,296.42,390.42,294.07Z"/><path class="watermeloncls-2" d="M359.77,362.46c13.05-3.57-1.2-24.22-6.18-28.8-1.41-1.3-4.57-1.42-5,2.1-.79,6.59-2.14,14.35.58,20.65C350.94,360.49,355.1,363.74,359.77,362.46Z"/><path class="watermeloncls-2" d="M273,374.37c12.91,3.8,10.52-24.08,8-30.12-1.5-3.66-3.81-2.58-4.87-1.21-4.31,5.54-7.36,11.25-8.25,18.32C267.36,366,267.58,372.77,273,374.37Z"/><path class="watermeloncls-2" d="M180.49,401.29a173.23,173.23,0,0,1-35.44-62.67,207.09,207.09,0,0,1-7.68-33.43c-1.36-9.59-6.59-31.06,4.65-35.86,5.56-2.38,12.71-2.65,18.65-3.73q10.08-1.83,20.17-3.55,19.47-3.35,39-6.32c26.33-3.95,52.75-7.25,79.22-10.08,30.34-3.23,60.76-5.87,91.16-8.53,5.41-.48,5.49-9,0-8.53-58.71,4.54-117.34,10.49-175.54,19.56-15.11,2.36-30.2,4.9-45.23,7.71q-11,2.06-22,4.24c-5.19,1-11,1.82-14.73,6-6.16,7-4.35,19.44-3.66,27.82a216.27,216.27,0,0,0,6.39,37.82c7.27,27.26,22.05,52.84,40.28,74.23,2.79,3.27,7.54-1.48,4.73-4.72Z"/><rect class="watermeloncls-5" width="512" height="512"/></g></g></svg>