<svg xmlns="http://www.w3.org/2000/svg" viewBox="0 0 512 512"><defs><style>.watercresscls-1{fill:none;}.watercresscls-2{fill:#9bb533;}.watercresscls-3{fill:#4a2d2d;}</style></defs><g id="Capa_2" data-name="Capa 2"><g id="bocetos"><rect class="watercresscls-1" width="512" height="512"/><path class="watercresscls-2" d="M327.36,200.46a31.33,31.33,0,0,0,0-32.67C317,150,295,126.08,317,91.48s78.26-25.88,103.81,3.23,20.9,69.69-6.47,87.64c-19.73,12.93-35.57,14.23-53.68,16.17C346.78,200,327,205.31,327,205.31Z"/><path class="watercresscls-2" d="M240.37,158.09s41.07-34.28,55.94-64.67,1.29-65.33-36.22-66.95S204,58.16,203.5,86.3C202.85,121.87,240.37,158.09,240.37,158.09Z"/><path class="watercresscls-2" d="M207.38,205.63s1.29-62.09-4.2-82.14-34-50.45-71.47-37.84-48.83,50.13-26.2,82.14S169.87,203.37,182.8,204,207.38,205.63,207.38,205.63Z"/><path class="watercresscls-2" d="M193.15,317.52s-11-55.94-50.77-75.67-80.2-6.79-91.2,33.63,10.3,70.8,45.92,75.68c30.73,4.2,58.21-18.76,71.47-24.58A216.91,216.91,0,0,1,193.15,317.52Z"/><path class="watercresscls-2" d="M245.22,273.54s-23.61-20.69-45-18.11S186.36,279,199.94,281s22.64-2.59,34.93-1.94,14.55,1.62,14.55,1.62Z"/><path class="watercresscls-2" d="M239.39,242.5s4.86-27.17,23-41.07,27.81-7.76,31.69.64-10.35,18.11-20.38,23.29S246.51,238.62,243,242.82,239.39,242.5,239.39,242.5Z"/><path class="watercresscls-2" d="M298.57,265.13s17.79-18.75,35.9-21.66,20.37,3.55,19.73,10.35-10,10.34-23.93,12.93-32,4.53-32,4.53Z"/><path class="watercresscls-2" d="M319,368.94s-2.27-44.63,29.43-72.11,80.84-25.23,98.63-.65,6.14,68.23-33.63,82.46S319,368.94,319,368.94Z"/><path class="watercresscls-3" d="M362.36,144.76c-9.84,8.74-17.44,21.33-24.44,32.36a395.59,395.59,0,0,0-21,37.51,445.44,445.44,0,0,0-30.15,78.19,647.49,647.49,0,0,0-18.46,91.33c-2,16.08-3.25,32.25-4.37,48.4-1,15-2.91,31.2-.36,46,.75,4.36,8,4.34,8.78,0,2.54-14.32,1.37-29.64,1.81-44.17.47-15.57,1.66-31.07,3.31-46.56,3.27-30.81,8.12-61.45,16.79-91.25,7.77-26.73,17.07-53,29.47-78A393.89,393.89,0,0,1,343.13,184c7.55-12,17.22-23.13,24-35.55a3.06,3.06,0,0,0-4.78-3.68Z"/><path class="watercresscls-3" d="M373,322.1c-11.92,6-22.67,15.46-32.9,24a376.6,376.6,0,0,0-31.33,28.71c-16.43,17.23-37,40-42,64-.68,3.23,3.59,5.23,5.41,2.28,6.59-10.66,11.44-22.09,18.71-32.41,7.72-11,16.8-20.69,26.27-30.15,8.85-8.84,17.93-17.37,27.54-25.4,10.55-8.82,22.38-16.31,32.47-25.61,3-2.77-.81-7.13-4.18-5.43Z"/><path class="watercresscls-3" d="M111.64,286.28c36.81,5.85,70.32,25.36,96,52.06a242.3,242.3,0,0,1,33.17,44.29,268.76,268.76,0,0,1,12.92,24.29c4,8.63,6.27,18.78,11.67,26.62,1.41,2,5.49,1.59,5.2-1.41-.83-8.47-5.23-16.67-8.67-24.4-4.18-9.39-8.53-18.69-13.49-27.69a223.92,223.92,0,0,0-35.93-48.8c-27-27.56-61.58-46.33-100.12-50.5-3.13-.34-3.89,5-.75,5.54Z"/><path class="watercresscls-3" d="M147.58,137.72a751.12,751.12,0,0,1,74.27,99.17c21.55,34.66,34.59,72.94,51.5,109.78,1.3,2.83,5.46.75,4.84-2.05-8.95-40.16-30.9-77.4-51.24-112.61a439.1,439.1,0,0,0-76.47-97.19c-1.92-1.84-4.64.93-2.9,2.9Z"/><path class="watercresscls-3" d="M254.63,71.42c-10.57,32.36-15.76,67.44-19.21,101.24-3.38,33.08-3.87,67.87,6.89,99.74,1.3,3.88,7.08,2.33,6.15-1.69a305.56,305.56,0,0,1-6.62-98c3.15-33.88,11.46-66.54,17.84-99.84a2.62,2.62,0,0,0-5.05-1.4Z"/></g></g></svg>