<svg xmlns="http://www.w3.org/2000/svg" viewBox="0 0 512 512"><defs><style>.wheatcls-1{fill:#4a2d2d;}.wheatcls-2{fill:none;}</style></defs><g id="Capa_2" data-name="Capa 2"><g id="bocetos"><path class="wheatcls-1" d="M271.65,329.6c-11.29.52-20.91,4.59-30.8,9.77q-7.9,4.14-15.75,8.34c-15.43,1.62-29.21-.33-44.37-3.34-12.91-2.57-26.14-5.43-39.32-3.24-6,1-14.2,4.41-21.43,9.31q7.41-15.68,15.18-31.19a21.24,21.24,0,0,0,5.88,7.47c9.08,7.69,23.6,7.27,34.62,5.78,14.68-2,28.63-7.77,41.89-14.17,13.09-6.31,27.53-16.22,40-23.67,14.25-8.51,29-16.25,43.08-25,2.34-1.46.82-5.86-2-4.69-15.21,6.37-29.83,14.74-44.15,23.36-28.26,7.74-54.26-11.9-82.61-9.13-6,.59-13.61,3.74-20.44,8.35q7.14-13.54,14.51-27a14.15,14.15,0,0,0,4.78,7.36c9.23,7.69,23.8,6.5,34.7,4.1,14.25-3.13,27.31-10.24,39.7-17.7,11.44-6.89,22.71-15.18,34.09-23.33a29,29,0,0,0,3.42-2.22,2.53,2.53,0,0,0,.58-.64c10.72-7.62,21.56-15,32.77-20.76,2.21-1.15.68-4.86-1.71-4.06-14.08,4.72-26.62,12.93-38.82,21.86-5,1.13-9.86,2.57-15.2,2.55-5.78,0-11.75-.61-17.5-1.19-15.24-1.55-29.59-5-44.95-2.29a45.48,45.48,0,0,0-14.12,4.92c5.5-9.36,11.16-18.65,16.79-27.95a20,20,0,0,0,3.85,8.69c14.4,19.2,48.53,3.75,64-5.59,11.67-7.05,24.59-18.05,36.29-25.05,13.25-7.93,27.46-13.14,41.89-18.45a2.33,2.33,0,0,0-1.24-4.49,123.36,123.36,0,0,0-32.44,11.37,3.66,3.66,0,0,0-1.16-.29c-26.42-2.33-56.39-11.66-82.43-2.62a45.89,45.89,0,0,0-10.53,5.45l2.41-4.31c7.29-.34,14.24-5.55,18.81-11.22,9.19-11.41,13-28.84,13.71-43a173.16,173.16,0,0,0-21.23-91.8c-1.79-3.26-6.69-.37-5,2.9A180.55,180.55,0,0,1,239.84,52.6c-7.81,19-20.32,35.52-30.42,53.31-4.86,8.55-10.65,20.23-10.39,30.27s4.71,23.08,14.11,28l.3.13c-6.6,8.81-12.84,18-18.85,27.3a50.9,50.9,0,0,0-1.91-19.77c-8.23-24.54-29.75-43.78-45.29-63.76a3.74,3.74,0,0,0-.52-.53,121.84,121.84,0,0,0-7.64-33.17,2.33,2.33,0,0,0-4.48,1.24c3.43,16,6.76,31.81,6.88,48.31.11,14.69-3.1,31.69-2.11,46.37,1.14,17,7.38,48.56,28.82,50.83a21.94,21.94,0,0,0,8.51-.67q-3.58,6-7.11,12Q164,242.16,158.4,252c.46-7.5-1.41-15-4.69-22.11-6.55-14.15-17.71-24.31-27.11-36.46A151.68,151.68,0,0,1,117.47,181c-2.75-4.43-4-9.28-5.73-14,1-14.56,1.43-29-2.46-43.66-.63-2.35-4.58-2-4.37.59,2.54,30.3-3.17,62.41-1.41,92.71,1.15,19.72,6.35,57.41,30.84,62.11a14.86,14.86,0,0,0,10.09-1.53c-6.09,11.25-12.06,22.57-17.81,34-1.33,2.65-2.61,5.32-3.93,8,2.44-9,2.5-18.9.12-25.76-9.85-28.38-41.69-42-48.93-71.66.73-16.56,1.08-33.24-.59-49.45a2.57,2.57,0,0,0-5.13,0c-1,16.56-.69,33.23-1.34,49.83-.58,14.76-1,29.42-.2,44.18.76,14.46.81,31.21,6,44.8,3.92,10.2,10.22,22.63,20.88,27.21,9.62,4.14,17,1.24,22.19-4.91q-11,22.84-21.15,46.09c-.22-9.71-2.27-19.25-4.9-24.71-5.19-10.79-13.32-19.86-20.92-29-9.21-11.08-16.58-21.5-22-34.91,0-4.94-.1-9.87-.13-14.81-.1-12.22-.74-23.67-6.14-34.84-1.12-2.32-5.11-.68-4.2,1.78,5.87,15.87,4.64,33.82,4.87,50.49.24,17.42-.47,37.65-.25,55.08.27,21.71,3.14,58.44,31.21,62.73a18.49,18.49,0,0,0,9.25-.7c-3.87,9.44-7.67,18.91-11.31,28.44-6.11,16-13.37,32.35-17.22,49.06-1,4.45,5.52,7.74,7.73,3.25,7.07-14.37,11.84-30,17.76-44.91q9.36-23.5,19.36-46.75,4.13-9.59,8.39-19.1a21.92,21.92,0,0,0,2.65,3.72c18.17,20.76,49.79,6.21,69.21-4,15.43-8.1,32.14-18.39,47.58-26.48,14.8-7.75,30-17.35,46.74-19.74C274.82,333.75,274.21,329.49,271.65,329.6ZM244,169.05c19.26-2,38.18,4.38,57.27,5-4,2.37-7.86,4.86-11.65,7.42-18.8,12.75-37.94,28.33-62,27.24-6.88-.31-14.58-1.71-17.25-9.14-2.2-6.15.37-12.69,4.42-17.39C222,173.89,233.37,170.14,244,169.05ZM158.4,202.53c-13.13-18-11.71-40.55-10.88-61.66.25-6.57.36-13.2.17-19.82,9.51,14,23.09,25.49,31.82,40,6,9.91,10.2,21.39,8.49,33.09-1.09,7.47-5.12,15.36-13.07,17.29C167.74,213.17,162.28,207.85,158.4,202.53ZM127.17,264c-16.67-17.68-18-46.71-17.27-69.55.11-3.47.31-6.92.54-10.36,6,10.57,15.52,20.28,22.16,28,8.21,9.49,16.59,20.66,18.4,33.45a28.17,28.17,0,0,1-3.49,18.72C142.21,273,133.13,270.26,127.17,264Zm73.2,26.58c10.42,2.89,24.44,7.52,37.41,7.94-1.32.81-2.65,1.61-4,2.4-22.23,13.34-45.09,26.59-72.09,23.5-8.79-1-21.93-6.37-18.91-17.86,2-7.7,11.58-14.63,18.62-17.27C174,284.55,187.89,287.06,200.37,290.53Zm19.2-59.63c12.11,1.13,28,5.21,42.17,4.51-20.53,15.36-41.4,29.76-68.41,29.69-7.44,0-19.58-2.09-20-11.77-.28-6,6.3-12.94,10.74-16.05C194.05,230.26,207.82,229.8,219.57,230.9Zm-11.4-90.29c-4.33-17.77,9.29-34.42,18.17-48.43,4.6-7.27,9.11-14.64,13.16-22.22,1.08-2,2.31-4.19,3.38-6.43a165.38,165.38,0,0,1,4.72,37.24c.16,13.63-.32,29.33-6.28,41.86-3.19,6.71-10,15.24-18.36,15.11C214.31,157.6,209.9,147.72,208.17,140.61ZM107.84,330c-8.26,3.63-15.28-1.85-20.19-8.29C71.12,300,71.6,273,72.68,247.11c.08-1.92.17-3.86.26-5.8,6.91,11.7,18.49,22.18,26.31,30.43,9.5,10,18.81,22.67,18.69,37.14C117.88,316.58,115.22,326.77,107.84,330ZM63,397.31c-11.46-9.43-14.49-24.7-15.28-38.77-.76-13.5-.51-27.11-.67-40.62,0-3.72-.07-7.43-.1-11.14,5.94,12,16.49,22.14,24.81,32.1,7.34,8.79,14.13,18.55,16.66,29.9a45.83,45.83,0,0,1-.75,23.14C83.8,404.18,72.06,404.8,63,397.31Zm106.41-20.25c-12.68,6.38-27.09,12.17-41.47,8.47-6.45-1.66-14.41-5.72-16.13-12.83a10.21,10.21,0,0,1-.08-4.43c.84-1.84,1.68-3.69,2.53-5.53,2.85-4,7.38-7.24,10.94-9.4,12-7.33,25.82-8,39.42-5.87,14.86,2.33,31,8.32,46.45,7.71-2.27,1.2-4.54,2.42-6.82,3.62C192.61,364.9,181.08,371.17,169.37,377.06Z"/><path class="wheatcls-1" d="M304.19,314.24c-3.83,10,1.49,18.74,11.58,21.27,14.5,3.63,31.94.57,46.41-2.09a122.53,122.53,0,0,0,42.75-16.31c9.48-5.85,22.78-14.67,24.35-26.78,1.07-8.27-4.66-14.65-11.44-18.57a36.75,36.75,0,0,0-5.53-2.59c-12.11-4.49-25.41-2.9-37.52.72-13.71,4.09-28,9.43-40.37,16.77C324,292.86,308.73,302.31,304.19,314.24ZM414.6,301.08a80.49,80.49,0,0,1-26.68,16.85,169.4,169.4,0,0,1-65.49,11,17.52,17.52,0,0,1-8.75-2.54c18-5.21,35.58-13,53.22-19.2,18.35-6.42,37.12-12.1,55.3-19C422.26,293.23,418.18,297.68,414.6,301.08ZM383.82,274c10.65-1.63,30-2.53,36.64,8.71-19.11,5.57-38,12.88-56.7,19.69-17.65,6.43-36.46,12-53.42,20.13-.92-2.21-.77-4.95,1-8.19,2.59-4.63,7.37-8.37,11.4-11.7a135.89,135.89,0,0,1,27.32-17.37C360.79,280.12,372,275.79,383.82,274Z"/><path class="wheatcls-1" d="M328.13,385.58c-9.13-7.62-21.84-18.35-34.28-19-10.71-.57-17.38,7.17-16.71,17.52.93,14.21,9,29.52,15.66,41.89a123,123,0,0,0,28.6,36c8.85,7.55,22.09,18.45,34.7,15.74,10.51-2.25,14.13-13.57,14.37-23.09.32-12.72-5.22-24.65-12.37-34.88C349.53,407.53,339.62,395.17,328.13,385.58Zm36,69.59c-.33,5.91-2.43,13-8.57,15.05-6.33,2.14-13-1.88-18.2-5a82.21,82.21,0,0,1-22.71-20.47c-12.51-16.16-25.28-37.42-29.53-57.65-.62-3-1.39-7.38-.12-10.25,1.92-4.39,8.44-3.81,12-3.07,4.9,1,10.07,4.61,14.26,7.28a136.67,136.67,0,0,1,23.32,18.91c9.17,9.24,17.87,19.45,23.8,31.11C362.13,438.48,364.56,446.74,364.09,455.17Z"/><path class="wheatcls-1" d="M474.11,354.24c-3.53-9.81-13-13.41-22.19-8.94-12.89,6.26-23.52,20.54-32,31.61a123.86,123.86,0,0,0-20.14,37.39c-3.72,11.46-8.72,28.43-2.56,39.94,5.35,10,17.2,9.87,26.6,6.41,11.74-4.32,20.33-13.53,26.89-23.87,8.16-12.86,15.48-27.83,19.8-42.48C473.85,382.88,478.36,366,474.11,354.24Zm-71.5,77.05c1.63-10.69,5.59-20.45,10.83-29.85,9.71-17.39,22.95-34.68,38.45-47.39a16.33,16.33,0,0,1,7.07-3.37c-9.77,16.18-17.45,34.11-26.28,50.83-9,17-18.76,33.75-27.32,51a11.49,11.49,0,0,1-2.68-3.31C400.32,444.79,401.92,435.82,402.61,431.29Zm64.91-52.57a136.53,136.53,0,0,1-9,30.79,144.48,144.48,0,0,1-14.61,27c-5.05,7.13-11.79,14.2-20.29,17.37A23.22,23.22,0,0,1,410.54,455c10-16.88,18.8-34.83,27.74-52.29,8.66-16.91,18.79-34,25.69-51.68,3.41,1.43,4.4,6.68,4.83,9.78C469.58,366.58,468.46,373.1,467.52,378.72Z"/><rect class="wheatcls-2" width="512" height="512"/></g></g></svg>