<svg xmlns="http://www.w3.org/2000/svg" viewBox="0 0 512 512"><defs><style>.wheat-graincls-1{fill:#4a2d2d;}.wheat-graincls-2{fill:none;}</style></defs><g id="Capa_2" data-name="Capa 2"><g id="bocetos"><path class="wheat-graincls-1" d="M275.14,251.82c-10.41,4.27-21.08,8.67-30.08,15.57-5.68,4.36-11.54,11.41-12.05,18.86-.71,10.37,9.63,13.57,18.11,13.74,13.63.28,27.52-.93,40.67-4.72,15.24-4.39,49.09-15.85,40.17-38.12C322.62,233.83,291.5,245.12,275.14,251.82Zm-29.65,21.61c7.58-6.51,17.24-10.09,26.26-14.08,13.09-5.8,32.9-15.32,46.81-7.54a16,16,0,0,1,5.4,4.63c-28,11-56,21.06-84.42,31a9.32,9.32,0,0,1-.38-1.4C238.32,280.85,241.81,276.59,245.49,273.43Zm70,4.73a98.25,98.25,0,0,1-22.33,10,166.25,166.25,0,0,1-26.71,6c-5.47.79-11.16,1.45-16.68.88a12.89,12.89,0,0,1-8.45-4.34,464.24,464.24,0,0,0,84.19-31C327.44,266.29,322.39,273.81,315.5,278.16Z"/><path class="wheat-graincls-1" d="M324.94,217.13c10-7.39,17.85-19,24.73-29.24,5.26-7.83,10.64-16.14,14.61-24.89,3.76-8.29,8.64-19.77,4.69-28.76-3.22-7.34-11.84-7.68-18.16-4.43-11.43,5.87-21.45,18.51-29.54,28.16s-16,20.34-20.74,32.19c-3.26,8.17-5.88,20.38,1.06,27.57C308,224.41,318.31,222,324.94,217.13Zm-20.36-22.42c4.38-15.65,18.35-30.68,29.21-42.33,5-5.39,14.07-17.27,21.64-18.52,9.19-1.52,9.51,8.08,7.2,14.34-5.65,15.24-15,30.29-24.45,43.41a126.05,126.05,0,0,1-13.81,16.69c-4.14,4-10.65,9.74-17.05,5.92C301.32,210.65,303.12,199.9,304.58,194.71Z"/><path class="wheat-graincls-1" d="M397.83,191.8c-5.37-4.78-15.7-11.7-22.07-4.68-9.14,10.07-7.13,26.55-5.68,38.91,1.83,15.6,6.48,30.78,16.22,43.35,6.12,7.9,15.89,16.75,26.86,13.33,9.66-3,13.22-13.29,13.58-22.45C427.73,235.39,416.44,208.37,397.83,191.8Zm1.44,79.9c-6.89-4.93-11.82-12.51-15.41-20.08A86.41,86.41,0,0,1,376,221.48c-.65-8.19-1.82-21.79,4.38-28.31,4.91,14.74,10,29.4,15.21,44.05,4.26,12.05,7.71,26.55,15.11,37.28C407.62,275.56,403.78,274.93,399.27,271.7Zm15,.52c-11.44-26.39-20.76-53.67-31.3-80.47,6.69-1.1,16.89,12.57,19.77,16.65,10.06,14.24,16.33,31.61,16.43,49.14C419.2,263.39,417.47,269,414.26,272.22Z"/><path class="wheat-graincls-1" d="M259.92,175.61c9.57,4.49,18.68-.17,21.77-9.88s1.73-21,.35-30.91a109,109,0,0,0-18.72-47.46c-5.58-7.75-14.6-12.61-23.76-7.85-21.81,11.35-11.27,49.84-3.5,66.53C240.92,156.47,249,170.51,259.92,175.61ZM234.18,93.37c2.49-7.83,9.66-12,17.31-8.6,9.14,4.07,12.45,15.2,15.67,23.8,4.71,12.54,8.25,25.7,9.07,39.11a62,62,0,0,1,0,8.94,33.48,33.48,0,0,1-1,6.12c-1.08,4-6.11,7.34-10.33,7.31-5-.05-10.66-8.25-13.33-11.76A88.66,88.66,0,0,1,244,146.46C235.94,131.55,228.77,110.35,234.18,93.37Z"/><path class="wheat-graincls-1" d="M194,204.84A94,94,0,0,0,224,225.33c7.45,3.13,20,8.18,27.62,2.76s5.23-16.3,2.7-23.68c-4-11.74-12-21.58-21.2-29.75-8.61-7.65-17.64-15.61-28.34-20.19-4.92-2.1-10.51-3.56-15.85-2.29-10.07,2.39-14.39,14.52-12.83,23.83C178,187.28,186.24,197,194,204.84Zm-1.42-45.33c13.76-1.32,26.63,11.16,36.09,19.54a76.31,76.31,0,0,1,15.12,17.44c2.22,3.69,6.34,11.78,6.48,17.95-9.09-9.77-21-18.11-31.11-26.36-11-9-22.34-17.48-33.77-25.88A13,13,0,0,1,192.62,159.51Zm-9.38,5.27c11.89,9.44,23.58,19.13,35.23,28.85,10,8.38,19.7,18.49,30.55,25.92-1.19,1.69-3.28,2.77-6.66,2.83-14,.28-30.79-12.27-40.89-20.83-5.78-4.9-11.62-10.54-15.64-17.15C182.16,178.35,180.19,170.12,183.24,164.78Z"/><path class="wheat-graincls-1" d="M124.43,263.15c14.64-1.71,28.38-7.54,41.5-14,8.36-4.09,21.25-11.34,18.72-22.59-2.24-9.92-16.13-12.48-24.42-14.2a97.1,97.1,0,0,0-38.76-.17c-11.11,2.22-24,6.15-31.33,15.45-5.76,7.33-7,17.84-1.08,25.45C97.18,263.65,112.27,264.58,124.43,263.15ZM96.27,230c6.52-6.54,16.6-9.48,25.37-11.36a88.79,88.79,0,0,1,27-1.51c7.2.7,20.47,1.95,26.41,6.71a10.79,10.79,0,0,1,1.79,1.79c-13.71,1.79-27.36,5.95-40.94,8.62-15,2.95-30.07,5.5-45.18,7.58h0A19.2,19.2,0,0,1,96.27,230Zm9.86,25.53c-4.68-.45-12-2.11-14.22-6.84a13.45,13.45,0,0,1-1.23-4.58.67.67,0,0,0,.32,0c14.3-1.28,28.46-2.95,42.63-5.3,14.69-2.44,30.68-4.51,44.62-9.89.35,3.84-3.44,7.54-7.51,10.38a61,61,0,0,1-6.57,3.92,92.8,92.8,0,0,1-27.5,9.15C126.57,254.09,116.44,256.54,106.13,255.55Z"/><path class="wheat-graincls-1" d="M218.64,275.34a77.67,77.67,0,0,0-2.19-22c-2.5-9.19-9.11-12.2-17.59-7.45-9.27,5.19-14.08,15.59-18.58,24.7-5.88,11.92-10.6,24.38-12.61,37.59-1.24,8.14-1.88,17.8,3.89,24.51,5.42,6.31,14.28,6.21,21.31,2.77,14.11-6.88,20.49-22.24,23.19-36.86A153.37,153.37,0,0,0,218.64,275.34Zm-6.45-2.49c-.93,15.92-4.4,33.69-13.38,47.17-4.29,6.44-16.39,16.65-23.25,6.71-3.94-5.7-1.47-15.42-.28-21.51a144.25,144.25,0,0,1,15.63-42.69c1.73-3.09,3.45-6.46,5.91-9,2.86-3,6.89-5,10.6-2.41C214.05,255.67,212.62,265.89,212.19,272.85Z"/><path class="wheat-graincls-1" d="M154.42,337.78a150.66,150.66,0,0,0-10.57-12.09c-8.94-9.3-20.81-24.18-35.12-23.33-26.46,1.59-5.94,42.69-.21,53.94,8.08,15.85,28.54,42.56,49.89,34.68,12.22-4.51,13.19-17,9.79-27.93C165.33,353.77,160.36,345.42,154.42,337.78ZM145.89,383c-14.91-4.44-25.44-18.45-32.11-31.65a162.36,162.36,0,0,1-10.15-24.43c-1.18-3.75-3-8.73-1.42-12.65,4.78-12,17.13-1.82,21.71,2,15.91,13.14,31.38,30,37.3,50.21C164.42,377.4,158,386.62,145.89,383Z"/><path class="wheat-graincls-1" d="M255.44,336.45c-10.67-.48-19.91,9.67-25.87,17.23A158.2,158.2,0,0,0,208.91,388c-4.23,9.74-9.3,22.69-5.21,33.31,3.19,8.31,11.05,12.85,19.77,10.3,10.05-2.95,18.65-12.76,24.7-20.84,6.16-8.23,10.24-17.76,13.2-27.56,2.69-8.92,5.83-19,6.44-28.27C268.39,346.09,265.69,336.92,255.44,336.45Zm-38.35,50.8c6.27-13.41,15.92-31.81,28.48-40.12A25.66,25.66,0,0,1,252,343.8c-6.65,14.24-13.49,28.44-21.49,42-6.67,11.3-15.28,23.1-18.16,36.18a14,14,0,0,1-3-9.84C209.71,403.71,213.6,394.71,217.09,387.25Zm40.28-13.45C252.59,387.94,246.29,403,236,413.93l-.9.94c-3.05,3.11-6.43,6.59-10.35,8.55-3.48,1.74-6.55,1.89-9,.92,4.95-14.14,12.41-26.52,19.49-39.72,7.17-13.38,14.11-26.86,20.23-40.77a1.3,1.3,0,0,0,.07-.33C267.18,346,259.62,367.17,257.37,373.8Z"/><path class="wheat-graincls-1" d="M394.55,300.84a122,122,0,0,0-24.3.49,125.19,125.19,0,0,0-16.47,3.11c-10,2.61-29.77,7-31.82,19.45-1.38,8.34,8.2,13.81,14.41,16.77,10.78,5.12,23,6.33,34.81,5.92,16-.55,50.83-2.15,51.26-24.9C422.72,306.5,407,301.84,394.55,300.84Zm21,22.44c-3,14.43-32.06,15.57-42.79,16a97.71,97.71,0,0,1-22-1.66c-6.06-1.16-30.11-5.57-18.95-18,5.65-6.27,15.7-8.44,23.62-10.15,13.35-2.88,26.93-2.38,40.42-.92C404,309.44,417.86,312,415.52,323.28Z"/><path class="wheat-graincls-1" d="M323.65,354.11c-5.64-7.23-13.43-13.47-23.11-12.46a15.5,15.5,0,0,0-11.69,7.08c-14.78,17.62,1.22,46.25,13.43,60.57,7.44,8.73,41.54,41.76,46.81,14.49,2.14-11.12-1.94-24.17-5.6-34.51C338.92,376.36,332.08,364.9,323.65,354.11Zm19.23,65.38c-3.51,15.31-19.75,1-25.32-3.83a98.62,98.62,0,0,1-17.67-20.09c-7-10.68-12.75-24.5-8.61-37.4,2-6.22,7.14-10.55,13.88-9.33,7.59,1.37,12.4,8,16.2,14.17a195.92,195.92,0,0,1,14.28,27.08C339,398.12,344.9,410.64,342.88,419.49Z"/><rect class="wheat-graincls-2" width="512" height="512"/></g></g></svg>