<svg xmlns="http://www.w3.org/2000/svg" viewBox="0 0 512 512"><defs><style>.white-lupinecls-1{fill:#4a2d2d;}.white-lupinecls-2{fill:none;}</style></defs><g id="Capa_2" data-name="Capa 2"><g id="bocetos"><path class="white-lupinecls-1" d="M158.61,234.86c12.73,16.37,34.2,25.75,54.37,28.47,43.66,5.87,84.94-22,103.06-60.81,15.9-34,23-89.48-17.5-109.21-10.34-5-21.65-7.46-32.19-12-11.4-4.87-13.49-17.87-24-23.85-20-11.39-41.34,3.37-55.05,17.73-18.77,19.64-31.86,44.4-38.77,70.6-6.79,25.77-9.21,54.83,3.71,79.15A68,68,0,0,0,158.61,234.86ZM239.39,69.43a27.88,27.88,0,0,1,4.77,5.68,23.8,23.8,0,0,1-3.15.53,31.43,31.43,0,0,1-10.32-.77,30.81,30.81,0,0,1-9.3-4A44.07,44.07,0,0,1,217,67.51C224.79,64.47,232.89,63.8,239.39,69.43Zm-71,44.84c6.42-14.16,16.94-26.2,29.41-35.37a104.35,104.35,0,0,1,14.8-9.43c3.79,5.4,10.46,8.93,16.6,10.65a34.38,34.38,0,0,0,18.2,0,26.38,26.38,0,0,0,5.92,6.7c6.23,4.71,14.48,6.68,21.79,9.05,18.18,5.87,34.94,13.36,40.25,33.4,4.74,17.95,1.23,38.2-4.14,55.61C300,221.33,268.11,251.37,229,253.58c-19.57,1.11-42.67-5.12-57.34-18.6-14.35-13.2-19.76-33.28-19.51-52.21C152.44,159.87,159,135.12,168.43,114.27Z"/><path class="white-lupinecls-1" d="M212,292.3c-16-19-36-30.75-61.15-32-20.22-1-40.4,4-58.57,12.66-17,8.1-36,19.91-46.42,36-11.41,17.55-12.9,40.23-8.85,60.34,7.74,38.39,37.58,91.1,83,89.27,22.69-.92,43-17.61,61.36-29.26,10-6.36,19.81-13.53,31.69-15.83,10.55-2.05,19.65-3.29,27.25-11.74,13.78-15.3,12.92-36.33,5.56-54.29C237.76,327.68,225.69,308.59,212,292.3Zm25.59,94.91c-8.39,18.24-29.52,14.47-44.81,23.37-17.36,10.11-33,23.57-51.06,32.51-42.63,21.16-76-20.57-90.43-56-8.27-20.35-12.2-42.67-4-63.69,9.07-23.32,32.39-35.06,54.17-42.82,25-8.88,53.06-14.72,78.13-3A74.08,74.08,0,0,1,193,285.74c14.6,11.12,24.65,29.66,33.6,45.4C235.87,347.42,246.2,368.47,237.57,387.21Z"/><path class="white-lupinecls-1" d="M476.48,276.38a17.36,17.36,0,0,0-2.93-5.09,17.17,17.17,0,0,0-2.22-2.37c-.85-.72-1.93-1.13-2.76-1.83a1.34,1.34,0,0,0-.78-.33c-1.23-8-5.36-15.49-13.1-21.65-17.27-13.72-38.44-24.83-59.9-30.16-42.66-10.6-91.62,11.67-110.19,52.22-8.79,19.2-11.12,40.67-11.47,61.58-.38,22.12,5.78,39.66,20.83,56.09,27.7,30.24,75.15,44.37,111.09,19.58,18-12.42,28.21-31.91,36.43-51.62,6.78-16.25,13.12-32.87,19-49.62a18.15,18.15,0,0,0,6.76-4.2,36.17,36.17,0,0,0,7.34-10.59C476.39,284.65,477.93,280.54,476.48,276.38Zm-36.32,48.95c-5.94,16.27-11.37,33.24-21,47.77C409.25,388,396,399.32,378.29,403.42c-18.41,4.26-37.54.7-53.79-8.7-15.44-8.93-30.6-23.58-36.78-40.65-6-16.71-4-38.23-1.09-55.45,3.05-17.9,9.65-35.26,22.77-48.23,13.89-13.73,33.38-24.81,53-26.68,23.47-2.24,45.35,6.4,65.72,17.15,8.73,4.61,18.73,7.95,25.81,15.14,10.26,10.41,3.48,23.63-1.13,35S444.35,313.87,440.16,325.33Zm29.68-38.68a35.25,35.25,0,0,1-5.69,8.54c-.45.45-.93.86-1.41,1.26q3.81-11.24,7.31-22.49a12.75,12.75,0,0,1,1.69,3.2C472.89,280.61,471.44,283.61,469.84,286.65Z"/><rect class="white-lupinecls-2" width="512" height="512"/></g></g></svg>