<svg xmlns="http://www.w3.org/2000/svg" viewBox="0 0 512 512"><defs><style>.white-beanscls-1{fill:#4a2d2d;}.white-beanscls-2{fill:none;}</style></defs><g id="Capa_2" data-name="Capa 2"><g id="bocetos"><path class="white-beanscls-1" d="M444.42,95.08c-14.7-19.27-34.89-33.55-57.13-42.9-17-7.14-35-12.33-53.46-13.81-16.25-1.3-37.87-1.21-51.34,9.4s-17.8,28.84-15.16,45.16c3.7,22.91,19.08,42.7,30.91,62,12.32,20.13,23.48,43,42.23,58.08,31.72,25.45,79.73,26.4,107.88-5.11C476.8,176.07,468.57,126.73,444.42,95.08ZM322.2,174.14c-11.23-17-23.11-33.63-33.74-51l-.53-.88c15.57-3.11,29,15.16,37.28,26.09,9.48,12.5,16.93,28.81,10.5,44.14A183.73,183.73,0,0,1,322.2,174.14Zm41.69,40.42a77.94,77.94,0,0,1-23.32-16.77c13.71-18.18,4.3-39.51-8.88-55.15-11.46-13.61-28.16-33.13-47.42-26.8-8.8-16.29-14.86-35.57-5-52.72,5.88-10.18,16.56-13.91,27.76-14.69,36.62-2.54,81.2,8.84,109.47,32.92,26.83,22.86,47,62.45,36.08,98.07C441.29,216.41,397.1,229.87,363.89,214.56Z"/><path class="white-beanscls-1" d="M229.25,265.7c22.58-10.57,47.45-26.71,57.48-50.59,9.45-22.48,3.22-46.41-16.57-60.7C246.6,137.4,212.3,140.76,192,119c-10.13-10.84-18.64-21.74-32.3-28.39a74.73,74.73,0,0,0-40.8-7.32C68.66,89.16,43,143.29,45.84,189c3.22,51.65,54.53,87.51,102.52,92.17C176,283.86,204.26,277.4,229.25,265.7Zm-51-145.7c6.75,7.62,13.78,14.15,23,18.69,10.46,5.16,21.82,7.9,33,11.18,4.16,1.23,8.47,2.64,12.71,4.32-16.45,8.77-32.55,7.49-49.3-1.36-13.41-7.08-38.73-23.51-27.85-41.26A92.63,92.63,0,0,1,178.25,120ZM61.75,212c-21.28-44.24,4.9-105.08,53.78-116.9,1.12-.18,2.24-.35,3.39-.46,17.13-1.67,32.24,3.17,45.15,12.49-12.53,19.51,7.17,39.9,23.65,50.26,18.3,11.51,49.81,22.1,65.29.15a2.85,2.85,0,0,0,.3-.53c15.84,7.49,29.14,19.25,28,39-1.44,23.9-21.72,40.81-40.91,51.89-21.46,12.38-45.6,20.7-70.45,22C126.83,272,81.14,252.27,61.75,212Z"/><path class="white-beanscls-1" d="M348.23,282.85c-18.89-9.55-43-16-64.2-15.6a184.41,184.41,0,0,0-31.12,2.92c-12.4,2.4-23.91,8.62-34.92,14.54-22.24,12-39.69,26.25-51.43,49-13.15,25.46-17.74,54.14-14.39,82.54,1.84,15.54,5.5,33.13,16.44,45,13.21,14.35,36,15.41,53.59,9.85,20.75-6.57,36-23.09,53.11-35.63,20.62-15.08,45.53-21.35,64.81-38.68,17.44-15.67,31.74-37.42,34.83-61C377.79,314,368.06,292.88,348.23,282.85ZM249.85,444.2c2.75-12.63,8-24.53,17.91-33.47,10.48-9.51,27-7.7,41.4-5.83-7.45,4.26-15.17,8.16-22.91,12.34C276,422.76,263.42,433.93,249.85,444.2ZM365.74,328.55c-.67,20.83-14.28,41-28.4,55.47a110.7,110.7,0,0,1-19.7,15.76c-17.21-4.73-39.51-9.47-54.09,2.86-13.31,11.26-21.3,30-21.63,47.34-21.76,15.19-45.19,25.09-64.73,4.54-11.53-12.12-13.82-30.85-14.95-46.78-1.57-22.22,2-44.67,11.58-64.85,17.44-36.68,57.53-60.55,97.31-64.82,19.17-2.06,36.23,1.08,54.44,7.13C347.19,292.38,366.57,302.49,365.74,328.55Z"/><rect class="white-beanscls-2" width="512" height="512"/></g></g></svg>