<svg xmlns="http://www.w3.org/2000/svg" viewBox="0 0 512 512"><defs><style>.white-buttoncls-1{fill:none;}.white-buttoncls-2{fill:#e5d2c4;}.white-buttoncls-3{fill:#bc907b;}.white-buttoncls-4{fill:#4a2d2d;}.white-buttoncls-5{fill:#f7ede4;}</style></defs><g id="Capa_2" data-name="Capa 2"><g id="bocetos"><rect class="white-buttoncls-1" width="512" height="512"/><path class="white-buttoncls-2" d="M439.66,295.66c-7.16,28.11-30.25,45.76-59.6,56.37a223,223,0,0,1-42.78,10.38c-35.8,5.31-119.66,15-189-11.24-23.5-8.88-45.35-21.9-63.07-40.6C39.46,262.25,91.73,171.92,112.45,135S183.08,67.6,265.36,66.3s140,33.71,155.5,73.86S450,254.84,439.66,295.66Z"/><path class="white-buttoncls-3" d="M380.06,352a223,223,0,0,1-42.78,10.38c-35.8,5.31-119.66,15-189-11.24,5.68-24.53,18.62-62,46.57-80.49,43.6-28.84,112.31-24.31,143.37-1.26C368.89,292.18,376.17,333.68,380.06,352Z"/><path class="white-buttoncls-4" d="M151.67,347.54c2.67-4.69,3.35-10,5-15.12a114.83,114.83,0,0,1,7.81-18.8,111.58,111.58,0,0,1,23.45-30.55c21.41-19.61,49.4-28.86,78.23-28.22,26.89.6,56.65,6,76.13,26A101.61,101.61,0,0,1,362,310.4a139.39,139.39,0,0,1,6.6,17.88c1.56,5.32,2.2,11,4.89,15.87,1.16,2.09,3.59,2.16,5.91,1.08,4.22-1.94-4-27.82-8.44-38.4-5.27-12.61-12.57-24.69-22.5-34.2-21.62-20.68-53.28-27-82.32-27.5-29.66-.48-59.17,10.66-81.52,30.16a117.65,117.65,0,0,0-26.92,34.38c-5.53,10.65-12.64,25.13-10.61,37.27.36,2.19,3.59,2.36,4.59.6Z"/><path class="white-buttoncls-4" d="M192.23,329c-5.29-3.36-11.36-5.43-17.06-8-4.67-2.11-10.86-6.77-16.06-6.87-2.19,0-4.42,3.07-3.24,4.54,3.45,4.32,12.86,7.1,17.79,9.29,5.31,2.36,10.67,5.05,16.39,6.2a2.84,2.84,0,0,0,2.18-5.16Z"/><path class="white-buttoncls-4" d="M216.06,289.92c-1-4.31-4.71-7.79-7.39-11.17-1.42-1.79-2.88-3.56-4.27-5.38s-2.09-3.57-4.09-4.54a2.61,2.61,0,0,0-3.47.91c-2.82,4,1.95,8.31,4.33,11.29,3.15,3.94,6.33,9.67,11,11.92a2.72,2.72,0,0,0,3.94-3Z"/><path class="white-buttoncls-4" d="M247.24,283.41l.11,0a28.53,28.53,0,0,1,5.05-.59l.54,0c.06-4.37-.84-8.68-1.46-13-.65-4.51-.08-14.69-2.64-18.53-1.24-1.86-5.5-.63-6.15,1.62-1.23,4.2,1.21,12.42,1.91,16.67C245.35,274.19,245.79,279,247.24,283.41Z"/><path class="white-buttoncls-4" d="M290.16,285.89a113.79,113.79,0,0,0,4-18c.7-5,1.89-10,.8-15-.42-1.9-3.6-2.51-4.44-.58-2.18,5.09-2.14,10.85-2.88,16.31s-1.38,11.06-1.87,16.66c-.22,2.58,3.66,2.9,4.38.59Z"/><path class="white-buttoncls-4" d="M324,297.36c3-3.18,4.86-7.45,7.29-11.09s8.12-8.46,9.91-12.63c.95-2.22-.63-5.27-2.92-4.21-4.14,1.93-9.13,8.73-11.76,12.35-2.76,3.81-6.06,8.37-6.71,13.14-.32,2.26,2.28,4.46,4.19,2.44Z"/><path class="white-buttoncls-4" d="M340.07,331.57c5.35-2.33,10.22-5.82,15.38-8.55s10.56-4.93,15.38-8.38c1.48-1.05,1.17-3.94-1-3.78-11.36.84-25.23,8.35-32.48,17.17a2.27,2.27,0,0,0,2.74,3.54Z"/><path class="white-buttoncls-4" d="M396.4,309.38a13.55,13.55,0,0,0,5.33-2.47c1.78-1.39,3.6-4.05,3.35-6.43a4.69,4.69,0,0,0-4.56-4.56c-3-.18-5.78,2.14-8.34,3.45a5.47,5.47,0,0,0-2.24,6.84,5.54,5.54,0,0,0,6.46,3.17Z"/><path class="white-buttoncls-4" d="M396.7,287.86l.92-1.44a5.35,5.35,0,0,0,.56-4.41,4.29,4.29,0,0,0-4-3.05,5.24,5.24,0,0,0-4.06,1.66l-1.16,1.25a4.94,4.94,0,1,0,7.76,6Z"/><path class="white-buttoncls-4" d="M127,306.08a7.33,7.33,0,0,0,1.68,3.29,6.63,6.63,0,0,0,1.16.87,1.83,1.83,0,0,0,.24.13,5,5,0,0,0,3.79.53,5.33,5.33,0,0,0,2.08-1.21,6.17,6.17,0,0,0,.8-1c.16-.31.3-.67.43-1a4.78,4.78,0,0,0,.44-2.16,6.68,6.68,0,0,0-.24-1.54c-.08-.23-.17-.46-.26-.68a5.86,5.86,0,0,0-2.41-3.14,3.9,3.9,0,0,0-1.95-.62,4,4,0,0,0-2.1.09,5.25,5.25,0,0,0-3.66,6.45Z"/><path class="white-buttoncls-5" d="M329.2,298c-20.24-20.24-86-19-105.63-12s-29.73,16.45-36.69,50.6S173,427.08,197,436.56s99.53,16.59,120.82,9.49c15.18-5.06,25.93-15.81,27.83-33.52C346.66,403.07,349.44,318.28,329.2,298Z"/><path class="white-buttoncls-4" d="M216.77,318.83c4,.13,12.95,1.17,12.95-5s-8.94-5.15-12.95-5c-6.46.21-6.47,9.83,0,10Z"/><path class="white-buttoncls-4" d="M214,338.54l5-.7a3.4,3.4,0,0,0,2.51-3.3c-.06-1.37-1-3.09-2.51-3.3l-5-.69a4.14,4.14,0,0,0-4,6.92,4.38,4.38,0,0,0,4,1.07Z"/></g></g></svg>