<svg xmlns="http://www.w3.org/2000/svg" viewBox="0 0 512 512"><defs><style>.yuccacls-1{fill:none;}.yuccacls-2{fill:#be7a65;}.yuccacls-3{fill:#fff5d9;}.yuccacls-4{fill:#4a2d2d;}</style></defs><g id="Capa_2" data-name="Capa 2"><g id="bocetos"><rect class="yuccacls-1" width="512" height="512"/><path class="yuccacls-2" d="M137,258.24s24.44-25.37,44.17-39.94,76.59-62,100.08-77.52S339,90.5,376.62,92.85s47.93,29.6,47,52.62-17.39,72.83-28.67,99.15-39,53.09-56.38,65.78-34.77,24.9-48.87,39S249.28,372,225.32,385.11s-47.46,28.19-60.61,23S110.2,283.62,137,258.24Z"/><path class="yuccacls-3" d="M219.68,271.4s-7.05-29.13-44.17-31.48S111.14,277,101.74,323.09s-.47,74.71,28.19,86,51.22,5.17,66.73-14.09,24.43-39.47,29.6-65.32S219.68,271.4,219.68,271.4Z"/><path class="yuccacls-4" d="M217.15,256.21a47,47,0,0,0-5.43-5.77c-14-12.52-35.87-17-53.7-11.37-36.84,11.56-53.34,48.21-60.47,83.23-6.47,31.83-7.14,70.54,25.33,88.55,15,8.32,36,10.43,52.47,4.49,16.7-6,28.07-19.2,36.67-34,11.77-20.29,19.38-43.5,20.35-67C233.15,295.25,229.61,271.83,217.15,256.21Zm-3.23,96.28c-5.59,14.13-16.18,33.23-26.87,44.21-12.4,12.74-27.6,15.74-44.75,12-15-3.22-27.67-12.48-34.29-27.18-5.77-12.81-5.61-27.9-4.13-41.61,3.19-29.45,12.73-61.83,36.55-81.24,13-10.6,30.64-16.83,47.29-12.35,18.86,5.08,27,22.27,30.89,39.95C223.51,308.86,222.37,331.14,213.92,352.49Z"/><path class="yuccacls-4" d="M255.72,283.77c9-2.81,10.47,10,10.7,15.88.07,1.68,2.63,2.17,3,.41,1.33-5.66,1.61-11.55-2.25-16.33-3-3.72-8-5.7-12.62-4-2.53.91-1.51,4.9,1.13,4.08Z"/><path class="yuccacls-4" d="M316,247.35a5.77,5.77,0,0,1,6.65.7c1.59,1.52,1.68,3.6,2.42,5.52a1.94,1.94,0,0,0,3.49.46c2-3.49-.29-7.89-3.22-10.05a10.25,10.25,0,0,0-11.48-.29,2.12,2.12,0,0,0,2.14,3.66Z"/><path class="yuccacls-4" d="M289.58,178.17c5,.59,5.74,5.84,5.75,9.83,0,1.47,2,2.48,3.06,1.27,5.38-6.25-2.12-15-8.81-15.53-2.88-.22-2.76,4.1,0,4.43Z"/><path class="yuccacls-4" d="M362.13,145.26a7,7,0,0,1,6.68,2.43c1.69,2.13,1.7,4.91,1.49,7.49-.15,2,2.47,2.25,3.42.92,2.55-3.56,1.65-8.58-1.17-11.73a11.5,11.5,0,0,0-11-3.27c-2.29.49-1.83,4.47.56,4.16Z"/><path class="yuccacls-4" d="M347.33,202.24a10.46,10.46,0,0,1,9.33,1.61c2.78,2,3.28,4.79,5.11,7.38a1.9,1.9,0,0,0,3.42-.45c1.21-4.21-2.71-8.6-6-10.7a14.73,14.73,0,0,0-12.9-1.56c-2.29.84-1.38,4.45,1,3.72Z"/><path class="yuccacls-4" d="M248,223.41a10.7,10.7,0,0,1,5.24,1.43c1.55.9,2.68,2.3,4.18,3.25A1.91,1.91,0,0,0,260.2,226c-1.43-4.75-7.74-6.89-12.2-6.86-2.78,0-2.77,4.26,0,4.31Z"/><path class="yuccacls-4" d="M127.24,307c6.17-.49,11.75.87,17.73,2.11,1.87.38,3.19-2.21,1.36-3.21-5.76-3.18-12.64-3.66-19.09-3.25-2.79.17-2.79,4.57,0,4.35Z"/><path class="yuccacls-4" d="M132.44,335.35a27.42,27.42,0,0,1,11.3,2.14c1.66.67,2.73-2,1.21-2.86a25.08,25.08,0,0,0-12.51-3.1c-2.46,0-2.46,3.9,0,3.82Z"/><path class="yuccacls-4" d="M173.35,380.34a11.32,11.32,0,0,1-9-1.38c-1.81-1-3.22,1.23-2.08,2.7,2.92,3.75,8,4.62,12.37,3.24,2.9-.91,1.66-5.48-1.25-4.56Z"/><path class="yuccacls-4" d="M208.5,279.05a14,14,0,0,1-6.25-3.11c-1.57-1.21-3.26,1.05-2.51,2.51a10.82,10.82,0,0,0,7.48,5.24c3.05.64,4.3-4.12,1.28-4.64Z"/></g></g></svg>