<svg xmlns="http://www.w3.org/2000/svg" viewBox="0 0 512 512"><defs><style>.yucca02cls-1{fill:none;}.yucca02cls-2{fill:#be7a65;}.yucca02cls-3{fill:#4a2d2d;}</style></defs><g id="Capa_2" data-name="Capa 2"><g id="bocetos"><rect class="yucca02cls-1" width="512" height="512"/><path class="yucca02cls-2" d="M415.24,45.84C377.3,38.08,298,110.52,268.21,136s-115.13,116-147,151.34S53.91,368.8,50.89,402s17.68,62.52,71.58,57.35,146.17-84.08,178.94-109.52l32.77-25.44s57.34-58.21,74.59-81.07c21.48-28.45,34.3-71,39.24-95.72C457.06,102.33,453.18,53.6,415.24,45.84Z"/><path class="yucca02cls-3" d="M97.52,381.5c2.35-1,7-2.79,9-.21,1,1.38,1,3.95,1.26,5.57a17.77,17.77,0,0,0,1.73,5.67,1.74,1.74,0,0,0,3.15-.41c.62-3.09,0-6.5-.65-9.57a8.3,8.3,0,0,0-3.48-5.68c-4-2.55-9.15-.63-13,1.16-2.37,1.09-.31,4.48,2,3.47Z"/><path class="yucca02cls-3" d="M142.53,342.31A6.88,6.88,0,0,1,147,343c1.46.75,2.58,2.4,4.32,2.32a2.08,2.08,0,0,0,1.93-1.47c.8-2.63-2.27-4.76-4.35-5.68a11.46,11.46,0,0,0-7.68-.5c-3,.81-1.72,5.19,1.27,4.61Z"/><path class="yucca02cls-3" d="M161.23,364.41c6.79-4.36,12.94,2.56,11.61,9.4a1.42,1.42,0,0,0,2.57,1.09c3.16-4.3,2.1-10.45-1.87-13.86a11.93,11.93,0,0,0-14.49-.36c-2.21,1.6-.2,5.27,2.18,3.73Z"/><path class="yucca02cls-3" d="M179,277.33a9.27,9.27,0,0,1,4.5,1.26c1.4.81,2.41,2.13,3.81,2.89a2.22,2.22,0,0,0,3.21-2.47c-.4-2.34-2.89-4.18-4.94-5.07a11.85,11.85,0,0,0-7.13-.71c-2.37.44-1.74,4.08.55,4.1Z"/><path class="yucca02cls-3" d="M218.5,328.76a5.43,5.43,0,0,1,5,.58c1.34.88,3.13,2.58,3.6,4.13a1.7,1.7,0,0,0,3.32-.45,8.26,8.26,0,0,0-3.94-8.23,10.63,10.63,0,0,0-9.43-1.15c-3.15,1.2-1.83,6.29,1.41,5.12Z"/><path class="yucca02cls-3" d="M208,300.51c1.25.69,2.5,1.36,3.73,2.09a1.57,1.57,0,0,0,1.89-2.45c-1-1-2-2-3-3.07a2.18,2.18,0,1,0-2.65,3.43Z"/><path class="yucca02cls-3" d="M212.8,226.2c7.37-3.13,12.73,2.35,14.86,8.87a1.4,1.4,0,0,0,2.68,0c1.14-4.68-1.1-9.24-5-12-4.42-3.14-10-3-14.68-.45-2.4,1.32-.29,4.59,2.09,3.57Z"/><path class="yucca02cls-3" d="M240.18,256a6,6,0,0,1,2.29.38,12.19,12.19,0,0,0,2.39.86,2,2,0,0,0,2.21-2.87c-1.08-2.39-4.54-3.07-6.89-3-3,.09-3,4.67,0,4.63Z"/><path class="yucca02cls-3" d="M275.46,298.23c8.07-.8,8.58,9,12.4,13.67a1.73,1.73,0,0,0,2.86-.76c2-8.94-6.28-19.95-15.89-17.57-2.53.62-2.08,4.92.63,4.66Z"/><path class="yucca02cls-3" d="M303.12,270.75c1.57-4.15-1.47-11-6.68-9.82-1.89.44-2.14,2.69-1.06,4a24,24,0,0,1,2.06,2.17,2.39,2.39,0,0,1,.26,2.16,2.84,2.84,0,0,0,2,3.45,2.88,2.88,0,0,0,3.46-2Z"/><path class="yucca02cls-3" d="M257.8,188.12a13,13,0,0,1,3.8,1.85c1.37.9,3.82,1.71,4.46-.52.54-1.91-1.34-3.39-2.82-4.13a9.75,9.75,0,0,0-4.94-.89c-2.06.11-2.63,3.13-.5,3.69Z"/><path class="yucca02cls-3" d="M284.44,221.15c5.47-2.31,9.65,1.63,12.93,5.46,1,1.19,3.46.28,3.28-1.36-1-8.36-11.73-10.86-18.28-7.64-2.42,1.19-.3,4.54,2.07,3.54Z"/><path class="yucca02cls-3" d="M335.13,251.17c1.52,2.07,3,4.45,5,6.09,1.05.86,3.23.09,2.6-1.52a31.17,31.17,0,0,0-4.15-6.58,2.06,2.06,0,0,0-2.73-.72,2,2,0,0,0-.71,2.73Z"/><path class="yucca02cls-3" d="M368.66,221.79c-.75-5.94-6.08-11.52-12.45-10.15a1.44,1.44,0,0,0,0,2.75c3.91.71,8,3.07,8.54,7.4.31,2.46,4.22,2.49,3.91,0Z"/><path class="yucca02cls-3" d="M309.75,173c3.95-.7,7.22,2.16,9.53,5a1.54,1.54,0,0,0,2.6-1.07c-.53-6.36-7.55-9.36-13.23-7.92-2.62.66-1.48,4.44,1.1,4Z"/><path class="yucca02cls-3" d="M309.63,137.22c6.45-1.27,11,2.34,15.28,6.59a1.8,1.8,0,0,0,3-1.73c-2-8-12.26-11-19.32-8.67a2,2,0,0,0,1.05,3.81Z"/><path class="yucca02cls-3" d="M353.15,185.27a4.14,4.14,0,0,1,.61,0h0l.23,0,.58.16c.35.13-.32-.21.25.12s1.15.83,1.84,1.3a1.58,1.58,0,0,0,2.35-1.35c.31-3-3.26-5-5.85-4.83a2.28,2.28,0,1,0,0,4.55Z"/><path class="yucca02cls-3" d="M394.53,184.13a5.16,5.16,0,0,1,4.31,2.23c1.08,1.51,1.1,3.13,1.68,4.8.39,1.11,2,1.89,2.92.77,2.05-2.56,1-6.15-.92-8.49a9.54,9.54,0,0,0-8-3.6c-2.72.2-2.79,4.32,0,4.29Z"/><path class="yucca02cls-3" d="M388.65,154.51c-.67-12.38-13.68-19.65-24-12.23a1.31,1.31,0,0,0,1.32,2.26c8-3.56,17.56,1.11,18.59,10,.3,2.55,4.25,2.69,4.1,0Z"/><path class="yucca02cls-3" d="M370.64,97.25a17.25,17.25,0,0,1,4,1.74c1.25.76,2.43,1.86,3.85,2.25s3-1,2.45-2.45c-1.29-3.36-5.82-5.18-9-6.12-2.94-.86-4.18,3.7-1.26,4.58Z"/><path class="yucca02cls-3" d="M406.62,117.4c4.06.12,5.59,3.21,7.54,6.2.8,1.24,3.18,1.27,3.47-.45,1-6.05-5.63-10.54-11-10.73-3.2-.11-3.2,4.88,0,5Z"/><path class="yucca02cls-3" d="M141,415.07a3.73,3.73,0,0,1,2.06.88c.86.72,1.16,1.7,2.18,2.3a1.85,1.85,0,0,0,2.52-.66,3.16,3.16,0,0,0-.1-3.08,6.31,6.31,0,0,0-2-2.18,6.39,6.39,0,0,0-5.17-1c-2.15.47-1.53,3.58.5,3.7Z"/></g></g></svg>