<svg xmlns="http://www.w3.org/2000/svg" viewBox="0 0 512 512"><defs><style>.zucchinicls-1{fill:none;}.zucchinicls-2{fill:#51780a;}.zucchinicls-3{fill:#4a2d2d;}.zucchinicls-4{fill:#fff;}</style></defs><g id="Capa_2" data-name="Capa 2"><g id="bocetos"><rect class="zucchinicls-1" width="512" height="512"/><path class="zucchinicls-2" d="M392.38,121.25c-6,1.55-12.44.94-18.43-.07a42.91,42.91,0,0,1-14.1-4.62c-9.44-5.3-24.19-12.93-23-24.57-12.52,1.33-24,4.32-30.08,8.76-16.81,12.29-44,65.33-67.26,108s-42,75-62.09,95.73-71.15,58.21-74.38,96.37,26.52,82.78,96.37,70.5,108-80.2,133.23-137.77,44.63-115.12,53-159.1c5.09-26.66,7.81-42.14,7.58-53.52C393,121.07,392.68,121.17,392.38,121.25Z"/><path class="zucchinicls-3" d="M402.72,97.52c-4.54-8.09-2.61-10.68,1-18.35,2.39-5,4.78-10.14,4-15.89C405.09,43.06,374.48,30,360.45,46.42c-7.1,8.3-8.27,19.89-16.79,27.18-5.7,4.89-13.23,9.09-17.11,15.86-5.46,9.51,4.88,15.58,11.53,20.92a95.59,95.59,0,0,0,18.59,11.55c9.86,4.7,22.66,10.46,33.23,4.65,7.82-4.29,18.9-14.72,15.3-24.65A29.72,29.72,0,0,0,402.72,97.52ZM397,72c-2.56,7.34-7.53,13.46-6.16,21.72.48,2.88,1.81,4.65,3,7.17,2.82,5.91.48,9.41-4.47,13.59-8.56,7.22-19.71,4.18-28.59-.73a98.85,98.85,0,0,1-14.08-9.78c-2.41-2-12.05-9-7.14-14.2,3.4-3.61,6.42-5.25,10.22-8.42a35.71,35.71,0,0,0,11.23-13.65c.72-1.44,1.36-3,2-4.51,6.67,8.74,19.18,14.76,29.2,9.2,2.58-1.43,1.67-4.92-.77-5.83-4.47-1.68-9.27-2.33-13.61-4.39a37.47,37.47,0,0,1-10.26-7.85,14,14,0,0,1,4.52-4c5.49-3,11.75-.89,16.72,2.27C395.89,57.07,400.06,63.28,397,72Z"/><path class="zucchinicls-3" d="M141.73,409.81c39.87-34.63,74.64-75.48,104.39-119a689,689,0,0,0,41.47-69.08q9-17.15,17-34.78c5.25-11.6,12-24.08,14.53-36.58.5-2.41-2.75-4-4.09-1.72-6.45,10.93-10.23,23.8-15.43,35.39q-7.94,17.64-16.87,34.82a670.11,670.11,0,0,1-40.54,67.76c-30,44-65.2,83.35-103.59,120.06-2.11,2,1,5,3.17,3.17Z"/><path class="zucchinicls-3" d="M205,429.09c37.84-35.65,69.6-78.37,95.31-123.45a594.4,594.4,0,0,0,33.4-68.5c9.49-23.06,20.7-49,23.54-73.93.31-2.77-3.56-2.71-4.44-.6-4.92,11.78-7.62,24.63-11.65,36.76q-5.82,17.52-12.73,34.66a564.57,564.57,0,0,1-34,70c-25.56,44.67-57.26,84.6-92.56,121.9a2.2,2.2,0,0,0,3.11,3.12Z"/><path class="zucchinicls-4" d="M128.51,384.07c.73.08.83.08.29,0,.39.06.79.14,1.18.22l2.11.42c2.75.53,4.8.67,7.4-.56s3.87-5.62,2.1-8a8.79,8.79,0,0,0-4.29-3.33,12.38,12.38,0,0,0-3.82-.68,21.46,21.46,0,0,0-6.46.9,5.62,5.62,0,0,0-4,6.16c.4,2.91,2.7,4.62,5.52,4.87Z"/><path class="zucchinicls-4" d="M155.24,358.64l2-.19a4.43,4.43,0,0,0,2.27-.51,4.35,4.35,0,0,0,1.89-1.22,6,6,0,0,0,1.73-4.16,5.94,5.94,0,0,0-1.73-4.16l-1.19-.92a5.86,5.86,0,0,0-3-.8l-2-.19A6.07,6.07,0,0,0,151,356.86a6,6,0,0,0,4.29,1.78Z"/></g></g></svg>